<?xml version="1.0" encoding="UTF-8" standalone="no"?>
<svg
   xmlns:dc="http://purl.org/dc/elements/1.1/"
   xmlns:cc="http://creativecommons.org/ns#"
   xmlns:rdf="http://www.w3.org/1999/02/22-rdf-syntax-ns#"
   xmlns:svg="http://www.w3.org/2000/svg"
   xmlns="http://www.w3.org/2000/svg"
   xmlns:sodipodi="http://sodipodi.sourceforge.net/DTD/sodipodi-0.dtd"
   xmlns:inkscape="http://www.inkscape.org/namespaces/inkscape"
   version="1.1"
   id="Layer_1"
   x="0px"
   y="0px"
   viewBox="0 0 120.47 122.88007"
   xml:space="preserve"
   sodipodi:docname="forum.svg"
   width="120.47"
   height="122.88007"
   inkscape:version="0.92.5 (2060ec1f9f, 2020-04-08)"><metadata
     id="metadata13"><rdf:RDF><cc:Work
         rdf:about=""><dc:format>image/svg+xml</dc:format><dc:type
           rdf:resource="http://purl.org/dc/dcmitype/StillImage" /><dc:title /></cc:Work></rdf:RDF></metadata><defs
     id="defs11" /><sodipodi:namedview
     pagecolor="#ffffff"
     bordercolor="#666666"
     borderopacity="1"
     objecttolerance="10"
     gridtolerance="10"
     guidetolerance="10"
     inkscape:pageopacity="0"
     inkscape:pageshadow="2"
     inkscape:window-width="1848"
     inkscape:window-height="1016"
     id="namedview9"
     showgrid="false"
     fit-margin-top="0"
     fit-margin-left="0"
     fit-margin-right="0"
     fit-margin-bottom="0"
     inkscape:zoom="1.9205718"
     inkscape:cx="-125.65211"
     inkscape:cy="99.449625"
     inkscape:window-x="72"
     inkscape:window-y="27"
     inkscape:window-maximized="1"
     inkscape:current-layer="Layer_1" /><style
     type="text/css"
     id="style2">.st0{fill-rule:evenodd;clip-rule:evenodd;}</style><path
     style="clip-rule:evenodd;fill-rule:evenodd;fill:#ffffff"
     inkscape:connector-curvature="0"
     id="path4"
     d="m 17.2,0 h 62.29 c 4.73,0 9.03,1.93 12.15,5.05 3.12,3.12 5.05,7.42 5.05,12.15 v 38.35 c 0,4.73 -1.93,9.03 -5.05,12.15 -3.12,3.12 -7.42,5.05 -12.15,5.05 H 46.92 L 20.81,95.2 c -1.21,1.04 -3.04,0.9 -4.08,-0.32 -0.51,-0.6 -0.74,-1.34 -0.69,-2.07 L 17.43,72.74 H 17.2 C 12.47,72.74 8.17,70.81 5.05,67.69 1.93,64.58 0,60.28 0,55.55 V 17.2 C 0,12.47 1.93,8.17 5.05,5.05 8.16,1.93 12.46,0 17.2,0 Z m 45.92,29.37 c 4.48,0 8.11,3.63 8.11,8.11 0,4.48 -3.63,8.11 -8.11,8.11 -4.48,0 -8.11,-3.63 -8.11,-8.11 0,-4.48 3.63,-8.11 8.11,-8.11 z m -29.43,0 c 4.48,0 8.11,3.63 8.11,8.11 0,4.48 -3.63,8.11 -8.11,8.11 -4.48,0 -8.11,-3.63 -8.11,-8.11 0,-4.48 3.63,-8.11 8.11,-8.11 z m 73.1,-1.39 c 3.37,0.65 6.39,2.31 8.73,4.65 3.05,3.05 4.95,7.26 4.95,11.9 v 38.35 c 0,4.64 -1.89,8.85 -4.95,11.9 -3.05,3.05 -7.26,4.95 -11.9,4.95 h -0.61 l 1.42,20.44 v 0 c 0.04,0.64 -0.15,1.3 -0.6,1.82 -0.91,1.07 -2.52,1.19 -3.58,0.28 L 74.04,99.07 H 39.49 L 56.5,81.77 h 36.04 c 7.86,0 14.3,-6.43 14.3,-14.3 V 29.11 c -0.01,-0.38 -0.02,-0.76 -0.05,-1.13 z M 79.48,5.8 H 17.2 C 14.07,5.8 11.22,7.08 9.15,9.15 7.08,11.22 5.8,14.06 5.8,17.2 v 38.35 c 0,3.13 1.28,5.98 3.35,8.05 2.07,2.07 4.92,3.35 8.05,3.35 h 3.34 v 0.01 l 0.19,0.01 c 1.59,0.11 2.8,1.49 2.69,3.08 L 22.29,86.31 43.83,67.79 c 0.52,-0.52 1.24,-0.84 2.04,-0.84 h 33.61 c 3.13,0 5.98,-1.28 8.05,-3.35 2.07,-2.07 3.35,-4.92 3.35,-8.05 V 17.2 C 90.88,14.07 89.6,11.22 87.53,9.15 85.46,7.08 82.61,5.8 79.48,5.8 Z"
     class="st0" /></svg>