<?xml version="1.0" encoding="UTF-8" standalone="no"?>
<!-- Created with Inkscape (http://www.inkscape.org/) -->

<svg
   xmlns:dc="http://purl.org/dc/elements/1.1/"
   xmlns:cc="http://creativecommons.org/ns#"
   xmlns:rdf="http://www.w3.org/1999/02/22-rdf-syntax-ns#"
   xmlns:svg="http://www.w3.org/2000/svg"
   xmlns="http://www.w3.org/2000/svg"
   xmlns:sodipodi="http://sodipodi.sourceforge.net/DTD/sodipodi-0.dtd"
   xmlns:inkscape="http://www.inkscape.org/namespaces/inkscape"
   width="42.606205mm"
   height="41.55431mm"
   viewBox="0 0 42.606205 41.55431"
   version="1.1"
   id="svg8"
   inkscape:version="0.92.5 (2060ec1f9f, 2020-04-08)"
   sodipodi:docname="white.svg">
  <defs
     id="defs2" />
  <sodipodi:namedview
     id="base"
     pagecolor="#ffffff"
     bordercolor="#666666"
     borderopacity="1.0"
     inkscape:pageopacity="0.0"
     inkscape:pageshadow="2"
     inkscape:zoom="0.35"
     inkscape:cx="45.317061"
     inkscape:cy="-120.08459"
     inkscape:document-units="mm"
     inkscape:current-layer="layer1"
     showgrid="false"
     fit-margin-top="0"
     fit-margin-left="0"
     fit-margin-right="0"
     fit-margin-bottom="0"
     inkscape:window-width="1848"
     inkscape:window-height="1016"
     inkscape:window-x="72"
     inkscape:window-y="27"
     inkscape:window-maximized="1" />
  <metadata
     id="metadata5">
    <rdf:RDF>
      <cc:Work
         rdf:about="">
        <dc:format>image/svg+xml</dc:format>
        <dc:type
           rdf:resource="http://purl.org/dc/dcmitype/StillImage" />
        <dc:title></dc:title>
      </cc:Work>
    </rdf:RDF>
  </metadata>
  <g
     inkscape:label="Layer 1"
     inkscape:groupmode="layer"
     id="layer1"
     transform="translate(41.850258,-77.018548)">
    <path
       inkscape:connector-curvature="0"
       id="path15"
       d="m -236.24064,67.929517 c -0.0469,0.106109 -0.2136,0.136428 -0.36518,0.06477 -0.15435,-0.07028 -0.24116,-0.213596 -0.19155,-0.321083 0.0455,-0.107487 0.21222,-0.137803 0.36656,-0.06615 0.15571,0.07028 0.24391,0.216352 0.19017,0.32246"
       style="fill:#191714;fill-opacity:1;fill-rule:nonzero;stroke:none;stroke-width:0.35277775" />
    <path
       inkscape:connector-curvature="0"
       id="path17"
       d="m -235.37799,68.891389 c -0.10198,0.0937 -0.30041,0.05099 -0.43546,-0.09784 -0.13918,-0.148828 -0.16536,-0.347266 -0.062,-0.44373 0.10473,-0.0937 0.29765,-0.04961 0.43684,0.09922 0.13918,0.150207 0.16674,0.347266 0.0606,0.442352"
       style="fill:#191714;fill-opacity:1;fill-rule:nonzero;stroke:none;stroke-width:0.35277775" />
    <path
       inkscape:connector-curvature="0"
       id="path19"
       d="m -234.53739,70.117841 c -0.13091,0.09095 -0.34451,0.0055 -0.4768,-0.183277 -0.13091,-0.190169 -0.13091,-0.416168 0.003,-0.507119 0.13229,-0.09095 0.34313,-0.0097 0.4768,0.177766 0.12954,0.192926 0.12954,0.420304 -0.003,0.51263"
       style="fill:#191714;fill-opacity:1;fill-rule:nonzero;stroke:none;stroke-width:0.35277775" />
    <path
       inkscape:connector-curvature="0"
       id="path21"
       d="m -233.38673,71.302958 c -0.11713,0.129532 -0.36655,0.09508 -0.54845,-0.08131 -0.18604,-0.170878 -0.23841,-0.414787 -0.12127,-0.544324 0.11851,-0.128157 0.36931,-0.09233 0.55259,0.0813 0.18466,0.172255 0.24116,0.417545 0.11713,0.544328"
       style="fill:#191714;fill-opacity:1;fill-rule:nonzero;stroke:none;stroke-width:0.35277775" />
    <path
       inkscape:connector-curvature="0"
       id="path23"
       d="m -231.79923,71.991975 c -0.0524,0.166743 -0.29214,0.242533 -0.5333,0.172254 -0.24115,-0.07303 -0.39825,-0.268718 -0.35002,-0.438219 0.051,-0.16674 0.29077,-0.246665 0.53468,-0.170873 0.23978,0.07304 0.39825,0.267338 0.34864,0.436838"
       style="fill:#191714;fill-opacity:1;fill-rule:nonzero;stroke:none;stroke-width:0.35277775" />
    <path
       inkscape:connector-curvature="0"
       id="path25"
       d="m -230.05601,72.120131 c 0.005,0.175014 -0.19844,0.321085 -0.45199,0.32384 -0.25494,0.0055 -0.46165,-0.136428 -0.4644,-0.308682 0,-0.177768 0.20119,-0.322458 0.45475,-0.326594 0.25356,-0.0055 0.46164,0.136428 0.46164,0.311436"
       style="fill:#191714;fill-opacity:1;fill-rule:nonzero;stroke:none;stroke-width:0.35277775" />
    <path
       inkscape:connector-curvature="0"
       id="path27"
       d="m -228.43406,71.843147 c 0.0303,0.172254 -0.14607,0.347265 -0.39687,0.394118 -0.24805,0.04548 -0.4768,-0.06063 -0.5085,-0.230132 -0.0303,-0.17639 0.14883,-0.351398 0.3955,-0.396875 0.25218,-0.0441 0.47818,0.05926 0.50987,0.232889"
       style="fill:#191714;fill-opacity:1;fill-rule:nonzero;stroke:none;stroke-width:0.35277775" />
    <path
       inkscape:connector-curvature="0"
       id="path103"
       d="m -20.547169,77.018548 c -11.76431,0 -21.303089,9.537403 -21.303089,21.303092 0,9.412 6.103331,17.39773 14.568618,20.21444 1.063847,0.19706 1.455208,-0.46164 1.455208,-1.02526 0,-0.50711 -0.0193,-2.18557 -0.02893,-3.96599 -5.926942,1.28847 -7.176823,-2.51354 -7.176823,-2.51354 -0.970138,-2.46256 -2.366091,-3.11713 -2.366091,-3.11713 -1.933388,-1.32153 0.146072,-1.29535 0.146072,-1.29535 2.138715,0.1502 3.265949,2.19522 3.265949,2.19522 1.898939,3.25767 4.982986,2.31648 6.198418,1.77215 0.191544,-1.37666 0.744139,-2.31786 1.353231,-2.84978 -4.732182,-0.53882 -9.706899,-2.36472 -9.706899,-10.528215 0,-2.326128 0.832333,-4.226443 2.195213,-5.717479 -0.220486,-0.537436 -0.949466,-2.703714 0.206706,-5.637555 0,0 1.788693,-0.573264 5.85942,2.182813 1.700499,-0.47129 3.522264,-0.708311 5.333005,-0.71658 1.810745,0.0083 3.63389,0.24529 5.337143,0.71658 4.065215,-2.756077 5.8525278,-2.182813 5.8525278,-2.182813 1.158931,2.933841 0.429948,5.100119 0.208084,5.637555 1.365637,1.491036 2.192459,3.391351 2.192459,5.717479 0,8.182795 -4.9829868,9.983885 -9.7275718,10.511675 0.764812,0.66146 1.445564,1.95819 1.445564,3.94533 0,2.84978 -0.02479,5.14421 -0.02479,5.84563 0,0.56775 0.383093,1.23197 1.463474,1.02251 C -5.3404942,115.71248 0.75594776,107.73088 0.75594776,98.32164 0.75593676,86.555951 -8.7814642,77.018548 -20.547155,77.018548"
       style="fill:#ffffff;fill-opacity:1;fill-rule:evenodd;stroke:none;stroke-width:0.35277775" />
  </g>
</svg>
