<?xml version="1.0" encoding="UTF-8" standalone="no"?>
<!-- Generator: Adobe Illustrator 24.2.0, SVG Export Plug-In . SVG Version: 6.00 Build 0)  -->

<svg
   xmlns:dc="http://purl.org/dc/elements/1.1/"
   xmlns:cc="http://creativecommons.org/ns#"
   xmlns:rdf="http://www.w3.org/1999/02/22-rdf-syntax-ns#"
   xmlns:svg="http://www.w3.org/2000/svg"
   xmlns="http://www.w3.org/2000/svg"
   xmlns:sodipodi="http://sodipodi.sourceforge.net/DTD/sodipodi-0.dtd"
   xmlns:inkscape="http://www.inkscape.org/namespaces/inkscape"
   version="1.1"
   id="Logo"
   x="0px"
   y="0px"
   viewBox="0 0 246.14999 200.01262"
   xml:space="preserve"
   sodipodi:docname="twitter.svg"
   width="246.14999"
   height="200.01262"
   inkscape:version="0.92.5 (2060ec1f9f, 2020-04-08)"><metadata
   id="metadata11"><rdf:RDF><cc:Work
       rdf:about=""><dc:format>image/svg+xml</dc:format><dc:type
         rdf:resource="http://purl.org/dc/dcmitype/StillImage" /><dc:title></dc:title></cc:Work></rdf:RDF></metadata><defs
   id="defs9">
	
</defs><sodipodi:namedview
   pagecolor="#ffffff"
   bordercolor="#666666"
   borderopacity="1"
   objecttolerance="10"
   gridtolerance="10"
   guidetolerance="10"
   inkscape:pageopacity="0"
   inkscape:pageshadow="2"
   inkscape:window-width="1848"
   inkscape:window-height="1016"
   id="namedview7"
   showgrid="false"
   fit-margin-top="0"
   fit-margin-left="0"
   fit-margin-right="0"
   fit-margin-bottom="0"
   inkscape:zoom="1.636051"
   inkscape:cx="81.128769"
   inkscape:cy="109.07719"
   inkscape:window-x="72"
   inkscape:window-y="27"
   inkscape:window-maximized="1"
   inkscape:current-layer="Logo" />
<style
   type="text/css"
   id="style2">
	.st0{fill:#1D9BF0;}
</style>
<path
   style="fill:#1d9bf0"
   inkscape:connector-curvature="0"
   d="m 220.95,49.792624 c 0.15,2.17 0.15,4.34 0.15,6.53 0,66.729996 -50.8,143.689996 -143.69,143.689996 v -0.04 c -27.44,0.04 -54.31,-7.82 -77.41,-22.64 3.99,0.48 8,0.72 12.02,0.73 22.74,0.02 44.83,-7.61 62.72,-21.66 -21.61,-0.41 -40.56,-14.5 -47.18,-35.07 7.57,1.46 15.37,1.16 22.8,-0.87 -23.56,-4.76 -40.51,-25.459996 -40.51,-49.499996 0,-0.22 0,-0.43 0,-0.64 7.02,3.91 14.88,6.08 22.92,6.32 -22.19,-14.83 -29.03,-44.35 -15.63,-67.4299996 25.64,31.5499996 63.47,50.7299996 104.08,52.7599996 -4.07,-17.54 1.49,-35.92 14.61,-48.25 20.34,-19.1199996 52.33,-18.1399996 71.45,2.19 11.31,-2.23 22.15,-6.3799996 32.07,-12.2599996 -3.77,11.6899996 -11.66,21.6199996 -22.2,27.9299996 10.01,-1.18 19.79,-3.86 29,-7.95 -6.78,10.16 -15.32,19.01 -25.2,26.16 z"
   class="st0"
   id="white_background" />
</svg>