<?xml version="1.0" encoding="UTF-8" standalone="no"?>
<!DOCTYPE svg PUBLIC "-//W3C//DTD SVG 1.1//EN"
 "http://www.w3.org/Graphics/SVG/1.1/DTD/svg11.dtd">
<!-- Generated by graphviz version 2.40.1 (20161225.0304)
 -->
<!-- Title: snakemake_dag Pages: 1 -->
<svg width="1149pt" height="836pt"
 viewBox="0.00 0.00 1149.00 836.00" xmlns="http://www.w3.org/2000/svg" xmlns:xlink="http://www.w3.org/1999/xlink">
<g id="graph0" class="graph" transform="scale(1 1) rotate(0) translate(4 832)">
<title>snakemake_dag</title>
<polygon fill="#ffffff" stroke="transparent" points="-4,4 -4,-832 1145,-832 1145,4 -4,4"/>
<!-- 0 -->
<g id="node1" class="node">
<title>0</title>
<path fill="none" stroke="#d8a456" stroke-width="2" d="M850,-36C850,-36 820,-36 820,-36 814,-36 808,-30 808,-24 808,-24 808,-12 808,-12 808,-6 814,0 820,0 820,0 850,0 850,0 856,0 862,-6 862,-12 862,-12 862,-24 862,-24 862,-30 856,-36 850,-36"/>
<text text-anchor="middle" x="835" y="-15.5" font-family="sans" font-size="10.00" fill="#000000">finish</text>
</g>
<!-- 1 -->
<g id="node2" class="node">
<title>1</title>
<path fill="none" stroke="#d88556" stroke-width="2" d="M524,-108C524,-108 470,-108 470,-108 464,-108 458,-102 458,-96 458,-96 458,-84 458,-84 458,-78 464,-72 470,-72 470,-72 524,-72 524,-72 530,-72 536,-78 536,-84 536,-84 536,-96 536,-96 536,-102 530,-108 524,-108"/>
<text text-anchor="middle" x="497" y="-87.5" font-family="sans" font-size="10.00" fill="#000000">multiqc_report</text>
</g>
<!-- 1&#45;&gt;0 -->
<g id="edge1" class="edge">
<title>1&#45;&gt;0</title>
<path fill="none" stroke="#c0c0c0" stroke-width="2" d="M536.1031,-81.6703C601.7824,-67.6795 733.3738,-39.6482 797.7732,-25.93"/>
<polygon fill="#c0c0c0" stroke="#c0c0c0" stroke-width="2" points="798.8295,-29.2836 807.8808,-23.7769 797.371,-22.4372 798.8295,-29.2836"/>
</g>
<!-- 2 -->
<g id="node3" class="node">
<title>2</title>
<path fill="none" stroke="#56d892" stroke-width="2" d="M1057,-252C1057,-252 997,-252 997,-252 991,-252 985,-246 985,-240 985,-240 985,-228 985,-228 985,-222 991,-216 997,-216 997,-216 1057,-216 1057,-216 1063,-216 1069,-222 1069,-228 1069,-228 1069,-240 1069,-240 1069,-246 1063,-252 1057,-252"/>
<text text-anchor="middle" x="1027" y="-231.5" font-family="sans" font-size="10.00" fill="#000000">prepare_bigWig</text>
</g>
<!-- 2&#45;&gt;0 -->
<g id="edge2" class="edge">
<title>2&#45;&gt;0</title>
<path fill="none" stroke="#c0c0c0" stroke-width="2" d="M1010.9604,-215.9555C976.937,-177.6791 897.4281,-88.2316 858.0038,-43.8793"/>
<polygon fill="#c0c0c0" stroke="#c0c0c0" stroke-width="2" points="860.3886,-41.2939 851.1289,-36.1451 855.1567,-45.9445 860.3886,-41.2939"/>
</g>
<!-- 3 -->
<g id="node4" class="node">
<title>3</title>
<path fill="none" stroke="#56d863" stroke-width="2" d="M1129,-468C1129,-468 1099,-468 1099,-468 1093,-468 1087,-462 1087,-456 1087,-456 1087,-444 1087,-444 1087,-438 1093,-432 1099,-432 1099,-432 1129,-432 1129,-432 1135,-432 1141,-438 1141,-444 1141,-444 1141,-456 1141,-456 1141,-462 1135,-468 1129,-468"/>
<text text-anchor="middle" x="1114" y="-447.5" font-family="sans" font-size="10.00" fill="#000000">fastqc</text>
</g>
<!-- 3&#45;&gt;1 -->
<g id="edge5" class="edge">
<title>3&#45;&gt;1</title>
<path fill="none" stroke="#c0c0c0" stroke-width="2" d="M1110.4776,-431.8955C1105.4982,-404.6824 1097,-351.5642 1097,-306 1097,-306 1097,-306 1097,-234 1097,-121.1299 690.4538,-96.5069 546.659,-91.3279"/>
<polygon fill="#c0c0c0" stroke="#c0c0c0" stroke-width="2" points="546.4819,-87.8198 536.3677,-90.9745 546.2416,-94.8157 546.4819,-87.8198"/>
</g>
<!-- 4 -->
<g id="node5" class="node">
<title>4</title>
<path fill="none" stroke="#56d882" stroke-width="2" d="M322,-612C322,-612 180,-612 180,-612 174,-612 168,-606 168,-600 168,-600 168,-588 168,-588 168,-582 174,-576 180,-576 180,-576 322,-576 322,-576 328,-576 334,-582 334,-588 334,-588 334,-600 334,-600 334,-606 328,-612 322,-612"/>
<text text-anchor="middle" x="251" y="-591.5" font-family="sans" font-size="10.00" fill="#000000">pe_genome_quantification_kallisto</text>
</g>
<!-- 4&#45;&gt;1 -->
<g id="edge9" class="edge">
<title>4&#45;&gt;1</title>
<path fill="none" stroke="#c0c0c0" stroke-width="2" d="M209.46,-575.9345C193.9343,-567.2099 177.5318,-555.2708 167,-540 143.7899,-506.3459 148,-490.8816 148,-450 148,-450 148,-450 148,-234 148,-169.8895 351.7892,-119.674 447.9171,-99.5534"/>
<polygon fill="#c0c0c0" stroke="#c0c0c0" stroke-width="2" points="448.8959,-102.9252 457.9811,-97.4746 447.4798,-96.0699 448.8959,-102.9252"/>
</g>
<!-- 5 -->
<g id="node6" class="node">
<title>5</title>
<path fill="none" stroke="#afd856" stroke-width="2" d="M138,-612C138,-612 12,-612 12,-612 6,-612 0,-606 0,-600 0,-600 0,-588 0,-588 0,-582 6,-576 12,-576 12,-576 138,-576 138,-576 144,-576 150,-582 150,-588 150,-588 150,-600 150,-600 150,-606 144,-612 138,-612"/>
<text text-anchor="middle" x="75" y="-591.5" font-family="sans" font-size="10.00" fill="#000000">genome_quantification_kallisto</text>
</g>
<!-- 5&#45;&gt;1 -->
<g id="edge8" class="edge">
<title>5&#45;&gt;1</title>
<path fill="none" stroke="#c0c0c0" stroke-width="2" d="M78.7296,-575.9053C84.0019,-548.7046 93,-495.6021 93,-450 93,-450 93,-450 93,-234 93,-173.5425 140.5601,-170.2947 195,-144 238.8594,-122.8157 374.1983,-104.3382 447.9158,-95.5129"/>
<polygon fill="#c0c0c0" stroke="#c0c0c0" stroke-width="2" points="448.3733,-98.9832 457.8927,-94.3323 447.5507,-92.0317 448.3733,-98.9832"/>
</g>
<!-- 6 -->
<g id="node7" class="node">
<title>6</title>
<path fill="none" stroke="#d8d356" stroke-width="2" d="M541.5,-252C541.5,-252 476.5,-252 476.5,-252 470.5,-252 464.5,-246 464.5,-240 464.5,-240 464.5,-228 464.5,-228 464.5,-222 470.5,-216 476.5,-216 476.5,-216 541.5,-216 541.5,-216 547.5,-216 553.5,-222 553.5,-228 553.5,-228 553.5,-240 553.5,-240 553.5,-246 547.5,-252 541.5,-252"/>
<text text-anchor="middle" x="509" y="-231.5" font-family="sans" font-size="10.00" fill="#000000">plot_TIN_scores</text>
</g>
<!-- 6&#45;&gt;1 -->
<g id="edge4" class="edge">
<title>6&#45;&gt;1</title>
<path fill="none" stroke="#c0c0c0" stroke-width="2" d="M494.7641,-215.6423C487.9461,-205.6872 480.5138,-192.8222 477,-180 471.2889,-159.1601 477.1631,-135.2715 483.9919,-117.3451"/>
<polygon fill="#c0c0c0" stroke="#c0c0c0" stroke-width="2" points="487.2454,-118.636 487.8163,-108.0566 480.7726,-115.9709 487.2454,-118.636"/>
</g>
<!-- 7 -->
<g id="node8" class="node">
<title>7</title>
<path fill="none" stroke="#d86656" stroke-width="2" d="M300,-540C300,-540 188,-540 188,-540 182,-540 176,-534 176,-528 176,-528 176,-516 176,-516 176,-510 182,-504 188,-504 188,-504 300,-504 300,-504 306,-504 312,-510 312,-516 312,-516 312,-528 312,-528 312,-534 306,-540 300,-540"/>
<text text-anchor="middle" x="244" y="-519.5" font-family="sans" font-size="10.00" fill="#000000">salmon_quantmerge_genes</text>
</g>
<!-- 7&#45;&gt;1 -->
<g id="edge6" class="edge">
<title>7&#45;&gt;1</title>
<path fill="none" stroke="#c0c0c0" stroke-width="2" d="M257.9817,-503.5693C276.5421,-477.217 307,-426.5724 307,-378 307,-378 307,-378 307,-234 307,-163.3284 391.525,-122.8695 447.8213,-103.76"/>
<polygon fill="#c0c0c0" stroke="#c0c0c0" stroke-width="2" points="449.218,-106.9856 457.6319,-100.5469 447.0392,-100.3333 449.218,-106.9856"/>
</g>
<!-- 8 -->
<g id="node9" class="node">
<title>8</title>
<path fill="none" stroke="#56d0d8" stroke-width="2" d="M473.5,-540C473.5,-540 342.5,-540 342.5,-540 336.5,-540 330.5,-534 330.5,-528 330.5,-528 330.5,-516 330.5,-516 330.5,-510 336.5,-504 342.5,-504 342.5,-504 473.5,-504 473.5,-504 479.5,-504 485.5,-510 485.5,-516 485.5,-516 485.5,-528 485.5,-528 485.5,-534 479.5,-540 473.5,-540"/>
<text text-anchor="middle" x="408" y="-519.5" font-family="sans" font-size="10.00" fill="#000000">salmon_quantmerge_transcripts</text>
</g>
<!-- 8&#45;&gt;1 -->
<g id="edge3" class="edge">
<title>8&#45;&gt;1</title>
<path fill="none" stroke="#c0c0c0" stroke-width="2" d="M409.2432,-503.8247C411.0006,-476.5213 414,-423.2893 414,-378 414,-378 414,-378 414,-234 414,-187.5145 446.8683,-142.51 471.2376,-115.5311"/>
<polygon fill="#c0c0c0" stroke="#c0c0c0" stroke-width="2" points="473.9167,-117.7898 478.166,-108.0844 468.7918,-113.0215 473.9167,-117.7898"/>
</g>
<!-- 9 -->
<g id="node10" class="node">
<title>9</title>
<path fill="none" stroke="#5663d8" stroke-width="2" d="M883.5,-468C883.5,-468 852.5,-468 852.5,-468 846.5,-468 840.5,-462 840.5,-456 840.5,-456 840.5,-444 840.5,-444 840.5,-438 846.5,-432 852.5,-432 852.5,-432 883.5,-432 883.5,-432 889.5,-432 895.5,-438 895.5,-444 895.5,-444 895.5,-456 895.5,-456 895.5,-462 889.5,-468 883.5,-468"/>
<text text-anchor="middle" x="868" y="-447.5" font-family="sans" font-size="10.00" fill="#000000">star_rpm</text>
</g>
<!-- 9&#45;&gt;1 -->
<g id="edge11" class="edge">
<title>9&#45;&gt;1</title>
<path fill="none" stroke="#c0c0c0" stroke-width="2" d="M840.4301,-441.935C818.01,-433.9288 787.3457,-419.4135 770,-396 745.664,-363.1508 751,-346.8816 751,-306 751,-306 751,-306 751,-234 751,-193.1184 760.6491,-173.164 732,-144 706.5561,-118.0989 607.6963,-102.5054 546.5956,-95.1428"/>
<polygon fill="#c0c0c0" stroke="#c0c0c0" stroke-width="2" points="546.7314,-91.6349 536.392,-93.9473 545.9167,-98.5873 546.7314,-91.6349"/>
</g>
<!-- 25 -->
<g id="node26" class="node">
<title>25</title>
<path fill="none" stroke="#88d856" stroke-width="2" d="M1019,-396C1019,-396 913,-396 913,-396 907,-396 901,-390 901,-384 901,-384 901,-372 901,-372 901,-366 907,-360 913,-360 913,-360 1019,-360 1019,-360 1025,-360 1031,-366 1031,-372 1031,-372 1031,-384 1031,-384 1031,-390 1025,-396 1019,-396"/>
<text text-anchor="middle" x="966" y="-375.5" font-family="sans" font-size="10.00" fill="#000000">rename_star_rpm_for_alfa</text>
</g>
<!-- 9&#45;&gt;25 -->
<g id="edge44" class="edge">
<title>9&#45;&gt;25</title>
<path fill="none" stroke="#c0c0c0" stroke-width="2" d="M892.7295,-431.8314C904.9162,-422.8779 919.7823,-411.9558 932.9312,-402.2955"/>
<polygon fill="#c0c0c0" stroke="#c0c0c0" stroke-width="2" points="935.2918,-404.9042 941.2784,-396.1628 931.1473,-399.263 935.2918,-404.9042"/>
</g>
<!-- 10 -->
<g id="node11" class="node">
<title>10</title>
<path fill="none" stroke="#d89556" stroke-width="2" d="M575.5,-180C575.5,-180 498.5,-180 498.5,-180 492.5,-180 486.5,-174 486.5,-168 486.5,-168 486.5,-156 486.5,-156 486.5,-150 492.5,-144 498.5,-144 498.5,-144 575.5,-144 575.5,-144 581.5,-144 587.5,-150 587.5,-156 587.5,-156 587.5,-168 587.5,-168 587.5,-174 581.5,-180 575.5,-180"/>
<text text-anchor="middle" x="537" y="-159.5" font-family="sans" font-size="10.00" fill="#000000">alfa_concat_results</text>
</g>
<!-- 10&#45;&gt;1 -->
<g id="edge10" class="edge">
<title>10&#45;&gt;1</title>
<path fill="none" stroke="#c0c0c0" stroke-width="2" d="M526.9063,-143.8314C522.4403,-135.7925 517.0925,-126.1666 512.1621,-117.2918"/>
<polygon fill="#c0c0c0" stroke="#c0c0c0" stroke-width="2" points="515.1456,-115.4551 507.2296,-108.4133 509.0265,-118.8546 515.1456,-115.4551"/>
</g>
<!-- 11 -->
<g id="node12" class="node">
<title>11</title>
<path fill="none" stroke="#5682d8" stroke-width="2" d="M710.5,-180C710.5,-180 617.5,-180 617.5,-180 611.5,-180 605.5,-174 605.5,-168 605.5,-168 605.5,-156 605.5,-156 605.5,-150 611.5,-144 617.5,-144 617.5,-144 710.5,-144 710.5,-144 716.5,-144 722.5,-150 722.5,-156 722.5,-156 722.5,-168 722.5,-168 722.5,-174 716.5,-180 710.5,-180"/>
<text text-anchor="middle" x="664" y="-159.5" font-family="sans" font-size="10.00" fill="#000000">prepare_multiqc_config</text>
</g>
<!-- 11&#45;&gt;1 -->
<g id="edge7" class="edge">
<title>11&#45;&gt;1</title>
<path fill="none" stroke="#c0c0c0" stroke-width="2" d="M621.8588,-143.8314C598.6566,-133.828 569.7544,-121.3672 545.6022,-110.9542"/>
<polygon fill="#c0c0c0" stroke="#c0c0c0" stroke-width="2" points="546.8282,-107.6714 536.2596,-106.9263 544.0568,-114.0995 546.8282,-107.6714"/>
</g>
<!-- 12 -->
<g id="node13" class="node">
<title>12</title>
<path fill="none" stroke="#78d856" stroke-width="2" d="M1007.5,-324C1007.5,-324 948.5,-324 948.5,-324 942.5,-324 936.5,-318 936.5,-312 936.5,-312 936.5,-300 936.5,-300 936.5,-294 942.5,-288 948.5,-288 948.5,-288 1007.5,-288 1007.5,-288 1013.5,-288 1019.5,-294 1019.5,-300 1019.5,-300 1019.5,-312 1019.5,-312 1019.5,-318 1013.5,-324 1007.5,-324"/>
<text text-anchor="middle" x="978" y="-303.5" font-family="sans" font-size="10.00" fill="#000000">sort_bed_4_big</text>
</g>
<!-- 12&#45;&gt;2 -->
<g id="edge13" class="edge">
<title>12&#45;&gt;2</title>
<path fill="none" stroke="#c0c0c0" stroke-width="2" d="M990.3648,-287.8314C995.9509,-279.6232 1002.663,-269.7606 1008.8072,-260.7323"/>
<polygon fill="#c0c0c0" stroke="#c0c0c0" stroke-width="2" points="1011.736,-262.6496 1014.4687,-252.4133 1005.949,-258.7112 1011.736,-262.6496"/>
</g>
<!-- 13 -->
<g id="node14" class="node">
<title>13</title>
<path fill="none" stroke="#56d8c1" stroke-width="2" d="M983,-684C983,-684 913,-684 913,-684 907,-684 901,-678 901,-672 901,-672 901,-660 901,-660 901,-654 907,-648 913,-648 913,-648 983,-648 983,-648 989,-648 995,-654 995,-660 995,-660 995,-672 995,-672 995,-678 989,-684 983,-684"/>
<text text-anchor="middle" x="948" y="-663.5" font-family="sans" font-size="10.00" fill="#000000">create_index_star</text>
</g>
<!-- 13&#45;&gt;2 -->
<g id="edge12" class="edge">
<title>13&#45;&gt;2</title>
<path fill="none" stroke="#c0c0c0" stroke-width="2" d="M975.1537,-647.8367C1008.015,-623.4409 1059,-576.7657 1059,-522 1059,-522 1059,-522 1059,-378 1059,-336.9442 1046.4511,-290.8385 1037.0701,-262.1076"/>
<polygon fill="#c0c0c0" stroke="#c0c0c0" stroke-width="2" points="1040.2932,-260.7116 1033.7864,-252.3503 1033.6589,-262.9443 1040.2932,-260.7116"/>
</g>
<!-- 21 -->
<g id="node22" class="node">
<title>21</title>
<path fill="none" stroke="#bed856" stroke-width="2" d="M916.5,-612C916.5,-612 827.5,-612 827.5,-612 821.5,-612 815.5,-606 815.5,-600 815.5,-600 815.5,-588 815.5,-588 815.5,-582 821.5,-576 827.5,-576 827.5,-576 916.5,-576 916.5,-576 922.5,-576 928.5,-582 928.5,-588 928.5,-588 928.5,-600 928.5,-600 928.5,-606 922.5,-612 916.5,-612"/>
<text text-anchor="middle" x="872" y="-591.5" font-family="sans" font-size="10.00" fill="#000000">pe_map_genome_star</text>
</g>
<!-- 13&#45;&gt;21 -->
<g id="edge37" class="edge">
<title>13&#45;&gt;21</title>
<path fill="none" stroke="#c0c0c0" stroke-width="2" d="M928.822,-647.8314C919.6412,-639.1337 908.4994,-628.5783 898.5224,-619.1265"/>
<polygon fill="#c0c0c0" stroke="#c0c0c0" stroke-width="2" points="900.8385,-616.4995 891.1719,-612.1628 896.0243,-621.5811 900.8385,-616.4995"/>
</g>
<!-- 23 -->
<g id="node24" class="node">
<title>23</title>
<path fill="none" stroke="#5692d8" stroke-width="2" d="M785.5,-612C785.5,-612 712.5,-612 712.5,-612 706.5,-612 700.5,-606 700.5,-600 700.5,-600 700.5,-588 700.5,-588 700.5,-582 706.5,-576 712.5,-576 712.5,-576 785.5,-576 785.5,-576 791.5,-576 797.5,-582 797.5,-588 797.5,-588 797.5,-600 797.5,-600 797.5,-606 791.5,-612 785.5,-612"/>
<text text-anchor="middle" x="749" y="-591.5" font-family="sans" font-size="10.00" fill="#000000">map_genome_star</text>
</g>
<!-- 13&#45;&gt;23 -->
<g id="edge41" class="edge">
<title>13&#45;&gt;23</title>
<path fill="none" stroke="#c0c0c0" stroke-width="2" d="M900.8398,-648.937C872.734,-638.7681 836.8393,-625.781 807.0069,-614.9874"/>
<polygon fill="#c0c0c0" stroke="#c0c0c0" stroke-width="2" points="808.1459,-611.6775 797.5516,-611.5664 805.7642,-618.2599 808.1459,-611.6775"/>
</g>
<!-- 33 -->
<g id="node34" class="node">
<title>33</title>
<path fill="none" stroke="#68d856" stroke-width="2" d="M871,-396C871,-396 791,-396 791,-396 785,-396 779,-390 779,-384 779,-384 779,-372 779,-372 779,-366 785,-360 791,-360 791,-360 871,-360 871,-360 877,-360 883,-366 883,-372 883,-372 883,-384 883,-384 883,-390 877,-396 871,-396"/>
<text text-anchor="middle" x="831" y="-375.5" font-family="sans" font-size="10.00" fill="#000000">generate_alfa_index</text>
</g>
<!-- 13&#45;&gt;33 -->
<g id="edge54" class="edge">
<title>13&#45;&gt;33</title>
<path fill="none" stroke="#c0c0c0" stroke-width="2" d="M958.5219,-647.7835C974.8242,-617.0198 1002.2081,-553.3062 981,-504 960.9306,-457.3413 913.2283,-422.2406 876.9639,-401.0917"/>
<polygon fill="#c0c0c0" stroke="#c0c0c0" stroke-width="2" points="878.4396,-397.905 868.0144,-396.0169 874.9868,-403.9942 878.4396,-397.905"/>
</g>
<!-- 14 -->
<g id="node15" class="node">
<title>14</title>
<path fill="none" stroke="#56d8d0" stroke-width="2" d="M685,-828C685,-828 655,-828 655,-828 649,-828 643,-822 643,-816 643,-816 643,-804 643,-804 643,-798 649,-792 655,-792 655,-792 685,-792 685,-792 691,-792 697,-798 697,-804 697,-804 697,-816 697,-816 697,-822 691,-828 685,-828"/>
<text text-anchor="middle" x="670" y="-807.5" font-family="sans" font-size="10.00" fill="#000000">start</text>
</g>
<!-- 14&#45;&gt;3 -->
<g id="edge14" class="edge">
<title>14&#45;&gt;3</title>
<path fill="none" stroke="#c0c0c0" stroke-width="2" d="M697.2112,-807.0018C792.4433,-795.7656 1105,-752.3131 1105,-666 1105,-666 1105,-666 1105,-594 1105,-553.7977 1108.5375,-507.4047 1111.1768,-478.385"/>
<polygon fill="#c0c0c0" stroke="#c0c0c0" stroke-width="2" points="1114.6864,-478.4457 1112.1352,-468.1626 1107.717,-477.7923 1114.6864,-478.4457"/>
</g>
<!-- 26 -->
<g id="node27" class="node">
<title>26</title>
<path fill="none" stroke="#56d8a2" stroke-width="2" d="M733,-756C733,-756 607,-756 607,-756 601,-756 595,-750 595,-744 595,-744 595,-732 595,-732 595,-726 601,-720 607,-720 607,-720 733,-720 733,-720 739,-720 745,-726 745,-732 745,-732 745,-744 745,-744 745,-750 739,-756 733,-756"/>
<text text-anchor="middle" x="670" y="-735.5" font-family="sans" font-size="10.00" fill="#000000">pe_remove_adapters_cutadapt</text>
</g>
<!-- 14&#45;&gt;26 -->
<g id="edge45" class="edge">
<title>14&#45;&gt;26</title>
<path fill="none" stroke="#c0c0c0" stroke-width="2" d="M670,-791.8314C670,-784.131 670,-774.9743 670,-766.4166"/>
<polygon fill="#c0c0c0" stroke="#c0c0c0" stroke-width="2" points="673.5001,-766.4132 670,-756.4133 666.5001,-766.4133 673.5001,-766.4132"/>
</g>
<!-- 28 -->
<g id="node29" class="node">
<title>28</title>
<path fill="none" stroke="#59d856" stroke-width="2" d="M536,-756C536,-756 426,-756 426,-756 420,-756 414,-750 414,-744 414,-744 414,-732 414,-732 414,-726 420,-720 426,-720 426,-720 536,-720 536,-720 542,-720 548,-726 548,-732 548,-732 548,-744 548,-744 548,-750 542,-756 536,-756"/>
<text text-anchor="middle" x="481" y="-735.5" font-family="sans" font-size="10.00" fill="#000000">remove_adapters_cutadapt</text>
</g>
<!-- 14&#45;&gt;28 -->
<g id="edge46" class="edge">
<title>14&#45;&gt;28</title>
<path fill="none" stroke="#c0c0c0" stroke-width="2" d="M642.9209,-799.6842C615.6776,-789.3058 572.8354,-772.9849 538.0613,-759.7376"/>
<polygon fill="#c0c0c0" stroke="#c0c0c0" stroke-width="2" points="539.0777,-756.3795 528.4868,-756.0902 536.5857,-762.9209 539.0777,-756.3795"/>
</g>
<!-- 15 -->
<g id="node16" class="node">
<title>15</title>
<path fill="none" stroke="#d87556" stroke-width="2" d="M726,-684C726,-684 614,-684 614,-684 608,-684 602,-678 602,-672 602,-672 602,-660 602,-660 602,-654 608,-648 614,-648 614,-648 726,-648 726,-648 732,-648 738,-654 738,-660 738,-660 738,-672 738,-672 738,-678 732,-684 726,-684"/>
<text text-anchor="middle" x="670" y="-663.5" font-family="sans" font-size="10.00" fill="#000000">pe_remove_polya_cutadapt</text>
</g>
<!-- 15&#45;&gt;4 -->
<g id="edge15" class="edge">
<title>15&#45;&gt;4</title>
<path fill="none" stroke="#c0c0c0" stroke-width="2" d="M601.5835,-649.8725C598.3486,-649.2167 595.1418,-648.5886 592,-648 485.2072,-627.9937 454.9352,-630.5714 344.1102,-612.1387"/>
<polygon fill="#c0c0c0" stroke="#c0c0c0" stroke-width="2" points="344.6531,-608.681 334.2108,-610.4724 343.4911,-615.5839 344.6531,-608.681"/>
</g>
<!-- 19 -->
<g id="node20" class="node">
<title>19</title>
<path fill="none" stroke="#5673d8" stroke-width="2" d="M596.5,-612C596.5,-612 493.5,-612 493.5,-612 487.5,-612 481.5,-606 481.5,-600 481.5,-600 481.5,-588 481.5,-588 481.5,-582 487.5,-576 493.5,-576 493.5,-576 596.5,-576 596.5,-576 602.5,-576 608.5,-582 608.5,-588 608.5,-588 608.5,-600 608.5,-600 608.5,-606 602.5,-612 596.5,-612"/>
<text text-anchor="middle" x="545" y="-591.5" font-family="sans" font-size="10.00" fill="#000000">pe_quantification_salmon</text>
</g>
<!-- 15&#45;&gt;19 -->
<g id="edge33" class="edge">
<title>15&#45;&gt;19</title>
<path fill="none" stroke="#c0c0c0" stroke-width="2" d="M638.4572,-647.8314C622.3209,-638.5368 602.5014,-627.1208 585.2728,-617.1971"/>
<polygon fill="#c0c0c0" stroke="#c0c0c0" stroke-width="2" points="586.945,-614.1212 576.5327,-612.1628 583.4511,-620.187 586.945,-614.1212"/>
</g>
<!-- 15&#45;&gt;21 -->
<g id="edge38" class="edge">
<title>15&#45;&gt;21</title>
<path fill="none" stroke="#c0c0c0" stroke-width="2" d="M720.7124,-647.9243C748.327,-638.0815 782.675,-625.8386 811.6601,-615.5073"/>
<polygon fill="#c0c0c0" stroke="#c0c0c0" stroke-width="2" points="813.0223,-618.7375 821.2667,-612.0831 810.6721,-612.1438 813.0223,-618.7375"/>
</g>
<!-- 16 -->
<g id="node17" class="node">
<title>16</title>
<path fill="none" stroke="#d8b456" stroke-width="2" d="M293,-684C293,-684 209,-684 209,-684 203,-684 197,-678 197,-672 197,-672 197,-660 197,-660 197,-654 203,-648 209,-648 209,-648 293,-648 293,-648 299,-648 305,-654 305,-660 305,-660 305,-672 305,-672 305,-678 299,-684 293,-684"/>
<text text-anchor="middle" x="251" y="-663.5" font-family="sans" font-size="10.00" fill="#000000">create_index_kallisto</text>
</g>
<!-- 16&#45;&gt;4 -->
<g id="edge16" class="edge">
<title>16&#45;&gt;4</title>
<path fill="none" stroke="#c0c0c0" stroke-width="2" d="M251,-647.8314C251,-640.131 251,-630.9743 251,-622.4166"/>
<polygon fill="#c0c0c0" stroke="#c0c0c0" stroke-width="2" points="254.5001,-622.4132 251,-612.4133 247.5001,-622.4133 254.5001,-622.4132"/>
</g>
<!-- 16&#45;&gt;5 -->
<g id="edge18" class="edge">
<title>16&#45;&gt;5</title>
<path fill="none" stroke="#c0c0c0" stroke-width="2" d="M206.5878,-647.8314C182.8396,-638.1162 153.4254,-626.0831 128.4336,-615.8592"/>
<polygon fill="#c0c0c0" stroke="#c0c0c0" stroke-width="2" points="129.6736,-612.585 119.0929,-612.038 127.0231,-619.0638 129.6736,-612.585"/>
</g>
<!-- 17 -->
<g id="node18" class="node">
<title>17</title>
<path fill="none" stroke="#56a2d8" stroke-width="2" d="M444,-684C444,-684 348,-684 348,-684 342,-684 336,-678 336,-672 336,-672 336,-660 336,-660 336,-654 342,-648 348,-648 348,-648 444,-648 444,-648 450,-648 456,-654 456,-660 456,-660 456,-672 456,-672 456,-678 450,-684 444,-684"/>
<text text-anchor="middle" x="396" y="-663.5" font-family="sans" font-size="10.00" fill="#000000">remove_polya_cutadapt</text>
</g>
<!-- 17&#45;&gt;5 -->
<g id="edge17" class="edge">
<title>17&#45;&gt;5</title>
<path fill="none" stroke="#c0c0c0" stroke-width="2" d="M335.9989,-652.5418C286.4409,-641.426 215.4925,-625.5123 160.0734,-613.0819"/>
<polygon fill="#c0c0c0" stroke="#c0c0c0" stroke-width="2" points="160.7906,-609.6559 150.267,-610.8823 159.2585,-616.4861 160.7906,-609.6559"/>
</g>
<!-- 20 -->
<g id="node21" class="node">
<title>20</title>
<path fill="none" stroke="#9fd856" stroke-width="2" d="M451.5,-612C451.5,-612 364.5,-612 364.5,-612 358.5,-612 352.5,-606 352.5,-600 352.5,-600 352.5,-588 352.5,-588 352.5,-582 358.5,-576 364.5,-576 364.5,-576 451.5,-576 451.5,-576 457.5,-576 463.5,-582 463.5,-588 463.5,-588 463.5,-600 463.5,-600 463.5,-606 457.5,-612 451.5,-612"/>
<text text-anchor="middle" x="408" y="-591.5" font-family="sans" font-size="10.00" fill="#000000">quantification_salmon</text>
</g>
<!-- 17&#45;&gt;20 -->
<g id="edge35" class="edge">
<title>17&#45;&gt;20</title>
<path fill="none" stroke="#c0c0c0" stroke-width="2" d="M399.0281,-647.8314C400.3115,-640.131 401.8376,-630.9743 403.2639,-622.4166"/>
<polygon fill="#c0c0c0" stroke="#c0c0c0" stroke-width="2" points="406.7394,-622.8526 404.9311,-612.4133 399.8347,-621.7018 406.7394,-622.8526"/>
</g>
<!-- 17&#45;&gt;23 -->
<g id="edge42" class="edge">
<title>17&#45;&gt;23</title>
<path fill="none" stroke="#c0c0c0" stroke-width="2" d="M456.1526,-650.0535C459.1398,-649.3415 462.1014,-648.6529 465,-648 542.4822,-630.5481 632.6938,-614.0378 690.2899,-603.9737"/>
<polygon fill="#c0c0c0" stroke="#c0c0c0" stroke-width="2" points="691.0497,-607.3942 700.3017,-602.2319 689.8498,-600.4978 691.0497,-607.3942"/>
</g>
<!-- 18 -->
<g id="node19" class="node">
<title>18</title>
<path fill="none" stroke="#97d856" stroke-width="2" d="M652,-396C652,-396 576,-396 576,-396 570,-396 564,-390 564,-384 564,-384 564,-372 564,-372 564,-366 570,-360 576,-360 576,-360 652,-360 652,-360 658,-360 664,-366 664,-372 664,-372 664,-384 664,-384 664,-390 658,-396 652,-396"/>
<text text-anchor="middle" x="614" y="-375.5" font-family="sans" font-size="10.00" fill="#000000">merge_TIN_scores</text>
</g>
<!-- 18&#45;&gt;6 -->
<g id="edge19" class="edge">
<title>18&#45;&gt;6</title>
<path fill="none" stroke="#c0c0c0" stroke-width="2" d="M600.7017,-359.7623C582.3979,-334.66 549.3242,-289.3017 528.2989,-260.4671"/>
<polygon fill="#c0c0c0" stroke="#c0c0c0" stroke-width="2" points="530.9101,-258.1076 522.1903,-252.0896 525.2541,-262.2318 530.9101,-258.1076"/>
</g>
<!-- 19&#45;&gt;7 -->
<g id="edge20" class="edge">
<title>19&#45;&gt;7</title>
<path fill="none" stroke="#c0c0c0" stroke-width="2" d="M481.3072,-578.2584C478.1608,-577.4922 475.0451,-576.736 472,-576 422.0988,-563.9387 365.9864,-550.6455 321.9148,-540.2664"/>
<polygon fill="#c0c0c0" stroke="#c0c0c0" stroke-width="2" points="322.6658,-536.8476 312.1299,-537.9633 321.062,-543.6614 322.6658,-536.8476"/>
</g>
<!-- 19&#45;&gt;8 -->
<g id="edge22" class="edge">
<title>19&#45;&gt;8</title>
<path fill="none" stroke="#c0c0c0" stroke-width="2" d="M510.4291,-575.8314C492.5815,-566.4516 470.6226,-554.9112 451.62,-544.9244"/>
<polygon fill="#c0c0c0" stroke="#c0c0c0" stroke-width="2" points="453.0401,-541.7168 442.5598,-540.1628 449.7836,-547.9132 453.0401,-541.7168"/>
</g>
<!-- 20&#45;&gt;7 -->
<g id="edge21" class="edge">
<title>20&#45;&gt;7</title>
<path fill="none" stroke="#c0c0c0" stroke-width="2" d="M366.6159,-575.8314C344.6818,-566.2018 317.5608,-554.295 294.4069,-544.1299"/>
<polygon fill="#c0c0c0" stroke="#c0c0c0" stroke-width="2" points="295.65,-540.8532 285.0865,-540.038 292.836,-547.2627 295.65,-540.8532"/>
</g>
<!-- 20&#45;&gt;8 -->
<g id="edge23" class="edge">
<title>20&#45;&gt;8</title>
<path fill="none" stroke="#c0c0c0" stroke-width="2" d="M408,-575.8314C408,-568.131 408,-558.9743 408,-550.4166"/>
<polygon fill="#c0c0c0" stroke="#c0c0c0" stroke-width="2" points="411.5001,-550.4132 408,-540.4133 404.5001,-550.4133 411.5001,-550.4132"/>
</g>
<!-- 21&#45;&gt;9 -->
<g id="edge25" class="edge">
<title>21&#45;&gt;9</title>
<path fill="none" stroke="#c0c0c0" stroke-width="2" d="M923.0855,-575.9348C939.0666,-567.5922 954.8895,-555.9115 964,-540 971.9502,-526.115 972.0775,-517.8114 964,-504 951.3587,-482.3853 926.5324,-468.7542 905.2939,-460.5947"/>
<polygon fill="#c0c0c0" stroke="#c0c0c0" stroke-width="2" points="906.4394,-457.2873 895.8448,-457.2217 904.086,-463.8799 906.4394,-457.2873"/>
</g>
<!-- 22 -->
<g id="node23" class="node">
<title>22</title>
<path fill="none" stroke="#56b1d8" stroke-width="2" d="M943,-540C943,-540 793,-540 793,-540 787,-540 781,-534 781,-528 781,-528 781,-516 781,-516 781,-510 787,-504 793,-504 793,-504 943,-504 943,-504 949,-504 955,-510 955,-516 955,-516 955,-528 955,-528 955,-534 949,-540 943,-540"/>
<text text-anchor="middle" x="868" y="-519.5" font-family="sans" font-size="10.00" fill="#000000">index_genomic_alignment_samtools</text>
</g>
<!-- 21&#45;&gt;22 -->
<g id="edge39" class="edge">
<title>21&#45;&gt;22</title>
<path fill="none" stroke="#c0c0c0" stroke-width="2" d="M870.9906,-575.8314C870.5628,-568.131 870.0541,-558.9743 869.5787,-550.4166"/>
<polygon fill="#c0c0c0" stroke="#c0c0c0" stroke-width="2" points="873.0724,-550.2037 869.023,-540.4133 866.0831,-550.592 873.0724,-550.2037"/>
</g>
<!-- 29 -->
<g id="node30" class="node">
<title>29</title>
<path fill="none" stroke="#d85656" stroke-width="2" d="M721,-468C721,-468 633,-468 633,-468 627,-468 621,-462 621,-456 621,-456 621,-444 621,-444 621,-438 627,-432 633,-432 633,-432 721,-432 721,-432 727,-432 733,-438 733,-444 733,-444 733,-456 733,-456 733,-462 727,-468 721,-468"/>
<text text-anchor="middle" x="677" y="-447.5" font-family="sans" font-size="10.00" fill="#000000">calculate_TIN_scores</text>
</g>
<!-- 21&#45;&gt;29 -->
<g id="edge48" class="edge">
<title>21&#45;&gt;29</title>
<path fill="none" stroke="#c0c0c0" stroke-width="2" d="M833.0741,-575.9889C813.9619,-566.4078 791.0168,-553.7712 772,-540 745.4766,-520.7929 718.7038,-494.6827 700.3711,-475.5321"/>
<polygon fill="#c0c0c0" stroke="#c0c0c0" stroke-width="2" points="702.7101,-472.9114 693.2969,-468.0491 697.6233,-477.7203 702.7101,-472.9114"/>
</g>
<!-- 22&#45;&gt;9 -->
<g id="edge24" class="edge">
<title>22&#45;&gt;9</title>
<path fill="none" stroke="#c0c0c0" stroke-width="2" d="M868,-503.8314C868,-496.131 868,-486.9743 868,-478.4166"/>
<polygon fill="#c0c0c0" stroke="#c0c0c0" stroke-width="2" points="871.5001,-478.4132 868,-468.4133 864.5001,-478.4133 871.5001,-478.4132"/>
</g>
<!-- 22&#45;&gt;29 -->
<g id="edge47" class="edge">
<title>22&#45;&gt;29</title>
<path fill="none" stroke="#c0c0c0" stroke-width="2" d="M819.8026,-503.8314C793.8034,-494.0306 761.5464,-481.8709 734.2719,-471.5894"/>
<polygon fill="#c0c0c0" stroke="#c0c0c0" stroke-width="2" points="735.4426,-468.2904 724.8508,-468.038 732.9734,-474.8404 735.4426,-468.2904"/>
</g>
<!-- 23&#45;&gt;9 -->
<g id="edge26" class="edge">
<title>23&#45;&gt;9</title>
<path fill="none" stroke="#c0c0c0" stroke-width="2" d="M749.5135,-575.9721C750.9318,-556.3987 755.8051,-525.1141 772,-504 786.8694,-484.614 810.8089,-471.1278 831.0611,-462.4813"/>
<polygon fill="#c0c0c0" stroke="#c0c0c0" stroke-width="2" points="832.39,-465.7194 840.3551,-458.7332 829.7718,-459.2274 832.39,-465.7194"/>
</g>
<!-- 23&#45;&gt;22 -->
<g id="edge40" class="edge">
<title>23&#45;&gt;22</title>
<path fill="none" stroke="#c0c0c0" stroke-width="2" d="M779.0287,-575.8314C794.2496,-566.6221 812.9128,-555.3301 829.2083,-545.4706"/>
<polygon fill="#c0c0c0" stroke="#c0c0c0" stroke-width="2" points="831.2369,-548.3341 837.9809,-540.1628 827.6132,-542.345 831.2369,-548.3341"/>
</g>
<!-- 23&#45;&gt;29 -->
<g id="edge49" class="edge">
<title>23&#45;&gt;29</title>
<path fill="none" stroke="#c0c0c0" stroke-width="2" d="M728.7914,-575.6949C719.1245,-565.9488 708.1319,-553.2551 701,-540 690.6238,-520.7152 684.5095,-496.6485 681.0516,-478.2556"/>
<polygon fill="#c0c0c0" stroke="#c0c0c0" stroke-width="2" points="684.4593,-477.4204 679.3105,-468.1608 677.5612,-478.6102 684.4593,-477.4204"/>
</g>
<!-- 24 -->
<g id="node25" class="node">
<title>24</title>
<path fill="none" stroke="#ced856" stroke-width="2" d="M695.5,-252C695.5,-252 614.5,-252 614.5,-252 608.5,-252 602.5,-246 602.5,-240 602.5,-240 602.5,-228 602.5,-228 602.5,-222 608.5,-216 614.5,-216 614.5,-216 695.5,-216 695.5,-216 701.5,-216 707.5,-222 707.5,-228 707.5,-228 707.5,-240 707.5,-240 707.5,-246 701.5,-252 695.5,-252"/>
<text text-anchor="middle" x="655" y="-231.5" font-family="sans" font-size="10.00" fill="#000000">alfa_qc_all_samples</text>
</g>
<!-- 24&#45;&gt;10 -->
<g id="edge27" class="edge">
<title>24&#45;&gt;10</title>
<path fill="none" stroke="#c0c0c0" stroke-width="2" d="M625.2236,-215.8314C610.1307,-206.6221 591.6243,-195.3301 575.4657,-185.4706"/>
<polygon fill="#c0c0c0" stroke="#c0c0c0" stroke-width="2" points="577.1263,-182.3838 566.7669,-180.1628 573.4802,-188.3593 577.1263,-182.3838"/>
</g>
<!-- 25&#45;&gt;12 -->
<g id="edge28" class="edge">
<title>25&#45;&gt;12</title>
<path fill="none" stroke="#c0c0c0" stroke-width="2" d="M969.0281,-359.8314C970.3115,-352.131 971.8376,-342.9743 973.2639,-334.4166"/>
<polygon fill="#c0c0c0" stroke="#c0c0c0" stroke-width="2" points="976.7394,-334.8526 974.9311,-324.4133 969.8347,-333.7018 976.7394,-334.8526"/>
</g>
<!-- 31 -->
<g id="node32" class="node">
<title>31</title>
<path fill="none" stroke="#56d8b1" stroke-width="2" d="M846,-324C846,-324 816,-324 816,-324 810,-324 804,-318 804,-312 804,-312 804,-300 804,-300 804,-294 810,-288 816,-288 816,-288 846,-288 846,-288 852,-288 858,-294 858,-300 858,-300 858,-312 858,-312 858,-318 852,-324 846,-324"/>
<text text-anchor="middle" x="831" y="-303.5" font-family="sans" font-size="10.00" fill="#000000">alfa_qc</text>
</g>
<!-- 25&#45;&gt;31 -->
<g id="edge52" class="edge">
<title>25&#45;&gt;31</title>
<path fill="none" stroke="#c0c0c0" stroke-width="2" d="M931.9338,-359.8314C912.1547,-349.2825 887.2517,-336.0009 867.1309,-325.2698"/>
<polygon fill="#c0c0c0" stroke="#c0c0c0" stroke-width="2" points="868.7289,-322.1555 858.2583,-320.5378 865.4348,-328.3319 868.7289,-322.1555"/>
</g>
<!-- 26&#45;&gt;15 -->
<g id="edge29" class="edge">
<title>26&#45;&gt;15</title>
<path fill="none" stroke="#c0c0c0" stroke-width="2" d="M670,-719.8314C670,-712.131 670,-702.9743 670,-694.4166"/>
<polygon fill="#c0c0c0" stroke="#c0c0c0" stroke-width="2" points="673.5001,-694.4132 670,-684.4133 666.5001,-694.4133 673.5001,-694.4132"/>
</g>
<!-- 27 -->
<g id="node28" class="node">
<title>27</title>
<path fill="none" stroke="#56d873" stroke-width="2" d="M324.5,-756C324.5,-756 237.5,-756 237.5,-756 231.5,-756 225.5,-750 225.5,-744 225.5,-744 225.5,-732 225.5,-732 225.5,-726 231.5,-720 237.5,-720 237.5,-720 324.5,-720 324.5,-720 330.5,-720 336.5,-726 336.5,-732 336.5,-732 336.5,-744 336.5,-744 336.5,-750 330.5,-756 324.5,-756"/>
<text text-anchor="middle" x="281" y="-735.5" font-family="sans" font-size="10.00" fill="#000000">extract_transcriptome</text>
</g>
<!-- 27&#45;&gt;16 -->
<g id="edge30" class="edge">
<title>27&#45;&gt;16</title>
<path fill="none" stroke="#c0c0c0" stroke-width="2" d="M273.4297,-719.8314C270.1507,-711.9617 266.238,-702.5712 262.6055,-693.8533"/>
<polygon fill="#c0c0c0" stroke="#c0c0c0" stroke-width="2" points="265.7492,-692.2979 258.6722,-684.4133 259.2876,-694.9902 265.7492,-692.2979"/>
</g>
<!-- 30 -->
<g id="node31" class="node">
<title>30</title>
<path fill="none" stroke="#56c1d8" stroke-width="2" d="M571.5,-684C571.5,-684 486.5,-684 486.5,-684 480.5,-684 474.5,-678 474.5,-672 474.5,-672 474.5,-660 474.5,-660 474.5,-654 480.5,-648 486.5,-648 486.5,-648 571.5,-648 571.5,-648 577.5,-648 583.5,-654 583.5,-660 583.5,-660 583.5,-672 583.5,-672 583.5,-678 577.5,-684 571.5,-684"/>
<text text-anchor="middle" x="529" y="-663.5" font-family="sans" font-size="10.00" fill="#000000">create_index_salmon</text>
</g>
<!-- 27&#45;&gt;30 -->
<g id="edge51" class="edge">
<title>27&#45;&gt;30</title>
<path fill="none" stroke="#c0c0c0" stroke-width="2" d="M336.656,-721.8418C374.5721,-710.8339 424.8861,-696.2266 464.5445,-684.7129"/>
<polygon fill="#c0c0c0" stroke="#c0c0c0" stroke-width="2" points="465.7559,-688.0058 474.3835,-681.8564 463.8042,-681.2834 465.7559,-688.0058"/>
</g>
<!-- 28&#45;&gt;17 -->
<g id="edge31" class="edge">
<title>28&#45;&gt;17</title>
<path fill="none" stroke="#c0c0c0" stroke-width="2" d="M459.5509,-719.8314C449.1822,-711.0485 436.5771,-700.3712 425.3354,-690.8489"/>
<polygon fill="#c0c0c0" stroke="#c0c0c0" stroke-width="2" points="427.3349,-687.9556 417.4422,-684.1628 422.8105,-693.297 427.3349,-687.9556"/>
</g>
<!-- 29&#45;&gt;18 -->
<g id="edge32" class="edge">
<title>29&#45;&gt;18</title>
<path fill="none" stroke="#c0c0c0" stroke-width="2" d="M661.1024,-431.8314C653.7722,-423.454 644.934,-413.3531 636.9031,-404.1749"/>
<polygon fill="#c0c0c0" stroke="#c0c0c0" stroke-width="2" points="639.3307,-401.6343 630.1116,-396.4133 634.0627,-406.2438 639.3307,-401.6343"/>
</g>
<!-- 30&#45;&gt;19 -->
<g id="edge34" class="edge">
<title>30&#45;&gt;19</title>
<path fill="none" stroke="#c0c0c0" stroke-width="2" d="M533.0375,-647.8314C534.7487,-640.131 536.7835,-630.9743 538.6852,-622.4166"/>
<polygon fill="#c0c0c0" stroke="#c0c0c0" stroke-width="2" points="542.1554,-622.9344 540.9082,-612.4133 535.3221,-621.4159 542.1554,-622.9344"/>
</g>
<!-- 30&#45;&gt;20 -->
<g id="edge36" class="edge">
<title>30&#45;&gt;20</title>
<path fill="none" stroke="#c0c0c0" stroke-width="2" d="M498.4666,-647.8314C482.9899,-638.6221 464.0131,-627.3301 447.4437,-617.4706"/>
<polygon fill="#c0c0c0" stroke="#c0c0c0" stroke-width="2" points="448.9071,-614.2687 438.5236,-612.1628 445.3276,-620.2843 448.9071,-614.2687"/>
</g>
<!-- 31&#45;&gt;24 -->
<g id="edge43" class="edge">
<title>31&#45;&gt;24</title>
<path fill="none" stroke="#c0c0c0" stroke-width="2" d="M803.8857,-294.9078C778.6315,-284.5765 740.2554,-268.8772 708.7903,-256.0051"/>
<polygon fill="#c0c0c0" stroke="#c0c0c0" stroke-width="2" points="709.85,-252.6571 699.2693,-252.1102 707.1996,-259.136 709.85,-252.6571"/>
</g>
<!-- 32 -->
<g id="node33" class="node">
<title>32</title>
<path fill="none" stroke="#d8c356" stroke-width="2" d="M636.5,-540C636.5,-540 515.5,-540 515.5,-540 509.5,-540 503.5,-534 503.5,-528 503.5,-528 503.5,-516 503.5,-516 503.5,-510 509.5,-504 515.5,-504 515.5,-504 636.5,-504 636.5,-504 642.5,-504 648.5,-510 648.5,-516 648.5,-516 648.5,-528 648.5,-528 648.5,-534 642.5,-540 636.5,-540"/>
<text text-anchor="middle" x="576" y="-519.5" font-family="sans" font-size="10.00" fill="#000000">extract_transcripts_as_bed12</text>
</g>
<!-- 32&#45;&gt;29 -->
<g id="edge50" class="edge">
<title>32&#45;&gt;29</title>
<path fill="none" stroke="#c0c0c0" stroke-width="2" d="M601.4866,-503.8314C614.1659,-494.7927 629.6596,-483.7476 643.3055,-474.0198"/>
<polygon fill="#c0c0c0" stroke="#c0c0c0" stroke-width="2" points="645.4105,-476.8176 651.5216,-468.1628 641.3471,-471.1176 645.4105,-476.8176"/>
</g>
<!-- 33&#45;&gt;31 -->
<g id="edge53" class="edge">
<title>33&#45;&gt;31</title>
<path fill="none" stroke="#c0c0c0" stroke-width="2" d="M831,-359.8314C831,-352.131 831,-342.9743 831,-334.4166"/>
<polygon fill="#c0c0c0" stroke="#c0c0c0" stroke-width="2" points="834.5001,-334.4132 831,-324.4133 827.5001,-334.4133 834.5001,-334.4132"/>
</g>
</g>
</svg>
