<?xml version="1.0" encoding="UTF-8" standalone="no"?>
<!DOCTYPE svg PUBLIC "-//W3C//DTD SVG 1.1//EN"
 "http://www.w3.org/Graphics/SVG/1.1/DTD/svg11.dtd">
<!-- Generated by graphviz version 2.38.0 (20140413.2041)
 -->
<!-- Title: snakemake_dag Pages: 1 -->
<svg width="1146pt" height="908pt"
 viewBox="0.00 0.00 1146.00 908.00" xmlns="http://www.w3.org/2000/svg" xmlns:xlink="http://www.w3.org/1999/xlink">
<g id="graph0" class="graph" transform="scale(1 1) rotate(0) translate(4 904)">
<title>snakemake_dag</title>
<polygon fill="white" stroke="none" points="-4,4 -4,-904 1142,-904 1142,4 -4,4"/>
<!-- 0 -->
<g id="node1" class="node"><title>0</title>
<path fill="none" stroke="#d8ac56" stroke-width="2" d="M487,-36C487,-36 457,-36 457,-36 451,-36 445,-30 445,-24 445,-24 445,-12 445,-12 445,-6 451,-0 457,-0 457,-0 487,-0 487,-0 493,-0 499,-6 499,-12 499,-12 499,-24 499,-24 499,-30 493,-36 487,-36"/>
<text text-anchor="middle" x="472" y="-15.5" font-family="sans" font-size="10.00">finish</text>
</g>
<!-- 1 -->
<g id="node2" class="node"><title>1</title>
<path fill="none" stroke="#97d856" stroke-width="2" d="M506,-108C506,-108 438,-108 438,-108 432,-108 426,-102 426,-96 426,-96 426,-84 426,-84 426,-78 432,-72 438,-72 438,-72 506,-72 506,-72 512,-72 518,-78 518,-84 518,-84 518,-96 518,-96 518,-102 512,-108 506,-108"/>
<text text-anchor="middle" x="472" y="-87.5" font-family="sans" font-size="10.00">MULTIQC_report</text>
</g>
<!-- 1&#45;&gt;0 -->
<g id="edge1" class="edge"><title>1&#45;&gt;0</title>
<path fill="none" stroke="grey" stroke-width="2" d="M472,-71.6966C472,-63.9827 472,-54.7125 472,-46.1124"/>
<polygon fill="grey" stroke="grey" stroke-width="2" points="475.5,-46.1043 472,-36.1043 468.5,-46.1044 475.5,-46.1043"/>
</g>
<!-- 2 -->
<g id="node3" class="node"><title>2</title>
<path fill="none" stroke="#56d88a" stroke-width="2" d="M521,-180C521,-180 423,-180 423,-180 417,-180 411,-174 411,-168 411,-168 411,-156 411,-156 411,-150 417,-144 423,-144 423,-144 521,-144 521,-144 527,-144 533,-150 533,-156 533,-156 533,-168 533,-168 533,-174 527,-180 521,-180"/>
<text text-anchor="middle" x="472" y="-159.5" font-family="sans" font-size="10.00">prepare_MultiQC_config</text>
</g>
<!-- 2&#45;&gt;1 -->
<g id="edge2" class="edge"><title>2&#45;&gt;1</title>
<path fill="none" stroke="grey" stroke-width="2" d="M472,-143.697C472,-135.983 472,-126.712 472,-118.112"/>
<polygon fill="grey" stroke="grey" stroke-width="2" points="475.5,-118.104 472,-108.104 468.5,-118.104 475.5,-118.104"/>
</g>
<!-- 3 -->
<g id="node4" class="node"><title>3</title>
<path fill="none" stroke="#88d856" stroke-width="2" d="M519.5,-252C519.5,-252 424.5,-252 424.5,-252 418.5,-252 412.5,-246 412.5,-240 412.5,-240 412.5,-228 412.5,-228 412.5,-222 418.5,-216 424.5,-216 424.5,-216 519.5,-216 519.5,-216 525.5,-216 531.5,-222 531.5,-228 531.5,-228 531.5,-240 531.5,-240 531.5,-246 525.5,-252 519.5,-252"/>
<text text-anchor="middle" x="472" y="-231.5" font-family="sans" font-size="10.00">prepare_files_for_report</text>
</g>
<!-- 3&#45;&gt;2 -->
<g id="edge3" class="edge"><title>3&#45;&gt;2</title>
<path fill="none" stroke="grey" stroke-width="2" d="M472,-215.697C472,-207.983 472,-198.712 472,-190.112"/>
<polygon fill="grey" stroke="grey" stroke-width="2" points="475.5,-190.104 472,-180.104 468.5,-190.104 475.5,-190.104"/>
</g>
<!-- 4 -->
<g id="node5" class="node"><title>4</title>
<path fill="none" stroke="#5692d8" stroke-width="2" d="M89.5,-324C89.5,-324 54.5,-324 54.5,-324 48.5,-324 42.5,-318 42.5,-312 42.5,-312 42.5,-300 42.5,-300 42.5,-294 48.5,-288 54.5,-288 54.5,-288 89.5,-288 89.5,-288 95.5,-288 101.5,-294 101.5,-300 101.5,-300 101.5,-312 101.5,-312 101.5,-318 95.5,-324 89.5,-324"/>
<text text-anchor="middle" x="72" y="-303.5" font-family="sans" font-size="10.00">pe_fastqc</text>
</g>
<!-- 4&#45;&gt;3 -->
<g id="edge12" class="edge"><title>4&#45;&gt;3</title>
<path fill="none" stroke="grey" stroke-width="2" d="M101.511,-291.172C104.673,-289.982 107.875,-288.893 111,-288 209.889,-259.733 328.553,-246.003 402.13,-239.74"/>
<polygon fill="grey" stroke="grey" stroke-width="2" points="402.53,-243.219 412.206,-238.905 401.951,-236.243 402.53,-243.219"/>
</g>
<!-- 5 -->
<g id="node6" class="node"><title>5</title>
<path fill="none" stroke="#70d856" stroke-width="2" d="M162,-324C162,-324 132,-324 132,-324 126,-324 120,-318 120,-312 120,-312 120,-300 120,-300 120,-294 126,-288 132,-288 132,-288 162,-288 162,-288 168,-288 174,-294 174,-300 174,-300 174,-312 174,-312 174,-318 168,-324 162,-324"/>
<text text-anchor="middle" x="147" y="-303.5" font-family="sans" font-size="10.00">fastqc</text>
</g>
<!-- 5&#45;&gt;3 -->
<g id="edge9" class="edge"><title>5&#45;&gt;3</title>
<path fill="none" stroke="grey" stroke-width="2" d="M174.06,-292.852C178.654,-291.059 183.42,-289.361 188,-288 259.664,-266.71 344.151,-252.245 402.237,-243.874"/>
<polygon fill="grey" stroke="grey" stroke-width="2" points="402.996,-247.302 412.405,-242.432 402.013,-240.371 402.996,-247.302"/>
</g>
<!-- 6 -->
<g id="node7" class="node"><title>6</title>
<path fill="none" stroke="#d6d856" stroke-width="2" d="M723,-756C723,-756 581,-756 581,-756 575,-756 569,-750 569,-744 569,-744 569,-732 569,-732 569,-726 575,-720 581,-720 581,-720 723,-720 723,-720 729,-720 735,-726 735,-732 735,-732 735,-744 735,-744 735,-750 729,-756 723,-756"/>
<text text-anchor="middle" x="652" y="-735.5" font-family="sans" font-size="10.00">pe_genome_quantification_kallisto</text>
</g>
<!-- 6&#45;&gt;3 -->
<g id="edge4" class="edge"><title>6&#45;&gt;3</title>
<path fill="none" stroke="grey" stroke-width="2" d="M635.198,-719.649C626.555,-709.869 616.498,-697.027 610,-684 576.994,-617.824 568,-596.95 568,-523 568,-523 568,-523 568,-377 568,-328.855 529.657,-284.848 501.435,-258.978"/>
<polygon fill="grey" stroke="grey" stroke-width="2" points="503.582,-256.204 493.784,-252.174 498.931,-261.435 503.582,-256.204"/>
</g>
<!-- 7 -->
<g id="node8" class="node"><title>7</title>
<path fill="none" stroke="#56c1d8" stroke-width="2" d="M463,-756C463,-756 337,-756 337,-756 331,-756 325,-750 325,-744 325,-744 325,-732 325,-732 325,-726 331,-720 337,-720 337,-720 463,-720 463,-720 469,-720 475,-726 475,-732 475,-732 475,-744 475,-744 475,-750 469,-756 463,-756"/>
<text text-anchor="middle" x="400" y="-735.5" font-family="sans" font-size="10.00">genome_quantification_kallisto</text>
</g>
<!-- 7&#45;&gt;3 -->
<g id="edge7" class="edge"><title>7&#45;&gt;3</title>
<path fill="none" stroke="grey" stroke-width="2" d="M324.739,-723.249C297.831,-715.35 268.805,-703.05 247,-684 213.62,-654.838 202,-639.324 202,-595 202,-595 202,-595 202,-377 202,-286.466 322.383,-253.524 402.383,-241.628"/>
<polygon fill="grey" stroke="grey" stroke-width="2" points="402.999,-245.076 412.413,-240.214 402.022,-238.144 402.999,-245.076"/>
</g>
<!-- 8 -->
<g id="node9" class="node"><title>8</title>
<path fill="none" stroke="#d8cb56" stroke-width="2" d="M685.5,-396C685.5,-396 620.5,-396 620.5,-396 614.5,-396 608.5,-390 608.5,-384 608.5,-384 608.5,-372 608.5,-372 608.5,-366 614.5,-360 620.5,-360 620.5,-360 685.5,-360 685.5,-360 691.5,-360 697.5,-366 697.5,-372 697.5,-372 697.5,-384 697.5,-384 697.5,-390 691.5,-396 685.5,-396"/>
<text text-anchor="middle" x="653" y="-375.5" font-family="sans" font-size="10.00">plot_TIN_scores</text>
</g>
<!-- 8&#45;&gt;3 -->
<g id="edge10" class="edge"><title>8&#45;&gt;3</title>
<path fill="none" stroke="grey" stroke-width="2" d="M642.58,-359.671C630.158,-340.184 607.807,-308.581 582,-288 565.981,-275.225 546.379,-264.542 528.182,-256.192"/>
<polygon fill="grey" stroke="grey" stroke-width="2" points="529.38,-252.895 518.82,-252.039 526.542,-259.293 529.38,-252.895"/>
</g>
<!-- 9 -->
<g id="node10" class="node"><title>9</title>
<path fill="none" stroke="#56d87b" stroke-width="2" d="M528,-612C528,-612 416,-612 416,-612 410,-612 404,-606 404,-600 404,-600 404,-588 404,-588 404,-582 410,-576 416,-576 416,-576 528,-576 528,-576 534,-576 540,-582 540,-588 540,-588 540,-600 540,-600 540,-606 534,-612 528,-612"/>
<text text-anchor="middle" x="472" y="-591.5" font-family="sans" font-size="10.00">salmon_quantmerge_genes</text>
</g>
<!-- 9&#45;&gt;3 -->
<g id="edge6" class="edge"><title>9&#45;&gt;3</title>
<path fill="none" stroke="grey" stroke-width="2" d="M472,-575.951C472,-549.292 472,-496.115 472,-451 472,-451 472,-451 472,-377 472,-336.996 472,-290.653 472,-262.08"/>
<polygon fill="grey" stroke="grey" stroke-width="2" points="475.5,-262.049 472,-252.049 468.5,-262.049 475.5,-262.049"/>
</g>
<!-- 10 -->
<g id="node11" class="node"><title>10</title>
<path fill="none" stroke="#d88556" stroke-width="2" d="M373.5,-612C373.5,-612 242.5,-612 242.5,-612 236.5,-612 230.5,-606 230.5,-600 230.5,-600 230.5,-588 230.5,-588 230.5,-582 236.5,-576 242.5,-576 242.5,-576 373.5,-576 373.5,-576 379.5,-576 385.5,-582 385.5,-588 385.5,-588 385.5,-600 385.5,-600 385.5,-606 379.5,-612 373.5,-612"/>
<text text-anchor="middle" x="308" y="-591.5" font-family="sans" font-size="10.00">salmon_quantmerge_transcripts</text>
</g>
<!-- 10&#45;&gt;3 -->
<g id="edge5" class="edge"><title>10&#45;&gt;3</title>
<path fill="none" stroke="grey" stroke-width="2" d="M321.361,-575.721C339.854,-550.027 371,-499.546 371,-451 371,-451 371,-451 371,-377 371,-328.193 411.113,-284.506 440.78,-258.87"/>
<polygon fill="grey" stroke="grey" stroke-width="2" points="443.41,-261.233 448.829,-252.129 438.915,-255.867 443.41,-261.233"/>
</g>
<!-- 11 -->
<g id="node12" class="node"><title>11</title>
<path fill="none" stroke="#56a2d8" stroke-width="2" d="M942.5,-612C942.5,-612 911.5,-612 911.5,-612 905.5,-612 899.5,-606 899.5,-600 899.5,-600 899.5,-588 899.5,-588 899.5,-582 905.5,-576 911.5,-576 911.5,-576 942.5,-576 942.5,-576 948.5,-576 954.5,-582 954.5,-588 954.5,-588 954.5,-600 954.5,-600 954.5,-606 948.5,-612 942.5,-612"/>
<text text-anchor="middle" x="927" y="-591.5" font-family="sans" font-size="10.00">star_rpm</text>
</g>
<!-- 11&#45;&gt;3 -->
<g id="edge8" class="edge"><title>11&#45;&gt;3</title>
<path fill="none" stroke="grey" stroke-width="2" d="M899.442,-579.32C860.486,-557.807 794,-512.137 794,-451 794,-451 794,-451 794,-377 794,-267.649 636.61,-241.792 541.903,-236.132"/>
<polygon fill="grey" stroke="grey" stroke-width="2" points="541.984,-232.631 531.811,-235.59 541.609,-239.621 541.984,-232.631"/>
</g>
<!-- 33 -->
<g id="node34" class="node"><title>33</title>
<path fill="none" stroke="#56d89a" stroke-width="2" d="M980,-540C980,-540 874,-540 874,-540 868,-540 862,-534 862,-528 862,-528 862,-516 862,-516 862,-510 868,-504 874,-504 874,-504 980,-504 980,-504 986,-504 992,-510 992,-516 992,-516 992,-528 992,-528 992,-534 986,-540 980,-540"/>
<text text-anchor="middle" x="927" y="-519.5" font-family="sans" font-size="10.00">rename_star_rpm_for_alfa</text>
</g>
<!-- 11&#45;&gt;33 -->
<g id="edge50" class="edge"><title>11&#45;&gt;33</title>
<path fill="none" stroke="grey" stroke-width="2" d="M927,-575.697C927,-567.983 927,-558.712 927,-550.112"/>
<polygon fill="grey" stroke="grey" stroke-width="2" points="930.5,-550.104 927,-540.104 923.5,-550.104 930.5,-550.104"/>
</g>
<!-- 12 -->
<g id="node13" class="node"><title>12</title>
<path fill="none" stroke="#5673d8" stroke-width="2" d="M925.5,-324C925.5,-324 848.5,-324 848.5,-324 842.5,-324 836.5,-318 836.5,-312 836.5,-312 836.5,-300 836.5,-300 836.5,-294 842.5,-288 848.5,-288 848.5,-288 925.5,-288 925.5,-288 931.5,-288 937.5,-294 937.5,-300 937.5,-300 937.5,-312 937.5,-312 937.5,-318 931.5,-324 925.5,-324"/>
<text text-anchor="middle" x="887" y="-303.5" font-family="sans" font-size="10.00">alfa_concat_results</text>
</g>
<!-- 12&#45;&gt;3 -->
<g id="edge11" class="edge"><title>12&#45;&gt;3</title>
<path fill="none" stroke="grey" stroke-width="2" d="M836.088,-293.61C826.763,-291.647 817.103,-289.696 808,-288 716.334,-270.921 609.924,-254.748 541.829,-244.86"/>
<polygon fill="grey" stroke="grey" stroke-width="2" points="542.05,-241.356 531.652,-243.388 541.047,-248.284 542.05,-241.356"/>
</g>
<!-- 13 -->
<g id="node14" class="node"><title>13</title>
<path fill="none" stroke="#d8a456" stroke-width="2" d="M744,-828C744,-828 632,-828 632,-828 626,-828 620,-822 620,-816 620,-816 620,-804 620,-804 620,-798 626,-792 632,-792 632,-792 744,-792 744,-792 750,-792 756,-798 756,-804 756,-804 756,-816 756,-816 756,-822 750,-828 744,-828"/>
<text text-anchor="middle" x="688" y="-807.5" font-family="sans" font-size="10.00">pe_remove_polya_cutadapt</text>
</g>
<!-- 13&#45;&gt;6 -->
<g id="edge13" class="edge"><title>13&#45;&gt;6</title>
<path fill="none" stroke="grey" stroke-width="2" d="M679.101,-791.697C675.003,-783.728 670.051,-774.1 665.507,-765.264"/>
<polygon fill="grey" stroke="grey" stroke-width="2" points="668.483,-763.396 660.797,-756.104 662.258,-766.598 668.483,-763.396"/>
</g>
<!-- 17 -->
<g id="node18" class="node"><title>17</title>
<path fill="none" stroke="#56d85b" stroke-width="2" d="M513.5,-684C513.5,-684 410.5,-684 410.5,-684 404.5,-684 398.5,-678 398.5,-672 398.5,-672 398.5,-660 398.5,-660 398.5,-654 404.5,-648 410.5,-648 410.5,-648 513.5,-648 513.5,-648 519.5,-648 525.5,-654 525.5,-660 525.5,-660 525.5,-672 525.5,-672 525.5,-678 519.5,-684 513.5,-684"/>
<text text-anchor="middle" x="462" y="-663.5" font-family="sans" font-size="10.00">pe_quantification_salmon</text>
</g>
<!-- 13&#45;&gt;17 -->
<g id="edge30" class="edge"><title>13&#45;&gt;17</title>
<path fill="none" stroke="grey" stroke-width="2" d="M635.545,-791.953C611.565,-783.007 583.362,-770.808 560,-756 544.498,-746.174 510.194,-713.967 486.583,-691.13"/>
<polygon fill="grey" stroke="grey" stroke-width="2" points="488.941,-688.542 479.33,-684.085 484.064,-693.563 488.941,-688.542"/>
</g>
<!-- 19 -->
<g id="node20" class="node"><title>19</title>
<path fill="none" stroke="#78d856" stroke-width="2" d="M1039.5,-756C1039.5,-756 950.5,-756 950.5,-756 944.5,-756 938.5,-750 938.5,-744 938.5,-744 938.5,-732 938.5,-732 938.5,-726 944.5,-720 950.5,-720 950.5,-720 1039.5,-720 1039.5,-720 1045.5,-720 1051.5,-726 1051.5,-732 1051.5,-732 1051.5,-744 1051.5,-744 1051.5,-750 1045.5,-756 1039.5,-756"/>
<text text-anchor="middle" x="995" y="-735.5" font-family="sans" font-size="10.00">pe_map_genome_star</text>
</g>
<!-- 13&#45;&gt;19 -->
<g id="edge34" class="edge"><title>13&#45;&gt;19</title>
<path fill="none" stroke="grey" stroke-width="2" d="M756.189,-794.681C802.17,-784.869 864.435,-771.279 928.304,-756.126"/>
<polygon fill="grey" stroke="grey" stroke-width="2" points="929.234,-759.502 938.15,-753.78 927.611,-752.693 929.234,-759.502"/>
</g>
<!-- 14 -->
<g id="node15" class="node"><title>14</title>
<path fill="none" stroke="#d87556" stroke-width="2" d="M448,-828C448,-828 364,-828 364,-828 358,-828 352,-822 352,-816 352,-816 352,-804 352,-804 352,-798 358,-792 364,-792 364,-792 448,-792 448,-792 454,-792 460,-798 460,-804 460,-804 460,-816 460,-816 460,-822 454,-828 448,-828"/>
<text text-anchor="middle" x="406" y="-807.5" font-family="sans" font-size="10.00">create_index_kallisto</text>
</g>
<!-- 14&#45;&gt;6 -->
<g id="edge14" class="edge"><title>14&#45;&gt;6</title>
<path fill="none" stroke="grey" stroke-width="2" d="M460.29,-793.552C496.291,-783.307 543.855,-769.773 582.599,-758.748"/>
<polygon fill="grey" stroke="grey" stroke-width="2" points="583.586,-762.106 592.247,-756.003 581.671,-755.374 583.586,-762.106"/>
</g>
<!-- 14&#45;&gt;7 -->
<g id="edge16" class="edge"><title>14&#45;&gt;7</title>
<path fill="none" stroke="grey" stroke-width="2" d="M404.517,-791.697C403.856,-783.983 403.061,-774.712 402.324,-766.112"/>
<polygon fill="grey" stroke="grey" stroke-width="2" points="405.807,-765.769 401.466,-756.104 398.833,-766.367 405.807,-765.769"/>
</g>
<!-- 15 -->
<g id="node16" class="node"><title>15</title>
<path fill="none" stroke="#56d0d8" stroke-width="2" d="M586,-828C586,-828 490,-828 490,-828 484,-828 478,-822 478,-816 478,-816 478,-804 478,-804 478,-798 484,-792 490,-792 490,-792 586,-792 586,-792 592,-792 598,-798 598,-804 598,-804 598,-816 598,-816 598,-822 592,-828 586,-828"/>
<text text-anchor="middle" x="538" y="-807.5" font-family="sans" font-size="10.00">remove_polya_cutadapt</text>
</g>
<!-- 15&#45;&gt;7 -->
<g id="edge15" class="edge"><title>15&#45;&gt;7</title>
<path fill="none" stroke="grey" stroke-width="2" d="M504.241,-791.876C485.78,-782.512 462.718,-770.814 442.983,-760.803"/>
<polygon fill="grey" stroke="grey" stroke-width="2" points="444.39,-757.592 433.888,-756.19 441.223,-763.835 444.39,-757.592"/>
</g>
<!-- 18 -->
<g id="node19" class="node"><title>18</title>
<path fill="none" stroke="#56d8d8" stroke-width="2" d="M355.5,-684C355.5,-684 268.5,-684 268.5,-684 262.5,-684 256.5,-678 256.5,-672 256.5,-672 256.5,-660 256.5,-660 256.5,-654 262.5,-648 268.5,-648 268.5,-648 355.5,-648 355.5,-648 361.5,-648 367.5,-654 367.5,-660 367.5,-660 367.5,-672 367.5,-672 367.5,-678 361.5,-684 355.5,-684"/>
<text text-anchor="middle" x="312" y="-663.5" font-family="sans" font-size="10.00">quantification_salmon</text>
</g>
<!-- 15&#45;&gt;18 -->
<g id="edge32" class="edge"><title>15&#45;&gt;18</title>
<path fill="none" stroke="grey" stroke-width="2" d="M531.875,-791.656C523.906,-771.551 508.088,-738.779 484,-720 467.061,-706.794 418.711,-692.487 377.572,-682.07"/>
<polygon fill="grey" stroke="grey" stroke-width="2" points="378.387,-678.666 367.837,-679.642 376.693,-685.458 378.387,-678.666"/>
</g>
<!-- 21 -->
<g id="node22" class="node"><title>21</title>
<path fill="none" stroke="#56d8a9" stroke-width="2" d="M908.5,-756C908.5,-756 835.5,-756 835.5,-756 829.5,-756 823.5,-750 823.5,-744 823.5,-744 823.5,-732 823.5,-732 823.5,-726 829.5,-720 835.5,-720 835.5,-720 908.5,-720 908.5,-720 914.5,-720 920.5,-726 920.5,-732 920.5,-732 920.5,-744 920.5,-744 920.5,-750 914.5,-756 908.5,-756"/>
<text text-anchor="middle" x="872" y="-735.5" font-family="sans" font-size="10.00">map_genome_star</text>
</g>
<!-- 15&#45;&gt;21 -->
<g id="edge38" class="edge"><title>15&#45;&gt;21</title>
<path fill="none" stroke="grey" stroke-width="2" d="M598.122,-794.856C602.477,-793.875 606.804,-792.914 611,-792 680.392,-776.878 760.474,-760.822 813.437,-750.397"/>
<polygon fill="grey" stroke="grey" stroke-width="2" points="814.191,-753.816 823.329,-748.454 812.842,-746.947 814.191,-753.816"/>
</g>
<!-- 16 -->
<g id="node17" class="node"><title>16</title>
<path fill="none" stroke="#56d8c9" stroke-width="2" d="M714,-540C714,-540 638,-540 638,-540 632,-540 626,-534 626,-528 626,-528 626,-516 626,-516 626,-510 632,-504 638,-504 638,-504 714,-504 714,-504 720,-504 726,-510 726,-516 726,-516 726,-528 726,-528 726,-534 720,-540 714,-540"/>
<text text-anchor="middle" x="676" y="-519.5" font-family="sans" font-size="10.00">merge_TIN_scores</text>
</g>
<!-- 16&#45;&gt;8 -->
<g id="edge17" class="edge"><title>16&#45;&gt;8</title>
<path fill="none" stroke="grey" stroke-width="2" d="M673.226,-503.871C669.306,-479.67 662.105,-435.211 657.437,-406.393"/>
<polygon fill="grey" stroke="grey" stroke-width="2" points="660.838,-405.501 655.784,-396.189 653.928,-406.62 660.838,-405.501"/>
</g>
<!-- 17&#45;&gt;9 -->
<g id="edge18" class="edge"><title>17&#45;&gt;9</title>
<path fill="none" stroke="grey" stroke-width="2" d="M464.472,-647.697C465.574,-639.983 466.898,-630.712 468.127,-622.112"/>
<polygon fill="grey" stroke="grey" stroke-width="2" points="471.607,-622.499 469.557,-612.104 464.677,-621.509 471.607,-622.499"/>
</g>
<!-- 17&#45;&gt;10 -->
<g id="edge20" class="edge"><title>17&#45;&gt;10</title>
<path fill="none" stroke="grey" stroke-width="2" d="M424.327,-647.876C403.368,-638.349 377.095,-626.407 354.823,-616.283"/>
<polygon fill="grey" stroke="grey" stroke-width="2" points="356.102,-613.02 345.55,-612.068 353.206,-619.393 356.102,-613.02"/>
</g>
<!-- 18&#45;&gt;9 -->
<g id="edge19" class="edge"><title>18&#45;&gt;9</title>
<path fill="none" stroke="grey" stroke-width="2" d="M351.14,-647.876C373.013,-638.307 400.457,-626.3 423.662,-616.148"/>
<polygon fill="grey" stroke="grey" stroke-width="2" points="425.228,-619.283 432.987,-612.068 422.422,-612.87 425.228,-619.283"/>
</g>
<!-- 18&#45;&gt;10 -->
<g id="edge21" class="edge"><title>18&#45;&gt;10</title>
<path fill="none" stroke="grey" stroke-width="2" d="M311.011,-647.697C310.57,-639.983 310.041,-630.712 309.549,-622.112"/>
<polygon fill="grey" stroke="grey" stroke-width="2" points="313.042,-621.888 308.977,-612.104 306.054,-622.288 313.042,-621.888"/>
</g>
<!-- 19&#45;&gt;11 -->
<g id="edge24" class="edge"><title>19&#45;&gt;11</title>
<path fill="none" stroke="grey" stroke-width="2" d="M998.427,-719.921C1001.3,-701.221 1003.33,-670.855 992,-648 985.547,-634.983 974.25,-624.061 962.865,-615.579"/>
<polygon fill="grey" stroke="grey" stroke-width="2" points="964.832,-612.685 954.627,-609.839 960.83,-618.428 964.832,-612.685"/>
</g>
<!-- 20 -->
<g id="node21" class="node"><title>20</title>
<path fill="none" stroke="#56d8b9" stroke-width="2" d="M955,-684C955,-684 805,-684 805,-684 799,-684 793,-678 793,-672 793,-672 793,-660 793,-660 793,-654 799,-648 805,-648 805,-648 955,-648 955,-648 961,-648 967,-654 967,-660 967,-660 967,-672 967,-672 967,-678 961,-684 955,-684"/>
<text text-anchor="middle" x="880" y="-663.5" font-family="sans" font-size="10.00">index_genomic_alignment_samtools</text>
</g>
<!-- 19&#45;&gt;20 -->
<g id="edge37" class="edge"><title>19&#45;&gt;20</title>
<path fill="none" stroke="grey" stroke-width="2" d="M966.868,-719.876C951.832,-710.724 933.133,-699.342 916.94,-689.485"/>
<polygon fill="grey" stroke="grey" stroke-width="2" points="918.602,-686.4 908.24,-684.19 914.962,-692.379 918.602,-686.4"/>
</g>
<!-- 26 -->
<g id="node27" class="node"><title>26</title>
<path fill="none" stroke="#56d86b" stroke-width="2" d="M746,-612C746,-612 658,-612 658,-612 652,-612 646,-606 646,-600 646,-600 646,-588 646,-588 646,-582 652,-576 658,-576 658,-576 746,-576 746,-576 752,-576 758,-582 758,-588 758,-588 758,-600 758,-600 758,-606 752,-612 746,-612"/>
<text text-anchor="middle" x="702" y="-591.5" font-family="sans" font-size="10.00">calculate_TIN_scores</text>
</g>
<!-- 19&#45;&gt;26 -->
<g id="edge44" class="edge"><title>19&#45;&gt;26</title>
<path fill="none" stroke="grey" stroke-width="2" d="M996.5,-719.984C997.261,-699.884 995.174,-666.809 976,-648 947.195,-619.744 839.886,-605.821 768.42,-599.541"/>
<polygon fill="grey" stroke="grey" stroke-width="2" points="768.409,-596.027 758.149,-598.669 767.817,-603.002 768.409,-596.027"/>
</g>
<!-- 20&#45;&gt;11 -->
<g id="edge23" class="edge"><title>20&#45;&gt;11</title>
<path fill="none" stroke="grey" stroke-width="2" d="M891.618,-647.697C897.139,-639.474 903.847,-629.483 909.932,-620.421"/>
<polygon fill="grey" stroke="grey" stroke-width="2" points="912.847,-622.358 915.516,-612.104 907.035,-618.456 912.847,-622.358"/>
</g>
<!-- 20&#45;&gt;26 -->
<g id="edge43" class="edge"><title>20&#45;&gt;26</title>
<path fill="none" stroke="grey" stroke-width="2" d="M836.456,-647.876C811.798,-638.179 780.777,-625.98 754.746,-615.743"/>
<polygon fill="grey" stroke="grey" stroke-width="2" points="755.989,-612.471 745.402,-612.068 753.428,-618.985 755.989,-612.471"/>
</g>
<!-- 21&#45;&gt;11 -->
<g id="edge22" class="edge"><title>21&#45;&gt;11</title>
<path fill="none" stroke="grey" stroke-width="2" d="M916.362,-719.889C941.372,-709.243 968.986,-695.447 976,-684 984.359,-670.357 981.832,-662.899 976,-648 971.803,-637.279 964.308,-627.427 956.422,-619.201"/>
<polygon fill="grey" stroke="grey" stroke-width="2" points="958.76,-616.592 949.153,-612.125 953.877,-621.608 958.76,-616.592"/>
</g>
<!-- 21&#45;&gt;20 -->
<g id="edge36" class="edge"><title>21&#45;&gt;20</title>
<path fill="none" stroke="grey" stroke-width="2" d="M873.978,-719.697C874.859,-711.983 875.919,-702.712 876.901,-694.112"/>
<polygon fill="grey" stroke="grey" stroke-width="2" points="880.387,-694.437 878.045,-684.104 873.432,-693.642 880.387,-694.437"/>
</g>
<!-- 21&#45;&gt;26 -->
<g id="edge41" class="edge"><title>21&#45;&gt;26</title>
<path fill="none" stroke="grey" stroke-width="2" d="M823.356,-730.106C753.776,-719.753 632.766,-699.73 620,-684 609.918,-671.576 612.35,-662.053 620,-648 626.913,-635.301 638.322,-625.181 650.465,-617.33"/>
<polygon fill="grey" stroke="grey" stroke-width="2" points="652.587,-620.14 659.382,-612.011 649.001,-614.128 652.587,-620.14"/>
</g>
<!-- 22 -->
<g id="node23" class="node"><title>22</title>
<path fill="none" stroke="#5682d8" stroke-width="2" d="M941.5,-396C941.5,-396 860.5,-396 860.5,-396 854.5,-396 848.5,-390 848.5,-384 848.5,-384 848.5,-372 848.5,-372 848.5,-366 854.5,-360 860.5,-360 860.5,-360 941.5,-360 941.5,-360 947.5,-360 953.5,-366 953.5,-372 953.5,-372 953.5,-384 953.5,-384 953.5,-390 947.5,-396 941.5,-396"/>
<text text-anchor="middle" x="901" y="-375.5" font-family="sans" font-size="10.00">alfa_qc_all_samples</text>
</g>
<!-- 22&#45;&gt;12 -->
<g id="edge25" class="edge"><title>22&#45;&gt;12</title>
<path fill="none" stroke="grey" stroke-width="2" d="M897.539,-359.697C895.997,-351.983 894.142,-342.712 892.422,-334.112"/>
<polygon fill="grey" stroke="grey" stroke-width="2" points="895.814,-333.224 890.421,-324.104 888.95,-334.597 895.814,-333.224"/>
</g>
<!-- 23 -->
<g id="node24" class="node"><title>23</title>
<path fill="none" stroke="#61d856" stroke-width="2" d="M758,-900C758,-900 632,-900 632,-900 626,-900 620,-894 620,-888 620,-888 620,-876 620,-876 620,-870 626,-864 632,-864 632,-864 758,-864 758,-864 764,-864 770,-870 770,-876 770,-876 770,-888 770,-888 770,-894 764,-900 758,-900"/>
<text text-anchor="middle" x="695" y="-879.5" font-family="sans" font-size="10.00">pe_remove_adapters_cutadapt</text>
</g>
<!-- 23&#45;&gt;13 -->
<g id="edge26" class="edge"><title>23&#45;&gt;13</title>
<path fill="none" stroke="grey" stroke-width="2" d="M693.27,-863.697C692.498,-855.983 691.571,-846.712 690.711,-838.112"/>
<polygon fill="grey" stroke="grey" stroke-width="2" points="694.188,-837.706 689.71,-828.104 687.223,-838.403 694.188,-837.706"/>
</g>
<!-- 24 -->
<g id="node25" class="node"><title>24</title>
<path fill="none" stroke="#d89556" stroke-width="2" d="M359.5,-900C359.5,-900 272.5,-900 272.5,-900 266.5,-900 260.5,-894 260.5,-888 260.5,-888 260.5,-876 260.5,-876 260.5,-870 266.5,-864 272.5,-864 272.5,-864 359.5,-864 359.5,-864 365.5,-864 371.5,-870 371.5,-876 371.5,-876 371.5,-888 371.5,-888 371.5,-894 365.5,-900 359.5,-900"/>
<text text-anchor="middle" x="316" y="-879.5" font-family="sans" font-size="10.00">extract_transcriptome</text>
</g>
<!-- 24&#45;&gt;14 -->
<g id="edge27" class="edge"><title>24&#45;&gt;14</title>
<path fill="none" stroke="grey" stroke-width="2" d="M338.247,-863.697C349.582,-854.881 363.53,-844.032 375.819,-834.474"/>
<polygon fill="grey" stroke="grey" stroke-width="2" points="378.264,-837.007 384.009,-828.104 373.966,-831.481 378.264,-837.007"/>
</g>
<!-- 31 -->
<g id="node32" class="node"><title>31</title>
<path fill="none" stroke="#d86656" stroke-width="2" d="M321.5,-828C321.5,-828 150.5,-828 150.5,-828 144.5,-828 138.5,-822 138.5,-816 138.5,-816 138.5,-804 138.5,-804 138.5,-798 144.5,-792 150.5,-792 150.5,-792 321.5,-792 321.5,-792 327.5,-792 333.5,-798 333.5,-804 333.5,-804 333.5,-816 333.5,-816 333.5,-822 327.5,-828 321.5,-828"/>
<text text-anchor="middle" x="236" y="-807.5" font-family="sans" font-size="10.00">concatenate_transcriptome_and_genome</text>
</g>
<!-- 24&#45;&gt;31 -->
<g id="edge49" class="edge"><title>24&#45;&gt;31</title>
<path fill="none" stroke="grey" stroke-width="2" d="M296.225,-863.697C286.246,-854.965 273.989,-844.24 263.143,-834.75"/>
<polygon fill="grey" stroke="grey" stroke-width="2" points="265.378,-832.055 255.548,-828.104 260.769,-837.323 265.378,-832.055"/>
</g>
<!-- 25 -->
<g id="node26" class="node"><title>25</title>
<path fill="none" stroke="#c6d856" stroke-width="2" d="M590,-900C590,-900 480,-900 480,-900 474,-900 468,-894 468,-888 468,-888 468,-876 468,-876 468,-870 474,-864 480,-864 480,-864 590,-864 590,-864 596,-864 602,-870 602,-876 602,-876 602,-888 602,-888 602,-894 596,-900 590,-900"/>
<text text-anchor="middle" x="535" y="-879.5" font-family="sans" font-size="10.00">remove_adapters_cutadapt</text>
</g>
<!-- 25&#45;&gt;15 -->
<g id="edge28" class="edge"><title>25&#45;&gt;15</title>
<path fill="none" stroke="grey" stroke-width="2" d="M535.742,-863.697C536.072,-855.983 536.469,-846.712 536.838,-838.112"/>
<polygon fill="grey" stroke="grey" stroke-width="2" points="540.335,-838.245 537.267,-828.104 533.342,-837.945 540.335,-838.245"/>
</g>
<!-- 26&#45;&gt;16 -->
<g id="edge29" class="edge"><title>26&#45;&gt;16</title>
<path fill="none" stroke="grey" stroke-width="2" d="M695.573,-575.697C692.645,-567.813 689.113,-558.304 685.86,-549.546"/>
<polygon fill="grey" stroke="grey" stroke-width="2" points="689.116,-548.26 682.353,-540.104 682.554,-550.697 689.116,-548.26"/>
</g>
<!-- 27 -->
<g id="node28" class="node"><title>27</title>
<path fill="none" stroke="#d85656" stroke-width="2" d="M283.5,-756C283.5,-756 198.5,-756 198.5,-756 192.5,-756 186.5,-750 186.5,-744 186.5,-744 186.5,-732 186.5,-732 186.5,-726 192.5,-720 198.5,-720 198.5,-720 283.5,-720 283.5,-720 289.5,-720 295.5,-726 295.5,-732 295.5,-732 295.5,-744 295.5,-744 295.5,-750 289.5,-756 283.5,-756"/>
<text text-anchor="middle" x="241" y="-735.5" font-family="sans" font-size="10.00">create_index_salmon</text>
</g>
<!-- 27&#45;&gt;17 -->
<g id="edge31" class="edge"><title>27&#45;&gt;17</title>
<path fill="none" stroke="grey" stroke-width="2" d="M294.78,-719.966C325.927,-710.1 365.323,-697.622 398.052,-687.255"/>
<polygon fill="grey" stroke="grey" stroke-width="2" points="399.502,-690.467 407.979,-684.111 397.389,-683.794 399.502,-690.467"/>
</g>
<!-- 27&#45;&gt;18 -->
<g id="edge33" class="edge"><title>27&#45;&gt;18</title>
<path fill="none" stroke="grey" stroke-width="2" d="M258.551,-719.697C267.234,-711.135 277.863,-700.656 287.348,-691.304"/>
<polygon fill="grey" stroke="grey" stroke-width="2" points="289.988,-693.617 294.651,-684.104 285.073,-688.633 289.988,-693.617"/>
</g>
<!-- 28 -->
<g id="node29" class="node"><title>28</title>
<path fill="none" stroke="#5663d8" stroke-width="2" d="M1030,-828C1030,-828 960,-828 960,-828 954,-828 948,-822 948,-816 948,-816 948,-804 948,-804 948,-798 954,-792 960,-792 960,-792 1030,-792 1030,-792 1036,-792 1042,-798 1042,-804 1042,-804 1042,-816 1042,-816 1042,-822 1036,-828 1030,-828"/>
<text text-anchor="middle" x="995" y="-807.5" font-family="sans" font-size="10.00">create_index_star</text>
</g>
<!-- 28&#45;&gt;19 -->
<g id="edge35" class="edge"><title>28&#45;&gt;19</title>
<path fill="none" stroke="grey" stroke-width="2" d="M995,-791.697C995,-783.983 995,-774.712 995,-766.112"/>
<polygon fill="grey" stroke="grey" stroke-width="2" points="998.5,-766.104 995,-756.104 991.5,-766.104 998.5,-766.104"/>
</g>
<!-- 28&#45;&gt;21 -->
<g id="edge39" class="edge"><title>28&#45;&gt;21</title>
<path fill="none" stroke="grey" stroke-width="2" d="M964.911,-791.876C948.68,-782.639 928.458,-771.131 911.029,-761.212"/>
<polygon fill="grey" stroke="grey" stroke-width="2" points="912.627,-758.094 902.205,-756.19 909.165,-764.178 912.627,-758.094"/>
</g>
<!-- 34 -->
<g id="node35" class="node"><title>34</title>
<path fill="none" stroke="#56b1d8" stroke-width="2" d="M1126,-540C1126,-540 1046,-540 1046,-540 1040,-540 1034,-534 1034,-528 1034,-528 1034,-516 1034,-516 1034,-510 1040,-504 1046,-504 1046,-504 1126,-504 1126,-504 1132,-504 1138,-510 1138,-516 1138,-516 1138,-528 1138,-528 1138,-534 1132,-540 1126,-540"/>
<text text-anchor="middle" x="1086" y="-519.5" font-family="sans" font-size="10.00">generate_alfa_index</text>
</g>
<!-- 28&#45;&gt;34 -->
<g id="edge51" class="edge"><title>28&#45;&gt;34</title>
<path fill="none" stroke="grey" stroke-width="2" d="M1025.63,-791.97C1038.75,-783.028 1052.89,-770.827 1061,-756 1097.51,-689.252 1094.02,-595.687 1089.49,-550.104"/>
<polygon fill="grey" stroke="grey" stroke-width="2" points="1092.96,-549.666 1088.4,-540.104 1086,-550.425 1092.96,-549.666"/>
</g>
<!-- 29 -->
<g id="node30" class="node"><title>29</title>
<path fill="none" stroke="#b6d856" stroke-width="2" d="M942,-468C942,-468 912,-468 912,-468 906,-468 900,-462 900,-456 900,-456 900,-444 900,-444 900,-438 906,-432 912,-432 912,-432 942,-432 942,-432 948,-432 954,-438 954,-444 954,-444 954,-456 954,-456 954,-462 948,-468 942,-468"/>
<text text-anchor="middle" x="927" y="-447.5" font-family="sans" font-size="10.00">alfa_qc</text>
</g>
<!-- 29&#45;&gt;22 -->
<g id="edge40" class="edge"><title>29&#45;&gt;22</title>
<path fill="none" stroke="grey" stroke-width="2" d="M920.573,-431.697C917.645,-423.813 914.113,-414.304 910.86,-405.546"/>
<polygon fill="grey" stroke="grey" stroke-width="2" points="914.116,-404.26 907.353,-396.104 907.554,-406.697 914.116,-404.26"/>
</g>
<!-- 30 -->
<g id="node31" class="node"><title>30</title>
<path fill="none" stroke="#a7d856" stroke-width="2" d="M762.5,-684C762.5,-684 641.5,-684 641.5,-684 635.5,-684 629.5,-678 629.5,-672 629.5,-672 629.5,-660 629.5,-660 629.5,-654 635.5,-648 641.5,-648 641.5,-648 762.5,-648 762.5,-648 768.5,-648 774.5,-654 774.5,-660 774.5,-660 774.5,-672 774.5,-672 774.5,-678 768.5,-684 762.5,-684"/>
<text text-anchor="middle" x="702" y="-663.5" font-family="sans" font-size="10.00">extract_transcripts_as_bed12</text>
</g>
<!-- 30&#45;&gt;26 -->
<g id="edge42" class="edge"><title>30&#45;&gt;26</title>
<path fill="none" stroke="grey" stroke-width="2" d="M702,-647.697C702,-639.983 702,-630.712 702,-622.112"/>
<polygon fill="grey" stroke="grey" stroke-width="2" points="705.5,-622.104 702,-612.104 698.5,-622.104 705.5,-622.104"/>
</g>
<!-- 31&#45;&gt;27 -->
<g id="edge45" class="edge"><title>31&#45;&gt;27</title>
<path fill="none" stroke="grey" stroke-width="2" d="M237.236,-791.697C237.787,-783.983 238.449,-774.712 239.063,-766.112"/>
<polygon fill="grey" stroke="grey" stroke-width="2" points="242.557,-766.328 239.778,-756.104 235.575,-765.83 242.557,-766.328"/>
</g>
<!-- 32 -->
<g id="node33" class="node"><title>32</title>
<path fill="none" stroke="#d8bc56" stroke-width="2" d="M108,-828C108,-828 12,-828 12,-828 6,-828 0,-822 0,-816 0,-816 0,-804 0,-804 0,-798 6,-792 12,-792 12,-792 108,-792 108,-792 114,-792 120,-798 120,-804 120,-804 120,-816 120,-816 120,-822 114,-828 108,-828"/>
<text text-anchor="middle" x="60" y="-807.5" font-family="sans" font-size="10.00">extract_decoys_salmon</text>
</g>
<!-- 32&#45;&gt;27 -->
<g id="edge46" class="edge"><title>32&#45;&gt;27</title>
<path fill="none" stroke="grey" stroke-width="2" d="M104.278,-791.876C129.351,-782.179 160.896,-769.98 187.365,-759.743"/>
<polygon fill="grey" stroke="grey" stroke-width="2" points="188.802,-762.94 196.866,-756.068 186.277,-756.411 188.802,-762.94"/>
</g>
<!-- 33&#45;&gt;29 -->
<g id="edge47" class="edge"><title>33&#45;&gt;29</title>
<path fill="none" stroke="grey" stroke-width="2" d="M927,-503.697C927,-495.983 927,-486.712 927,-478.112"/>
<polygon fill="grey" stroke="grey" stroke-width="2" points="930.5,-478.104 927,-468.104 923.5,-478.104 930.5,-478.104"/>
</g>
<!-- 34&#45;&gt;29 -->
<g id="edge48" class="edge"><title>34&#45;&gt;29</title>
<path fill="none" stroke="grey" stroke-width="2" d="M1047.1,-503.876C1021.51,-492.607 988.231,-477.957 963.198,-466.936"/>
<polygon fill="grey" stroke="grey" stroke-width="2" points="964.604,-463.731 954.041,-462.905 961.783,-470.138 964.604,-463.731"/>
</g>
</g>
</svg>
