<?xml version="1.0" encoding="UTF-8" standalone="no"?>
<!DOCTYPE svg PUBLIC "-//W3C//DTD SVG 1.1//EN"
 "http://www.w3.org/Graphics/SVG/1.1/DTD/svg11.dtd">
<!-- Generated by graphviz version 2.38.0 (20140413.2041)
 -->
<!-- Title: snakemake_dag Pages: 1 -->
<svg width="1107pt" height="404pt"
 viewBox="0.00 0.00 1106.50 404.00" xmlns="http://www.w3.org/2000/svg" xmlns:xlink="http://www.w3.org/1999/xlink">
<g id="graph0" class="graph" transform="scale(1 1) rotate(0) translate(4 400)">
<title>snakemake_dag</title>
<polygon fill="white" stroke="none" points="-4,4 -4,-400 1102.5,-400 1102.5,4 -4,4"/>
<!-- 0 -->
<g id="node1" class="node"><title>0</title>
<path fill="none" stroke="#9fd856" stroke-width="2" d="M250.5,-36C250.5,-36 220.5,-36 220.5,-36 214.5,-36 208.5,-30 208.5,-24 208.5,-24 208.5,-12 208.5,-12 208.5,-6 214.5,-0 220.5,-0 220.5,-0 250.5,-0 250.5,-0 256.5,-0 262.5,-6 262.5,-12 262.5,-12 262.5,-24 262.5,-24 262.5,-30 256.5,-36 250.5,-36"/>
<text text-anchor="middle" x="235.5" y="-15.5" font-family="sans" font-size="10.00">finish</text>
</g>
<!-- 1 -->
<g id="node2" class="node"><title>1</title>
<path fill="none" stroke="#56d882" stroke-width="2" d="M47,-108C47,-108 12,-108 12,-108 6,-108 0,-102 0,-96 0,-96 0,-84 0,-84 0,-78 6,-72 12,-72 12,-72 47,-72 47,-72 53,-72 59,-78 59,-84 59,-84 59,-96 59,-96 59,-102 53,-108 47,-108"/>
<text text-anchor="middle" x="29.5" y="-87.5" font-family="sans" font-size="10.00">pe_fastqc</text>
</g>
<!-- 1&#45;&gt;0 -->
<g id="edge9" class="edge"><title>1&#45;&gt;0</title>
<path fill="none" stroke="grey" stroke-width="2" d="M59.1802,-75.6843C62.3088,-74.3943 65.4575,-73.1424 68.5,-72 112.501,-55.4786 164.225,-39.5929 198.319,-29.5943"/>
<polygon fill="grey" stroke="grey" stroke-width="2" points="199.684,-32.8425 208.306,-26.6862 197.727,-26.1217 199.684,-32.8425"/>
</g>
<!-- 2 -->
<g id="node3" class="node"><title>2</title>
<path fill="none" stroke="#ced856" stroke-width="2" d="M119.5,-108C119.5,-108 89.5,-108 89.5,-108 83.5,-108 77.5,-102 77.5,-96 77.5,-96 77.5,-84 77.5,-84 77.5,-78 83.5,-72 89.5,-72 89.5,-72 119.5,-72 119.5,-72 125.5,-72 131.5,-78 131.5,-84 131.5,-84 131.5,-96 131.5,-96 131.5,-102 125.5,-108 119.5,-108"/>
<text text-anchor="middle" x="104.5" y="-87.5" font-family="sans" font-size="10.00">fastqc</text>
</g>
<!-- 2&#45;&gt;0 -->
<g id="edge1" class="edge"><title>2&#45;&gt;0</title>
<path fill="none" stroke="grey" stroke-width="2" d="M131.643,-74.496C151.316,-63.9839 178.116,-49.6634 199.564,-38.2027"/>
<polygon fill="grey" stroke="grey" stroke-width="2" points="201.221,-41.2853 208.391,-33.4855 197.922,-35.1115 201.221,-41.2853"/>
</g>
<!-- 3 -->
<g id="node4" class="node"><title>3</title>
<path fill="none" stroke="#56d89a" stroke-width="2" d="M393,-180C393,-180 290,-180 290,-180 284,-180 278,-174 278,-168 278,-168 278,-156 278,-156 278,-150 284,-144 290,-144 290,-144 393,-144 393,-144 399,-144 405,-150 405,-156 405,-156 405,-168 405,-168 405,-174 399,-180 393,-180"/>
<text text-anchor="middle" x="341.5" y="-159.5" font-family="sans" font-size="10.00">pe_quantification_salmon</text>
</g>
<!-- 3&#45;&gt;0 -->
<g id="edge3" class="edge"><title>3&#45;&gt;0</title>
<path fill="none" stroke="grey" stroke-width="2" d="M298.969,-143.961C282.762,-135.446 265.551,-123.579 254.5,-108 241.756,-90.0343 237.257,-65.2413 235.803,-46.3852"/>
<polygon fill="grey" stroke="grey" stroke-width="2" points="239.295,-46.1334 235.267,-36.334 232.305,-46.5062 239.295,-46.1334"/>
</g>
<!-- 8 -->
<g id="node9" class="node"><title>8</title>
<path fill="none" stroke="#56c9d8" stroke-width="2" d="M561.5,-108C561.5,-108 449.5,-108 449.5,-108 443.5,-108 437.5,-102 437.5,-96 437.5,-96 437.5,-84 437.5,-84 437.5,-78 443.5,-72 449.5,-72 449.5,-72 561.5,-72 561.5,-72 567.5,-72 573.5,-78 573.5,-84 573.5,-84 573.5,-96 573.5,-96 573.5,-102 567.5,-108 561.5,-108"/>
<text text-anchor="middle" x="505.5" y="-87.5" font-family="sans" font-size="10.00">salmon_quantmerge_genes</text>
</g>
<!-- 3&#45;&gt;8 -->
<g id="edge22" class="edge"><title>3&#45;&gt;8</title>
<path fill="none" stroke="grey" stroke-width="2" d="M381.619,-143.876C404.138,-134.264 432.418,-122.193 456.271,-112.013"/>
<polygon fill="grey" stroke="grey" stroke-width="2" points="457.688,-115.213 465.511,-108.068 454.94,-108.775 457.688,-115.213"/>
</g>
<!-- 9 -->
<g id="node10" class="node"><title>9</title>
<path fill="none" stroke="#5682d8" stroke-width="2" d="M407,-108C407,-108 276,-108 276,-108 270,-108 264,-102 264,-96 264,-96 264,-84 264,-84 264,-78 270,-72 276,-72 276,-72 407,-72 407,-72 413,-72 419,-78 419,-84 419,-84 419,-96 419,-96 419,-102 413,-108 407,-108"/>
<text text-anchor="middle" x="341.5" y="-87.5" font-family="sans" font-size="10.00">salmon_quantmerge_transcripts</text>
</g>
<!-- 3&#45;&gt;9 -->
<g id="edge24" class="edge"><title>3&#45;&gt;9</title>
<path fill="none" stroke="grey" stroke-width="2" d="M341.5,-143.697C341.5,-135.983 341.5,-126.712 341.5,-118.112"/>
<polygon fill="grey" stroke="grey" stroke-width="2" points="345,-118.104 341.5,-108.104 338,-118.104 345,-118.104"/>
</g>
<!-- 4 -->
<g id="node5" class="node"><title>4</title>
<path fill="none" stroke="#566bd8" stroke-width="2" d="M522,-180C522,-180 435,-180 435,-180 429,-180 423,-174 423,-168 423,-168 423,-156 423,-156 423,-150 429,-144 435,-144 435,-144 522,-144 522,-144 528,-144 534,-150 534,-156 534,-156 534,-168 534,-168 534,-174 528,-180 522,-180"/>
<text text-anchor="middle" x="478.5" y="-159.5" font-family="sans" font-size="10.00">quantification_salmon</text>
</g>
<!-- 4&#45;&gt;0 -->
<g id="edge8" class="edge"><title>4&#45;&gt;0</title>
<path fill="none" stroke="grey" stroke-width="2" d="M534.128,-145.789C552.813,-137.736 571.648,-125.711 582.5,-108 590.859,-94.3575 592.925,-84.1378 582.5,-72 542.885,-25.8749 354.205,-19.4546 272.908,-18.8661"/>
<polygon fill="grey" stroke="grey" stroke-width="2" points="272.647,-15.365 262.631,-18.8191 272.615,-22.3649 272.647,-15.365"/>
</g>
<!-- 4&#45;&gt;8 -->
<g id="edge21" class="edge"><title>4&#45;&gt;8</title>
<path fill="none" stroke="grey" stroke-width="2" d="M485.174,-143.697C488.215,-135.813 491.883,-126.304 495.261,-117.546"/>
<polygon fill="grey" stroke="grey" stroke-width="2" points="498.569,-118.694 498.903,-108.104 492.038,-116.175 498.569,-118.694"/>
</g>
<!-- 4&#45;&gt;9 -->
<g id="edge23" class="edge"><title>4&#45;&gt;9</title>
<path fill="none" stroke="grey" stroke-width="2" d="M444.986,-143.876C426.659,-134.512 403.764,-122.814 384.172,-112.803"/>
<polygon fill="grey" stroke="grey" stroke-width="2" points="385.64,-109.623 375.143,-108.19 382.455,-115.857 385.64,-109.623"/>
</g>
<!-- 5 -->
<g id="node6" class="node"><title>5</title>
<path fill="none" stroke="#70d856" stroke-width="2" d="M160.5,-252C160.5,-252 18.5,-252 18.5,-252 12.5,-252 6.5,-246 6.5,-240 6.5,-240 6.5,-228 6.5,-228 6.5,-222 12.5,-216 18.5,-216 18.5,-216 160.5,-216 160.5,-216 166.5,-216 172.5,-222 172.5,-228 172.5,-228 172.5,-240 172.5,-240 172.5,-246 166.5,-252 160.5,-252"/>
<text text-anchor="middle" x="89.5" y="-231.5" font-family="sans" font-size="10.00">pe_genome_quantification_kallisto</text>
</g>
<!-- 5&#45;&gt;0 -->
<g id="edge5" class="edge"><title>5&#45;&gt;0</title>
<path fill="none" stroke="grey" stroke-width="2" d="M101.201,-215.849C126.776,-178.362 187.778,-88.9491 217.965,-44.7025"/>
<polygon fill="grey" stroke="grey" stroke-width="2" points="220.999,-46.4656 223.743,-36.2325 215.216,-42.5206 220.999,-46.4656"/>
</g>
<!-- 6 -->
<g id="node7" class="node"><title>6</title>
<path fill="none" stroke="#d86e56" stroke-width="2" d="M328.5,-252C328.5,-252 202.5,-252 202.5,-252 196.5,-252 190.5,-246 190.5,-240 190.5,-240 190.5,-228 190.5,-228 190.5,-222 196.5,-216 202.5,-216 202.5,-216 328.5,-216 328.5,-216 334.5,-216 340.5,-222 340.5,-228 340.5,-228 340.5,-240 340.5,-240 340.5,-246 334.5,-252 328.5,-252"/>
<text text-anchor="middle" x="265.5" y="-231.5" font-family="sans" font-size="10.00">genome_quantification_kallisto</text>
</g>
<!-- 6&#45;&gt;0 -->
<g id="edge6" class="edge"><title>6&#45;&gt;0</title>
<path fill="none" stroke="grey" stroke-width="2" d="M260.264,-215.82C253.267,-191.918 241.205,-147.15 236.5,-108 234.027,-87.4178 233.871,-63.966 234.283,-46.3046"/>
<polygon fill="grey" stroke="grey" stroke-width="2" points="237.787,-46.237 234.597,-36.1336 230.79,-46.0207 237.787,-46.237"/>
</g>
<!-- 7 -->
<g id="node8" class="node"><title>7</title>
<path fill="none" stroke="#88d856" stroke-width="2" d="M803.5,-108C803.5,-108 715.5,-108 715.5,-108 709.5,-108 703.5,-102 703.5,-96 703.5,-96 703.5,-84 703.5,-84 703.5,-78 709.5,-72 715.5,-72 715.5,-72 803.5,-72 803.5,-72 809.5,-72 815.5,-78 815.5,-84 815.5,-84 815.5,-96 815.5,-96 815.5,-102 809.5,-108 803.5,-108"/>
<text text-anchor="middle" x="759.5" y="-87.5" font-family="sans" font-size="10.00">calculate_TIN_scores</text>
</g>
<!-- 7&#45;&gt;0 -->
<g id="edge4" class="edge"><title>7&#45;&gt;0</title>
<path fill="none" stroke="grey" stroke-width="2" d="M703.423,-81.5088C595.869,-67.1409 363.245,-36.0652 272.661,-23.9643"/>
<polygon fill="grey" stroke="grey" stroke-width="2" points="272.962,-20.4734 262.586,-22.6184 272.035,-27.4118 272.962,-20.4734"/>
</g>
<!-- 8&#45;&gt;0 -->
<g id="edge7" class="edge"><title>8&#45;&gt;0</title>
<path fill="none" stroke="grey" stroke-width="2" d="M439.796,-71.9656C387.194,-58.3281 315.335,-39.698 272.355,-28.555"/>
<polygon fill="grey" stroke="grey" stroke-width="2" points="273.158,-25.1475 262.6,-26.0258 271.401,-31.9235 273.158,-25.1475"/>
</g>
<!-- 9&#45;&gt;0 -->
<g id="edge2" class="edge"><title>9&#45;&gt;0</title>
<path fill="none" stroke="grey" stroke-width="2" d="M315.569,-71.8761C301.838,-62.8083 284.794,-51.5523 269.964,-41.7592"/>
<polygon fill="grey" stroke="grey" stroke-width="2" points="271.804,-38.7798 261.53,-36.1898 267.946,-44.621 271.804,-38.7798"/>
</g>
<!-- 10 -->
<g id="node11" class="node"><title>10</title>
<path fill="none" stroke="#d88556" stroke-width="2" d="M424.5,-324C424.5,-324 312.5,-324 312.5,-324 306.5,-324 300.5,-318 300.5,-312 300.5,-312 300.5,-300 300.5,-300 300.5,-294 306.5,-288 312.5,-288 312.5,-288 424.5,-288 424.5,-288 430.5,-288 436.5,-294 436.5,-300 436.5,-300 436.5,-312 436.5,-312 436.5,-318 430.5,-324 424.5,-324"/>
<text text-anchor="middle" x="368.5" y="-303.5" font-family="sans" font-size="10.00">pe_remove_polya_cutadapt</text>
</g>
<!-- 10&#45;&gt;3 -->
<g id="edge11" class="edge"><title>10&#45;&gt;3</title>
<path fill="none" stroke="grey" stroke-width="2" d="M365.243,-287.871C360.642,-263.67 352.188,-219.211 346.709,-190.393"/>
<polygon fill="grey" stroke="grey" stroke-width="2" points="350.075,-189.359 344.768,-180.189 343.198,-190.667 350.075,-189.359"/>
</g>
<!-- 10&#45;&gt;5 -->
<g id="edge14" class="edge"><title>10&#45;&gt;5</title>
<path fill="none" stroke="grey" stroke-width="2" d="M300.606,-287.966C260.437,-277.887 209.4,-265.082 167.571,-254.588"/>
<polygon fill="grey" stroke="grey" stroke-width="2" points="168.25,-251.15 157.699,-252.111 166.546,-257.939 168.25,-251.15"/>
</g>
<!-- 19 -->
<g id="node20" class="node"><title>19</title>
<path fill="none" stroke="#d85656" stroke-width="2" d="M692,-252C692,-252 603,-252 603,-252 597,-252 591,-246 591,-240 591,-240 591,-228 591,-228 591,-222 597,-216 603,-216 603,-216 692,-216 692,-216 698,-216 704,-222 704,-228 704,-228 704,-240 704,-240 704,-246 698,-252 692,-252"/>
<text text-anchor="middle" x="647.5" y="-231.5" font-family="sans" font-size="10.00">pe_map_genome_star</text>
</g>
<!-- 10&#45;&gt;19 -->
<g id="edge29" class="edge"><title>10&#45;&gt;19</title>
<path fill="none" stroke="grey" stroke-width="2" d="M436.394,-287.966C480.239,-276.965 537.032,-262.716 580.666,-251.768"/>
<polygon fill="grey" stroke="grey" stroke-width="2" points="581.764,-255.102 590.611,-249.273 580.06,-248.312 581.764,-255.102"/>
</g>
<!-- 11 -->
<g id="node12" class="node"><title>11</title>
<path fill="none" stroke="#56d86b" stroke-width="2" d="M494,-252C494,-252 409,-252 409,-252 403,-252 397,-246 397,-240 397,-240 397,-228 397,-228 397,-222 403,-216 409,-216 409,-216 494,-216 494,-216 500,-216 506,-222 506,-228 506,-228 506,-240 506,-240 506,-246 500,-252 494,-252"/>
<text text-anchor="middle" x="451.5" y="-231.5" font-family="sans" font-size="10.00">create_index_salmon</text>
</g>
<!-- 11&#45;&gt;3 -->
<g id="edge10" class="edge"><title>11&#45;&gt;3</title>
<path fill="none" stroke="grey" stroke-width="2" d="M424.591,-215.876C410.342,-206.808 392.654,-195.552 377.264,-185.759"/>
<polygon fill="grey" stroke="grey" stroke-width="2" points="378.828,-182.606 368.512,-180.19 375.07,-188.511 378.828,-182.606"/>
</g>
<!-- 11&#45;&gt;4 -->
<g id="edge12" class="edge"><title>11&#45;&gt;4</title>
<path fill="none" stroke="grey" stroke-width="2" d="M458.174,-215.697C461.215,-207.813 464.883,-198.304 468.261,-189.546"/>
<polygon fill="grey" stroke="grey" stroke-width="2" points="471.569,-190.694 471.903,-180.104 465.038,-188.175 471.569,-190.694"/>
</g>
<!-- 12 -->
<g id="node13" class="node"><title>12</title>
<path fill="none" stroke="#569ad8" stroke-width="2" d="M582.5,-324C582.5,-324 486.5,-324 486.5,-324 480.5,-324 474.5,-318 474.5,-312 474.5,-312 474.5,-300 474.5,-300 474.5,-294 480.5,-288 486.5,-288 486.5,-288 582.5,-288 582.5,-288 588.5,-288 594.5,-294 594.5,-300 594.5,-300 594.5,-312 594.5,-312 594.5,-318 588.5,-324 582.5,-324"/>
<text text-anchor="middle" x="534.5" y="-303.5" font-family="sans" font-size="10.00">remove_polya_cutadapt</text>
</g>
<!-- 12&#45;&gt;4 -->
<g id="edge13" class="edge"><title>12&#45;&gt;4</title>
<path fill="none" stroke="grey" stroke-width="2" d="M532.903,-287.986C530.719,-269.607 525.826,-239.765 515.5,-216 511.318,-206.375 505.254,-196.71 499.241,-188.318"/>
<polygon fill="grey" stroke="grey" stroke-width="2" points="501.872,-185.992 493.074,-180.089 496.27,-190.19 501.872,-185.992"/>
</g>
<!-- 12&#45;&gt;6 -->
<g id="edge16" class="edge"><title>12&#45;&gt;6</title>
<path fill="none" stroke="grey" stroke-width="2" d="M474.466,-289.378C434.961,-279.098 382.94,-265.561 340.686,-254.565"/>
<polygon fill="grey" stroke="grey" stroke-width="2" points="341.56,-251.176 331,-252.045 339.797,-257.95 341.56,-251.176"/>
</g>
<!-- 20 -->
<g id="node21" class="node"><title>20</title>
<path fill="none" stroke="#56d8b1" stroke-width="2" d="M807,-252C807,-252 734,-252 734,-252 728,-252 722,-246 722,-240 722,-240 722,-228 722,-228 722,-222 728,-216 734,-216 734,-216 807,-216 807,-216 813,-216 819,-222 819,-228 819,-228 819,-240 819,-240 819,-246 813,-252 807,-252"/>
<text text-anchor="middle" x="770.5" y="-231.5" font-family="sans" font-size="10.00">map_genome_star</text>
</g>
<!-- 12&#45;&gt;20 -->
<g id="edge31" class="edge"><title>12&#45;&gt;20</title>
<path fill="none" stroke="grey" stroke-width="2" d="M592.147,-287.963C624.904,-278.274 666.932,-265.832 712.269,-252.363"/>
<polygon fill="grey" stroke="grey" stroke-width="2" points="713.403,-255.678 721.992,-249.474 711.409,-248.968 713.403,-255.678"/>
</g>
<!-- 13 -->
<g id="node14" class="node"><title>13</title>
<path fill="none" stroke="#56b1d8" stroke-width="2" d="M200.5,-324C200.5,-324 116.5,-324 116.5,-324 110.5,-324 104.5,-318 104.5,-312 104.5,-312 104.5,-300 104.5,-300 104.5,-294 110.5,-288 116.5,-288 116.5,-288 200.5,-288 200.5,-288 206.5,-288 212.5,-294 212.5,-300 212.5,-300 212.5,-312 212.5,-312 212.5,-318 206.5,-324 200.5,-324"/>
<text text-anchor="middle" x="158.5" y="-303.5" font-family="sans" font-size="10.00">create_index_kallisto</text>
</g>
<!-- 13&#45;&gt;5 -->
<g id="edge15" class="edge"><title>13&#45;&gt;5</title>
<path fill="none" stroke="grey" stroke-width="2" d="M141.444,-287.697C133.005,-279.135 122.675,-268.656 113.457,-259.304"/>
<polygon fill="grey" stroke="grey" stroke-width="2" points="115.873,-256.769 106.36,-252.104 110.887,-261.683 115.873,-256.769"/>
</g>
<!-- 13&#45;&gt;6 -->
<g id="edge17" class="edge"><title>13&#45;&gt;6</title>
<path fill="none" stroke="grey" stroke-width="2" d="M184.675,-287.876C198.536,-278.808 215.741,-267.552 230.711,-257.759"/>
<polygon fill="grey" stroke="grey" stroke-width="2" points="232.772,-260.593 239.224,-252.19 228.94,-254.735 232.772,-260.593"/>
</g>
<!-- 14 -->
<g id="node15" class="node"><title>14</title>
<path fill="none" stroke="#d8cb56" stroke-width="2" d="M730.5,-180C730.5,-180 564.5,-180 564.5,-180 558.5,-180 552.5,-174 552.5,-168 552.5,-168 552.5,-156 552.5,-156 552.5,-150 558.5,-144 564.5,-144 564.5,-144 730.5,-144 730.5,-144 736.5,-144 742.5,-150 742.5,-156 742.5,-156 742.5,-168 742.5,-168 742.5,-174 736.5,-180 730.5,-180"/>
<text text-anchor="middle" x="647.5" y="-159.5" font-family="sans" font-size="10.00">pe_index_genomic_alignment_samtools</text>
</g>
<!-- 14&#45;&gt;7 -->
<g id="edge20" class="edge"><title>14&#45;&gt;7</title>
<path fill="none" stroke="grey" stroke-width="2" d="M674.898,-143.876C689.407,-134.808 707.416,-123.552 723.085,-113.759"/>
<polygon fill="grey" stroke="grey" stroke-width="2" points="725.371,-116.458 731.996,-108.19 721.661,-110.522 725.371,-116.458"/>
</g>
<!-- 15 -->
<g id="node16" class="node"><title>15</title>
<path fill="none" stroke="#56d8c9" stroke-width="2" d="M894,-180C894,-180 773,-180 773,-180 767,-180 761,-174 761,-168 761,-168 761,-156 761,-156 761,-150 767,-144 773,-144 773,-144 894,-144 894,-144 900,-144 906,-150 906,-156 906,-156 906,-168 906,-168 906,-174 900,-180 894,-180"/>
<text text-anchor="middle" x="833.5" y="-159.5" font-family="sans" font-size="10.00">extract_transcripts_as_bed12</text>
</g>
<!-- 15&#45;&gt;7 -->
<g id="edge18" class="edge"><title>15&#45;&gt;7</title>
<path fill="none" stroke="grey" stroke-width="2" d="M815.208,-143.697C806.067,-135.05 794.86,-124.449 784.9,-115.027"/>
<polygon fill="grey" stroke="grey" stroke-width="2" points="787.252,-112.434 777.582,-108.104 782.441,-117.519 787.252,-112.434"/>
</g>
<!-- 16 -->
<g id="node17" class="node"><title>16</title>
<path fill="none" stroke="#59d856" stroke-width="2" d="M1086.5,-180C1086.5,-180 936.5,-180 936.5,-180 930.5,-180 924.5,-174 924.5,-168 924.5,-168 924.5,-156 924.5,-156 924.5,-150 930.5,-144 936.5,-144 936.5,-144 1086.5,-144 1086.5,-144 1092.5,-144 1098.5,-150 1098.5,-156 1098.5,-156 1098.5,-168 1098.5,-168 1098.5,-174 1092.5,-180 1086.5,-180"/>
<text text-anchor="middle" x="1011.5" y="-159.5" font-family="sans" font-size="10.00">index_genomic_alignment_samtools</text>
</g>
<!-- 16&#45;&gt;7 -->
<g id="edge19" class="edge"><title>16&#45;&gt;7</title>
<path fill="none" stroke="grey" stroke-width="2" d="M950.176,-143.966C912.596,-133.527 864.484,-120.162 825.992,-109.47"/>
<polygon fill="grey" stroke="grey" stroke-width="2" points="826.489,-105.976 815.917,-106.671 824.615,-112.72 826.489,-105.976"/>
</g>
<!-- 17 -->
<g id="node18" class="node"><title>17</title>
<path fill="none" stroke="#d8b456" stroke-width="2" d="M431.5,-396C431.5,-396 305.5,-396 305.5,-396 299.5,-396 293.5,-390 293.5,-384 293.5,-384 293.5,-372 293.5,-372 293.5,-366 299.5,-360 305.5,-360 305.5,-360 431.5,-360 431.5,-360 437.5,-360 443.5,-366 443.5,-372 443.5,-372 443.5,-384 443.5,-384 443.5,-390 437.5,-396 431.5,-396"/>
<text text-anchor="middle" x="368.5" y="-375.5" font-family="sans" font-size="10.00">pe_remove_adapters_cutadapt</text>
</g>
<!-- 17&#45;&gt;10 -->
<g id="edge25" class="edge"><title>17&#45;&gt;10</title>
<path fill="none" stroke="grey" stroke-width="2" d="M368.5,-359.697C368.5,-351.983 368.5,-342.712 368.5,-334.112"/>
<polygon fill="grey" stroke="grey" stroke-width="2" points="372,-334.104 368.5,-324.104 365,-334.104 372,-334.104"/>
</g>
<!-- 18 -->
<g id="node19" class="node"><title>18</title>
<path fill="none" stroke="#b6d856" stroke-width="2" d="M589.5,-396C589.5,-396 479.5,-396 479.5,-396 473.5,-396 467.5,-390 467.5,-384 467.5,-384 467.5,-372 467.5,-372 467.5,-366 473.5,-360 479.5,-360 479.5,-360 589.5,-360 589.5,-360 595.5,-360 601.5,-366 601.5,-372 601.5,-372 601.5,-384 601.5,-384 601.5,-390 595.5,-396 589.5,-396"/>
<text text-anchor="middle" x="534.5" y="-375.5" font-family="sans" font-size="10.00">remove_adapters_cutadapt</text>
</g>
<!-- 18&#45;&gt;12 -->
<g id="edge26" class="edge"><title>18&#45;&gt;12</title>
<path fill="none" stroke="grey" stroke-width="2" d="M534.5,-359.697C534.5,-351.983 534.5,-342.712 534.5,-334.112"/>
<polygon fill="grey" stroke="grey" stroke-width="2" points="538,-334.104 534.5,-324.104 531,-334.104 538,-334.104"/>
</g>
<!-- 19&#45;&gt;14 -->
<g id="edge27" class="edge"><title>19&#45;&gt;14</title>
<path fill="none" stroke="grey" stroke-width="2" d="M647.5,-215.697C647.5,-207.983 647.5,-198.712 647.5,-190.112"/>
<polygon fill="grey" stroke="grey" stroke-width="2" points="651,-190.104 647.5,-180.104 644,-190.104 651,-190.104"/>
</g>
<!-- 20&#45;&gt;16 -->
<g id="edge28" class="edge"><title>20&#45;&gt;16</title>
<path fill="none" stroke="grey" stroke-width="2" d="M819.27,-218.834C854.773,-208.522 903.337,-194.417 942.769,-182.963"/>
<polygon fill="grey" stroke="grey" stroke-width="2" points="943.956,-186.263 952.583,-180.113 942.004,-179.541 943.956,-186.263"/>
</g>
<!-- 21 -->
<g id="node22" class="node"><title>21</title>
<path fill="none" stroke="#d89c56" stroke-width="2" d="M736.5,-324C736.5,-324 666.5,-324 666.5,-324 660.5,-324 654.5,-318 654.5,-312 654.5,-312 654.5,-300 654.5,-300 654.5,-294 660.5,-288 666.5,-288 666.5,-288 736.5,-288 736.5,-288 742.5,-288 748.5,-294 748.5,-300 748.5,-300 748.5,-312 748.5,-312 748.5,-318 742.5,-324 736.5,-324"/>
<text text-anchor="middle" x="701.5" y="-303.5" font-family="sans" font-size="10.00">create_index_star</text>
</g>
<!-- 21&#45;&gt;19 -->
<g id="edge30" class="edge"><title>21&#45;&gt;19</title>
<path fill="none" stroke="grey" stroke-width="2" d="M688.152,-287.697C681.743,-279.389 673.942,-269.277 666.894,-260.141"/>
<polygon fill="grey" stroke="grey" stroke-width="2" points="669.574,-257.884 660.695,-252.104 664.032,-262.16 669.574,-257.884"/>
</g>
<!-- 21&#45;&gt;20 -->
<g id="edge32" class="edge"><title>21&#45;&gt;20</title>
<path fill="none" stroke="grey" stroke-width="2" d="M718.556,-287.697C726.995,-279.135 737.325,-268.656 746.543,-259.304"/>
<polygon fill="grey" stroke="grey" stroke-width="2" points="749.113,-261.683 753.64,-252.104 744.127,-256.769 749.113,-261.683"/>
</g>
</g>
</svg>
