<?xml version="1.0" encoding="UTF-8" standalone="no"?>
<!DOCTYPE svg PUBLIC "-//W3C//DTD SVG 1.1//EN"
 "http://www.w3.org/Graphics/SVG/1.1/DTD/svg11.dtd">
<!-- Generated by graphviz version 2.42.3 (20191010.1750)
 -->
<!-- Title: snakemake_dag Pages: 1 -->
<svg width="1211pt" height="908pt"
 viewBox="0.00 0.00 1210.50 908.00" xmlns="http://www.w3.org/2000/svg" xmlns:xlink="http://www.w3.org/1999/xlink">
<g id="graph0" class="graph" transform="scale(1 1) rotate(0) translate(4 904)">
<title>snakemake_dag</title>
<polygon fill="white" stroke="transparent" points="-4,4 -4,-904 1206.5,-904 1206.5,4 -4,4"/>
<!-- 0 -->
<g id="node1" class="node">
<title>0</title>
<path fill="none" stroke="#70d856" stroke-width="2" d="M353.5,-36C353.5,-36 323.5,-36 323.5,-36 317.5,-36 311.5,-30 311.5,-24 311.5,-24 311.5,-12 311.5,-12 311.5,-6 317.5,0 323.5,0 323.5,0 353.5,0 353.5,0 359.5,0 365.5,-6 365.5,-12 365.5,-12 365.5,-24 365.5,-24 365.5,-30 359.5,-36 353.5,-36"/>
<text text-anchor="middle" x="338.5" y="-15.5" font-family="sans" font-size="10.00">finish</text>
</g>
<!-- 1 -->
<g id="node2" class="node">
<title>1</title>
<path fill="none" stroke="#bed856" stroke-width="2" d="M373.5,-108C373.5,-108 303.5,-108 303.5,-108 297.5,-108 291.5,-102 291.5,-96 291.5,-96 291.5,-84 291.5,-84 291.5,-78 297.5,-72 303.5,-72 303.5,-72 373.5,-72 373.5,-72 379.5,-72 385.5,-78 385.5,-84 385.5,-84 385.5,-96 385.5,-96 385.5,-102 379.5,-108 373.5,-108"/>
<text text-anchor="middle" x="338.5" y="-87.5" font-family="sans" font-size="10.00">MULTIQC_report</text>
</g>
<!-- 1&#45;&gt;0 -->
<g id="edge1" class="edge">
<title>1&#45;&gt;0</title>
<path fill="none" stroke="grey" stroke-width="2" d="M338.5,-71.7C338.5,-63.98 338.5,-54.71 338.5,-46.11"/>
<polygon fill="grey" stroke="grey" stroke-width="2" points="342,-46.1 338.5,-36.1 335,-46.1 342,-46.1"/>
</g>
<!-- 2 -->
<g id="node3" class="node">
<title>2</title>
<path fill="none" stroke="#d8d356" stroke-width="2" d="M392.5,-180C392.5,-180 284.5,-180 284.5,-180 278.5,-180 272.5,-174 272.5,-168 272.5,-168 272.5,-156 272.5,-156 272.5,-150 278.5,-144 284.5,-144 284.5,-144 392.5,-144 392.5,-144 398.5,-144 404.5,-150 404.5,-156 404.5,-156 404.5,-168 404.5,-168 404.5,-174 398.5,-180 392.5,-180"/>
<text text-anchor="middle" x="338.5" y="-159.5" font-family="sans" font-size="10.00">prepare_MultiQC_config</text>
</g>
<!-- 2&#45;&gt;1 -->
<g id="edge2" class="edge">
<title>2&#45;&gt;1</title>
<path fill="none" stroke="grey" stroke-width="2" d="M338.5,-143.7C338.5,-135.98 338.5,-126.71 338.5,-118.11"/>
<polygon fill="grey" stroke="grey" stroke-width="2" points="342,-118.1 338.5,-108.1 335,-118.1 342,-118.1"/>
</g>
<!-- 3 -->
<g id="node4" class="node">
<title>3</title>
<path fill="none" stroke="#56d89a" stroke-width="2" d="M393,-252C393,-252 284,-252 284,-252 278,-252 272,-246 272,-240 272,-240 272,-228 272,-228 272,-222 278,-216 284,-216 284,-216 393,-216 393,-216 399,-216 405,-222 405,-228 405,-228 405,-240 405,-240 405,-246 399,-252 393,-252"/>
<text text-anchor="middle" x="338.5" y="-231.5" font-family="sans" font-size="10.00">prepare_files_for_report</text>
</g>
<!-- 3&#45;&gt;2 -->
<g id="edge3" class="edge">
<title>3&#45;&gt;2</title>
<path fill="none" stroke="grey" stroke-width="2" d="M338.5,-215.7C338.5,-207.98 338.5,-198.71 338.5,-190.11"/>
<polygon fill="grey" stroke="grey" stroke-width="2" points="342,-190.1 338.5,-180.1 335,-190.1 342,-190.1"/>
</g>
<!-- 4 -->
<g id="node5" class="node">
<title>4</title>
<path fill="none" stroke="#56d0d8" stroke-width="2" d="M84.5,-324C84.5,-324 44.5,-324 44.5,-324 38.5,-324 32.5,-318 32.5,-312 32.5,-312 32.5,-300 32.5,-300 32.5,-294 38.5,-288 44.5,-288 44.5,-288 84.5,-288 84.5,-288 90.5,-288 96.5,-294 96.5,-300 96.5,-300 96.5,-312 96.5,-312 96.5,-318 90.5,-324 84.5,-324"/>
<text text-anchor="middle" x="64.5" y="-303.5" font-family="sans" font-size="10.00">pe_fastqc</text>
</g>
<!-- 4&#45;&gt;3 -->
<g id="edge10" class="edge">
<title>4&#45;&gt;3</title>
<path fill="none" stroke="grey" stroke-width="2" d="M96.54,-291.11C99.54,-289.99 102.56,-288.94 105.5,-288 156.87,-271.64 216.14,-258.23 262.04,-248.99"/>
<polygon fill="grey" stroke="grey" stroke-width="2" points="262.79,-252.41 271.92,-247.03 261.43,-245.54 262.79,-252.41"/>
</g>
<!-- 5 -->
<g id="node6" class="node">
<title>5</title>
<path fill="none" stroke="#56d85b" stroke-width="2" d="M156.5,-324C156.5,-324 126.5,-324 126.5,-324 120.5,-324 114.5,-318 114.5,-312 114.5,-312 114.5,-300 114.5,-300 114.5,-294 120.5,-288 126.5,-288 126.5,-288 156.5,-288 156.5,-288 162.5,-288 168.5,-294 168.5,-300 168.5,-300 168.5,-312 168.5,-312 168.5,-318 162.5,-324 156.5,-324"/>
<text text-anchor="middle" x="141.5" y="-303.5" font-family="sans" font-size="10.00">fastqc</text>
</g>
<!-- 5&#45;&gt;3 -->
<g id="edge7" class="edge">
<title>5&#45;&gt;3</title>
<path fill="none" stroke="grey" stroke-width="2" d="M168.75,-293.41C173.32,-291.55 178.03,-289.68 182.5,-288 212.91,-276.54 247.05,-264.82 275.62,-255.32"/>
<polygon fill="grey" stroke="grey" stroke-width="2" points="277.09,-258.52 285.48,-252.05 274.89,-251.87 277.09,-258.52"/>
</g>
<!-- 6 -->
<g id="node7" class="node">
<title>6</title>
<path fill="none" stroke="#5673d8" stroke-width="2" d="M175,-756C175,-756 12,-756 12,-756 6,-756 0,-750 0,-744 0,-744 0,-732 0,-732 0,-726 6,-720 12,-720 12,-720 175,-720 175,-720 181,-720 187,-726 187,-732 187,-732 187,-744 187,-744 187,-750 181,-756 175,-756"/>
<text text-anchor="middle" x="93.5" y="-735.5" font-family="sans" font-size="10.00">pe_genome_quantification_kallisto</text>
</g>
<!-- 6&#45;&gt;3 -->
<g id="edge5" class="edge">
<title>6&#45;&gt;3</title>
<path fill="none" stroke="grey" stroke-width="2" d="M117.13,-719.97C147.54,-695.89 196.5,-648.75 196.5,-595 196.5,-595 196.5,-595 196.5,-377 196.5,-331.63 214.59,-320.25 246.5,-288 258.74,-275.63 274.46,-265.17 289.44,-256.91"/>
<polygon fill="grey" stroke="grey" stroke-width="2" points="291.42,-259.81 298.62,-252.04 288.15,-253.63 291.42,-259.81"/>
</g>
<!-- 7 -->
<g id="node8" class="node">
<title>7</title>
<path fill="none" stroke="#ced856" stroke-width="2" d="M363.5,-756C363.5,-756 217.5,-756 217.5,-756 211.5,-756 205.5,-750 205.5,-744 205.5,-744 205.5,-732 205.5,-732 205.5,-726 211.5,-720 217.5,-720 217.5,-720 363.5,-720 363.5,-720 369.5,-720 375.5,-726 375.5,-732 375.5,-732 375.5,-744 375.5,-744 375.5,-750 369.5,-756 363.5,-756"/>
<text text-anchor="middle" x="290.5" y="-735.5" font-family="sans" font-size="10.00">genome_quantification_kallisto</text>
</g>
<!-- 7&#45;&gt;3 -->
<g id="edge11" class="edge">
<title>7&#45;&gt;3</title>
<path fill="none" stroke="grey" stroke-width="2" d="M275.93,-719.91C268.19,-710.01 259.13,-696.97 253.5,-684 237.38,-646.9 234.5,-635.45 234.5,-595 234.5,-595 234.5,-595 234.5,-377 234.5,-327.63 275.92,-284.02 306.48,-258.56"/>
<polygon fill="grey" stroke="grey" stroke-width="2" points="308.8,-261.19 314.38,-252.18 304.4,-255.74 308.8,-261.19"/>
</g>
<!-- 8 -->
<g id="node9" class="node">
<title>8</title>
<path fill="none" stroke="#56d87b" stroke-width="2" d="M582.5,-396C582.5,-396 512.5,-396 512.5,-396 506.5,-396 500.5,-390 500.5,-384 500.5,-384 500.5,-372 500.5,-372 500.5,-366 506.5,-360 512.5,-360 512.5,-360 582.5,-360 582.5,-360 588.5,-360 594.5,-366 594.5,-372 594.5,-372 594.5,-384 594.5,-384 594.5,-390 588.5,-396 582.5,-396"/>
<text text-anchor="middle" x="547.5" y="-375.5" font-family="sans" font-size="10.00">plot_TIN_scores</text>
</g>
<!-- 8&#45;&gt;3 -->
<g id="edge12" class="edge">
<title>8&#45;&gt;3</title>
<path fill="none" stroke="grey" stroke-width="2" d="M534.73,-359.93C519.39,-340.39 492,-308.45 462.5,-288 443.65,-274.93 421.06,-264.1 400.35,-255.71"/>
<polygon fill="grey" stroke="grey" stroke-width="2" points="401.58,-252.43 391,-252.03 399.02,-258.95 401.58,-252.43"/>
</g>
<!-- 9 -->
<g id="node10" class="node">
<title>9</title>
<path fill="none" stroke="#56d8b9" stroke-width="2" d="M402.5,-684C402.5,-684 274.5,-684 274.5,-684 268.5,-684 262.5,-678 262.5,-672 262.5,-672 262.5,-660 262.5,-660 262.5,-654 268.5,-648 274.5,-648 274.5,-648 402.5,-648 402.5,-648 408.5,-648 414.5,-654 414.5,-660 414.5,-660 414.5,-672 414.5,-672 414.5,-678 408.5,-684 402.5,-684"/>
<text text-anchor="middle" x="338.5" y="-663.5" font-family="sans" font-size="10.00">salmon_quantmerge_genes</text>
</g>
<!-- 9&#45;&gt;3 -->
<g id="edge9" class="edge">
<title>9&#45;&gt;3</title>
<path fill="none" stroke="grey" stroke-width="2" d="M338.5,-647.95C338.5,-621.29 338.5,-568.11 338.5,-523 338.5,-523 338.5,-523 338.5,-377 338.5,-337 338.5,-290.65 338.5,-262.08"/>
<polygon fill="grey" stroke="grey" stroke-width="2" points="342,-262.05 338.5,-252.05 335,-262.05 342,-262.05"/>
</g>
<!-- 10 -->
<g id="node11" class="node">
<title>10</title>
<path fill="none" stroke="#56d8c9" stroke-width="2" d="M594.5,-684C594.5,-684 444.5,-684 444.5,-684 438.5,-684 432.5,-678 432.5,-672 432.5,-672 432.5,-660 432.5,-660 432.5,-654 438.5,-648 444.5,-648 444.5,-648 594.5,-648 594.5,-648 600.5,-648 606.5,-654 606.5,-660 606.5,-660 606.5,-672 606.5,-672 606.5,-678 600.5,-684 594.5,-684"/>
<text text-anchor="middle" x="519.5" y="-663.5" font-family="sans" font-size="10.00">salmon_quantmerge_transcripts</text>
</g>
<!-- 10&#45;&gt;3 -->
<g id="edge6" class="edge">
<title>10&#45;&gt;3</title>
<path fill="none" stroke="grey" stroke-width="2" d="M504.09,-647.58C483.21,-622.1 448.5,-572.34 448.5,-523 448.5,-523 448.5,-523 448.5,-377 448.5,-326.76 404.94,-283.52 372.64,-258.36"/>
<polygon fill="grey" stroke="grey" stroke-width="2" points="374.38,-255.29 364.29,-252.06 370.16,-260.88 374.38,-255.29"/>
</g>
<!-- 11 -->
<g id="node12" class="node">
<title>11</title>
<path fill="none" stroke="#56d86b" stroke-width="2" d="M989.5,-612C989.5,-612 953.5,-612 953.5,-612 947.5,-612 941.5,-606 941.5,-600 941.5,-600 941.5,-588 941.5,-588 941.5,-582 947.5,-576 953.5,-576 953.5,-576 989.5,-576 989.5,-576 995.5,-576 1001.5,-582 1001.5,-588 1001.5,-588 1001.5,-600 1001.5,-600 1001.5,-606 995.5,-612 989.5,-612"/>
<text text-anchor="middle" x="971.5" y="-591.5" font-family="sans" font-size="10.00">star_rpm</text>
</g>
<!-- 11&#45;&gt;3 -->
<g id="edge8" class="edge">
<title>11&#45;&gt;3</title>
<path fill="none" stroke="grey" stroke-width="2" d="M941.32,-585.35C866.13,-565.41 676.5,-509.33 676.5,-451 676.5,-451 676.5,-451 676.5,-377 676.5,-264.39 515.06,-239.61 415.33,-235.04"/>
<polygon fill="grey" stroke="grey" stroke-width="2" points="415.41,-231.54 405.28,-234.64 415.13,-238.54 415.41,-231.54"/>
</g>
<!-- 31 -->
<g id="node32" class="node">
<title>31</title>
<path fill="none" stroke="#afd856" stroke-width="2" d="M1032.5,-540C1032.5,-540 910.5,-540 910.5,-540 904.5,-540 898.5,-534 898.5,-528 898.5,-528 898.5,-516 898.5,-516 898.5,-510 904.5,-504 910.5,-504 910.5,-504 1032.5,-504 1032.5,-504 1038.5,-504 1044.5,-510 1044.5,-516 1044.5,-516 1044.5,-528 1044.5,-528 1044.5,-534 1038.5,-540 1032.5,-540"/>
<text text-anchor="middle" x="971.5" y="-519.5" font-family="sans" font-size="10.00">rename_star_rpm_for_alfa</text>
</g>
<!-- 11&#45;&gt;31 -->
<g id="edge48" class="edge">
<title>11&#45;&gt;31</title>
<path fill="none" stroke="grey" stroke-width="2" d="M971.5,-575.7C971.5,-567.98 971.5,-558.71 971.5,-550.11"/>
<polygon fill="grey" stroke="grey" stroke-width="2" points="975,-550.1 971.5,-540.1 968,-550.1 975,-550.1"/>
</g>
<!-- 12 -->
<g id="node13" class="node">
<title>12</title>
<path fill="none" stroke="#d8b456" stroke-width="2" d="M889,-324C889,-324 802,-324 802,-324 796,-324 790,-318 790,-312 790,-312 790,-300 790,-300 790,-294 796,-288 802,-288 802,-288 889,-288 889,-288 895,-288 901,-294 901,-300 901,-300 901,-312 901,-312 901,-318 895,-324 889,-324"/>
<text text-anchor="middle" x="845.5" y="-303.5" font-family="sans" font-size="10.00">alfa_concat_results</text>
</g>
<!-- 12&#45;&gt;3 -->
<g id="edge4" class="edge">
<title>12&#45;&gt;3</title>
<path fill="none" stroke="grey" stroke-width="2" d="M789.79,-297.31C698.8,-284.75 518.14,-259.8 415.13,-245.58"/>
<polygon fill="grey" stroke="grey" stroke-width="2" points="415.49,-242.1 405.11,-244.2 414.53,-249.03 415.49,-242.1"/>
</g>
<!-- 13 -->
<g id="node14" class="node">
<title>13</title>
<path fill="none" stroke="#d8a456" stroke-width="2" d="M446.5,-828C446.5,-828 318.5,-828 318.5,-828 312.5,-828 306.5,-822 306.5,-816 306.5,-816 306.5,-804 306.5,-804 306.5,-798 312.5,-792 318.5,-792 318.5,-792 446.5,-792 446.5,-792 452.5,-792 458.5,-798 458.5,-804 458.5,-804 458.5,-816 458.5,-816 458.5,-822 452.5,-828 446.5,-828"/>
<text text-anchor="middle" x="382.5" y="-807.5" font-family="sans" font-size="10.00">pe_remove_polya_cutadapt</text>
</g>
<!-- 13&#45;&gt;6 -->
<g id="edge14" class="edge">
<title>13&#45;&gt;6</title>
<path fill="none" stroke="grey" stroke-width="2" d="M312.17,-791.97C270.4,-781.85 217.28,-768.98 173.85,-758.46"/>
<polygon fill="grey" stroke="grey" stroke-width="2" points="174.44,-755 163.89,-756.05 172.79,-761.81 174.44,-755"/>
</g>
<!-- 17 -->
<g id="node18" class="node">
<title>17</title>
<path fill="none" stroke="#d86656" stroke-width="2" d="M523.5,-756C523.5,-756 405.5,-756 405.5,-756 399.5,-756 393.5,-750 393.5,-744 393.5,-744 393.5,-732 393.5,-732 393.5,-726 399.5,-720 405.5,-720 405.5,-720 523.5,-720 523.5,-720 529.5,-720 535.5,-726 535.5,-732 535.5,-732 535.5,-744 535.5,-744 535.5,-750 529.5,-756 523.5,-756"/>
<text text-anchor="middle" x="464.5" y="-735.5" font-family="sans" font-size="10.00">pe_quantification_salmon</text>
</g>
<!-- 13&#45;&gt;17 -->
<g id="edge31" class="edge">
<title>13&#45;&gt;17</title>
<path fill="none" stroke="grey" stroke-width="2" d="M402.77,-791.7C413,-782.97 425.56,-772.24 436.68,-762.75"/>
<polygon fill="grey" stroke="grey" stroke-width="2" points="439.13,-765.26 444.46,-756.1 434.59,-759.94 439.13,-765.26"/>
</g>
<!-- 19 -->
<g id="node20" class="node">
<title>19</title>
<path fill="none" stroke="#56d8a9" stroke-width="2" d="M981,-756C981,-756 880,-756 880,-756 874,-756 868,-750 868,-744 868,-744 868,-732 868,-732 868,-726 874,-720 880,-720 880,-720 981,-720 981,-720 987,-720 993,-726 993,-732 993,-732 993,-744 993,-744 993,-750 987,-756 981,-756"/>
<text text-anchor="middle" x="930.5" y="-735.5" font-family="sans" font-size="10.00">pe_map_genome_star</text>
</g>
<!-- 13&#45;&gt;19 -->
<g id="edge35" class="edge">
<title>13&#45;&gt;19</title>
<path fill="none" stroke="grey" stroke-width="2" d="M458.9,-793.41C461.8,-792.91 464.68,-792.44 467.5,-792 604.82,-770.45 766.37,-753.95 857.77,-745.43"/>
<polygon fill="grey" stroke="grey" stroke-width="2" points="858.11,-748.92 867.74,-744.51 857.46,-741.95 858.11,-748.92"/>
</g>
<!-- 14 -->
<g id="node15" class="node">
<title>14</title>
<path fill="none" stroke="#56d88a" stroke-width="2" d="M272,-828C272,-828 175,-828 175,-828 169,-828 163,-822 163,-816 163,-816 163,-804 163,-804 163,-798 169,-792 175,-792 175,-792 272,-792 272,-792 278,-792 284,-798 284,-804 284,-804 284,-816 284,-816 284,-822 278,-828 272,-828"/>
<text text-anchor="middle" x="223.5" y="-807.5" font-family="sans" font-size="10.00">create_index_kallisto</text>
</g>
<!-- 14&#45;&gt;6 -->
<g id="edge13" class="edge">
<title>14&#45;&gt;6</title>
<path fill="none" stroke="grey" stroke-width="2" d="M191.7,-791.88C174.39,-782.55 152.78,-770.92 134.24,-760.94"/>
<polygon fill="grey" stroke="grey" stroke-width="2" points="135.89,-757.85 125.42,-756.19 132.57,-764.01 135.89,-757.85"/>
</g>
<!-- 14&#45;&gt;7 -->
<g id="edge15" class="edge">
<title>14&#45;&gt;7</title>
<path fill="none" stroke="grey" stroke-width="2" d="M240.06,-791.7C248.18,-783.22 258.09,-772.86 266.97,-763.58"/>
<polygon fill="grey" stroke="grey" stroke-width="2" points="269.74,-765.75 274.13,-756.1 264.69,-760.91 269.74,-765.75"/>
</g>
<!-- 15 -->
<g id="node16" class="node">
<title>15</title>
<path fill="none" stroke="#d88556" stroke-width="2" d="M738.5,-828C738.5,-828 628.5,-828 628.5,-828 622.5,-828 616.5,-822 616.5,-816 616.5,-816 616.5,-804 616.5,-804 616.5,-798 622.5,-792 628.5,-792 628.5,-792 738.5,-792 738.5,-792 744.5,-792 750.5,-798 750.5,-804 750.5,-804 750.5,-816 750.5,-816 750.5,-822 744.5,-828 738.5,-828"/>
<text text-anchor="middle" x="683.5" y="-807.5" font-family="sans" font-size="10.00">remove_polya_cutadapt</text>
</g>
<!-- 15&#45;&gt;7 -->
<g id="edge16" class="edge">
<title>15&#45;&gt;7</title>
<path fill="none" stroke="grey" stroke-width="2" d="M616.35,-793.94C613.03,-793.27 609.73,-792.62 606.5,-792 511.49,-773.82 484.72,-772.93 385.68,-756.18"/>
<polygon fill="grey" stroke="grey" stroke-width="2" points="385.99,-752.68 375.54,-754.45 384.81,-759.58 385.99,-752.68"/>
</g>
<!-- 18 -->
<g id="node19" class="node">
<title>18</title>
<path fill="none" stroke="#d8c356" stroke-width="2" d="M667,-756C667,-756 566,-756 566,-756 560,-756 554,-750 554,-744 554,-744 554,-732 554,-732 554,-726 560,-720 566,-720 566,-720 667,-720 667,-720 673,-720 679,-726 679,-732 679,-732 679,-744 679,-744 679,-750 673,-756 667,-756"/>
<text text-anchor="middle" x="616.5" y="-735.5" font-family="sans" font-size="10.00">quantification_salmon</text>
</g>
<!-- 15&#45;&gt;18 -->
<g id="edge33" class="edge">
<title>15&#45;&gt;18</title>
<path fill="none" stroke="grey" stroke-width="2" d="M666.94,-791.7C658.82,-783.22 648.91,-772.86 640.03,-763.58"/>
<polygon fill="grey" stroke="grey" stroke-width="2" points="642.31,-760.91 632.87,-756.1 637.26,-765.75 642.31,-760.91"/>
</g>
<!-- 21 -->
<g id="node22" class="node">
<title>21</title>
<path fill="none" stroke="#56b1d8" stroke-width="2" d="M1106,-756C1106,-756 1023,-756 1023,-756 1017,-756 1011,-750 1011,-744 1011,-744 1011,-732 1011,-732 1011,-726 1017,-720 1023,-720 1023,-720 1106,-720 1106,-720 1112,-720 1118,-726 1118,-732 1118,-732 1118,-744 1118,-744 1118,-750 1112,-756 1106,-756"/>
<text text-anchor="middle" x="1064.5" y="-735.5" font-family="sans" font-size="10.00">map_genome_star</text>
</g>
<!-- 15&#45;&gt;21 -->
<g id="edge39" class="edge">
<title>15&#45;&gt;21</title>
<path fill="none" stroke="grey" stroke-width="2" d="M750.79,-799.88C813.33,-790.93 909.24,-776.03 1000.82,-756.26"/>
<polygon fill="grey" stroke="grey" stroke-width="2" points="1001.79,-759.63 1010.82,-754.08 1000.3,-752.8 1001.79,-759.63"/>
</g>
<!-- 16 -->
<g id="node17" class="node">
<title>16</title>
<path fill="none" stroke="#5692d8" stroke-width="2" d="M615,-540C615,-540 532,-540 532,-540 526,-540 520,-534 520,-528 520,-528 520,-516 520,-516 520,-510 526,-504 532,-504 532,-504 615,-504 615,-504 621,-504 627,-510 627,-516 627,-516 627,-528 627,-528 627,-534 621,-540 615,-540"/>
<text text-anchor="middle" x="573.5" y="-519.5" font-family="sans" font-size="10.00">merge_TIN_scores</text>
</g>
<!-- 16&#45;&gt;8 -->
<g id="edge17" class="edge">
<title>16&#45;&gt;8</title>
<path fill="none" stroke="grey" stroke-width="2" d="M570.36,-503.87C565.93,-479.67 557.79,-435.21 552.52,-406.39"/>
<polygon fill="grey" stroke="grey" stroke-width="2" points="555.89,-405.4 550.65,-396.19 549.01,-406.66 555.89,-405.4"/>
</g>
<!-- 17&#45;&gt;9 -->
<g id="edge18" class="edge">
<title>17&#45;&gt;9</title>
<path fill="none" stroke="grey" stroke-width="2" d="M433.68,-719.88C417.05,-710.64 396.34,-699.13 378.48,-689.21"/>
<polygon fill="grey" stroke="grey" stroke-width="2" points="379.88,-685.99 369.44,-684.19 376.48,-692.11 379.88,-685.99"/>
</g>
<!-- 17&#45;&gt;10 -->
<g id="edge20" class="edge">
<title>17&#45;&gt;10</title>
<path fill="none" stroke="grey" stroke-width="2" d="M478.1,-719.7C484.62,-711.39 492.57,-701.28 499.75,-692.14"/>
<polygon fill="grey" stroke="grey" stroke-width="2" points="502.63,-694.13 506.06,-684.1 497.13,-689.81 502.63,-694.13"/>
</g>
<!-- 18&#45;&gt;9 -->
<g id="edge19" class="edge">
<title>18&#45;&gt;9</title>
<path fill="none" stroke="grey" stroke-width="2" d="M553.76,-721.2C513.06,-710.95 459.71,-697.52 416.31,-686.59"/>
<polygon fill="grey" stroke="grey" stroke-width="2" points="416.91,-683.13 406.36,-684.09 415.2,-689.92 416.91,-683.13"/>
</g>
<!-- 18&#45;&gt;10 -->
<g id="edge21" class="edge">
<title>18&#45;&gt;10</title>
<path fill="none" stroke="grey" stroke-width="2" d="M592.52,-719.7C580.19,-710.8 564.98,-699.82 551.65,-690.2"/>
<polygon fill="grey" stroke="grey" stroke-width="2" points="553.36,-687.12 543.2,-684.1 549.26,-692.79 553.36,-687.12"/>
</g>
<!-- 19&#45;&gt;11 -->
<g id="edge22" class="edge">
<title>19&#45;&gt;11</title>
<path fill="none" stroke="grey" stroke-width="2" d="M993.06,-722.69C1013.3,-714.77 1033.59,-702.61 1045.5,-684 1054.13,-670.53 1052.81,-662.23 1045.5,-648 1037.92,-633.24 1024.11,-621.67 1010.45,-613.16"/>
<polygon fill="grey" stroke="grey" stroke-width="2" points="1011.97,-610 1001.57,-608.01 1008.46,-616.05 1011.97,-610"/>
</g>
<!-- 20 -->
<g id="node21" class="node">
<title>20</title>
<path fill="none" stroke="#d87556" stroke-width="2" d="M1024.5,-684C1024.5,-684 852.5,-684 852.5,-684 846.5,-684 840.5,-678 840.5,-672 840.5,-672 840.5,-660 840.5,-660 840.5,-654 846.5,-648 852.5,-648 852.5,-648 1024.5,-648 1024.5,-648 1030.5,-648 1036.5,-654 1036.5,-660 1036.5,-660 1036.5,-672 1036.5,-672 1036.5,-678 1030.5,-684 1024.5,-684"/>
<text text-anchor="middle" x="938.5" y="-663.5" font-family="sans" font-size="10.00">index_genomic_alignment_samtools</text>
</g>
<!-- 19&#45;&gt;20 -->
<g id="edge36" class="edge">
<title>19&#45;&gt;20</title>
<path fill="none" stroke="grey" stroke-width="2" d="M932.48,-719.7C933.36,-711.98 934.42,-702.71 935.4,-694.11"/>
<polygon fill="grey" stroke="grey" stroke-width="2" points="938.89,-694.44 936.55,-684.1 931.93,-693.64 938.89,-694.44"/>
</g>
<!-- 26 -->
<g id="node27" class="node">
<title>26</title>
<path fill="none" stroke="#8fd856" stroke-width="2" d="M860,-612C860,-612 765,-612 765,-612 759,-612 753,-606 753,-600 753,-600 753,-588 753,-588 753,-582 759,-576 765,-576 765,-576 860,-576 860,-576 866,-576 872,-582 872,-588 872,-588 872,-600 872,-600 872,-606 866,-612 860,-612"/>
<text text-anchor="middle" x="812.5" y="-591.5" font-family="sans" font-size="10.00">calculate_TIN_scores</text>
</g>
<!-- 19&#45;&gt;26 -->
<g id="edge42" class="edge">
<title>19&#45;&gt;26</title>
<path fill="none" stroke="grey" stroke-width="2" d="M879.36,-719.91C861.77,-711.65 843.51,-699.97 831.5,-684 818.18,-666.29 813.75,-641.27 812.47,-622.27"/>
<polygon fill="grey" stroke="grey" stroke-width="2" points="815.96,-621.99 812.04,-612.15 808.97,-622.28 815.96,-621.99"/>
</g>
<!-- 20&#45;&gt;11 -->
<g id="edge23" class="edge">
<title>20&#45;&gt;11</title>
<path fill="none" stroke="grey" stroke-width="2" d="M946.66,-647.7C950.41,-639.73 954.95,-630.1 959.12,-621.26"/>
<polygon fill="grey" stroke="grey" stroke-width="2" points="962.34,-622.64 963.44,-612.1 956.01,-619.66 962.34,-622.64"/>
</g>
<!-- 20&#45;&gt;26 -->
<g id="edge43" class="edge">
<title>20&#45;&gt;26</title>
<path fill="none" stroke="grey" stroke-width="2" d="M907.68,-647.88C891.05,-638.64 870.34,-627.13 852.48,-617.21"/>
<polygon fill="grey" stroke="grey" stroke-width="2" points="853.88,-613.99 843.44,-612.19 850.48,-620.11 853.88,-613.99"/>
</g>
<!-- 21&#45;&gt;11 -->
<g id="edge24" class="edge">
<title>21&#45;&gt;11</title>
<path fill="none" stroke="grey" stroke-width="2" d="M1068.51,-719.91C1071.98,-700.93 1074.61,-670.06 1061.5,-648 1050.33,-629.2 1029.7,-616.35 1011.01,-608.01"/>
<polygon fill="grey" stroke="grey" stroke-width="2" points="1012.34,-604.77 1001.76,-604.17 1009.65,-611.24 1012.34,-604.77"/>
</g>
<!-- 21&#45;&gt;20 -->
<g id="edge37" class="edge">
<title>21&#45;&gt;20</title>
<path fill="none" stroke="grey" stroke-width="2" d="M1033.68,-719.88C1017.05,-710.64 996.34,-699.13 978.48,-689.21"/>
<polygon fill="grey" stroke="grey" stroke-width="2" points="979.88,-685.99 969.44,-684.19 976.48,-692.11 979.88,-685.99"/>
</g>
<!-- 21&#45;&gt;26 -->
<g id="edge44" class="edge">
<title>21&#45;&gt;26</title>
<path fill="none" stroke="grey" stroke-width="2" d="M1065.91,-719.73C1066.53,-699.7 1064.25,-667.01 1045.5,-648 1033.9,-636.25 946.59,-618.61 882.24,-606.95"/>
<polygon fill="grey" stroke="grey" stroke-width="2" points="882.58,-603.46 872.12,-605.14 881.34,-610.35 882.58,-603.46"/>
</g>
<!-- 22 -->
<g id="node23" class="node">
<title>22</title>
<path fill="none" stroke="#9fd856" stroke-width="2" d="M971.5,-396C971.5,-396 879.5,-396 879.5,-396 873.5,-396 867.5,-390 867.5,-384 867.5,-384 867.5,-372 867.5,-372 867.5,-366 873.5,-360 879.5,-360 879.5,-360 971.5,-360 971.5,-360 977.5,-360 983.5,-366 983.5,-372 983.5,-372 983.5,-384 983.5,-384 983.5,-390 977.5,-396 971.5,-396"/>
<text text-anchor="middle" x="925.5" y="-375.5" font-family="sans" font-size="10.00">alfa_qc_all_samples</text>
</g>
<!-- 22&#45;&gt;12 -->
<g id="edge25" class="edge">
<title>22&#45;&gt;12</title>
<path fill="none" stroke="grey" stroke-width="2" d="M905.72,-359.7C895.75,-350.97 883.49,-340.24 872.64,-330.75"/>
<polygon fill="grey" stroke="grey" stroke-width="2" points="874.88,-328.06 865.05,-324.1 870.27,-333.32 874.88,-328.06"/>
</g>
<!-- 23 -->
<g id="node24" class="node">
<title>23</title>
<path fill="none" stroke="#d89556" stroke-width="2" d="M459,-900C459,-900 316,-900 316,-900 310,-900 304,-894 304,-888 304,-888 304,-876 304,-876 304,-870 310,-864 316,-864 316,-864 459,-864 459,-864 465,-864 471,-870 471,-876 471,-876 471,-888 471,-888 471,-894 465,-900 459,-900"/>
<text text-anchor="middle" x="387.5" y="-879.5" font-family="sans" font-size="10.00">pe_remove_adapters_cutadapt</text>
</g>
<!-- 23&#45;&gt;13 -->
<g id="edge26" class="edge">
<title>23&#45;&gt;13</title>
<path fill="none" stroke="grey" stroke-width="2" d="M386.26,-863.7C385.71,-855.98 385.05,-846.71 384.44,-838.11"/>
<polygon fill="grey" stroke="grey" stroke-width="2" points="387.93,-837.83 383.72,-828.1 380.94,-838.33 387.93,-837.83"/>
</g>
<!-- 24 -->
<g id="node25" class="node">
<title>24</title>
<path fill="none" stroke="#5663d8" stroke-width="2" d="M274,-900C274,-900 173,-900 173,-900 167,-900 161,-894 161,-888 161,-888 161,-876 161,-876 161,-870 167,-864 173,-864 173,-864 274,-864 274,-864 280,-864 286,-870 286,-876 286,-876 286,-888 286,-888 286,-894 280,-900 274,-900"/>
<text text-anchor="middle" x="223.5" y="-879.5" font-family="sans" font-size="10.00">extract_transcriptome</text>
</g>
<!-- 24&#45;&gt;14 -->
<g id="edge27" class="edge">
<title>24&#45;&gt;14</title>
<path fill="none" stroke="grey" stroke-width="2" d="M223.5,-863.7C223.5,-855.98 223.5,-846.71 223.5,-838.11"/>
<polygon fill="grey" stroke="grey" stroke-width="2" points="227,-838.1 223.5,-828.1 220,-838.1 227,-838.1"/>
</g>
<!-- 27 -->
<g id="node28" class="node">
<title>27</title>
<path fill="none" stroke="#d85656" stroke-width="2" d="M586,-828C586,-828 489,-828 489,-828 483,-828 477,-822 477,-816 477,-816 477,-804 477,-804 477,-798 483,-792 489,-792 489,-792 586,-792 586,-792 592,-792 598,-798 598,-804 598,-804 598,-816 598,-816 598,-822 592,-828 586,-828"/>
<text text-anchor="middle" x="537.5" y="-807.5" font-family="sans" font-size="10.00">create_index_salmon</text>
</g>
<!-- 24&#45;&gt;27 -->
<g id="edge45" class="edge">
<title>24&#45;&gt;27</title>
<path fill="none" stroke="grey" stroke-width="2" d="M286.2,-865.88C289,-865.24 291.78,-864.61 294.5,-864 368.15,-847.52 389.26,-845.42 467.05,-828.06"/>
<polygon fill="grey" stroke="grey" stroke-width="2" points="467.83,-831.47 476.82,-825.87 466.3,-824.64 467.83,-831.47"/>
</g>
<!-- 25 -->
<g id="node26" class="node">
<title>25</title>
<path fill="none" stroke="#56a2d8" stroke-width="2" d="M746.5,-900C746.5,-900 620.5,-900 620.5,-900 614.5,-900 608.5,-894 608.5,-888 608.5,-888 608.5,-876 608.5,-876 608.5,-870 614.5,-864 620.5,-864 620.5,-864 746.5,-864 746.5,-864 752.5,-864 758.5,-870 758.5,-876 758.5,-876 758.5,-888 758.5,-888 758.5,-894 752.5,-900 746.5,-900"/>
<text text-anchor="middle" x="683.5" y="-879.5" font-family="sans" font-size="10.00">remove_adapters_cutadapt</text>
</g>
<!-- 25&#45;&gt;15 -->
<g id="edge28" class="edge">
<title>25&#45;&gt;15</title>
<path fill="none" stroke="grey" stroke-width="2" d="M683.5,-863.7C683.5,-855.98 683.5,-846.71 683.5,-838.11"/>
<polygon fill="grey" stroke="grey" stroke-width="2" points="687,-838.1 683.5,-828.1 680,-838.1 687,-838.1"/>
</g>
<!-- 26&#45;&gt;16 -->
<g id="edge29" class="edge">
<title>26&#45;&gt;16</title>
<path fill="none" stroke="grey" stroke-width="2" d="M754.34,-575.97C718.85,-565.57 673.46,-552.28 637.03,-541.61"/>
<polygon fill="grey" stroke="grey" stroke-width="2" points="637.59,-538.12 627.01,-538.67 635.62,-544.84 637.59,-538.12"/>
</g>
<!-- 27&#45;&gt;17 -->
<g id="edge30" class="edge">
<title>27&#45;&gt;17</title>
<path fill="none" stroke="grey" stroke-width="2" d="M519.46,-791.7C510.44,-783.05 499.38,-772.45 489.56,-763.03"/>
<polygon fill="grey" stroke="grey" stroke-width="2" points="491.98,-760.5 482.34,-756.1 487.13,-765.55 491.98,-760.5"/>
</g>
<!-- 27&#45;&gt;18 -->
<g id="edge32" class="edge">
<title>27&#45;&gt;18</title>
<path fill="none" stroke="grey" stroke-width="2" d="M557.03,-791.7C566.88,-782.97 578.99,-772.24 589.7,-762.75"/>
<polygon fill="grey" stroke="grey" stroke-width="2" points="592.03,-765.36 597.2,-756.1 587.39,-760.12 592.03,-765.36"/>
</g>
<!-- 28 -->
<g id="node29" class="node">
<title>28</title>
<path fill="none" stroke="#61d856" stroke-width="2" d="M1104.5,-828C1104.5,-828 1024.5,-828 1024.5,-828 1018.5,-828 1012.5,-822 1012.5,-816 1012.5,-816 1012.5,-804 1012.5,-804 1012.5,-798 1018.5,-792 1024.5,-792 1024.5,-792 1104.5,-792 1104.5,-792 1110.5,-792 1116.5,-798 1116.5,-804 1116.5,-804 1116.5,-816 1116.5,-816 1116.5,-822 1110.5,-828 1104.5,-828"/>
<text text-anchor="middle" x="1064.5" y="-807.5" font-family="sans" font-size="10.00">create_index_star</text>
</g>
<!-- 28&#45;&gt;19 -->
<g id="edge34" class="edge">
<title>28&#45;&gt;19</title>
<path fill="none" stroke="grey" stroke-width="2" d="M1031.72,-791.88C1013.87,-782.55 991.6,-770.92 972.5,-760.94"/>
<polygon fill="grey" stroke="grey" stroke-width="2" points="973.89,-757.72 963.41,-756.19 970.65,-763.92 973.89,-757.72"/>
</g>
<!-- 28&#45;&gt;21 -->
<g id="edge38" class="edge">
<title>28&#45;&gt;21</title>
<path fill="none" stroke="grey" stroke-width="2" d="M1064.5,-791.7C1064.5,-783.98 1064.5,-774.71 1064.5,-766.11"/>
<polygon fill="grey" stroke="grey" stroke-width="2" points="1068,-766.1 1064.5,-756.1 1061,-766.1 1068,-766.1"/>
</g>
<!-- 32 -->
<g id="node33" class="node">
<title>32</title>
<path fill="none" stroke="#80d856" stroke-width="2" d="M1190.5,-612C1190.5,-612 1098.5,-612 1098.5,-612 1092.5,-612 1086.5,-606 1086.5,-600 1086.5,-600 1086.5,-588 1086.5,-588 1086.5,-582 1092.5,-576 1098.5,-576 1098.5,-576 1190.5,-576 1190.5,-576 1196.5,-576 1202.5,-582 1202.5,-588 1202.5,-588 1202.5,-600 1202.5,-600 1202.5,-606 1196.5,-612 1190.5,-612"/>
<text text-anchor="middle" x="1144.5" y="-591.5" font-family="sans" font-size="10.00">generate_alfa_index</text>
</g>
<!-- 28&#45;&gt;32 -->
<g id="edge49" class="edge">
<title>28&#45;&gt;32</title>
<path fill="none" stroke="grey" stroke-width="2" d="M1093.44,-791.92C1106.06,-782.9 1119.72,-770.64 1127.5,-756 1150.11,-713.44 1150.06,-655.68 1147.56,-622.16"/>
<polygon fill="grey" stroke="grey" stroke-width="2" points="1151.05,-621.84 1146.69,-612.18 1144.07,-622.45 1151.05,-621.84"/>
</g>
<!-- 29 -->
<g id="node30" class="node">
<title>29</title>
<path fill="none" stroke="#56c1d8" stroke-width="2" d="M986.5,-468C986.5,-468 956.5,-468 956.5,-468 950.5,-468 944.5,-462 944.5,-456 944.5,-456 944.5,-444 944.5,-444 944.5,-438 950.5,-432 956.5,-432 956.5,-432 986.5,-432 986.5,-432 992.5,-432 998.5,-438 998.5,-444 998.5,-444 998.5,-456 998.5,-456 998.5,-462 992.5,-468 986.5,-468"/>
<text text-anchor="middle" x="971.5" y="-447.5" font-family="sans" font-size="10.00">alfa_qc</text>
</g>
<!-- 29&#45;&gt;22 -->
<g id="edge40" class="edge">
<title>29&#45;&gt;22</title>
<path fill="none" stroke="grey" stroke-width="2" d="M960.13,-431.7C954.78,-423.56 948.3,-413.69 942.39,-404.7"/>
<polygon fill="grey" stroke="grey" stroke-width="2" points="945.16,-402.54 936.74,-396.1 939.31,-406.38 945.16,-402.54"/>
</g>
<!-- 30 -->
<g id="node31" class="node">
<title>30</title>
<path fill="none" stroke="#5682d8" stroke-width="2" d="M772.5,-684C772.5,-684 636.5,-684 636.5,-684 630.5,-684 624.5,-678 624.5,-672 624.5,-672 624.5,-660 624.5,-660 624.5,-654 630.5,-648 636.5,-648 636.5,-648 772.5,-648 772.5,-648 778.5,-648 784.5,-654 784.5,-660 784.5,-660 784.5,-672 784.5,-672 784.5,-678 778.5,-684 772.5,-684"/>
<text text-anchor="middle" x="704.5" y="-663.5" font-family="sans" font-size="10.00">extract_transcripts_as_bed12</text>
</g>
<!-- 30&#45;&gt;26 -->
<g id="edge41" class="edge">
<title>30&#45;&gt;26</title>
<path fill="none" stroke="grey" stroke-width="2" d="M730.92,-647.88C744.91,-638.81 762.28,-627.55 777.39,-617.76"/>
<polygon fill="grey" stroke="grey" stroke-width="2" points="779.49,-620.57 785.98,-612.19 775.68,-614.69 779.49,-620.57"/>
</g>
<!-- 31&#45;&gt;29 -->
<g id="edge47" class="edge">
<title>31&#45;&gt;29</title>
<path fill="none" stroke="grey" stroke-width="2" d="M971.5,-503.7C971.5,-495.98 971.5,-486.71 971.5,-478.11"/>
<polygon fill="grey" stroke="grey" stroke-width="2" points="975,-478.1 971.5,-468.1 968,-478.1 975,-478.1"/>
</g>
<!-- 32&#45;&gt;29 -->
<g id="edge46" class="edge">
<title>32&#45;&gt;29</title>
<path fill="none" stroke="grey" stroke-width="2" d="M1128.98,-575.88C1111.56,-557.15 1081.99,-526.76 1053.5,-504 1039.13,-492.52 1022.22,-481.25 1007.49,-472.08"/>
<polygon fill="grey" stroke="grey" stroke-width="2" points="1009,-468.9 998.65,-466.66 1005.34,-474.87 1009,-468.9"/>
</g>
</g>
</svg>
