<?xml version="1.0" encoding="UTF-8" standalone="no"?>
<!DOCTYPE svg PUBLIC "-//W3C//DTD SVG 1.1//EN"
 "http://www.w3.org/Graphics/SVG/1.1/DTD/svg11.dtd">
<!-- Generated by graphviz version 2.38.0 (20140413.2041)
 -->
<!-- Title: snakemake_dag Pages: 1 -->
<svg width="1074pt" height="620pt"
 viewBox="0.00 0.00 1074.00 620.00" xmlns="http://www.w3.org/2000/svg" xmlns:xlink="http://www.w3.org/1999/xlink">
<g id="graph0" class="graph" transform="scale(1 1) rotate(0) translate(4 616)">
<title>snakemake_dag</title>
<polygon fill="white" stroke="none" points="-4,4 -4,-616 1070,-616 1070,4 -4,4"/>
<!-- 0 -->
<g id="node1" class="node"><title>0</title>
<path fill="none" stroke="#d85656" stroke-width="2" d="M339,-36C339,-36 309,-36 309,-36 303,-36 297,-30 297,-24 297,-24 297,-12 297,-12 297,-6 303,-0 309,-0 309,-0 339,-0 339,-0 345,-0 351,-6 351,-12 351,-12 351,-24 351,-24 351,-30 345,-36 339,-36"/>
<text text-anchor="middle" x="324" y="-15.5" font-family="sans" font-size="10.00">finish</text>
</g>
<!-- 1 -->
<g id="node2" class="node"><title>1</title>
<path fill="none" stroke="#56d882" stroke-width="2" d="M56.5,-108C56.5,-108 21.5,-108 21.5,-108 15.5,-108 9.5,-102 9.5,-96 9.5,-96 9.5,-84 9.5,-84 9.5,-78 15.5,-72 21.5,-72 21.5,-72 56.5,-72 56.5,-72 62.5,-72 68.5,-78 68.5,-84 68.5,-84 68.5,-96 68.5,-96 68.5,-102 62.5,-108 56.5,-108"/>
<text text-anchor="middle" x="39" y="-87.5" font-family="sans" font-size="10.00">pe_fastqc</text>
</g>
<!-- 1&#45;&gt;0 -->
<g id="edge3" class="edge"><title>1&#45;&gt;0</title>
<path fill="none" stroke="grey" stroke-width="2" d="M68.5755,-75.3841C71.7245,-74.1526 74.9066,-72.9965 78,-72 150.446,-48.6629 238.217,-32.5434 286.903,-24.626"/>
<polygon fill="grey" stroke="grey" stroke-width="2" points="287.646,-28.0518 296.968,-23.016 286.54,-21.1396 287.646,-28.0518"/>
</g>
<!-- 2 -->
<g id="node3" class="node"><title>2</title>
<path fill="none" stroke="#d87d56" stroke-width="2" d="M129,-108C129,-108 99,-108 99,-108 93,-108 87,-102 87,-96 87,-96 87,-84 87,-84 87,-78 93,-72 99,-72 99,-72 129,-72 129,-72 135,-72 141,-78 141,-84 141,-84 141,-96 141,-96 141,-102 135,-108 129,-108"/>
<text text-anchor="middle" x="114" y="-87.5" font-family="sans" font-size="10.00">fastqc</text>
</g>
<!-- 2&#45;&gt;0 -->
<g id="edge4" class="edge"><title>2&#45;&gt;0</title>
<path fill="none" stroke="grey" stroke-width="2" d="M141.214,-77.319C145.789,-75.4697 150.51,-73.6314 155,-72 199.981,-55.6584 252.733,-39.5974 287.182,-29.5158"/>
<polygon fill="grey" stroke="grey" stroke-width="2" points="288.199,-32.865 296.823,-26.7106 286.244,-26.1437 288.199,-32.865"/>
</g>
<!-- 3 -->
<g id="node4" class="node"><title>3</title>
<path fill="none" stroke="#56d8b9" stroke-width="2" d="M154,-468C154,-468 12,-468 12,-468 6,-468 0,-462 0,-456 0,-456 0,-444 0,-444 0,-438 6,-432 12,-432 12,-432 154,-432 154,-432 160,-432 166,-438 166,-444 166,-444 166,-456 166,-456 166,-462 160,-468 154,-468"/>
<text text-anchor="middle" x="83" y="-447.5" font-family="sans" font-size="10.00">pe_genome_quantification_kallisto</text>
</g>
<!-- 3&#45;&gt;0 -->
<g id="edge8" class="edge"><title>3&#45;&gt;0</title>
<path fill="none" stroke="grey" stroke-width="2" d="M102.086,-431.773C127.422,-406.914 169,-358.302 169,-307 169,-307 169,-307 169,-161 169,-115.41 186.982,-103.437 220,-72 239.091,-53.8231 265.632,-40.4345 287.123,-31.6611"/>
<polygon fill="grey" stroke="grey" stroke-width="2" points="288.56,-34.8574 296.597,-27.9542 286.01,-28.3386 288.56,-34.8574"/>
</g>
<!-- 4 -->
<g id="node5" class="node"><title>4</title>
<path fill="none" stroke="#568ad8" stroke-width="2" d="M322,-468C322,-468 196,-468 196,-468 190,-468 184,-462 184,-456 184,-456 184,-444 184,-444 184,-438 190,-432 196,-432 196,-432 322,-432 322,-432 328,-432 334,-438 334,-444 334,-444 334,-456 334,-456 334,-462 328,-468 322,-468"/>
<text text-anchor="middle" x="259" y="-447.5" font-family="sans" font-size="10.00">genome_quantification_kallisto</text>
</g>
<!-- 4&#45;&gt;0 -->
<g id="edge6" class="edge"><title>4&#45;&gt;0</title>
<path fill="none" stroke="grey" stroke-width="2" d="M246.068,-431.677C239.186,-421.702 231.112,-408.665 226,-396 210.862,-358.493 207,-347.447 207,-307 207,-307 207,-307 207,-161 207,-109.172 253.998,-66.0006 288.42,-41.3312"/>
<polygon fill="grey" stroke="grey" stroke-width="2" points="290.649,-44.0444 296.864,-35.4639 286.654,-38.2958 290.649,-44.0444"/>
</g>
<!-- 5 -->
<g id="node6" class="node"><title>5</title>
<path fill="none" stroke="#567bd8" stroke-width="2" d="M510.5,-180C510.5,-180 445.5,-180 445.5,-180 439.5,-180 433.5,-174 433.5,-168 433.5,-168 433.5,-156 433.5,-156 433.5,-150 439.5,-144 445.5,-144 445.5,-144 510.5,-144 510.5,-144 516.5,-144 522.5,-150 522.5,-156 522.5,-156 522.5,-168 522.5,-168 522.5,-174 516.5,-180 510.5,-180"/>
<text text-anchor="middle" x="478" y="-159.5" font-family="sans" font-size="10.00">plot_TIN_scores</text>
</g>
<!-- 5&#45;&gt;0 -->
<g id="edge9" class="edge"><title>5&#45;&gt;0</title>
<path fill="none" stroke="grey" stroke-width="2" d="M459.424,-143.871C432.137,-118.711 381.103,-71.6535 350.073,-43.0415"/>
<polygon fill="grey" stroke="grey" stroke-width="2" points="352.366,-40.395 342.642,-36.1893 347.621,-45.5412 352.366,-40.395"/>
</g>
<!-- 6 -->
<g id="node7" class="node"><title>6</title>
<path fill="none" stroke="#56d8a9" stroke-width="2" d="M359,-396C359,-396 247,-396 247,-396 241,-396 235,-390 235,-384 235,-384 235,-372 235,-372 235,-366 241,-360 247,-360 247,-360 359,-360 359,-360 365,-360 371,-366 371,-372 371,-372 371,-384 371,-384 371,-390 365,-396 359,-396"/>
<text text-anchor="middle" x="303" y="-375.5" font-family="sans" font-size="10.00">salmon_quantmerge_genes</text>
</g>
<!-- 6&#45;&gt;0 -->
<g id="edge7" class="edge"><title>6&#45;&gt;0</title>
<path fill="none" stroke="grey" stroke-width="2" d="M303.198,-359.951C303.489,-333.292 304,-280.116 304,-235 304,-235 304,-235 304,-161 304,-120.822 311.948,-74.8689 317.823,-46.3889"/>
<polygon fill="grey" stroke="grey" stroke-width="2" points="321.296,-46.887 319.953,-36.3777 314.449,-45.4307 321.296,-46.887"/>
</g>
<!-- 7 -->
<g id="node8" class="node"><title>7</title>
<path fill="none" stroke="#61d856" stroke-width="2" d="M532.5,-396C532.5,-396 401.5,-396 401.5,-396 395.5,-396 389.5,-390 389.5,-384 389.5,-384 389.5,-372 389.5,-372 389.5,-366 395.5,-360 401.5,-360 401.5,-360 532.5,-360 532.5,-360 538.5,-360 544.5,-366 544.5,-372 544.5,-372 544.5,-384 544.5,-384 544.5,-390 538.5,-396 532.5,-396"/>
<text text-anchor="middle" x="467" y="-375.5" font-family="sans" font-size="10.00">salmon_quantmerge_transcripts</text>
</g>
<!-- 7&#45;&gt;0 -->
<g id="edge1" class="edge"><title>7&#45;&gt;0</title>
<path fill="none" stroke="grey" stroke-width="2" d="M436.911,-359.894C400.497,-336.696 344,-291.588 344,-235 344,-235 344,-235 344,-161 344,-120.822 336.052,-74.8689 330.177,-46.3889"/>
<polygon fill="grey" stroke="grey" stroke-width="2" points="333.551,-45.4307 328.047,-36.3777 326.704,-46.887 333.551,-45.4307"/>
</g>
<!-- 8 -->
<g id="node9" class="node"><title>8</title>
<path fill="none" stroke="#566bd8" stroke-width="2" d="M866.5,-324C866.5,-324 835.5,-324 835.5,-324 829.5,-324 823.5,-318 823.5,-312 823.5,-312 823.5,-300 823.5,-300 823.5,-294 829.5,-288 835.5,-288 835.5,-288 866.5,-288 866.5,-288 872.5,-288 878.5,-294 878.5,-300 878.5,-300 878.5,-312 878.5,-312 878.5,-318 872.5,-324 866.5,-324"/>
<text text-anchor="middle" x="851" y="-303.5" font-family="sans" font-size="10.00">star_rpm</text>
</g>
<!-- 8&#45;&gt;0 -->
<g id="edge10" class="edge"><title>8&#45;&gt;0</title>
<path fill="none" stroke="grey" stroke-width="2" d="M823.408,-290.026C735.084,-242.093 459.299,-92.4259 360.045,-38.5615"/>
<polygon fill="grey" stroke="grey" stroke-width="2" points="361.462,-35.3482 351.003,-33.6545 358.123,-41.5006 361.462,-35.3482"/>
</g>
<!-- 20 -->
<g id="node21" class="node"><title>20</title>
<path fill="none" stroke="#56d873" stroke-width="2" d="M903,-252C903,-252 797,-252 797,-252 791,-252 785,-246 785,-240 785,-240 785,-228 785,-228 785,-222 791,-216 797,-216 797,-216 903,-216 903,-216 909,-216 915,-222 915,-228 915,-228 915,-240 915,-240 915,-246 909,-252 903,-252"/>
<text text-anchor="middle" x="850" y="-231.5" font-family="sans" font-size="10.00">rename_star_rpm_for_alfa</text>
</g>
<!-- 8&#45;&gt;20 -->
<g id="edge40" class="edge"><title>8&#45;&gt;20</title>
<path fill="none" stroke="grey" stroke-width="2" d="M850.753,-287.697C850.643,-279.983 850.51,-270.712 850.387,-262.112"/>
<polygon fill="grey" stroke="grey" stroke-width="2" points="853.887,-262.053 850.244,-252.104 846.888,-262.153 853.887,-262.053"/>
</g>
<!-- 9 -->
<g id="node10" class="node"><title>9</title>
<path fill="none" stroke="#d8ac56" stroke-width="2" d="M850,-180C850,-180 820,-180 820,-180 814,-180 808,-174 808,-168 808,-168 808,-156 808,-156 808,-150 814,-144 820,-144 820,-144 850,-144 850,-144 856,-144 862,-150 862,-156 862,-156 862,-168 862,-168 862,-174 856,-180 850,-180"/>
<text text-anchor="middle" x="835" y="-159.5" font-family="sans" font-size="10.00">alfa_qc</text>
</g>
<!-- 9&#45;&gt;0 -->
<g id="edge5" class="edge"><title>9&#45;&gt;0</title>
<path fill="none" stroke="grey" stroke-width="2" d="M807.667,-145.655C789.461,-135.295 765.097,-121.159 744,-108 719.526,-92.7346 716.935,-82.3204 690,-72 575.896,-28.28 429.165,-20.273 361.382,-19.0424"/>
<polygon fill="grey" stroke="grey" stroke-width="2" points="361.247,-15.5402 351.199,-18.8986 361.148,-22.5395 361.247,-15.5402"/>
</g>
<!-- 10 -->
<g id="node11" class="node"><title>10</title>
<path fill="none" stroke="#56c1d8" stroke-width="2" d="M846.5,-108C846.5,-108 765.5,-108 765.5,-108 759.5,-108 753.5,-102 753.5,-96 753.5,-96 753.5,-84 753.5,-84 753.5,-78 759.5,-72 765.5,-72 765.5,-72 846.5,-72 846.5,-72 852.5,-72 858.5,-78 858.5,-84 858.5,-84 858.5,-96 858.5,-96 858.5,-102 852.5,-108 846.5,-108"/>
<text text-anchor="middle" x="806" y="-87.5" font-family="sans" font-size="10.00">alfa_qc_all_samples</text>
</g>
<!-- 9&#45;&gt;10 -->
<g id="edge25" class="edge"><title>9&#45;&gt;10</title>
<path fill="none" stroke="grey" stroke-width="2" d="M827.831,-143.697C824.565,-135.813 820.626,-126.304 816.998,-117.546"/>
<polygon fill="grey" stroke="grey" stroke-width="2" points="820.147,-116.003 813.086,-108.104 813.68,-118.683 820.147,-116.003"/>
</g>
<!-- 10&#45;&gt;0 -->
<g id="edge2" class="edge"><title>10&#45;&gt;0</title>
<path fill="none" stroke="grey" stroke-width="2" d="M753.403,-75.7453C747.22,-74.3834 740.984,-73.0989 735,-72 598.087,-46.8556 433.355,-29.4441 361.065,-22.4398"/>
<polygon fill="grey" stroke="grey" stroke-width="2" points="361.372,-18.9533 351.084,-21.4822 360.704,-25.9213 361.372,-18.9533"/>
</g>
<!-- 11 -->
<g id="node12" class="node"><title>11</title>
<path fill="none" stroke="#a7d856" stroke-width="2" d="M395,-540C395,-540 283,-540 283,-540 277,-540 271,-534 271,-528 271,-528 271,-516 271,-516 271,-510 277,-504 283,-504 283,-504 395,-504 395,-504 401,-504 407,-510 407,-516 407,-516 407,-528 407,-528 407,-534 401,-540 395,-540"/>
<text text-anchor="middle" x="339" y="-519.5" font-family="sans" font-size="10.00">pe_remove_polya_cutadapt</text>
</g>
<!-- 11&#45;&gt;3 -->
<g id="edge11" class="edge"><title>11&#45;&gt;3</title>
<path fill="none" stroke="grey" stroke-width="2" d="M276.703,-503.966C240.156,-493.972 193.806,-481.298 155.609,-470.854"/>
<polygon fill="grey" stroke="grey" stroke-width="2" points="156.146,-467.372 145.577,-468.111 154.299,-474.124 156.146,-467.372"/>
</g>
<!-- 15 -->
<g id="node16" class="node"><title>15</title>
<path fill="none" stroke="#d89c56" stroke-width="2" d="M467.5,-468C467.5,-468 364.5,-468 364.5,-468 358.5,-468 352.5,-462 352.5,-456 352.5,-456 352.5,-444 352.5,-444 352.5,-438 358.5,-432 364.5,-432 364.5,-432 467.5,-432 467.5,-432 473.5,-432 479.5,-438 479.5,-444 479.5,-444 479.5,-456 479.5,-456 479.5,-462 473.5,-468 467.5,-468"/>
<text text-anchor="middle" x="416" y="-447.5" font-family="sans" font-size="10.00">pe_quantification_salmon</text>
</g>
<!-- 11&#45;&gt;15 -->
<g id="edge31" class="edge"><title>11&#45;&gt;15</title>
<path fill="none" stroke="grey" stroke-width="2" d="M358.034,-503.697C367.545,-495.05 379.207,-484.449 389.57,-475.027"/>
<polygon fill="grey" stroke="grey" stroke-width="2" points="392.14,-477.421 397.185,-468.104 387.431,-472.241 392.14,-477.421"/>
</g>
<!-- 17 -->
<g id="node18" class="node"><title>17</title>
<path fill="none" stroke="#70d856" stroke-width="2" d="M887.5,-468C887.5,-468 798.5,-468 798.5,-468 792.5,-468 786.5,-462 786.5,-456 786.5,-456 786.5,-444 786.5,-444 786.5,-438 792.5,-432 798.5,-432 798.5,-432 887.5,-432 887.5,-432 893.5,-432 899.5,-438 899.5,-444 899.5,-444 899.5,-456 899.5,-456 899.5,-462 893.5,-468 887.5,-468"/>
<text text-anchor="middle" x="843" y="-447.5" font-family="sans" font-size="10.00">pe_map_genome_star</text>
</g>
<!-- 11&#45;&gt;17 -->
<g id="edge35" class="edge"><title>11&#45;&gt;17</title>
<path fill="none" stroke="grey" stroke-width="2" d="M407.368,-505.557C410.28,-505.009 413.167,-504.487 416,-504 542.678,-482.204 691.979,-465.763 776.257,-457.326"/>
<polygon fill="grey" stroke="grey" stroke-width="2" points="776.852,-460.784 786.456,-456.312 776.159,-453.819 776.852,-460.784"/>
</g>
<!-- 12 -->
<g id="node13" class="node"><title>12</title>
<path fill="none" stroke="#56b1d8" stroke-width="2" d="M237,-540C237,-540 153,-540 153,-540 147,-540 141,-534 141,-528 141,-528 141,-516 141,-516 141,-510 147,-504 153,-504 153,-504 237,-504 237,-504 243,-504 249,-510 249,-516 249,-516 249,-528 249,-528 249,-534 243,-540 237,-540"/>
<text text-anchor="middle" x="195" y="-519.5" font-family="sans" font-size="10.00">create_index_kallisto</text>
</g>
<!-- 12&#45;&gt;3 -->
<g id="edge12" class="edge"><title>12&#45;&gt;3</title>
<path fill="none" stroke="grey" stroke-width="2" d="M167.602,-503.876C153.093,-494.808 135.084,-483.552 119.415,-473.759"/>
<polygon fill="grey" stroke="grey" stroke-width="2" points="120.839,-470.522 110.504,-468.19 117.129,-476.458 120.839,-470.522"/>
</g>
<!-- 12&#45;&gt;4 -->
<g id="edge14" class="edge"><title>12&#45;&gt;4</title>
<path fill="none" stroke="grey" stroke-width="2" d="M210.82,-503.697C218.57,-495.22 228.039,-484.864 236.524,-475.583"/>
<polygon fill="grey" stroke="grey" stroke-width="2" points="239.197,-477.846 243.362,-468.104 234.031,-473.123 239.197,-477.846"/>
</g>
<!-- 13 -->
<g id="node14" class="node"><title>13</title>
<path fill="none" stroke="#d8d356" stroke-width="2" d="M661,-540C661,-540 565,-540 565,-540 559,-540 553,-534 553,-528 553,-528 553,-516 553,-516 553,-510 559,-504 565,-504 565,-504 661,-504 661,-504 667,-504 673,-510 673,-516 673,-516 673,-528 673,-528 673,-534 667,-540 661,-540"/>
<text text-anchor="middle" x="613" y="-519.5" font-family="sans" font-size="10.00">remove_polya_cutadapt</text>
</g>
<!-- 13&#45;&gt;4 -->
<g id="edge13" class="edge"><title>13&#45;&gt;4</title>
<path fill="none" stroke="grey" stroke-width="2" d="M552.723,-506.118C549.439,-505.383 546.181,-504.672 543,-504 457.739,-485.99 433.404,-485.008 344.115,-468.184"/>
<polygon fill="grey" stroke="grey" stroke-width="2" points="344.567,-464.707 334.09,-466.28 343.261,-471.585 344.567,-464.707"/>
</g>
<!-- 16 -->
<g id="node17" class="node"><title>16</title>
<path fill="none" stroke="#56d8c9" stroke-width="2" d="M596.5,-468C596.5,-468 509.5,-468 509.5,-468 503.5,-468 497.5,-462 497.5,-456 497.5,-456 497.5,-444 497.5,-444 497.5,-438 503.5,-432 509.5,-432 509.5,-432 596.5,-432 596.5,-432 602.5,-432 608.5,-438 608.5,-444 608.5,-444 608.5,-456 608.5,-456 608.5,-462 602.5,-468 596.5,-468"/>
<text text-anchor="middle" x="553" y="-447.5" font-family="sans" font-size="10.00">quantification_salmon</text>
</g>
<!-- 13&#45;&gt;16 -->
<g id="edge33" class="edge"><title>13&#45;&gt;16</title>
<path fill="none" stroke="grey" stroke-width="2" d="M598.169,-503.697C590.975,-495.305 582.203,-485.07 574.31,-475.861"/>
<polygon fill="grey" stroke="grey" stroke-width="2" points="576.826,-473.419 567.661,-468.104 571.511,-477.975 576.826,-473.419"/>
</g>
<!-- 19 -->
<g id="node20" class="node"><title>19</title>
<path fill="none" stroke="#56d892" stroke-width="2" d="M1002.5,-468C1002.5,-468 929.5,-468 929.5,-468 923.5,-468 917.5,-462 917.5,-456 917.5,-456 917.5,-444 917.5,-444 917.5,-438 923.5,-432 929.5,-432 929.5,-432 1002.5,-432 1002.5,-432 1008.5,-432 1014.5,-438 1014.5,-444 1014.5,-444 1014.5,-456 1014.5,-456 1014.5,-462 1008.5,-468 1002.5,-468"/>
<text text-anchor="middle" x="966" y="-447.5" font-family="sans" font-size="10.00">map_genome_star</text>
</g>
<!-- 13&#45;&gt;19 -->
<g id="edge39" class="edge"><title>13&#45;&gt;19</title>
<path fill="none" stroke="grey" stroke-width="2" d="M673.279,-512.113C731.011,-503.162 820.701,-488.115 907.607,-467.955"/>
<polygon fill="grey" stroke="grey" stroke-width="2" points="908.43,-471.357 917.367,-465.666 906.832,-464.542 908.43,-471.357"/>
</g>
<!-- 14 -->
<g id="node15" class="node"><title>14</title>
<path fill="none" stroke="#97d856" stroke-width="2" d="M577,-252C577,-252 501,-252 501,-252 495,-252 489,-246 489,-240 489,-240 489,-228 489,-228 489,-222 495,-216 501,-216 501,-216 577,-216 577,-216 583,-216 589,-222 589,-228 589,-228 589,-240 589,-240 589,-246 583,-252 577,-252"/>
<text text-anchor="middle" x="539" y="-231.5" font-family="sans" font-size="10.00">merge_TIN_scores</text>
</g>
<!-- 14&#45;&gt;5 -->
<g id="edge15" class="edge"><title>14&#45;&gt;5</title>
<path fill="none" stroke="grey" stroke-width="2" d="M523.921,-215.697C516.608,-207.305 507.69,-197.07 499.665,-187.861"/>
<polygon fill="grey" stroke="grey" stroke-width="2" points="502.114,-185.344 492.905,-180.104 496.836,-189.943 502.114,-185.344"/>
</g>
<!-- 15&#45;&gt;6 -->
<g id="edge16" class="edge"><title>15&#45;&gt;6</title>
<path fill="none" stroke="grey" stroke-width="2" d="M388.357,-431.876C373.582,-422.724 355.209,-411.342 339.297,-401.485"/>
<polygon fill="grey" stroke="grey" stroke-width="2" points="341.093,-398.481 330.749,-396.19 337.407,-404.431 341.093,-398.481"/>
</g>
<!-- 15&#45;&gt;7 -->
<g id="edge18" class="edge"><title>15&#45;&gt;7</title>
<path fill="none" stroke="grey" stroke-width="2" d="M428.607,-431.697C434.597,-423.474 441.876,-413.483 448.479,-404.421"/>
<polygon fill="grey" stroke="grey" stroke-width="2" points="451.478,-406.248 454.538,-396.104 445.821,-402.126 451.478,-406.248"/>
</g>
<!-- 16&#45;&gt;6 -->
<g id="edge17" class="edge"><title>16&#45;&gt;6</title>
<path fill="none" stroke="grey" stroke-width="2" d="M497.206,-433.378C460.723,-423.163 412.756,-409.732 373.621,-398.774"/>
<polygon fill="grey" stroke="grey" stroke-width="2" points="374.447,-395.371 363.874,-396.045 372.56,-402.111 374.447,-395.371"/>
</g>
<!-- 16&#45;&gt;7 -->
<g id="edge19" class="edge"><title>16&#45;&gt;7</title>
<path fill="none" stroke="grey" stroke-width="2" d="M531.742,-431.697C520.911,-422.881 507.582,-412.032 495.84,-402.474"/>
<polygon fill="grey" stroke="grey" stroke-width="2" points="497.979,-399.703 488.014,-396.104 493.56,-405.132 497.979,-399.703"/>
</g>
<!-- 17&#45;&gt;8 -->
<g id="edge20" class="edge"><title>17&#45;&gt;8</title>
<path fill="none" stroke="grey" stroke-width="2" d="M899.722,-433.313C918.045,-425.265 936.359,-413.365 947,-396 955.359,-382.357 955.132,-373.779 947,-360 934.386,-338.628 909.727,-325.279 888.56,-317.324"/>
<polygon fill="grey" stroke="grey" stroke-width="2" points="889.422,-313.918 878.828,-313.94 887.123,-320.53 889.422,-313.918"/>
</g>
<!-- 18 -->
<g id="node19" class="node"><title>18</title>
<path fill="none" stroke="#ced856" stroke-width="2" d="M926,-396C926,-396 776,-396 776,-396 770,-396 764,-390 764,-384 764,-384 764,-372 764,-372 764,-366 770,-360 776,-360 776,-360 926,-360 926,-360 932,-360 938,-366 938,-372 938,-372 938,-384 938,-384 938,-390 932,-396 926,-396"/>
<text text-anchor="middle" x="851" y="-375.5" font-family="sans" font-size="10.00">index_genomic_alignment_samtools</text>
</g>
<!-- 17&#45;&gt;18 -->
<g id="edge36" class="edge"><title>17&#45;&gt;18</title>
<path fill="none" stroke="grey" stroke-width="2" d="M844.978,-431.697C845.859,-423.983 846.919,-414.712 847.901,-406.112"/>
<polygon fill="grey" stroke="grey" stroke-width="2" points="851.387,-406.437 849.045,-396.104 844.432,-405.642 851.387,-406.437"/>
</g>
<!-- 25 -->
<g id="node26" class="node"><title>25</title>
<path fill="none" stroke="#56a2d8" stroke-width="2" d="M780,-324C780,-324 692,-324 692,-324 686,-324 680,-318 680,-312 680,-312 680,-300 680,-300 680,-294 686,-288 692,-288 692,-288 780,-288 780,-288 786,-288 792,-294 792,-300 792,-300 792,-312 792,-312 792,-318 786,-324 780,-324"/>
<text text-anchor="middle" x="736" y="-303.5" font-family="sans" font-size="10.00">calculate_TIN_scores</text>
</g>
<!-- 17&#45;&gt;25 -->
<g id="edge42" class="edge"><title>17&#45;&gt;25</title>
<path fill="none" stroke="grey" stroke-width="2" d="M799.53,-431.827C783.272,-423.345 766.08,-411.537 755,-396 742.133,-377.959 737.662,-352.972 736.249,-334.065"/>
<polygon fill="grey" stroke="grey" stroke-width="2" points="739.741,-333.812 735.737,-324.002 732.75,-334.167 739.741,-333.812"/>
</g>
<!-- 18&#45;&gt;8 -->
<g id="edge21" class="edge"><title>18&#45;&gt;8</title>
<path fill="none" stroke="grey" stroke-width="2" d="M851,-359.697C851,-351.983 851,-342.712 851,-334.112"/>
<polygon fill="grey" stroke="grey" stroke-width="2" points="854.5,-334.104 851,-324.104 847.5,-334.104 854.5,-334.104"/>
</g>
<!-- 18&#45;&gt;25 -->
<g id="edge44" class="edge"><title>18&#45;&gt;25</title>
<path fill="none" stroke="grey" stroke-width="2" d="M822.868,-359.876C807.832,-350.724 789.133,-339.342 772.94,-329.485"/>
<polygon fill="grey" stroke="grey" stroke-width="2" points="774.602,-326.4 764.24,-324.19 770.962,-332.379 774.602,-326.4"/>
</g>
<!-- 19&#45;&gt;8 -->
<g id="edge22" class="edge"><title>19&#45;&gt;8</title>
<path fill="none" stroke="grey" stroke-width="2" d="M970.876,-431.724C975.205,-412.573 978.916,-381.548 965,-360 948.17,-333.94 914.888,-320.48 888.609,-313.662"/>
<polygon fill="grey" stroke="grey" stroke-width="2" points="889.107,-310.183 878.57,-311.284 887.494,-316.994 889.107,-310.183"/>
</g>
<!-- 19&#45;&gt;18 -->
<g id="edge37" class="edge"><title>19&#45;&gt;18</title>
<path fill="none" stroke="grey" stroke-width="2" d="M937.868,-431.876C922.832,-422.724 904.133,-411.342 887.94,-401.485"/>
<polygon fill="grey" stroke="grey" stroke-width="2" points="889.602,-398.4 879.24,-396.19 885.962,-404.379 889.602,-398.4"/>
</g>
<!-- 19&#45;&gt;25 -->
<g id="edge45" class="edge"><title>19&#45;&gt;25</title>
<path fill="none" stroke="grey" stroke-width="2" d="M967.332,-431.807C967.882,-411.847 965.54,-379.215 947,-360 941.799,-354.609 861.991,-335.541 802.055,-321.821"/>
<polygon fill="grey" stroke="grey" stroke-width="2" points="802.775,-318.395 792.247,-319.582 801.217,-325.22 802.775,-318.395"/>
</g>
<!-- 20&#45;&gt;9 -->
<g id="edge23" class="edge"><title>20&#45;&gt;9</title>
<path fill="none" stroke="grey" stroke-width="2" d="M846.292,-215.697C844.639,-207.983 842.653,-198.712 840.81,-190.112"/>
<polygon fill="grey" stroke="grey" stroke-width="2" points="844.183,-189.149 838.665,-180.104 837.338,-190.616 844.183,-189.149"/>
</g>
<!-- 21 -->
<g id="node22" class="node"><title>21</title>
<path fill="none" stroke="#80d856" stroke-width="2" d="M1054,-324C1054,-324 974,-324 974,-324 968,-324 962,-318 962,-312 962,-312 962,-300 962,-300 962,-294 968,-288 974,-288 974,-288 1054,-288 1054,-288 1060,-288 1066,-294 1066,-300 1066,-300 1066,-312 1066,-312 1066,-318 1060,-324 1054,-324"/>
<text text-anchor="middle" x="1014" y="-303.5" font-family="sans" font-size="10.00">generate_alfa_index</text>
</g>
<!-- 21&#45;&gt;9 -->
<g id="edge24" class="edge"><title>21&#45;&gt;9</title>
<path fill="none" stroke="grey" stroke-width="2" d="M998.839,-287.668C981.776,-268.746 952.678,-238.186 924,-216 907.558,-203.28 887.819,-191.241 871.112,-181.862"/>
<polygon fill="grey" stroke="grey" stroke-width="2" points="872.629,-178.702 862.182,-176.937 869.249,-184.831 872.629,-178.702"/>
</g>
<!-- 22 -->
<g id="node23" class="node"><title>22</title>
<path fill="none" stroke="#d8c356" stroke-width="2" d="M407,-612C407,-612 281,-612 281,-612 275,-612 269,-606 269,-600 269,-600 269,-588 269,-588 269,-582 275,-576 281,-576 281,-576 407,-576 407,-576 413,-576 419,-582 419,-588 419,-588 419,-600 419,-600 419,-606 413,-612 407,-612"/>
<text text-anchor="middle" x="344" y="-591.5" font-family="sans" font-size="10.00">pe_remove_adapters_cutadapt</text>
</g>
<!-- 22&#45;&gt;11 -->
<g id="edge26" class="edge"><title>22&#45;&gt;11</title>
<path fill="none" stroke="grey" stroke-width="2" d="M342.764,-575.697C342.213,-567.983 341.551,-558.712 340.937,-550.112"/>
<polygon fill="grey" stroke="grey" stroke-width="2" points="344.425,-549.83 340.222,-540.104 337.443,-550.328 344.425,-549.83"/>
</g>
<!-- 23 -->
<g id="node24" class="node"><title>23</title>
<path fill="none" stroke="#d88d56" stroke-width="2" d="M238.5,-612C238.5,-612 151.5,-612 151.5,-612 145.5,-612 139.5,-606 139.5,-600 139.5,-600 139.5,-588 139.5,-588 139.5,-582 145.5,-576 151.5,-576 151.5,-576 238.5,-576 238.5,-576 244.5,-576 250.5,-582 250.5,-588 250.5,-588 250.5,-600 250.5,-600 250.5,-606 244.5,-612 238.5,-612"/>
<text text-anchor="middle" x="195" y="-591.5" font-family="sans" font-size="10.00">extract_transcriptome</text>
</g>
<!-- 23&#45;&gt;12 -->
<g id="edge27" class="edge"><title>23&#45;&gt;12</title>
<path fill="none" stroke="grey" stroke-width="2" d="M195,-575.697C195,-567.983 195,-558.712 195,-550.112"/>
<polygon fill="grey" stroke="grey" stroke-width="2" points="198.5,-550.104 195,-540.104 191.5,-550.104 198.5,-550.104"/>
</g>
<!-- 26 -->
<g id="node27" class="node"><title>26</title>
<path fill="none" stroke="#d86656" stroke-width="2" d="M522.5,-540C522.5,-540 437.5,-540 437.5,-540 431.5,-540 425.5,-534 425.5,-528 425.5,-528 425.5,-516 425.5,-516 425.5,-510 431.5,-504 437.5,-504 437.5,-504 522.5,-504 522.5,-504 528.5,-504 534.5,-510 534.5,-516 534.5,-516 534.5,-528 534.5,-528 534.5,-534 528.5,-540 522.5,-540"/>
<text text-anchor="middle" x="480" y="-519.5" font-family="sans" font-size="10.00">create_index_salmon</text>
</g>
<!-- 23&#45;&gt;26 -->
<g id="edge46" class="edge"><title>23&#45;&gt;26</title>
<path fill="none" stroke="grey" stroke-width="2" d="M250.642,-578.334C253.806,-577.536 256.942,-576.753 260,-576 326.125,-559.727 345.31,-557.324 415.453,-540.091"/>
<polygon fill="grey" stroke="grey" stroke-width="2" points="416.35,-543.475 425.218,-537.678 414.67,-536.68 416.35,-543.475"/>
</g>
<!-- 24 -->
<g id="node25" class="node"><title>24</title>
<path fill="none" stroke="#56d85b" stroke-width="2" d="M668,-612C668,-612 558,-612 558,-612 552,-612 546,-606 546,-600 546,-600 546,-588 546,-588 546,-582 552,-576 558,-576 558,-576 668,-576 668,-576 674,-576 680,-582 680,-588 680,-588 680,-600 680,-600 680,-606 674,-612 668,-612"/>
<text text-anchor="middle" x="613" y="-591.5" font-family="sans" font-size="10.00">remove_adapters_cutadapt</text>
</g>
<!-- 24&#45;&gt;13 -->
<g id="edge28" class="edge"><title>24&#45;&gt;13</title>
<path fill="none" stroke="grey" stroke-width="2" d="M613,-575.697C613,-567.983 613,-558.712 613,-550.112"/>
<polygon fill="grey" stroke="grey" stroke-width="2" points="616.5,-550.104 613,-540.104 609.5,-550.104 616.5,-550.104"/>
</g>
<!-- 25&#45;&gt;14 -->
<g id="edge29" class="edge"><title>25&#45;&gt;14</title>
<path fill="none" stroke="grey" stroke-width="2" d="M688.06,-287.966C660.535,-278.185 625.783,-265.836 596.759,-255.524"/>
<polygon fill="grey" stroke="grey" stroke-width="2" points="597.749,-252.161 587.155,-252.111 595.406,-258.757 597.749,-252.161"/>
</g>
<!-- 26&#45;&gt;15 -->
<g id="edge30" class="edge"><title>26&#45;&gt;15</title>
<path fill="none" stroke="grey" stroke-width="2" d="M464.18,-503.697C456.43,-495.22 446.961,-484.864 438.476,-475.583"/>
<polygon fill="grey" stroke="grey" stroke-width="2" points="440.969,-473.123 431.638,-468.104 435.803,-477.846 440.969,-473.123"/>
</g>
<!-- 26&#45;&gt;16 -->
<g id="edge32" class="edge"><title>26&#45;&gt;16</title>
<path fill="none" stroke="grey" stroke-width="2" d="M498.045,-503.697C507.062,-495.05 518.118,-484.449 527.943,-475.027"/>
<polygon fill="grey" stroke="grey" stroke-width="2" points="530.367,-477.552 535.163,-468.104 525.522,-472.499 530.367,-477.552"/>
</g>
<!-- 27 -->
<g id="node28" class="node"><title>27</title>
<path fill="none" stroke="#56d0d8" stroke-width="2" d="M1001,-540C1001,-540 931,-540 931,-540 925,-540 919,-534 919,-528 919,-528 919,-516 919,-516 919,-510 925,-504 931,-504 931,-504 1001,-504 1001,-504 1007,-504 1013,-510 1013,-516 1013,-516 1013,-528 1013,-528 1013,-534 1007,-540 1001,-540"/>
<text text-anchor="middle" x="966" y="-519.5" font-family="sans" font-size="10.00">create_index_star</text>
</g>
<!-- 27&#45;&gt;17 -->
<g id="edge34" class="edge"><title>27&#45;&gt;17</title>
<path fill="none" stroke="grey" stroke-width="2" d="M935.911,-503.876C919.68,-494.639 899.458,-483.131 882.029,-473.212"/>
<polygon fill="grey" stroke="grey" stroke-width="2" points="883.627,-470.094 873.205,-468.19 880.165,-476.178 883.627,-470.094"/>
</g>
<!-- 27&#45;&gt;19 -->
<g id="edge38" class="edge"><title>27&#45;&gt;19</title>
<path fill="none" stroke="grey" stroke-width="2" d="M966,-503.697C966,-495.983 966,-486.712 966,-478.112"/>
<polygon fill="grey" stroke="grey" stroke-width="2" points="969.5,-478.104 966,-468.104 962.5,-478.104 969.5,-478.104"/>
</g>
<!-- 27&#45;&gt;21 -->
<g id="edge41" class="edge"><title>27&#45;&gt;21</title>
<path fill="none" stroke="grey" stroke-width="2" d="M993.34,-503.775C1005.11,-494.718 1017.62,-482.478 1024,-468 1043.27,-424.297 1032.42,-367.371 1023.04,-334.235"/>
<polygon fill="grey" stroke="grey" stroke-width="2" points="1026.3,-332.935 1020.08,-324.359 1019.6,-334.943 1026.3,-332.935"/>
</g>
<!-- 28 -->
<g id="node29" class="node"><title>28</title>
<path fill="none" stroke="#b6d856" stroke-width="2" d="M695.5,-396C695.5,-396 574.5,-396 574.5,-396 568.5,-396 562.5,-390 562.5,-384 562.5,-384 562.5,-372 562.5,-372 562.5,-366 568.5,-360 574.5,-360 574.5,-360 695.5,-360 695.5,-360 701.5,-360 707.5,-366 707.5,-372 707.5,-372 707.5,-384 707.5,-384 707.5,-390 701.5,-396 695.5,-396"/>
<text text-anchor="middle" x="635" y="-375.5" font-family="sans" font-size="10.00">extract_transcripts_as_bed12</text>
</g>
<!-- 28&#45;&gt;25 -->
<g id="edge43" class="edge"><title>28&#45;&gt;25</title>
<path fill="none" stroke="grey" stroke-width="2" d="M659.707,-359.876C672.669,-350.893 688.728,-339.763 702.765,-330.034"/>
<polygon fill="grey" stroke="grey" stroke-width="2" points="704.972,-332.763 711.198,-324.19 700.985,-327.009 704.972,-332.763"/>
</g>
</g>
</svg>
