<?xml version="1.0" encoding="UTF-8" standalone="no"?>
<!DOCTYPE svg PUBLIC "-//W3C//DTD SVG 1.1//EN"
 "http://www.w3.org/Graphics/SVG/1.1/DTD/svg11.dtd">
<!-- Generated by graphviz version 2.40.1 (20161225.0304)
 -->
<!-- Title: snakemake_dag Pages: 1 -->
<svg width="1157pt" height="692pt"
 viewBox="0.00 0.00 1157.18 692.00" xmlns="http://www.w3.org/2000/svg" xmlns:xlink="http://www.w3.org/1999/xlink">
<g id="graph0" class="graph" transform="scale(1 1) rotate(0) translate(4 688)">
<title>snakemake_dag</title>
<polygon fill="#ffffff" stroke="transparent" points="-4,4 -4,-688 1153.1835,-688 1153.1835,4 -4,4"/>
<!-- 0 -->
<g id="node1" class="node">
<title>0</title>
<path fill="none" stroke="#d85656" stroke-width="2" d="M544,-36C544,-36 514,-36 514,-36 508,-36 502,-30 502,-24 502,-24 502,-12 502,-12 502,-6 508,0 514,0 514,0 544,0 544,0 550,0 556,-6 556,-12 556,-12 556,-24 556,-24 556,-30 550,-36 544,-36"/>
<text text-anchor="middle" x="529" y="-15" font-family="sans" font-size="10.00" fill="#000000">finish</text>
</g>
<!-- 1 -->
<g id="node2" class="node">
<title>1</title>
<path fill="none" stroke="#56d85b" stroke-width="2" d="M456.8602,-108C456.8602,-108 401.1398,-108 401.1398,-108 395.1398,-108 389.1398,-102 389.1398,-96 389.1398,-96 389.1398,-84 389.1398,-84 389.1398,-78 395.1398,-72 401.1398,-72 401.1398,-72 456.8602,-72 456.8602,-72 462.8602,-72 468.8602,-78 468.8602,-84 468.8602,-84 468.8602,-96 468.8602,-96 468.8602,-102 462.8602,-108 456.8602,-108"/>
<text text-anchor="middle" x="429" y="-87" font-family="sans" font-size="10.00" fill="#000000">multiqc_report</text>
</g>
<!-- 1&#45;&gt;0 -->
<g id="edge5" class="edge">
<title>1&#45;&gt;0</title>
<path fill="none" stroke="#c0c0c0" stroke-width="2" d="M454.2342,-71.8314C466.788,-62.7927 482.1283,-51.7476 495.6391,-42.0198"/>
<polygon fill="#c0c0c0" stroke="#c0c0c0" stroke-width="2" points="497.7036,-44.8463 503.7739,-36.1628 493.6134,-39.1655 497.7036,-44.8463"/>
</g>
<!-- 2 -->
<g id="node3" class="node">
<title>2</title>
<path fill="none" stroke="#56a2d8" stroke-width="2" d="M143,-612C143,-612 113,-612 113,-612 107,-612 101,-606 101,-600 101,-600 101,-588 101,-588 101,-582 107,-576 113,-576 113,-576 143,-576 143,-576 149,-576 155,-582 155,-588 155,-588 155,-600 155,-600 155,-606 149,-612 143,-612"/>
<text text-anchor="middle" x="128" y="-591" font-family="sans" font-size="10.00" fill="#000000">fastqc</text>
</g>
<!-- 2&#45;&gt;1 -->
<g id="edge9" class="edge">
<title>2&#45;&gt;1</title>
<path fill="none" stroke="#c0c0c0" stroke-width="2" d="M100.8545,-579.3806C63.2813,-556.9399 0,-510.208 0,-450 0,-450 0,-450 0,-234 0,-170.1421 53.7658,-170.2031 112,-144 158.8006,-122.9416 301.8796,-104.2786 378.8092,-95.4317"/>
<polygon fill="#c0c0c0" stroke="#c0c0c0" stroke-width="2" points="379.6678,-98.8567 389.2083,-94.2493 378.8769,-91.9016 379.6678,-98.8567"/>
</g>
<!-- 3 -->
<g id="node4" class="node">
<title>3</title>
<path fill="none" stroke="#d87556" stroke-width="2" d="M385,-684C385,-684 355,-684 355,-684 349,-684 343,-678 343,-672 343,-672 343,-660 343,-660 343,-654 349,-648 355,-648 355,-648 385,-648 385,-648 391,-648 397,-654 397,-660 397,-660 397,-672 397,-672 397,-678 391,-684 385,-684"/>
<text text-anchor="middle" x="370" y="-663" font-family="sans" font-size="10.00" fill="#000000">start</text>
</g>
<!-- 3&#45;&gt;2 -->
<g id="edge15" class="edge">
<title>3&#45;&gt;2</title>
<path fill="none" stroke="#c0c0c0" stroke-width="2" d="M342.7099,-657.8806C299.203,-644.9364 214.0484,-619.6012 165.0657,-605.0278"/>
<polygon fill="#c0c0c0" stroke="#c0c0c0" stroke-width="2" points="165.7732,-601.5867 155.1903,-602.0897 163.777,-608.2961 165.7732,-601.5867"/>
</g>
<!-- 6 -->
<g id="node7" class="node">
<title>6</title>
<path fill="none" stroke="#70d856" stroke-width="2" d="M600.4332,-612C600.4332,-612 469.5668,-612 469.5668,-612 463.5668,-612 457.5668,-606 457.5668,-600 457.5668,-600 457.5668,-588 457.5668,-588 457.5668,-582 463.5668,-576 469.5668,-576 469.5668,-576 600.4332,-576 600.4332,-576 606.4332,-576 612.4332,-582 612.4332,-588 612.4332,-588 612.4332,-600 612.4332,-600 612.4332,-606 606.4332,-612 600.4332,-612"/>
<text text-anchor="middle" x="535" y="-591" font-family="sans" font-size="10.00" fill="#000000">pe_remove_adapters_cutadapt</text>
</g>
<!-- 3&#45;&gt;6 -->
<g id="edge19" class="edge">
<title>3&#45;&gt;6</title>
<path fill="none" stroke="#c0c0c0" stroke-width="2" d="M397.2464,-654.1107C420.766,-643.8476 455.3737,-628.746 484.0164,-616.2474"/>
<polygon fill="#c0c0c0" stroke="#c0c0c0" stroke-width="2" points="485.7111,-619.3266 493.4767,-612.1193 482.9115,-612.9109 485.7111,-619.3266"/>
</g>
<!-- 11 -->
<g id="node12" class="node">
<title>11</title>
<path fill="none" stroke="#5673d8" stroke-width="2" d="M426.7483,-612C426.7483,-612 313.2517,-612 313.2517,-612 307.2517,-612 301.2517,-606 301.2517,-600 301.2517,-600 301.2517,-588 301.2517,-588 301.2517,-582 307.2517,-576 313.2517,-576 313.2517,-576 426.7483,-576 426.7483,-576 432.7483,-576 438.7483,-582 438.7483,-588 438.7483,-588 438.7483,-600 438.7483,-600 438.7483,-606 432.7483,-612 426.7483,-612"/>
<text text-anchor="middle" x="370" y="-591" font-family="sans" font-size="10.00" fill="#000000">remove_adapters_cutadapt</text>
</g>
<!-- 3&#45;&gt;11 -->
<g id="edge24" class="edge">
<title>3&#45;&gt;11</title>
<path fill="none" stroke="#c0c0c0" stroke-width="2" d="M370,-647.8314C370,-640.131 370,-630.9743 370,-622.4166"/>
<polygon fill="#c0c0c0" stroke="#c0c0c0" stroke-width="2" points="373.5001,-622.4132 370,-612.4133 366.5001,-622.4133 373.5001,-622.4132"/>
</g>
<!-- 4 -->
<g id="node5" class="node">
<title>4</title>
<path fill="none" stroke="#56d8c9" stroke-width="2" d="M372.943,-324C372.943,-324 227.057,-324 227.057,-324 221.057,-324 215.057,-318 215.057,-312 215.057,-312 215.057,-300 215.057,-300 215.057,-294 221.057,-288 227.057,-288 227.057,-288 372.943,-288 372.943,-288 378.943,-288 384.943,-294 384.943,-300 384.943,-300 384.943,-312 384.943,-312 384.943,-318 378.943,-324 372.943,-324"/>
<text text-anchor="middle" x="300" y="-303" font-family="sans" font-size="10.00" fill="#000000">pe_genome_quantification_kallisto</text>
</g>
<!-- 4&#45;&gt;1 -->
<g id="edge11" class="edge">
<title>4&#45;&gt;1</title>
<path fill="none" stroke="#c0c0c0" stroke-width="2" d="M318.8799,-287.8736C328.3386,-277.9819 339.3705,-265.1037 347,-252 372.6036,-208.0262 360.1142,-188.3839 385,-144 390.468,-134.2479 397.7252,-124.4966 404.7662,-116.0175"/>
<polygon fill="#c0c0c0" stroke="#c0c0c0" stroke-width="2" points="407.5194,-118.1839 411.3851,-108.3194 402.2116,-113.6202 407.5194,-118.1839"/>
</g>
<!-- 30 -->
<g id="node31" class="node">
<title>30</title>
<path fill="none" stroke="#5663d8" stroke-width="2" d="M325.7806,-252C325.7806,-252 236.2194,-252 236.2194,-252 230.2194,-252 224.2194,-246 224.2194,-240 224.2194,-240 224.2194,-228 224.2194,-228 224.2194,-222 230.2194,-216 236.2194,-216 236.2194,-216 325.7806,-216 325.7806,-216 331.7806,-216 337.7806,-222 337.7806,-228 337.7806,-228 337.7806,-240 337.7806,-240 337.7806,-246 331.7806,-252 325.7806,-252"/>
<text text-anchor="middle" x="281" y="-231" font-family="sans" font-size="10.00" fill="#000000">kallisto_merge_genes</text>
</g>
<!-- 4&#45;&gt;30 -->
<g id="edge57" class="edge">
<title>4&#45;&gt;30</title>
<path fill="none" stroke="#c0c0c0" stroke-width="2" d="M295.2055,-287.8314C293.1511,-280.0463 290.704,-270.7729 288.4244,-262.1347"/>
<polygon fill="#c0c0c0" stroke="#c0c0c0" stroke-width="2" points="291.7948,-261.1892 285.8591,-252.4133 285.0265,-262.9753 291.7948,-261.1892"/>
</g>
<!-- 31 -->
<g id="node32" class="node">
<title>31</title>
<path fill="none" stroke="#b6d856" stroke-width="2" d="M194.1573,-252C194.1573,-252 85.8427,-252 85.8427,-252 79.8427,-252 73.8427,-246 73.8427,-240 73.8427,-240 73.8427,-228 73.8427,-228 73.8427,-222 79.8427,-216 85.8427,-216 85.8427,-216 194.1573,-216 194.1573,-216 200.1573,-216 206.1573,-222 206.1573,-228 206.1573,-228 206.1573,-240 206.1573,-240 206.1573,-246 200.1573,-252 194.1573,-252"/>
<text text-anchor="middle" x="140" y="-231" font-family="sans" font-size="10.00" fill="#000000">kallisto_merge_transcripts</text>
</g>
<!-- 4&#45;&gt;31 -->
<g id="edge59" class="edge">
<title>4&#45;&gt;31</title>
<path fill="none" stroke="#c0c0c0" stroke-width="2" d="M259.6252,-287.8314C238.3213,-278.2446 212.0017,-266.4008 189.4789,-256.2655"/>
<polygon fill="#c0c0c0" stroke="#c0c0c0" stroke-width="2" points="190.6399,-252.95 180.0844,-252.038 187.7674,-259.3334 190.6399,-252.95"/>
</g>
<!-- 5 -->
<g id="node6" class="node">
<title>5</title>
<path fill="none" stroke="#97d856" stroke-width="2" d="M594.9235,-540C594.9235,-540 479.0765,-540 479.0765,-540 473.0765,-540 467.0765,-534 467.0765,-528 467.0765,-528 467.0765,-516 467.0765,-516 467.0765,-510 473.0765,-504 479.0765,-504 479.0765,-504 594.9235,-504 594.9235,-504 600.9235,-504 606.9235,-510 606.9235,-516 606.9235,-516 606.9235,-528 606.9235,-528 606.9235,-534 600.9235,-540 594.9235,-540"/>
<text text-anchor="middle" x="537" y="-519" font-family="sans" font-size="10.00" fill="#000000">pe_remove_polya_cutadapt</text>
</g>
<!-- 5&#45;&gt;4 -->
<g id="edge16" class="edge">
<title>5&#45;&gt;4</title>
<path fill="none" stroke="#c0c0c0" stroke-width="2" d="M514.6736,-503.9997C485.2468,-480.0493 432.1604,-436.0576 389,-396 366.3099,-374.941 341.641,-349.8052 324.0422,-331.4567"/>
<polygon fill="#c0c0c0" stroke="#c0c0c0" stroke-width="2" points="326.3969,-328.8546 316.9591,-324.0402 321.3347,-333.6893 326.3969,-328.8546"/>
</g>
<!-- 13 -->
<g id="node14" class="node">
<title>13</title>
<path fill="none" stroke="#56d86b" stroke-width="2" d="M968.0684,-468C968.0684,-468 875.9316,-468 875.9316,-468 869.9316,-468 863.9316,-462 863.9316,-456 863.9316,-456 863.9316,-444 863.9316,-444 863.9316,-438 869.9316,-432 875.9316,-432 875.9316,-432 968.0684,-432 968.0684,-432 974.0684,-432 980.0684,-438 980.0684,-444 980.0684,-444 980.0684,-456 980.0684,-456 980.0684,-462 974.0684,-468 968.0684,-468"/>
<text text-anchor="middle" x="922" y="-447" font-family="sans" font-size="10.00" fill="#000000">pe_map_genome_star</text>
</g>
<!-- 5&#45;&gt;13 -->
<g id="edge29" class="edge">
<title>5&#45;&gt;13</title>
<path fill="none" stroke="#c0c0c0" stroke-width="2" d="M607.0093,-510.2297C668.3055,-499.746 759.7105,-483.681 839,-468 843.7236,-467.0658 848.5926,-466.0771 853.4932,-465.0629"/>
<polygon fill="#c0c0c0" stroke="#c0c0c0" stroke-width="2" points="854.4898,-468.4302 863.5601,-462.9547 853.055,-461.5788 854.4898,-468.4302"/>
</g>
<!-- 24 -->
<g id="node25" class="node">
<title>24</title>
<path fill="none" stroke="#c6d856" stroke-width="2" d="M650.9137,-324C650.9137,-324 545.0863,-324 545.0863,-324 539.0863,-324 533.0863,-318 533.0863,-312 533.0863,-312 533.0863,-300 533.0863,-300 533.0863,-294 539.0863,-288 545.0863,-288 545.0863,-288 650.9137,-288 650.9137,-288 656.9137,-288 662.9137,-294 662.9137,-300 662.9137,-300 662.9137,-312 662.9137,-312 662.9137,-318 656.9137,-324 650.9137,-324"/>
<text text-anchor="middle" x="598" y="-303" font-family="sans" font-size="10.00" fill="#000000">pe_quantification_salmon</text>
</g>
<!-- 5&#45;&gt;24 -->
<g id="edge46" class="edge">
<title>5&#45;&gt;24</title>
<path fill="none" stroke="#c0c0c0" stroke-width="2" d="M536.2262,-503.7367C535.5703,-472.9041 537.0431,-409.0916 557,-360 560.9896,-350.186 567.2415,-340.5983 573.6719,-332.2907"/>
<polygon fill="#c0c0c0" stroke="#c0c0c0" stroke-width="2" points="576.4635,-334.4058 580.0845,-324.4489 571.0447,-329.9745 576.4635,-334.4058"/>
</g>
<!-- 6&#45;&gt;5 -->
<g id="edge18" class="edge">
<title>6&#45;&gt;5</title>
<path fill="none" stroke="#c0c0c0" stroke-width="2" d="M535.5047,-575.8314C535.7186,-568.131 535.9729,-558.9743 536.2106,-550.4166"/>
<polygon fill="#c0c0c0" stroke="#c0c0c0" stroke-width="2" points="539.7094,-550.5066 536.4885,-540.4133 532.7121,-550.3122 539.7094,-550.5066"/>
</g>
<!-- 7 -->
<g id="node8" class="node">
<title>7</title>
<path fill="none" stroke="#d8cb56" stroke-width="2" d="M291.8894,-396C291.8894,-396 206.1106,-396 206.1106,-396 200.1106,-396 194.1106,-390 194.1106,-384 194.1106,-384 194.1106,-372 194.1106,-372 194.1106,-366 200.1106,-360 206.1106,-360 206.1106,-360 291.8894,-360 291.8894,-360 297.8894,-360 303.8894,-366 303.8894,-372 303.8894,-372 303.8894,-384 303.8894,-384 303.8894,-390 297.8894,-396 291.8894,-396"/>
<text text-anchor="middle" x="249" y="-375" font-family="sans" font-size="10.00" fill="#000000">create_index_kallisto</text>
</g>
<!-- 7&#45;&gt;4 -->
<g id="edge17" class="edge">
<title>7&#45;&gt;4</title>
<path fill="none" stroke="#c0c0c0" stroke-width="2" d="M261.8695,-359.8314C267.6835,-351.6232 274.6696,-341.7606 281.0646,-332.7323"/>
<polygon fill="#c0c0c0" stroke="#c0c0c0" stroke-width="2" points="284.0331,-334.5966 286.9573,-324.4133 278.321,-330.5505 284.0331,-334.5966"/>
</g>
<!-- 9 -->
<g id="node10" class="node">
<title>9</title>
<path fill="none" stroke="#d86656" stroke-width="2" d="M185.258,-324C185.258,-324 56.742,-324 56.742,-324 50.742,-324 44.742,-318 44.742,-312 44.742,-312 44.742,-300 44.742,-300 44.742,-294 50.742,-288 56.742,-288 56.742,-288 185.258,-288 185.258,-288 191.258,-288 197.258,-294 197.258,-300 197.258,-300 197.258,-312 197.258,-312 197.258,-318 191.258,-324 185.258,-324"/>
<text text-anchor="middle" x="121" y="-303" font-family="sans" font-size="10.00" fill="#000000">genome_quantification_kallisto</text>
</g>
<!-- 7&#45;&gt;9 -->
<g id="edge21" class="edge">
<title>7&#45;&gt;9</title>
<path fill="none" stroke="#c0c0c0" stroke-width="2" d="M216.7002,-359.8314C200.1766,-350.5368 179.8814,-339.1208 162.2393,-329.1971"/>
<polygon fill="#c0c0c0" stroke="#c0c0c0" stroke-width="2" points="163.7212,-326.015 153.2895,-324.1628 160.2893,-332.116 163.7212,-326.015"/>
</g>
<!-- 8 -->
<g id="node9" class="node">
<title>8</title>
<path fill="none" stroke="#d89556" stroke-width="2" d="M169.1476,-540C169.1476,-540 80.8524,-540 80.8524,-540 74.8524,-540 68.8524,-534 68.8524,-528 68.8524,-528 68.8524,-516 68.8524,-516 68.8524,-510 74.8524,-504 80.8524,-504 80.8524,-504 169.1476,-504 169.1476,-504 175.1476,-504 181.1476,-510 181.1476,-516 181.1476,-516 181.1476,-528 181.1476,-528 181.1476,-534 175.1476,-540 169.1476,-540"/>
<text text-anchor="middle" x="125" y="-519" font-family="sans" font-size="10.00" fill="#000000">extract_transcriptome</text>
</g>
<!-- 8&#45;&gt;7 -->
<g id="edge20" class="edge">
<title>8&#45;&gt;7</title>
<path fill="none" stroke="#c0c0c0" stroke-width="2" d="M90.911,-503.9135C77.7792,-495.0032 64.2103,-482.9331 57,-468 50.0431,-453.5916 47.3385,-444.7536 57,-432 72.5024,-411.5361 134.4643,-396.6613 183.8625,-387.7667"/>
<polygon fill="#c0c0c0" stroke="#c0c0c0" stroke-width="2" points="184.6275,-391.1861 193.8739,-386.0136 183.4201,-384.291 184.6275,-391.1861"/>
</g>
<!-- 26 -->
<g id="node27" class="node">
<title>26</title>
<path fill="none" stroke="#d88556" stroke-width="2" d="M254.0708,-468C254.0708,-468 77.9292,-468 77.9292,-468 71.9292,-468 65.9292,-462 65.9292,-456 65.9292,-456 65.9292,-444 65.9292,-444 65.9292,-438 71.9292,-432 77.9292,-432 77.9292,-432 254.0708,-432 254.0708,-432 260.0708,-432 266.0708,-438 266.0708,-444 266.0708,-444 266.0708,-456 266.0708,-456 266.0708,-462 260.0708,-468 254.0708,-468"/>
<text text-anchor="middle" x="166" y="-447" font-family="sans" font-size="10.00" fill="#000000">concatenate_transcriptome_and_genome</text>
</g>
<!-- 8&#45;&gt;26 -->
<g id="edge50" class="edge">
<title>8&#45;&gt;26</title>
<path fill="none" stroke="#c0c0c0" stroke-width="2" d="M135.346,-503.8314C139.9237,-495.7925 145.4052,-486.1666 150.4588,-477.2918"/>
<polygon fill="#c0c0c0" stroke="#c0c0c0" stroke-width="2" points="153.6077,-478.8351 155.5147,-468.4133 147.5248,-475.3712 153.6077,-478.8351"/>
</g>
<!-- 9&#45;&gt;1 -->
<g id="edge8" class="edge">
<title>9&#45;&gt;1</title>
<path fill="none" stroke="#c0c0c0" stroke-width="2" d="M94.2769,-287.9104C82.9915,-278.6439 71.074,-266.295 65,-252 58.743,-237.2742 56.1221,-229.311 65,-216 100.676,-162.5099 288.1289,-118.2864 379.219,-99.5881"/>
<polygon fill="#c0c0c0" stroke="#c0c0c0" stroke-width="2" points="379.9401,-103.0132 389.0439,-97.5937 378.5474,-96.1531 379.9401,-103.0132"/>
</g>
<!-- 9&#45;&gt;30 -->
<g id="edge58" class="edge">
<title>9&#45;&gt;30</title>
<path fill="none" stroke="#c0c0c0" stroke-width="2" d="M161.3748,-287.8314C182.6787,-278.2446 208.9983,-266.4008 231.5211,-256.2655"/>
<polygon fill="#c0c0c0" stroke="#c0c0c0" stroke-width="2" points="233.2326,-259.3334 240.9156,-252.038 230.3601,-252.95 233.2326,-259.3334"/>
</g>
<!-- 9&#45;&gt;31 -->
<g id="edge60" class="edge">
<title>9&#45;&gt;31</title>
<path fill="none" stroke="#c0c0c0" stroke-width="2" d="M125.7945,-287.8314C127.8489,-280.0463 130.296,-270.7729 132.5756,-262.1347"/>
<polygon fill="#c0c0c0" stroke="#c0c0c0" stroke-width="2" points="135.9735,-262.9753 135.1409,-252.4133 129.2052,-261.1892 135.9735,-262.9753"/>
</g>
<!-- 10 -->
<g id="node11" class="node">
<title>10</title>
<path fill="none" stroke="#5682d8" stroke-width="2" d="M419.2386,-540C419.2386,-540 320.7614,-540 320.7614,-540 314.7614,-540 308.7614,-534 308.7614,-528 308.7614,-528 308.7614,-516 308.7614,-516 308.7614,-510 314.7614,-504 320.7614,-504 320.7614,-504 419.2386,-504 419.2386,-504 425.2386,-504 431.2386,-510 431.2386,-516 431.2386,-516 431.2386,-528 431.2386,-528 431.2386,-534 425.2386,-540 419.2386,-540"/>
<text text-anchor="middle" x="370" y="-519" font-family="sans" font-size="10.00" fill="#000000">remove_polya_cutadapt</text>
</g>
<!-- 10&#45;&gt;9 -->
<g id="edge22" class="edge">
<title>10&#45;&gt;9</title>
<path fill="none" stroke="#c0c0c0" stroke-width="2" d="M354.8082,-503.9899C337.2779,-484.1397 306.7627,-452.3339 275,-432 238.7168,-408.7722 218.8594,-422.6372 185,-396 163.4058,-379.0118 145.9329,-352.8408 134.7339,-333.0912"/>
<polygon fill="#c0c0c0" stroke="#c0c0c0" stroke-width="2" points="137.7669,-331.3428 129.8937,-324.253 131.6273,-334.7051 137.7669,-331.3428"/>
</g>
<!-- 17 -->
<g id="node18" class="node">
<title>17</title>
<path fill="none" stroke="#56d88a" stroke-width="2" d="M817.8845,-468C817.8845,-468 742.1155,-468 742.1155,-468 736.1155,-468 730.1155,-462 730.1155,-456 730.1155,-456 730.1155,-444 730.1155,-444 730.1155,-438 736.1155,-432 742.1155,-432 742.1155,-432 817.8845,-432 817.8845,-432 823.8845,-432 829.8845,-438 829.8845,-444 829.8845,-444 829.8845,-456 829.8845,-456 829.8845,-462 823.8845,-468 817.8845,-468"/>
<text text-anchor="middle" x="780" y="-447" font-family="sans" font-size="10.00" fill="#000000">map_genome_star</text>
</g>
<!-- 10&#45;&gt;17 -->
<g id="edge34" class="edge">
<title>10&#45;&gt;17</title>
<path fill="none" stroke="#c0c0c0" stroke-width="2" d="M431.4892,-509.1321C440.3744,-507.3573 449.4146,-505.5974 458,-504 549.2476,-487.0222 655.5,-469.6713 720.2333,-459.3702"/>
<polygon fill="#c0c0c0" stroke="#c0c0c0" stroke-width="2" points="720.93,-462.8035 730.2574,-457.7786 719.8322,-455.8901 720.93,-462.8035"/>
</g>
<!-- 27 -->
<g id="node28" class="node">
<title>27</title>
<path fill="none" stroke="#d8bc56" stroke-width="2" d="M503.2288,-324C503.2288,-324 414.7712,-324 414.7712,-324 408.7712,-324 402.7712,-318 402.7712,-312 402.7712,-312 402.7712,-300 402.7712,-300 402.7712,-294 408.7712,-288 414.7712,-288 414.7712,-288 503.2288,-288 503.2288,-288 509.2288,-288 515.2288,-294 515.2288,-300 515.2288,-300 515.2288,-312 515.2288,-312 515.2288,-318 509.2288,-324 503.2288,-324"/>
<text text-anchor="middle" x="459" y="-303" font-family="sans" font-size="10.00" fill="#000000">quantification_salmon</text>
</g>
<!-- 10&#45;&gt;27 -->
<g id="edge52" class="edge">
<title>10&#45;&gt;27</title>
<path fill="none" stroke="#c0c0c0" stroke-width="2" d="M367.757,-503.5876C364.8173,-471.9783 362.7678,-406.3259 389,-360 395.6896,-348.1862 406.1133,-338.0894 416.8921,-329.9336"/>
<polygon fill="#c0c0c0" stroke="#c0c0c0" stroke-width="2" points="419.0155,-332.7185 425.1479,-324.0788 414.9662,-327.0086 419.0155,-332.7185"/>
</g>
<!-- 11&#45;&gt;10 -->
<g id="edge23" class="edge">
<title>11&#45;&gt;10</title>
<path fill="none" stroke="#c0c0c0" stroke-width="2" d="M370,-575.8314C370,-568.131 370,-558.9743 370,-550.4166"/>
<polygon fill="#c0c0c0" stroke="#c0c0c0" stroke-width="2" points="373.5001,-550.4132 370,-540.4133 366.5001,-550.4133 373.5001,-550.4132"/>
</g>
<!-- 12 -->
<g id="node13" class="node">
<title>12</title>
<path fill="none" stroke="#5692d8" stroke-width="2" d="M786.1524,-324C786.1524,-324 697.8476,-324 697.8476,-324 691.8476,-324 685.8476,-318 685.8476,-312 685.8476,-312 685.8476,-300 685.8476,-300 685.8476,-294 691.8476,-288 697.8476,-288 697.8476,-288 786.1524,-288 786.1524,-288 792.1524,-288 798.1524,-294 798.1524,-300 798.1524,-300 798.1524,-312 798.1524,-312 798.1524,-318 792.1524,-324 786.1524,-324"/>
<text text-anchor="middle" x="742" y="-303" font-family="sans" font-size="10.00" fill="#000000">calculate_TIN_scores</text>
</g>
<!-- 12&#45;&gt;1 -->
<g id="edge13" class="edge">
<title>12&#45;&gt;1</title>
<path fill="none" stroke="#c0c0c0" stroke-width="2" d="M741.1486,-287.8448C739.4304,-268.4464 734.292,-237.5796 719,-216 662.7731,-136.6545 545.4894,-106.7861 478.5795,-95.9143"/>
<polygon fill="#c0c0c0" stroke="#c0c0c0" stroke-width="2" points="479.1056,-92.4542 468.6884,-94.3861 478.0367,-99.3721 479.1056,-92.4542"/>
</g>
<!-- 13&#45;&gt;12 -->
<g id="edge25" class="edge">
<title>13&#45;&gt;12</title>
<path fill="none" stroke="#c0c0c0" stroke-width="2" d="M959.3002,-431.9669C973.1458,-423.189 987.3358,-411.2027 995,-396 1002.2027,-381.7129 1005.0639,-372.4386 995,-360 971.9249,-331.4801 875.2729,-317.3695 808.3453,-310.8919"/>
<polygon fill="#c0c0c0" stroke="#c0c0c0" stroke-width="2" points="808.569,-307.3977 798.2871,-309.9538 807.9188,-314.3674 808.569,-307.3977"/>
</g>
<!-- 15 -->
<g id="node16" class="node">
<title>15</title>
<path fill="none" stroke="#78d856" stroke-width="2" d="M973.7629,-396C973.7629,-396 820.2371,-396 820.2371,-396 814.2371,-396 808.2371,-390 808.2371,-384 808.2371,-384 808.2371,-372 808.2371,-372 808.2371,-366 814.2371,-360 820.2371,-360 820.2371,-360 973.7629,-360 973.7629,-360 979.7629,-360 985.7629,-366 985.7629,-372 985.7629,-372 985.7629,-384 985.7629,-384 985.7629,-390 979.7629,-396 973.7629,-396"/>
<text text-anchor="middle" x="897" y="-375" font-family="sans" font-size="10.00" fill="#000000">index_genomic_alignment_samtools</text>
</g>
<!-- 13&#45;&gt;15 -->
<g id="edge31" class="edge">
<title>13&#45;&gt;15</title>
<path fill="none" stroke="#c0c0c0" stroke-width="2" d="M915.6914,-431.8314C912.9883,-424.0463 909.7684,-414.7729 906.769,-406.1347"/>
<polygon fill="#c0c0c0" stroke="#c0c0c0" stroke-width="2" points="909.98,-404.7119 903.3935,-396.4133 903.3673,-407.0081 909.98,-404.7119"/>
</g>
<!-- 20 -->
<g id="node21" class="node">
<title>20</title>
<path fill="none" stroke="#56d87b" stroke-width="2" d="M1001.955,-324C1001.955,-324 970.045,-324 970.045,-324 964.045,-324 958.045,-318 958.045,-312 958.045,-312 958.045,-300 958.045,-300 958.045,-294 964.045,-288 970.045,-288 970.045,-288 1001.955,-288 1001.955,-288 1007.955,-288 1013.955,-294 1013.955,-300 1013.955,-300 1013.955,-312 1013.955,-312 1013.955,-318 1007.955,-324 1001.955,-324"/>
<text text-anchor="middle" x="986" y="-303" font-family="sans" font-size="10.00" fill="#000000">star_rpm</text>
</g>
<!-- 13&#45;&gt;20 -->
<g id="edge38" class="edge">
<title>13&#45;&gt;20</title>
<path fill="none" stroke="#c0c0c0" stroke-width="2" d="M980.0909,-433.899C998.6731,-425.7011 1017.2081,-413.6093 1028,-396 1040.5792,-375.4742 1026.9451,-350.5676 1011.9485,-332.1638"/>
<polygon fill="#c0c0c0" stroke="#c0c0c0" stroke-width="2" points="1014.2455,-329.47 1005.0516,-324.2047 1008.9553,-334.0541 1014.2455,-329.47"/>
</g>
<!-- 14 -->
<g id="node15" class="node">
<title>14</title>
<path fill="none" stroke="#56d0d8" stroke-width="2" d="M957.9935,-540C957.9935,-540 886.0065,-540 886.0065,-540 880.0065,-540 874.0065,-534 874.0065,-528 874.0065,-528 874.0065,-516 874.0065,-516 874.0065,-510 880.0065,-504 886.0065,-504 886.0065,-504 957.9935,-504 957.9935,-504 963.9935,-504 969.9935,-510 969.9935,-516 969.9935,-516 969.9935,-528 969.9935,-528 969.9935,-534 963.9935,-540 957.9935,-540"/>
<text text-anchor="middle" x="922" y="-519" font-family="sans" font-size="10.00" fill="#000000">create_index_star</text>
</g>
<!-- 14&#45;&gt;13 -->
<g id="edge30" class="edge">
<title>14&#45;&gt;13</title>
<path fill="none" stroke="#c0c0c0" stroke-width="2" d="M922,-503.8314C922,-496.131 922,-486.9743 922,-478.4166"/>
<polygon fill="#c0c0c0" stroke="#c0c0c0" stroke-width="2" points="925.5001,-478.4132 922,-468.4133 918.5001,-478.4133 925.5001,-478.4132"/>
</g>
<!-- 14&#45;&gt;17 -->
<g id="edge33" class="edge">
<title>14&#45;&gt;17</title>
<path fill="none" stroke="#c0c0c0" stroke-width="2" d="M886.1674,-503.8314C867.5843,-494.4089 844.7011,-482.8062 824.9435,-472.7883"/>
<polygon fill="#c0c0c0" stroke="#c0c0c0" stroke-width="2" points="826.323,-469.5635 815.8211,-468.1628 823.1573,-475.8069 826.323,-469.5635"/>
</g>
<!-- 21 -->
<g id="node22" class="node">
<title>21</title>
<path fill="none" stroke="#56b1d8" stroke-width="2" d="M1101.1305,-468C1101.1305,-468 1018.8695,-468 1018.8695,-468 1012.8695,-468 1006.8695,-462 1006.8695,-456 1006.8695,-456 1006.8695,-444 1006.8695,-444 1006.8695,-438 1012.8695,-432 1018.8695,-432 1018.8695,-432 1101.1305,-432 1101.1305,-432 1107.1305,-432 1113.1305,-438 1113.1305,-444 1113.1305,-444 1113.1305,-456 1113.1305,-456 1113.1305,-462 1107.1305,-468 1101.1305,-468"/>
<text text-anchor="middle" x="1060" y="-447" font-family="sans" font-size="10.00" fill="#000000">generate_alfa_index</text>
</g>
<!-- 14&#45;&gt;21 -->
<g id="edge41" class="edge">
<title>14&#45;&gt;21</title>
<path fill="none" stroke="#c0c0c0" stroke-width="2" d="M956.8232,-503.8314C974.8011,-494.4516 996.9203,-482.9112 1016.0616,-472.9244"/>
<polygon fill="#c0c0c0" stroke="#c0c0c0" stroke-width="2" points="1017.9411,-475.8916 1025.1879,-468.1628 1014.7031,-469.6855 1017.9411,-475.8916"/>
</g>
<!-- 25 -->
<g id="node26" class="node">
<title>25</title>
<path fill="none" stroke="#56c1d8" stroke-width="2" d="M497.5586,-396C497.5586,-396 410.4414,-396 410.4414,-396 404.4414,-396 398.4414,-390 398.4414,-384 398.4414,-384 398.4414,-372 398.4414,-372 398.4414,-366 404.4414,-360 410.4414,-360 410.4414,-360 497.5586,-360 497.5586,-360 503.5586,-360 509.5586,-366 509.5586,-372 509.5586,-372 509.5586,-384 509.5586,-384 509.5586,-390 503.5586,-396 497.5586,-396"/>
<text text-anchor="middle" x="454" y="-375" font-family="sans" font-size="10.00" fill="#000000">create_index_salmon</text>
</g>
<!-- 14&#45;&gt;25 -->
<g id="edge49" class="edge">
<title>14&#45;&gt;25</title>
<path fill="none" stroke="#c0c0c0" stroke-width="2" d="M874.2459,-510.0692C833.3697,-499.6426 773.0505,-483.7475 721,-468 649.3741,-446.3301 568.0078,-418.4205 514.1193,-399.4667"/>
<polygon fill="#c0c0c0" stroke="#c0c0c0" stroke-width="2" points="514.9803,-396.0592 504.3855,-396.0354 512.653,-402.661 514.9803,-396.0592"/>
</g>
<!-- 33 -->
<g id="node34" class="node">
<title>33</title>
<path fill="none" stroke="#56d8b9" stroke-width="2" d="M1085.0966,-108C1085.0966,-108 1022.9034,-108 1022.9034,-108 1016.9034,-108 1010.9034,-102 1010.9034,-96 1010.9034,-96 1010.9034,-84 1010.9034,-84 1010.9034,-78 1016.9034,-72 1022.9034,-72 1022.9034,-72 1085.0966,-72 1085.0966,-72 1091.0966,-72 1097.0966,-78 1097.0966,-84 1097.0966,-84 1097.0966,-96 1097.0966,-96 1097.0966,-102 1091.0966,-108 1085.0966,-108"/>
<text text-anchor="middle" x="1054" y="-87" font-family="sans" font-size="10.00" fill="#000000">prepare_bigWig</text>
</g>
<!-- 14&#45;&gt;33 -->
<g id="edge61" class="edge">
<title>14&#45;&gt;33</title>
<path fill="none" stroke="#c0c0c0" stroke-width="2" d="M969.9053,-514.5502C1021.9209,-505.5388 1100.4722,-488.9387 1122,-468 1151.9364,-438.8828 1149,-419.7612 1149,-378 1149,-378 1149,-378 1149,-234 1149,-186.0912 1111.9087,-141.8312 1084.079,-115.3654"/>
<polygon fill="#c0c0c0" stroke="#c0c0c0" stroke-width="2" points="1086.2364,-112.5938 1076.5137,-108.3843 1081.4892,-117.7382 1086.2364,-112.5938"/>
</g>
<!-- 15&#45;&gt;12 -->
<g id="edge28" class="edge">
<title>15&#45;&gt;12</title>
<path fill="none" stroke="#c0c0c0" stroke-width="2" d="M857.887,-359.8314C837.2488,-350.2446 811.7516,-338.4008 789.9327,-328.2655"/>
<polygon fill="#c0c0c0" stroke="#c0c0c0" stroke-width="2" points="791.3756,-325.0766 780.8318,-324.038 788.4266,-331.4251 791.3756,-325.0766"/>
</g>
<!-- 15&#45;&gt;20 -->
<g id="edge40" class="edge">
<title>15&#45;&gt;20</title>
<path fill="none" stroke="#c0c0c0" stroke-width="2" d="M919.4585,-359.8314C930.4205,-350.9632 943.7699,-340.1637 955.6265,-330.5718"/>
<polygon fill="#c0c0c0" stroke="#c0c0c0" stroke-width="2" points="957.9755,-333.1734 963.5487,-324.1628 953.5729,-327.7313 957.9755,-333.1734"/>
</g>
<!-- 16 -->
<g id="node17" class="node">
<title>16</title>
<path fill="none" stroke="#d8a456" stroke-width="2" d="M701.6866,-396C701.6866,-396 578.3134,-396 578.3134,-396 572.3134,-396 566.3134,-390 566.3134,-384 566.3134,-384 566.3134,-372 566.3134,-372 566.3134,-366 572.3134,-360 578.3134,-360 578.3134,-360 701.6866,-360 701.6866,-360 707.6866,-360 713.6866,-366 713.6866,-372 713.6866,-372 713.6866,-384 713.6866,-384 713.6866,-390 707.6866,-396 701.6866,-396"/>
<text text-anchor="middle" x="640" y="-375" font-family="sans" font-size="10.00" fill="#000000">extract_transcripts_as_bed12</text>
</g>
<!-- 16&#45;&gt;12 -->
<g id="edge27" class="edge">
<title>16&#45;&gt;12</title>
<path fill="none" stroke="#c0c0c0" stroke-width="2" d="M665.7389,-359.8314C678.5437,-350.7927 694.1909,-339.7476 707.9719,-330.0198"/>
<polygon fill="#c0c0c0" stroke="#c0c0c0" stroke-width="2" points="710.118,-332.7891 716.2693,-324.1628 706.0812,-327.0703 710.118,-332.7891"/>
</g>
<!-- 17&#45;&gt;12 -->
<g id="edge26" class="edge">
<title>17&#45;&gt;12</title>
<path fill="none" stroke="#c0c0c0" stroke-width="2" d="M775.1873,-431.7623C768.6773,-407.0928 757.0047,-362.8598 749.3818,-333.9731"/>
<polygon fill="#c0c0c0" stroke="#c0c0c0" stroke-width="2" points="752.7094,-332.8656 746.7736,-324.0896 745.9411,-334.6517 752.7094,-332.8656"/>
</g>
<!-- 17&#45;&gt;15 -->
<g id="edge32" class="edge">
<title>17&#45;&gt;15</title>
<path fill="none" stroke="#c0c0c0" stroke-width="2" d="M809.524,-431.8314C824.4891,-422.6221 842.8386,-411.3301 858.8603,-401.4706"/>
<polygon fill="#c0c0c0" stroke="#c0c0c0" stroke-width="2" points="860.8032,-404.3847 867.4854,-396.1628 857.1345,-398.423 860.8032,-404.3847"/>
</g>
<!-- 17&#45;&gt;20 -->
<g id="edge39" class="edge">
<title>17&#45;&gt;20</title>
<path fill="none" stroke="#c0c0c0" stroke-width="2" d="M778.7019,-431.6499C778.3213,-411.495 780.9523,-379.417 799,-360 819.1471,-338.3243 899.2594,-321.0315 947.853,-312.2704"/>
<polygon fill="#c0c0c0" stroke="#c0c0c0" stroke-width="2" points="948.7638,-315.6639 958.0045,-310.4813 947.5488,-308.7702 948.7638,-315.6639"/>
</g>
<!-- 18 -->
<g id="node19" class="node">
<title>18</title>
<path fill="none" stroke="#56d8d8" stroke-width="2" d="M974,-180C974,-180 944,-180 944,-180 938,-180 932,-174 932,-168 932,-168 932,-156 932,-156 932,-150 938,-144 944,-144 944,-144 974,-144 974,-144 980,-144 986,-150 986,-156 986,-156 986,-168 986,-168 986,-174 980,-180 974,-180"/>
<text text-anchor="middle" x="959" y="-159" font-family="sans" font-size="10.00" fill="#000000">alfa_qc</text>
</g>
<!-- 18&#45;&gt;1 -->
<g id="edge12" class="edge">
<title>18&#45;&gt;1</title>
<path fill="none" stroke="#c0c0c0" stroke-width="2" d="M931.9886,-158.3305C847.6931,-146.8791 588.5801,-111.6788 478.8847,-96.7768"/>
<polygon fill="#c0c0c0" stroke="#c0c0c0" stroke-width="2" points="479.1265,-93.2776 468.7463,-95.3995 478.1841,-100.2139 479.1265,-93.2776"/>
</g>
<!-- 19 -->
<g id="node20" class="node">
<title>19</title>
<path fill="none" stroke="#61d856" stroke-width="2" d="M1108.837,-252C1108.837,-252 999.163,-252 999.163,-252 993.163,-252 987.163,-246 987.163,-240 987.163,-240 987.163,-228 987.163,-228 987.163,-222 993.163,-216 999.163,-216 999.163,-216 1108.837,-216 1108.837,-216 1114.837,-216 1120.837,-222 1120.837,-228 1120.837,-228 1120.837,-240 1120.837,-240 1120.837,-246 1114.837,-252 1108.837,-252"/>
<text text-anchor="middle" x="1054" y="-231" font-family="sans" font-size="10.00" fill="#000000">rename_star_rpm_for_alfa</text>
</g>
<!-- 19&#45;&gt;18 -->
<g id="edge35" class="edge">
<title>19&#45;&gt;18</title>
<path fill="none" stroke="#c0c0c0" stroke-width="2" d="M1030.0275,-215.8314C1018.2139,-206.8779 1003.8028,-195.9558 991.0565,-186.2955"/>
<polygon fill="#c0c0c0" stroke="#c0c0c0" stroke-width="2" points="993.0486,-183.4137 982.9648,-180.1628 988.8205,-188.9925 993.0486,-183.4137"/>
</g>
<!-- 34 -->
<g id="node35" class="node">
<title>34</title>
<path fill="none" stroke="#56d89a" stroke-width="2" d="M1084.4453,-180C1084.4453,-180 1023.5547,-180 1023.5547,-180 1017.5547,-180 1011.5547,-174 1011.5547,-168 1011.5547,-168 1011.5547,-156 1011.5547,-156 1011.5547,-150 1017.5547,-144 1023.5547,-144 1023.5547,-144 1084.4453,-144 1084.4453,-144 1090.4453,-144 1096.4453,-150 1096.4453,-156 1096.4453,-156 1096.4453,-168 1096.4453,-168 1096.4453,-174 1090.4453,-180 1084.4453,-180"/>
<text text-anchor="middle" x="1054" y="-159" font-family="sans" font-size="10.00" fill="#000000">sort_bed_4_big</text>
</g>
<!-- 19&#45;&gt;34 -->
<g id="edge63" class="edge">
<title>19&#45;&gt;34</title>
<path fill="none" stroke="#c0c0c0" stroke-width="2" d="M1054,-215.8314C1054,-208.131 1054,-198.9743 1054,-190.4166"/>
<polygon fill="#c0c0c0" stroke="#c0c0c0" stroke-width="2" points="1057.5001,-190.4132 1054,-180.4133 1050.5001,-190.4133 1057.5001,-190.4132"/>
</g>
<!-- 20&#45;&gt;19 -->
<g id="edge37" class="edge">
<title>20&#45;&gt;19</title>
<path fill="none" stroke="#c0c0c0" stroke-width="2" d="M1003.1593,-287.8314C1011.1511,-279.3694 1020.8038,-269.1489 1029.5416,-259.8971"/>
<polygon fill="#c0c0c0" stroke="#c0c0c0" stroke-width="2" points="1032.288,-262.0866 1036.6097,-252.4133 1027.1989,-257.2802 1032.288,-262.0866"/>
</g>
<!-- 21&#45;&gt;18 -->
<g id="edge36" class="edge">
<title>21&#45;&gt;18</title>
<path fill="none" stroke="#c0c0c0" stroke-width="2" d="M1057.3783,-431.9539C1054.5891,-413.6993 1049.7855,-384.7241 1044,-360 1036.4051,-327.5434 1041.5433,-315.6994 1023,-288 1008.7518,-266.7165 991.4322,-273.8077 978,-252 966.5351,-233.3863 961.8987,-208.9441 960.0662,-190.2295"/>
<polygon fill="#c0c0c0" stroke="#c0c0c0" stroke-width="2" points="963.5536,-189.9297 959.2958,-180.2281 956.5743,-190.4674 963.5536,-189.9297"/>
</g>
<!-- 22 -->
<g id="node23" class="node">
<title>22</title>
<path fill="none" stroke="#a7d856" stroke-width="2" d="M451.9209,-180C451.9209,-180 406.0791,-180 406.0791,-180 400.0791,-180 394.0791,-174 394.0791,-168 394.0791,-168 394.0791,-156 394.0791,-156 394.0791,-150 400.0791,-144 406.0791,-144 406.0791,-144 451.9209,-144 451.9209,-144 457.9209,-144 463.9209,-150 463.9209,-156 463.9209,-156 463.9209,-168 463.9209,-168 463.9209,-174 457.9209,-180 451.9209,-180"/>
<text text-anchor="middle" x="429" y="-159" font-family="sans" font-size="10.00" fill="#000000">pca_salmon</text>
</g>
<!-- 22&#45;&gt;1 -->
<g id="edge14" class="edge">
<title>22&#45;&gt;1</title>
<path fill="none" stroke="#c0c0c0" stroke-width="2" d="M429,-143.8314C429,-136.131 429,-126.9743 429,-118.4166"/>
<polygon fill="#c0c0c0" stroke="#c0c0c0" stroke-width="2" points="432.5001,-118.4132 429,-108.4133 425.5001,-118.4133 432.5001,-118.4132"/>
</g>
<!-- 23 -->
<g id="node24" class="node">
<title>23</title>
<path fill="none" stroke="#d8ac56" stroke-width="2" d="M521.9746,-252C521.9746,-252 406.0254,-252 406.0254,-252 400.0254,-252 394.0254,-246 394.0254,-240 394.0254,-240 394.0254,-228 394.0254,-228 394.0254,-222 400.0254,-216 406.0254,-216 406.0254,-216 521.9746,-216 521.9746,-216 527.9746,-216 533.9746,-222 533.9746,-228 533.9746,-228 533.9746,-240 533.9746,-240 533.9746,-246 527.9746,-252 521.9746,-252"/>
<text text-anchor="middle" x="464" y="-231" font-family="sans" font-size="10.00" fill="#000000">salmon_quantmerge_genes</text>
</g>
<!-- 23&#45;&gt;0 -->
<g id="edge2" class="edge">
<title>23&#45;&gt;0</title>
<path fill="none" stroke="#c0c0c0" stroke-width="2" d="M534.0551,-216.5212C567.1209,-206.7127 601.4297,-193.7111 611,-180 642.4505,-134.9413 593.0504,-76.1333 558.3236,-43.1921"/>
<polygon fill="#c0c0c0" stroke="#c0c0c0" stroke-width="2" points="560.4564,-40.3974 550.7375,-36.1791 555.7046,-45.5375 560.4564,-40.3974"/>
</g>
<!-- 23&#45;&gt;22 -->
<g id="edge43" class="edge">
<title>23&#45;&gt;22</title>
<path fill="none" stroke="#c0c0c0" stroke-width="2" d="M455.168,-215.8314C451.3014,-207.8771 446.6794,-198.369 442.4032,-189.5723"/>
<polygon fill="#c0c0c0" stroke="#c0c0c0" stroke-width="2" points="445.4707,-187.8768 437.9509,-180.4133 439.1751,-190.9371 445.4707,-187.8768"/>
</g>
<!-- 24&#45;&gt;23 -->
<g id="edge45" class="edge">
<title>24&#45;&gt;23</title>
<path fill="none" stroke="#c0c0c0" stroke-width="2" d="M564.1861,-287.8314C546.7293,-278.4516 525.2513,-266.9112 506.6648,-256.9244"/>
<polygon fill="#c0c0c0" stroke="#c0c0c0" stroke-width="2" points="508.2686,-253.8129 497.803,-252.1628 504.9554,-259.9792 508.2686,-253.8129"/>
</g>
<!-- 28 -->
<g id="node29" class="node">
<title>28</title>
<path fill="none" stroke="#d6d856" stroke-width="2" d="M698.3516,-252C698.3516,-252 563.6484,-252 563.6484,-252 557.6484,-252 551.6484,-246 551.6484,-240 551.6484,-240 551.6484,-228 551.6484,-228 551.6484,-222 557.6484,-216 563.6484,-216 563.6484,-216 698.3516,-216 698.3516,-216 704.3516,-216 710.3516,-222 710.3516,-228 710.3516,-228 710.3516,-240 710.3516,-240 710.3516,-246 704.3516,-252 698.3516,-252"/>
<text text-anchor="middle" x="631" y="-231" font-family="sans" font-size="10.00" fill="#000000">salmon_quantmerge_transcripts</text>
</g>
<!-- 24&#45;&gt;28 -->
<g id="edge54" class="edge">
<title>24&#45;&gt;28</title>
<path fill="none" stroke="#c0c0c0" stroke-width="2" d="M606.3273,-287.8314C609.973,-279.8771 614.3309,-270.369 618.3627,-261.5723"/>
<polygon fill="#c0c0c0" stroke="#c0c0c0" stroke-width="2" points="621.5757,-262.9622 622.5606,-252.4133 615.2123,-260.0456 621.5757,-262.9622"/>
</g>
<!-- 25&#45;&gt;24 -->
<g id="edge47" class="edge">
<title>25&#45;&gt;24</title>
<path fill="none" stroke="#c0c0c0" stroke-width="2" d="M490.3373,-359.8314C509.3396,-350.3302 532.7758,-338.6121 552.9252,-328.5374"/>
<polygon fill="#c0c0c0" stroke="#c0c0c0" stroke-width="2" points="554.545,-331.6407 561.924,-324.038 551.4145,-325.3797 554.545,-331.6407"/>
</g>
<!-- 25&#45;&gt;27 -->
<g id="edge51" class="edge">
<title>25&#45;&gt;27</title>
<path fill="none" stroke="#c0c0c0" stroke-width="2" d="M455.2617,-359.8314C455.7965,-352.131 456.4323,-342.9743 457.0266,-334.4166"/>
<polygon fill="#c0c0c0" stroke="#c0c0c0" stroke-width="2" points="460.52,-334.6317 457.7213,-324.4133 453.5368,-334.1467 460.52,-334.6317"/>
</g>
<!-- 26&#45;&gt;25 -->
<g id="edge48" class="edge">
<title>26&#45;&gt;25</title>
<path fill="none" stroke="#c0c0c0" stroke-width="2" d="M238.3028,-431.9243C284.3104,-420.4224 343.4273,-405.6432 388.1335,-394.4666"/>
<polygon fill="#c0c0c0" stroke="#c0c0c0" stroke-width="2" points="389.1652,-397.8165 398.0177,-391.9956 387.4674,-391.0255 389.1652,-397.8165"/>
</g>
<!-- 27&#45;&gt;23 -->
<g id="edge44" class="edge">
<title>27&#45;&gt;23</title>
<path fill="none" stroke="#c0c0c0" stroke-width="2" d="M460.2617,-287.8314C460.7965,-280.131 461.4323,-270.9743 462.0266,-262.4166"/>
<polygon fill="#c0c0c0" stroke="#c0c0c0" stroke-width="2" points="465.52,-262.6317 462.7213,-252.4133 458.5368,-262.1467 465.52,-262.6317"/>
</g>
<!-- 27&#45;&gt;28 -->
<g id="edge53" class="edge">
<title>27&#45;&gt;28</title>
<path fill="none" stroke="#c0c0c0" stroke-width="2" d="M502.4029,-287.8314C525.5091,-278.159 554.1038,-266.1891 578.4577,-255.9944"/>
<polygon fill="#c0c0c0" stroke="#c0c0c0" stroke-width="2" points="580.0363,-259.128 587.9092,-252.038 577.3333,-252.6709 580.0363,-259.128"/>
</g>
<!-- 28&#45;&gt;0 -->
<g id="edge3" class="edge">
<title>28&#45;&gt;0</title>
<path fill="none" stroke="#c0c0c0" stroke-width="2" d="M634.2764,-215.9608C639.0734,-183.764 644.3372,-115.6899 613,-72 601.064,-55.359 582.2584,-42.5778 565.4641,-33.6375"/>
<polygon fill="#c0c0c0" stroke="#c0c0c0" stroke-width="2" points="566.9023,-30.4429 556.3973,-29.0657 563.7506,-36.6933 566.9023,-30.4429"/>
</g>
<!-- 28&#45;&gt;22 -->
<g id="edge42" class="edge">
<title>28&#45;&gt;22</title>
<path fill="none" stroke="#c0c0c0" stroke-width="2" d="M575.5095,-215.9253C547.3434,-206.5444 512.4328,-194.6048 473.445,-180.0761"/>
<polygon fill="#c0c0c0" stroke="#c0c0c0" stroke-width="2" points="474.5833,-176.765 463.991,-176.5319 472.126,-183.3195 474.5833,-176.765"/>
</g>
<!-- 29 -->
<g id="node30" class="node">
<title>29</title>
<path fill="none" stroke="#56d8a9" stroke-width="2" d="M303.2514,-180C303.2514,-180 258.7486,-180 258.7486,-180 252.7486,-180 246.7486,-174 246.7486,-168 246.7486,-168 246.7486,-156 246.7486,-156 246.7486,-150 252.7486,-144 258.7486,-144 258.7486,-144 303.2514,-144 303.2514,-144 309.2514,-144 315.2514,-150 315.2514,-156 315.2514,-156 315.2514,-168 315.2514,-168 315.2514,-174 309.2514,-180 303.2514,-180"/>
<text text-anchor="middle" x="281" y="-159" font-family="sans" font-size="10.00" fill="#000000">pca_kallisto</text>
</g>
<!-- 29&#45;&gt;1 -->
<g id="edge10" class="edge">
<title>29&#45;&gt;1</title>
<path fill="none" stroke="#c0c0c0" stroke-width="2" d="M315.3262,-145.3008C335.3506,-135.5592 360.8778,-123.1405 382.6667,-112.5405"/>
<polygon fill="#c0c0c0" stroke="#c0c0c0" stroke-width="2" points="384.2877,-115.6442 391.7489,-108.1222 381.2254,-109.3495 384.2877,-115.6442"/>
</g>
<!-- 30&#45;&gt;0 -->
<g id="edge4" class="edge">
<title>30&#45;&gt;0</title>
<path fill="none" stroke="#c0c0c0" stroke-width="2" d="M261.6024,-215.8317C244.1784,-197.2294 223.4093,-167.7572 238,-144 292.5845,-55.1232 425.752,-28.786 491.297,-21.0991"/>
<polygon fill="#c0c0c0" stroke="#c0c0c0" stroke-width="2" points="492.0262,-24.5406 501.5898,-19.9811 491.2703,-17.5815 492.0262,-24.5406"/>
</g>
<!-- 30&#45;&gt;29 -->
<g id="edge55" class="edge">
<title>30&#45;&gt;29</title>
<path fill="none" stroke="#c0c0c0" stroke-width="2" d="M281,-215.8314C281,-208.131 281,-198.9743 281,-190.4166"/>
<polygon fill="#c0c0c0" stroke="#c0c0c0" stroke-width="2" points="284.5001,-190.4132 281,-180.4133 277.5001,-190.4133 284.5001,-190.4132"/>
</g>
<!-- 31&#45;&gt;0 -->
<g id="edge6" class="edge">
<title>31&#45;&gt;0</title>
<path fill="none" stroke="#c0c0c0" stroke-width="2" d="M148.4155,-215.9881C165.321,-181.9355 206.8267,-108.2845 265,-72 302.5067,-48.6059 428.5028,-30.3241 491.9035,-22.3552"/>
<polygon fill="#c0c0c0" stroke="#c0c0c0" stroke-width="2" points="492.3891,-25.8219 501.884,-21.1211 491.53,-18.8748 492.3891,-25.8219"/>
</g>
<!-- 31&#45;&gt;29 -->
<g id="edge56" class="edge">
<title>31&#45;&gt;29</title>
<path fill="none" stroke="#c0c0c0" stroke-width="2" d="M175.5803,-215.8314C194.3142,-206.2651 217.4493,-194.4514 237.2693,-184.3306"/>
<polygon fill="#c0c0c0" stroke="#c0c0c0" stroke-width="2" points="239.0916,-187.33 246.406,-179.665 235.9082,-181.0957 239.0916,-187.33"/>
</g>
<!-- 32 -->
<g id="node33" class="node">
<title>32</title>
<path fill="none" stroke="#88d856" stroke-width="2" d="M589.9502,-180C589.9502,-180 494.0498,-180 494.0498,-180 488.0498,-180 482.0498,-174 482.0498,-168 482.0498,-168 482.0498,-156 482.0498,-156 482.0498,-150 488.0498,-144 494.0498,-144 494.0498,-144 589.9502,-144 589.9502,-144 595.9502,-144 601.9502,-150 601.9502,-156 601.9502,-156 601.9502,-168 601.9502,-168 601.9502,-174 595.9502,-180 589.9502,-180"/>
<text text-anchor="middle" x="542" y="-159" font-family="sans" font-size="10.00" fill="#000000">prepare_multiqc_config</text>
</g>
<!-- 32&#45;&gt;1 -->
<g id="edge7" class="edge">
<title>32&#45;&gt;1</title>
<path fill="none" stroke="#c0c0c0" stroke-width="2" d="M513.4853,-143.8314C499.1658,-134.7074 481.6376,-123.539 466.2662,-113.7449"/>
<polygon fill="#c0c0c0" stroke="#c0c0c0" stroke-width="2" points="467.8199,-110.5847 457.5055,-108.1628 464.0583,-116.4882 467.8199,-110.5847"/>
</g>
<!-- 33&#45;&gt;0 -->
<g id="edge1" class="edge">
<title>33&#45;&gt;0</title>
<path fill="none" stroke="#c0c0c0" stroke-width="2" d="M1010.5904,-84.0467C909.5978,-70.1963 660.3176,-36.0093 565.9788,-23.0714"/>
<polygon fill="#c0c0c0" stroke="#c0c0c0" stroke-width="2" points="566.4213,-19.5994 556.0384,-21.7081 565.4701,-26.5345 566.4213,-19.5994"/>
</g>
<!-- 34&#45;&gt;33 -->
<g id="edge62" class="edge">
<title>34&#45;&gt;33</title>
<path fill="none" stroke="#c0c0c0" stroke-width="2" d="M1054,-143.8314C1054,-136.131 1054,-126.9743 1054,-118.4166"/>
<polygon fill="#c0c0c0" stroke="#c0c0c0" stroke-width="2" points="1057.5001,-118.4132 1054,-108.4133 1050.5001,-118.4133 1057.5001,-118.4132"/>
</g>
</g>
</svg>
