<?xml version="1.0" encoding="UTF-8" standalone="no"?>
<!DOCTYPE svg PUBLIC "-//W3C//DTD SVG 1.1//EN"
 "http://www.w3.org/Graphics/SVG/1.1/DTD/svg11.dtd">
<!-- Generated by graphviz version 2.40.1 (20161225.0304)
 -->
<!-- Title: snakemake_dag Pages: 1 -->
<svg width="1235pt" height="404pt"
 viewBox="0.00 0.00 1234.93 404.00" xmlns="http://www.w3.org/2000/svg" xmlns:xlink="http://www.w3.org/1999/xlink">
<g id="graph0" class="graph" transform="scale(1 1) rotate(0) translate(4 400)">
<title>snakemake_dag</title>
<polygon fill="#ffffff" stroke="transparent" points="-4,4 -4,-400 1230.93,-400 1230.93,4 -4,4"/>
<!-- 0 -->
<g id="node1" class="node">
<title>0</title>
<path fill="none" stroke="#56d8c9" stroke-width="2" d="M416,-36C416,-36 386,-36 386,-36 380,-36 374,-30 374,-24 374,-24 374,-12 374,-12 374,-6 380,0 386,0 386,0 416,0 416,0 422,0 428,-6 428,-12 428,-12 428,-24 428,-24 428,-30 422,-36 416,-36"/>
<text text-anchor="middle" x="401" y="-15.5" font-family="sans" font-size="10.00" fill="#000000">finish</text>
</g>
<!-- 1 -->
<g id="node2" class="node">
<title>1</title>
<path fill="none" stroke="#78d856" stroke-width="2" d="M106.5,-108C106.5,-108 71.5,-108 71.5,-108 65.5,-108 59.5,-102 59.5,-96 59.5,-96 59.5,-84 59.5,-84 59.5,-78 65.5,-72 71.5,-72 71.5,-72 106.5,-72 106.5,-72 112.5,-72 118.5,-78 118.5,-84 118.5,-84 118.5,-96 118.5,-96 118.5,-102 112.5,-108 106.5,-108"/>
<text text-anchor="middle" x="89" y="-87.5" font-family="sans" font-size="10.00" fill="#000000">pe_fastqc</text>
</g>
<!-- 1&#45;&gt;0 -->
<g id="edge8" class="edge">
<title>1&#45;&gt;0</title>
<path fill="none" stroke="#c0c0c0" stroke-width="2" d="M118.5189,-75.4965C121.6789,-74.2094 124.8791,-73.013 128,-72 210.0713,-45.362 310.4979,-29.6097 363.726,-22.5192"/>
<polygon fill="#c0c0c0" stroke="#c0c0c0" stroke-width="2" points="364.2593,-25.9794 373.7229,-21.216 363.3544,-19.0381 364.2593,-25.9794"/>
</g>
<!-- 2 -->
<g id="node3" class="node">
<title>2</title>
<path fill="none" stroke="#56d873" stroke-width="2" d="M179,-108C179,-108 149,-108 149,-108 143,-108 137,-102 137,-96 137,-96 137,-84 137,-84 137,-78 143,-72 149,-72 149,-72 179,-72 179,-72 185,-72 191,-78 191,-84 191,-84 191,-96 191,-96 191,-102 185,-108 179,-108"/>
<text text-anchor="middle" x="164" y="-87.5" font-family="sans" font-size="10.00" fill="#000000">fastqc</text>
</g>
<!-- 2&#45;&gt;0 -->
<g id="edge3" class="edge">
<title>2&#45;&gt;0</title>
<path fill="none" stroke="#c0c0c0" stroke-width="2" d="M191.1255,-77.435C195.7115,-75.5006 200.4582,-73.6131 205,-72 259.4623,-52.6571 324.4424,-35.9659 364.203,-26.4479"/>
<polygon fill="#c0c0c0" stroke="#c0c0c0" stroke-width="2" points="365.0663,-29.8403 373.9895,-24.1284 363.4519,-23.029 365.0663,-29.8403"/>
</g>
<!-- 3 -->
<g id="node4" class="node">
<title>3</title>
<path fill="none" stroke="#d86e56" stroke-width="2" d="M596.5,-180C596.5,-180 493.5,-180 493.5,-180 487.5,-180 481.5,-174 481.5,-168 481.5,-168 481.5,-156 481.5,-156 481.5,-150 487.5,-144 493.5,-144 493.5,-144 596.5,-144 596.5,-144 602.5,-144 608.5,-150 608.5,-156 608.5,-156 608.5,-168 608.5,-168 608.5,-174 602.5,-180 596.5,-180"/>
<text text-anchor="middle" x="545" y="-159.5" font-family="sans" font-size="10.00" fill="#000000">pe_quantification_salmon</text>
</g>
<!-- 3&#45;&gt;0 -->
<g id="edge7" class="edge">
<title>3&#45;&gt;0</title>
<path fill="none" stroke="#c0c0c0" stroke-width="2" d="M600.0656,-143.9074C616.4722,-135.6534 632.5748,-124.0344 642,-108 650.108,-94.2065 652.0007,-84.4895 642,-72 616.9186,-40.6768 499.6829,-26.2903 438.4559,-20.8187"/>
<polygon fill="#c0c0c0" stroke="#c0c0c0" stroke-width="2" points="438.6836,-17.3254 428.4208,-19.957 438.0847,-24.2998 438.6836,-17.3254"/>
</g>
<!-- 8 -->
<g id="node9" class="node">
<title>8</title>
<path fill="none" stroke="#56d863" stroke-width="2" d="M621,-108C621,-108 509,-108 509,-108 503,-108 497,-102 497,-96 497,-96 497,-84 497,-84 497,-78 503,-72 509,-72 509,-72 621,-72 621,-72 627,-72 633,-78 633,-84 633,-84 633,-96 633,-96 633,-102 627,-108 621,-108"/>
<text text-anchor="middle" x="565" y="-87.5" font-family="sans" font-size="10.00" fill="#000000">salmon_quantmerge_genes</text>
</g>
<!-- 3&#45;&gt;8 -->
<g id="edge23" class="edge">
<title>3&#45;&gt;8</title>
<path fill="none" stroke="#c0c0c0" stroke-width="2" d="M550.0468,-143.8314C552.2094,-136.0463 554.7853,-126.7729 557.1848,-118.1347"/>
<polygon fill="#c0c0c0" stroke="#c0c0c0" stroke-width="2" points="560.581,-118.9852 559.8852,-108.4133 553.8364,-117.1117 560.581,-118.9852"/>
</g>
<!-- 9 -->
<g id="node10" class="node">
<title>9</title>
<path fill="none" stroke="#56d8a2" stroke-width="2" d="M466.5,-108C466.5,-108 335.5,-108 335.5,-108 329.5,-108 323.5,-102 323.5,-96 323.5,-96 323.5,-84 323.5,-84 323.5,-78 329.5,-72 335.5,-72 335.5,-72 466.5,-72 466.5,-72 472.5,-72 478.5,-78 478.5,-84 478.5,-84 478.5,-96 478.5,-96 478.5,-102 472.5,-108 466.5,-108"/>
<text text-anchor="middle" x="401" y="-87.5" font-family="sans" font-size="10.00" fill="#000000">salmon_quantmerge_transcripts</text>
</g>
<!-- 3&#45;&gt;9 -->
<g id="edge25" class="edge">
<title>3&#45;&gt;9</title>
<path fill="none" stroke="#c0c0c0" stroke-width="2" d="M508.6627,-143.8314C489.6604,-134.3302 466.2242,-122.6121 446.0748,-112.5374"/>
<polygon fill="#c0c0c0" stroke="#c0c0c0" stroke-width="2" points="447.5855,-109.3797 437.076,-108.038 444.455,-115.6407 447.5855,-109.3797"/>
</g>
<!-- 4 -->
<g id="node5" class="node">
<title>4</title>
<path fill="none" stroke="#d8ac56" stroke-width="2" d="M451.5,-180C451.5,-180 364.5,-180 364.5,-180 358.5,-180 352.5,-174 352.5,-168 352.5,-168 352.5,-156 352.5,-156 352.5,-150 358.5,-144 364.5,-144 364.5,-144 451.5,-144 451.5,-144 457.5,-144 463.5,-150 463.5,-156 463.5,-156 463.5,-168 463.5,-168 463.5,-174 457.5,-180 451.5,-180"/>
<text text-anchor="middle" x="408" y="-159.5" font-family="sans" font-size="10.00" fill="#000000">quantification_salmon</text>
</g>
<!-- 4&#45;&gt;0 -->
<g id="edge9" class="edge">
<title>4&#45;&gt;0</title>
<path fill="none" stroke="#c0c0c0" stroke-width="2" d="M355.3375,-143.9237C339.1801,-135.618 323.2394,-123.9631 314,-108 305.985,-94.1523 306.222,-85.9822 314,-72 324.7443,-52.6853 345.5726,-39.3947 364.1559,-30.8325"/>
<polygon fill="#c0c0c0" stroke="#c0c0c0" stroke-width="2" points="365.7939,-33.9383 373.6039,-26.7791 363.034,-27.5053 365.7939,-33.9383"/>
</g>
<!-- 4&#45;&gt;8 -->
<g id="edge24" class="edge">
<title>4&#45;&gt;8</title>
<path fill="none" stroke="#c0c0c0" stroke-width="2" d="M447.6177,-143.8314C468.5222,-134.2446 494.3483,-122.4008 516.4488,-112.2655"/>
<polygon fill="#c0c0c0" stroke="#c0c0c0" stroke-width="2" points="518.0364,-115.388 525.6672,-108.038 515.1184,-109.0252 518.0364,-115.388"/>
</g>
<!-- 4&#45;&gt;9 -->
<g id="edge26" class="edge">
<title>4&#45;&gt;9</title>
<path fill="none" stroke="#c0c0c0" stroke-width="2" d="M406.2336,-143.8314C405.485,-136.131 404.5947,-126.9743 403.7627,-118.4166"/>
<polygon fill="#c0c0c0" stroke="#c0c0c0" stroke-width="2" points="407.2415,-118.0276 402.7902,-108.4133 400.2744,-118.7051 407.2415,-118.0276"/>
</g>
<!-- 5 -->
<g id="node6" class="node">
<title>5</title>
<path fill="none" stroke="#c6d856" stroke-width="2" d="M322,-180C322,-180 180,-180 180,-180 174,-180 168,-174 168,-168 168,-168 168,-156 168,-156 168,-150 174,-144 180,-144 180,-144 322,-144 322,-144 328,-144 334,-150 334,-156 334,-156 334,-168 334,-168 334,-174 328,-180 322,-180"/>
<text text-anchor="middle" x="251" y="-159.5" font-family="sans" font-size="10.00" fill="#000000">pe_genome_quantification_kallisto</text>
</g>
<!-- 5&#45;&gt;0 -->
<g id="edge2" class="edge">
<title>5&#45;&gt;0</title>
<path fill="none" stroke="#c0c0c0" stroke-width="2" d="M258.4479,-143.9136C267.2426,-124.2889 283.4444,-92.9597 305,-72 322.0837,-55.3886 345.2816,-42.1543 364.5938,-32.9452"/>
<polygon fill="#c0c0c0" stroke="#c0c0c0" stroke-width="2" points="366.0943,-36.1076 373.7184,-28.7506 363.1705,-29.7474 366.0943,-36.1076"/>
</g>
<!-- 6 -->
<g id="node7" class="node">
<title>6</title>
<path fill="none" stroke="#56a9d8" stroke-width="2" d="M138,-180C138,-180 12,-180 12,-180 6,-180 0,-174 0,-168 0,-168 0,-156 0,-156 0,-150 6,-144 12,-144 12,-144 138,-144 138,-144 144,-144 150,-150 150,-156 150,-156 150,-168 150,-168 150,-174 144,-180 138,-180"/>
<text text-anchor="middle" x="75" y="-159.5" font-family="sans" font-size="10.00" fill="#000000">genome_quantification_kallisto</text>
</g>
<!-- 6&#45;&gt;0 -->
<g id="edge4" class="edge">
<title>6&#45;&gt;0</title>
<path fill="none" stroke="#c0c0c0" stroke-width="2" d="M117.9968,-143.9241C142.1918,-133.6278 172.8963,-120.3534 200,-108 233.6446,-92.6654 241.3332,-87.2859 275,-72 304.844,-58.4497 339.043,-43.8507 364.2744,-33.2528"/>
<polygon fill="#c0c0c0" stroke="#c0c0c0" stroke-width="2" points="365.9457,-36.3475 373.8171,-29.2557 363.2413,-29.891 365.9457,-36.3475"/>
</g>
<!-- 7 -->
<g id="node8" class="node">
<title>7</title>
<path fill="none" stroke="#566bd8" stroke-width="2" d="M942,-108C942,-108 854,-108 854,-108 848,-108 842,-102 842,-96 842,-96 842,-84 842,-84 842,-78 848,-72 854,-72 854,-72 942,-72 942,-72 948,-72 954,-78 954,-84 954,-84 954,-96 954,-96 954,-102 948,-108 942,-108"/>
<text text-anchor="middle" x="898" y="-87.5" font-family="sans" font-size="10.00" fill="#000000">calculate_TIN_scores</text>
</g>
<!-- 7&#45;&gt;0 -->
<g id="edge10" class="edge">
<title>7&#45;&gt;0</title>
<path fill="none" stroke="#c0c0c0" stroke-width="2" d="M841.6588,-78.4156C829.8991,-76.1554 817.5629,-73.9002 806,-72 671.1794,-49.8439 509.9668,-30.4589 438.3975,-22.2175"/>
<polygon fill="#c0c0c0" stroke="#c0c0c0" stroke-width="2" points="438.4334,-18.6988 428.0999,-21.0375 437.6364,-25.6533 438.4334,-18.6988"/>
</g>
<!-- 8&#45;&gt;0 -->
<g id="edge1" class="edge">
<title>8&#45;&gt;0</title>
<path fill="none" stroke="#c0c0c0" stroke-width="2" d="M523.6159,-71.8314C497.1957,-60.2323 463.2497,-45.3291 437.7762,-34.1457"/>
<polygon fill="#c0c0c0" stroke="#c0c0c0" stroke-width="2" points="439.0249,-30.8715 428.4615,-30.0563 436.2109,-37.281 439.0249,-30.8715"/>
</g>
<!-- 9&#45;&gt;0 -->
<g id="edge5" class="edge">
<title>9&#45;&gt;0</title>
<path fill="none" stroke="#c0c0c0" stroke-width="2" d="M401,-71.8314C401,-64.131 401,-54.9743 401,-46.4166"/>
<polygon fill="#c0c0c0" stroke="#c0c0c0" stroke-width="2" points="404.5001,-46.4132 401,-36.4133 397.5001,-46.4133 404.5001,-46.4132"/>
</g>
<!-- 10 -->
<g id="node11" class="node">
<title>10</title>
<path fill="none" stroke="#61d856" stroke-width="2" d="M1157.5,-108C1157.5,-108 1074.5,-108 1074.5,-108 1068.5,-108 1062.5,-102 1062.5,-96 1062.5,-96 1062.5,-84 1062.5,-84 1062.5,-78 1068.5,-72 1074.5,-72 1074.5,-72 1157.5,-72 1157.5,-72 1163.5,-72 1169.5,-78 1169.5,-84 1169.5,-84 1169.5,-96 1169.5,-96 1169.5,-102 1163.5,-108 1157.5,-108"/>
<text text-anchor="middle" x="1116" y="-87.5" font-family="sans" font-size="10.00" fill="#000000">star_rpm_paired_end</text>
</g>
<!-- 10&#45;&gt;0 -->
<g id="edge11" class="edge">
<title>10&#45;&gt;0</title>
<path fill="none" stroke="#c0c0c0" stroke-width="2" d="M1062.2179,-83.3888C1032.9042,-79.857 995.9769,-75.5237 963,-72 765.4177,-50.8876 528.3387,-29.3498 438.2183,-21.2997"/>
<polygon fill="#c0c0c0" stroke="#c0c0c0" stroke-width="2" points="438.4877,-17.8099 428.2163,-20.4078 437.8659,-24.7822 438.4877,-17.8099"/>
</g>
<!-- 11 -->
<g id="node12" class="node">
<title>11</title>
<path fill="none" stroke="#b6d856" stroke-width="2" d="M784.5,-108C784.5,-108 701.5,-108 701.5,-108 695.5,-108 689.5,-102 689.5,-96 689.5,-96 689.5,-84 689.5,-84 689.5,-78 695.5,-72 701.5,-72 701.5,-72 784.5,-72 784.5,-72 790.5,-72 796.5,-78 796.5,-84 796.5,-84 796.5,-96 796.5,-96 796.5,-102 790.5,-108 784.5,-108"/>
<text text-anchor="middle" x="743" y="-87.5" font-family="sans" font-size="10.00" fill="#000000">star_rpm_single_end</text>
</g>
<!-- 11&#45;&gt;0 -->
<g id="edge6" class="edge">
<title>11&#45;&gt;0</title>
<path fill="none" stroke="#c0c0c0" stroke-width="2" d="M689.2575,-75.4333C684.446,-74.2324 679.6409,-73.0704 675,-72 590.8464,-52.5906 491.1471,-34.0478 438.2775,-24.5626"/>
<polygon fill="#c0c0c0" stroke="#c0c0c0" stroke-width="2" points="438.8061,-21.1017 428.3464,-22.7887 437.5752,-27.9926 438.8061,-21.1017"/>
</g>
<!-- 12 -->
<g id="node13" class="node">
<title>12</title>
<path fill="none" stroke="#d8bc56" stroke-width="2" d="M602,-324C602,-324 490,-324 490,-324 484,-324 478,-318 478,-312 478,-312 478,-300 478,-300 478,-294 484,-288 490,-288 490,-288 602,-288 602,-288 608,-288 614,-294 614,-300 614,-300 614,-312 614,-312 614,-318 608,-324 602,-324"/>
<text text-anchor="middle" x="546" y="-303.5" font-family="sans" font-size="10.00" fill="#000000">pe_remove_polya_cutadapt</text>
</g>
<!-- 12&#45;&gt;3 -->
<g id="edge13" class="edge">
<title>12&#45;&gt;3</title>
<path fill="none" stroke="#c0c0c0" stroke-width="2" d="M545.8733,-287.7623C545.7028,-263.201 545.3976,-219.2474 545.1969,-190.3541"/>
<polygon fill="#c0c0c0" stroke="#c0c0c0" stroke-width="2" points="548.6951,-190.065 545.1256,-180.0896 541.6952,-190.1137 548.6951,-190.065"/>
</g>
<!-- 12&#45;&gt;5 -->
<g id="edge17" class="edge">
<title>12&#45;&gt;5</title>
<path fill="none" stroke="#c0c0c0" stroke-width="2" d="M489.0978,-287.9875C461.3893,-278.493 427.8994,-265.9316 399,-252 358.6163,-232.5322 315.0772,-205.2176 285.7526,-185.797"/>
<polygon fill="#c0c0c0" stroke="#c0c0c0" stroke-width="2" points="287.3881,-182.6806 277.1274,-180.0408 283.5023,-188.5031 287.3881,-182.6806"/>
</g>
<!-- 19 -->
<g id="node20" class="node">
<title>19</title>
<path fill="none" stroke="#88d856" stroke-width="2" d="M1039.5,-252C1039.5,-252 950.5,-252 950.5,-252 944.5,-252 938.5,-246 938.5,-240 938.5,-240 938.5,-228 938.5,-228 938.5,-222 944.5,-216 950.5,-216 950.5,-216 1039.5,-216 1039.5,-216 1045.5,-216 1051.5,-222 1051.5,-228 1051.5,-228 1051.5,-240 1051.5,-240 1051.5,-246 1045.5,-252 1039.5,-252"/>
<text text-anchor="middle" x="995" y="-231.5" font-family="sans" font-size="10.00" fill="#000000">pe_map_genome_star</text>
</g>
<!-- 12&#45;&gt;19 -->
<g id="edge37" class="edge">
<title>12&#45;&gt;19</title>
<path fill="none" stroke="#c0c0c0" stroke-width="2" d="M614.1934,-295.0647C699.2963,-281.418 843.8898,-258.2315 928.293,-244.6969"/>
<polygon fill="#c0c0c0" stroke="#c0c0c0" stroke-width="2" points="928.96,-248.1347 938.2796,-243.0955 927.8516,-241.223 928.96,-248.1347"/>
</g>
<!-- 13 -->
<g id="node14" class="node">
<title>13</title>
<path fill="none" stroke="#d89556" stroke-width="2" d="M505.5,-252C505.5,-252 420.5,-252 420.5,-252 414.5,-252 408.5,-246 408.5,-240 408.5,-240 408.5,-228 408.5,-228 408.5,-222 414.5,-216 420.5,-216 420.5,-216 505.5,-216 505.5,-216 511.5,-216 517.5,-222 517.5,-228 517.5,-228 517.5,-240 517.5,-240 517.5,-246 511.5,-252 505.5,-252"/>
<text text-anchor="middle" x="463" y="-231.5" font-family="sans" font-size="10.00" fill="#000000">create_index_salmon</text>
</g>
<!-- 13&#45;&gt;3 -->
<g id="edge12" class="edge">
<title>13&#45;&gt;3</title>
<path fill="none" stroke="#c0c0c0" stroke-width="2" d="M483.6921,-215.8314C493.6948,-207.0485 505.855,-196.3712 516.6999,-186.8489"/>
<polygon fill="#c0c0c0" stroke="#c0c0c0" stroke-width="2" points="519.1094,-189.3909 524.3146,-180.1628 514.4908,-184.1308 519.1094,-189.3909"/>
</g>
<!-- 13&#45;&gt;4 -->
<g id="edge15" class="edge">
<title>13&#45;&gt;4</title>
<path fill="none" stroke="#c0c0c0" stroke-width="2" d="M449.1212,-215.8314C442.7864,-207.5386 435.1616,-197.557 428.2074,-188.4533"/>
<polygon fill="#c0c0c0" stroke="#c0c0c0" stroke-width="2" points="430.9175,-186.2353 422.0657,-180.4133 425.3548,-190.4847 430.9175,-186.2353"/>
</g>
<!-- 14 -->
<g id="node15" class="node">
<title>14</title>
<path fill="none" stroke="#5682d8" stroke-width="2" d="M431,-324C431,-324 335,-324 335,-324 329,-324 323,-318 323,-312 323,-312 323,-300 323,-300 323,-294 329,-288 335,-288 335,-288 431,-288 431,-288 437,-288 443,-294 443,-300 443,-300 443,-312 443,-312 443,-318 437,-324 431,-324"/>
<text text-anchor="middle" x="383" y="-303.5" font-family="sans" font-size="10.00" fill="#000000">remove_polya_cutadapt</text>
</g>
<!-- 14&#45;&gt;4 -->
<g id="edge14" class="edge">
<title>14&#45;&gt;4</title>
<path fill="none" stroke="#c0c0c0" stroke-width="2" d="M386.1663,-287.7623C390.4492,-263.0928 398.1285,-218.8598 403.1436,-189.9731"/>
<polygon fill="#c0c0c0" stroke="#c0c0c0" stroke-width="2" points="406.5973,-190.541 404.8594,-180.0896 399.7004,-189.3435 406.5973,-190.541"/>
</g>
<!-- 14&#45;&gt;6 -->
<g id="edge19" class="edge">
<title>14&#45;&gt;6</title>
<path fill="none" stroke="#c0c0c0" stroke-width="2" d="M322.8075,-290.1425C267.2147,-275.3972 192.2896,-255.2299 186,-252 153.1752,-235.1432 121.024,-207.494 99.8437,-187.2831"/>
<polygon fill="#c0c0c0" stroke="#c0c0c0" stroke-width="2" points="102.1687,-184.6621 92.5559,-180.2072 97.2925,-189.6843 102.1687,-184.6621"/>
</g>
<!-- 20 -->
<g id="node21" class="node">
<title>20</title>
<path fill="none" stroke="#d87d56" stroke-width="2" d="M730.5,-252C730.5,-252 657.5,-252 657.5,-252 651.5,-252 645.5,-246 645.5,-240 645.5,-240 645.5,-228 645.5,-228 645.5,-222 651.5,-216 657.5,-216 657.5,-216 730.5,-216 730.5,-216 736.5,-216 742.5,-222 742.5,-228 742.5,-228 742.5,-240 742.5,-240 742.5,-246 736.5,-252 730.5,-252"/>
<text text-anchor="middle" x="694" y="-231.5" font-family="sans" font-size="10.00" fill="#000000">map_genome_star</text>
</g>
<!-- 14&#45;&gt;20 -->
<g id="edge39" class="edge">
<title>14&#45;&gt;20</title>
<path fill="none" stroke="#c0c0c0" stroke-width="2" d="M443.3327,-292.0323C498.7078,-279.2123 580.245,-260.3356 635.1476,-247.625"/>
<polygon fill="#c0c0c0" stroke="#c0c0c0" stroke-width="2" points="636.124,-250.9916 645.0768,-245.3263 634.5451,-244.172 636.124,-250.9916"/>
</g>
<!-- 15 -->
<g id="node16" class="node">
<title>15</title>
<path fill="none" stroke="#56c1d8" stroke-width="2" d="M291,-252C291,-252 207,-252 207,-252 201,-252 195,-246 195,-240 195,-240 195,-228 195,-228 195,-222 201,-216 207,-216 207,-216 291,-216 291,-216 297,-216 303,-222 303,-228 303,-228 303,-240 303,-240 303,-246 297,-252 291,-252"/>
<text text-anchor="middle" x="249" y="-231.5" font-family="sans" font-size="10.00" fill="#000000">create_index_kallisto</text>
</g>
<!-- 15&#45;&gt;5 -->
<g id="edge16" class="edge">
<title>15&#45;&gt;5</title>
<path fill="none" stroke="#c0c0c0" stroke-width="2" d="M249.5047,-215.8314C249.7186,-208.131 249.9729,-198.9743 250.2106,-190.4166"/>
<polygon fill="#c0c0c0" stroke="#c0c0c0" stroke-width="2" points="253.7094,-190.5066 250.4885,-180.4133 246.7121,-190.3122 253.7094,-190.5066"/>
</g>
<!-- 15&#45;&gt;6 -->
<g id="edge18" class="edge">
<title>15&#45;&gt;6</title>
<path fill="none" stroke="#c0c0c0" stroke-width="2" d="M205.0925,-215.8314C181.7176,-206.159 152.7903,-194.1891 128.1532,-183.9944"/>
<polygon fill="#c0c0c0" stroke="#c0c0c0" stroke-width="2" points="129.1702,-180.6275 118.5918,-180.038 126.4937,-187.0956 129.1702,-180.6275"/>
</g>
<!-- 16 -->
<g id="node17" class="node">
<title>16</title>
<path fill="none" stroke="#d8d356" stroke-width="2" d="M1199,-180C1199,-180 1033,-180 1033,-180 1027,-180 1021,-174 1021,-168 1021,-168 1021,-156 1021,-156 1021,-150 1027,-144 1033,-144 1033,-144 1199,-144 1199,-144 1205,-144 1211,-150 1211,-156 1211,-156 1211,-168 1211,-168 1211,-174 1205,-180 1199,-180"/>
<text text-anchor="middle" x="1116" y="-159.5" font-family="sans" font-size="10.00" fill="#000000">pe_index_genomic_alignment_samtools</text>
</g>
<!-- 16&#45;&gt;7 -->
<g id="edge21" class="edge">
<title>16&#45;&gt;7</title>
<path fill="none" stroke="#c0c0c0" stroke-width="2" d="M1061.2708,-143.9243C1031.2098,-133.9959 993.755,-121.6255 962.3046,-111.2382"/>
<polygon fill="#c0c0c0" stroke="#c0c0c0" stroke-width="2" points="963.3449,-107.8959 952.7517,-108.0831 961.1496,-114.5428 963.3449,-107.8959"/>
</g>
<!-- 16&#45;&gt;10 -->
<g id="edge28" class="edge">
<title>16&#45;&gt;10</title>
<path fill="none" stroke="#c0c0c0" stroke-width="2" d="M1116,-143.8314C1116,-136.131 1116,-126.9743 1116,-118.4166"/>
<polygon fill="#c0c0c0" stroke="#c0c0c0" stroke-width="2" points="1119.5001,-118.4132 1116,-108.4133 1112.5001,-118.4133 1119.5001,-118.4132"/>
</g>
<!-- 17 -->
<g id="node18" class="node">
<title>17</title>
<path fill="none" stroke="#56d0d8" stroke-width="2" d="M990.5,-180C990.5,-180 869.5,-180 869.5,-180 863.5,-180 857.5,-174 857.5,-168 857.5,-168 857.5,-156 857.5,-156 857.5,-150 863.5,-144 869.5,-144 869.5,-144 990.5,-144 990.5,-144 996.5,-144 1002.5,-150 1002.5,-156 1002.5,-156 1002.5,-168 1002.5,-168 1002.5,-174 996.5,-180 990.5,-180"/>
<text text-anchor="middle" x="930" y="-159.5" font-family="sans" font-size="10.00" fill="#000000">extract_transcripts_as_bed12</text>
</g>
<!-- 17&#45;&gt;7 -->
<g id="edge22" class="edge">
<title>17&#45;&gt;7</title>
<path fill="none" stroke="#c0c0c0" stroke-width="2" d="M921.925,-143.8314C918.3898,-135.8771 914.164,-126.369 910.2544,-117.5723"/>
<polygon fill="#c0c0c0" stroke="#c0c0c0" stroke-width="2" points="913.4435,-116.1299 906.1837,-108.4133 907.0468,-118.9729 913.4435,-116.1299"/>
</g>
<!-- 18 -->
<g id="node19" class="node">
<title>18</title>
<path fill="none" stroke="#9fd856" stroke-width="2" d="M827,-180C827,-180 677,-180 677,-180 671,-180 665,-174 665,-168 665,-168 665,-156 665,-156 665,-150 671,-144 677,-144 677,-144 827,-144 827,-144 833,-144 839,-150 839,-156 839,-156 839,-168 839,-168 839,-174 833,-180 827,-180"/>
<text text-anchor="middle" x="752" y="-159.5" font-family="sans" font-size="10.00" fill="#000000">index_genomic_alignment_samtools</text>
</g>
<!-- 18&#45;&gt;7 -->
<g id="edge20" class="edge">
<title>18&#45;&gt;7</title>
<path fill="none" stroke="#c0c0c0" stroke-width="2" d="M788.842,-143.8314C808.1082,-134.3302 831.8699,-122.6121 852.2992,-112.5374"/>
<polygon fill="#c0c0c0" stroke="#c0c0c0" stroke-width="2" points="854.0023,-115.6 861.423,-108.038 850.9062,-109.3219 854.0023,-115.6"/>
</g>
<!-- 18&#45;&gt;11 -->
<g id="edge29" class="edge">
<title>18&#45;&gt;11</title>
<path fill="none" stroke="#c0c0c0" stroke-width="2" d="M749.7289,-143.8314C748.7664,-136.131 747.6218,-126.9743 746.5521,-118.4166"/>
<polygon fill="#c0c0c0" stroke="#c0c0c0" stroke-width="2" points="750.0151,-117.9019 745.3017,-108.4133 743.0691,-118.7702 750.0151,-117.9019"/>
</g>
<!-- 19&#45;&gt;10 -->
<g id="edge27" class="edge">
<title>19&#45;&gt;10</title>
<path fill="none" stroke="#c0c0c0" stroke-width="2" d="M1051.7598,-228.313C1111.4117,-221.0258 1199.419,-206.1048 1220,-180 1229.906,-167.4353 1228.3076,-157.6742 1220,-144 1210.64,-128.5934 1195.2997,-117.3827 1179.2404,-109.3089"/>
<polygon fill="#c0c0c0" stroke="#c0c0c0" stroke-width="2" points="1180.2866,-105.9364 1169.7416,-104.9097 1177.3448,-112.2882 1180.2866,-105.9364"/>
</g>
<!-- 19&#45;&gt;16 -->
<g id="edge35" class="edge">
<title>19&#45;&gt;16</title>
<path fill="none" stroke="#c0c0c0" stroke-width="2" d="M1025.5334,-215.8314C1041.0101,-206.6221 1059.9869,-195.3301 1076.5563,-185.4706"/>
<polygon fill="#c0c0c0" stroke="#c0c0c0" stroke-width="2" points="1078.6724,-188.2843 1085.4764,-180.1628 1075.0929,-182.2687 1078.6724,-188.2843"/>
</g>
<!-- 20&#45;&gt;11 -->
<g id="edge30" class="edge">
<title>20&#45;&gt;11</title>
<path fill="none" stroke="#c0c0c0" stroke-width="2" d="M676.7008,-215.8753C661.1777,-197.3079 642.7255,-167.863 656,-144 663.0918,-131.2514 674.5767,-121.1272 686.9096,-113.255"/>
<polygon fill="#c0c0c0" stroke="#c0c0c0" stroke-width="2" points="688.7077,-116.2579 695.5397,-108.1601 685.149,-110.23 688.7077,-116.2579"/>
</g>
<!-- 20&#45;&gt;18 -->
<g id="edge36" class="edge">
<title>20&#45;&gt;18</title>
<path fill="none" stroke="#c0c0c0" stroke-width="2" d="M708.6358,-215.8314C715.3161,-207.5386 723.3568,-197.557 730.6904,-188.4533"/>
<polygon fill="#c0c0c0" stroke="#c0c0c0" stroke-width="2" points="733.6194,-190.3965 737.1671,-180.4133 728.1681,-186.0052 733.6194,-190.3965"/>
</g>
<!-- 21 -->
<g id="node22" class="node">
<title>21</title>
<path fill="none" stroke="#56d8b1" stroke-width="2" d="M609,-396C609,-396 483,-396 483,-396 477,-396 471,-390 471,-384 471,-384 471,-372 471,-372 471,-366 477,-360 483,-360 483,-360 609,-360 609,-360 615,-360 621,-366 621,-372 621,-372 621,-384 621,-384 621,-390 615,-396 609,-396"/>
<text text-anchor="middle" x="546" y="-375.5" font-family="sans" font-size="10.00" fill="#000000">pe_remove_adapters_cutadapt</text>
</g>
<!-- 21&#45;&gt;12 -->
<g id="edge31" class="edge">
<title>21&#45;&gt;12</title>
<path fill="none" stroke="#c0c0c0" stroke-width="2" d="M546,-359.8314C546,-352.131 546,-342.9743 546,-334.4166"/>
<polygon fill="#c0c0c0" stroke="#c0c0c0" stroke-width="2" points="549.5001,-334.4132 546,-324.4133 542.5001,-334.4133 549.5001,-334.4132"/>
</g>
<!-- 22 -->
<g id="node23" class="node">
<title>22</title>
<path fill="none" stroke="#d85656" stroke-width="2" d="M292.5,-324C292.5,-324 205.5,-324 205.5,-324 199.5,-324 193.5,-318 193.5,-312 193.5,-312 193.5,-300 193.5,-300 193.5,-294 199.5,-288 205.5,-288 205.5,-288 292.5,-288 292.5,-288 298.5,-288 304.5,-294 304.5,-300 304.5,-300 304.5,-312 304.5,-312 304.5,-318 298.5,-324 292.5,-324"/>
<text text-anchor="middle" x="249" y="-303.5" font-family="sans" font-size="10.00" fill="#000000">extract_transcriptome</text>
</g>
<!-- 22&#45;&gt;13 -->
<g id="edge32" class="edge">
<title>22&#45;&gt;13</title>
<path fill="none" stroke="#c0c0c0" stroke-width="2" d="M302.725,-287.9243C332.1073,-278.0387 368.6852,-265.7321 399.4758,-255.3726"/>
<polygon fill="#c0c0c0" stroke="#c0c0c0" stroke-width="2" points="400.8911,-258.5893 409.2529,-252.0831 398.6588,-251.9548 400.8911,-258.5893"/>
</g>
<!-- 22&#45;&gt;15 -->
<g id="edge34" class="edge">
<title>22&#45;&gt;15</title>
<path fill="none" stroke="#c0c0c0" stroke-width="2" d="M249,-287.8314C249,-280.131 249,-270.9743 249,-262.4166"/>
<polygon fill="#c0c0c0" stroke="#c0c0c0" stroke-width="2" points="252.5001,-262.4132 249,-252.4133 245.5001,-262.4133 252.5001,-262.4132"/>
</g>
<!-- 23 -->
<g id="node24" class="node">
<title>23</title>
<path fill="none" stroke="#5692d8" stroke-width="2" d="M438,-396C438,-396 328,-396 328,-396 322,-396 316,-390 316,-384 316,-384 316,-372 316,-372 316,-366 322,-360 328,-360 328,-360 438,-360 438,-360 444,-360 450,-366 450,-372 450,-372 450,-384 450,-384 450,-390 444,-396 438,-396"/>
<text text-anchor="middle" x="383" y="-375.5" font-family="sans" font-size="10.00" fill="#000000">remove_adapters_cutadapt</text>
</g>
<!-- 23&#45;&gt;14 -->
<g id="edge33" class="edge">
<title>23&#45;&gt;14</title>
<path fill="none" stroke="#c0c0c0" stroke-width="2" d="M383,-359.8314C383,-352.131 383,-342.9743 383,-334.4166"/>
<polygon fill="#c0c0c0" stroke="#c0c0c0" stroke-width="2" points="386.5001,-334.4132 383,-324.4133 379.5001,-334.4133 386.5001,-334.4132"/>
</g>
<!-- 24 -->
<g id="node25" class="node">
<title>24</title>
<path fill="none" stroke="#56d88a" stroke-width="2" d="M844,-324C844,-324 774,-324 774,-324 768,-324 762,-318 762,-312 762,-312 762,-300 762,-300 762,-294 768,-288 774,-288 774,-288 844,-288 844,-288 850,-288 856,-294 856,-300 856,-300 856,-312 856,-312 856,-318 850,-324 844,-324"/>
<text text-anchor="middle" x="809" y="-303.5" font-family="sans" font-size="10.00" fill="#000000">create_index_star</text>
</g>
<!-- 24&#45;&gt;19 -->
<g id="edge38" class="edge">
<title>24&#45;&gt;19</title>
<path fill="none" stroke="#c0c0c0" stroke-width="2" d="M855.9357,-287.8314C881.1437,-278.0734 912.3926,-265.977 938.8791,-255.7242"/>
<polygon fill="#c0c0c0" stroke="#c0c0c0" stroke-width="2" points="940.3397,-258.912 948.4019,-252.038 937.8127,-252.384 940.3397,-258.912"/>
</g>
<!-- 24&#45;&gt;20 -->
<g id="edge40" class="edge">
<title>24&#45;&gt;20</title>
<path fill="none" stroke="#c0c0c0" stroke-width="2" d="M779.9806,-287.8314C765.2714,-278.6221 747.2356,-267.3301 731.4878,-257.4706"/>
<polygon fill="#c0c0c0" stroke="#c0c0c0" stroke-width="2" points="733.3433,-254.5029 723.0101,-252.1628 729.6286,-260.436 733.3433,-254.5029"/>
</g>
</g>
</svg>
