<?xml version="1.0" encoding="UTF-8" standalone="no"?>
<!DOCTYPE svg PUBLIC "-//W3C//DTD SVG 1.1//EN"
 "http://www.w3.org/Graphics/SVG/1.1/DTD/svg11.dtd">
<!-- Generated by graphviz version 2.40.1 (20161225.0304)
 -->
<!-- Title: snakemake_dag Pages: 1 -->
<svg width="1216pt" height="404pt"
 viewBox="0.00 0.00 1215.50 404.00" xmlns="http://www.w3.org/2000/svg" xmlns:xlink="http://www.w3.org/1999/xlink">
<g id="graph0" class="graph" transform="scale(1 1) rotate(0) translate(4 400)">
<title>snakemake_dag</title>
<polygon fill="#ffffff" stroke="transparent" points="-4,4 -4,-400 1211.5,-400 1211.5,4 -4,4"/>
<!-- 0 -->
<g id="node1" class="node">
<title>0</title>
<path fill="none" stroke="#d89c56" stroke-width="2" d="M278.5,-36C278.5,-36 248.5,-36 248.5,-36 242.5,-36 236.5,-30 236.5,-24 236.5,-24 236.5,-12 236.5,-12 236.5,-6 242.5,0 248.5,0 248.5,0 278.5,0 278.5,0 284.5,0 290.5,-6 290.5,-12 290.5,-12 290.5,-24 290.5,-24 290.5,-30 284.5,-36 278.5,-36"/>
<text text-anchor="middle" x="263.5" y="-15.5" font-family="sans" font-size="10.00" fill="#000000">finish</text>
</g>
<!-- 1 -->
<g id="node2" class="node">
<title>1</title>
<path fill="none" stroke="#d85656" stroke-width="2" d="M75.5,-108C75.5,-108 35.5,-108 35.5,-108 29.5,-108 23.5,-102 23.5,-96 23.5,-96 23.5,-84 23.5,-84 23.5,-78 29.5,-72 35.5,-72 35.5,-72 75.5,-72 75.5,-72 81.5,-72 87.5,-78 87.5,-84 87.5,-84 87.5,-96 87.5,-96 87.5,-102 81.5,-108 75.5,-108"/>
<text text-anchor="middle" x="55.5" y="-87.5" font-family="sans" font-size="10.00" fill="#000000">pe_fastqc</text>
</g>
<!-- 1&#45;&gt;0 -->
<g id="edge1" class="edge">
<title>1&#45;&gt;0</title>
<path fill="none" stroke="#c0c0c0" stroke-width="2" d="M87.602,-75.5405C90.594,-74.3037 93.5933,-73.1048 96.5,-72 140.5109,-55.2724 192.2328,-39.0651 226.324,-28.844"/>
<polygon fill="#c0c0c0" stroke="#c0c0c0" stroke-width="2" points="227.7248,-32.0788 236.3099,-25.8702 225.7269,-25.37 227.7248,-32.0788"/>
</g>
<!-- 2 -->
<g id="node3" class="node">
<title>2</title>
<path fill="none" stroke="#59d856" stroke-width="2" d="M147.5,-108C147.5,-108 117.5,-108 117.5,-108 111.5,-108 105.5,-102 105.5,-96 105.5,-96 105.5,-84 105.5,-84 105.5,-78 111.5,-72 117.5,-72 117.5,-72 147.5,-72 147.5,-72 153.5,-72 159.5,-78 159.5,-84 159.5,-84 159.5,-96 159.5,-96 159.5,-102 153.5,-108 147.5,-108"/>
<text text-anchor="middle" x="132.5" y="-87.5" font-family="sans" font-size="10.00" fill="#000000">fastqc</text>
</g>
<!-- 2&#45;&gt;0 -->
<g id="edge7" class="edge">
<title>2&#45;&gt;0</title>
<path fill="none" stroke="#c0c0c0" stroke-width="2" d="M159.6433,-75.0816C179.3158,-64.2692 206.1157,-49.5395 227.5636,-37.7513"/>
<polygon fill="#c0c0c0" stroke="#c0c0c0" stroke-width="2" points="229.3137,-40.7833 236.3915,-32.8993 225.9421,-34.6488 229.3137,-40.7833"/>
</g>
<!-- 3 -->
<g id="node4" class="node">
<title>3</title>
<path fill="none" stroke="#d86e56" stroke-width="2" d="M428.5,-180C428.5,-180 310.5,-180 310.5,-180 304.5,-180 298.5,-174 298.5,-168 298.5,-168 298.5,-156 298.5,-156 298.5,-150 304.5,-144 310.5,-144 310.5,-144 428.5,-144 428.5,-144 434.5,-144 440.5,-150 440.5,-156 440.5,-156 440.5,-168 440.5,-168 440.5,-174 434.5,-180 428.5,-180"/>
<text text-anchor="middle" x="369.5" y="-159.5" font-family="sans" font-size="10.00" fill="#000000">pe_quantification_salmon</text>
</g>
<!-- 3&#45;&gt;0 -->
<g id="edge2" class="edge">
<title>3&#45;&gt;0</title>
<path fill="none" stroke="#c0c0c0" stroke-width="2" d="M326.0408,-143.997C310.0967,-135.3368 293.3209,-123.4271 282.5,-108 269.8693,-89.9927 265.3299,-65.3098 263.8314,-46.3472"/>
<polygon fill="#c0c0c0" stroke="#c0c0c0" stroke-width="2" points="267.3177,-46.0003 263.2709,-36.2088 260.3284,-46.3868 267.3177,-46.0003"/>
</g>
<!-- 8 -->
<g id="node9" class="node">
<title>8</title>
<path fill="none" stroke="#b6d856" stroke-width="2" d="M629.5,-108C629.5,-108 477.5,-108 477.5,-108 471.5,-108 465.5,-102 465.5,-96 465.5,-96 465.5,-84 465.5,-84 465.5,-78 471.5,-72 477.5,-72 477.5,-72 629.5,-72 629.5,-72 635.5,-72 641.5,-78 641.5,-84 641.5,-84 641.5,-96 641.5,-96 641.5,-102 635.5,-108 629.5,-108"/>
<text text-anchor="middle" x="553.5" y="-87.5" font-family="sans" font-size="10.00" fill="#000000">salmon_quantmerge_genes_tpm</text>
</g>
<!-- 3&#45;&gt;8 -->
<g id="edge22" class="edge">
<title>3&#45;&gt;8</title>
<path fill="none" stroke="#c0c0c0" stroke-width="2" d="M415.931,-143.8314C440.868,-134.0734 471.7809,-121.977 497.9826,-111.7242"/>
<polygon fill="#c0c0c0" stroke="#c0c0c0" stroke-width="2" points="499.3659,-114.9414 507.4029,-108.038 496.8151,-108.4227 499.3659,-114.9414"/>
</g>
<!-- 9 -->
<g id="node10" class="node">
<title>9</title>
<path fill="none" stroke="#56d882" stroke-width="2" d="M435,-108C435,-108 304,-108 304,-108 298,-108 292,-102 292,-96 292,-96 292,-84 292,-84 292,-78 298,-72 304,-72 304,-72 435,-72 435,-72 441,-72 447,-78 447,-84 447,-84 447,-96 447,-96 447,-102 441,-108 435,-108"/>
<text text-anchor="middle" x="369.5" y="-87.5" font-family="sans" font-size="10.00" fill="#000000">salmon_quantmerge_tr_tpm</text>
</g>
<!-- 3&#45;&gt;9 -->
<g id="edge24" class="edge">
<title>3&#45;&gt;9</title>
<path fill="none" stroke="#c0c0c0" stroke-width="2" d="M369.5,-143.8314C369.5,-136.131 369.5,-126.9743 369.5,-118.4166"/>
<polygon fill="#c0c0c0" stroke="#c0c0c0" stroke-width="2" points="373.0001,-118.4132 369.5,-108.4133 366.0001,-118.4133 373.0001,-118.4132"/>
</g>
<!-- 4 -->
<g id="node5" class="node">
<title>4</title>
<path fill="none" stroke="#9fd856" stroke-width="2" d="M572,-180C572,-180 471,-180 471,-180 465,-180 459,-174 459,-168 459,-168 459,-156 459,-156 459,-150 465,-144 471,-144 471,-144 572,-144 572,-144 578,-144 584,-150 584,-156 584,-156 584,-168 584,-168 584,-174 578,-180 572,-180"/>
<text text-anchor="middle" x="521.5" y="-159.5" font-family="sans" font-size="10.00" fill="#000000">quantification_salmon</text>
</g>
<!-- 4&#45;&gt;0 -->
<g id="edge6" class="edge">
<title>4&#45;&gt;0</title>
<path fill="none" stroke="#c0c0c0" stroke-width="2" d="M581.6631,-143.9748C611.1402,-133.8034 642.0932,-120.6327 650.5,-108 659.3642,-94.6799 661.0029,-84.0702 650.5,-72 627.6671,-45.7599 393.0238,-26.9047 300.6114,-20.4437"/>
<polygon fill="#c0c0c0" stroke="#c0c0c0" stroke-width="2" points="300.7979,-16.9483 290.5808,-19.7522 300.3164,-23.9318 300.7979,-16.9483"/>
</g>
<!-- 4&#45;&gt;8 -->
<g id="edge21" class="edge">
<title>4&#45;&gt;8</title>
<path fill="none" stroke="#c0c0c0" stroke-width="2" d="M529.575,-143.8314C533.1102,-135.8771 537.336,-126.369 541.2456,-117.5723"/>
<polygon fill="#c0c0c0" stroke="#c0c0c0" stroke-width="2" points="544.4532,-118.9729 545.3163,-108.4133 538.0565,-116.1299 544.4532,-118.9729"/>
</g>
<!-- 4&#45;&gt;9 -->
<g id="edge23" class="edge">
<title>4&#45;&gt;9</title>
<path fill="none" stroke="#c0c0c0" stroke-width="2" d="M483.144,-143.8314C462.9956,-134.2874 438.1248,-122.5065 416.7917,-112.4013"/>
<polygon fill="#c0c0c0" stroke="#c0c0c0" stroke-width="2" points="418.1159,-109.1558 407.5802,-108.038 415.1193,-115.482 418.1159,-109.1558"/>
</g>
<!-- 5 -->
<g id="node6" class="node">
<title>5</title>
<path fill="none" stroke="#d8cb56" stroke-width="2" d="M175,-252C175,-252 12,-252 12,-252 6,-252 0,-246 0,-240 0,-240 0,-228 0,-228 0,-222 6,-216 12,-216 12,-216 175,-216 175,-216 181,-216 187,-222 187,-228 187,-228 187,-240 187,-240 187,-246 181,-252 175,-252"/>
<text text-anchor="middle" x="93.5" y="-231.5" font-family="sans" font-size="10.00" fill="#000000">pe_genome_quantification_kallisto</text>
</g>
<!-- 5&#45;&gt;0 -->
<g id="edge3" class="edge">
<title>5&#45;&gt;0</title>
<path fill="none" stroke="#c0c0c0" stroke-width="2" d="M107.7017,-215.9555C137.7641,-177.7585 207.9332,-88.6025 242.9143,-44.1559"/>
<polygon fill="#c0c0c0" stroke="#c0c0c0" stroke-width="2" points="245.7848,-46.1679 249.2192,-36.1451 240.2841,-41.8386 245.7848,-46.1679"/>
</g>
<!-- 6 -->
<g id="node7" class="node">
<title>6</title>
<path fill="none" stroke="#566bd8" stroke-width="2" d="M363.5,-252C363.5,-252 217.5,-252 217.5,-252 211.5,-252 205.5,-246 205.5,-240 205.5,-240 205.5,-228 205.5,-228 205.5,-222 211.5,-216 217.5,-216 217.5,-216 363.5,-216 363.5,-216 369.5,-216 375.5,-222 375.5,-228 375.5,-228 375.5,-240 375.5,-240 375.5,-246 369.5,-252 363.5,-252"/>
<text text-anchor="middle" x="290.5" y="-231.5" font-family="sans" font-size="10.00" fill="#000000">genome_quantification_kallisto</text>
</g>
<!-- 6&#45;&gt;0 -->
<g id="edge4" class="edge">
<title>6&#45;&gt;0</title>
<path fill="none" stroke="#c0c0c0" stroke-width="2" d="M285.5956,-215.8118C279.2989,-191.4728 268.6861,-146.863 264.5,-108 262.2861,-87.4468 262.0933,-64.1016 262.4239,-46.3388"/>
<polygon fill="#c0c0c0" stroke="#c0c0c0" stroke-width="2" points="265.923,-46.4174 262.6759,-36.3324 258.9252,-46.2411 265.923,-46.4174"/>
</g>
<!-- 7 -->
<g id="node8" class="node">
<title>7</title>
<path fill="none" stroke="#56d89a" stroke-width="2" d="M883,-108C883,-108 788,-108 788,-108 782,-108 776,-102 776,-96 776,-96 776,-84 776,-84 776,-78 782,-72 788,-72 788,-72 883,-72 883,-72 889,-72 895,-78 895,-84 895,-84 895,-96 895,-96 895,-102 889,-108 883,-108"/>
<text text-anchor="middle" x="835.5" y="-87.5" font-family="sans" font-size="10.00" fill="#000000">calculate_TIN_scores</text>
</g>
<!-- 7&#45;&gt;0 -->
<g id="edge9" class="edge">
<title>7&#45;&gt;0</title>
<path fill="none" stroke="#c0c0c0" stroke-width="2" d="M775.9047,-82.4985C658,-67.6573 397.9937,-34.9293 300.9757,-22.7172"/>
<polygon fill="#c0c0c0" stroke="#c0c0c0" stroke-width="2" points="301.1269,-19.2087 290.768,-21.4323 300.2526,-26.1539 301.1269,-19.2087"/>
</g>
<!-- 8&#45;&gt;0 -->
<g id="edge5" class="edge">
<title>8&#45;&gt;0</title>
<path fill="none" stroke="#c0c0c0" stroke-width="2" d="M480.6951,-71.9243C423.4138,-57.7027 345.9515,-38.4707 300.6911,-27.2337"/>
<polygon fill="#c0c0c0" stroke="#c0c0c0" stroke-width="2" points="301.2742,-23.7722 290.7254,-24.7594 299.5874,-30.566 301.2742,-23.7722"/>
</g>
<!-- 9&#45;&gt;0 -->
<g id="edge8" class="edge">
<title>9&#45;&gt;0</title>
<path fill="none" stroke="#c0c0c0" stroke-width="2" d="M342.7517,-71.8314C329.4447,-62.7927 313.184,-51.7476 298.8625,-42.0198"/>
<polygon fill="#c0c0c0" stroke="#c0c0c0" stroke-width="2" points="300.4785,-38.8864 290.2397,-36.1628 296.5453,-44.677 300.4785,-38.8864"/>
</g>
<!-- 10 -->
<g id="node11" class="node">
<title>10</title>
<path fill="none" stroke="#56c9d8" stroke-width="2" d="M467.5,-324C467.5,-324 339.5,-324 339.5,-324 333.5,-324 327.5,-318 327.5,-312 327.5,-312 327.5,-300 327.5,-300 327.5,-294 333.5,-288 339.5,-288 339.5,-288 467.5,-288 467.5,-288 473.5,-288 479.5,-294 479.5,-300 479.5,-300 479.5,-312 479.5,-312 479.5,-318 473.5,-324 467.5,-324"/>
<text text-anchor="middle" x="403.5" y="-303.5" font-family="sans" font-size="10.00" fill="#000000">pe_remove_polya_cutadapt</text>
</g>
<!-- 10&#45;&gt;3 -->
<g id="edge11" class="edge">
<title>10&#45;&gt;3</title>
<path fill="none" stroke="#c0c0c0" stroke-width="2" d="M400.0453,-287.9951C396.4678,-269.7725 390.5612,-240.8217 384.5,-216 382.4324,-207.5329 379.9752,-198.3795 377.6542,-190.0569"/>
<polygon fill="#c0c0c0" stroke="#c0c0c0" stroke-width="2" points="381.0174,-189.0876 374.9259,-180.4191 374.2821,-190.9943 381.0174,-189.0876"/>
</g>
<!-- 10&#45;&gt;5 -->
<g id="edge15" class="edge">
<title>10&#45;&gt;5</title>
<path fill="none" stroke="#c0c0c0" stroke-width="2" d="M327.2684,-288.2946C283.0085,-278.0149 227.0782,-265.0246 181.0234,-254.328"/>
<polygon fill="#c0c0c0" stroke="#c0c0c0" stroke-width="2" points="181.5861,-250.8656 171.0536,-252.0124 180.0024,-257.6841 181.5861,-250.8656"/>
</g>
<!-- 19 -->
<g id="node20" class="node">
<title>19</title>
<path fill="none" stroke="#d8b456" stroke-width="2" d="M753,-252C753,-252 652,-252 652,-252 646,-252 640,-246 640,-240 640,-240 640,-228 640,-228 640,-222 646,-216 652,-216 652,-216 753,-216 753,-216 759,-216 765,-222 765,-228 765,-228 765,-240 765,-240 765,-246 759,-252 753,-252"/>
<text text-anchor="middle" x="702.5" y="-231.5" font-family="sans" font-size="10.00" fill="#000000">pe_map_genome_star</text>
</g>
<!-- 10&#45;&gt;19 -->
<g id="edge29" class="edge">
<title>10&#45;&gt;19</title>
<path fill="none" stroke="#c0c0c0" stroke-width="2" d="M478.5644,-287.9243C524.8179,-276.7863 583.8339,-262.5751 629.6681,-251.5381"/>
<polygon fill="#c0c0c0" stroke="#c0c0c0" stroke-width="2" points="630.6316,-254.9062 639.5343,-249.1623 628.9927,-248.1008 630.6316,-254.9062"/>
</g>
<!-- 11 -->
<g id="node12" class="node">
<title>11</title>
<path fill="none" stroke="#70d856" stroke-width="2" d="M541,-252C541,-252 444,-252 444,-252 438,-252 432,-246 432,-240 432,-240 432,-228 432,-228 432,-222 438,-216 444,-216 444,-216 541,-216 541,-216 547,-216 553,-222 553,-228 553,-228 553,-240 553,-240 553,-246 547,-252 541,-252"/>
<text text-anchor="middle" x="492.5" y="-231.5" font-family="sans" font-size="10.00" fill="#000000">create_index_salmon</text>
</g>
<!-- 11&#45;&gt;3 -->
<g id="edge10" class="edge">
<title>11&#45;&gt;3</title>
<path fill="none" stroke="#c0c0c0" stroke-width="2" d="M461.4619,-215.8314C445.7295,-206.6221 426.4389,-195.3301 409.5956,-185.4706"/>
<polygon fill="#c0c0c0" stroke="#c0c0c0" stroke-width="2" points="410.9265,-182.1941 400.5282,-180.1628 407.3902,-188.2352 410.9265,-182.1941"/>
</g>
<!-- 11&#45;&gt;4 -->
<g id="edge12" class="edge">
<title>11&#45;&gt;4</title>
<path fill="none" stroke="#c0c0c0" stroke-width="2" d="M499.8179,-215.8314C502.9876,-207.9617 506.77,-198.5712 510.2813,-189.8533"/>
<polygon fill="#c0c0c0" stroke="#c0c0c0" stroke-width="2" points="513.5939,-190.9968 514.0835,-180.4133 507.1008,-188.3815 513.5939,-190.9968"/>
</g>
<!-- 12 -->
<g id="node13" class="node">
<title>12</title>
<path fill="none" stroke="#d88556" stroke-width="2" d="M636.5,-324C636.5,-324 526.5,-324 526.5,-324 520.5,-324 514.5,-318 514.5,-312 514.5,-312 514.5,-300 514.5,-300 514.5,-294 520.5,-288 526.5,-288 526.5,-288 636.5,-288 636.5,-288 642.5,-288 648.5,-294 648.5,-300 648.5,-300 648.5,-312 648.5,-312 648.5,-318 642.5,-324 636.5,-324"/>
<text text-anchor="middle" x="581.5" y="-303.5" font-family="sans" font-size="10.00" fill="#000000">remove_polya_cutadapt</text>
</g>
<!-- 12&#45;&gt;4 -->
<g id="edge13" class="edge">
<title>12&#45;&gt;4</title>
<path fill="none" stroke="#c0c0c0" stroke-width="2" d="M580.0081,-287.6774C577.9477,-268.9522 573.1883,-239.3838 562.5,-216 558.0225,-206.2043 551.508,-196.5125 544.9846,-188.1017"/>
<polygon fill="#c0c0c0" stroke="#c0c0c0" stroke-width="2" points="547.5556,-185.7156 538.5333,-180.1615 542.1228,-190.1297 547.5556,-185.7156"/>
</g>
<!-- 12&#45;&gt;6 -->
<g id="edge16" class="edge">
<title>12&#45;&gt;6</title>
<path fill="none" stroke="#c0c0c0" stroke-width="2" d="M514.3733,-289.3913C472.3963,-279.0053 418.0143,-265.5499 373.3607,-254.5016"/>
<polygon fill="#c0c0c0" stroke="#c0c0c0" stroke-width="2" points="373.9537,-251.0429 363.4057,-252.0385 372.2724,-257.838 373.9537,-251.0429"/>
</g>
<!-- 20 -->
<g id="node21" class="node">
<title>20</title>
<path fill="none" stroke="#56d8b1" stroke-width="2" d="M878,-252C878,-252 795,-252 795,-252 789,-252 783,-246 783,-240 783,-240 783,-228 783,-228 783,-222 789,-216 795,-216 795,-216 878,-216 878,-216 884,-216 890,-222 890,-228 890,-228 890,-240 890,-240 890,-246 884,-252 878,-252"/>
<text text-anchor="middle" x="836.5" y="-231.5" font-family="sans" font-size="10.00" fill="#000000">map_genome_star</text>
</g>
<!-- 12&#45;&gt;20 -->
<g id="edge31" class="edge">
<title>12&#45;&gt;20</title>
<path fill="none" stroke="#c0c0c0" stroke-width="2" d="M646.7594,-287.9111C681.7622,-278.169 725.8822,-265.8263 772.9686,-252.4263"/>
<polygon fill="#c0c0c0" stroke="#c0c0c0" stroke-width="2" points="774.0824,-255.7483 782.7407,-249.6422 772.1644,-249.0162 774.0824,-255.7483"/>
</g>
<!-- 13 -->
<g id="node14" class="node">
<title>13</title>
<path fill="none" stroke="#56d8c9" stroke-width="2" d="M220,-324C220,-324 123,-324 123,-324 117,-324 111,-318 111,-312 111,-312 111,-300 111,-300 111,-294 117,-288 123,-288 123,-288 220,-288 220,-288 226,-288 232,-294 232,-300 232,-300 232,-312 232,-312 232,-318 226,-324 220,-324"/>
<text text-anchor="middle" x="171.5" y="-303.5" font-family="sans" font-size="10.00" fill="#000000">create_index_kallisto</text>
</g>
<!-- 13&#45;&gt;5 -->
<g id="edge14" class="edge">
<title>13&#45;&gt;5</title>
<path fill="none" stroke="#c0c0c0" stroke-width="2" d="M151.8173,-287.8314C142.3949,-279.1337 130.9599,-268.5783 120.7204,-259.1265"/>
<polygon fill="#c0c0c0" stroke="#c0c0c0" stroke-width="2" points="122.8984,-256.3738 113.1764,-252.1628 118.1505,-261.5175 122.8984,-256.3738"/>
</g>
<!-- 13&#45;&gt;6 -->
<g id="edge17" class="edge">
<title>13&#45;&gt;6</title>
<path fill="none" stroke="#c0c0c0" stroke-width="2" d="M201.5287,-287.8314C216.7496,-278.6221 235.4128,-267.3301 251.7083,-257.4706"/>
<polygon fill="#c0c0c0" stroke="#c0c0c0" stroke-width="2" points="253.7369,-260.3341 260.4809,-252.1628 250.1132,-254.345 253.7369,-260.3341"/>
</g>
<!-- 14 -->
<g id="node15" class="node">
<title>14</title>
<path fill="none" stroke="#56b1d8" stroke-width="2" d="M803,-180C803,-180 614,-180 614,-180 608,-180 602,-174 602,-168 602,-168 602,-156 602,-156 602,-150 608,-144 614,-144 614,-144 803,-144 803,-144 809,-144 815,-150 815,-156 815,-156 815,-168 815,-168 815,-174 809,-180 803,-180"/>
<text text-anchor="middle" x="708.5" y="-159.5" font-family="sans" font-size="10.00" fill="#000000">pe_index_genomic_alignment_samtools</text>
</g>
<!-- 14&#45;&gt;7 -->
<g id="edge19" class="edge">
<title>14&#45;&gt;7</title>
<path fill="none" stroke="#c0c0c0" stroke-width="2" d="M740.5475,-143.8314C756.942,-134.5368 777.0786,-123.1208 794.5829,-113.1971"/>
<polygon fill="#c0c0c0" stroke="#c0c0c0" stroke-width="2" points="796.4897,-116.1395 803.4628,-108.1628 793.0374,-110.05 796.4897,-116.1395"/>
</g>
<!-- 15 -->
<g id="node16" class="node">
<title>15</title>
<path fill="none" stroke="#569ad8" stroke-width="2" d="M981.5,-180C981.5,-180 845.5,-180 845.5,-180 839.5,-180 833.5,-174 833.5,-168 833.5,-168 833.5,-156 833.5,-156 833.5,-150 839.5,-144 845.5,-144 845.5,-144 981.5,-144 981.5,-144 987.5,-144 993.5,-150 993.5,-156 993.5,-156 993.5,-168 993.5,-168 993.5,-174 987.5,-180 981.5,-180"/>
<text text-anchor="middle" x="913.5" y="-159.5" font-family="sans" font-size="10.00" fill="#000000">extract_transcripts_as_bed12</text>
</g>
<!-- 15&#45;&gt;7 -->
<g id="edge18" class="edge">
<title>15&#45;&gt;7</title>
<path fill="none" stroke="#c0c0c0" stroke-width="2" d="M893.8173,-143.8314C884.3949,-135.1337 872.9599,-124.5783 862.7204,-115.1265"/>
<polygon fill="#c0c0c0" stroke="#c0c0c0" stroke-width="2" points="864.8984,-112.3738 855.1764,-108.1628 860.1505,-117.5175 864.8984,-112.3738"/>
</g>
<!-- 16 -->
<g id="node17" class="node">
<title>16</title>
<path fill="none" stroke="#56d86b" stroke-width="2" d="M1195.5,-180C1195.5,-180 1023.5,-180 1023.5,-180 1017.5,-180 1011.5,-174 1011.5,-168 1011.5,-168 1011.5,-156 1011.5,-156 1011.5,-150 1017.5,-144 1023.5,-144 1023.5,-144 1195.5,-144 1195.5,-144 1201.5,-144 1207.5,-150 1207.5,-156 1207.5,-156 1207.5,-168 1207.5,-168 1207.5,-174 1201.5,-180 1195.5,-180"/>
<text text-anchor="middle" x="1109.5" y="-159.5" font-family="sans" font-size="10.00" fill="#000000">index_genomic_alignment_samtools</text>
</g>
<!-- 16&#45;&gt;7 -->
<g id="edge20" class="edge">
<title>16&#45;&gt;7</title>
<path fill="none" stroke="#c0c0c0" stroke-width="2" d="M1040.7119,-143.9243C999.1793,-133.0106 946.4177,-119.1463 904.7944,-108.2087"/>
<polygon fill="#c0c0c0" stroke="#c0c0c0" stroke-width="2" points="905.5712,-104.7941 895.01,-105.6377 903.7921,-111.5643 905.5712,-104.7941"/>
</g>
<!-- 17 -->
<g id="node18" class="node">
<title>17</title>
<path fill="none" stroke="#5682d8" stroke-width="2" d="M475,-396C475,-396 332,-396 332,-396 326,-396 320,-390 320,-384 320,-384 320,-372 320,-372 320,-366 326,-360 332,-360 332,-360 475,-360 475,-360 481,-360 487,-366 487,-372 487,-372 487,-384 487,-384 487,-390 481,-396 475,-396"/>
<text text-anchor="middle" x="403.5" y="-375.5" font-family="sans" font-size="10.00" fill="#000000">pe_remove_adapters_cutadapt</text>
</g>
<!-- 17&#45;&gt;10 -->
<g id="edge25" class="edge">
<title>17&#45;&gt;10</title>
<path fill="none" stroke="#c0c0c0" stroke-width="2" d="M403.5,-359.8314C403.5,-352.131 403.5,-342.9743 403.5,-334.4166"/>
<polygon fill="#c0c0c0" stroke="#c0c0c0" stroke-width="2" points="407.0001,-334.4132 403.5,-324.4133 400.0001,-334.4133 407.0001,-334.4132"/>
</g>
<!-- 18 -->
<g id="node19" class="node">
<title>18</title>
<path fill="none" stroke="#ced856" stroke-width="2" d="M644.5,-396C644.5,-396 518.5,-396 518.5,-396 512.5,-396 506.5,-390 506.5,-384 506.5,-384 506.5,-372 506.5,-372 506.5,-366 512.5,-360 518.5,-360 518.5,-360 644.5,-360 644.5,-360 650.5,-360 656.5,-366 656.5,-372 656.5,-372 656.5,-384 656.5,-384 656.5,-390 650.5,-396 644.5,-396"/>
<text text-anchor="middle" x="581.5" y="-375.5" font-family="sans" font-size="10.00" fill="#000000">remove_adapters_cutadapt</text>
</g>
<!-- 18&#45;&gt;12 -->
<g id="edge26" class="edge">
<title>18&#45;&gt;12</title>
<path fill="none" stroke="#c0c0c0" stroke-width="2" d="M581.5,-359.8314C581.5,-352.131 581.5,-342.9743 581.5,-334.4166"/>
<polygon fill="#c0c0c0" stroke="#c0c0c0" stroke-width="2" points="585.0001,-334.4132 581.5,-324.4133 578.0001,-334.4133 585.0001,-334.4132"/>
</g>
<!-- 19&#45;&gt;14 -->
<g id="edge27" class="edge">
<title>19&#45;&gt;14</title>
<path fill="none" stroke="#c0c0c0" stroke-width="2" d="M704.0141,-215.8314C704.6558,-208.131 705.4188,-198.9743 706.1319,-190.4166"/>
<polygon fill="#c0c0c0" stroke="#c0c0c0" stroke-width="2" points="709.6229,-190.6694 706.9656,-180.4133 702.6471,-190.088 709.6229,-190.6694"/>
</g>
<!-- 20&#45;&gt;16 -->
<g id="edge28" class="edge">
<title>20&#45;&gt;16</title>
<path fill="none" stroke="#c0c0c0" stroke-width="2" d="M890.1103,-219.861C930.4003,-209.2351 986.1963,-194.5197 1031.4359,-182.5883"/>
<polygon fill="#c0c0c0" stroke="#c0c0c0" stroke-width="2" points="1032.4367,-185.9441 1041.2135,-180.0096 1030.6515,-179.1756 1032.4367,-185.9441"/>
</g>
<!-- 21 -->
<g id="node22" class="node">
<title>21</title>
<path fill="none" stroke="#88d856" stroke-width="2" d="M770.5,-324C770.5,-324 690.5,-324 690.5,-324 684.5,-324 678.5,-318 678.5,-312 678.5,-312 678.5,-300 678.5,-300 678.5,-294 684.5,-288 690.5,-288 690.5,-288 770.5,-288 770.5,-288 776.5,-288 782.5,-294 782.5,-300 782.5,-300 782.5,-312 782.5,-312 782.5,-318 776.5,-324 770.5,-324"/>
<text text-anchor="middle" x="730.5" y="-303.5" font-family="sans" font-size="10.00" fill="#000000">create_index_star</text>
</g>
<!-- 21&#45;&gt;19 -->
<g id="edge30" class="edge">
<title>21&#45;&gt;19</title>
<path fill="none" stroke="#c0c0c0" stroke-width="2" d="M723.4344,-287.8314C720.374,-279.9617 716.7221,-270.5712 713.3318,-261.8533"/>
<polygon fill="#c0c0c0" stroke="#c0c0c0" stroke-width="2" points="716.5473,-260.4647 709.6607,-252.4133 710.0232,-263.0019 716.5473,-260.4647"/>
</g>
<!-- 21&#45;&gt;20 -->
<g id="edge32" class="edge">
<title>21&#45;&gt;20</title>
<path fill="none" stroke="#c0c0c0" stroke-width="2" d="M757.2483,-287.8314C770.5553,-278.7927 786.816,-267.7476 801.1375,-258.0198"/>
<polygon fill="#c0c0c0" stroke="#c0c0c0" stroke-width="2" points="803.4547,-260.677 809.7603,-252.1628 799.5215,-254.8864 803.4547,-260.677"/>
</g>
</g>
</svg>
