<?xml version="1.0" encoding="UTF-8" standalone="no"?>
<!DOCTYPE svg PUBLIC "-//W3C//DTD SVG 1.1//EN"
 "http://www.w3.org/Graphics/SVG/1.1/DTD/svg11.dtd">
<!-- Generated by graphviz version 2.40.1 (20161225.0304)
 -->
<!-- Title: snakemake_dag Pages: 1 -->
<svg width="928pt" height="620pt"
 viewBox="0.00 0.00 928.00 620.00" xmlns="http://www.w3.org/2000/svg" xmlns:xlink="http://www.w3.org/1999/xlink">
<g id="graph0" class="graph" transform="scale(1 1) rotate(0) translate(4 616)">
<title>snakemake_dag</title>
<polygon fill="#ffffff" stroke="transparent" points="-4,4 -4,-616 924,-616 924,4 -4,4"/>
<!-- 0 -->
<g id="node1" class="node">
<title>0</title>
<path fill="none" stroke="#d87d56" stroke-width="2" d="M506,-36C506,-36 476,-36 476,-36 470,-36 464,-30 464,-24 464,-24 464,-12 464,-12 464,-6 470,0 476,0 476,0 506,0 506,0 512,0 518,-6 518,-12 518,-12 518,-24 518,-24 518,-30 512,-36 506,-36"/>
<text text-anchor="middle" x="491" y="-15.5" font-family="sans" font-size="10.00">finish</text>
</g>
<!-- 1 -->
<g id="node2" class="node">
<title>1</title>
<path fill="none" stroke="#5692d8" stroke-width="2" d="M188,-108C188,-108 148,-108 148,-108 142,-108 136,-102 136,-96 136,-96 136,-84 136,-84 136,-78 142,-72 148,-72 148,-72 188,-72 188,-72 194,-72 200,-78 200,-84 200,-84 200,-96 200,-96 200,-102 194,-108 188,-108"/>
<text text-anchor="middle" x="168" y="-87.5" font-family="sans" font-size="10.00">pe_fastqc</text>
</g>
<!-- 1&#45;&gt;0 -->
<g id="edge5" class="edge">
<title>1&#45;&gt;0</title>
<path fill="none" stroke="#c0c0c0" stroke-width="2" d="M178.8809,-75.1457C181.7596,-73.9918 184.6625,-72.9199 187.5,-72 269.8699,-45.2967 370.6652,-29.5703 424.089,-22.5013"/>
<polygon fill="#c0c0c0" stroke="#c0c0c0" stroke-width="2" points="424.6548,-25.9574 434.1226,-21.2023 423.7559,-19.0153 424.6548,-25.9574"/>
</g>
<!-- 2 -->
<g id="node3" class="node">
<title>2</title>
<path fill="none" stroke="#d6d856" stroke-width="2" d="M260,-108C260,-108 230,-108 230,-108 224,-108 218,-102 218,-96 218,-96 218,-84 218,-84 218,-78 224,-72 230,-72 230,-72 260,-72 260,-72 266,-72 272,-78 272,-84 272,-84 272,-96 272,-96 272,-102 266,-108 260,-108"/>
<text text-anchor="middle" x="245" y="-87.5" font-family="sans" font-size="10.00">fastqc</text>
</g>
<!-- 2&#45;&gt;0 -->
<g id="edge10" class="edge">
<title>2&#45;&gt;0</title>
<path fill="none" stroke="#c0c0c0" stroke-width="2" d="M250.6237,-77.4299C255.2099,-75.4961 259.9571,-73.6101 264.5,-72 319.2332,-52.601 384.5468,-35.9254 424.5126,-26.426"/>
<polygon fill="#c0c0c0" stroke="#c0c0c0" stroke-width="2" points="425.4171,-29.8089 434.3496,-24.1114 423.8138,-22.9949 425.4171,-29.8089"/>
</g>
<!-- 3 -->
<g id="node4" class="node">
<title>3</title>
<path fill="none" stroke="#d88d56" stroke-width="2" d="M471.5,-468C471.5,-468 308.5,-468 308.5,-468 302.5,-468 296.5,-462 296.5,-456 296.5,-456 296.5,-444 296.5,-444 296.5,-438 302.5,-432 308.5,-432 308.5,-432 471.5,-432 471.5,-432 477.5,-432 483.5,-438 483.5,-444 483.5,-444 483.5,-456 483.5,-456 483.5,-462 477.5,-468 471.5,-468"/>
<text text-anchor="middle" x="390" y="-447.5" font-family="sans" font-size="10.00">pe_genome_quantification_kallisto</text>
</g>
<!-- 3&#45;&gt;0 -->
<g id="edge8" class="edge">
<title>3&#45;&gt;0</title>
<path fill="none" stroke="#c0c0c0" stroke-width="2" d="M426.8518,-431.9753C445.2157,-423.339 465.0745,-411.4518 479.5,-396 509.3711,-364.0037 519.5,-349.7727 519.5,-306 519.5,-306 519.5,-306 519.5,-162 519.5,-118.6562 496.6108,-72.9417 479.5907,-44.9402"/>
<polygon fill="#c0c0c0" stroke="#c0c0c0" stroke-width="2" points="482.3602,-42.7684 474.0851,-36.1522 476.4281,-46.4847 482.3602,-42.7684"/>
</g>
<!-- 4 -->
<g id="node5" class="node">
<title>4</title>
<path fill="none" stroke="#567bd8" stroke-width="2" d="M660,-468C660,-468 514,-468 514,-468 508,-468 502,-462 502,-456 502,-456 502,-444 502,-444 502,-438 508,-432 514,-432 514,-432 660,-432 660,-432 666,-432 672,-438 672,-444 672,-444 672,-456 672,-456 672,-462 666,-468 660,-468"/>
<text text-anchor="middle" x="587" y="-447.5" font-family="sans" font-size="10.00">genome_quantification_kallisto</text>
</g>
<!-- 4&#45;&gt;0 -->
<g id="edge7" class="edge">
<title>4&#45;&gt;0</title>
<path fill="none" stroke="#c0c0c0" stroke-width="2" d="M557.5,-431.8146C557.5,-404.4983 557.5,-351.25 557.5,-306 557.5,-306 557.5,-306 557.5,-162 557.5,-113.9377 520.0183,-69.7161 491.8956,-43.3006"/>
<polygon fill="#c0c0c0" stroke="#c0c0c0" stroke-width="2" points="493.9995,-40.4826 484.2507,-36.3339 489.2845,-45.6565 493.9995,-40.4826"/>
</g>
<!-- 5 -->
<g id="node6" class="node">
<title>5</title>
<path fill="none" stroke="#bed856" stroke-width="2" d="M424,-324C424,-324 335,-324 335,-324 329,-324 323,-318 323,-312 323,-312 323,-300 323,-300 323,-294 329,-288 335,-288 335,-288 424,-288 424,-288 430,-288 436,-294 436,-300 436,-300 436,-312 436,-312 436,-318 430,-324 424,-324"/>
<text text-anchor="middle" x="379.5" y="-303.5" font-family="sans" font-size="10.00" fill="#000000">calculate_TIN_scores</text>
</g>
<!-- 5&#45;&gt;0 -->
<g id="edge3" class="edge">
<title>5&#45;&gt;0</title>
<path fill="none" stroke="#c0c0c0" stroke-width="2" d="M419.4342,-287.8338C433.7482,-279.1511 448.3504,-267.2686 456.5,-252 492.0906,-185.3197 478.6004,-91.9985 468.5639,-45.9554"/>
<polygon fill="#c0c0c0" stroke="#c0c0c0" stroke-width="2" points="471.9491,-45.0584 466.3062,-36.0914 465.1256,-46.6202 471.9491,-45.0584"/>
</g>
<!-- 6 -->
<g id="node7" class="node">
<title>6</title>
<path fill="none" stroke="#56a2d8" stroke-width="2" d="M775,-396C775,-396 647,-396 647,-396 641,-396 635,-390 635,-384 635,-384 635,-372 635,-372 635,-366 641,-360 647,-360 647,-360 775,-360 775,-360 781,-360 787,-366 787,-372 787,-372 787,-384 787,-384 787,-390 781,-396 775,-396"/>
<text text-anchor="middle" x="711" y="-375.5" font-family="sans" font-size="10.00">salmon_quantmerge_genes</text>
</g>
<!-- 6&#45;&gt;0 -->
<g id="edge2" class="edge">
<title>6&#45;&gt;0</title>
<path fill="none" stroke="#c0c0c0" stroke-width="2" d="M666.1378,-359.615C657.3315,-332.4838 642.5,-279.9662 642.5,-234 642.5,-234 642.5,-234 642.5,-162 642.5,-89.0041 551.2336,-47.0665 498.3164,-28.8855"/>
<polygon fill="#c0c0c0" stroke="#c0c0c0" stroke-width="2" points="499.1909,-25.4882 488.5975,-25.6643 496.9886,-32.1327 499.1909,-25.4882"/>
</g>
<!-- 7 -->
<g id="node8" class="node">
<title>7</title>
<path fill="none" stroke="#56d863" stroke-width="2" d="M967,-396C967,-396 817,-396 817,-396 811,-396 805,-390 805,-384 805,-384 805,-372 805,-372 805,-366 811,-360 817,-360 817,-360 967,-360 967,-360 973,-360 979,-366 979,-372 979,-372 979,-384 979,-384 979,-390 973,-396 967,-396"/>
<text text-anchor="middle" x="892" y="-375.5" font-family="sans" font-size="10.00">salmon_quantmerge_transcripts</text>
</g>
<!-- 7&#45;&gt;0 -->
<g id="edge9" class="edge">
<title>7&#45;&gt;0</title>
<path fill="none" stroke="#c0c0c0" stroke-width="2" d="M830.0847,-359.5566C815.9675,-332.7787 792.5,-281.1706 792.5,-234 792.5,-234 792.5,-234 792.5,-162 792.5,-98.468 584.8637,-45.2424 498.4964,-25.851"/>
<polygon fill="#c0c0c0" stroke="#c0c0c0" stroke-width="2" points="499.1075,-22.4016 488.5871,-23.6555 497.5932,-29.2358 499.1075,-22.4016"/>
</g>
<!-- 8 -->
<g id="node9" class="node">
<title>8</title>
<path fill="none" stroke="#56d88a" stroke-width="2" d="M313,-324C313,-324 277,-324 277,-324 271,-324 265,-318 265,-312 265,-312 265,-300 265,-300 265,-294 271,-288 277,-288 277,-288 313,-288 313,-288 319,-288 325,-294 325,-300 325,-300 325,-312 325,-312 325,-318 319,-324 313,-324"/>
<text text-anchor="middle" x="295" y="-303.5" font-family="sans" font-size="10.00">star_rpm</text>
</g>
<!-- 8&#45;&gt;0 -->
<g id="edge4" class="edge">
<title>8&#45;&gt;0</title>
<path fill="none" stroke="#c0c0c0" stroke-width="2" d="M304.8323,-290.9295C320.6931,-281.406 339.9431,-267.906 353.5,-252 407.7356,-188.3668 440.338,-92.9502 453.9913,-46.0563"/>
<polygon fill="#c0c0c0" stroke="#c0c0c0" stroke-width="2" points="457.4015,-46.8595 456.7651,-36.2838 450.6675,-44.9481 457.4015,-46.8595"/>
</g>
<!-- 20 -->
<g id="node21" class="node">
<title>20</title>
<path fill="none" stroke="#d8b456" stroke-width="2" d="M357,-252C357,-252 235,-252 235,-252 229,-252 223,-246 223,-240 223,-240 223,-228 223,-228 223,-222 229,-216 235,-216 235,-216 357,-216 357,-216 363,-216 369,-222 369,-228 369,-228 369,-240 369,-240 369,-246 363,-252 357,-252"/>
<text text-anchor="middle" x="296" y="-231.5" font-family="sans" font-size="10.00">rename_star_rpm_for_alfa</text>
</g>
<!-- 8&#45;&gt;20 -->
<g id="edge42" class="edge">
<title>8&#45;&gt;20</title>
<path fill="none" stroke="#c0c0c0" stroke-width="2" d="M276.7523,-287.8314C276.8593,-280.131 276.9865,-270.9743 277.1053,-262.4166"/>
<polygon fill="#c0c0c0" stroke="#c0c0c0" stroke-width="2" points="280.6049,-262.4609 277.2443,-252.4133 273.6056,-262.3637 280.6049,-262.4609"/>
</g>
<!-- 9 -->
<g id="node10" class="node">
<title>9</title>
<path fill="none" stroke="#56d89a" stroke-width="2" d="M314,-180C314,-180 284,-180 284,-180 278,-180 272,-174 272,-168 272,-168 272,-156 272,-156 272,-150 278,-144 284,-144 284,-144 314,-144 314,-144 320,-144 326,-150 326,-156 326,-156 326,-168 326,-168 326,-174 320,-180 314,-180"/>
<text text-anchor="middle" x="299" y="-159.5" font-family="sans" font-size="10.00">alfa_qc</text>
</g>
<!-- 9&#45;&gt;0 -->
<g id="edge4" class="edge">
<title>9&#45;&gt;0</title>
<path fill="none" stroke="#c0c0c0" stroke-width="2" d="M277.3361,-143.7724C277.0758,-123.7272 279.8143,-91.7472 297.5,-72 314.5332,-52.9814 381.5117,-35.3637 424.4262,-25.7033"/>
<polygon fill="#c0c0c0" stroke="#c0c0c0" stroke-width="2" points="425.2343,-29.1093 434.2453,-23.5367 423.726,-22.2737 425.2343,-29.1093"/>
</g>
<!-- 10 -->
<g id="node11" class="node">
<title>10</title>
<path fill="none" stroke="#bed856" stroke-width="2" d="M432,-108C432,-108 340,-108 340,-108 334,-108 328,-102 328,-96 328,-96 328,-84 328,-84 328,-78 334,-72 340,-72 340,-72 432,-72 432,-72 438,-72 444,-78 444,-84 444,-84 444,-96 444,-96 444,-102 438,-108 432,-108"/>
<text text-anchor="middle" x="386" y="-87.5" font-family="sans" font-size="10.00">alfa_qc_all_samples</text>
</g>
<!-- 9&#45;&gt;10 -->
<g id="edge28" class="edge">
<title>9&#45;&gt;10</title>
<path fill="none" stroke="#c0c0c0" stroke-width="2" d="M299.1921,-143.8314C309.1948,-135.0485 321.355,-124.3712 332.1999,-114.8489"/>
<polygon fill="#c0c0c0" stroke="#c0c0c0" stroke-width="2" points="334.6094,-117.3909 339.8146,-108.1628 329.9908,-112.1308 334.6094,-117.3909"/>
</g>
<!-- 10&#45;&gt;0 -->
<g id="edge6" class="edge">
<title>10&#45;&gt;0</title>
<path fill="none" stroke="#c0c0c0" stroke-width="2" d="M385.9866,-71.8314C398.6659,-62.7927 414.1596,-51.7476 427.8055,-42.0198"/>
<polygon fill="#c0c0c0" stroke="#c0c0c0" stroke-width="2" points="429.9105,-44.8176 436.0216,-36.1628 425.8471,-39.1176 429.9105,-44.8176"/>
</g>
<!-- 11 -->
<g id="node12" class="node">
<title>11</title>
<path fill="none" stroke="#afd856" stroke-width="2" d="M413,-540C413,-540 285,-540 285,-540 279,-540 273,-534 273,-528 273,-528 273,-516 273,-516 273,-510 279,-504 285,-504 285,-504 413,-504 413,-504 419,-504 425,-510 425,-516 425,-516 425,-528 425,-528 425,-534 419,-540 413,-540"/>
<text text-anchor="middle" x="349" y="-519.5" font-family="sans" font-size="10.00">pe_remove_polya_cutadapt</text>
</g>
<!-- 11&#45;&gt;3 -->
<g id="edge12" class="edge">
<title>11&#45;&gt;3</title>
<path fill="none" stroke="#c0c0c0" stroke-width="2" d="M346.846,-503.8314C351.4237,-495.7925 356.9052,-486.1666 361.9588,-477.2918"/>
<polygon fill="#c0c0c0" stroke="#c0c0c0" stroke-width="2" points="365.1077,-478.8351 367.0147,-468.4133 359.0248,-475.3712 365.1077,-478.8351"/>
</g>
<!-- 14 -->
<g id="node15" class="node">
<title>14</title>
<path fill="none" stroke="#d8cb56" stroke-width="2" d="M141.5,-468C141.5,-468 40.5,-468 40.5,-468 34.5,-468 28.5,-462 28.5,-456 28.5,-456 28.5,-444 28.5,-444 28.5,-438 34.5,-432 40.5,-432 40.5,-432 141.5,-432 141.5,-432 147.5,-432 153.5,-438 153.5,-444 153.5,-444 153.5,-456 153.5,-456 153.5,-462 147.5,-468 141.5,-468"/>
<text text-anchor="middle" x="91" y="-447.5" font-family="sans" font-size="10.00">pe_map_genome_star</text>
</g>
<!-- 11&#45;&gt;14 -->
<g id="edge33" class="edge">
<title>11&#45;&gt;14</title>
<path fill="none" stroke="#c0c0c0" stroke-width="2" d="M276.4987,-503.9243C242.8786,-493.7961 200.8229,-481.1266 165.9254,-470.6135"/>
<polygon fill="#c0c0c0" stroke="#c0c0c0" stroke-width="2" points="166.8698,-467.2427 156.2852,-467.7094 164.8506,-473.9452 166.8698,-467.2427"/>
</g>
<!-- 18 -->
<g id="node19" class="node">
<title>18</title>
<path fill="none" stroke="#d86656" stroke-width="2" d="M820,-468C820,-468 702,-468 702,-468 696,-468 690,-462 690,-456 690,-456 690,-444 690,-444 690,-438 696,-432 702,-432 702,-432 820,-432 820,-432 826,-432 832,-438 832,-444 832,-444 832,-456 832,-456 832,-462 826,-468 820,-468"/>
<text text-anchor="middle" x="761" y="-447.5" font-family="sans" font-size="10.00">pe_quantification_salmon</text>
</g>
<!-- 11&#45;&gt;18 -->
<g id="edge39" class="edge">
<title>11&#45;&gt;18</title>
<path fill="none" stroke="#c0c0c0" stroke-width="2" d="M406.7258,-507.2079C412.3955,-506.0937 418.0402,-505.0111 423.5,-504 517.7823,-486.5405 544.6875,-487.6299 642.2084,-468.1849"/>
<polygon fill="#c0c0c0" stroke="#c0c0c0" stroke-width="2" points="643.0795,-471.5798 652.1907,-466.1727 641.6962,-464.7179 643.0795,-471.5798"/>
</g>
<!-- 12 -->
<g id="node13" class="node">
<title>12</title>
<path fill="none" stroke="#61d856" stroke-width="2" d="M711.5,-540C711.5,-540 614.5,-540 614.5,-540 608.5,-540 602.5,-534 602.5,-528 602.5,-528 602.5,-516 602.5,-516 602.5,-510 608.5,-504 614.5,-504 614.5,-504 711.5,-504 711.5,-504 717.5,-504 723.5,-510 723.5,-516 723.5,-516 723.5,-528 723.5,-528 723.5,-534 717.5,-540 711.5,-540"/>
<text text-anchor="middle" x="663" y="-519.5" font-family="sans" font-size="10.00">create_index_kallisto</text>
</g>
<!-- 12&#45;&gt;3 -->
<g id="edge11" class="edge">
<title>12&#45;&gt;3</title>
<path fill="none" stroke="#c0c0c0" stroke-width="2" d="M573.417,-506.1993C537.2316,-495.8194 489.4986,-482.1271 450.2079,-470.8564"/>
<polygon fill="#c0c0c0" stroke="#c0c0c0" stroke-width="2" points="450.9902,-467.4398 440.4128,-468.0467 449.06,-474.1684 450.9902,-467.4398"/>
</g>
<!-- 12&#45;&gt;4 -->
<g id="edge14" class="edge">
<title>12&#45;&gt;4</title>
<path fill="none" stroke="#c0c0c0" stroke-width="2" d="M610.5837,-503.8314C602.1558,-495.2848 591.959,-484.9443 582.764,-475.6198"/>
<polygon fill="#c0c0c0" stroke="#c0c0c0" stroke-width="2" points="585.1711,-473.0761 575.6575,-468.4133 580.1869,-477.9912 585.1711,-473.0761"/>
</g>
<!-- 13 -->
<g id="node14" class="node">
<title>13</title>
<path fill="none" stroke="#88d856" stroke-width="2" d="M572,-540C572,-540 462,-540 462,-540 456,-540 450,-534 450,-528 450,-528 450,-516 450,-516 450,-510 456,-504 462,-504 462,-504 572,-504 572,-504 578,-504 584,-510 584,-516 584,-516 584,-528 584,-528 584,-534 578,-540 572,-540"/>
<text text-anchor="middle" x="517" y="-519.5" font-family="sans" font-size="10.00">remove_polya_cutadapt</text>
</g>
<!-- 13&#45;&gt;4 -->
<g id="edge13" class="edge">
<title>13&#45;&gt;4</title>
<path fill="none" stroke="#c0c0c0" stroke-width="2" d="M509.6499,-503.8314C517.1717,-495.3694 526.2565,-485.1489 534.4804,-475.8971"/>
<polygon fill="#c0c0c0" stroke="#c0c0c0" stroke-width="2" points="537.1049,-478.2127 541.1327,-468.4133 531.873,-473.5621 537.1049,-478.2127"/>
</g>
<!-- 17 -->
<g id="node18" class="node">
<title>17</title>
<path fill="none" stroke="#56d8d0" stroke-width="2" d="M266.5,-468C266.5,-468 183.5,-468 183.5,-468 177.5,-468 171.5,-462 171.5,-456 171.5,-456 171.5,-444 171.5,-444 171.5,-438 177.5,-432 183.5,-432 183.5,-432 266.5,-432 266.5,-432 272.5,-432 278.5,-438 278.5,-444 278.5,-444 278.5,-456 278.5,-456 278.5,-462 272.5,-468 266.5,-468"/>
<text text-anchor="middle" x="225" y="-447.5" font-family="sans" font-size="10.00">map_genome_star</text>
</g>
<!-- 13&#45;&gt;17 -->
<g id="edge37" class="edge">
<title>13&#45;&gt;17</title>
<path fill="none" stroke="#c0c0c0" stroke-width="2" d="M431.7413,-506.8859C392.1771,-497.0263 339.5207,-483.5778 284.585,-468.2516"/>
<polygon fill="#c0c0c0" stroke="#c0c0c0" stroke-width="2" points="285.2411,-464.8006 274.6675,-465.471 283.3513,-471.5407 285.2411,-464.8006"/>
</g>
<!-- 19 -->
<g id="node20" class="node">
<title>19</title>
<path fill="none" stroke="#70d856" stroke-width="2" d="M963.5,-468C963.5,-468 862.5,-468 862.5,-468 856.5,-468 850.5,-462 850.5,-456 850.5,-456 850.5,-444 850.5,-444 850.5,-438 856.5,-432 862.5,-432 862.5,-432 963.5,-432 963.5,-432 969.5,-432 975.5,-438 975.5,-444 975.5,-444 975.5,-456 975.5,-456 975.5,-462 969.5,-468 963.5,-468"/>
<text text-anchor="middle" x="913" y="-447.5" font-family="sans" font-size="10.00">quantification_salmon</text>
</g>
<!-- 13&#45;&gt;19 -->
<g id="edge41" class="edge">
<title>13&#45;&gt;19</title>
<path fill="none" stroke="#c0c0c0" stroke-width="2" d="M555.3795,-505.9594C558.4577,-505.2723 561.5106,-504.6147 564.5,-504 661.4299,-484.0701 689.8687,-489.1188 790.7238,-468.0329"/>
<polygon fill="#c0c0c0" stroke="#c0c0c0" stroke-width="2" points="791.6611,-471.4119 800.7148,-465.909 790.2056,-464.5649 791.6611,-471.4119"/>
</g>
<!-- 14&#45;&gt;5 -->
<g id="edge15" class="edge">
<title>14&#45;&gt;5</title>
<path fill="none" stroke="#c0c0c0" stroke-width="2" d="M141.5461,-431.9436C165.2169,-421.9205 194.7481,-408.8995 220.5,-396 262.4452,-374.9889 308.9947,-348.2155 340.828,-329.351"/>
<polygon fill="#c0c0c0" stroke="#c0c0c0" stroke-width="2" points="343.0021,-332.1301 349.8062,-324.0088 339.4227,-326.1144 343.0021,-332.1301"/>
</g>
<!-- 14&#45;&gt;8 -->
<g id="edge23" class="edge">
<title>14&#45;&gt;8</title>
<path fill="none" stroke="#c0c0c0" stroke-width="2" d="M60.1998,-431.9669C46.3542,-423.189 32.1642,-411.2027 24.5,-396 17.2973,-381.7129 14.4412,-372.4427 24.5,-360 50.9458,-327.2868 174.4946,-313.4968 238.2346,-308.4803"/>
<polygon fill="#c0c0c0" stroke="#c0c0c0" stroke-width="2" points="238.5879,-311.9637 248.2966,-307.7223 238.062,-304.9835 238.5879,-311.9637"/>
</g>
<!-- 15 -->
<g id="node16" class="node">
<title>15</title>
<path fill="none" stroke="#566bd8" stroke-width="2" d="M217,-396C217,-396 45,-396 45,-396 39,-396 33,-390 33,-384 33,-384 33,-372 33,-372 33,-366 39,-360 45,-360 45,-360 217,-360 217,-360 223,-360 229,-366 229,-372 229,-372 229,-384 229,-384 229,-390 223,-396 217,-396"/>
<text text-anchor="middle" x="131" y="-375.5" font-family="sans" font-size="10.00">index_genomic_alignment_samtools</text>
</g>
<!-- 14&#45;&gt;15 -->
<g id="edge34" class="edge">
<title>14&#45;&gt;15</title>
<path fill="none" stroke="#c0c0c0" stroke-width="2" d="M103.8086,-431.8314C106.5117,-424.0463 109.7316,-414.7729 112.731,-406.1347"/>
<polygon fill="#c0c0c0" stroke="#c0c0c0" stroke-width="2" points="116.1327,-407.0081 116.1065,-396.4133 109.52,-404.7119 116.1327,-407.0081"/>
</g>
<!-- 15&#45;&gt;5 -->
<g id="edge16" class="edge">
<title>15&#45;&gt;5</title>
<path fill="none" stroke="#c0c0c0" stroke-width="2" d="M187.0202,-359.9243C225.5374,-349.1335 274.3512,-335.458 313.1825,-324.5792"/>
<polygon fill="#c0c0c0" stroke="#c0c0c0" stroke-width="2" points="314.1425,-327.9451 322.8275,-321.8771 312.254,-321.2046 314.1425,-327.9451"/>
</g>
<!-- 15&#45;&gt;8 -->
<g id="edge24" class="edge">
<title>15&#45;&gt;8</title>
<path fill="none" stroke="#c0c0c0" stroke-width="2" d="M161.3607,-359.8314C185.1682,-348.7006 215.4834,-334.5272 239.0308,-323.5181"/>
<polygon fill="#c0c0c0" stroke="#c0c0c0" stroke-width="2" points="240.7672,-326.57 248.3436,-319.164 237.8024,-320.2288 240.7672,-326.57"/>
</g>
<!-- 16 -->
<g id="node17" class="node">
<title>16</title>
<path fill="none" stroke="#d8a456" stroke-width="2" d="M471,-396C471,-396 335,-396 335,-396 329,-396 323,-390 323,-384 323,-384 323,-372 323,-372 323,-366 329,-360 335,-360 335,-360 471,-360 471,-360 477,-360 483,-366 483,-372 483,-372 483,-384 483,-384 483,-390 477,-396 471,-396"/>
<text text-anchor="middle" x="403" y="-375.5" font-family="sans" font-size="10.00">extract_transcripts_as_bed12</text>
</g>
<!-- 16&#45;&gt;5 -->
<g id="edge16" class="edge">
<title>16&#45;&gt;5</title>
<path fill="none" stroke="#c0c0c0" stroke-width="2" d="M379.5,-359.8314C379.5,-352.131 379.5,-342.9743 379.5,-334.4166"/>
<polygon fill="#c0c0c0" stroke="#c0c0c0" stroke-width="2" points="383.0001,-334.4132 379.5,-324.4133 376.0001,-334.4133 383.0001,-334.4132"/>
</g>
<!-- 17&#45;&gt;5 -->
<g id="edge17" class="edge">
<title>17&#45;&gt;5</title>
<path fill="none" stroke="#c0c0c0" stroke-width="2" d="M274.6185,-434.3455C277.6155,-433.5227 280.5927,-432.734 283.5,-432 362.1799,-412.1365 411.0864,-458.7832 462.5,-396 472.6372,-383.6211 470.1286,-374.0643 462.5,-360 455.7065,-347.4754 444.6118,-337.4004 432.7131,-329.5017"/>
<polygon fill="#c0c0c0" stroke="#c0c0c0" stroke-width="2" points="434.3112,-326.376 423.9569,-324.1309 430.6512,-332.343 434.3112,-326.376"/>
</g>
<!-- 17&#45;&gt;8 -->
<g id="edge25" class="edge">
<title>17&#45;&gt;8</title>
<path fill="none" stroke="#c0c0c0" stroke-width="2" d="M231.0858,-431.7623C240.0333,-406.9846 256.1076,-362.4714 266.5355,-333.5939"/>
<polygon fill="#c0c0c0" stroke="#c0c0c0" stroke-width="2" points="269.8631,-334.6839 269.9676,-324.0896 263.2792,-332.3064 269.8631,-334.6839"/>
</g>
<!-- 17&#45;&gt;15 -->
<g id="edge35" class="edge">
<title>17&#45;&gt;15</title>
<path fill="none" stroke="#c0c0c0" stroke-width="2" d="M198.7611,-431.8314C185.9563,-422.7927 170.3091,-411.7476 156.5281,-402.0198"/>
<polygon fill="#c0c0c0" stroke="#c0c0c0" stroke-width="2" points="158.4188,-399.0703 148.2307,-396.1628 154.382,-404.7891 158.4188,-399.0703"/>
</g>
<!-- 18&#45;&gt;6 -->
<g id="edge19" class="edge">
<title>18&#45;&gt;6</title>
<path fill="none" stroke="#c0c0c0" stroke-width="2" d="M706.1446,-431.8314C701.0674,-423.7079 694.9773,-413.9637 689.3824,-405.0118"/>
<polygon fill="#c0c0c0" stroke="#c0c0c0" stroke-width="2" points="692.2763,-403.0383 684.0083,-396.4133 686.3403,-406.7483 692.2763,-403.0383"/>
</g>
<!-- 18&#45;&gt;7 -->
<g id="edge21" class="edge">
<title>18&#45;&gt;7</title>
<path fill="none" stroke="#c0c0c0" stroke-width="2" d="M748.5381,-431.8314C764.2705,-422.6221 783.5611,-411.3301 800.4044,-401.4706"/>
<polygon fill="#c0c0c0" stroke="#c0c0c0" stroke-width="2" points="802.6098,-404.2352 809.4718,-396.1628 799.0735,-398.1941 802.6098,-404.2352"/>
</g>
<!-- 19&#45;&gt;6 -->
<g id="edge20" class="edge">
<title>19&#45;&gt;6</title>
<path fill="none" stroke="#c0c0c0" stroke-width="2" d="M810.8167,-431.8314C785.7441,-422.0734 754.6633,-409.977 728.3191,-399.7242"/>
<polygon fill="#c0c0c0" stroke="#c0c0c0" stroke-width="2" points="729.4362,-396.4033 718.8476,-396.038 726.8973,-402.9266 729.4362,-396.4033"/>
</g>
<!-- 19&#45;&gt;7 -->
<g id="edge22" class="edge">
<title>19&#45;&gt;7</title>
<path fill="none" stroke="#c0c0c0" stroke-width="2" d="M853.2102,-431.8314C851.392,-424.131 849.2301,-414.9743 847.2095,-406.4166"/>
<polygon fill="#c0c0c0" stroke="#c0c0c0" stroke-width="2" points="850.5519,-405.3414 844.8476,-396.4133 843.7392,-406.95 850.5519,-405.3414"/>
</g>
<!-- 20&#45;&gt;9 -->
<g id="edge27" class="edge">
<title>20&#45;&gt;9</title>
<path fill="none" stroke="#c0c0c0" stroke-width="2" d="M277.7523,-215.8314C277.8593,-208.131 277.9865,-198.9743 278.1053,-190.4166"/>
<polygon fill="#c0c0c0" stroke="#c0c0c0" stroke-width="2" points="281.6049,-190.4609 278.2443,-180.4133 274.6056,-190.3637 281.6049,-190.4609"/>
</g>
<!-- 21 -->
<g id="node22" class="node">
<title>21</title>
<path fill="none" stroke="#56c9d8" stroke-width="2" d="M104,-252C104,-252 12,-252 12,-252 6,-252 0,-246 0,-240 0,-240 0,-228 0,-228 0,-222 6,-216 12,-216 12,-216 104,-216 104,-216 110,-216 116,-222 116,-228 116,-228 116,-240 116,-240 116,-246 110,-252 104,-252"/>
<text text-anchor="middle" x="58" y="-231.5" font-family="sans" font-size="10.00">generate_alfa_index</text>
</g>
<!-- 21&#45;&gt;9 -->
<g id="edge26" class="edge">
<title>21&#45;&gt;9</title>
<path fill="none" stroke="#c0c0c0" stroke-width="2" d="M107.1072,-216.8457C148.5723,-203.5769 204.9025,-185.5512 241.477,-173.8474"/>
<polygon fill="#c0c0c0" stroke="#c0c0c0" stroke-width="2" points="242.7828,-177.1044 251.2403,-170.7231 240.6493,-170.4374 242.7828,-177.1044"/>
</g>
<!-- 22 -->
<g id="node23" class="node">
<title>22</title>
<path fill="none" stroke="#56d8a9" stroke-width="2" d="M416.5,-612C416.5,-612 273.5,-612 273.5,-612 267.5,-612 261.5,-606 261.5,-600 261.5,-600 261.5,-588 261.5,-588 261.5,-582 267.5,-576 273.5,-576 273.5,-576 416.5,-576 416.5,-576 422.5,-576 428.5,-582 428.5,-588 428.5,-588 428.5,-600 428.5,-600 428.5,-606 422.5,-612 416.5,-612"/>
<text text-anchor="middle" x="345" y="-591.5" font-family="sans" font-size="10.00">pe_remove_adapters_cutadapt</text>
</g>
<!-- 22&#45;&gt;11 -->
<g id="edge29" class="edge">
<title>22&#45;&gt;11</title>
<path fill="none" stroke="#c0c0c0" stroke-width="2" d="M333.5094,-575.8314C333.9372,-568.131 334.4459,-558.9743 334.9213,-550.4166"/>
<polygon fill="#c0c0c0" stroke="#c0c0c0" stroke-width="2" points="338.4169,-550.592 335.477,-540.4133 331.4276,-550.2037 338.4169,-550.592"/>
</g>
<!-- 23 -->
<g id="node24" class="node">
<title>23</title>
<path fill="none" stroke="#56d8c1" stroke-width="2" d="M783.5,-612C783.5,-612 682.5,-612 682.5,-612 676.5,-612 670.5,-606 670.5,-600 670.5,-600 670.5,-588 670.5,-588 670.5,-582 676.5,-576 682.5,-576 682.5,-576 783.5,-576 783.5,-576 789.5,-576 795.5,-582 795.5,-588 795.5,-588 795.5,-600 795.5,-600 795.5,-606 789.5,-612 783.5,-612"/>
<text text-anchor="middle" x="733" y="-591.5" font-family="sans" font-size="10.00">extract_transcriptome</text>
</g>
<!-- 23&#45;&gt;12 -->
<g id="edge30" class="edge">
<title>23&#45;&gt;12</title>
<path fill="none" stroke="#c0c0c0" stroke-width="2" d="M677.0978,-575.8314C669.4585,-567.3694 660.2317,-557.1489 651.8793,-547.8971"/>
<polygon fill="#c0c0c0" stroke="#c0c0c0" stroke-width="2" points="654.4221,-545.4906 645.1231,-540.4133 649.2262,-550.1813 654.4221,-545.4906"/>
</g>
<!-- 26 -->
<g id="node27" class="node">
<title>26</title>
<path fill="none" stroke="#d85656" stroke-width="2" d="M850.5,-540C850.5,-540 753.5,-540 753.5,-540 747.5,-540 741.5,-534 741.5,-528 741.5,-528 741.5,-516 741.5,-516 741.5,-510 747.5,-504 753.5,-504 753.5,-504 850.5,-504 850.5,-504 856.5,-504 862.5,-510 862.5,-516 862.5,-516 862.5,-528 862.5,-528 862.5,-534 856.5,-540 850.5,-540"/>
<text text-anchor="middle" x="802" y="-519.5" font-family="sans" font-size="10.00">create_index_salmon</text>
</g>
<!-- 23&#45;&gt;26 -->
<g id="edge44" class="edge">
<title>23&#45;&gt;26</title>
<path fill="none" stroke="#c0c0c0" stroke-width="2" d="M709.6499,-575.8314C717.1717,-567.3694 726.2565,-557.1489 734.4804,-547.8971"/>
<polygon fill="#c0c0c0" stroke="#c0c0c0" stroke-width="2" points="737.1049,-550.2127 741.1327,-540.4133 731.873,-545.5621 737.1049,-550.2127"/>
</g>
<!-- 24 -->
<g id="node25" class="node">
<title>24</title>
<path fill="none" stroke="#56d873" stroke-width="2" d="M584,-612C584,-612 458,-612 458,-612 452,-612 446,-606 446,-600 446,-600 446,-588 446,-588 446,-582 452,-576 458,-576 458,-576 584,-576 584,-576 590,-576 596,-582 596,-588 596,-588 596,-600 596,-600 596,-606 590,-612 584,-612"/>
<text text-anchor="middle" x="521" y="-591.5" font-family="sans" font-size="10.00">remove_adapters_cutadapt</text>
</g>
<!-- 24&#45;&gt;13 -->
<g id="edge31" class="edge">
<title>24&#45;&gt;13</title>
<path fill="none" stroke="#c0c0c0" stroke-width="2" d="M496.4906,-575.8314C496.0628,-568.131 495.5541,-558.9743 495.0787,-550.4166"/>
<polygon fill="#c0c0c0" stroke="#c0c0c0" stroke-width="2" points="498.5724,-550.2037 494.523,-540.4133 491.5831,-550.592 498.5724,-550.2037"/>
</g>
<!-- 25 -->
<g id="node26" class="node">
<title>25</title>
<path fill="none" stroke="#56b9d8" stroke-width="2" d="M131,-540C131,-540 51,-540 51,-540 45,-540 39,-534 39,-528 39,-528 39,-516 39,-516 39,-510 45,-504 51,-504 51,-504 131,-504 131,-504 137,-504 143,-510 143,-516 143,-516 143,-528 143,-528 143,-534 137,-540 131,-540"/>
<text text-anchor="middle" x="91" y="-519.5" font-family="sans" font-size="10.00">create_index_star</text>
</g>
<!-- 25&#45;&gt;14 -->
<g id="edge32" class="edge">
<title>25&#45;&gt;14</title>
<path fill="none" stroke="#c0c0c0" stroke-width="2" d="M97.5,-503.8314C97.5,-496.131 97.5,-486.9743 97.5,-478.4166"/>
<polygon fill="#c0c0c0" stroke="#c0c0c0" stroke-width="2" points="101.0001,-478.4132 97.5,-468.4133 94.0001,-478.4133 101.0001,-478.4132"/>
</g>
<!-- 25&#45;&gt;17 -->
<g id="edge36" class="edge">
<title>25&#45;&gt;17</title>
<path fill="none" stroke="#c0c0c0" stroke-width="2" d="M129.5475,-503.8314C145.942,-494.5368 166.0786,-483.1208 183.5829,-473.1971"/>
<polygon fill="#c0c0c0" stroke="#c0c0c0" stroke-width="2" points="185.4897,-476.1395 192.4628,-468.1628 182.0374,-470.05 185.4897,-476.1395"/>
</g>
<!-- 25&#45;&gt;21 -->
<g id="edge43" class="edge">
<title>25&#45;&gt;21</title>
<path fill="none" stroke="#c0c0c0" stroke-width="2" d="M65.9199,-503.849C52.7374,-494.7208 38.4406,-482.5002 29.5,-468 12.3446,-440.1767 17.851,-428.5148 14.5,-396 12.8597,-380.0843 12.1076,-375.8201 14.5,-360 19.7362,-325.3745 32.6341,-287.1533 42.1712,-261.989"/>
<polygon fill="#c0c0c0" stroke="#c0c0c0" stroke-width="2" points="45.5467,-262.9641 45.8929,-252.3749 39.0188,-260.437 45.5467,-262.9641"/>
</g>
<!-- 26&#45;&gt;18 -->
<g id="edge38" class="edge">
<title>26&#45;&gt;18</title>
<path fill="none" stroke="#c0c0c0" stroke-width="2" d="M747.4063,-503.8314C742.9403,-495.7925 737.5925,-486.1666 732.6621,-477.2918"/>
<polygon fill="#c0c0c0" stroke="#c0c0c0" stroke-width="2" points="735.6456,-475.4551 727.7296,-468.4133 729.5265,-478.8546 735.6456,-475.4551"/>
</g>
<!-- 26&#45;&gt;19 -->
<g id="edge40" class="edge">
<title>26&#45;&gt;19</title>
<path fill="none" stroke="#c0c0c0" stroke-width="2" d="M782.7342,-503.8314C795.288,-494.7927 810.6283,-483.7476 824.1391,-474.0198"/>
<polygon fill="#c0c0c0" stroke="#c0c0c0" stroke-width="2" points="826.2036,-476.8463 832.2739,-468.1628 822.1134,-471.1655 826.2036,-476.8463"/>
</g>
</g>
</svg>
