<?xml version="1.0" encoding="UTF-8" standalone="no"?>
<!DOCTYPE svg PUBLIC "-//W3C//DTD SVG 1.1//EN"
 "http://www.w3.org/Graphics/SVG/1.1/DTD/svg11.dtd">
<!-- Generated by graphviz version 2.38.0 (20140413.2041)
 -->
<!-- Title: snakemake_dag Pages: 1 -->
<svg width="873pt" height="548pt"
 viewBox="0.00 0.00 873.02 548.00" xmlns="http://www.w3.org/2000/svg" xmlns:xlink="http://www.w3.org/1999/xlink">
<g id="graph0" class="graph" transform="scale(1 1) rotate(0) translate(4 544)">
<title>snakemake_dag</title>
<polygon fill="white" stroke="none" points="-4,4 -4,-544 869.023,-544 869.023,4 -4,4"/>
<!-- 0 -->
<g id="node1" class="node"><title>0</title>
<path fill="none" stroke="#56a9d8" stroke-width="2" d="M334,-36C334,-36 304,-36 304,-36 298,-36 292,-30 292,-24 292,-24 292,-12 292,-12 292,-6 298,-0 304,-0 304,-0 334,-0 334,-0 340,-0 346,-6 346,-12 346,-12 346,-24 346,-24 346,-30 340,-36 334,-36"/>
<text text-anchor="middle" x="319" y="-15.5" font-family="sans" font-size="10.00">finish</text>
</g>
<!-- 1 -->
<g id="node2" class="node"><title>1</title>
<path fill="none" stroke="#88d856" stroke-width="2" d="M149.5,-108C149.5,-108 114.5,-108 114.5,-108 108.5,-108 102.5,-102 102.5,-96 102.5,-96 102.5,-84 102.5,-84 102.5,-78 108.5,-72 114.5,-72 114.5,-72 149.5,-72 149.5,-72 155.5,-72 161.5,-78 161.5,-84 161.5,-84 161.5,-96 161.5,-96 161.5,-102 155.5,-108 149.5,-108"/>
<text text-anchor="middle" x="132" y="-87.5" font-family="sans" font-size="10.00">pe_fastqc</text>
</g>
<!-- 1&#45;&gt;0 -->
<g id="edge2" class="edge"><title>1&#45;&gt;0</title>
<path fill="none" stroke="grey" stroke-width="2" d="M161.724,-75.7983C164.844,-74.4861 167.979,-73.1978 171,-72 208.496,-57.1332 252.026,-41.7675 282.125,-31.434"/>
<polygon fill="grey" stroke="grey" stroke-width="2" points="283.459,-34.6769 291.789,-28.1305 281.195,-28.0531 283.459,-34.6769"/>
</g>
<!-- 2 -->
<g id="node3" class="node"><title>2</title>
<path fill="none" stroke="#56d863" stroke-width="2" d="M222,-108C222,-108 192,-108 192,-108 186,-108 180,-102 180,-96 180,-96 180,-84 180,-84 180,-78 186,-72 192,-72 192,-72 222,-72 222,-72 228,-72 234,-78 234,-84 234,-84 234,-96 234,-96 234,-102 228,-108 222,-108"/>
<text text-anchor="middle" x="207" y="-87.5" font-family="sans" font-size="10.00">fastqc</text>
</g>
<!-- 2&#45;&gt;0 -->
<g id="edge1" class="edge"><title>2&#45;&gt;0</title>
<path fill="none" stroke="grey" stroke-width="2" d="M234.112,-72.055C248.861,-62.8371 267.29,-51.3185 283.206,-41.3715"/>
<polygon fill="grey" stroke="grey" stroke-width="2" points="285.124,-44.2997 291.749,-36.0316 281.414,-38.3637 285.124,-44.2997"/>
</g>
<!-- 3 -->
<g id="node4" class="node"><title>3</title>
<path fill="none" stroke="#d89556" stroke-width="2" d="M434,-396C434,-396 292,-396 292,-396 286,-396 280,-390 280,-384 280,-384 280,-372 280,-372 280,-366 286,-360 292,-360 292,-360 434,-360 434,-360 440,-360 446,-366 446,-372 446,-372 446,-384 446,-384 446,-390 440,-396 434,-396"/>
<text text-anchor="middle" x="363" y="-375.5" font-family="sans" font-size="10.00">pe_genome_quantification_kallisto</text>
</g>
<!-- 3&#45;&gt;0 -->
<g id="edge6" class="edge"><title>3&#45;&gt;0</title>
<path fill="none" stroke="grey" stroke-width="2" d="M357.941,-359.684C350.636,-333.11 338,-280.558 338,-235 338,-235 338,-235 338,-161 338,-120.86 330.449,-74.897 324.868,-46.4045"/>
<polygon fill="grey" stroke="grey" stroke-width="2" points="328.255,-45.4976 322.845,-36.3884 321.394,-46.8834 328.255,-45.4976"/>
</g>
<!-- 4 -->
<g id="node5" class="node"><title>4</title>
<path fill="none" stroke="#9fd856" stroke-width="2" d="M602,-396C602,-396 476,-396 476,-396 470,-396 464,-390 464,-384 464,-384 464,-372 464,-372 464,-366 470,-360 476,-360 476,-360 602,-360 602,-360 608,-360 614,-366 614,-372 614,-372 614,-384 614,-384 614,-390 608,-396 602,-396"/>
<text text-anchor="middle" x="539" y="-375.5" font-family="sans" font-size="10.00">genome_quantification_kallisto</text>
</g>
<!-- 4&#45;&gt;0 -->
<g id="edge8" class="edge"><title>4&#45;&gt;0</title>
<path fill="none" stroke="grey" stroke-width="2" d="M482.882,-359.975C462.24,-351.633 439.823,-339.886 423,-324 390.476,-293.288 376,-279.732 376,-235 376,-235 376,-235 376,-161 376,-117.801 353,-72.1859 336.22,-44.6553"/>
<polygon fill="grey" stroke="grey" stroke-width="2" points="339.093,-42.6485 330.81,-36.0417 333.165,-46.3716 339.093,-42.6485"/>
</g>
<!-- 5 -->
<g id="node6" class="node"><title>5</title>
<path fill="none" stroke="#56c1d8" stroke-width="2" d="M499.5,-108C499.5,-108 434.5,-108 434.5,-108 428.5,-108 422.5,-102 422.5,-96 422.5,-96 422.5,-84 422.5,-84 422.5,-78 428.5,-72 434.5,-72 434.5,-72 499.5,-72 499.5,-72 505.5,-72 511.5,-78 511.5,-84 511.5,-84 511.5,-96 511.5,-96 511.5,-102 505.5,-108 499.5,-108"/>
<text text-anchor="middle" x="467" y="-87.5" font-family="sans" font-size="10.00">plot_TIN_scores</text>
</g>
<!-- 5&#45;&gt;0 -->
<g id="edge3" class="edge"><title>5&#45;&gt;0</title>
<path fill="none" stroke="grey" stroke-width="2" d="M430.795,-71.8761C407.78,-60.9904 378.097,-46.9511 355.101,-36.0749"/>
<polygon fill="grey" stroke="grey" stroke-width="2" points="356.549,-32.8878 346.012,-31.7761 353.556,-39.2157 356.549,-32.8878"/>
</g>
<!-- 6 -->
<g id="node7" class="node"><title>6</title>
<path fill="none" stroke="#56d873" stroke-width="2" d="M124,-324C124,-324 12,-324 12,-324 6,-324 0,-318 0,-312 0,-312 0,-300 0,-300 0,-294 6,-288 12,-288 12,-288 124,-288 124,-288 130,-288 136,-294 136,-300 136,-300 136,-312 136,-312 136,-318 130,-324 124,-324"/>
<text text-anchor="middle" x="68" y="-303.5" font-family="sans" font-size="10.00">salmon_quantmerge_genes</text>
</g>
<!-- 6&#45;&gt;0 -->
<g id="edge4" class="edge"><title>6&#45;&gt;0</title>
<path fill="none" stroke="grey" stroke-width="2" d="M83.3284,-287.971C113.904,-253.955 184.56,-175.096 243,-108 261.747,-86.4755 282.806,-61.7729 297.993,-43.8623"/>
<polygon fill="grey" stroke="grey" stroke-width="2" points="300.736,-46.0396 304.529,-36.1469 295.395,-41.5151 300.736,-46.0396"/>
</g>
<!-- 7 -->
<g id="node8" class="node"><title>7</title>
<path fill="none" stroke="#5682d8" stroke-width="2" d="M297.5,-324C297.5,-324 166.5,-324 166.5,-324 160.5,-324 154.5,-318 154.5,-312 154.5,-312 154.5,-300 154.5,-300 154.5,-294 160.5,-288 166.5,-288 166.5,-288 297.5,-288 297.5,-288 303.5,-288 309.5,-294 309.5,-300 309.5,-300 309.5,-312 309.5,-312 309.5,-318 303.5,-324 297.5,-324"/>
<text text-anchor="middle" x="232" y="-303.5" font-family="sans" font-size="10.00">salmon_quantmerge_transcripts</text>
</g>
<!-- 7&#45;&gt;0 -->
<g id="edge5" class="edge"><title>7&#45;&gt;0</title>
<path fill="none" stroke="grey" stroke-width="2" d="M250.018,-287.971C259.195,-278.286 269.715,-265.431 276,-252 308.374,-182.818 316.407,-91.4095 318.377,-46.4173"/>
<polygon fill="grey" stroke="grey" stroke-width="2" points="321.88,-46.3955 318.751,-36.2734 314.885,-46.1376 321.88,-46.3955"/>
</g>
<!-- 8 -->
<g id="node9" class="node"><title>8</title>
<path fill="none" stroke="#c6d856" stroke-width="2" d="M765.5,-252C765.5,-252 734.5,-252 734.5,-252 728.5,-252 722.5,-246 722.5,-240 722.5,-240 722.5,-228 722.5,-228 722.5,-222 728.5,-216 734.5,-216 734.5,-216 765.5,-216 765.5,-216 771.5,-216 777.5,-222 777.5,-228 777.5,-228 777.5,-240 777.5,-240 777.5,-246 771.5,-252 765.5,-252"/>
<text text-anchor="middle" x="750" y="-231.5" font-family="sans" font-size="10.00">star_rpm</text>
</g>
<!-- 8&#45;&gt;0 -->
<g id="edge7" class="edge"><title>8&#45;&gt;0</title>
<path fill="none" stroke="grey" stroke-width="2" d="M730.968,-215.978C693.481,-183.32 606.294,-111.602 521,-72 466.432,-46.6639 397.734,-31.905 356.151,-24.6562"/>
<polygon fill="grey" stroke="grey" stroke-width="2" points="356.632,-21.1879 346.188,-22.9733 355.466,-28.0901 356.632,-21.1879"/>
</g>
<!-- 9 -->
<g id="node10" class="node"><title>9</title>
<path fill="none" stroke="#d86e56" stroke-width="2" d="M362,-468C362,-468 250,-468 250,-468 244,-468 238,-462 238,-456 238,-456 238,-444 238,-444 238,-438 244,-432 250,-432 250,-432 362,-432 362,-432 368,-432 374,-438 374,-444 374,-444 374,-456 374,-456 374,-462 368,-468 362,-468"/>
<text text-anchor="middle" x="306" y="-447.5" font-family="sans" font-size="10.00">pe_remove_polya_cutadapt</text>
</g>
<!-- 9&#45;&gt;3 -->
<g id="edge9" class="edge"><title>9&#45;&gt;3</title>
<path fill="none" stroke="grey" stroke-width="2" d="M320.09,-431.697C326.923,-423.305 335.257,-413.07 342.756,-403.861"/>
<polygon fill="grey" stroke="grey" stroke-width="2" points="345.472,-406.069 349.072,-396.104 340.044,-401.649 345.472,-406.069"/>
</g>
<!-- 13 -->
<g id="node14" class="node"><title>13</title>
<path fill="none" stroke="#d8ac56" stroke-width="2" d="M120.5,-396C120.5,-396 17.5,-396 17.5,-396 11.5,-396 5.5,-390 5.5,-384 5.5,-384 5.5,-372 5.5,-372 5.5,-366 11.5,-360 17.5,-360 17.5,-360 120.5,-360 120.5,-360 126.5,-360 132.5,-366 132.5,-372 132.5,-372 132.5,-384 132.5,-384 132.5,-390 126.5,-396 120.5,-396"/>
<text text-anchor="middle" x="69" y="-375.5" font-family="sans" font-size="10.00">pe_quantification_salmon</text>
</g>
<!-- 9&#45;&gt;13 -->
<g id="edge26" class="edge"><title>9&#45;&gt;13</title>
<path fill="none" stroke="grey" stroke-width="2" d="M248.326,-431.966C214.636,-422.015 171.947,-409.406 136.671,-398.987"/>
<polygon fill="grey" stroke="grey" stroke-width="2" points="137.514,-395.587 126.932,-396.111 135.531,-402.3 137.514,-395.587"/>
</g>
<!-- 15 -->
<g id="node16" class="node"><title>15</title>
<path fill="none" stroke="#56d8b1" stroke-width="2" d="M735.5,-396C735.5,-396 646.5,-396 646.5,-396 640.5,-396 634.5,-390 634.5,-384 634.5,-384 634.5,-372 634.5,-372 634.5,-366 640.5,-360 646.5,-360 646.5,-360 735.5,-360 735.5,-360 741.5,-360 747.5,-366 747.5,-372 747.5,-372 747.5,-384 747.5,-384 747.5,-390 741.5,-396 735.5,-396"/>
<text text-anchor="middle" x="691" y="-375.5" font-family="sans" font-size="10.00">pe_map_genome_star</text>
</g>
<!-- 9&#45;&gt;15 -->
<g id="edge30" class="edge"><title>9&#45;&gt;15</title>
<path fill="none" stroke="grey" stroke-width="2" d="M374.384,-433.648C377.292,-433.075 380.173,-432.523 383,-432 489.057,-412.362 517.225,-417.104 623,-396 623.462,-395.908 623.926,-395.814 624.392,-395.72"/>
<polygon fill="grey" stroke="grey" stroke-width="2" points="625.273,-399.111 634.323,-393.602 623.813,-392.265 625.273,-399.111"/>
</g>
<!-- 10 -->
<g id="node11" class="node"><title>10</title>
<path fill="none" stroke="#b6d856" stroke-width="2" d="M488,-468C488,-468 404,-468 404,-468 398,-468 392,-462 392,-456 392,-456 392,-444 392,-444 392,-438 398,-432 404,-432 404,-432 488,-432 488,-432 494,-432 500,-438 500,-444 500,-444 500,-456 500,-456 500,-462 494,-468 488,-468"/>
<text text-anchor="middle" x="446" y="-447.5" font-family="sans" font-size="10.00">create_index_kallisto</text>
</g>
<!-- 10&#45;&gt;3 -->
<g id="edge10" class="edge"><title>10&#45;&gt;3</title>
<path fill="none" stroke="grey" stroke-width="2" d="M425.483,-431.697C415.131,-422.965 402.414,-412.24 391.161,-402.75"/>
<polygon fill="grey" stroke="grey" stroke-width="2" points="393.182,-399.876 383.281,-396.104 388.669,-405.227 393.182,-399.876"/>
</g>
<!-- 10&#45;&gt;4 -->
<g id="edge12" class="edge"><title>10&#45;&gt;4</title>
<path fill="none" stroke="grey" stroke-width="2" d="M468.989,-431.697C480.814,-422.796 495.392,-411.823 508.179,-402.199"/>
<polygon fill="grey" stroke="grey" stroke-width="2" points="510.391,-404.915 516.276,-396.104 506.181,-399.322 510.391,-404.915"/>
</g>
<!-- 11 -->
<g id="node12" class="node"><title>11</title>
<path fill="none" stroke="#61d856" stroke-width="2" d="M629,-468C629,-468 533,-468 533,-468 527,-468 521,-462 521,-456 521,-456 521,-444 521,-444 521,-438 527,-432 533,-432 533,-432 629,-432 629,-432 635,-432 641,-438 641,-444 641,-444 641,-456 641,-456 641,-462 635,-468 629,-468"/>
<text text-anchor="middle" x="581" y="-447.5" font-family="sans" font-size="10.00">remove_polya_cutadapt</text>
</g>
<!-- 11&#45;&gt;4 -->
<g id="edge11" class="edge"><title>11&#45;&gt;4</title>
<path fill="none" stroke="grey" stroke-width="2" d="M570.618,-431.697C565.735,-423.559 559.813,-413.689 554.421,-404.701"/>
<polygon fill="grey" stroke="grey" stroke-width="2" points="557.409,-402.879 549.263,-396.104 551.406,-406.48 557.409,-402.879"/>
</g>
<!-- 14 -->
<g id="node15" class="node"><title>14</title>
<path fill="none" stroke="#56d8c9" stroke-width="2" d="M249.5,-396C249.5,-396 162.5,-396 162.5,-396 156.5,-396 150.5,-390 150.5,-384 150.5,-384 150.5,-372 150.5,-372 150.5,-366 156.5,-360 162.5,-360 162.5,-360 249.5,-360 249.5,-360 255.5,-360 261.5,-366 261.5,-372 261.5,-372 261.5,-384 261.5,-384 261.5,-390 255.5,-396 249.5,-396"/>
<text text-anchor="middle" x="206" y="-375.5" font-family="sans" font-size="10.00">quantification_salmon</text>
</g>
<!-- 11&#45;&gt;14 -->
<g id="edge27" class="edge"><title>11&#45;&gt;14</title>
<path fill="none" stroke="grey" stroke-width="2" d="M520.971,-434.439C516.927,-433.578 512.909,-432.756 509,-432 407.042,-412.286 377.502,-417.243 271.399,-395.95"/>
<polygon fill="grey" stroke="grey" stroke-width="2" points="272.076,-392.516 261.578,-393.949 270.678,-399.375 272.076,-392.516"/>
</g>
<!-- 17 -->
<g id="node18" class="node"><title>17</title>
<path fill="none" stroke="#d8d356" stroke-width="2" d="M850.5,-396C850.5,-396 777.5,-396 777.5,-396 771.5,-396 765.5,-390 765.5,-384 765.5,-384 765.5,-372 765.5,-372 765.5,-366 771.5,-360 777.5,-360 777.5,-360 850.5,-360 850.5,-360 856.5,-360 862.5,-366 862.5,-372 862.5,-372 862.5,-384 862.5,-384 862.5,-390 856.5,-396 850.5,-396"/>
<text text-anchor="middle" x="814" y="-375.5" font-family="sans" font-size="10.00">map_genome_star</text>
</g>
<!-- 11&#45;&gt;17 -->
<g id="edge33" class="edge"><title>11&#45;&gt;17</title>
<path fill="none" stroke="grey" stroke-width="2" d="M637.7,-431.966C673.407,-421.238 719.397,-407.421 755.452,-396.59"/>
<polygon fill="grey" stroke="grey" stroke-width="2" points="756.771,-399.848 765.341,-393.619 754.756,-393.144 756.771,-399.848"/>
</g>
<!-- 12 -->
<g id="node13" class="node"><title>12</title>
<path fill="none" stroke="#d8bc56" stroke-width="2" d="M522,-180C522,-180 446,-180 446,-180 440,-180 434,-174 434,-168 434,-168 434,-156 434,-156 434,-150 440,-144 446,-144 446,-144 522,-144 522,-144 528,-144 534,-150 534,-156 534,-156 534,-168 534,-168 534,-174 528,-180 522,-180"/>
<text text-anchor="middle" x="484" y="-159.5" font-family="sans" font-size="10.00">merge_TIN_scores</text>
</g>
<!-- 12&#45;&gt;5 -->
<g id="edge13" class="edge"><title>12&#45;&gt;5</title>
<path fill="none" stroke="grey" stroke-width="2" d="M479.798,-143.697C477.904,-135.898 475.623,-126.509 473.516,-117.829"/>
<polygon fill="grey" stroke="grey" stroke-width="2" points="476.915,-116.996 471.154,-108.104 470.113,-118.648 476.915,-116.996"/>
</g>
<!-- 13&#45;&gt;6 -->
<g id="edge15" class="edge"><title>13&#45;&gt;6</title>
<path fill="none" stroke="grey" stroke-width="2" d="M68.7528,-359.697C68.6426,-351.983 68.5102,-342.712 68.3873,-334.112"/>
<polygon fill="grey" stroke="grey" stroke-width="2" points="71.8869,-334.053 68.2443,-324.104 64.8876,-334.153 71.8869,-334.053"/>
</g>
<!-- 13&#45;&gt;7 -->
<g id="edge17" class="edge"><title>13&#45;&gt;7</title>
<path fill="none" stroke="grey" stroke-width="2" d="M108.874,-359.876C131.157,-350.307 159.115,-338.3 182.756,-328.148"/>
<polygon fill="grey" stroke="grey" stroke-width="2" points="184.448,-331.23 192.255,-324.068 181.686,-324.798 184.448,-331.23"/>
</g>
<!-- 14&#45;&gt;6 -->
<g id="edge14" class="edge"><title>14&#45;&gt;6</title>
<path fill="none" stroke="grey" stroke-width="2" d="M172.241,-359.876C153.78,-350.512 130.718,-338.814 110.983,-328.803"/>
<polygon fill="grey" stroke="grey" stroke-width="2" points="112.39,-325.592 101.888,-324.19 109.223,-331.835 112.39,-325.592"/>
</g>
<!-- 14&#45;&gt;7 -->
<g id="edge16" class="edge"><title>14&#45;&gt;7</title>
<path fill="none" stroke="grey" stroke-width="2" d="M212.427,-359.697C215.355,-351.813 218.887,-342.304 222.14,-333.546"/>
<polygon fill="grey" stroke="grey" stroke-width="2" points="225.446,-334.697 225.647,-324.104 218.884,-332.26 225.446,-334.697"/>
</g>
<!-- 15&#45;&gt;8 -->
<g id="edge20" class="edge"><title>15&#45;&gt;8</title>
<path fill="none" stroke="grey" stroke-width="2" d="M745.82,-359.961C762.658,-351.866 779.295,-340.283 789,-324 801.284,-303.391 787.883,-278.213 773.544,-259.902"/>
<polygon fill="grey" stroke="grey" stroke-width="2" points="776.066,-257.461 766.979,-252.014 770.686,-261.939 776.066,-257.461"/>
</g>
<!-- 16 -->
<g id="node17" class="node"><title>16</title>
<path fill="none" stroke="#56d88a" stroke-width="2" d="M768,-324C768,-324 618,-324 618,-324 612,-324 606,-318 606,-312 606,-312 606,-300 606,-300 606,-294 612,-288 618,-288 618,-288 768,-288 768,-288 774,-288 780,-294 780,-300 780,-300 780,-312 780,-312 780,-318 774,-324 768,-324"/>
<text text-anchor="middle" x="693" y="-303.5" font-family="sans" font-size="10.00">index_genomic_alignment_samtools</text>
</g>
<!-- 15&#45;&gt;16 -->
<g id="edge32" class="edge"><title>15&#45;&gt;16</title>
<path fill="none" stroke="grey" stroke-width="2" d="M691.494,-359.697C691.715,-351.983 691.98,-342.712 692.225,-334.112"/>
<polygon fill="grey" stroke="grey" stroke-width="2" points="695.724,-334.2 692.511,-324.104 688.727,-334 695.724,-334.2"/>
</g>
<!-- 21 -->
<g id="node22" class="node"><title>21</title>
<path fill="none" stroke="#56d8a2" stroke-width="2" d="M559,-252C559,-252 471,-252 471,-252 465,-252 459,-246 459,-240 459,-240 459,-228 459,-228 459,-222 465,-216 471,-216 471,-216 559,-216 559,-216 565,-216 571,-222 571,-228 571,-228 571,-240 571,-240 571,-246 565,-252 559,-252"/>
<text text-anchor="middle" x="515" y="-231.5" font-family="sans" font-size="10.00">calculate_TIN_scores</text>
</g>
<!-- 15&#45;&gt;21 -->
<g id="edge38" class="edge"><title>15&#45;&gt;21</title>
<path fill="none" stroke="grey" stroke-width="2" d="M634.288,-362.566C630.473,-361.674 626.684,-360.811 623,-360 581.244,-350.811 461.258,-356.94 434,-324 423.8,-311.673 426.39,-302.074 434,-288 440.818,-275.391 452.085,-265.3 464.079,-257.45"/>
<polygon fill="grey" stroke="grey" stroke-width="2" points="466.141,-260.294 472.888,-252.126 462.52,-254.303 466.141,-260.294"/>
</g>
<!-- 16&#45;&gt;8 -->
<g id="edge18" class="edge"><title>16&#45;&gt;8</title>
<path fill="none" stroke="grey" stroke-width="2" d="M707.09,-287.697C713.923,-279.305 722.257,-269.07 729.756,-259.861"/>
<polygon fill="grey" stroke="grey" stroke-width="2" points="732.472,-262.069 736.072,-252.104 727.044,-257.649 732.472,-262.069"/>
</g>
<!-- 16&#45;&gt;21 -->
<g id="edge35" class="edge"><title>16&#45;&gt;21</title>
<path fill="none" stroke="grey" stroke-width="2" d="M649.456,-287.876C624.798,-278.179 593.777,-265.98 567.746,-255.743"/>
<polygon fill="grey" stroke="grey" stroke-width="2" points="568.989,-252.471 558.402,-252.068 566.428,-258.985 568.989,-252.471"/>
</g>
<!-- 17&#45;&gt;8 -->
<g id="edge19" class="edge"><title>17&#45;&gt;8</title>
<path fill="none" stroke="grey" stroke-width="2" d="M833.772,-359.802C852.309,-341.524 875.081,-312.007 860,-288 844.242,-262.915 812.909,-249.424 787.701,-242.343"/>
<polygon fill="grey" stroke="grey" stroke-width="2" points="788.244,-238.869 777.688,-239.768 786.501,-245.649 788.244,-238.869"/>
</g>
<!-- 17&#45;&gt;16 -->
<g id="edge31" class="edge"><title>17&#45;&gt;16</title>
<path fill="none" stroke="grey" stroke-width="2" d="M784.4,-359.876C768.433,-350.639 748.54,-339.131 731.394,-329.212"/>
<polygon fill="grey" stroke="grey" stroke-width="2" points="733.122,-326.168 722.714,-324.19 729.617,-332.227 733.122,-326.168"/>
</g>
<!-- 17&#45;&gt;21 -->
<g id="edge37" class="edge"><title>17&#45;&gt;21</title>
<path fill="none" stroke="grey" stroke-width="2" d="M814.228,-359.872C813.512,-339.662 809.074,-306.478 789,-288 759.355,-260.712 652.576,-246.511 581.402,-239.909"/>
<polygon fill="grey" stroke="grey" stroke-width="2" points="581.446,-236.399 571.173,-238.99 580.819,-243.371 581.446,-236.399"/>
</g>
<!-- 18 -->
<g id="node19" class="node"><title>18</title>
<path fill="none" stroke="#d87d56" stroke-width="2" d="M358,-540C358,-540 232,-540 232,-540 226,-540 220,-534 220,-528 220,-528 220,-516 220,-516 220,-510 226,-504 232,-504 232,-504 358,-504 358,-504 364,-504 370,-510 370,-516 370,-516 370,-528 370,-528 370,-534 364,-540 358,-540"/>
<text text-anchor="middle" x="295" y="-519.5" font-family="sans" font-size="10.00">pe_remove_adapters_cutadapt</text>
</g>
<!-- 18&#45;&gt;9 -->
<g id="edge21" class="edge"><title>18&#45;&gt;9</title>
<path fill="none" stroke="grey" stroke-width="2" d="M297.719,-503.697C298.931,-495.983 300.388,-486.712 301.739,-478.112"/>
<polygon fill="grey" stroke="grey" stroke-width="2" points="305.217,-478.526 303.312,-468.104 298.302,-477.44 305.217,-478.526"/>
</g>
<!-- 19 -->
<g id="node20" class="node"><title>19</title>
<path fill="none" stroke="#56d0d8" stroke-width="2" d="M487.5,-540C487.5,-540 400.5,-540 400.5,-540 394.5,-540 388.5,-534 388.5,-528 388.5,-528 388.5,-516 388.5,-516 388.5,-510 394.5,-504 400.5,-504 400.5,-504 487.5,-504 487.5,-504 493.5,-504 499.5,-510 499.5,-516 499.5,-516 499.5,-528 499.5,-528 499.5,-534 493.5,-540 487.5,-540"/>
<text text-anchor="middle" x="444" y="-519.5" font-family="sans" font-size="10.00">extract_transcriptome</text>
</g>
<!-- 19&#45;&gt;10 -->
<g id="edge22" class="edge"><title>19&#45;&gt;10</title>
<path fill="none" stroke="grey" stroke-width="2" d="M444.494,-503.697C444.715,-495.983 444.98,-486.712 445.225,-478.112"/>
<polygon fill="grey" stroke="grey" stroke-width="2" points="448.724,-478.2 445.511,-468.104 441.727,-478 448.724,-478.2"/>
</g>
<!-- 22 -->
<g id="node23" class="node"><title>22</title>
<path fill="none" stroke="#5692d8" stroke-width="2" d="M207.5,-468C207.5,-468 122.5,-468 122.5,-468 116.5,-468 110.5,-462 110.5,-456 110.5,-456 110.5,-444 110.5,-444 110.5,-438 116.5,-432 122.5,-432 122.5,-432 207.5,-432 207.5,-432 213.5,-432 219.5,-438 219.5,-444 219.5,-444 219.5,-456 219.5,-456 219.5,-462 213.5,-468 207.5,-468"/>
<text text-anchor="middle" x="165" y="-447.5" font-family="sans" font-size="10.00">create_index_salmon</text>
</g>
<!-- 19&#45;&gt;22 -->
<g id="edge39" class="edge"><title>19&#45;&gt;22</title>
<path fill="none" stroke="grey" stroke-width="2" d="M388.35,-506.366C385.188,-505.559 382.055,-504.766 379,-504 315.486,-488.074 297.099,-485.057 229.644,-468.13"/>
<polygon fill="grey" stroke="grey" stroke-width="2" points="230.342,-464.697 219.79,-465.646 228.632,-471.484 230.342,-464.697"/>
</g>
<!-- 20 -->
<g id="node21" class="node"><title>20</title>
<path fill="none" stroke="#78d856" stroke-width="2" d="M640,-540C640,-540 530,-540 530,-540 524,-540 518,-534 518,-528 518,-528 518,-516 518,-516 518,-510 524,-504 530,-504 530,-504 640,-504 640,-504 646,-504 652,-510 652,-516 652,-516 652,-528 652,-528 652,-534 646,-540 640,-540"/>
<text text-anchor="middle" x="585" y="-519.5" font-family="sans" font-size="10.00">remove_adapters_cutadapt</text>
</g>
<!-- 20&#45;&gt;11 -->
<g id="edge23" class="edge"><title>20&#45;&gt;11</title>
<path fill="none" stroke="grey" stroke-width="2" d="M584.011,-503.697C583.57,-495.983 583.041,-486.712 582.549,-478.112"/>
<polygon fill="grey" stroke="grey" stroke-width="2" points="586.042,-477.888 581.977,-468.104 579.054,-478.288 586.042,-477.888"/>
</g>
<!-- 21&#45;&gt;12 -->
<g id="edge24" class="edge"><title>21&#45;&gt;12</title>
<path fill="none" stroke="grey" stroke-width="2" d="M507.337,-215.697C503.808,-207.728 499.544,-198.1 495.631,-189.264"/>
<polygon fill="grey" stroke="grey" stroke-width="2" points="498.824,-187.831 491.575,-180.104 492.424,-190.665 498.824,-187.831"/>
</g>
<!-- 22&#45;&gt;13 -->
<g id="edge25" class="edge"><title>22&#45;&gt;13</title>
<path fill="none" stroke="grey" stroke-width="2" d="M141.27,-431.697C129.063,-422.796 114.015,-411.823 100.816,-402.199"/>
<polygon fill="grey" stroke="grey" stroke-width="2" points="102.6,-399.168 92.4574,-396.104 98.4753,-404.824 102.6,-399.168"/>
</g>
<!-- 22&#45;&gt;14 -->
<g id="edge28" class="edge"><title>22&#45;&gt;14</title>
<path fill="none" stroke="grey" stroke-width="2" d="M175.135,-431.697C179.852,-423.644 185.562,-413.894 190.782,-404.982"/>
<polygon fill="grey" stroke="grey" stroke-width="2" points="193.948,-406.502 195.982,-396.104 187.908,-402.964 193.948,-406.502"/>
</g>
<!-- 23 -->
<g id="node24" class="node"><title>23</title>
<path fill="none" stroke="#d85656" stroke-width="2" d="M787,-468C787,-468 717,-468 717,-468 711,-468 705,-462 705,-456 705,-456 705,-444 705,-444 705,-438 711,-432 717,-432 717,-432 787,-432 787,-432 793,-432 799,-438 799,-444 799,-444 799,-456 799,-456 799,-462 793,-468 787,-468"/>
<text text-anchor="middle" x="752" y="-447.5" font-family="sans" font-size="10.00">create_index_star</text>
</g>
<!-- 23&#45;&gt;15 -->
<g id="edge29" class="edge"><title>23&#45;&gt;15</title>
<path fill="none" stroke="grey" stroke-width="2" d="M736.921,-431.697C729.608,-423.305 720.69,-413.07 712.665,-403.861"/>
<polygon fill="grey" stroke="grey" stroke-width="2" points="715.114,-401.344 705.905,-396.104 709.836,-405.943 715.114,-401.344"/>
</g>
<!-- 23&#45;&gt;17 -->
<g id="edge34" class="edge"><title>23&#45;&gt;17</title>
<path fill="none" stroke="grey" stroke-width="2" d="M767.326,-431.697C774.759,-423.305 783.823,-413.07 791.98,-403.861"/>
<polygon fill="grey" stroke="grey" stroke-width="2" points="794.84,-405.911 798.85,-396.104 789.6,-401.27 794.84,-405.911"/>
</g>
<!-- 24 -->
<g id="node25" class="node"><title>24</title>
<path fill="none" stroke="#566bd8" stroke-width="2" d="M575.5,-324C575.5,-324 454.5,-324 454.5,-324 448.5,-324 442.5,-318 442.5,-312 442.5,-312 442.5,-300 442.5,-300 442.5,-294 448.5,-288 454.5,-288 454.5,-288 575.5,-288 575.5,-288 581.5,-288 587.5,-294 587.5,-300 587.5,-300 587.5,-312 587.5,-312 587.5,-318 581.5,-324 575.5,-324"/>
<text text-anchor="middle" x="515" y="-303.5" font-family="sans" font-size="10.00">extract_transcripts_as_bed12</text>
</g>
<!-- 24&#45;&gt;21 -->
<g id="edge36" class="edge"><title>24&#45;&gt;21</title>
<path fill="none" stroke="grey" stroke-width="2" d="M515,-287.697C515,-279.983 515,-270.712 515,-262.112"/>
<polygon fill="grey" stroke="grey" stroke-width="2" points="518.5,-262.104 515,-252.104 511.5,-262.104 518.5,-262.104"/>
</g>
</g>
</svg>
