<?xml version="1.0" encoding="UTF-8" standalone="no"?>
<!DOCTYPE svg PUBLIC "-//W3C//DTD SVG 1.1//EN"
 "http://www.w3.org/Graphics/SVG/1.1/DTD/svg11.dtd">
<!-- Generated by graphviz version 2.42.3 (20191010.1750)
 -->
<!-- Title: snakemake_dag Pages: 1 -->
<svg width="1163pt" height="836pt"
 viewBox="0.00 0.00 1163.00 836.00" xmlns="http://www.w3.org/2000/svg" xmlns:xlink="http://www.w3.org/1999/xlink">
<g id="graph0" class="graph" transform="scale(1 1) rotate(0) translate(4 832)">
<title>snakemake_dag</title>
<polygon fill="white" stroke="transparent" points="-4,4 -4,-832 1159,-832 1159,4 -4,4"/>
<!-- 0 -->
<g id="node1" class="node">
<title>0</title>
<path fill="none" stroke="#9fd856" stroke-width="2" d="M681,-36C681,-36 651,-36 651,-36 645,-36 639,-30 639,-24 639,-24 639,-12 639,-12 639,-6 645,0 651,0 651,0 681,0 681,0 687,0 693,-6 693,-12 693,-12 693,-24 693,-24 693,-30 687,-36 681,-36"/>
<text text-anchor="middle" x="666" y="-15.5" font-family="sans" font-size="10.00">finish</text>
</g>
<!-- 1 -->
<g id="node2" class="node">
<title>1</title>
<path fill="none" stroke="#d6d856" stroke-width="2" d="M475,-108C475,-108 411,-108 411,-108 405,-108 399,-102 399,-96 399,-96 399,-84 399,-84 399,-78 405,-72 411,-72 411,-72 475,-72 475,-72 481,-72 487,-78 487,-84 487,-84 487,-96 487,-96 487,-102 481,-108 475,-108"/>
<text text-anchor="middle" x="443" y="-87.5" font-family="sans" font-size="10.00">multiqc_report</text>
</g>
<!-- 1&#45;&gt;0 -->
<g id="edge2" class="edge">
<title>1&#45;&gt;0</title>
<path fill="none" stroke="grey" stroke-width="2" d="M487.06,-75.17C528.54,-62.15 589.97,-42.87 628.98,-30.62"/>
<polygon fill="grey" stroke="grey" stroke-width="2" points="630.38,-33.85 638.87,-27.52 628.28,-27.17 630.38,-33.85"/>
</g>
<!-- 2 -->
<g id="node3" class="node">
<title>2</title>
<path fill="none" stroke="#d8b456" stroke-width="2" d="M1088.5,-252C1088.5,-252 1019.5,-252 1019.5,-252 1013.5,-252 1007.5,-246 1007.5,-240 1007.5,-240 1007.5,-228 1007.5,-228 1007.5,-222 1013.5,-216 1019.5,-216 1019.5,-216 1088.5,-216 1088.5,-216 1094.5,-216 1100.5,-222 1100.5,-228 1100.5,-228 1100.5,-240 1100.5,-240 1100.5,-246 1094.5,-252 1088.5,-252"/>
<text text-anchor="middle" x="1054" y="-231.5" font-family="sans" font-size="10.00">prepare_bigWig</text>
</g>
<!-- 2&#45;&gt;0 -->
<g id="edge6" class="edge">
<title>2&#45;&gt;0</title>
<path fill="none" stroke="grey" stroke-width="2" d="M1045.74,-215.87C1028.64,-182.37 985.97,-108.29 927,-72 856.49,-28.61 756.92,-19.99 703.45,-18.73"/>
<polygon fill="grey" stroke="grey" stroke-width="2" points="703.44,-15.23 693.39,-18.56 703.33,-22.23 703.44,-15.23"/>
</g>
<!-- 3 -->
<g id="node4" class="node">
<title>3</title>
<path fill="none" stroke="#78d856" stroke-width="2" d="M791,-252C791,-252 663,-252 663,-252 657,-252 651,-246 651,-240 651,-240 651,-228 651,-228 651,-222 657,-216 663,-216 663,-216 791,-216 791,-216 797,-216 803,-222 803,-228 803,-228 803,-240 803,-240 803,-246 797,-252 791,-252"/>
<text text-anchor="middle" x="727" y="-231.5" font-family="sans" font-size="10.00">salmon_quantmerge_genes</text>
</g>
<!-- 3&#45;&gt;0 -->
<g id="edge5" class="edge">
<title>3&#45;&gt;0</title>
<path fill="none" stroke="grey" stroke-width="2" d="M803.42,-219.49C845.4,-210.34 891.45,-196.85 904,-180 932.66,-141.5 934.03,-109.45 904,-72 879.27,-41.16 763.93,-27.11 703.36,-21.76"/>
<polygon fill="grey" stroke="grey" stroke-width="2" points="703.34,-18.25 693.08,-20.89 702.75,-25.22 703.34,-18.25"/>
</g>
<!-- 12 -->
<g id="node13" class="node">
<title>12</title>
<path fill="none" stroke="#61d856" stroke-width="2" d="M571.5,-180C571.5,-180 520.5,-180 520.5,-180 514.5,-180 508.5,-174 508.5,-168 508.5,-168 508.5,-156 508.5,-156 508.5,-150 514.5,-144 520.5,-144 520.5,-144 571.5,-144 571.5,-144 577.5,-144 583.5,-150 583.5,-156 583.5,-156 583.5,-168 583.5,-168 583.5,-174 577.5,-180 571.5,-180"/>
<text text-anchor="middle" x="546" y="-159.5" font-family="sans" font-size="10.00">pca_salmon</text>
</g>
<!-- 3&#45;&gt;12 -->
<g id="edge33" class="edge">
<title>3&#45;&gt;12</title>
<path fill="none" stroke="grey" stroke-width="2" d="M682.72,-215.88C655.57,-205.38 620.84,-191.94 593.17,-181.24"/>
<polygon fill="grey" stroke="grey" stroke-width="2" points="594.29,-177.92 583.7,-177.58 591.77,-184.45 594.29,-177.92"/>
</g>
<!-- 4 -->
<g id="node5" class="node">
<title>4</title>
<path fill="none" stroke="#d88d56" stroke-width="2" d="M621,-252C621,-252 471,-252 471,-252 465,-252 459,-246 459,-240 459,-240 459,-228 459,-228 459,-222 465,-216 471,-216 471,-216 621,-216 621,-216 627,-216 633,-222 633,-228 633,-228 633,-240 633,-240 633,-246 627,-252 621,-252"/>
<text text-anchor="middle" x="546" y="-231.5" font-family="sans" font-size="10.00">salmon_quantmerge_transcripts</text>
</g>
<!-- 4&#45;&gt;0 -->
<g id="edge4" class="edge">
<title>4&#45;&gt;0</title>
<path fill="none" stroke="grey" stroke-width="2" d="M633.11,-217.5C636.11,-216.99 639.08,-216.49 642,-216 692.81,-207.51 837.52,-219.15 871,-180 928.86,-112.33 776.7,-53.58 703.16,-30.01"/>
<polygon fill="grey" stroke="grey" stroke-width="2" points="703.93,-26.58 693.34,-26.92 701.83,-33.26 703.93,-26.58"/>
</g>
<!-- 4&#45;&gt;12 -->
<g id="edge32" class="edge">
<title>4&#45;&gt;12</title>
<path fill="none" stroke="grey" stroke-width="2" d="M546,-215.7C546,-207.98 546,-198.71 546,-190.11"/>
<polygon fill="grey" stroke="grey" stroke-width="2" points="549.5,-190.1 546,-180.1 542.5,-190.1 549.5,-190.1"/>
</g>
<!-- 5 -->
<g id="node6" class="node">
<title>5</title>
<path fill="none" stroke="#56d882" stroke-width="2" d="M200,-252C200,-252 78,-252 78,-252 72,-252 66,-246 66,-240 66,-240 66,-228 66,-228 66,-222 72,-216 78,-216 78,-216 200,-216 200,-216 206,-216 212,-222 212,-228 212,-228 212,-240 212,-240 212,-246 206,-252 200,-252"/>
<text text-anchor="middle" x="139" y="-231.5" font-family="sans" font-size="10.00">kallisto_merge_transcripts</text>
</g>
<!-- 5&#45;&gt;0 -->
<g id="edge3" class="edge">
<title>5&#45;&gt;0</title>
<path fill="none" stroke="grey" stroke-width="2" d="M148.74,-215.79C168.99,-181.8 219.2,-106.38 284,-72 343.42,-40.48 544.85,-25.79 628.79,-20.93"/>
<polygon fill="grey" stroke="grey" stroke-width="2" points="629.11,-24.42 638.9,-20.36 628.72,-17.43 629.11,-24.42"/>
</g>
<!-- 13 -->
<g id="node14" class="node">
<title>13</title>
<path fill="none" stroke="#56d892" stroke-width="2" d="M327.5,-180C327.5,-180 276.5,-180 276.5,-180 270.5,-180 264.5,-174 264.5,-168 264.5,-168 264.5,-156 264.5,-156 264.5,-150 270.5,-144 276.5,-144 276.5,-144 327.5,-144 327.5,-144 333.5,-144 339.5,-150 339.5,-156 339.5,-156 339.5,-168 339.5,-168 339.5,-174 333.5,-180 327.5,-180"/>
<text text-anchor="middle" x="302" y="-159.5" font-family="sans" font-size="10.00">pca_kallisto</text>
</g>
<!-- 5&#45;&gt;13 -->
<g id="edge35" class="edge">
<title>5&#45;&gt;13</title>
<path fill="none" stroke="grey" stroke-width="2" d="M178.87,-215.88C201.92,-205.98 231.04,-193.47 255.17,-183.11"/>
<polygon fill="grey" stroke="grey" stroke-width="2" points="256.69,-186.27 264.5,-179.11 253.93,-179.84 256.69,-186.27"/>
</g>
<!-- 6 -->
<g id="node7" class="node">
<title>6</title>
<path fill="none" stroke="#56d87b" stroke-width="2" d="M342,-252C342,-252 242,-252 242,-252 236,-252 230,-246 230,-240 230,-240 230,-228 230,-228 230,-222 236,-216 242,-216 242,-216 342,-216 342,-216 348,-216 354,-222 354,-228 354,-228 354,-240 354,-240 354,-246 348,-252 342,-252"/>
<text text-anchor="middle" x="292" y="-231.5" font-family="sans" font-size="10.00">kallisto_merge_genes</text>
</g>
<!-- 6&#45;&gt;0 -->
<g id="edge1" class="edge">
<title>6&#45;&gt;0</title>
<path fill="none" stroke="grey" stroke-width="2" d="M275.63,-215.9C260.04,-197.44 240.88,-167.53 255,-144 289.99,-85.69 325.89,-94.67 390,-72 472.37,-42.88 574.54,-28.56 628.52,-22.59"/>
<polygon fill="grey" stroke="grey" stroke-width="2" points="629.08,-26.05 638.65,-21.51 628.33,-19.09 629.08,-26.05"/>
</g>
<!-- 6&#45;&gt;13 -->
<g id="edge34" class="edge">
<title>6&#45;&gt;13</title>
<path fill="none" stroke="grey" stroke-width="2" d="M294.47,-215.7C295.57,-207.98 296.9,-198.71 298.13,-190.11"/>
<polygon fill="grey" stroke="grey" stroke-width="2" points="301.61,-190.5 299.56,-180.1 294.68,-189.51 301.61,-190.5"/>
</g>
<!-- 7 -->
<g id="node8" class="node">
<title>7</title>
<path fill="none" stroke="#d86e56" stroke-width="2" d="M52,-756C52,-756 22,-756 22,-756 16,-756 10,-750 10,-744 10,-744 10,-732 10,-732 10,-726 16,-720 22,-720 22,-720 52,-720 52,-720 58,-720 64,-726 64,-732 64,-732 64,-744 64,-744 64,-750 58,-756 52,-756"/>
<text text-anchor="middle" x="37" y="-735.5" font-family="sans" font-size="10.00">fastqc</text>
</g>
<!-- 7&#45;&gt;1 -->
<g id="edge7" class="edge">
<title>7&#45;&gt;1</title>
<path fill="none" stroke="grey" stroke-width="2" d="M29.51,-719.89C18.7,-693.58 0,-641.37 0,-595 0,-595 0,-595 0,-233 0,-170.8 51.29,-169.54 108,-144 200.56,-102.32 320.38,-92.74 388.77,-90.93"/>
<polygon fill="grey" stroke="grey" stroke-width="2" points="388.96,-94.43 398.89,-90.71 388.81,-87.43 388.96,-94.43"/>
</g>
<!-- 8 -->
<g id="node9" class="node">
<title>8</title>
<path fill="none" stroke="#56d8b9" stroke-width="2" d="M202.5,-324C202.5,-324 39.5,-324 39.5,-324 33.5,-324 27.5,-318 27.5,-312 27.5,-312 27.5,-300 27.5,-300 27.5,-294 33.5,-288 39.5,-288 39.5,-288 202.5,-288 202.5,-288 208.5,-288 214.5,-294 214.5,-300 214.5,-300 214.5,-312 214.5,-312 214.5,-318 208.5,-324 202.5,-324"/>
<text text-anchor="middle" x="121" y="-303.5" font-family="sans" font-size="10.00">pe_genome_quantification_kallisto</text>
</g>
<!-- 8&#45;&gt;1 -->
<g id="edge9" class="edge">
<title>8&#45;&gt;1</title>
<path fill="none" stroke="grey" stroke-width="2" d="M90.23,-287.91C77.46,-279.02 64,-266.88 57,-252 50.19,-237.52 47.82,-229.11 57,-216 95.64,-160.83 291.94,-118.33 388.8,-100.36"/>
<polygon fill="grey" stroke="grey" stroke-width="2" points="389.49,-103.79 398.7,-98.55 388.23,-96.91 389.49,-103.79"/>
</g>
<!-- 8&#45;&gt;5 -->
<g id="edge21" class="edge">
<title>8&#45;&gt;5</title>
<path fill="none" stroke="grey" stroke-width="2" d="M125.45,-287.7C127.45,-279.9 129.87,-270.51 132.1,-261.83"/>
<polygon fill="grey" stroke="grey" stroke-width="2" points="135.5,-262.66 134.6,-252.1 128.72,-260.92 135.5,-262.66"/>
</g>
<!-- 8&#45;&gt;6 -->
<g id="edge23" class="edge">
<title>8&#45;&gt;6</title>
<path fill="none" stroke="grey" stroke-width="2" d="M162.83,-287.88C186.42,-278.22 216.06,-266.09 241,-255.88"/>
<polygon fill="grey" stroke="grey" stroke-width="2" points="242.38,-259.1 250.3,-252.07 239.72,-252.62 242.38,-259.1"/>
</g>
<!-- 9 -->
<g id="node10" class="node">
<title>9</title>
<path fill="none" stroke="#56d8c9" stroke-width="2" d="M391,-324C391,-324 245,-324 245,-324 239,-324 233,-318 233,-312 233,-312 233,-300 233,-300 233,-294 239,-288 245,-288 245,-288 391,-288 391,-288 397,-288 403,-294 403,-300 403,-300 403,-312 403,-312 403,-318 397,-324 391,-324"/>
<text text-anchor="middle" x="318" y="-303.5" font-family="sans" font-size="10.00">genome_quantification_kallisto</text>
</g>
<!-- 9&#45;&gt;1 -->
<g id="edge10" class="edge">
<title>9&#45;&gt;1</title>
<path fill="none" stroke="grey" stroke-width="2" d="M336.24,-287.95C345.57,-278.26 356.34,-265.4 363,-252 384.89,-207.97 362.75,-186.77 387,-144 393.19,-133.08 402.36,-123.05 411.49,-114.73"/>
<polygon fill="grey" stroke="grey" stroke-width="2" points="413.82,-117.34 419.09,-108.15 409.24,-112.05 413.82,-117.34"/>
</g>
<!-- 9&#45;&gt;5 -->
<g id="edge22" class="edge">
<title>9&#45;&gt;5</title>
<path fill="none" stroke="grey" stroke-width="2" d="M274.21,-287.88C249.42,-278.18 218.22,-265.98 192.04,-255.74"/>
<polygon fill="grey" stroke="grey" stroke-width="2" points="193.23,-252.45 182.65,-252.07 190.68,-258.97 193.23,-252.45"/>
</g>
<!-- 9&#45;&gt;6 -->
<g id="edge24" class="edge">
<title>9&#45;&gt;6</title>
<path fill="none" stroke="grey" stroke-width="2" d="M311.57,-287.7C308.64,-279.81 305.11,-270.3 301.86,-261.55"/>
<polygon fill="grey" stroke="grey" stroke-width="2" points="305.12,-260.26 298.35,-252.1 298.55,-262.7 305.12,-260.26"/>
</g>
<!-- 10 -->
<g id="node11" class="node">
<title>10</title>
<path fill="none" stroke="#56d85b" stroke-width="2" d="M478,-180C478,-180 408,-180 408,-180 402,-180 396,-174 396,-168 396,-168 396,-156 396,-156 396,-150 402,-144 408,-144 408,-144 478,-144 478,-144 484,-144 490,-150 490,-156 490,-156 490,-168 490,-168 490,-174 484,-180 478,-180"/>
<text text-anchor="middle" x="443" y="-159.5" font-family="sans" font-size="10.00">plot_TIN_scores</text>
</g>
<!-- 10&#45;&gt;1 -->
<g id="edge14" class="edge">
<title>10&#45;&gt;1</title>
<path fill="none" stroke="grey" stroke-width="2" d="M443,-143.7C443,-135.98 443,-126.71 443,-118.11"/>
<polygon fill="grey" stroke="grey" stroke-width="2" points="446.5,-118.1 443,-108.1 439.5,-118.1 446.5,-118.1"/>
</g>
<!-- 11 -->
<g id="node12" class="node">
<title>11</title>
<path fill="none" stroke="#5663d8" stroke-width="2" d="M849.5,-180C849.5,-180 762.5,-180 762.5,-180 756.5,-180 750.5,-174 750.5,-168 750.5,-168 750.5,-156 750.5,-156 750.5,-150 756.5,-144 762.5,-144 762.5,-144 849.5,-144 849.5,-144 855.5,-144 861.5,-150 861.5,-156 861.5,-156 861.5,-168 861.5,-168 861.5,-174 855.5,-180 849.5,-180"/>
<text text-anchor="middle" x="806" y="-159.5" font-family="sans" font-size="10.00">alfa_concat_results</text>
</g>
<!-- 11&#45;&gt;1 -->
<g id="edge11" class="edge">
<title>11&#45;&gt;1</title>
<path fill="none" stroke="grey" stroke-width="2" d="M750.22,-145.89C747.45,-145.23 744.69,-144.6 742,-144 656.96,-125.2 557.17,-108.6 497.07,-99.18"/>
<polygon fill="grey" stroke="grey" stroke-width="2" points="497.47,-95.7 487.05,-97.62 496.4,-102.62 497.47,-95.7"/>
</g>
<!-- 12&#45;&gt;1 -->
<g id="edge13" class="edge">
<title>12&#45;&gt;1</title>
<path fill="none" stroke="grey" stroke-width="2" d="M520.8,-143.88C507.59,-134.89 491.21,-123.76 476.89,-114.03"/>
<polygon fill="grey" stroke="grey" stroke-width="2" points="478.53,-110.92 468.29,-108.19 474.6,-116.71 478.53,-110.92"/>
</g>
<!-- 13&#45;&gt;1 -->
<g id="edge8" class="edge">
<title>13&#45;&gt;1</title>
<path fill="none" stroke="grey" stroke-width="2" d="M336.49,-143.88C355.44,-134.47 379.13,-122.71 399.36,-112.67"/>
<polygon fill="grey" stroke="grey" stroke-width="2" points="400.97,-115.77 408.37,-108.19 397.86,-109.5 400.97,-115.77"/>
</g>
<!-- 14 -->
<g id="node15" class="node">
<title>14</title>
<path fill="none" stroke="#56d0d8" stroke-width="2" d="M720.5,-180C720.5,-180 613.5,-180 613.5,-180 607.5,-180 601.5,-174 601.5,-168 601.5,-168 601.5,-156 601.5,-156 601.5,-150 607.5,-144 613.5,-144 613.5,-144 720.5,-144 720.5,-144 726.5,-144 732.5,-150 732.5,-156 732.5,-156 732.5,-168 732.5,-168 732.5,-174 726.5,-180 720.5,-180"/>
<text text-anchor="middle" x="667" y="-159.5" font-family="sans" font-size="10.00">prepare_multiqc_config</text>
</g>
<!-- 14&#45;&gt;1 -->
<g id="edge12" class="edge">
<title>14&#45;&gt;1</title>
<path fill="none" stroke="grey" stroke-width="2" d="M612.49,-143.97C577.33,-132.98 531.81,-118.75 496.79,-107.81"/>
<polygon fill="grey" stroke="grey" stroke-width="2" points="497.8,-104.46 487.21,-104.82 495.71,-111.14 497.8,-104.46"/>
</g>
<!-- 15 -->
<g id="node16" class="node">
<title>15</title>
<path fill="none" stroke="#5673d8" stroke-width="2" d="M1087,-324C1087,-324 1021,-324 1021,-324 1015,-324 1009,-318 1009,-312 1009,-312 1009,-300 1009,-300 1009,-294 1015,-288 1021,-288 1021,-288 1087,-288 1087,-288 1093,-288 1099,-294 1099,-300 1099,-300 1099,-312 1099,-312 1099,-318 1093,-324 1087,-324"/>
<text text-anchor="middle" x="1054" y="-303.5" font-family="sans" font-size="10.00">sort_bed_4_big</text>
</g>
<!-- 15&#45;&gt;2 -->
<g id="edge16" class="edge">
<title>15&#45;&gt;2</title>
<path fill="none" stroke="grey" stroke-width="2" d="M1054,-287.7C1054,-279.98 1054,-270.71 1054,-262.11"/>
<polygon fill="grey" stroke="grey" stroke-width="2" points="1057.5,-262.1 1054,-252.1 1050.5,-262.1 1057.5,-262.1"/>
</g>
<!-- 16 -->
<g id="node17" class="node">
<title>16</title>
<path fill="none" stroke="#56c1d8" stroke-width="2" d="M989,-684C989,-684 909,-684 909,-684 903,-684 897,-678 897,-672 897,-672 897,-660 897,-660 897,-654 903,-648 909,-648 909,-648 989,-648 989,-648 995,-648 1001,-654 1001,-660 1001,-660 1001,-672 1001,-672 1001,-678 995,-684 989,-684"/>
<text text-anchor="middle" x="949" y="-663.5" font-family="sans" font-size="10.00">create_index_star</text>
</g>
<!-- 16&#45;&gt;2 -->
<g id="edge15" class="edge">
<title>16&#45;&gt;2</title>
<path fill="none" stroke="grey" stroke-width="2" d="M1001.3,-656.32C1033.15,-648.9 1073.12,-635.52 1102,-612 1137.69,-582.92 1155,-569.04 1155,-523 1155,-523 1155,-523 1155,-377 1155,-328.19 1114.89,-284.51 1085.22,-258.87"/>
<polygon fill="grey" stroke="grey" stroke-width="2" points="1087.09,-255.87 1077.17,-252.13 1082.59,-261.23 1087.09,-255.87"/>
</g>
<!-- 26 -->
<g id="node27" class="node">
<title>26</title>
<path fill="none" stroke="#568ad8" stroke-width="2" d="M591.5,-396C591.5,-396 494.5,-396 494.5,-396 488.5,-396 482.5,-390 482.5,-384 482.5,-384 482.5,-372 482.5,-372 482.5,-366 488.5,-360 494.5,-360 494.5,-360 591.5,-360 591.5,-360 597.5,-360 603.5,-366 603.5,-372 603.5,-372 603.5,-384 603.5,-384 603.5,-390 597.5,-396 591.5,-396"/>
<text text-anchor="middle" x="543" y="-375.5" font-family="sans" font-size="10.00">create_index_salmon</text>
</g>
<!-- 16&#45;&gt;26 -->
<g id="edge48" class="edge">
<title>16&#45;&gt;26</title>
<path fill="none" stroke="grey" stroke-width="2" d="M951.45,-647.88C956.59,-604.61 963.37,-490.23 902,-432 861.69,-393.75 706.5,-383.05 613.87,-380.09"/>
<polygon fill="grey" stroke="grey" stroke-width="2" points="613.83,-376.59 603.73,-379.79 613.62,-383.59 613.83,-376.59"/>
</g>
<!-- 34 -->
<g id="node35" class="node">
<title>34</title>
<path fill="none" stroke="#afd856" stroke-width="2" d="M759.5,-612C759.5,-612 658.5,-612 658.5,-612 652.5,-612 646.5,-606 646.5,-600 646.5,-600 646.5,-588 646.5,-588 646.5,-582 652.5,-576 658.5,-576 658.5,-576 759.5,-576 759.5,-576 765.5,-576 771.5,-582 771.5,-588 771.5,-588 771.5,-600 771.5,-600 771.5,-606 765.5,-612 759.5,-612"/>
<text text-anchor="middle" x="709" y="-591.5" font-family="sans" font-size="10.00">pe_map_genome_star</text>
</g>
<!-- 16&#45;&gt;34 -->
<g id="edge62" class="edge">
<title>16&#45;&gt;34</title>
<path fill="none" stroke="grey" stroke-width="2" d="M896.92,-649.81C861.87,-639.59 815.28,-626 777.26,-614.91"/>
<polygon fill="grey" stroke="grey" stroke-width="2" points="777.87,-611.44 767.29,-612 775.91,-618.16 777.87,-611.44"/>
</g>
<!-- 37 -->
<g id="node38" class="node">
<title>37</title>
<path fill="none" stroke="#d89c56" stroke-width="2" d="M908.5,-612C908.5,-612 825.5,-612 825.5,-612 819.5,-612 813.5,-606 813.5,-600 813.5,-600 813.5,-588 813.5,-588 813.5,-582 819.5,-576 825.5,-576 825.5,-576 908.5,-576 908.5,-576 914.5,-576 920.5,-582 920.5,-588 920.5,-588 920.5,-600 920.5,-600 920.5,-606 914.5,-612 908.5,-612"/>
<text text-anchor="middle" x="867" y="-591.5" font-family="sans" font-size="10.00">map_genome_star</text>
</g>
<!-- 16&#45;&gt;37 -->
<g id="edge66" class="edge">
<title>16&#45;&gt;37</title>
<path fill="none" stroke="grey" stroke-width="2" d="M928.73,-647.7C918.5,-638.97 905.94,-628.24 894.82,-618.75"/>
<polygon fill="grey" stroke="grey" stroke-width="2" points="896.91,-615.94 887.04,-612.1 892.37,-621.26 896.91,-615.94"/>
</g>
<!-- 38 -->
<g id="node39" class="node">
<title>38</title>
<path fill="none" stroke="#d87d56" stroke-width="2" d="M1081,-612C1081,-612 989,-612 989,-612 983,-612 977,-606 977,-600 977,-600 977,-588 977,-588 977,-582 983,-576 989,-576 989,-576 1081,-576 1081,-576 1087,-576 1093,-582 1093,-588 1093,-588 1093,-600 1093,-600 1093,-606 1087,-612 1081,-612"/>
<text text-anchor="middle" x="1035" y="-591.5" font-family="sans" font-size="10.00">generate_alfa_index</text>
</g>
<!-- 16&#45;&gt;38 -->
<g id="edge67" class="edge">
<title>16&#45;&gt;38</title>
<path fill="none" stroke="grey" stroke-width="2" d="M970.26,-647.7C981.09,-638.88 994.42,-628.03 1006.16,-618.47"/>
<polygon fill="grey" stroke="grey" stroke-width="2" points="1008.44,-621.13 1013.99,-612.1 1004.02,-615.7 1008.44,-621.13"/>
</g>
<!-- 17 -->
<g id="node18" class="node">
<title>17</title>
<path fill="none" stroke="#56d86b" stroke-width="2" d="M590,-324C590,-324 472,-324 472,-324 466,-324 460,-318 460,-312 460,-312 460,-300 460,-300 460,-294 466,-288 472,-288 472,-288 590,-288 590,-288 596,-288 602,-294 602,-300 602,-300 602,-312 602,-312 602,-318 596,-324 590,-324"/>
<text text-anchor="middle" x="531" y="-303.5" font-family="sans" font-size="10.00">pe_quantification_salmon</text>
</g>
<!-- 17&#45;&gt;3 -->
<g id="edge17" class="edge">
<title>17&#45;&gt;3</title>
<path fill="none" stroke="grey" stroke-width="2" d="M578.7,-287.97C606.08,-278.19 640.66,-265.84 669.53,-255.52"/>
<polygon fill="grey" stroke="grey" stroke-width="2" points="670.85,-258.77 679.09,-252.11 668.5,-252.18 670.85,-258.77"/>
</g>
<!-- 17&#45;&gt;4 -->
<g id="edge19" class="edge">
<title>17&#45;&gt;4</title>
<path fill="none" stroke="grey" stroke-width="2" d="M534.71,-287.7C536.36,-279.98 538.35,-270.71 540.19,-262.11"/>
<polygon fill="grey" stroke="grey" stroke-width="2" points="543.66,-262.62 542.33,-252.1 536.82,-261.15 543.66,-262.62"/>
</g>
<!-- 18 -->
<g id="node19" class="node">
<title>18</title>
<path fill="none" stroke="#569ad8" stroke-width="2" d="M733.5,-324C733.5,-324 632.5,-324 632.5,-324 626.5,-324 620.5,-318 620.5,-312 620.5,-312 620.5,-300 620.5,-300 620.5,-294 626.5,-288 632.5,-288 632.5,-288 733.5,-288 733.5,-288 739.5,-288 745.5,-294 745.5,-300 745.5,-300 745.5,-312 745.5,-312 745.5,-318 739.5,-324 733.5,-324"/>
<text text-anchor="middle" x="683" y="-303.5" font-family="sans" font-size="10.00">quantification_salmon</text>
</g>
<!-- 18&#45;&gt;3 -->
<g id="edge18" class="edge">
<title>18&#45;&gt;3</title>
<path fill="none" stroke="grey" stroke-width="2" d="M693.88,-287.7C698.99,-279.56 705.2,-269.69 710.84,-260.7"/>
<polygon fill="grey" stroke="grey" stroke-width="2" points="713.89,-262.43 716.25,-252.1 707.96,-258.71 713.89,-262.43"/>
</g>
<!-- 18&#45;&gt;4 -->
<g id="edge20" class="edge">
<title>18&#45;&gt;4</title>
<path fill="none" stroke="grey" stroke-width="2" d="M649.49,-287.88C631.16,-278.51 608.26,-266.81 588.67,-256.8"/>
<polygon fill="grey" stroke="grey" stroke-width="2" points="590.14,-253.62 579.64,-252.19 586.96,-259.86 590.14,-253.62"/>
</g>
<!-- 19 -->
<g id="node20" class="node">
<title>19</title>
<path fill="none" stroke="#d8c356" stroke-width="2" d="M206,-828C206,-828 176,-828 176,-828 170,-828 164,-822 164,-816 164,-816 164,-804 164,-804 164,-798 170,-792 176,-792 176,-792 206,-792 206,-792 212,-792 218,-798 218,-804 218,-804 218,-816 218,-816 218,-822 212,-828 206,-828"/>
<text text-anchor="middle" x="191" y="-807.5" font-family="sans" font-size="10.00">start</text>
</g>
<!-- 19&#45;&gt;7 -->
<g id="edge25" class="edge">
<title>19&#45;&gt;7</title>
<path fill="none" stroke="grey" stroke-width="2" d="M163.82,-796.65C138.72,-785.24 101.23,-768.2 73.52,-755.6"/>
<polygon fill="grey" stroke="grey" stroke-width="2" points="74.72,-752.3 64.16,-751.35 71.82,-758.67 74.72,-752.3"/>
</g>
<!-- 27 -->
<g id="node28" class="node">
<title>27</title>
<path fill="none" stroke="#56d8a2" stroke-width="2" d="M262.5,-756C262.5,-756 119.5,-756 119.5,-756 113.5,-756 107.5,-750 107.5,-744 107.5,-744 107.5,-732 107.5,-732 107.5,-726 113.5,-720 119.5,-720 119.5,-720 262.5,-720 262.5,-720 268.5,-720 274.5,-726 274.5,-732 274.5,-732 274.5,-744 274.5,-744 274.5,-750 268.5,-756 262.5,-756"/>
<text text-anchor="middle" x="191" y="-735.5" font-family="sans" font-size="10.00">pe_remove_adapters_cutadapt</text>
</g>
<!-- 19&#45;&gt;27 -->
<g id="edge49" class="edge">
<title>19&#45;&gt;27</title>
<path fill="none" stroke="grey" stroke-width="2" d="M191,-791.7C191,-783.98 191,-774.71 191,-766.11"/>
<polygon fill="grey" stroke="grey" stroke-width="2" points="194.5,-766.1 191,-756.1 187.5,-766.1 194.5,-766.1"/>
</g>
<!-- 29 -->
<g id="node30" class="node">
<title>29</title>
<path fill="none" stroke="#d85656" stroke-width="2" d="M430,-756C430,-756 304,-756 304,-756 298,-756 292,-750 292,-744 292,-744 292,-732 292,-732 292,-726 298,-720 304,-720 304,-720 430,-720 430,-720 436,-720 442,-726 442,-732 442,-732 442,-744 442,-744 442,-750 436,-756 430,-756"/>
<text text-anchor="middle" x="367" y="-735.5" font-family="sans" font-size="10.00">remove_adapters_cutadapt</text>
</g>
<!-- 19&#45;&gt;29 -->
<g id="edge50" class="edge">
<title>19&#45;&gt;29</title>
<path fill="none" stroke="grey" stroke-width="2" d="M218.11,-798.22C243.72,-788.03 282.81,-772.48 314.51,-759.88"/>
<polygon fill="grey" stroke="grey" stroke-width="2" points="316.09,-763.01 324.09,-756.07 313.51,-756.51 316.09,-763.01"/>
</g>
<!-- 20 -->
<g id="node21" class="node">
<title>20</title>
<path fill="none" stroke="#c6d856" stroke-width="2" d="M262,-684C262,-684 134,-684 134,-684 128,-684 122,-678 122,-672 122,-672 122,-660 122,-660 122,-654 128,-648 134,-648 134,-648 262,-648 262,-648 268,-648 274,-654 274,-660 274,-660 274,-672 274,-672 274,-678 268,-684 262,-684"/>
<text text-anchor="middle" x="198" y="-663.5" font-family="sans" font-size="10.00">pe_remove_polya_cutadapt</text>
</g>
<!-- 20&#45;&gt;8 -->
<g id="edge26" class="edge">
<title>20&#45;&gt;8</title>
<path fill="none" stroke="grey" stroke-width="2" d="M178.25,-647.91C152.03,-623.21 109,-574.79 109,-523 109,-523 109,-523 109,-449 109,-408.85 113.82,-362.55 117.35,-334.02"/>
<polygon fill="grey" stroke="grey" stroke-width="2" points="120.84,-334.37 118.63,-324.01 113.89,-333.49 120.84,-334.37"/>
</g>
<!-- 20&#45;&gt;17 -->
<g id="edge37" class="edge">
<title>20&#45;&gt;17</title>
<path fill="none" stroke="grey" stroke-width="2" d="M219.1,-647.68C246.54,-623.08 291,-575.16 291,-523 291,-523 291,-523 291,-449 291,-373.44 380.21,-337.23 449.85,-320.48"/>
<polygon fill="grey" stroke="grey" stroke-width="2" points="451.01,-323.8 459.97,-318.15 449.44,-316.98 451.01,-323.8"/>
</g>
<!-- 20&#45;&gt;34 -->
<g id="edge61" class="edge">
<title>20&#45;&gt;34</title>
<path fill="none" stroke="grey" stroke-width="2" d="M274.07,-650.74C279.79,-649.78 285.49,-648.85 291,-648 411.58,-629.35 552.47,-612.5 636.03,-603.03"/>
<polygon fill="grey" stroke="grey" stroke-width="2" points="636.63,-606.48 646.18,-601.88 635.85,-599.53 636.63,-606.48"/>
</g>
<!-- 21 -->
<g id="node22" class="node">
<title>21</title>
<path fill="none" stroke="#d86656" stroke-width="2" d="M248.5,-396C248.5,-396 151.5,-396 151.5,-396 145.5,-396 139.5,-390 139.5,-384 139.5,-384 139.5,-372 139.5,-372 139.5,-366 145.5,-360 151.5,-360 151.5,-360 248.5,-360 248.5,-360 254.5,-360 260.5,-366 260.5,-372 260.5,-372 260.5,-384 260.5,-384 260.5,-390 254.5,-396 248.5,-396"/>
<text text-anchor="middle" x="200" y="-375.5" font-family="sans" font-size="10.00">create_index_kallisto</text>
</g>
<!-- 21&#45;&gt;8 -->
<g id="edge27" class="edge">
<title>21&#45;&gt;8</title>
<path fill="none" stroke="grey" stroke-width="2" d="M180.47,-359.7C170.62,-350.97 158.51,-340.24 147.8,-330.75"/>
<polygon fill="grey" stroke="grey" stroke-width="2" points="150.11,-328.12 140.3,-324.1 145.47,-333.36 150.11,-328.12"/>
</g>
<!-- 21&#45;&gt;9 -->
<g id="edge29" class="edge">
<title>21&#45;&gt;9</title>
<path fill="none" stroke="grey" stroke-width="2" d="M228.87,-359.88C244.29,-350.72 263.48,-339.34 280.1,-329.48"/>
<polygon fill="grey" stroke="grey" stroke-width="2" points="282.21,-332.3 289.02,-324.19 278.64,-326.28 282.21,-332.3"/>
</g>
<!-- 22 -->
<g id="node23" class="node">
<title>22</title>
<path fill="none" stroke="#567bd8" stroke-width="2" d="M422,-684C422,-684 312,-684 312,-684 306,-684 300,-678 300,-672 300,-672 300,-660 300,-660 300,-654 306,-648 312,-648 312,-648 422,-648 422,-648 428,-648 434,-654 434,-660 434,-660 434,-672 434,-672 434,-678 428,-684 422,-684"/>
<text text-anchor="middle" x="367" y="-663.5" font-family="sans" font-size="10.00">remove_polya_cutadapt</text>
</g>
<!-- 22&#45;&gt;9 -->
<g id="edge28" class="edge">
<title>22&#45;&gt;9</title>
<path fill="none" stroke="grey" stroke-width="2" d="M359.31,-647.91C348.21,-621.62 329,-569.45 329,-523 329,-523 329,-523 329,-449 329,-408.88 324.58,-362.57 321.34,-334.03"/>
<polygon fill="grey" stroke="grey" stroke-width="2" points="324.81,-333.54 320.17,-324.02 317.86,-334.36 324.81,-333.54"/>
</g>
<!-- 22&#45;&gt;18 -->
<g id="edge39" class="edge">
<title>22&#45;&gt;18</title>
<path fill="none" stroke="grey" stroke-width="2" d="M363.18,-647.99C356.94,-615.36 348.71,-543.69 386,-504 447.24,-438.81 510.16,-518.48 584,-468 632.16,-435.08 661.17,-370.23 674.41,-333.68"/>
<polygon fill="grey" stroke="grey" stroke-width="2" points="677.74,-334.77 677.73,-324.17 671.13,-332.46 677.74,-334.77"/>
</g>
<!-- 22&#45;&gt;37 -->
<g id="edge65" class="edge">
<title>22&#45;&gt;37</title>
<path fill="none" stroke="grey" stroke-width="2" d="M434.25,-657.81C516.32,-648.71 659.23,-631.81 781,-612 788.31,-610.81 795.95,-609.46 803.53,-608.05"/>
<polygon fill="grey" stroke="grey" stroke-width="2" points="804.25,-611.48 813.43,-606.17 802.95,-604.6 804.25,-611.48"/>
</g>
<!-- 23 -->
<g id="node24" class="node">
<title>23</title>
<path fill="none" stroke="#88d856" stroke-width="2" d="M452.5,-396C452.5,-396 369.5,-396 369.5,-396 363.5,-396 357.5,-390 357.5,-384 357.5,-384 357.5,-372 357.5,-372 357.5,-366 363.5,-360 369.5,-360 369.5,-360 452.5,-360 452.5,-360 458.5,-360 464.5,-366 464.5,-372 464.5,-372 464.5,-384 464.5,-384 464.5,-390 458.5,-396 452.5,-396"/>
<text text-anchor="middle" x="411" y="-375.5" font-family="sans" font-size="10.00">merge_TIN_scores</text>
</g>
<!-- 23&#45;&gt;10 -->
<g id="edge30" class="edge">
<title>23&#45;&gt;10</title>
<path fill="none" stroke="grey" stroke-width="2" d="M413.56,-359.85C419.1,-322.83 432.21,-235.18 438.9,-190.39"/>
<polygon fill="grey" stroke="grey" stroke-width="2" points="442.41,-190.64 440.42,-180.23 435.48,-189.6 442.41,-190.64"/>
</g>
<!-- 24 -->
<g id="node25" class="node">
<title>24</title>
<path fill="none" stroke="#68d856" stroke-width="2" d="M974,-252C974,-252 882,-252 882,-252 876,-252 870,-246 870,-240 870,-240 870,-228 870,-228 870,-222 876,-216 882,-216 882,-216 974,-216 974,-216 980,-216 986,-222 986,-228 986,-228 986,-240 986,-240 986,-246 980,-252 974,-252"/>
<text text-anchor="middle" x="928" y="-231.5" font-family="sans" font-size="10.00">alfa_qc_all_samples</text>
</g>
<!-- 24&#45;&gt;11 -->
<g id="edge31" class="edge">
<title>24&#45;&gt;11</title>
<path fill="none" stroke="grey" stroke-width="2" d="M898.16,-215.88C882.06,-206.64 862,-195.13 844.71,-185.21"/>
<polygon fill="grey" stroke="grey" stroke-width="2" points="846.37,-182.13 835.96,-180.19 842.89,-188.2 846.37,-182.13"/>
</g>
<!-- 25 -->
<g id="node26" class="node">
<title>25</title>
<path fill="none" stroke="#d8a456" stroke-width="2" d="M1115,-396C1115,-396 993,-396 993,-396 987,-396 981,-390 981,-384 981,-384 981,-372 981,-372 981,-366 987,-360 993,-360 993,-360 1115,-360 1115,-360 1121,-360 1127,-366 1127,-372 1127,-372 1127,-384 1127,-384 1127,-390 1121,-396 1115,-396"/>
<text text-anchor="middle" x="1054" y="-375.5" font-family="sans" font-size="10.00">rename_star_rpm_for_alfa</text>
</g>
<!-- 25&#45;&gt;15 -->
<g id="edge36" class="edge">
<title>25&#45;&gt;15</title>
<path fill="none" stroke="grey" stroke-width="2" d="M1054,-359.7C1054,-351.98 1054,-342.71 1054,-334.11"/>
<polygon fill="grey" stroke="grey" stroke-width="2" points="1057.5,-334.1 1054,-324.1 1050.5,-334.1 1057.5,-334.1"/>
</g>
<!-- 31 -->
<g id="node32" class="node">
<title>31</title>
<path fill="none" stroke="#56a9d8" stroke-width="2" d="M968,-324C968,-324 938,-324 938,-324 932,-324 926,-318 926,-312 926,-312 926,-300 926,-300 926,-294 932,-288 938,-288 938,-288 968,-288 968,-288 974,-288 980,-294 980,-300 980,-300 980,-312 980,-312 980,-318 974,-324 968,-324"/>
<text text-anchor="middle" x="953" y="-303.5" font-family="sans" font-size="10.00">alfa_qc</text>
</g>
<!-- 25&#45;&gt;31 -->
<g id="edge55" class="edge">
<title>25&#45;&gt;31</title>
<path fill="none" stroke="grey" stroke-width="2" d="M1029.29,-359.88C1016.33,-350.89 1000.27,-339.76 986.23,-330.03"/>
<polygon fill="grey" stroke="grey" stroke-width="2" points="988.02,-327.01 977.8,-324.19 984.03,-332.76 988.02,-327.01"/>
</g>
<!-- 26&#45;&gt;17 -->
<g id="edge38" class="edge">
<title>26&#45;&gt;17</title>
<path fill="none" stroke="grey" stroke-width="2" d="M540.03,-359.7C538.71,-351.98 537.12,-342.71 535.65,-334.11"/>
<polygon fill="grey" stroke="grey" stroke-width="2" points="539.07,-333.37 533.93,-324.1 532.17,-334.55 539.07,-333.37"/>
</g>
<!-- 26&#45;&gt;18 -->
<g id="edge40" class="edge">
<title>26&#45;&gt;18</title>
<path fill="none" stroke="grey" stroke-width="2" d="M577.25,-359.88C596.06,-350.47 619.58,-338.71 639.67,-328.67"/>
<polygon fill="grey" stroke="grey" stroke-width="2" points="641.24,-331.79 648.62,-324.19 638.11,-325.53 641.24,-331.79"/>
</g>
<!-- 27&#45;&gt;20 -->
<g id="edge41" class="edge">
<title>27&#45;&gt;20</title>
<path fill="none" stroke="grey" stroke-width="2" d="M192.73,-719.7C193.5,-711.98 194.43,-702.71 195.29,-694.11"/>
<polygon fill="grey" stroke="grey" stroke-width="2" points="198.78,-694.4 196.29,-684.1 191.81,-693.71 198.78,-694.4"/>
</g>
<!-- 28 -->
<g id="node29" class="node">
<title>28</title>
<path fill="none" stroke="#8fd856" stroke-width="2" d="M250.5,-540C250.5,-540 149.5,-540 149.5,-540 143.5,-540 137.5,-534 137.5,-528 137.5,-528 137.5,-516 137.5,-516 137.5,-510 143.5,-504 149.5,-504 149.5,-504 250.5,-504 250.5,-504 256.5,-504 262.5,-510 262.5,-516 262.5,-516 262.5,-528 262.5,-528 262.5,-534 256.5,-540 250.5,-540"/>
<text text-anchor="middle" x="200" y="-519.5" font-family="sans" font-size="10.00">extract_transcriptome</text>
</g>
<!-- 28&#45;&gt;21 -->
<g id="edge42" class="edge">
<title>28&#45;&gt;21</title>
<path fill="none" stroke="grey" stroke-width="2" d="M200,-503.87C200,-479.67 200,-435.21 200,-406.39"/>
<polygon fill="grey" stroke="grey" stroke-width="2" points="203.5,-406.19 200,-396.19 196.5,-406.19 203.5,-406.19"/>
</g>
<!-- 33 -->
<g id="node34" class="node">
<title>33</title>
<path fill="none" stroke="#56d8a9" stroke-width="2" d="M563,-468C563,-468 369,-468 369,-468 363,-468 357,-462 357,-456 357,-456 357,-444 357,-444 357,-438 363,-432 369,-432 369,-432 563,-432 563,-432 569,-432 575,-438 575,-444 575,-444 575,-456 575,-456 575,-462 569,-468 563,-468"/>
<text text-anchor="middle" x="466" y="-447.5" font-family="sans" font-size="10.00">concatenate_transcriptome_and_genome</text>
</g>
<!-- 28&#45;&gt;33 -->
<g id="edge60" class="edge">
<title>28&#45;&gt;33</title>
<path fill="none" stroke="grey" stroke-width="2" d="M262.7,-504.5C301.16,-494.38 350.61,-481.37 391.12,-470.71"/>
<polygon fill="grey" stroke="grey" stroke-width="2" points="392.16,-474.05 400.94,-468.12 390.38,-467.28 392.16,-474.05"/>
</g>
<!-- 29&#45;&gt;22 -->
<g id="edge43" class="edge">
<title>29&#45;&gt;22</title>
<path fill="none" stroke="grey" stroke-width="2" d="M367,-719.7C367,-711.98 367,-702.71 367,-694.11"/>
<polygon fill="grey" stroke="grey" stroke-width="2" points="370.5,-694.1 367,-684.1 363.5,-694.1 370.5,-694.1"/>
</g>
<!-- 30 -->
<g id="node31" class="node">
<title>30</title>
<path fill="none" stroke="#56d8d8" stroke-width="2" d="M738.5,-468C738.5,-468 643.5,-468 643.5,-468 637.5,-468 631.5,-462 631.5,-456 631.5,-456 631.5,-444 631.5,-444 631.5,-438 637.5,-432 643.5,-432 643.5,-432 738.5,-432 738.5,-432 744.5,-432 750.5,-438 750.5,-444 750.5,-444 750.5,-456 750.5,-456 750.5,-462 744.5,-468 738.5,-468"/>
<text text-anchor="middle" x="691" y="-447.5" font-family="sans" font-size="10.00">calculate_TIN_scores</text>
</g>
<!-- 30&#45;&gt;23 -->
<g id="edge44" class="edge">
<title>30&#45;&gt;23</title>
<path fill="none" stroke="grey" stroke-width="2" d="M631.5,-434.87C590.14,-424.96 533.5,-411.2 474.47,-396.09"/>
<polygon fill="grey" stroke="grey" stroke-width="2" points="475.15,-392.65 464.59,-393.56 473.41,-399.43 475.15,-392.65"/>
</g>
<!-- 31&#45;&gt;24 -->
<g id="edge45" class="edge">
<title>31&#45;&gt;24</title>
<path fill="none" stroke="grey" stroke-width="2" d="M946.82,-287.7C944,-279.81 940.61,-270.3 937.48,-261.55"/>
<polygon fill="grey" stroke="grey" stroke-width="2" points="940.77,-260.34 934.11,-252.1 934.18,-262.7 940.77,-260.34"/>
</g>
<!-- 32 -->
<g id="node33" class="node">
<title>32</title>
<path fill="none" stroke="#56b1d8" stroke-width="2" d="M881,-468C881,-468 845,-468 845,-468 839,-468 833,-462 833,-456 833,-456 833,-444 833,-444 833,-438 839,-432 845,-432 845,-432 881,-432 881,-432 887,-432 893,-438 893,-444 893,-444 893,-456 893,-456 893,-462 887,-468 881,-468"/>
<text text-anchor="middle" x="863" y="-447.5" font-family="sans" font-size="10.00">star_rpm</text>
</g>
<!-- 32&#45;&gt;25 -->
<g id="edge46" class="edge">
<title>32&#45;&gt;25</title>
<path fill="none" stroke="grey" stroke-width="2" d="M893.26,-437.91C921.34,-427.62 963.82,-412.05 998.07,-399.5"/>
<polygon fill="grey" stroke="grey" stroke-width="2" points="999.3,-402.77 1007.49,-396.05 996.89,-396.2 999.3,-402.77"/>
</g>
<!-- 33&#45;&gt;26 -->
<g id="edge47" class="edge">
<title>33&#45;&gt;26</title>
<path fill="none" stroke="grey" stroke-width="2" d="M485.03,-431.7C494.54,-423.05 506.21,-412.45 516.57,-403.03"/>
<polygon fill="grey" stroke="grey" stroke-width="2" points="519.14,-405.42 524.19,-396.1 514.43,-400.24 519.14,-405.42"/>
</g>
<!-- 34&#45;&gt;30 -->
<g id="edge52" class="edge">
<title>34&#45;&gt;30</title>
<path fill="none" stroke="grey" stroke-width="2" d="M646.75,-575.95C629.25,-567.98 612.22,-556.47 602,-540 593.56,-526.41 594.09,-517.91 602,-504 609.36,-491.04 621.29,-480.92 634.05,-473.16"/>
<polygon fill="grey" stroke="grey" stroke-width="2" points="635.96,-476.1 642.97,-468.15 632.53,-469.99 635.96,-476.1"/>
</g>
<!-- 34&#45;&gt;32 -->
<g id="edge57" class="edge">
<title>34&#45;&gt;32</title>
<path fill="none" stroke="grey" stroke-width="2" d="M759.13,-575.89C778.61,-567.39 800.04,-555.55 816,-540 833.9,-522.55 846.48,-496.81 854.08,-477.5"/>
<polygon fill="grey" stroke="grey" stroke-width="2" points="857.39,-478.65 857.61,-468.06 850.83,-476.2 857.39,-478.65"/>
</g>
<!-- 35 -->
<g id="node36" class="node">
<title>35</title>
<path fill="none" stroke="#b6d856" stroke-width="2" d="M795,-540C795,-540 623,-540 623,-540 617,-540 611,-534 611,-528 611,-528 611,-516 611,-516 611,-510 617,-504 623,-504 623,-504 795,-504 795,-504 801,-504 807,-510 807,-516 807,-516 807,-528 807,-528 807,-534 801,-540 795,-540"/>
<text text-anchor="middle" x="709" y="-519.5" font-family="sans" font-size="10.00">index_genomic_alignment_samtools</text>
</g>
<!-- 34&#45;&gt;35 -->
<g id="edge63" class="edge">
<title>34&#45;&gt;35</title>
<path fill="none" stroke="grey" stroke-width="2" d="M709,-575.7C709,-567.98 709,-558.71 709,-550.11"/>
<polygon fill="grey" stroke="grey" stroke-width="2" points="712.5,-550.1 709,-540.1 705.5,-550.1 712.5,-550.1"/>
</g>
<!-- 35&#45;&gt;30 -->
<g id="edge54" class="edge">
<title>35&#45;&gt;30</title>
<path fill="none" stroke="grey" stroke-width="2" d="M704.55,-503.7C702.55,-495.9 700.13,-486.51 697.9,-477.83"/>
<polygon fill="grey" stroke="grey" stroke-width="2" points="701.28,-476.92 695.4,-468.1 694.5,-478.66 701.28,-476.92"/>
</g>
<!-- 35&#45;&gt;32 -->
<g id="edge59" class="edge">
<title>35&#45;&gt;32</title>
<path fill="none" stroke="grey" stroke-width="2" d="M746.67,-503.88C770,-493.27 799.9,-479.68 823.54,-468.93"/>
<polygon fill="grey" stroke="grey" stroke-width="2" points="825.27,-471.99 832.93,-464.67 822.38,-465.62 825.27,-471.99"/>
</g>
<!-- 36 -->
<g id="node37" class="node">
<title>36</title>
<path fill="none" stroke="#d8cb56" stroke-width="2" d="M543,-540C543,-540 407,-540 407,-540 401,-540 395,-534 395,-528 395,-528 395,-516 395,-516 395,-510 401,-504 407,-504 407,-504 543,-504 543,-504 549,-504 555,-510 555,-516 555,-516 555,-528 555,-528 555,-534 549,-540 543,-540"/>
<text text-anchor="middle" x="475" y="-519.5" font-family="sans" font-size="10.00">extract_transcripts_as_bed12</text>
</g>
<!-- 36&#45;&gt;30 -->
<g id="edge51" class="edge">
<title>36&#45;&gt;30</title>
<path fill="none" stroke="grey" stroke-width="2" d="M527.56,-503.97C558.01,-494.1 596.51,-481.62 628.5,-471.25"/>
<polygon fill="grey" stroke="grey" stroke-width="2" points="629.77,-474.52 638.2,-468.11 627.61,-467.86 629.77,-474.52"/>
</g>
<!-- 37&#45;&gt;30 -->
<g id="edge53" class="edge">
<title>37&#45;&gt;30</title>
<path fill="none" stroke="grey" stroke-width="2" d="M861,-575.72C853.35,-555.98 838.38,-523.86 816,-504 800.01,-489.82 779.67,-479.03 760.07,-471.02"/>
<polygon fill="grey" stroke="grey" stroke-width="2" points="761.11,-467.67 750.52,-467.3 758.57,-474.19 761.11,-467.67"/>
</g>
<!-- 37&#45;&gt;32 -->
<g id="edge58" class="edge">
<title>37&#45;&gt;32</title>
<path fill="none" stroke="grey" stroke-width="2" d="M875.31,-575.79C879.74,-565.63 884.74,-552.38 887,-540 889.87,-524.26 890.38,-519.64 887,-504 885.04,-494.92 881.39,-485.52 877.51,-477.2"/>
<polygon fill="grey" stroke="grey" stroke-width="2" points="880.54,-475.42 872.95,-468.02 874.27,-478.53 880.54,-475.42"/>
</g>
<!-- 37&#45;&gt;35 -->
<g id="edge64" class="edge">
<title>37&#45;&gt;35</title>
<path fill="none" stroke="grey" stroke-width="2" d="M828.35,-575.88C806.75,-566.31 779.65,-554.3 756.73,-544.15"/>
<polygon fill="grey" stroke="grey" stroke-width="2" points="758.09,-540.92 747.53,-540.07 755.25,-547.32 758.09,-540.92"/>
</g>
<!-- 38&#45;&gt;31 -->
<g id="edge56" class="edge">
<title>38&#45;&gt;31</title>
<path fill="none" stroke="grey" stroke-width="2" d="M1028.85,-575.78C1016.85,-541.74 989.9,-463.32 972,-396 966.55,-375.52 961.6,-352.06 958.11,-334.37"/>
<polygon fill="grey" stroke="grey" stroke-width="2" points="961.48,-333.34 956.14,-324.18 954.6,-334.66 961.48,-333.34"/>
</g>
</g>
</svg>
