<?xml version="1.0" encoding="UTF-8" standalone="no"?>
<!DOCTYPE svg PUBLIC "-//W3C//DTD SVG 1.1//EN"
 "http://www.w3.org/Graphics/SVG/1.1/DTD/svg11.dtd">
<!-- Generated by graphviz version 2.42.3 (20191010.1750)
 -->
<!-- Title: snakemake_dag Pages: 1 -->
<svg width="987pt" height="620pt"
 viewBox="0.00 0.00 987.00 620.00" xmlns="http://www.w3.org/2000/svg" xmlns:xlink="http://www.w3.org/1999/xlink">
<g id="graph0" class="graph" transform="scale(1 1) rotate(0) translate(4 616)">
<title>snakemake_dag</title>
<polygon fill="white" stroke="transparent" points="-4,4 -4,-616 983,-616 983,4 -4,4"/>
<!-- 0 -->
<g id="node1" class="node">
<title>0</title>
<path fill="none" stroke="#567bd8" stroke-width="2" d="M506,-36C506,-36 476,-36 476,-36 470,-36 464,-30 464,-24 464,-24 464,-12 464,-12 464,-6 470,0 476,0 476,0 506,0 506,0 512,0 518,-6 518,-12 518,-12 518,-24 518,-24 518,-30 512,-36 506,-36"/>
<text text-anchor="middle" x="491" y="-15.5" font-family="sans" font-size="10.00">finish</text>
</g>
<!-- 1 -->
<g id="node2" class="node">
<title>1</title>
<path fill="none" stroke="#afd856" stroke-width="2" d="M188,-108C188,-108 148,-108 148,-108 142,-108 136,-102 136,-96 136,-96 136,-84 136,-84 136,-78 142,-72 148,-72 148,-72 188,-72 188,-72 194,-72 200,-78 200,-84 200,-84 200,-96 200,-96 200,-102 194,-108 188,-108"/>
<text text-anchor="middle" x="168" y="-87.5" font-family="sans" font-size="10.00">pe_fastqc</text>
</g>
<!-- 1&#45;&gt;0 -->
<g id="edge1" class="edge">
<title>1&#45;&gt;0</title>
<path fill="none" stroke="grey" stroke-width="2" d="M200,-74.99C203.01,-73.9 206.05,-72.88 209,-72 294.71,-46.48 398.9,-30.69 453.49,-23.53"/>
<polygon fill="grey" stroke="grey" stroke-width="2" points="454.26,-26.96 463.73,-22.21 453.36,-20.02 454.26,-26.96"/>
</g>
<!-- 2 -->
<g id="node3" class="node">
<title>2</title>
<path fill="none" stroke="#56b9d8" stroke-width="2" d="M260,-108C260,-108 230,-108 230,-108 224,-108 218,-102 218,-96 218,-96 218,-84 218,-84 218,-78 224,-72 230,-72 230,-72 260,-72 260,-72 266,-72 272,-78 272,-84 272,-84 272,-96 272,-96 272,-102 266,-108 260,-108"/>
<text text-anchor="middle" x="245" y="-87.5" font-family="sans" font-size="10.00">fastqc</text>
</g>
<!-- 2&#45;&gt;0 -->
<g id="edge3" class="edge">
<title>2&#45;&gt;0</title>
<path fill="none" stroke="grey" stroke-width="2" d="M272.15,-77.12C276.73,-75.3 281.47,-73.52 286,-72 343.68,-52.69 412.45,-36.2 453.87,-26.95"/>
<polygon fill="grey" stroke="grey" stroke-width="2" points="454.78,-30.33 463.79,-24.76 453.27,-23.5 454.78,-30.33"/>
</g>
<!-- 3 -->
<g id="node4" class="node">
<title>3</title>
<path fill="none" stroke="#56c9d8" stroke-width="2" d="M471.5,-468C471.5,-468 308.5,-468 308.5,-468 302.5,-468 296.5,-462 296.5,-456 296.5,-456 296.5,-444 296.5,-444 296.5,-438 302.5,-432 308.5,-432 308.5,-432 471.5,-432 471.5,-432 477.5,-432 483.5,-438 483.5,-444 483.5,-444 483.5,-456 483.5,-456 483.5,-462 477.5,-468 471.5,-468"/>
<text text-anchor="middle" x="390" y="-447.5" font-family="sans" font-size="10.00">pe_genome_quantification_kallisto</text>
</g>
<!-- 3&#45;&gt;0 -->
<g id="edge8" class="edge">
<title>3&#45;&gt;0</title>
<path fill="none" stroke="grey" stroke-width="2" d="M450.25,-431.97C470.89,-423.78 492.82,-412.12 509,-396 539.72,-365.39 549,-350.37 549,-307 549,-307 549,-307 549,-161 549,-117.7 525.6,-72.11 508.52,-44.61"/>
<polygon fill="grey" stroke="grey" stroke-width="2" points="511.36,-42.55 503.02,-36.01 505.46,-46.32 511.36,-42.55"/>
</g>
<!-- 4 -->
<g id="node5" class="node">
<title>4</title>
<path fill="none" stroke="#566bd8" stroke-width="2" d="M660,-468C660,-468 514,-468 514,-468 508,-468 502,-462 502,-456 502,-456 502,-444 502,-444 502,-438 508,-432 514,-432 514,-432 660,-432 660,-432 666,-432 672,-438 672,-444 672,-444 672,-456 672,-456 672,-462 666,-468 660,-468"/>
<text text-anchor="middle" x="587" y="-447.5" font-family="sans" font-size="10.00">genome_quantification_kallisto</text>
</g>
<!-- 4&#45;&gt;0 -->
<g id="edge10" class="edge">
<title>4&#45;&gt;0</title>
<path fill="none" stroke="grey" stroke-width="2" d="M587,-431.95C587,-405.29 587,-352.11 587,-307 587,-307 587,-307 587,-161 587,-120.03 586.13,-105.82 563,-72 553.82,-58.57 540.08,-47.25 527.07,-38.57"/>
<polygon fill="grey" stroke="grey" stroke-width="2" points="528.56,-35.37 518.23,-32.99 524.82,-41.29 528.56,-35.37"/>
</g>
<!-- 5 -->
<g id="node6" class="node">
<title>5</title>
<path fill="none" stroke="#56a2d8" stroke-width="2" d="M450.5,-324C450.5,-324 355.5,-324 355.5,-324 349.5,-324 343.5,-318 343.5,-312 343.5,-312 343.5,-300 343.5,-300 343.5,-294 349.5,-288 355.5,-288 355.5,-288 450.5,-288 450.5,-288 456.5,-288 462.5,-294 462.5,-300 462.5,-300 462.5,-312 462.5,-312 462.5,-318 456.5,-324 450.5,-324"/>
<text text-anchor="middle" x="403" y="-303.5" font-family="sans" font-size="10.00">calculate_TIN_scores</text>
</g>
<!-- 5&#45;&gt;0 -->
<g id="edge6" class="edge">
<title>5&#45;&gt;0</title>
<path fill="none" stroke="grey" stroke-width="2" d="M446.39,-287.77C461.66,-279.38 477.21,-267.65 486,-252 523.15,-185.9 508.59,-91.71 498.12,-45.99"/>
<polygon fill="grey" stroke="grey" stroke-width="2" points="501.51,-45.12 495.77,-36.22 494.7,-46.76 501.51,-45.12"/>
</g>
<!-- 6 -->
<g id="node7" class="node">
<title>6</title>
<path fill="none" stroke="#d85656" stroke-width="2" d="M775,-396C775,-396 647,-396 647,-396 641,-396 635,-390 635,-384 635,-384 635,-372 635,-372 635,-366 641,-360 647,-360 647,-360 775,-360 775,-360 781,-360 787,-366 787,-372 787,-372 787,-384 787,-384 787,-390 781,-396 775,-396"/>
<text text-anchor="middle" x="711" y="-375.5" font-family="sans" font-size="10.00">salmon_quantmerge_genes</text>
</g>
<!-- 6&#45;&gt;0 -->
<g id="edge2" class="edge">
<title>6&#45;&gt;0</title>
<path fill="none" stroke="grey" stroke-width="2" d="M700.02,-359.84C684.49,-333.89 658,-282.63 658,-235 658,-235 658,-235 658,-161 658,-93.03 576.72,-50.79 527.57,-31.45"/>
<polygon fill="grey" stroke="grey" stroke-width="2" points="528.79,-28.17 518.2,-27.89 526.31,-34.72 528.79,-28.17"/>
</g>
<!-- 7 -->
<g id="node8" class="node">
<title>7</title>
<path fill="none" stroke="#56d873" stroke-width="2" d="M967,-396C967,-396 817,-396 817,-396 811,-396 805,-390 805,-384 805,-384 805,-372 805,-372 805,-366 811,-360 817,-360 817,-360 967,-360 967,-360 973,-360 979,-366 979,-372 979,-372 979,-384 979,-384 979,-390 973,-396 967,-396"/>
<text text-anchor="middle" x="892" y="-375.5" font-family="sans" font-size="10.00">salmon_quantmerge_transcripts</text>
</g>
<!-- 7&#45;&gt;0 -->
<g id="edge9" class="edge">
<title>7&#45;&gt;0</title>
<path fill="none" stroke="grey" stroke-width="2" d="M871.12,-359.63C843.98,-334.97 800,-286.99 800,-235 800,-235 800,-235 800,-161 800,-42.65 610.53,-22.58 528.32,-19.44"/>
<polygon fill="grey" stroke="grey" stroke-width="2" points="528.26,-15.94 518.15,-19.12 528.04,-22.93 528.26,-15.94"/>
</g>
<!-- 8 -->
<g id="node9" class="node">
<title>8</title>
<path fill="none" stroke="#d86656" stroke-width="2" d="M313,-324C313,-324 277,-324 277,-324 271,-324 265,-318 265,-312 265,-312 265,-300 265,-300 265,-294 271,-288 277,-288 277,-288 313,-288 313,-288 319,-288 325,-294 325,-300 325,-300 325,-312 325,-312 325,-318 319,-324 313,-324"/>
<text text-anchor="middle" x="295" y="-303.5" font-family="sans" font-size="10.00">star_rpm</text>
</g>
<!-- 8&#45;&gt;0 -->
<g id="edge4" class="edge">
<title>8&#45;&gt;0</title>
<path fill="none" stroke="grey" stroke-width="2" d="M325.02,-290.82C342.15,-281.6 363.11,-268.27 378,-252 435.3,-189.42 469.53,-92.48 483.56,-45.85"/>
<polygon fill="grey" stroke="grey" stroke-width="2" points="486.94,-46.75 486.4,-36.17 480.23,-44.78 486.94,-46.75"/>
</g>
<!-- 20 -->
<g id="node21" class="node">
<title>20</title>
<path fill="none" stroke="#bed856" stroke-width="2" d="M357,-252C357,-252 235,-252 235,-252 229,-252 223,-246 223,-240 223,-240 223,-228 223,-228 223,-222 229,-216 235,-216 235,-216 357,-216 357,-216 363,-216 369,-222 369,-228 369,-228 369,-240 369,-240 369,-246 363,-252 357,-252"/>
<text text-anchor="middle" x="296" y="-231.5" font-family="sans" font-size="10.00">rename_star_rpm_for_alfa</text>
</g>
<!-- 8&#45;&gt;20 -->
<g id="edge42" class="edge">
<title>8&#45;&gt;20</title>
<path fill="none" stroke="grey" stroke-width="2" d="M295.25,-287.7C295.36,-279.98 295.49,-270.71 295.61,-262.11"/>
<polygon fill="grey" stroke="grey" stroke-width="2" points="299.11,-262.15 295.76,-252.1 292.11,-262.05 299.11,-262.15"/>
</g>
<!-- 9 -->
<g id="node10" class="node">
<title>9</title>
<path fill="none" stroke="#5692d8" stroke-width="2" d="M314,-180C314,-180 284,-180 284,-180 278,-180 272,-174 272,-168 272,-168 272,-156 272,-156 272,-150 278,-144 284,-144 284,-144 314,-144 314,-144 320,-144 326,-150 326,-156 326,-156 326,-168 326,-168 326,-174 320,-180 314,-180"/>
<text text-anchor="middle" x="299" y="-159.5" font-family="sans" font-size="10.00">alfa_qc</text>
</g>
<!-- 9&#45;&gt;0 -->
<g id="edge7" class="edge">
<title>9&#45;&gt;0</title>
<path fill="none" stroke="grey" stroke-width="2" d="M298.06,-143.96C297.93,-124.14 300.83,-91.65 319,-72 353.79,-34.39 414.57,-23.22 453.78,-20.04"/>
<polygon fill="grey" stroke="grey" stroke-width="2" points="454.24,-23.52 463.99,-19.36 453.77,-16.53 454.24,-23.52"/>
</g>
<!-- 10 -->
<g id="node11" class="node">
<title>10</title>
<path fill="none" stroke="#56d8c1" stroke-width="2" d="M432,-108C432,-108 340,-108 340,-108 334,-108 328,-102 328,-96 328,-96 328,-84 328,-84 328,-78 334,-72 340,-72 340,-72 432,-72 432,-72 438,-72 444,-78 444,-84 444,-84 444,-96 444,-96 444,-102 438,-108 432,-108"/>
<text text-anchor="middle" x="386" y="-87.5" font-family="sans" font-size="10.00">alfa_qc_all_samples</text>
</g>
<!-- 9&#45;&gt;10 -->
<g id="edge28" class="edge">
<title>9&#45;&gt;10</title>
<path fill="none" stroke="grey" stroke-width="2" d="M320.51,-143.7C331.46,-134.88 344.95,-124.03 356.82,-114.47"/>
<polygon fill="grey" stroke="grey" stroke-width="2" points="359.14,-117.1 364.74,-108.1 354.76,-111.65 359.14,-117.1"/>
</g>
<!-- 10&#45;&gt;0 -->
<g id="edge5" class="edge">
<title>10&#45;&gt;0</title>
<path fill="none" stroke="grey" stroke-width="2" d="M411.69,-71.88C425.29,-62.81 442.17,-51.55 456.86,-41.76"/>
<polygon fill="grey" stroke="grey" stroke-width="2" points="458.84,-44.65 465.22,-36.19 454.95,-38.82 458.84,-44.65"/>
</g>
<!-- 11 -->
<g id="node12" class="node">
<title>11</title>
<path fill="none" stroke="#d8a456" stroke-width="2" d="M413,-540C413,-540 285,-540 285,-540 279,-540 273,-534 273,-528 273,-528 273,-516 273,-516 273,-510 279,-504 285,-504 285,-504 413,-504 413,-504 419,-504 425,-510 425,-516 425,-516 425,-528 425,-528 425,-534 419,-540 413,-540"/>
<text text-anchor="middle" x="349" y="-519.5" font-family="sans" font-size="10.00">pe_remove_polya_cutadapt</text>
</g>
<!-- 11&#45;&gt;3 -->
<g id="edge11" class="edge">
<title>11&#45;&gt;3</title>
<path fill="none" stroke="grey" stroke-width="2" d="M359.13,-503.7C363.85,-495.64 369.56,-485.89 374.78,-476.98"/>
<polygon fill="grey" stroke="grey" stroke-width="2" points="377.95,-478.5 379.98,-468.1 371.91,-474.96 377.95,-478.5"/>
</g>
<!-- 14 -->
<g id="node15" class="node">
<title>14</title>
<path fill="none" stroke="#97d856" stroke-width="2" d="M141.5,-468C141.5,-468 40.5,-468 40.5,-468 34.5,-468 28.5,-462 28.5,-456 28.5,-456 28.5,-444 28.5,-444 28.5,-438 34.5,-432 40.5,-432 40.5,-432 141.5,-432 141.5,-432 147.5,-432 153.5,-438 153.5,-444 153.5,-444 153.5,-456 153.5,-456 153.5,-462 147.5,-468 141.5,-468"/>
<text text-anchor="middle" x="91" y="-447.5" font-family="sans" font-size="10.00">pe_map_genome_star</text>
</g>
<!-- 11&#45;&gt;14 -->
<g id="edge32" class="edge">
<title>11&#45;&gt;14</title>
<path fill="none" stroke="grey" stroke-width="2" d="M286.22,-503.97C249.25,-493.94 202.32,-481.2 163.75,-470.74"/>
<polygon fill="grey" stroke="grey" stroke-width="2" points="164.19,-467.23 153.62,-467.99 162.35,-473.99 164.19,-467.23"/>
</g>
<!-- 18 -->
<g id="node19" class="node">
<title>18</title>
<path fill="none" stroke="#d8cb56" stroke-width="2" d="M820,-468C820,-468 702,-468 702,-468 696,-468 690,-462 690,-456 690,-456 690,-444 690,-444 690,-438 696,-432 702,-432 702,-432 820,-432 820,-432 826,-432 832,-438 832,-444 832,-444 832,-456 832,-456 832,-462 826,-468 820,-468"/>
<text text-anchor="middle" x="761" y="-447.5" font-family="sans" font-size="10.00">pe_quantification_salmon</text>
</g>
<!-- 11&#45;&gt;18 -->
<g id="edge39" class="edge">
<title>11&#45;&gt;18</title>
<path fill="none" stroke="grey" stroke-width="2" d="M425.27,-506.7C430.59,-505.77 435.87,-504.86 441,-504 544.26,-486.72 573.19,-487.17 680.05,-468.11"/>
<polygon fill="grey" stroke="grey" stroke-width="2" points="680.72,-471.55 689.94,-466.33 679.48,-464.66 680.72,-471.55"/>
</g>
<!-- 12 -->
<g id="node13" class="node">
<title>12</title>
<path fill="none" stroke="#56d89a" stroke-width="2" d="M711.5,-540C711.5,-540 614.5,-540 614.5,-540 608.5,-540 602.5,-534 602.5,-528 602.5,-528 602.5,-516 602.5,-516 602.5,-510 608.5,-504 614.5,-504 614.5,-504 711.5,-504 711.5,-504 717.5,-504 723.5,-510 723.5,-516 723.5,-516 723.5,-528 723.5,-528 723.5,-534 717.5,-540 711.5,-540"/>
<text text-anchor="middle" x="663" y="-519.5" font-family="sans" font-size="10.00">create_index_kallisto</text>
</g>
<!-- 12&#45;&gt;3 -->
<g id="edge12" class="edge">
<title>12&#45;&gt;3</title>
<path fill="none" stroke="grey" stroke-width="2" d="M602.41,-505.46C562.34,-495.19 509.46,-481.63 466.49,-470.61"/>
<polygon fill="grey" stroke="grey" stroke-width="2" points="467.19,-467.18 456.64,-468.09 465.45,-473.96 467.19,-467.18"/>
</g>
<!-- 12&#45;&gt;4 -->
<g id="edge14" class="edge">
<title>12&#45;&gt;4</title>
<path fill="none" stroke="grey" stroke-width="2" d="M644.21,-503.7C634.83,-495.05 623.32,-484.45 613.09,-475.03"/>
<polygon fill="grey" stroke="grey" stroke-width="2" points="615.3,-472.3 605.57,-468.1 610.55,-477.45 615.3,-472.3"/>
</g>
<!-- 13 -->
<g id="node14" class="node">
<title>13</title>
<path fill="none" stroke="#56d88a" stroke-width="2" d="M572,-540C572,-540 462,-540 462,-540 456,-540 450,-534 450,-528 450,-528 450,-516 450,-516 450,-510 456,-504 462,-504 462,-504 572,-504 572,-504 578,-504 584,-510 584,-516 584,-516 584,-528 584,-528 584,-534 578,-540 572,-540"/>
<text text-anchor="middle" x="517" y="-519.5" font-family="sans" font-size="10.00">remove_polya_cutadapt</text>
</g>
<!-- 13&#45;&gt;4 -->
<g id="edge13" class="edge">
<title>13&#45;&gt;4</title>
<path fill="none" stroke="grey" stroke-width="2" d="M534.3,-503.7C542.86,-495.14 553.34,-484.66 562.7,-475.3"/>
<polygon fill="grey" stroke="grey" stroke-width="2" points="565.3,-477.65 569.9,-468.1 560.35,-472.7 565.3,-477.65"/>
</g>
<!-- 17 -->
<g id="node18" class="node">
<title>17</title>
<path fill="none" stroke="#88d856" stroke-width="2" d="M266.5,-468C266.5,-468 183.5,-468 183.5,-468 177.5,-468 171.5,-462 171.5,-456 171.5,-456 171.5,-444 171.5,-444 171.5,-438 177.5,-432 183.5,-432 183.5,-432 266.5,-432 266.5,-432 272.5,-432 278.5,-438 278.5,-444 278.5,-444 278.5,-456 278.5,-456 278.5,-462 272.5,-468 266.5,-468"/>
<text text-anchor="middle" x="225" y="-447.5" font-family="sans" font-size="10.00">map_genome_star</text>
</g>
<!-- 13&#45;&gt;17 -->
<g id="edge36" class="edge">
<title>13&#45;&gt;17</title>
<path fill="none" stroke="grey" stroke-width="2" d="M449.71,-506.1C406.41,-496.35 348.7,-483.08 288.63,-468.11"/>
<polygon fill="grey" stroke="grey" stroke-width="2" points="289.13,-464.63 278.58,-465.6 287.43,-471.42 289.13,-464.63"/>
</g>
<!-- 19 -->
<g id="node20" class="node">
<title>19</title>
<path fill="none" stroke="#d8b456" stroke-width="2" d="M963.5,-468C963.5,-468 862.5,-468 862.5,-468 856.5,-468 850.5,-462 850.5,-456 850.5,-456 850.5,-444 850.5,-444 850.5,-438 856.5,-432 862.5,-432 862.5,-432 963.5,-432 963.5,-432 969.5,-432 975.5,-438 975.5,-444 975.5,-444 975.5,-456 975.5,-456 975.5,-462 969.5,-468 963.5,-468"/>
<text text-anchor="middle" x="913" y="-447.5" font-family="sans" font-size="10.00">quantification_salmon</text>
</g>
<!-- 13&#45;&gt;19 -->
<g id="edge40" class="edge">
<title>13&#45;&gt;19</title>
<path fill="none" stroke="grey" stroke-width="2" d="M584.13,-505.88C587.47,-505.22 590.77,-504.59 594,-504 700.03,-484.59 730.32,-488.52 840.41,-468.01"/>
<polygon fill="grey" stroke="grey" stroke-width="2" points="841.06,-471.45 850.24,-466.16 839.76,-464.57 841.06,-471.45"/>
</g>
<!-- 14&#45;&gt;5 -->
<g id="edge18" class="edge">
<title>14&#45;&gt;5</title>
<path fill="none" stroke="grey" stroke-width="2" d="M144.14,-431.97C172.41,-422.38 207.54,-409.62 238,-396 283.09,-375.85 332.69,-348.32 365.62,-329.24"/>
<polygon fill="grey" stroke="grey" stroke-width="2" points="367.57,-332.15 374.45,-324.09 364.05,-326.1 367.57,-332.15"/>
</g>
<!-- 14&#45;&gt;8 -->
<g id="edge25" class="edge">
<title>14&#45;&gt;8</title>
<path fill="none" stroke="grey" stroke-width="2" d="M58.47,-431.98C45.21,-423.18 31.3,-411.09 24,-396 17.03,-381.6 13.83,-372.35 24,-360 52.71,-325.13 185.96,-312.88 254.32,-308.84"/>
<polygon fill="grey" stroke="grey" stroke-width="2" points="254.91,-312.31 264.7,-308.26 254.52,-305.32 254.91,-312.31"/>
</g>
<!-- 15 -->
<g id="node16" class="node">
<title>15</title>
<path fill="none" stroke="#56d863" stroke-width="2" d="M217,-396C217,-396 45,-396 45,-396 39,-396 33,-390 33,-384 33,-384 33,-372 33,-372 33,-366 39,-360 45,-360 45,-360 217,-360 217,-360 223,-360 229,-366 229,-372 229,-372 229,-384 229,-384 229,-390 223,-396 217,-396"/>
<text text-anchor="middle" x="131" y="-375.5" font-family="sans" font-size="10.00">index_genomic_alignment_samtools</text>
</g>
<!-- 14&#45;&gt;15 -->
<g id="edge35" class="edge">
<title>14&#45;&gt;15</title>
<path fill="none" stroke="grey" stroke-width="2" d="M100.89,-431.7C105.49,-423.64 111.06,-413.89 116.15,-404.98"/>
<polygon fill="grey" stroke="grey" stroke-width="2" points="119.3,-406.52 121.23,-396.1 113.23,-403.05 119.3,-406.52"/>
</g>
<!-- 15&#45;&gt;5 -->
<g id="edge16" class="edge">
<title>15&#45;&gt;5</title>
<path fill="none" stroke="grey" stroke-width="2" d="M197.19,-359.97C238.54,-349.33 291.69,-335.65 333.62,-324.85"/>
<polygon fill="grey" stroke="grey" stroke-width="2" points="334.67,-328.2 343.48,-322.32 332.92,-321.42 334.67,-328.2"/>
</g>
<!-- 15&#45;&gt;8 -->
<g id="edge24" class="edge">
<title>15&#45;&gt;8</title>
<path fill="none" stroke="grey" stroke-width="2" d="M171.12,-359.88C196.77,-348.93 229.88,-334.79 255.42,-323.89"/>
<polygon fill="grey" stroke="grey" stroke-width="2" points="256.99,-327.03 264.81,-319.89 254.24,-320.59 256.99,-327.03"/>
</g>
<!-- 16 -->
<g id="node17" class="node">
<title>16</title>
<path fill="none" stroke="#d87d56" stroke-width="2" d="M471,-396C471,-396 335,-396 335,-396 329,-396 323,-390 323,-384 323,-384 323,-372 323,-372 323,-366 329,-360 335,-360 335,-360 471,-360 471,-360 477,-360 483,-366 483,-372 483,-372 483,-384 483,-384 483,-390 477,-396 471,-396"/>
<text text-anchor="middle" x="403" y="-375.5" font-family="sans" font-size="10.00">extract_transcripts_as_bed12</text>
</g>
<!-- 16&#45;&gt;5 -->
<g id="edge17" class="edge">
<title>16&#45;&gt;5</title>
<path fill="none" stroke="grey" stroke-width="2" d="M403,-359.7C403,-351.98 403,-342.71 403,-334.11"/>
<polygon fill="grey" stroke="grey" stroke-width="2" points="406.5,-334.1 403,-324.1 399.5,-334.1 406.5,-334.1"/>
</g>
<!-- 17&#45;&gt;5 -->
<g id="edge15" class="edge">
<title>17&#45;&gt;5</title>
<path fill="none" stroke="grey" stroke-width="2" d="M278.54,-434.21C281.73,-433.43 284.9,-432.69 288,-432 332.93,-421.99 462.41,-431.27 492,-396 502.28,-383.74 499.91,-373.91 492,-360 484.64,-347.04 472.71,-336.92 459.95,-329.16"/>
<polygon fill="grey" stroke="grey" stroke-width="2" points="461.47,-325.99 451.03,-324.15 458.04,-332.1 461.47,-325.99"/>
</g>
<!-- 17&#45;&gt;8 -->
<g id="edge23" class="edge">
<title>17&#45;&gt;8</title>
<path fill="none" stroke="grey" stroke-width="2" d="M233.44,-431.87C245.53,-407.35 267.87,-362.03 282.06,-333.26"/>
<polygon fill="grey" stroke="grey" stroke-width="2" points="285.24,-334.71 286.53,-324.19 278.97,-331.61 285.24,-334.71"/>
</g>
<!-- 17&#45;&gt;15 -->
<g id="edge34" class="edge">
<title>17&#45;&gt;15</title>
<path fill="none" stroke="grey" stroke-width="2" d="M201.76,-431.7C189.81,-422.8 175.08,-411.82 162.15,-402.2"/>
<polygon fill="grey" stroke="grey" stroke-width="2" points="164.08,-399.27 153.97,-396.1 159.9,-404.88 164.08,-399.27"/>
</g>
<!-- 18&#45;&gt;6 -->
<g id="edge19" class="edge">
<title>18&#45;&gt;6</title>
<path fill="none" stroke="grey" stroke-width="2" d="M748.64,-431.7C742.77,-423.47 735.63,-413.48 729.16,-404.42"/>
<polygon fill="grey" stroke="grey" stroke-width="2" points="731.88,-402.21 723.22,-396.1 726.18,-406.28 731.88,-402.21"/>
</g>
<!-- 18&#45;&gt;7 -->
<g id="edge21" class="edge">
<title>18&#45;&gt;7</title>
<path fill="none" stroke="grey" stroke-width="2" d="M793.05,-431.88C810.49,-422.55 832.27,-410.92 850.94,-400.94"/>
<polygon fill="grey" stroke="grey" stroke-width="2" points="852.66,-403.99 859.83,-396.19 849.36,-397.82 852.66,-403.99"/>
</g>
<!-- 19&#45;&gt;6 -->
<g id="edge20" class="edge">
<title>19&#45;&gt;6</title>
<path fill="none" stroke="grey" stroke-width="2" d="M863.84,-431.97C835.5,-422.14 799.68,-409.73 769.84,-399.39"/>
<polygon fill="grey" stroke="grey" stroke-width="2" points="770.97,-396.08 760.38,-396.11 768.68,-402.69 770.97,-396.08"/>
</g>
<!-- 19&#45;&gt;7 -->
<g id="edge22" class="edge">
<title>19&#45;&gt;7</title>
<path fill="none" stroke="grey" stroke-width="2" d="M907.81,-431.7C905.47,-423.9 902.65,-414.51 900.05,-405.83"/>
<polygon fill="grey" stroke="grey" stroke-width="2" points="903.36,-404.68 897.13,-396.1 896.65,-406.69 903.36,-404.68"/>
</g>
<!-- 20&#45;&gt;9 -->
<g id="edge26" class="edge">
<title>20&#45;&gt;9</title>
<path fill="none" stroke="grey" stroke-width="2" d="M296.74,-215.7C297.07,-207.98 297.47,-198.71 297.84,-190.11"/>
<polygon fill="grey" stroke="grey" stroke-width="2" points="301.34,-190.25 298.27,-180.1 294.34,-189.95 301.34,-190.25"/>
</g>
<!-- 21 -->
<g id="node22" class="node">
<title>21</title>
<path fill="none" stroke="#70d856" stroke-width="2" d="M104,-252C104,-252 12,-252 12,-252 6,-252 0,-246 0,-240 0,-240 0,-228 0,-228 0,-222 6,-216 12,-216 12,-216 104,-216 104,-216 110,-216 116,-222 116,-228 116,-228 116,-240 116,-240 116,-246 110,-252 104,-252"/>
<text text-anchor="middle" x="58" y="-231.5" font-family="sans" font-size="10.00">generate_alfa_index</text>
</g>
<!-- 21&#45;&gt;9 -->
<g id="edge27" class="edge">
<title>21&#45;&gt;9</title>
<path fill="none" stroke="grey" stroke-width="2" d="M116.03,-216.14C161.42,-202.96 223.15,-185.03 262.04,-173.74"/>
<polygon fill="grey" stroke="grey" stroke-width="2" points="263.26,-177.03 271.89,-170.88 261.31,-170.3 263.26,-177.03"/>
</g>
<!-- 22 -->
<g id="node23" class="node">
<title>22</title>
<path fill="none" stroke="#d6d856" stroke-width="2" d="M416.5,-612C416.5,-612 273.5,-612 273.5,-612 267.5,-612 261.5,-606 261.5,-600 261.5,-600 261.5,-588 261.5,-588 261.5,-582 267.5,-576 273.5,-576 273.5,-576 416.5,-576 416.5,-576 422.5,-576 428.5,-582 428.5,-588 428.5,-588 428.5,-600 428.5,-600 428.5,-606 422.5,-612 416.5,-612"/>
<text text-anchor="middle" x="345" y="-591.5" font-family="sans" font-size="10.00">pe_remove_adapters_cutadapt</text>
</g>
<!-- 22&#45;&gt;11 -->
<g id="edge29" class="edge">
<title>22&#45;&gt;11</title>
<path fill="none" stroke="grey" stroke-width="2" d="M345.99,-575.7C346.43,-567.98 346.96,-558.71 347.45,-550.11"/>
<polygon fill="grey" stroke="grey" stroke-width="2" points="350.95,-550.29 348.02,-540.1 343.96,-549.89 350.95,-550.29"/>
</g>
<!-- 23 -->
<g id="node24" class="node">
<title>23</title>
<path fill="none" stroke="#56d8d0" stroke-width="2" d="M783.5,-612C783.5,-612 682.5,-612 682.5,-612 676.5,-612 670.5,-606 670.5,-600 670.5,-600 670.5,-588 670.5,-588 670.5,-582 676.5,-576 682.5,-576 682.5,-576 783.5,-576 783.5,-576 789.5,-576 795.5,-582 795.5,-588 795.5,-588 795.5,-600 795.5,-600 795.5,-606 789.5,-612 783.5,-612"/>
<text text-anchor="middle" x="733" y="-591.5" font-family="sans" font-size="10.00">extract_transcriptome</text>
</g>
<!-- 23&#45;&gt;12 -->
<g id="edge30" class="edge">
<title>23&#45;&gt;12</title>
<path fill="none" stroke="grey" stroke-width="2" d="M715.7,-575.7C707.14,-567.14 696.66,-556.66 687.3,-547.3"/>
<polygon fill="grey" stroke="grey" stroke-width="2" points="689.65,-544.7 680.1,-540.1 684.7,-549.65 689.65,-544.7"/>
</g>
<!-- 26 -->
<g id="node27" class="node">
<title>26</title>
<path fill="none" stroke="#d88d56" stroke-width="2" d="M850.5,-540C850.5,-540 753.5,-540 753.5,-540 747.5,-540 741.5,-534 741.5,-528 741.5,-528 741.5,-516 741.5,-516 741.5,-510 747.5,-504 753.5,-504 753.5,-504 850.5,-504 850.5,-504 856.5,-504 862.5,-510 862.5,-516 862.5,-516 862.5,-528 862.5,-528 862.5,-534 856.5,-540 850.5,-540"/>
<text text-anchor="middle" x="802" y="-519.5" font-family="sans" font-size="10.00">create_index_salmon</text>
</g>
<!-- 23&#45;&gt;26 -->
<g id="edge44" class="edge">
<title>23&#45;&gt;26</title>
<path fill="none" stroke="grey" stroke-width="2" d="M750.06,-575.7C758.5,-567.14 768.82,-556.66 778.04,-547.3"/>
<polygon fill="grey" stroke="grey" stroke-width="2" points="780.61,-549.68 785.14,-540.1 775.63,-544.77 780.61,-549.68"/>
</g>
<!-- 24 -->
<g id="node25" class="node">
<title>24</title>
<path fill="none" stroke="#61d856" stroke-width="2" d="M584,-612C584,-612 458,-612 458,-612 452,-612 446,-606 446,-600 446,-600 446,-588 446,-588 446,-582 452,-576 458,-576 458,-576 584,-576 584,-576 590,-576 596,-582 596,-588 596,-588 596,-600 596,-600 596,-606 590,-612 584,-612"/>
<text text-anchor="middle" x="521" y="-591.5" font-family="sans" font-size="10.00">remove_adapters_cutadapt</text>
</g>
<!-- 24&#45;&gt;13 -->
<g id="edge31" class="edge">
<title>24&#45;&gt;13</title>
<path fill="none" stroke="grey" stroke-width="2" d="M520.01,-575.7C519.57,-567.98 519.04,-558.71 518.55,-550.11"/>
<polygon fill="grey" stroke="grey" stroke-width="2" points="522.04,-549.89 517.98,-540.1 515.05,-550.29 522.04,-549.89"/>
</g>
<!-- 25 -->
<g id="node26" class="node">
<title>25</title>
<path fill="none" stroke="#56d8a9" stroke-width="2" d="M131,-540C131,-540 51,-540 51,-540 45,-540 39,-534 39,-528 39,-528 39,-516 39,-516 39,-510 45,-504 51,-504 51,-504 131,-504 131,-504 137,-504 143,-510 143,-516 143,-516 143,-528 143,-528 143,-534 137,-540 131,-540"/>
<text text-anchor="middle" x="91" y="-519.5" font-family="sans" font-size="10.00">create_index_star</text>
</g>
<!-- 25&#45;&gt;14 -->
<g id="edge33" class="edge">
<title>25&#45;&gt;14</title>
<path fill="none" stroke="grey" stroke-width="2" d="M91,-503.7C91,-495.98 91,-486.71 91,-478.11"/>
<polygon fill="grey" stroke="grey" stroke-width="2" points="94.5,-478.1 91,-468.1 87.5,-478.1 94.5,-478.1"/>
</g>
<!-- 25&#45;&gt;17 -->
<g id="edge37" class="edge">
<title>25&#45;&gt;17</title>
<path fill="none" stroke="grey" stroke-width="2" d="M123.78,-503.88C141.63,-494.55 163.9,-482.92 183,-472.94"/>
<polygon fill="grey" stroke="grey" stroke-width="2" points="184.85,-475.92 192.09,-468.19 181.61,-469.72 184.85,-475.92"/>
</g>
<!-- 25&#45;&gt;21 -->
<g id="edge43" class="edge">
<title>25&#45;&gt;21</title>
<path fill="none" stroke="grey" stroke-width="2" d="M55.86,-503.78C41.94,-495.07 27.3,-483.1 19,-468 -18.19,-400.37 20.37,-306.26 43.41,-261.15"/>
<polygon fill="grey" stroke="grey" stroke-width="2" points="46.65,-262.52 48.2,-252.04 40.45,-259.26 46.65,-262.52"/>
</g>
<!-- 26&#45;&gt;18 -->
<g id="edge38" class="edge">
<title>26&#45;&gt;18</title>
<path fill="none" stroke="grey" stroke-width="2" d="M791.87,-503.7C787.15,-495.64 781.44,-485.89 776.22,-476.98"/>
<polygon fill="grey" stroke="grey" stroke-width="2" points="779.09,-474.96 771.02,-468.1 773.05,-478.5 779.09,-474.96"/>
</g>
<!-- 26&#45;&gt;19 -->
<g id="edge41" class="edge">
<title>26&#45;&gt;19</title>
<path fill="none" stroke="grey" stroke-width="2" d="M829.15,-503.88C843.53,-494.81 861.38,-483.55 876.91,-473.76"/>
<polygon fill="grey" stroke="grey" stroke-width="2" points="879.15,-476.48 885.74,-468.19 875.42,-470.56 879.15,-476.48"/>
</g>
</g>
</svg>
