<?xml version="1.0" encoding="UTF-8" standalone="no"?>
<!DOCTYPE svg PUBLIC "-//W3C//DTD SVG 1.1//EN"
 "http://www.w3.org/Graphics/SVG/1.1/DTD/svg11.dtd">
<!-- Generated by graphviz version 2.38.0 (20140413.2041)
 -->
<!-- Title: snakemake_dag Pages: 1 -->
<svg width="940pt" height="404pt"
 viewBox="0.00 0.00 939.50 404.00" xmlns="http://www.w3.org/2000/svg" xmlns:xlink="http://www.w3.org/1999/xlink">
<g id="graph0" class="graph" transform="scale(1 1) rotate(0) translate(4 400)">
<title>snakemake_dag</title>
<polygon fill="white" stroke="none" points="-4,4 -4,-400 935.5,-400 935.5,4 -4,4"/>
<!-- 0 -->
<g id="node1" class="node"><title>0</title>
<path fill="none" stroke="#d85656" stroke-width="2" d="M296.5,-36C296.5,-36 266.5,-36 266.5,-36 260.5,-36 254.5,-30 254.5,-24 254.5,-24 254.5,-12 254.5,-12 254.5,-6 260.5,-0 266.5,-0 266.5,-0 296.5,-0 296.5,-0 302.5,-0 308.5,-6 308.5,-12 308.5,-12 308.5,-24 308.5,-24 308.5,-30 302.5,-36 296.5,-36"/>
<text text-anchor="middle" x="281.5" y="-15.5" font-family="sans" font-size="10.00">finish</text>
</g>
<!-- 1 -->
<g id="node2" class="node"><title>1</title>
<path fill="none" stroke="#a7d856" stroke-width="2" d="M131,-108C131,-108 96,-108 96,-108 90,-108 84,-102 84,-96 84,-96 84,-84 84,-84 84,-78 90,-72 96,-72 96,-72 131,-72 131,-72 137,-72 143,-78 143,-84 143,-84 143,-96 143,-96 143,-102 137,-108 131,-108"/>
<text text-anchor="middle" x="113.5" y="-87.5" font-family="sans" font-size="10.00">pe_fastqc</text>
</g>
<!-- 1&#45;&gt;0 -->
<g id="edge5" class="edge"><title>1&#45;&gt;0</title>
<path fill="none" stroke="grey" stroke-width="2" d="M143.282,-75.9405C146.391,-74.6005 149.507,-73.2669 152.5,-72 183.541,-58.86 218.97,-44.3377 244.835,-33.8224"/>
<polygon fill="grey" stroke="grey" stroke-width="2" points="246.302,-37.0044 254.25,-29.9997 243.668,-30.5186 246.302,-37.0044"/>
</g>
<!-- 2 -->
<g id="node3" class="node"><title>2</title>
<path fill="none" stroke="#56c1d8" stroke-width="2" d="M203.5,-108C203.5,-108 173.5,-108 173.5,-108 167.5,-108 161.5,-102 161.5,-96 161.5,-96 161.5,-84 161.5,-84 161.5,-78 167.5,-72 173.5,-72 173.5,-72 203.5,-72 203.5,-72 209.5,-72 215.5,-78 215.5,-84 215.5,-84 215.5,-96 215.5,-96 215.5,-102 209.5,-108 203.5,-108"/>
<text text-anchor="middle" x="188.5" y="-87.5" font-family="sans" font-size="10.00">fastqc</text>
</g>
<!-- 2&#45;&gt;0 -->
<g id="edge6" class="edge"><title>2&#45;&gt;0</title>
<path fill="none" stroke="grey" stroke-width="2" d="M211.489,-71.6966C223.314,-62.796 237.892,-51.8232 250.679,-42.1989"/>
<polygon fill="grey" stroke="grey" stroke-width="2" points="252.891,-44.9145 258.776,-36.1043 248.681,-39.3217 252.891,-44.9145"/>
</g>
<!-- 3 -->
<g id="node4" class="node"><title>3</title>
<path fill="none" stroke="#568ad8" stroke-width="2" d="M115,-252C115,-252 12,-252 12,-252 6,-252 -7.10543e-15,-246 -7.10543e-15,-240 -7.10543e-15,-240 -7.10543e-15,-228 -7.10543e-15,-228 -7.10543e-15,-222 6,-216 12,-216 12,-216 115,-216 115,-216 121,-216 127,-222 127,-228 127,-228 127,-240 127,-240 127,-246 121,-252 115,-252"/>
<text text-anchor="middle" x="63.5" y="-231.5" font-family="sans" font-size="10.00">pe_quantification_salmon</text>
</g>
<!-- 3&#45;&gt;0 -->
<g id="edge7" class="edge"><title>3&#45;&gt;0</title>
<path fill="none" stroke="grey" stroke-width="2" d="M90.8692,-215.973C124.885,-193.92 183.454,-152.942 224.5,-108 241.966,-88.8761 257.5,-63.7838 267.923,-45.1186"/>
<polygon fill="grey" stroke="grey" stroke-width="2" points="271.035,-46.723 272.753,-36.2684 264.89,-43.3697 271.035,-46.723"/>
</g>
<!-- 4 -->
<g id="node5" class="node"><title>4</title>
<path fill="none" stroke="#d8bc56" stroke-width="2" d="M244,-252C244,-252 157,-252 157,-252 151,-252 145,-246 145,-240 145,-240 145,-228 145,-228 145,-222 151,-216 157,-216 157,-216 244,-216 244,-216 250,-216 256,-222 256,-228 256,-228 256,-240 256,-240 256,-246 250,-252 244,-252"/>
<text text-anchor="middle" x="200.5" y="-231.5" font-family="sans" font-size="10.00">quantification_salmon</text>
</g>
<!-- 4&#45;&gt;0 -->
<g id="edge3" class="edge"><title>4&#45;&gt;0</title>
<path fill="none" stroke="grey" stroke-width="2" d="M225.562,-215.933C237.162,-206.679 250.005,-194.227 257.5,-180 279.985,-137.319 283.155,-79.9722 282.771,-46.4954"/>
<polygon fill="grey" stroke="grey" stroke-width="2" points="286.261,-46.0283 282.527,-36.1132 279.263,-46.1926 286.261,-46.0283"/>
</g>
<!-- 5 -->
<g id="node6" class="node"><title>5</title>
<path fill="none" stroke="#d6d856" stroke-width="2" d="M428.5,-252C428.5,-252 286.5,-252 286.5,-252 280.5,-252 274.5,-246 274.5,-240 274.5,-240 274.5,-228 274.5,-228 274.5,-222 280.5,-216 286.5,-216 286.5,-216 428.5,-216 428.5,-216 434.5,-216 440.5,-222 440.5,-228 440.5,-228 440.5,-240 440.5,-240 440.5,-246 434.5,-252 428.5,-252"/>
<text text-anchor="middle" x="357.5" y="-231.5" font-family="sans" font-size="10.00">pe_genome_quantification_kallisto</text>
</g>
<!-- 5&#45;&gt;0 -->
<g id="edge4" class="edge"><title>5&#45;&gt;0</title>
<path fill="none" stroke="grey" stroke-width="2" d="M351.409,-215.849C338.207,-178.675 306.871,-90.4388 291.025,-45.8204"/>
<polygon fill="grey" stroke="grey" stroke-width="2" points="294.265,-44.4845 287.62,-36.2325 287.668,-46.8272 294.265,-44.4845"/>
</g>
<!-- 6 -->
<g id="node7" class="node"><title>6</title>
<path fill="none" stroke="#d88d56" stroke-width="2" d="M596.5,-252C596.5,-252 470.5,-252 470.5,-252 464.5,-252 458.5,-246 458.5,-240 458.5,-240 458.5,-228 458.5,-228 458.5,-222 464.5,-216 470.5,-216 470.5,-216 596.5,-216 596.5,-216 602.5,-216 608.5,-222 608.5,-228 608.5,-228 608.5,-240 608.5,-240 608.5,-246 602.5,-252 596.5,-252"/>
<text text-anchor="middle" x="533.5" y="-231.5" font-family="sans" font-size="10.00">genome_quantification_kallisto</text>
</g>
<!-- 6&#45;&gt;0 -->
<g id="edge2" class="edge"><title>6&#45;&gt;0</title>
<path fill="none" stroke="grey" stroke-width="2" d="M466.704,-215.888C430.604,-205.599 390.594,-192.18 376.5,-180 335.744,-144.78 350.057,-117.673 321.5,-72 315.633,-62.6164 308.541,-52.8174 301.968,-44.2341"/>
<polygon fill="grey" stroke="grey" stroke-width="2" points="304.545,-41.8464 295.633,-36.1164 299.026,-46.1532 304.545,-41.8464"/>
</g>
<!-- 7 -->
<g id="node8" class="node"><title>7</title>
<path fill="none" stroke="#d86e56" stroke-width="2" d="M617.5,-108C617.5,-108 529.5,-108 529.5,-108 523.5,-108 517.5,-102 517.5,-96 517.5,-96 517.5,-84 517.5,-84 517.5,-78 523.5,-72 529.5,-72 529.5,-72 617.5,-72 617.5,-72 623.5,-72 629.5,-78 629.5,-84 629.5,-84 629.5,-96 629.5,-96 629.5,-102 623.5,-108 617.5,-108"/>
<text text-anchor="middle" x="573.5" y="-87.5" font-family="sans" font-size="10.00">calculate_TIN_scores</text>
</g>
<!-- 7&#45;&gt;0 -->
<g id="edge1" class="edge"><title>7&#45;&gt;0</title>
<path fill="none" stroke="grey" stroke-width="2" d="M517.199,-75.5033C458.593,-61.4537 368.502,-39.8566 318.378,-27.8405"/>
<polygon fill="grey" stroke="grey" stroke-width="2" points="319.151,-24.4268 308.61,-25.4991 317.519,-31.2339 319.151,-24.4268"/>
</g>
<!-- 8 -->
<g id="node9" class="node"><title>8</title>
<path fill="none" stroke="#5673d8" stroke-width="2" d="M360.5,-324C360.5,-324 248.5,-324 248.5,-324 242.5,-324 236.5,-318 236.5,-312 236.5,-312 236.5,-300 236.5,-300 236.5,-294 242.5,-288 248.5,-288 248.5,-288 360.5,-288 360.5,-288 366.5,-288 372.5,-294 372.5,-300 372.5,-300 372.5,-312 372.5,-312 372.5,-318 366.5,-324 360.5,-324"/>
<text text-anchor="middle" x="304.5" y="-303.5" font-family="sans" font-size="10.00">pe_remove_polya_cutadapt</text>
</g>
<!-- 8&#45;&gt;3 -->
<g id="edge9" class="edge"><title>8&#45;&gt;3</title>
<path fill="none" stroke="grey" stroke-width="2" d="M245.853,-287.966C211.594,-278.015 168.184,-265.406 132.314,-254.987"/>
<polygon fill="grey" stroke="grey" stroke-width="2" points="132.989,-251.539 122.41,-252.111 131.037,-258.261 132.989,-251.539"/>
</g>
<!-- 8&#45;&gt;5 -->
<g id="edge13" class="edge"><title>8&#45;&gt;5</title>
<path fill="none" stroke="grey" stroke-width="2" d="M317.601,-287.697C323.891,-279.389 331.547,-269.277 338.465,-260.141"/>
<polygon fill="grey" stroke="grey" stroke-width="2" points="341.304,-262.19 344.55,-252.104 335.723,-257.964 341.304,-262.19"/>
</g>
<!-- 17 -->
<g id="node18" class="node"><title>17</title>
<path fill="none" stroke="#59d856" stroke-width="2" d="M728,-252C728,-252 639,-252 639,-252 633,-252 627,-246 627,-240 627,-240 627,-228 627,-228 627,-222 633,-216 639,-216 639,-216 728,-216 728,-216 734,-216 740,-222 740,-228 740,-228 740,-240 740,-240 740,-246 734,-252 728,-252"/>
<text text-anchor="middle" x="683.5" y="-231.5" font-family="sans" font-size="10.00">pe_map_genome_star</text>
</g>
<!-- 8&#45;&gt;17 -->
<g id="edge24" class="edge"><title>8&#45;&gt;17</title>
<path fill="none" stroke="grey" stroke-width="2" d="M372.886,-289.657C375.793,-289.082 378.674,-288.527 381.5,-288 482.647,-269.141 511.799,-272.997 616.656,-252.052"/>
<polygon fill="grey" stroke="grey" stroke-width="2" points="617.597,-255.433 626.703,-250.017 616.207,-248.572 617.597,-255.433"/>
</g>
<!-- 9 -->
<g id="node10" class="node"><title>9</title>
<path fill="none" stroke="#56d8a2" stroke-width="2" d="M156,-324C156,-324 71,-324 71,-324 65,-324 59,-318 59,-312 59,-312 59,-300 59,-300 59,-294 65,-288 71,-288 71,-288 156,-288 156,-288 162,-288 168,-294 168,-300 168,-300 168,-312 168,-312 168,-318 162,-324 156,-324"/>
<text text-anchor="middle" x="113.5" y="-303.5" font-family="sans" font-size="10.00">create_index_salmon</text>
</g>
<!-- 9&#45;&gt;3 -->
<g id="edge8" class="edge"><title>9&#45;&gt;3</title>
<path fill="none" stroke="grey" stroke-width="2" d="M101.14,-287.697C95.2672,-279.474 88.1309,-269.483 81.6576,-260.421"/>
<polygon fill="grey" stroke="grey" stroke-width="2" points="84.3779,-258.207 75.7174,-252.104 78.6817,-262.276 84.3779,-258.207"/>
</g>
<!-- 9&#45;&gt;4 -->
<g id="edge11" class="edge"><title>9&#45;&gt;4</title>
<path fill="none" stroke="grey" stroke-width="2" d="M135.006,-287.697C145.963,-278.881 159.446,-268.032 171.325,-258.474"/>
<polygon fill="grey" stroke="grey" stroke-width="2" points="173.645,-261.1 179.242,-252.104 169.256,-255.646 173.645,-261.1"/>
</g>
<!-- 10 -->
<g id="node11" class="node"><title>10</title>
<path fill="none" stroke="#56d8d8" stroke-width="2" d="M624.5,-324C624.5,-324 528.5,-324 528.5,-324 522.5,-324 516.5,-318 516.5,-312 516.5,-312 516.5,-300 516.5,-300 516.5,-294 522.5,-288 528.5,-288 528.5,-288 624.5,-288 624.5,-288 630.5,-288 636.5,-294 636.5,-300 636.5,-300 636.5,-312 636.5,-312 636.5,-318 630.5,-324 624.5,-324"/>
<text text-anchor="middle" x="576.5" y="-303.5" font-family="sans" font-size="10.00">remove_polya_cutadapt</text>
</g>
<!-- 10&#45;&gt;4 -->
<g id="edge10" class="edge"><title>10&#45;&gt;4</title>
<path fill="none" stroke="grey" stroke-width="2" d="M516.363,-289.831C513.372,-289.187 510.405,-288.573 507.5,-288 403.939,-267.586 373.787,-273.413 266.048,-251.975"/>
<polygon fill="grey" stroke="grey" stroke-width="2" points="266.572,-248.51 256.077,-249.958 265.184,-255.371 266.572,-248.51"/>
</g>
<!-- 10&#45;&gt;6 -->
<g id="edge14" class="edge"><title>10&#45;&gt;6</title>
<path fill="none" stroke="grey" stroke-width="2" d="M565.871,-287.697C560.872,-279.559 554.809,-269.689 549.288,-260.701"/>
<polygon fill="grey" stroke="grey" stroke-width="2" points="552.223,-258.793 544.007,-252.104 546.259,-262.457 552.223,-258.793"/>
</g>
<!-- 18 -->
<g id="node19" class="node"><title>18</title>
<path fill="none" stroke="#70d856" stroke-width="2" d="M843,-252C843,-252 770,-252 770,-252 764,-252 758,-246 758,-240 758,-240 758,-228 758,-228 758,-222 764,-216 770,-216 770,-216 843,-216 843,-216 849,-216 855,-222 855,-228 855,-228 855,-240 855,-240 855,-246 849,-252 843,-252"/>
<text text-anchor="middle" x="806.5" y="-231.5" font-family="sans" font-size="10.00">map_genome_star</text>
</g>
<!-- 10&#45;&gt;18 -->
<g id="edge25" class="edge"><title>10&#45;&gt;18</title>
<path fill="none" stroke="grey" stroke-width="2" d="M632.47,-287.966C667.475,-277.312 712.49,-263.612 747.968,-252.814"/>
<polygon fill="grey" stroke="grey" stroke-width="2" points="749.158,-256.111 757.705,-249.851 747.119,-249.414 749.158,-256.111"/>
</g>
<!-- 11 -->
<g id="node12" class="node"><title>11</title>
<path fill="none" stroke="#56d8c1" stroke-width="2" d="M486.5,-324C486.5,-324 402.5,-324 402.5,-324 396.5,-324 390.5,-318 390.5,-312 390.5,-312 390.5,-300 390.5,-300 390.5,-294 396.5,-288 402.5,-288 402.5,-288 486.5,-288 486.5,-288 492.5,-288 498.5,-294 498.5,-300 498.5,-300 498.5,-312 498.5,-312 498.5,-318 492.5,-324 486.5,-324"/>
<text text-anchor="middle" x="444.5" y="-303.5" font-family="sans" font-size="10.00">create_index_kallisto</text>
</g>
<!-- 11&#45;&gt;5 -->
<g id="edge12" class="edge"><title>11&#45;&gt;5</title>
<path fill="none" stroke="grey" stroke-width="2" d="M422.994,-287.697C412.037,-278.881 398.554,-268.032 386.675,-258.474"/>
<polygon fill="grey" stroke="grey" stroke-width="2" points="388.744,-255.646 378.758,-252.104 384.355,-261.1 388.744,-255.646"/>
</g>
<!-- 11&#45;&gt;6 -->
<g id="edge15" class="edge"><title>11&#45;&gt;6</title>
<path fill="none" stroke="grey" stroke-width="2" d="M466.5,-287.697C477.709,-278.881 491.502,-268.032 503.654,-258.474"/>
<polygon fill="grey" stroke="grey" stroke-width="2" points="506.057,-261.038 511.753,-252.104 501.729,-255.535 506.057,-261.038"/>
</g>
<!-- 12 -->
<g id="node13" class="node"><title>12</title>
<path fill="none" stroke="#d8a456" stroke-width="2" d="M563.5,-180C563.5,-180 397.5,-180 397.5,-180 391.5,-180 385.5,-174 385.5,-168 385.5,-168 385.5,-156 385.5,-156 385.5,-150 391.5,-144 397.5,-144 397.5,-144 563.5,-144 563.5,-144 569.5,-144 575.5,-150 575.5,-156 575.5,-156 575.5,-168 575.5,-168 575.5,-174 569.5,-180 563.5,-180"/>
<text text-anchor="middle" x="480.5" y="-159.5" font-family="sans" font-size="10.00">pe_index_genomic_alignment_samtools</text>
</g>
<!-- 12&#45;&gt;7 -->
<g id="edge17" class="edge"><title>12&#45;&gt;7</title>
<path fill="none" stroke="grey" stroke-width="2" d="M503.489,-143.697C515.314,-134.796 529.892,-123.823 542.679,-114.199"/>
<polygon fill="grey" stroke="grey" stroke-width="2" points="544.891,-116.915 550.776,-108.104 540.681,-111.322 544.891,-116.915"/>
</g>
<!-- 13 -->
<g id="node14" class="node"><title>13</title>
<path fill="none" stroke="#56a2d8" stroke-width="2" d="M727,-180C727,-180 606,-180 606,-180 600,-180 594,-174 594,-168 594,-168 594,-156 594,-156 594,-150 600,-144 606,-144 606,-144 727,-144 727,-144 733,-144 739,-150 739,-156 739,-156 739,-168 739,-168 739,-174 733,-180 727,-180"/>
<text text-anchor="middle" x="666.5" y="-159.5" font-family="sans" font-size="10.00">extract_transcripts_as_bed12</text>
</g>
<!-- 13&#45;&gt;7 -->
<g id="edge18" class="edge"><title>13&#45;&gt;7</title>
<path fill="none" stroke="grey" stroke-width="2" d="M643.511,-143.697C631.686,-134.796 617.108,-123.823 604.321,-114.199"/>
<polygon fill="grey" stroke="grey" stroke-width="2" points="606.319,-111.322 596.224,-108.104 602.109,-116.915 606.319,-111.322"/>
</g>
<!-- 14 -->
<g id="node15" class="node"><title>14</title>
<path fill="none" stroke="#88d856" stroke-width="2" d="M919.5,-180C919.5,-180 769.5,-180 769.5,-180 763.5,-180 757.5,-174 757.5,-168 757.5,-168 757.5,-156 757.5,-156 757.5,-150 763.5,-144 769.5,-144 769.5,-144 919.5,-144 919.5,-144 925.5,-144 931.5,-150 931.5,-156 931.5,-156 931.5,-168 931.5,-168 931.5,-174 925.5,-180 919.5,-180"/>
<text text-anchor="middle" x="844.5" y="-159.5" font-family="sans" font-size="10.00">index_genomic_alignment_samtools</text>
</g>
<!-- 14&#45;&gt;7 -->
<g id="edge16" class="edge"><title>14&#45;&gt;7</title>
<path fill="none" stroke="grey" stroke-width="2" d="M778.552,-143.966C736.344,-133.063 681.783,-118.97 639.554,-108.062"/>
<polygon fill="grey" stroke="grey" stroke-width="2" points="640.206,-104.615 629.648,-105.503 638.455,-111.393 640.206,-104.615"/>
</g>
<!-- 15 -->
<g id="node16" class="node"><title>15</title>
<path fill="none" stroke="#56d88a" stroke-width="2" d="M367.5,-396C367.5,-396 241.5,-396 241.5,-396 235.5,-396 229.5,-390 229.5,-384 229.5,-384 229.5,-372 229.5,-372 229.5,-366 235.5,-360 241.5,-360 241.5,-360 367.5,-360 367.5,-360 373.5,-360 379.5,-366 379.5,-372 379.5,-372 379.5,-384 379.5,-384 379.5,-390 373.5,-396 367.5,-396"/>
<text text-anchor="middle" x="304.5" y="-375.5" font-family="sans" font-size="10.00">pe_remove_adapters_cutadapt</text>
</g>
<!-- 15&#45;&gt;8 -->
<g id="edge19" class="edge"><title>15&#45;&gt;8</title>
<path fill="none" stroke="grey" stroke-width="2" d="M304.5,-359.697C304.5,-351.983 304.5,-342.712 304.5,-334.112"/>
<polygon fill="grey" stroke="grey" stroke-width="2" points="308,-334.104 304.5,-324.104 301,-334.104 308,-334.104"/>
</g>
<!-- 16 -->
<g id="node17" class="node"><title>16</title>
<path fill="none" stroke="#bed856" stroke-width="2" d="M631.5,-396C631.5,-396 521.5,-396 521.5,-396 515.5,-396 509.5,-390 509.5,-384 509.5,-384 509.5,-372 509.5,-372 509.5,-366 515.5,-360 521.5,-360 521.5,-360 631.5,-360 631.5,-360 637.5,-360 643.5,-366 643.5,-372 643.5,-372 643.5,-384 643.5,-384 643.5,-390 637.5,-396 631.5,-396"/>
<text text-anchor="middle" x="576.5" y="-375.5" font-family="sans" font-size="10.00">remove_adapters_cutadapt</text>
</g>
<!-- 16&#45;&gt;10 -->
<g id="edge20" class="edge"><title>16&#45;&gt;10</title>
<path fill="none" stroke="grey" stroke-width="2" d="M576.5,-359.697C576.5,-351.983 576.5,-342.712 576.5,-334.112"/>
<polygon fill="grey" stroke="grey" stroke-width="2" points="580,-334.104 576.5,-324.104 573,-334.104 580,-334.104"/>
</g>
<!-- 17&#45;&gt;12 -->
<g id="edge21" class="edge"><title>17&#45;&gt;12</title>
<path fill="none" stroke="grey" stroke-width="2" d="M634.1,-215.966C605.613,-206.142 569.614,-193.729 539.629,-183.389"/>
<polygon fill="grey" stroke="grey" stroke-width="2" points="540.716,-180.062 530.121,-180.111 538.434,-186.68 540.716,-180.062"/>
</g>
<!-- 18&#45;&gt;14 -->
<g id="edge22" class="edge"><title>18&#45;&gt;14</title>
<path fill="none" stroke="grey" stroke-width="2" d="M815.893,-215.697C820.265,-207.644 825.557,-197.894 830.395,-188.982"/>
<polygon fill="grey" stroke="grey" stroke-width="2" points="833.52,-190.563 835.215,-180.104 827.368,-187.223 833.52,-190.563"/>
</g>
<!-- 19 -->
<g id="node20" class="node"><title>19</title>
<path fill="none" stroke="#56d873" stroke-width="2" d="M779.5,-324C779.5,-324 709.5,-324 709.5,-324 703.5,-324 697.5,-318 697.5,-312 697.5,-312 697.5,-300 697.5,-300 697.5,-294 703.5,-288 709.5,-288 709.5,-288 779.5,-288 779.5,-288 785.5,-288 791.5,-294 791.5,-300 791.5,-300 791.5,-312 791.5,-312 791.5,-318 785.5,-324 779.5,-324"/>
<text text-anchor="middle" x="744.5" y="-303.5" font-family="sans" font-size="10.00">create_index_star</text>
</g>
<!-- 19&#45;&gt;17 -->
<g id="edge23" class="edge"><title>19&#45;&gt;17</title>
<path fill="none" stroke="grey" stroke-width="2" d="M729.421,-287.697C722.108,-279.305 713.19,-269.07 705.165,-259.861"/>
<polygon fill="grey" stroke="grey" stroke-width="2" points="707.614,-257.344 698.405,-252.104 702.336,-261.943 707.614,-257.344"/>
</g>
<!-- 19&#45;&gt;18 -->
<g id="edge26" class="edge"><title>19&#45;&gt;18</title>
<path fill="none" stroke="grey" stroke-width="2" d="M759.826,-287.697C767.259,-279.305 776.323,-269.07 784.48,-259.861"/>
<polygon fill="grey" stroke="grey" stroke-width="2" points="787.34,-261.911 791.35,-252.104 782.1,-257.27 787.34,-261.911"/>
</g>
</g>
</svg>
