<?xml version="1.0" encoding="UTF-8" standalone="no"?>
<!DOCTYPE svg PUBLIC "-//W3C//DTD SVG 1.1//EN"
 "http://www.w3.org/Graphics/SVG/1.1/DTD/svg11.dtd">
<!-- Generated by graphviz version 2.38.0 (20140413.2041)
 -->
<!-- Title: snakemake_dag Pages: 1 -->
<svg width="1074pt" height="836pt"
 viewBox="0.00 0.00 1074.00 836.00" xmlns="http://www.w3.org/2000/svg" xmlns:xlink="http://www.w3.org/1999/xlink">
<g id="graph0" class="graph" transform="scale(1 1) rotate(0) translate(4 832)">
<title>snakemake_dag</title>
<polygon fill="white" stroke="none" points="-4,4 -4,-832 1070,-832 1070,4 -4,4"/>
<!-- 0 -->
<g id="node1" class="node"><title>0</title>
<path fill="none" stroke="#d85656" stroke-width="2" d="M339,-36C339,-36 309,-36 309,-36 303,-36 297,-30 297,-24 297,-24 297,-12 297,-12 297,-6 303,-0 309,-0 309,-0 339,-0 339,-0 345,-0 351,-6 351,-12 351,-12 351,-24 351,-24 351,-30 345,-36 339,-36"/>
<text text-anchor="middle" x="324" y="-15.5" font-family="sans" font-size="10.00">finish</text>
</g>
<!-- 1 -->
<g id="node2" class="node"><title>1</title>
<path fill="none" stroke="#a7d856" stroke-width="2" d="M358,-108C358,-108 290,-108 290,-108 284,-108 278,-102 278,-96 278,-96 278,-84 278,-84 278,-78 284,-72 290,-72 290,-72 358,-72 358,-72 364,-72 370,-78 370,-84 370,-84 370,-96 370,-96 370,-102 364,-108 358,-108"/>
<text text-anchor="middle" x="324" y="-87.5" font-family="sans" font-size="10.00">MULTIQC_report</text>
</g>
<!-- 1&#45;&gt;0 -->
<g id="edge1" class="edge"><title>1&#45;&gt;0</title>
<path fill="none" stroke="grey" stroke-width="2" d="M324,-71.6966C324,-63.9827 324,-54.7125 324,-46.1124"/>
<polygon fill="grey" stroke="grey" stroke-width="2" points="327.5,-46.1043 324,-36.1043 320.5,-46.1044 327.5,-46.1043"/>
</g>
<!-- 2 -->
<g id="node3" class="node"><title>2</title>
<path fill="none" stroke="#c6d856" stroke-width="2" d="M373,-180C373,-180 275,-180 275,-180 269,-180 263,-174 263,-168 263,-168 263,-156 263,-156 263,-150 269,-144 275,-144 275,-144 373,-144 373,-144 379,-144 385,-150 385,-156 385,-156 385,-168 385,-168 385,-174 379,-180 373,-180"/>
<text text-anchor="middle" x="324" y="-159.5" font-family="sans" font-size="10.00">prepare_MultiQC_config</text>
</g>
<!-- 2&#45;&gt;1 -->
<g id="edge2" class="edge"><title>2&#45;&gt;1</title>
<path fill="none" stroke="grey" stroke-width="2" d="M324,-143.697C324,-135.983 324,-126.712 324,-118.112"/>
<polygon fill="grey" stroke="grey" stroke-width="2" points="327.5,-118.104 324,-108.104 320.5,-118.104 327.5,-118.104"/>
</g>
<!-- 3 -->
<g id="node4" class="node"><title>3</title>
<path fill="none" stroke="#56d863" stroke-width="2" d="M371.5,-252C371.5,-252 276.5,-252 276.5,-252 270.5,-252 264.5,-246 264.5,-240 264.5,-240 264.5,-228 264.5,-228 264.5,-222 270.5,-216 276.5,-216 276.5,-216 371.5,-216 371.5,-216 377.5,-216 383.5,-222 383.5,-228 383.5,-228 383.5,-240 383.5,-240 383.5,-246 377.5,-252 371.5,-252"/>
<text text-anchor="middle" x="324" y="-231.5" font-family="sans" font-size="10.00">prepare_files_for_report</text>
</g>
<!-- 3&#45;&gt;2 -->
<g id="edge3" class="edge"><title>3&#45;&gt;2</title>
<path fill="none" stroke="grey" stroke-width="2" d="M324,-215.697C324,-207.983 324,-198.712 324,-190.112"/>
<polygon fill="grey" stroke="grey" stroke-width="2" points="327.5,-190.104 324,-180.104 320.5,-190.104 327.5,-190.104"/>
</g>
<!-- 4 -->
<g id="node5" class="node"><title>4</title>
<path fill="none" stroke="#d6d856" stroke-width="2" d="M56.5,-324C56.5,-324 21.5,-324 21.5,-324 15.5,-324 9.5,-318 9.5,-312 9.5,-312 9.5,-300 9.5,-300 9.5,-294 15.5,-288 21.5,-288 21.5,-288 56.5,-288 56.5,-288 62.5,-288 68.5,-294 68.5,-300 68.5,-300 68.5,-312 68.5,-312 68.5,-318 62.5,-324 56.5,-324"/>
<text text-anchor="middle" x="39" y="-303.5" font-family="sans" font-size="10.00">pe_fastqc</text>
</g>
<!-- 4&#45;&gt;3 -->
<g id="edge7" class="edge"><title>4&#45;&gt;3</title>
<path fill="none" stroke="grey" stroke-width="2" d="M68.5755,-291.384C71.7245,-290.153 74.9066,-288.996 78,-288 136.356,-269.202 204.655,-255.087 254.46,-246.169"/>
<polygon fill="grey" stroke="grey" stroke-width="2" points="255.242,-249.586 264.481,-244.4 254.025,-242.692 255.242,-249.586"/>
</g>
<!-- 5 -->
<g id="node6" class="node"><title>5</title>
<path fill="none" stroke="#5663d8" stroke-width="2" d="M129,-324C129,-324 99,-324 99,-324 93,-324 87,-318 87,-312 87,-312 87,-300 87,-300 87,-294 93,-288 99,-288 99,-288 129,-288 129,-288 135,-288 141,-294 141,-300 141,-300 141,-312 141,-312 141,-318 135,-324 129,-324"/>
<text text-anchor="middle" x="114" y="-303.5" font-family="sans" font-size="10.00">fastqc</text>
</g>
<!-- 5&#45;&gt;3 -->
<g id="edge13" class="edge"><title>5&#45;&gt;3</title>
<path fill="none" stroke="grey" stroke-width="2" d="M141.214,-293.319C145.789,-291.47 150.51,-289.631 155,-288 187.729,-276.11 224.572,-264.368 255.485,-254.97"/>
<polygon fill="grey" stroke="grey" stroke-width="2" points="256.741,-258.247 265.301,-252.003 254.716,-251.546 256.741,-258.247"/>
</g>
<!-- 6 -->
<g id="node7" class="node"><title>6</title>
<path fill="none" stroke="#568ad8" stroke-width="2" d="M154,-684C154,-684 12,-684 12,-684 6,-684 0,-678 0,-672 0,-672 0,-660 0,-660 0,-654 6,-648 12,-648 12,-648 154,-648 154,-648 160,-648 166,-654 166,-660 166,-660 166,-672 166,-672 166,-678 160,-684 154,-684"/>
<text text-anchor="middle" x="83" y="-663.5" font-family="sans" font-size="10.00">pe_genome_quantification_kallisto</text>
</g>
<!-- 6&#45;&gt;3 -->
<g id="edge10" class="edge"><title>6&#45;&gt;3</title>
<path fill="none" stroke="grey" stroke-width="2" d="M102.086,-647.773C127.422,-622.914 169,-574.302 169,-523 169,-523 169,-523 169,-377 169,-331.41 186.982,-319.437 220,-288 233.622,-275.031 251.036,-264.499 267.703,-256.342"/>
<polygon fill="grey" stroke="grey" stroke-width="2" points="269.285,-259.466 276.857,-252.054 266.316,-253.127 269.285,-259.466"/>
</g>
<!-- 7 -->
<g id="node8" class="node"><title>7</title>
<path fill="none" stroke="#d8a456" stroke-width="2" d="M322,-684C322,-684 196,-684 196,-684 190,-684 184,-678 184,-672 184,-672 184,-660 184,-660 184,-654 190,-648 196,-648 196,-648 322,-648 322,-648 328,-648 334,-654 334,-660 334,-660 334,-672 334,-672 334,-678 328,-684 322,-684"/>
<text text-anchor="middle" x="259" y="-663.5" font-family="sans" font-size="10.00">genome_quantification_kallisto</text>
</g>
<!-- 7&#45;&gt;3 -->
<g id="edge5" class="edge"><title>7&#45;&gt;3</title>
<path fill="none" stroke="grey" stroke-width="2" d="M246.068,-647.677C239.186,-637.702 231.112,-624.665 226,-612 210.862,-574.493 207,-563.447 207,-523 207,-523 207,-523 207,-377 207,-325.614 253.2,-282.737 287.537,-257.966"/>
<polygon fill="grey" stroke="grey" stroke-width="2" points="289.787,-260.664 295.976,-252.064 285.775,-254.927 289.787,-260.664"/>
</g>
<!-- 8 -->
<g id="node9" class="node"><title>8</title>
<path fill="none" stroke="#68d856" stroke-width="2" d="M510.5,-396C510.5,-396 445.5,-396 445.5,-396 439.5,-396 433.5,-390 433.5,-384 433.5,-384 433.5,-372 433.5,-372 433.5,-366 439.5,-360 445.5,-360 445.5,-360 510.5,-360 510.5,-360 516.5,-360 522.5,-366 522.5,-372 522.5,-372 522.5,-384 522.5,-384 522.5,-390 516.5,-396 510.5,-396"/>
<text text-anchor="middle" x="478" y="-375.5" font-family="sans" font-size="10.00">plot_TIN_scores</text>
</g>
<!-- 8&#45;&gt;3 -->
<g id="edge8" class="edge"><title>8&#45;&gt;3</title>
<path fill="none" stroke="grey" stroke-width="2" d="M459.424,-359.871C432.137,-334.711 381.103,-287.654 350.073,-259.042"/>
<polygon fill="grey" stroke="grey" stroke-width="2" points="352.366,-256.395 342.642,-252.189 347.621,-261.541 352.366,-256.395"/>
</g>
<!-- 9 -->
<g id="node10" class="node"><title>9</title>
<path fill="none" stroke="#569ad8" stroke-width="2" d="M359,-612C359,-612 247,-612 247,-612 241,-612 235,-606 235,-600 235,-600 235,-588 235,-588 235,-582 241,-576 247,-576 247,-576 359,-576 359,-576 365,-576 371,-582 371,-588 371,-588 371,-600 371,-600 371,-606 365,-612 359,-612"/>
<text text-anchor="middle" x="303" y="-591.5" font-family="sans" font-size="10.00">salmon_quantmerge_genes</text>
</g>
<!-- 9&#45;&gt;3 -->
<g id="edge9" class="edge"><title>9&#45;&gt;3</title>
<path fill="none" stroke="grey" stroke-width="2" d="M303.198,-575.951C303.489,-549.292 304,-496.116 304,-451 304,-451 304,-451 304,-377 304,-336.822 311.948,-290.869 317.823,-262.389"/>
<polygon fill="grey" stroke="grey" stroke-width="2" points="321.296,-262.887 319.953,-252.378 314.449,-261.431 321.296,-262.887"/>
</g>
<!-- 10 -->
<g id="node11" class="node"><title>10</title>
<path fill="none" stroke="#56d8c9" stroke-width="2" d="M532.5,-612C532.5,-612 401.5,-612 401.5,-612 395.5,-612 389.5,-606 389.5,-600 389.5,-600 389.5,-588 389.5,-588 389.5,-582 395.5,-576 401.5,-576 401.5,-576 532.5,-576 532.5,-576 538.5,-576 544.5,-582 544.5,-588 544.5,-588 544.5,-600 544.5,-600 544.5,-606 538.5,-612 532.5,-612"/>
<text text-anchor="middle" x="467" y="-591.5" font-family="sans" font-size="10.00">salmon_quantmerge_transcripts</text>
</g>
<!-- 10&#45;&gt;3 -->
<g id="edge4" class="edge"><title>10&#45;&gt;3</title>
<path fill="none" stroke="grey" stroke-width="2" d="M436.911,-575.894C400.497,-552.696 344,-507.588 344,-451 344,-451 344,-451 344,-377 344,-336.822 336.052,-290.869 330.177,-262.389"/>
<polygon fill="grey" stroke="grey" stroke-width="2" points="333.551,-261.431 328.047,-252.378 326.704,-262.887 333.551,-261.431"/>
</g>
<!-- 11 -->
<g id="node12" class="node"><title>11</title>
<path fill="none" stroke="#d87556" stroke-width="2" d="M866.5,-540C866.5,-540 835.5,-540 835.5,-540 829.5,-540 823.5,-534 823.5,-528 823.5,-528 823.5,-516 823.5,-516 823.5,-510 829.5,-504 835.5,-504 835.5,-504 866.5,-504 866.5,-504 872.5,-504 878.5,-510 878.5,-516 878.5,-516 878.5,-528 878.5,-528 878.5,-534 872.5,-540 866.5,-540"/>
<text text-anchor="middle" x="851" y="-519.5" font-family="sans" font-size="10.00">star_rpm</text>
</g>
<!-- 11&#45;&gt;3 -->
<g id="edge11" class="edge"><title>11&#45;&gt;3</title>
<path fill="none" stroke="grey" stroke-width="2" d="M823.408,-506.026C736.345,-458.777 467.135,-312.679 364.403,-256.927"/>
<polygon fill="grey" stroke="grey" stroke-width="2" points="366.024,-253.824 355.566,-252.131 362.686,-259.977 366.024,-253.824"/>
</g>
<!-- 23 -->
<g id="node24" class="node"><title>23</title>
<path fill="none" stroke="#56d88a" stroke-width="2" d="M903,-468C903,-468 797,-468 797,-468 791,-468 785,-462 785,-456 785,-456 785,-444 785,-444 785,-438 791,-432 797,-432 797,-432 903,-432 903,-432 909,-432 915,-438 915,-444 915,-444 915,-456 915,-456 915,-462 909,-468 903,-468"/>
<text text-anchor="middle" x="850" y="-447.5" font-family="sans" font-size="10.00">rename_star_rpm_for_alfa</text>
</g>
<!-- 11&#45;&gt;23 -->
<g id="edge43" class="edge"><title>11&#45;&gt;23</title>
<path fill="none" stroke="grey" stroke-width="2" d="M850.753,-503.697C850.643,-495.983 850.51,-486.712 850.387,-478.112"/>
<polygon fill="grey" stroke="grey" stroke-width="2" points="853.887,-478.053 850.244,-468.104 846.888,-478.153 853.887,-478.053"/>
</g>
<!-- 12 -->
<g id="node13" class="node"><title>12</title>
<path fill="none" stroke="#56d87b" stroke-width="2" d="M850,-396C850,-396 820,-396 820,-396 814,-396 808,-390 808,-384 808,-384 808,-372 808,-372 808,-366 814,-360 820,-360 820,-360 850,-360 850,-360 856,-360 862,-366 862,-372 862,-372 862,-384 862,-384 862,-390 856,-396 850,-396"/>
<text text-anchor="middle" x="835" y="-375.5" font-family="sans" font-size="10.00">alfa_qc</text>
</g>
<!-- 12&#45;&gt;3 -->
<g id="edge12" class="edge"><title>12&#45;&gt;3</title>
<path fill="none" stroke="grey" stroke-width="2" d="M807.667,-361.655C789.461,-351.295 765.097,-337.159 744,-324 719.526,-308.735 716.935,-298.32 690,-288 591.798,-250.373 469.428,-239.198 394.018,-236.03"/>
<polygon fill="grey" stroke="grey" stroke-width="2" points="393.823,-232.52 383.697,-235.634 393.555,-239.515 393.823,-232.52"/>
</g>
<!-- 13 -->
<g id="node14" class="node"><title>13</title>
<path fill="none" stroke="#d8cb56" stroke-width="2" d="M846.5,-324C846.5,-324 765.5,-324 765.5,-324 759.5,-324 753.5,-318 753.5,-312 753.5,-312 753.5,-300 753.5,-300 753.5,-294 759.5,-288 765.5,-288 765.5,-288 846.5,-288 846.5,-288 852.5,-288 858.5,-294 858.5,-300 858.5,-300 858.5,-312 858.5,-312 858.5,-318 852.5,-324 846.5,-324"/>
<text text-anchor="middle" x="806" y="-303.5" font-family="sans" font-size="10.00">alfa_qc_all_samples</text>
</g>
<!-- 12&#45;&gt;13 -->
<g id="edge28" class="edge"><title>12&#45;&gt;13</title>
<path fill="none" stroke="grey" stroke-width="2" d="M827.831,-359.697C824.565,-351.813 820.626,-342.304 816.998,-333.546"/>
<polygon fill="grey" stroke="grey" stroke-width="2" points="820.147,-332.003 813.086,-324.104 813.68,-334.683 820.147,-332.003"/>
</g>
<!-- 13&#45;&gt;3 -->
<g id="edge6" class="edge"><title>13&#45;&gt;3</title>
<path fill="none" stroke="grey" stroke-width="2" d="M753.403,-291.745C747.22,-290.383 740.984,-289.099 735,-288 615.786,-266.106 475.48,-250.075 393.473,-241.672"/>
<polygon fill="grey" stroke="grey" stroke-width="2" points="393.825,-238.19 383.522,-240.661 393.117,-245.154 393.825,-238.19"/>
</g>
<!-- 14 -->
<g id="node15" class="node"><title>14</title>
<path fill="none" stroke="#56d8d8" stroke-width="2" d="M395,-756C395,-756 283,-756 283,-756 277,-756 271,-750 271,-744 271,-744 271,-732 271,-732 271,-726 277,-720 283,-720 283,-720 395,-720 395,-720 401,-720 407,-726 407,-732 407,-732 407,-744 407,-744 407,-750 401,-756 395,-756"/>
<text text-anchor="middle" x="339" y="-735.5" font-family="sans" font-size="10.00">pe_remove_polya_cutadapt</text>
</g>
<!-- 14&#45;&gt;6 -->
<g id="edge15" class="edge"><title>14&#45;&gt;6</title>
<path fill="none" stroke="grey" stroke-width="2" d="M276.703,-719.966C240.156,-709.972 193.806,-697.298 155.609,-686.854"/>
<polygon fill="grey" stroke="grey" stroke-width="2" points="156.146,-683.372 145.577,-684.111 154.299,-690.124 156.146,-683.372"/>
</g>
<!-- 18 -->
<g id="node19" class="node"><title>18</title>
<path fill="none" stroke="#d86656" stroke-width="2" d="M467.5,-684C467.5,-684 364.5,-684 364.5,-684 358.5,-684 352.5,-678 352.5,-672 352.5,-672 352.5,-660 352.5,-660 352.5,-654 358.5,-648 364.5,-648 364.5,-648 467.5,-648 467.5,-648 473.5,-648 479.5,-654 479.5,-660 479.5,-660 479.5,-672 479.5,-672 479.5,-678 473.5,-684 467.5,-684"/>
<text text-anchor="middle" x="416" y="-663.5" font-family="sans" font-size="10.00">pe_quantification_salmon</text>
</g>
<!-- 14&#45;&gt;18 -->
<g id="edge34" class="edge"><title>14&#45;&gt;18</title>
<path fill="none" stroke="grey" stroke-width="2" d="M358.034,-719.697C367.545,-711.05 379.207,-700.449 389.57,-691.027"/>
<polygon fill="grey" stroke="grey" stroke-width="2" points="392.14,-693.421 397.185,-684.104 387.431,-688.241 392.14,-693.421"/>
</g>
<!-- 20 -->
<g id="node21" class="node"><title>20</title>
<path fill="none" stroke="#97d856" stroke-width="2" d="M887.5,-684C887.5,-684 798.5,-684 798.5,-684 792.5,-684 786.5,-678 786.5,-672 786.5,-672 786.5,-660 786.5,-660 786.5,-654 792.5,-648 798.5,-648 798.5,-648 887.5,-648 887.5,-648 893.5,-648 899.5,-654 899.5,-660 899.5,-660 899.5,-672 899.5,-672 899.5,-678 893.5,-684 887.5,-684"/>
<text text-anchor="middle" x="843" y="-663.5" font-family="sans" font-size="10.00">pe_map_genome_star</text>
</g>
<!-- 14&#45;&gt;20 -->
<g id="edge38" class="edge"><title>14&#45;&gt;20</title>
<path fill="none" stroke="grey" stroke-width="2" d="M407.368,-721.557C410.28,-721.009 413.167,-720.487 416,-720 542.678,-698.204 691.979,-681.763 776.257,-673.326"/>
<polygon fill="grey" stroke="grey" stroke-width="2" points="776.852,-676.784 786.456,-672.312 776.159,-669.819 776.852,-676.784"/>
</g>
<!-- 15 -->
<g id="node16" class="node"><title>15</title>
<path fill="none" stroke="#56a9d8" stroke-width="2" d="M237,-756C237,-756 153,-756 153,-756 147,-756 141,-750 141,-744 141,-744 141,-732 141,-732 141,-726 147,-720 153,-720 153,-720 237,-720 237,-720 243,-720 249,-726 249,-732 249,-732 249,-744 249,-744 249,-750 243,-756 237,-756"/>
<text text-anchor="middle" x="195" y="-735.5" font-family="sans" font-size="10.00">create_index_kallisto</text>
</g>
<!-- 15&#45;&gt;6 -->
<g id="edge14" class="edge"><title>15&#45;&gt;6</title>
<path fill="none" stroke="grey" stroke-width="2" d="M167.602,-719.876C153.093,-710.808 135.084,-699.552 119.415,-689.759"/>
<polygon fill="grey" stroke="grey" stroke-width="2" points="120.839,-686.522 110.504,-684.19 117.129,-692.458 120.839,-686.522"/>
</g>
<!-- 15&#45;&gt;7 -->
<g id="edge16" class="edge"><title>15&#45;&gt;7</title>
<path fill="none" stroke="grey" stroke-width="2" d="M210.82,-719.697C218.57,-711.22 228.039,-700.864 236.524,-691.583"/>
<polygon fill="grey" stroke="grey" stroke-width="2" points="239.197,-693.846 243.362,-684.104 234.031,-689.123 239.197,-693.846"/>
</g>
<!-- 16 -->
<g id="node17" class="node"><title>16</title>
<path fill="none" stroke="#d89556" stroke-width="2" d="M661,-756C661,-756 565,-756 565,-756 559,-756 553,-750 553,-744 553,-744 553,-732 553,-732 553,-726 559,-720 565,-720 565,-720 661,-720 661,-720 667,-720 673,-726 673,-732 673,-732 673,-744 673,-744 673,-750 667,-756 661,-756"/>
<text text-anchor="middle" x="613" y="-735.5" font-family="sans" font-size="10.00">remove_polya_cutadapt</text>
</g>
<!-- 16&#45;&gt;7 -->
<g id="edge17" class="edge"><title>16&#45;&gt;7</title>
<path fill="none" stroke="grey" stroke-width="2" d="M552.723,-722.118C549.439,-721.383 546.181,-720.672 543,-720 457.739,-701.99 433.404,-701.008 344.115,-684.184"/>
<polygon fill="grey" stroke="grey" stroke-width="2" points="344.567,-680.707 334.09,-682.28 343.261,-687.585 344.567,-680.707"/>
</g>
<!-- 19 -->
<g id="node20" class="node"><title>19</title>
<path fill="none" stroke="#78d856" stroke-width="2" d="M596.5,-684C596.5,-684 509.5,-684 509.5,-684 503.5,-684 497.5,-678 497.5,-672 497.5,-672 497.5,-660 497.5,-660 497.5,-654 503.5,-648 509.5,-648 509.5,-648 596.5,-648 596.5,-648 602.5,-648 608.5,-654 608.5,-660 608.5,-660 608.5,-672 608.5,-672 608.5,-678 602.5,-684 596.5,-684"/>
<text text-anchor="middle" x="553" y="-663.5" font-family="sans" font-size="10.00">quantification_salmon</text>
</g>
<!-- 16&#45;&gt;19 -->
<g id="edge36" class="edge"><title>16&#45;&gt;19</title>
<path fill="none" stroke="grey" stroke-width="2" d="M598.169,-719.697C590.975,-711.305 582.203,-701.07 574.31,-691.861"/>
<polygon fill="grey" stroke="grey" stroke-width="2" points="576.826,-689.419 567.661,-684.104 571.511,-693.975 576.826,-689.419"/>
</g>
<!-- 22 -->
<g id="node23" class="node"><title>22</title>
<path fill="none" stroke="#56d8a9" stroke-width="2" d="M1002.5,-684C1002.5,-684 929.5,-684 929.5,-684 923.5,-684 917.5,-678 917.5,-672 917.5,-672 917.5,-660 917.5,-660 917.5,-654 923.5,-648 929.5,-648 929.5,-648 1002.5,-648 1002.5,-648 1008.5,-648 1014.5,-654 1014.5,-660 1014.5,-660 1014.5,-672 1014.5,-672 1014.5,-678 1008.5,-684 1002.5,-684"/>
<text text-anchor="middle" x="966" y="-663.5" font-family="sans" font-size="10.00">map_genome_star</text>
</g>
<!-- 16&#45;&gt;22 -->
<g id="edge42" class="edge"><title>16&#45;&gt;22</title>
<path fill="none" stroke="grey" stroke-width="2" d="M673.279,-728.113C731.011,-719.162 820.701,-704.115 907.607,-683.955"/>
<polygon fill="grey" stroke="grey" stroke-width="2" points="908.43,-687.357 917.367,-681.666 906.832,-680.542 908.43,-687.357"/>
</g>
<!-- 17 -->
<g id="node18" class="node"><title>17</title>
<path fill="none" stroke="#56c9d8" stroke-width="2" d="M577,-468C577,-468 501,-468 501,-468 495,-468 489,-462 489,-456 489,-456 489,-444 489,-444 489,-438 495,-432 501,-432 501,-432 577,-432 577,-432 583,-432 589,-438 589,-444 589,-444 589,-456 589,-456 589,-462 583,-468 577,-468"/>
<text text-anchor="middle" x="539" y="-447.5" font-family="sans" font-size="10.00">merge_TIN_scores</text>
</g>
<!-- 17&#45;&gt;8 -->
<g id="edge18" class="edge"><title>17&#45;&gt;8</title>
<path fill="none" stroke="grey" stroke-width="2" d="M523.921,-431.697C516.608,-423.305 507.69,-413.07 499.665,-403.861"/>
<polygon fill="grey" stroke="grey" stroke-width="2" points="502.114,-401.344 492.905,-396.104 496.836,-405.943 502.114,-401.344"/>
</g>
<!-- 18&#45;&gt;9 -->
<g id="edge20" class="edge"><title>18&#45;&gt;9</title>
<path fill="none" stroke="grey" stroke-width="2" d="M388.357,-647.876C373.582,-638.724 355.209,-627.342 339.297,-617.485"/>
<polygon fill="grey" stroke="grey" stroke-width="2" points="341.093,-614.481 330.749,-612.19 337.407,-620.431 341.093,-614.481"/>
</g>
<!-- 18&#45;&gt;10 -->
<g id="edge22" class="edge"><title>18&#45;&gt;10</title>
<path fill="none" stroke="grey" stroke-width="2" d="M428.607,-647.697C434.597,-639.474 441.876,-629.483 448.479,-620.421"/>
<polygon fill="grey" stroke="grey" stroke-width="2" points="451.478,-622.248 454.538,-612.104 445.821,-618.126 451.478,-622.248"/>
</g>
<!-- 19&#45;&gt;9 -->
<g id="edge19" class="edge"><title>19&#45;&gt;9</title>
<path fill="none" stroke="grey" stroke-width="2" d="M497.206,-649.378C460.723,-639.163 412.756,-625.732 373.621,-614.774"/>
<polygon fill="grey" stroke="grey" stroke-width="2" points="374.447,-611.371 363.874,-612.045 372.56,-618.111 374.447,-611.371"/>
</g>
<!-- 19&#45;&gt;10 -->
<g id="edge21" class="edge"><title>19&#45;&gt;10</title>
<path fill="none" stroke="grey" stroke-width="2" d="M531.742,-647.697C520.911,-638.881 507.582,-628.032 495.84,-618.474"/>
<polygon fill="grey" stroke="grey" stroke-width="2" points="497.979,-615.703 488.014,-612.104 493.56,-621.132 497.979,-615.703"/>
</g>
<!-- 20&#45;&gt;11 -->
<g id="edge24" class="edge"><title>20&#45;&gt;11</title>
<path fill="none" stroke="grey" stroke-width="2" d="M899.722,-649.313C918.045,-641.265 936.359,-629.365 947,-612 955.359,-598.357 955.132,-589.779 947,-576 934.386,-554.628 909.727,-541.279 888.56,-533.324"/>
<polygon fill="grey" stroke="grey" stroke-width="2" points="889.422,-529.918 878.828,-529.94 887.123,-536.53 889.422,-529.918"/>
</g>
<!-- 21 -->
<g id="node22" class="node"><title>21</title>
<path fill="none" stroke="#56b9d8" stroke-width="2" d="M926,-612C926,-612 776,-612 776,-612 770,-612 764,-606 764,-600 764,-600 764,-588 764,-588 764,-582 770,-576 776,-576 776,-576 926,-576 926,-576 932,-576 938,-582 938,-588 938,-588 938,-600 938,-600 938,-606 932,-612 926,-612"/>
<text text-anchor="middle" x="851" y="-591.5" font-family="sans" font-size="10.00">index_genomic_alignment_samtools</text>
</g>
<!-- 20&#45;&gt;21 -->
<g id="edge40" class="edge"><title>20&#45;&gt;21</title>
<path fill="none" stroke="grey" stroke-width="2" d="M844.978,-647.697C845.859,-639.983 846.919,-630.712 847.901,-622.112"/>
<polygon fill="grey" stroke="grey" stroke-width="2" points="851.387,-622.437 849.045,-612.104 844.432,-621.642 851.387,-622.437"/>
</g>
<!-- 28 -->
<g id="node29" class="node"><title>28</title>
<path fill="none" stroke="#d8b456" stroke-width="2" d="M780,-540C780,-540 692,-540 692,-540 686,-540 680,-534 680,-528 680,-528 680,-516 680,-516 680,-510 686,-504 692,-504 692,-504 780,-504 780,-504 786,-504 792,-510 792,-516 792,-516 792,-528 792,-528 792,-534 786,-540 780,-540"/>
<text text-anchor="middle" x="736" y="-519.5" font-family="sans" font-size="10.00">calculate_TIN_scores</text>
</g>
<!-- 20&#45;&gt;28 -->
<g id="edge46" class="edge"><title>20&#45;&gt;28</title>
<path fill="none" stroke="grey" stroke-width="2" d="M799.53,-647.827C783.272,-639.345 766.08,-627.537 755,-612 742.133,-593.959 737.662,-568.972 736.249,-550.065"/>
<polygon fill="grey" stroke="grey" stroke-width="2" points="739.741,-549.812 735.737,-540.002 732.75,-550.167 739.741,-549.812"/>
</g>
<!-- 21&#45;&gt;11 -->
<g id="edge23" class="edge"><title>21&#45;&gt;11</title>
<path fill="none" stroke="grey" stroke-width="2" d="M851,-575.697C851,-567.983 851,-558.712 851,-550.112"/>
<polygon fill="grey" stroke="grey" stroke-width="2" points="854.5,-550.104 851,-540.104 847.5,-550.104 854.5,-550.104"/>
</g>
<!-- 21&#45;&gt;28 -->
<g id="edge45" class="edge"><title>21&#45;&gt;28</title>
<path fill="none" stroke="grey" stroke-width="2" d="M822.868,-575.876C807.832,-566.724 789.133,-555.342 772.94,-545.485"/>
<polygon fill="grey" stroke="grey" stroke-width="2" points="774.602,-542.4 764.24,-540.19 770.962,-548.379 774.602,-542.4"/>
</g>
<!-- 22&#45;&gt;11 -->
<g id="edge25" class="edge"><title>22&#45;&gt;11</title>
<path fill="none" stroke="grey" stroke-width="2" d="M970.876,-647.724C975.205,-628.573 978.916,-597.548 965,-576 948.17,-549.94 914.888,-536.48 888.609,-529.662"/>
<polygon fill="grey" stroke="grey" stroke-width="2" points="889.107,-526.183 878.57,-527.284 887.494,-532.994 889.107,-526.183"/>
</g>
<!-- 22&#45;&gt;21 -->
<g id="edge39" class="edge"><title>22&#45;&gt;21</title>
<path fill="none" stroke="grey" stroke-width="2" d="M937.868,-647.876C922.832,-638.724 904.133,-627.342 887.94,-617.485"/>
<polygon fill="grey" stroke="grey" stroke-width="2" points="889.602,-614.4 879.24,-612.19 885.962,-620.379 889.602,-614.4"/>
</g>
<!-- 22&#45;&gt;28 -->
<g id="edge48" class="edge"><title>22&#45;&gt;28</title>
<path fill="none" stroke="grey" stroke-width="2" d="M967.332,-647.807C967.882,-627.847 965.54,-595.215 947,-576 941.799,-570.609 861.991,-551.541 802.055,-537.821"/>
<polygon fill="grey" stroke="grey" stroke-width="2" points="802.775,-534.395 792.247,-535.582 801.217,-541.22 802.775,-534.395"/>
</g>
<!-- 23&#45;&gt;12 -->
<g id="edge27" class="edge"><title>23&#45;&gt;12</title>
<path fill="none" stroke="grey" stroke-width="2" d="M846.292,-431.697C844.639,-423.983 842.653,-414.712 840.81,-406.112"/>
<polygon fill="grey" stroke="grey" stroke-width="2" points="844.183,-405.149 838.665,-396.104 837.338,-406.616 844.183,-405.149"/>
</g>
<!-- 24 -->
<g id="node25" class="node"><title>24</title>
<path fill="none" stroke="#b6d856" stroke-width="2" d="M1054,-540C1054,-540 974,-540 974,-540 968,-540 962,-534 962,-528 962,-528 962,-516 962,-516 962,-510 968,-504 974,-504 974,-504 1054,-504 1054,-504 1060,-504 1066,-510 1066,-516 1066,-516 1066,-528 1066,-528 1066,-534 1060,-540 1054,-540"/>
<text text-anchor="middle" x="1014" y="-519.5" font-family="sans" font-size="10.00">generate_alfa_index</text>
</g>
<!-- 24&#45;&gt;12 -->
<g id="edge26" class="edge"><title>24&#45;&gt;12</title>
<path fill="none" stroke="grey" stroke-width="2" d="M998.839,-503.668C981.776,-484.746 952.678,-454.186 924,-432 907.558,-419.28 887.819,-407.241 871.112,-397.862"/>
<polygon fill="grey" stroke="grey" stroke-width="2" points="872.629,-394.702 862.182,-392.937 869.249,-400.831 872.629,-394.702"/>
</g>
<!-- 25 -->
<g id="node26" class="node"><title>25</title>
<path fill="none" stroke="#d88556" stroke-width="2" d="M407,-828C407,-828 281,-828 281,-828 275,-828 269,-822 269,-816 269,-816 269,-804 269,-804 269,-798 275,-792 281,-792 281,-792 407,-792 407,-792 413,-792 419,-798 419,-804 419,-804 419,-816 419,-816 419,-822 413,-828 407,-828"/>
<text text-anchor="middle" x="344" y="-807.5" font-family="sans" font-size="10.00">pe_remove_adapters_cutadapt</text>
</g>
<!-- 25&#45;&gt;14 -->
<g id="edge29" class="edge"><title>25&#45;&gt;14</title>
<path fill="none" stroke="grey" stroke-width="2" d="M342.764,-791.697C342.213,-783.983 341.551,-774.712 340.937,-766.112"/>
<polygon fill="grey" stroke="grey" stroke-width="2" points="344.425,-765.83 340.222,-756.104 337.443,-766.328 344.425,-765.83"/>
</g>
<!-- 26 -->
<g id="node27" class="node"><title>26</title>
<path fill="none" stroke="#56d89a" stroke-width="2" d="M238.5,-828C238.5,-828 151.5,-828 151.5,-828 145.5,-828 139.5,-822 139.5,-816 139.5,-816 139.5,-804 139.5,-804 139.5,-798 145.5,-792 151.5,-792 151.5,-792 238.5,-792 238.5,-792 244.5,-792 250.5,-798 250.5,-804 250.5,-804 250.5,-816 250.5,-816 250.5,-822 244.5,-828 238.5,-828"/>
<text text-anchor="middle" x="195" y="-807.5" font-family="sans" font-size="10.00">extract_transcriptome</text>
</g>
<!-- 26&#45;&gt;15 -->
<g id="edge30" class="edge"><title>26&#45;&gt;15</title>
<path fill="none" stroke="grey" stroke-width="2" d="M195,-791.697C195,-783.983 195,-774.712 195,-766.112"/>
<polygon fill="grey" stroke="grey" stroke-width="2" points="198.5,-766.104 195,-756.104 191.5,-766.104 198.5,-766.104"/>
</g>
<!-- 29 -->
<g id="node30" class="node"><title>29</title>
<path fill="none" stroke="#88d856" stroke-width="2" d="M522.5,-756C522.5,-756 437.5,-756 437.5,-756 431.5,-756 425.5,-750 425.5,-744 425.5,-744 425.5,-732 425.5,-732 425.5,-726 431.5,-720 437.5,-720 437.5,-720 522.5,-720 522.5,-720 528.5,-720 534.5,-726 534.5,-732 534.5,-732 534.5,-744 534.5,-744 534.5,-750 528.5,-756 522.5,-756"/>
<text text-anchor="middle" x="480" y="-735.5" font-family="sans" font-size="10.00">create_index_salmon</text>
</g>
<!-- 26&#45;&gt;29 -->
<g id="edge49" class="edge"><title>26&#45;&gt;29</title>
<path fill="none" stroke="grey" stroke-width="2" d="M250.642,-794.334C253.806,-793.536 256.942,-792.753 260,-792 326.125,-775.727 345.31,-773.324 415.453,-756.091"/>
<polygon fill="grey" stroke="grey" stroke-width="2" points="416.35,-759.475 425.218,-753.678 414.67,-752.68 416.35,-759.475"/>
</g>
<!-- 27 -->
<g id="node28" class="node"><title>27</title>
<path fill="none" stroke="#567bd8" stroke-width="2" d="M668,-828C668,-828 558,-828 558,-828 552,-828 546,-822 546,-816 546,-816 546,-804 546,-804 546,-798 552,-792 558,-792 558,-792 668,-792 668,-792 674,-792 680,-798 680,-804 680,-804 680,-816 680,-816 680,-822 674,-828 668,-828"/>
<text text-anchor="middle" x="613" y="-807.5" font-family="sans" font-size="10.00">remove_adapters_cutadapt</text>
</g>
<!-- 27&#45;&gt;16 -->
<g id="edge31" class="edge"><title>27&#45;&gt;16</title>
<path fill="none" stroke="grey" stroke-width="2" d="M613,-791.697C613,-783.983 613,-774.712 613,-766.112"/>
<polygon fill="grey" stroke="grey" stroke-width="2" points="616.5,-766.104 613,-756.104 609.5,-766.104 616.5,-766.104"/>
</g>
<!-- 28&#45;&gt;17 -->
<g id="edge32" class="edge"><title>28&#45;&gt;17</title>
<path fill="none" stroke="grey" stroke-width="2" d="M688.06,-503.966C660.535,-494.185 625.783,-481.836 596.759,-471.524"/>
<polygon fill="grey" stroke="grey" stroke-width="2" points="597.749,-468.161 587.155,-468.111 595.406,-474.757 597.749,-468.161"/>
</g>
<!-- 29&#45;&gt;18 -->
<g id="edge33" class="edge"><title>29&#45;&gt;18</title>
<path fill="none" stroke="grey" stroke-width="2" d="M464.18,-719.697C456.43,-711.22 446.961,-700.864 438.476,-691.583"/>
<polygon fill="grey" stroke="grey" stroke-width="2" points="440.969,-689.123 431.638,-684.104 435.803,-693.846 440.969,-689.123"/>
</g>
<!-- 29&#45;&gt;19 -->
<g id="edge35" class="edge"><title>29&#45;&gt;19</title>
<path fill="none" stroke="grey" stroke-width="2" d="M498.045,-719.697C507.062,-711.05 518.118,-700.449 527.943,-691.027"/>
<polygon fill="grey" stroke="grey" stroke-width="2" points="530.367,-693.552 535.163,-684.104 525.522,-688.499 530.367,-693.552"/>
</g>
<!-- 30 -->
<g id="node31" class="node"><title>30</title>
<path fill="none" stroke="#56d8b9" stroke-width="2" d="M1001,-756C1001,-756 931,-756 931,-756 925,-756 919,-750 919,-744 919,-744 919,-732 919,-732 919,-726 925,-720 931,-720 931,-720 1001,-720 1001,-720 1007,-720 1013,-726 1013,-732 1013,-732 1013,-744 1013,-744 1013,-750 1007,-756 1001,-756"/>
<text text-anchor="middle" x="966" y="-735.5" font-family="sans" font-size="10.00">create_index_star</text>
</g>
<!-- 30&#45;&gt;20 -->
<g id="edge37" class="edge"><title>30&#45;&gt;20</title>
<path fill="none" stroke="grey" stroke-width="2" d="M935.911,-719.876C919.68,-710.639 899.458,-699.131 882.029,-689.212"/>
<polygon fill="grey" stroke="grey" stroke-width="2" points="883.627,-686.094 873.205,-684.19 880.165,-692.178 883.627,-686.094"/>
</g>
<!-- 30&#45;&gt;22 -->
<g id="edge41" class="edge"><title>30&#45;&gt;22</title>
<path fill="none" stroke="grey" stroke-width="2" d="M966,-719.697C966,-711.983 966,-702.712 966,-694.112"/>
<polygon fill="grey" stroke="grey" stroke-width="2" points="969.5,-694.104 966,-684.104 962.5,-694.104 969.5,-694.104"/>
</g>
<!-- 30&#45;&gt;24 -->
<g id="edge44" class="edge"><title>30&#45;&gt;24</title>
<path fill="none" stroke="grey" stroke-width="2" d="M993.34,-719.775C1005.11,-710.718 1017.62,-698.478 1024,-684 1043.27,-640.297 1032.42,-583.371 1023.04,-550.235"/>
<polygon fill="grey" stroke="grey" stroke-width="2" points="1026.3,-548.935 1020.08,-540.359 1019.6,-550.943 1026.3,-548.935"/>
</g>
<!-- 31 -->
<g id="node32" class="node"><title>31</title>
<path fill="none" stroke="#59d856" stroke-width="2" d="M695.5,-612C695.5,-612 574.5,-612 574.5,-612 568.5,-612 562.5,-606 562.5,-600 562.5,-600 562.5,-588 562.5,-588 562.5,-582 568.5,-576 574.5,-576 574.5,-576 695.5,-576 695.5,-576 701.5,-576 707.5,-582 707.5,-588 707.5,-588 707.5,-600 707.5,-600 707.5,-606 701.5,-612 695.5,-612"/>
<text text-anchor="middle" x="635" y="-591.5" font-family="sans" font-size="10.00">extract_transcripts_as_bed12</text>
</g>
<!-- 31&#45;&gt;28 -->
<g id="edge47" class="edge"><title>31&#45;&gt;28</title>
<path fill="none" stroke="grey" stroke-width="2" d="M659.707,-575.876C672.669,-566.893 688.728,-555.763 702.765,-546.034"/>
<polygon fill="grey" stroke="grey" stroke-width="2" points="704.972,-548.763 711.198,-540.19 700.985,-543.009 704.972,-548.763"/>
</g>
</g>
</svg>
