<?xml version="1.0" encoding="UTF-8" standalone="no"?>
<!DOCTYPE svg PUBLIC "-//W3C//DTD SVG 1.1//EN"
 "http://www.w3.org/Graphics/SVG/1.1/DTD/svg11.dtd">
<!-- Generated by graphviz version 2.38.0 (20140413.2041)
 -->
<!-- Title: snakemake_dag Pages: 1 -->
<svg width="1071pt" height="404pt"
 viewBox="0.00 0.00 1070.98 404.00" xmlns="http://www.w3.org/2000/svg" xmlns:xlink="http://www.w3.org/1999/xlink">
<g id="graph0" class="graph" transform="scale(1 1) rotate(0) translate(4 400)">
<title>snakemake_dag</title>
<polygon fill="white" stroke="none" points="-4,4 -4,-400 1066.98,-400 1066.98,4 -4,4"/>
<!-- 0 -->
<g id="node1" class="node"><title>0</title>
<path fill="none" stroke="#56c9d8" stroke-width="2" d="M304,-36C304,-36 274,-36 274,-36 268,-36 262,-30 262,-24 262,-24 262,-12 262,-12 262,-6 268,-0 274,-0 274,-0 304,-0 304,-0 310,-0 316,-6 316,-12 316,-12 316,-24 316,-24 316,-30 310,-36 304,-36"/>
<text text-anchor="middle" x="289" y="-15.5" font-family="sans" font-size="10.00">finish</text>
</g>
<!-- 1 -->
<g id="node2" class="node"><title>1</title>
<path fill="none" stroke="#56d892" stroke-width="2" d="M85.5,-108C85.5,-108 50.5,-108 50.5,-108 44.5,-108 38.5,-102 38.5,-96 38.5,-96 38.5,-84 38.5,-84 38.5,-78 44.5,-72 50.5,-72 50.5,-72 85.5,-72 85.5,-72 91.5,-72 97.5,-78 97.5,-84 97.5,-84 97.5,-96 97.5,-96 97.5,-102 91.5,-108 85.5,-108"/>
<text text-anchor="middle" x="68" y="-87.5" font-family="sans" font-size="10.00">pe_fastqc</text>
</g>
<!-- 1&#45;&gt;0 -->
<g id="edge8" class="edge"><title>1&#45;&gt;0</title>
<path fill="none" stroke="grey" stroke-width="2" d="M97.6525,-75.6092C100.786,-74.3338 103.944,-73.1059 107,-72 156.36,-54.1377 214.865,-37.9591 251.957,-28.3004"/>
<polygon fill="grey" stroke="grey" stroke-width="2" points="253.018,-31.6413 261.826,-25.753 251.268,-24.8635 253.018,-31.6413"/>
</g>
<!-- 2 -->
<g id="node3" class="node"><title>2</title>
<path fill="none" stroke="#d8b456" stroke-width="2" d="M158,-108C158,-108 128,-108 128,-108 122,-108 116,-102 116,-96 116,-96 116,-84 116,-84 116,-78 122,-72 128,-72 128,-72 158,-72 158,-72 164,-72 170,-78 170,-84 170,-84 170,-96 170,-96 170,-102 164,-108 158,-108"/>
<text text-anchor="middle" x="143" y="-87.5" font-family="sans" font-size="10.00">fastqc</text>
</g>
<!-- 2&#45;&gt;0 -->
<g id="edge7" class="edge"><title>2&#45;&gt;0</title>
<path fill="none" stroke="grey" stroke-width="2" d="M170.119,-75.9976C193.328,-64.8701 226.942,-48.7539 252.509,-36.4956"/>
<polygon fill="grey" stroke="grey" stroke-width="2" points="254.026,-39.6497 261.53,-32.1703 251,-33.3377 254.026,-39.6497"/>
</g>
<!-- 3 -->
<g id="node4" class="node"><title>3</title>
<path fill="none" stroke="#56d8a2" stroke-width="2" d="M322,-252C322,-252 180,-252 180,-252 174,-252 168,-246 168,-240 168,-240 168,-228 168,-228 168,-222 174,-216 180,-216 180,-216 322,-216 322,-216 328,-216 334,-222 334,-228 334,-228 334,-240 334,-240 334,-246 328,-252 322,-252"/>
<text text-anchor="middle" x="251" y="-231.5" font-family="sans" font-size="10.00">pe_genome_quantification_kallisto</text>
</g>
<!-- 3&#45;&gt;0 -->
<g id="edge1" class="edge"><title>3&#45;&gt;0</title>
<path fill="none" stroke="grey" stroke-width="2" d="M250.655,-215.826C250.553,-197.82 251.126,-168.755 255,-144 260.41,-109.434 271.8,-70.7187 279.905,-45.6614"/>
<polygon fill="grey" stroke="grey" stroke-width="2" points="283.24,-46.7217 283.043,-36.1287 276.591,-44.5326 283.24,-46.7217"/>
</g>
<!-- 4 -->
<g id="node5" class="node"><title>4</title>
<path fill="none" stroke="#8fd856" stroke-width="2" d="M138,-252C138,-252 12,-252 12,-252 6,-252 1.42109e-14,-246 1.42109e-14,-240 1.42109e-14,-240 1.42109e-14,-228 1.42109e-14,-228 1.42109e-14,-222 6,-216 12,-216 12,-216 138,-216 138,-216 144,-216 150,-222 150,-228 150,-228 150,-240 150,-240 150,-246 144,-252 138,-252"/>
<text text-anchor="middle" x="75" y="-231.5" font-family="sans" font-size="10.00">genome_quantification_kallisto</text>
</g>
<!-- 4&#45;&gt;0 -->
<g id="edge6" class="edge"><title>4&#45;&gt;0</title>
<path fill="none" stroke="grey" stroke-width="2" d="M92.1508,-215.849C130.029,-177.971 220.923,-87.0767 264.668,-43.3318"/>
<polygon fill="grey" stroke="grey" stroke-width="2" points="267.171,-45.7784 271.768,-36.2325 262.222,-40.8287 267.171,-45.7784"/>
</g>
<!-- 5 -->
<g id="node6" class="node"><title>5</title>
<path fill="none" stroke="#a7d856" stroke-width="2" d="M876,-108C876,-108 788,-108 788,-108 782,-108 776,-102 776,-96 776,-96 776,-84 776,-84 776,-78 782,-72 788,-72 788,-72 876,-72 876,-72 882,-72 888,-78 888,-84 888,-84 888,-96 888,-96 888,-102 882,-108 876,-108"/>
<text text-anchor="middle" x="832" y="-87.5" font-family="sans" font-size="10.00">calculate_TIN_scores</text>
</g>
<!-- 5&#45;&gt;0 -->
<g id="edge5" class="edge"><title>5&#45;&gt;0</title>
<path fill="none" stroke="grey" stroke-width="2" d="M775.935,-81.7724C664.916,-67.4607 419.77,-35.8579 326.247,-23.8017"/>
<polygon fill="grey" stroke="grey" stroke-width="2" points="326.492,-20.3043 316.126,-22.4969 325.597,-27.2469 326.492,-20.3043"/>
</g>
<!-- 6 -->
<g id="node7" class="node"><title>6</title>
<path fill="none" stroke="#56d8b9" stroke-width="2" d="M562,-180C562,-180 450,-180 450,-180 444,-180 438,-174 438,-168 438,-168 438,-156 438,-156 438,-150 444,-144 450,-144 450,-144 562,-144 562,-144 568,-144 574,-150 574,-156 574,-156 574,-168 574,-168 574,-174 568,-180 562,-180"/>
<text text-anchor="middle" x="506" y="-159.5" font-family="sans" font-size="10.00">salmon_quantmerge_genes</text>
</g>
<!-- 6&#45;&gt;0 -->
<g id="edge2" class="edge"><title>6&#45;&gt;0</title>
<path fill="none" stroke="grey" stroke-width="2" d="M479.825,-143.871C440.805,-118.338 367.323,-70.253 323.813,-41.7808"/>
<polygon fill="grey" stroke="grey" stroke-width="2" points="325.552,-38.7362 315.268,-36.1893 321.719,-44.5936 325.552,-38.7362"/>
</g>
<!-- 7 -->
<g id="node8" class="node"><title>7</title>
<path fill="none" stroke="#56d87b" stroke-width="2" d="M407.5,-180C407.5,-180 276.5,-180 276.5,-180 270.5,-180 264.5,-174 264.5,-168 264.5,-168 264.5,-156 264.5,-156 264.5,-150 270.5,-144 276.5,-144 276.5,-144 407.5,-144 407.5,-144 413.5,-144 419.5,-150 419.5,-156 419.5,-156 419.5,-168 419.5,-168 419.5,-174 413.5,-180 407.5,-180"/>
<text text-anchor="middle" x="342" y="-159.5" font-family="sans" font-size="10.00">salmon_quantmerge_transcripts</text>
</g>
<!-- 7&#45;&gt;0 -->
<g id="edge4" class="edge"><title>7&#45;&gt;0</title>
<path fill="none" stroke="grey" stroke-width="2" d="M335.607,-143.871C326.495,-119.457 309.687,-74.4258 298.941,-45.6351"/>
<polygon fill="grey" stroke="grey" stroke-width="2" points="302.192,-44.3341 295.416,-36.1893 295.633,-46.7819 302.192,-44.3341"/>
</g>
<!-- 8 -->
<g id="node9" class="node"><title>8</title>
<path fill="none" stroke="#d85656" stroke-width="2" d="M675.5,-108C675.5,-108 644.5,-108 644.5,-108 638.5,-108 632.5,-102 632.5,-96 632.5,-96 632.5,-84 632.5,-84 632.5,-78 638.5,-72 644.5,-72 644.5,-72 675.5,-72 675.5,-72 681.5,-72 687.5,-78 687.5,-84 687.5,-84 687.5,-96 687.5,-96 687.5,-102 681.5,-108 675.5,-108"/>
<text text-anchor="middle" x="660" y="-87.5" font-family="sans" font-size="10.00">star_rpm</text>
</g>
<!-- 8&#45;&gt;0 -->
<g id="edge3" class="edge"><title>8&#45;&gt;0</title>
<path fill="none" stroke="grey" stroke-width="2" d="M632.418,-83.7958C566.659,-71.3886 400.61,-40.0585 326.141,-26.0077"/>
<polygon fill="grey" stroke="grey" stroke-width="2" points="326.736,-22.5583 316.261,-24.1435 325.438,-29.437 326.736,-22.5583"/>
</g>
<!-- 9 -->
<g id="node10" class="node"><title>9</title>
<path fill="none" stroke="#56b1d8" stroke-width="2" d="M649,-324C649,-324 537,-324 537,-324 531,-324 525,-318 525,-312 525,-312 525,-300 525,-300 525,-294 531,-288 537,-288 537,-288 649,-288 649,-288 655,-288 661,-294 661,-300 661,-300 661,-312 661,-312 661,-318 655,-324 649,-324"/>
<text text-anchor="middle" x="593" y="-303.5" font-family="sans" font-size="10.00">pe_remove_polya_cutadapt</text>
</g>
<!-- 9&#45;&gt;3 -->
<g id="edge9" class="edge"><title>9&#45;&gt;3</title>
<path fill="none" stroke="grey" stroke-width="2" d="M524.947,-290.684C520.566,-289.772 516.222,-288.872 512,-288 456.398,-276.52 394.088,-263.859 344.297,-253.792"/>
<polygon fill="grey" stroke="grey" stroke-width="2" points="344.686,-250.3 334.191,-251.749 343.299,-257.161 344.686,-250.3"/>
</g>
<!-- 12 -->
<g id="node13" class="node"><title>12</title>
<path fill="none" stroke="#56d863" stroke-width="2" d="M870.5,-252C870.5,-252 781.5,-252 781.5,-252 775.5,-252 769.5,-246 769.5,-240 769.5,-240 769.5,-228 769.5,-228 769.5,-222 775.5,-216 781.5,-216 781.5,-216 870.5,-216 870.5,-216 876.5,-216 882.5,-222 882.5,-228 882.5,-228 882.5,-240 882.5,-240 882.5,-246 876.5,-252 870.5,-252"/>
<text text-anchor="middle" x="826" y="-231.5" font-family="sans" font-size="10.00">pe_map_genome_star</text>
</g>
<!-- 9&#45;&gt;12 -->
<g id="edge27" class="edge"><title>9&#45;&gt;12</title>
<path fill="none" stroke="grey" stroke-width="2" d="M649.7,-287.966C682.945,-277.978 725.103,-265.312 759.857,-254.871"/>
<polygon fill="grey" stroke="grey" stroke-width="2" points="760.88,-258.219 769.45,-251.989 758.865,-251.515 760.88,-258.219"/>
</g>
<!-- 16 -->
<g id="node17" class="node"><title>16</title>
<path fill="none" stroke="#566bd8" stroke-width="2" d="M596.5,-252C596.5,-252 493.5,-252 493.5,-252 487.5,-252 481.5,-246 481.5,-240 481.5,-240 481.5,-228 481.5,-228 481.5,-222 487.5,-216 493.5,-216 493.5,-216 596.5,-216 596.5,-216 602.5,-216 608.5,-222 608.5,-228 608.5,-228 608.5,-240 608.5,-240 608.5,-246 602.5,-252 596.5,-252"/>
<text text-anchor="middle" x="545" y="-231.5" font-family="sans" font-size="10.00">pe_quantification_salmon</text>
</g>
<!-- 9&#45;&gt;16 -->
<g id="edge33" class="edge"><title>9&#45;&gt;16</title>
<path fill="none" stroke="grey" stroke-width="2" d="M581.135,-287.697C575.497,-279.474 568.646,-269.483 562.431,-260.421"/>
<polygon fill="grey" stroke="grey" stroke-width="2" points="565.271,-258.372 556.729,-252.104 559.497,-262.331 565.271,-258.372"/>
</g>
<!-- 10 -->
<g id="node11" class="node"><title>10</title>
<path fill="none" stroke="#d88556" stroke-width="2" d="M226,-324C226,-324 142,-324 142,-324 136,-324 130,-318 130,-312 130,-312 130,-300 130,-300 130,-294 136,-288 142,-288 142,-288 226,-288 226,-288 232,-288 238,-294 238,-300 238,-300 238,-312 238,-312 238,-318 232,-324 226,-324"/>
<text text-anchor="middle" x="184" y="-303.5" font-family="sans" font-size="10.00">create_index_kallisto</text>
</g>
<!-- 10&#45;&gt;3 -->
<g id="edge10" class="edge"><title>10&#45;&gt;3</title>
<path fill="none" stroke="grey" stroke-width="2" d="M200.562,-287.697C208.675,-279.22 218.588,-268.864 227.471,-259.583"/>
<polygon fill="grey" stroke="grey" stroke-width="2" points="230.243,-261.749 234.629,-252.104 225.186,-256.908 230.243,-261.749"/>
</g>
<!-- 10&#45;&gt;4 -->
<g id="edge11" class="edge"><title>10&#45;&gt;4</title>
<path fill="none" stroke="grey" stroke-width="2" d="M157.336,-287.876C143.216,-278.808 125.689,-267.552 110.439,-257.759"/>
<polygon fill="grey" stroke="grey" stroke-width="2" points="112.073,-254.648 101.767,-252.19 108.29,-260.538 112.073,-254.648"/>
</g>
<!-- 11 -->
<g id="node12" class="node"><title>11</title>
<path fill="none" stroke="#5682d8" stroke-width="2" d="M364,-324C364,-324 268,-324 268,-324 262,-324 256,-318 256,-312 256,-312 256,-300 256,-300 256,-294 262,-288 268,-288 268,-288 364,-288 364,-288 370,-288 376,-294 376,-300 376,-300 376,-312 376,-312 376,-318 370,-324 364,-324"/>
<text text-anchor="middle" x="316" y="-303.5" font-family="sans" font-size="10.00">remove_polya_cutadapt</text>
</g>
<!-- 11&#45;&gt;4 -->
<g id="edge12" class="edge"><title>11&#45;&gt;4</title>
<path fill="none" stroke="grey" stroke-width="2" d="M257.353,-287.966C223.094,-278.015 179.684,-265.406 143.814,-254.987"/>
<polygon fill="grey" stroke="grey" stroke-width="2" points="144.489,-251.539 133.91,-252.111 142.537,-258.261 144.489,-251.539"/>
</g>
<!-- 15 -->
<g id="node16" class="node"><title>15</title>
<path fill="none" stroke="#d86e56" stroke-width="2" d="M739.5,-252C739.5,-252 666.5,-252 666.5,-252 660.5,-252 654.5,-246 654.5,-240 654.5,-240 654.5,-228 654.5,-228 654.5,-222 660.5,-216 666.5,-216 666.5,-216 739.5,-216 739.5,-216 745.5,-216 751.5,-222 751.5,-228 751.5,-228 751.5,-240 751.5,-240 751.5,-246 745.5,-252 739.5,-252"/>
<text text-anchor="middle" x="703" y="-231.5" font-family="sans" font-size="10.00">map_genome_star</text>
</g>
<!-- 11&#45;&gt;15 -->
<g id="edge32" class="edge"><title>11&#45;&gt;15</title>
<path fill="none" stroke="grey" stroke-width="2" d="M376.141,-289.854C379.131,-289.204 382.097,-288.582 385,-288 487.311,-267.499 514.24,-270.121 617,-252 625.916,-250.428 635.331,-248.668 644.533,-246.894"/>
<polygon fill="grey" stroke="grey" stroke-width="2" points="645.255,-250.319 654.401,-244.97 643.916,-243.448 645.255,-250.319"/>
</g>
<!-- 17 -->
<g id="node18" class="node"><title>17</title>
<path fill="none" stroke="#56d8d0" stroke-width="2" d="M451.5,-252C451.5,-252 364.5,-252 364.5,-252 358.5,-252 352.5,-246 352.5,-240 352.5,-240 352.5,-228 352.5,-228 352.5,-222 358.5,-216 364.5,-216 364.5,-216 451.5,-216 451.5,-216 457.5,-216 463.5,-222 463.5,-228 463.5,-228 463.5,-240 463.5,-240 463.5,-246 457.5,-252 451.5,-252"/>
<text text-anchor="middle" x="408" y="-231.5" font-family="sans" font-size="10.00">quantification_salmon</text>
</g>
<!-- 11&#45;&gt;17 -->
<g id="edge36" class="edge"><title>11&#45;&gt;17</title>
<path fill="none" stroke="grey" stroke-width="2" d="M338.742,-287.697C350.44,-278.796 364.861,-267.823 377.51,-258.199"/>
<polygon fill="grey" stroke="grey" stroke-width="2" points="379.681,-260.945 385.52,-252.104 375.442,-255.374 379.681,-260.945"/>
</g>
<!-- 12&#45;&gt;5 -->
<g id="edge13" class="edge"><title>12&#45;&gt;5</title>
<path fill="none" stroke="grey" stroke-width="2" d="M882.701,-227.711C942.874,-220.787 1032.12,-206.314 1053,-180 1097.93,-123.369 978.505,-102.581 898.196,-95.0901"/>
<polygon fill="grey" stroke="grey" stroke-width="2" points="898.392,-91.5938 888.123,-94.2002 897.776,-98.5667 898.392,-91.5938"/>
</g>
<!-- 12&#45;&gt;8 -->
<g id="edge21" class="edge"><title>12&#45;&gt;8</title>
<path fill="none" stroke="grey" stroke-width="2" d="M828.376,-215.846C830.096,-196.225 829.723,-164.213 813,-144 784.703,-109.797 733.1,-97.6237 697.71,-93.3162"/>
<polygon fill="grey" stroke="grey" stroke-width="2" points="698.055,-89.8333 687.741,-92.257 697.316,-96.7942 698.055,-89.8333"/>
</g>
<!-- 13 -->
<g id="node14" class="node"><title>13</title>
<path fill="none" stroke="#569ad8" stroke-width="2" d="M792,-180C792,-180 642,-180 642,-180 636,-180 630,-174 630,-168 630,-168 630,-156 630,-156 630,-150 636,-144 642,-144 642,-144 792,-144 792,-144 798,-144 804,-150 804,-156 804,-156 804,-168 804,-168 804,-174 798,-180 792,-180"/>
<text text-anchor="middle" x="717" y="-159.5" font-family="sans" font-size="10.00">index_genomic_alignment_samtools</text>
</g>
<!-- 12&#45;&gt;13 -->
<g id="edge29" class="edge"><title>12&#45;&gt;13</title>
<path fill="none" stroke="grey" stroke-width="2" d="M799.336,-215.876C785.216,-206.808 767.689,-195.552 752.439,-185.759"/>
<polygon fill="grey" stroke="grey" stroke-width="2" points="754.073,-182.648 743.767,-180.19 750.29,-188.538 754.073,-182.648"/>
</g>
<!-- 13&#45;&gt;5 -->
<g id="edge15" class="edge"><title>13&#45;&gt;5</title>
<path fill="none" stroke="grey" stroke-width="2" d="M745.132,-143.876C760.168,-134.724 778.867,-123.342 795.06,-113.485"/>
<polygon fill="grey" stroke="grey" stroke-width="2" points="797.038,-116.379 803.76,-108.19 793.398,-110.4 797.038,-116.379"/>
</g>
<!-- 13&#45;&gt;8 -->
<g id="edge23" class="edge"><title>13&#45;&gt;8</title>
<path fill="none" stroke="grey" stroke-width="2" d="M702.91,-143.697C696.077,-135.305 687.743,-125.07 680.244,-115.861"/>
<polygon fill="grey" stroke="grey" stroke-width="2" points="682.956,-113.649 673.928,-108.104 677.528,-118.069 682.956,-113.649"/>
</g>
<!-- 14 -->
<g id="node15" class="node"><title>14</title>
<path fill="none" stroke="#d89c56" stroke-width="2" d="M1031.5,-180C1031.5,-180 910.5,-180 910.5,-180 904.5,-180 898.5,-174 898.5,-168 898.5,-168 898.5,-156 898.5,-156 898.5,-150 904.5,-144 910.5,-144 910.5,-144 1031.5,-144 1031.5,-144 1037.5,-144 1043.5,-150 1043.5,-156 1043.5,-156 1043.5,-168 1043.5,-168 1043.5,-174 1037.5,-180 1031.5,-180"/>
<text text-anchor="middle" x="971" y="-159.5" font-family="sans" font-size="10.00">extract_transcripts_as_bed12</text>
</g>
<!-- 14&#45;&gt;5 -->
<g id="edge16" class="edge"><title>14&#45;&gt;5</title>
<path fill="none" stroke="grey" stroke-width="2" d="M936.997,-143.876C918.402,-134.512 895.173,-122.814 875.294,-112.803"/>
<polygon fill="grey" stroke="grey" stroke-width="2" points="876.64,-109.562 866.134,-108.19 873.491,-115.814 876.64,-109.562"/>
</g>
<!-- 15&#45;&gt;5 -->
<g id="edge14" class="edge"><title>15&#45;&gt;5</title>
<path fill="none" stroke="grey" stroke-width="2" d="M748.156,-215.971C774.497,-205.165 804.224,-191.167 813,-180 826.692,-162.577 831.084,-137.531 832.257,-118.444"/>
<polygon fill="grey" stroke="grey" stroke-width="2" points="835.761,-118.387 832.619,-108.269 828.766,-118.138 835.761,-118.387"/>
</g>
<!-- 15&#45;&gt;8 -->
<g id="edge22" class="edge"><title>15&#45;&gt;8</title>
<path fill="none" stroke="grey" stroke-width="2" d="M660.382,-215.989C645.126,-207.58 629.591,-195.781 621,-180 609.599,-159.056 622.679,-134.107 636.68,-115.961"/>
<polygon fill="grey" stroke="grey" stroke-width="2" points="639.458,-118.093 643.094,-108.141 634.046,-113.654 639.458,-118.093"/>
</g>
<!-- 15&#45;&gt;13 -->
<g id="edge30" class="edge"><title>15&#45;&gt;13</title>
<path fill="none" stroke="grey" stroke-width="2" d="M706.461,-215.697C708.003,-207.983 709.858,-198.712 711.578,-190.112"/>
<polygon fill="grey" stroke="grey" stroke-width="2" points="715.05,-190.597 713.579,-180.104 708.186,-189.224 715.05,-190.597"/>
</g>
<!-- 16&#45;&gt;6 -->
<g id="edge17" class="edge"><title>16&#45;&gt;6</title>
<path fill="none" stroke="grey" stroke-width="2" d="M535.36,-215.697C530.873,-207.644 525.441,-197.894 520.476,-188.982"/>
<polygon fill="grey" stroke="grey" stroke-width="2" points="523.454,-187.137 515.53,-180.104 517.339,-190.544 523.454,-187.137"/>
</g>
<!-- 16&#45;&gt;7 -->
<g id="edge19" class="edge"><title>16&#45;&gt;7</title>
<path fill="none" stroke="grey" stroke-width="2" d="M495.6,-215.966C467.113,-206.142 431.114,-193.729 401.129,-183.389"/>
<polygon fill="grey" stroke="grey" stroke-width="2" points="402.216,-180.062 391.621,-180.111 399.934,-186.68 402.216,-180.062"/>
</g>
<!-- 17&#45;&gt;6 -->
<g id="edge18" class="edge"><title>17&#45;&gt;6</title>
<path fill="none" stroke="grey" stroke-width="2" d="M431.973,-215.876C444.55,-206.893 460.132,-195.763 473.752,-186.034"/>
<polygon fill="grey" stroke="grey" stroke-width="2" points="475.831,-188.85 481.934,-180.19 471.763,-183.154 475.831,-188.85"/>
</g>
<!-- 17&#45;&gt;7 -->
<g id="edge20" class="edge"><title>17&#45;&gt;7</title>
<path fill="none" stroke="grey" stroke-width="2" d="M391.685,-215.697C383.693,-207.22 373.928,-196.864 365.178,-187.583"/>
<polygon fill="grey" stroke="grey" stroke-width="2" points="367.534,-184.979 358.127,-180.104 362.441,-189.781 367.534,-184.979"/>
</g>
<!-- 18 -->
<g id="node19" class="node"><title>18</title>
<path fill="none" stroke="#d6d856" stroke-width="2" d="M658,-396C658,-396 532,-396 532,-396 526,-396 520,-390 520,-384 520,-384 520,-372 520,-372 520,-366 526,-360 532,-360 532,-360 658,-360 658,-360 664,-360 670,-366 670,-372 670,-372 670,-384 670,-384 670,-390 664,-396 658,-396"/>
<text text-anchor="middle" x="595" y="-375.5" font-family="sans" font-size="10.00">pe_remove_adapters_cutadapt</text>
</g>
<!-- 18&#45;&gt;9 -->
<g id="edge24" class="edge"><title>18&#45;&gt;9</title>
<path fill="none" stroke="grey" stroke-width="2" d="M594.506,-359.697C594.285,-351.983 594.02,-342.712 593.775,-334.112"/>
<polygon fill="grey" stroke="grey" stroke-width="2" points="597.273,-334 593.489,-324.104 590.276,-334.2 597.273,-334"/>
</g>
<!-- 19 -->
<g id="node20" class="node"><title>19</title>
<path fill="none" stroke="#d8c356" stroke-width="2" d="M490.5,-396C490.5,-396 403.5,-396 403.5,-396 397.5,-396 391.5,-390 391.5,-384 391.5,-384 391.5,-372 391.5,-372 391.5,-366 397.5,-360 403.5,-360 403.5,-360 490.5,-360 490.5,-360 496.5,-360 502.5,-366 502.5,-372 502.5,-372 502.5,-384 502.5,-384 502.5,-390 496.5,-396 490.5,-396"/>
<text text-anchor="middle" x="447" y="-375.5" font-family="sans" font-size="10.00">extract_transcriptome</text>
</g>
<!-- 19&#45;&gt;10 -->
<g id="edge25" class="edge"><title>19&#45;&gt;10</title>
<path fill="none" stroke="grey" stroke-width="2" d="M391.375,-362.331C353.51,-352.33 301.991,-338.689 248.035,-324.272"/>
<polygon fill="grey" stroke="grey" stroke-width="2" points="248.857,-320.869 238.292,-321.667 247.049,-327.631 248.857,-320.869"/>
</g>
<!-- 22 -->
<g id="node23" class="node"><title>22</title>
<path fill="none" stroke="#61d856" stroke-width="2" d="M491.5,-324C491.5,-324 406.5,-324 406.5,-324 400.5,-324 394.5,-318 394.5,-312 394.5,-312 394.5,-300 394.5,-300 394.5,-294 400.5,-288 406.5,-288 406.5,-288 491.5,-288 491.5,-288 497.5,-288 503.5,-294 503.5,-300 503.5,-300 503.5,-312 503.5,-312 503.5,-318 497.5,-324 491.5,-324"/>
<text text-anchor="middle" x="449" y="-303.5" font-family="sans" font-size="10.00">create_index_salmon</text>
</g>
<!-- 19&#45;&gt;22 -->
<g id="edge37" class="edge"><title>19&#45;&gt;22</title>
<path fill="none" stroke="grey" stroke-width="2" d="M447.494,-359.697C447.715,-351.983 447.98,-342.712 448.225,-334.112"/>
<polygon fill="grey" stroke="grey" stroke-width="2" points="451.724,-334.2 448.511,-324.104 444.727,-334 451.724,-334.2"/>
</g>
<!-- 20 -->
<g id="node21" class="node"><title>20</title>
<path fill="none" stroke="#bed856" stroke-width="2" d="M361,-396C361,-396 251,-396 251,-396 245,-396 239,-390 239,-384 239,-384 239,-372 239,-372 239,-366 245,-360 251,-360 251,-360 361,-360 361,-360 367,-360 373,-366 373,-372 373,-372 373,-384 373,-384 373,-390 367,-396 361,-396"/>
<text text-anchor="middle" x="306" y="-375.5" font-family="sans" font-size="10.00">remove_adapters_cutadapt</text>
</g>
<!-- 20&#45;&gt;11 -->
<g id="edge26" class="edge"><title>20&#45;&gt;11</title>
<path fill="none" stroke="grey" stroke-width="2" d="M308.472,-359.697C309.574,-351.983 310.898,-342.712 312.127,-334.112"/>
<polygon fill="grey" stroke="grey" stroke-width="2" points="315.607,-334.499 313.557,-324.104 308.677,-333.509 315.607,-334.499"/>
</g>
<!-- 21 -->
<g id="node22" class="node"><title>21</title>
<path fill="none" stroke="#78d856" stroke-width="2" d="M819,-324C819,-324 749,-324 749,-324 743,-324 737,-318 737,-312 737,-312 737,-300 737,-300 737,-294 743,-288 749,-288 749,-288 819,-288 819,-288 825,-288 831,-294 831,-300 831,-300 831,-312 831,-312 831,-318 825,-324 819,-324"/>
<text text-anchor="middle" x="784" y="-303.5" font-family="sans" font-size="10.00">create_index_star</text>
</g>
<!-- 21&#45;&gt;12 -->
<g id="edge28" class="edge"><title>21&#45;&gt;12</title>
<path fill="none" stroke="grey" stroke-width="2" d="M794.382,-287.697C799.265,-279.559 805.187,-269.689 810.579,-260.701"/>
<polygon fill="grey" stroke="grey" stroke-width="2" points="813.594,-262.48 815.737,-252.104 807.591,-258.879 813.594,-262.48"/>
</g>
<!-- 21&#45;&gt;15 -->
<g id="edge31" class="edge"><title>21&#45;&gt;15</title>
<path fill="none" stroke="grey" stroke-width="2" d="M763.978,-287.697C753.874,-278.965 741.464,-268.24 730.482,-258.75"/>
<polygon fill="grey" stroke="grey" stroke-width="2" points="732.647,-255.995 722.792,-252.104 728.07,-261.291 732.647,-255.995"/>
</g>
<!-- 22&#45;&gt;16 -->
<g id="edge34" class="edge"><title>22&#45;&gt;16</title>
<path fill="none" stroke="grey" stroke-width="2" d="M472.73,-287.697C484.937,-278.796 499.985,-267.823 513.184,-258.199"/>
<polygon fill="grey" stroke="grey" stroke-width="2" points="515.525,-260.824 521.543,-252.104 511.4,-255.168 515.525,-260.824"/>
</g>
<!-- 22&#45;&gt;17 -->
<g id="edge35" class="edge"><title>22&#45;&gt;17</title>
<path fill="none" stroke="grey" stroke-width="2" d="M438.865,-287.697C434.148,-279.644 428.438,-269.894 423.218,-260.982"/>
<polygon fill="grey" stroke="grey" stroke-width="2" points="426.092,-258.964 418.018,-252.104 420.052,-262.502 426.092,-258.964"/>
</g>
</g>
</svg>
