<?xml version="1.0" encoding="UTF-8" standalone="no"?>
<!DOCTYPE svg PUBLIC "-//W3C//DTD SVG 1.1//EN"
 "http://www.w3.org/Graphics/SVG/1.1/DTD/svg11.dtd">
<!-- Generated by graphviz version 2.40.1 (20161225.0304)
 -->
<!-- Title: snakemake_dag Pages: 1 -->
<svg width="1237pt" height="836pt"
 viewBox="0.00 0.00 1237.00 836.00" xmlns="http://www.w3.org/2000/svg" xmlns:xlink="http://www.w3.org/1999/xlink">
<g id="graph0" class="graph" transform="scale(1 1) rotate(0) translate(4 832)">
<title>snakemake_dag</title>
<polygon fill="#ffffff" stroke="transparent" points="-4,4 -4,-832 1233,-832 1233,4 -4,4"/>
<!-- 0 -->
<g id="node1" class="node">
<title>0</title>
<path fill="none" stroke="#ced856" stroke-width="2" d="M483,-36C483,-36 453,-36 453,-36 447,-36 441,-30 441,-24 441,-24 441,-12 441,-12 441,-6 447,0 453,0 453,0 483,0 483,0 489,0 495,-6 495,-12 495,-12 495,-24 495,-24 495,-30 489,-36 483,-36"/>
<text text-anchor="middle" x="468" y="-15.5" font-family="sans" font-size="10.00" fill="#000000">finish</text>
</g>
<!-- 1 -->
<g id="node2" class="node">
<title>1</title>
<path fill="none" stroke="#d8ac56" stroke-width="2" d="M776,-108C776,-108 712,-108 712,-108 706,-108 700,-102 700,-96 700,-96 700,-84 700,-84 700,-78 706,-72 712,-72 712,-72 776,-72 776,-72 782,-72 788,-78 788,-84 788,-84 788,-96 788,-96 788,-102 782,-108 776,-108"/>
<text text-anchor="middle" x="744" y="-87.5" font-family="sans" font-size="10.00" fill="#000000">multiqc_report</text>
</g>
<!-- 1&#45;&gt;0 -->
<g id="edge4" class="edge">
<title>1&#45;&gt;0</title>
<path fill="none" stroke="#c0c0c0" stroke-width="2" d="M699.9618,-78.5118C645.9987,-64.4344 555.5307,-40.8341 504.9989,-27.6519"/>
<polygon fill="#c0c0c0" stroke="#c0c0c0" stroke-width="2" points="505.7083,-24.2199 495.1486,-25.0822 503.9413,-30.9932 505.7083,-24.2199"/>
</g>
<!-- 2 -->
<g id="node3" class="node">
<title>2</title>
<path fill="none" stroke="#56c9d8" stroke-width="2" d="M1144.5,-252C1144.5,-252 1075.5,-252 1075.5,-252 1069.5,-252 1063.5,-246 1063.5,-240 1063.5,-240 1063.5,-228 1063.5,-228 1063.5,-222 1069.5,-216 1075.5,-216 1075.5,-216 1144.5,-216 1144.5,-216 1150.5,-216 1156.5,-222 1156.5,-228 1156.5,-228 1156.5,-240 1156.5,-240 1156.5,-246 1150.5,-252 1144.5,-252"/>
<text text-anchor="middle" x="1110" y="-231.5" font-family="sans" font-size="10.00" fill="#000000">prepare_bigWig</text>
</g>
<!-- 2&#45;&gt;0 -->
<g id="edge1" class="edge">
<title>2&#45;&gt;0</title>
<path fill="none" stroke="#c0c0c0" stroke-width="2" d="M1089.1753,-215.8325C1065.8056,-196.1369 1026.1528,-164.7459 988,-144 822.9295,-54.2416 594.0667,-27.662 505.2806,-20.4592"/>
<polygon fill="#c0c0c0" stroke="#c0c0c0" stroke-width="2" points="505.402,-16.9582 495.1611,-19.6739 504.8603,-23.9372 505.402,-16.9582"/>
</g>
<!-- 3 -->
<g id="node4" class="node">
<title>3</title>
<path fill="none" stroke="#56b9d8" stroke-width="2" d="M140,-468C140,-468 12,-468 12,-468 6,-468 0,-462 0,-456 0,-456 0,-444 0,-444 0,-438 6,-432 12,-432 12,-432 140,-432 140,-432 146,-432 152,-438 152,-444 152,-444 152,-456 152,-456 152,-462 146,-468 140,-468"/>
<text text-anchor="middle" x="76" y="-447.5" font-family="sans" font-size="10.00" fill="#000000">salmon_quantmerge_genes</text>
</g>
<!-- 3&#45;&gt;0 -->
<g id="edge2" class="edge">
<title>3&#45;&gt;0</title>
<path fill="none" stroke="#c0c0c0" stroke-width="2" d="M91.9791,-431.898C113.1909,-405.9361 148,-355.7525 148,-306 148,-306 148,-306 148,-162 148,-92.8193 212.5468,-101.7585 275,-72 326.433,-47.4925 391.0317,-32.2436 430.9109,-24.4358"/>
<polygon fill="#c0c0c0" stroke="#c0c0c0" stroke-width="2" points="431.5693,-27.8734 440.7382,-22.5648 430.2601,-20.9969 431.5693,-27.8734"/>
</g>
<!-- 4 -->
<g id="node5" class="node">
<title>4</title>
<path fill="none" stroke="#56d892" stroke-width="2" d="M332,-468C332,-468 182,-468 182,-468 176,-468 170,-462 170,-456 170,-456 170,-444 170,-444 170,-438 176,-432 182,-432 182,-432 332,-432 332,-432 338,-432 344,-438 344,-444 344,-444 344,-456 344,-456 344,-462 338,-468 332,-468"/>
<text text-anchor="middle" x="257" y="-447.5" font-family="sans" font-size="10.00" fill="#000000">salmon_quantmerge_transcripts</text>
</g>
<!-- 4&#45;&gt;0 -->
<g id="edge3" class="edge">
<title>4&#45;&gt;0</title>
<path fill="none" stroke="#c0c0c0" stroke-width="2" d="M257,-431.8146C257,-404.4983 257,-351.25 257,-306 257,-306 257,-306 257,-162 257,-78.7801 370.3638,-40.1916 430.9031,-25.5175"/>
<polygon fill="#c0c0c0" stroke="#c0c0c0" stroke-width="2" points="431.8991,-28.8794 440.8474,-23.2069 430.3147,-22.0611 431.8991,-28.8794"/>
</g>
<!-- 5 -->
<g id="node6" class="node">
<title>5</title>
<path fill="none" stroke="#56d8c1" stroke-width="2" d="M606,-108C606,-108 484,-108 484,-108 478,-108 472,-102 472,-96 472,-96 472,-84 472,-84 472,-78 478,-72 484,-72 484,-72 606,-72 606,-72 612,-72 618,-78 618,-84 618,-84 618,-96 618,-96 618,-102 612,-108 606,-108"/>
<text text-anchor="middle" x="545" y="-87.5" font-family="sans" font-size="10.00" fill="#000000">kallisto_merge_transcripts</text>
</g>
<!-- 5&#45;&gt;0 -->
<g id="edge5" class="edge">
<title>5&#45;&gt;0</title>
<path fill="none" stroke="#c0c0c0" stroke-width="2" d="M525.5696,-71.8314C516.268,-63.1337 504.9796,-52.5783 494.8714,-43.1265"/>
<polygon fill="#c0c0c0" stroke="#c0c0c0" stroke-width="2" points="497.1189,-40.4363 487.4241,-36.1628 492.3379,-45.5493 497.1189,-40.4363"/>
</g>
<!-- 6 -->
<g id="node7" class="node">
<title>6</title>
<path fill="none" stroke="#68d856" stroke-width="2" d="M442,-108C442,-108 342,-108 342,-108 336,-108 330,-102 330,-96 330,-96 330,-84 330,-84 330,-78 336,-72 342,-72 342,-72 442,-72 442,-72 448,-72 454,-78 454,-84 454,-84 454,-96 454,-96 454,-102 448,-108 442,-108"/>
<text text-anchor="middle" x="392" y="-87.5" font-family="sans" font-size="10.00" fill="#000000">kallisto_merge_genes</text>
</g>
<!-- 6&#45;&gt;0 -->
<g id="edge6" class="edge">
<title>6&#45;&gt;0</title>
<path fill="none" stroke="#c0c0c0" stroke-width="2" d="M411.178,-71.8314C420.3588,-63.1337 431.5006,-52.5783 441.4776,-43.1265"/>
<polygon fill="#c0c0c0" stroke="#c0c0c0" stroke-width="2" points="443.9757,-45.5811 448.8281,-36.1628 439.1615,-40.4995 443.9757,-45.5811"/>
</g>
<!-- 7 -->
<g id="node8" class="node">
<title>7</title>
<path fill="none" stroke="#56d88a" stroke-width="2" d="M1217,-396C1217,-396 1187,-396 1187,-396 1181,-396 1175,-390 1175,-384 1175,-384 1175,-372 1175,-372 1175,-366 1181,-360 1187,-360 1187,-360 1217,-360 1217,-360 1223,-360 1229,-366 1229,-372 1229,-372 1229,-384 1229,-384 1229,-390 1223,-396 1217,-396"/>
<text text-anchor="middle" x="1202" y="-375.5" font-family="sans" font-size="10.00" fill="#000000">fastqc</text>
</g>
<!-- 7&#45;&gt;1 -->
<g id="edge10" class="edge">
<title>7&#45;&gt;1</title>
<path fill="none" stroke="#c0c0c0" stroke-width="2" d="M1203.1008,-359.8379C1204.0828,-327.1418 1201.4647,-257.8883 1166,-216 1118.1269,-159.4558 900.8972,-116.3139 798.1578,-98.6869"/>
<polygon fill="#c0c0c0" stroke="#c0c0c0" stroke-width="2" points="798.7303,-95.2341 788.2856,-97.0113 797.5589,-102.1354 798.7303,-95.2341"/>
</g>
<!-- 8 -->
<g id="node9" class="node">
<title>8</title>
<path fill="none" stroke="#bed856" stroke-width="2" d="M648.5,-180C648.5,-180 485.5,-180 485.5,-180 479.5,-180 473.5,-174 473.5,-168 473.5,-168 473.5,-156 473.5,-156 473.5,-150 479.5,-144 485.5,-144 485.5,-144 648.5,-144 648.5,-144 654.5,-144 660.5,-150 660.5,-156 660.5,-156 660.5,-168 660.5,-168 660.5,-174 654.5,-180 648.5,-180"/>
<text text-anchor="middle" x="567" y="-159.5" font-family="sans" font-size="10.00" fill="#000000">pe_genome_quantification_kallisto</text>
</g>
<!-- 8&#45;&gt;1 -->
<g id="edge8" class="edge">
<title>8&#45;&gt;1</title>
<path fill="none" stroke="#c0c0c0" stroke-width="2" d="M611.6646,-143.8314C635.6385,-134.0792 665.354,-121.9916 690.5493,-111.7427"/>
<polygon fill="#c0c0c0" stroke="#c0c0c0" stroke-width="2" points="692.0187,-114.9235 699.9629,-107.9134 689.3811,-108.4394 692.0187,-114.9235"/>
</g>
<!-- 8&#45;&gt;5 -->
<g id="edge19" class="edge">
<title>8&#45;&gt;5</title>
<path fill="none" stroke="#c0c0c0" stroke-width="2" d="M561.4485,-143.8314C559.0697,-136.0463 556.2362,-126.7729 553.5967,-118.1347"/>
<polygon fill="#c0c0c0" stroke="#c0c0c0" stroke-width="2" points="556.8958,-116.954 550.6263,-108.4133 550.2013,-118.9996 556.8958,-116.954"/>
</g>
<!-- 8&#45;&gt;6 -->
<g id="edge21" class="edge">
<title>8&#45;&gt;6</title>
<path fill="none" stroke="#c0c0c0" stroke-width="2" d="M522.8401,-143.8314C499.2268,-134.1162 469.9798,-122.0831 445.13,-111.8592"/>
<polygon fill="#c0c0c0" stroke="#c0c0c0" stroke-width="2" points="446.4219,-108.6061 435.8423,-108.038 443.7585,-115.0797 446.4219,-108.6061"/>
</g>
<!-- 9 -->
<g id="node10" class="node">
<title>9</title>
<path fill="none" stroke="#5682d8" stroke-width="2" d="M443,-180C443,-180 297,-180 297,-180 291,-180 285,-174 285,-168 285,-168 285,-156 285,-156 285,-150 291,-144 297,-144 297,-144 443,-144 443,-144 449,-144 455,-150 455,-156 455,-156 455,-168 455,-168 455,-174 449,-180 443,-180"/>
<text text-anchor="middle" x="370" y="-159.5" font-family="sans" font-size="10.00" fill="#000000">genome_quantification_kallisto</text>
</g>
<!-- 9&#45;&gt;1 -->
<g id="edge12" class="edge">
<title>9&#45;&gt;1</title>
<path fill="none" stroke="#c0c0c0" stroke-width="2" d="M455.3344,-145.572C527.4246,-131.6937 628.4768,-112.2398 689.9122,-100.4126"/>
<polygon fill="#c0c0c0" stroke="#c0c0c0" stroke-width="2" points="690.6344,-103.838 699.7924,-98.5106 689.311,-96.9642 690.6344,-103.838"/>
</g>
<!-- 9&#45;&gt;5 -->
<g id="edge20" class="edge">
<title>9&#45;&gt;5</title>
<path fill="none" stroke="#c0c0c0" stroke-width="2" d="M414.1599,-143.8314C437.7732,-134.1162 467.0202,-122.0831 491.87,-111.8592"/>
<polygon fill="#c0c0c0" stroke="#c0c0c0" stroke-width="2" points="493.2415,-115.0797 501.1577,-108.038 490.5781,-108.6061 493.2415,-115.0797"/>
</g>
<!-- 9&#45;&gt;6 -->
<g id="edge22" class="edge">
<title>9&#45;&gt;6</title>
<path fill="none" stroke="#c0c0c0" stroke-width="2" d="M375.5515,-143.8314C377.9303,-136.0463 380.7638,-126.7729 383.4033,-118.1347"/>
<polygon fill="#c0c0c0" stroke="#c0c0c0" stroke-width="2" points="386.7987,-118.9996 386.3737,-108.4133 380.1042,-116.954 386.7987,-118.9996"/>
</g>
<!-- 10 -->
<g id="node11" class="node">
<title>10</title>
<path fill="none" stroke="#88d856" stroke-width="2" d="M835,-324C835,-324 765,-324 765,-324 759,-324 753,-318 753,-312 753,-312 753,-300 753,-300 753,-294 759,-288 765,-288 765,-288 835,-288 835,-288 841,-288 847,-294 847,-300 847,-300 847,-312 847,-312 847,-318 841,-324 835,-324"/>
<text text-anchor="middle" x="800" y="-303.5" font-family="sans" font-size="10.00" fill="#000000">plot_TIN_scores</text>
</g>
<!-- 10&#45;&gt;1 -->
<g id="edge11" class="edge">
<title>10&#45;&gt;1</title>
<path fill="none" stroke="#c0c0c0" stroke-width="2" d="M808.447,-287.8113C821.6472,-256.5398 843.2711,-191.3829 819,-144 812.763,-131.8238 802.3605,-121.7682 791.2593,-113.7713"/>
<polygon fill="#c0c0c0" stroke="#c0c0c0" stroke-width="2" points="792.9527,-110.6937 782.6914,-108.0563 789.0684,-116.5171 792.9527,-110.6937"/>
</g>
<!-- 11 -->
<g id="node12" class="node">
<title>11</title>
<path fill="none" stroke="#d87556" stroke-width="2" d="M966.5,-180C966.5,-180 879.5,-180 879.5,-180 873.5,-180 867.5,-174 867.5,-168 867.5,-168 867.5,-156 867.5,-156 867.5,-150 873.5,-144 879.5,-144 879.5,-144 966.5,-144 966.5,-144 972.5,-144 978.5,-150 978.5,-156 978.5,-156 978.5,-168 978.5,-168 978.5,-174 972.5,-180 966.5,-180"/>
<text text-anchor="middle" x="923" y="-159.5" font-family="sans" font-size="10.00" fill="#000000">alfa_concat_results</text>
</g>
<!-- 11&#45;&gt;1 -->
<g id="edge7" class="edge">
<title>11&#45;&gt;1</title>
<path fill="none" stroke="#c0c0c0" stroke-width="2" d="M877.8307,-143.8314C853.4941,-134.0423 823.3069,-121.9 797.7653,-111.6263"/>
<polygon fill="#c0c0c0" stroke="#c0c0c0" stroke-width="2" points="798.8094,-108.2738 788.2257,-107.7891 796.1971,-114.7681 798.8094,-108.2738"/>
</g>
<!-- 12 -->
<g id="node13" class="node">
<title>12</title>
<path fill="none" stroke="#56d86b" stroke-width="2" d="M797.5,-180C797.5,-180 690.5,-180 690.5,-180 684.5,-180 678.5,-174 678.5,-168 678.5,-168 678.5,-156 678.5,-156 678.5,-150 684.5,-144 690.5,-144 690.5,-144 797.5,-144 797.5,-144 803.5,-144 809.5,-150 809.5,-156 809.5,-156 809.5,-168 809.5,-168 809.5,-174 803.5,-180 797.5,-180"/>
<text text-anchor="middle" x="744" y="-159.5" font-family="sans" font-size="10.00" fill="#000000">prepare_multiqc_config</text>
</g>
<!-- 12&#45;&gt;1 -->
<g id="edge9" class="edge">
<title>12&#45;&gt;1</title>
<path fill="none" stroke="#c0c0c0" stroke-width="2" d="M744,-143.8314C744,-136.131 744,-126.9743 744,-118.4166"/>
<polygon fill="#c0c0c0" stroke="#c0c0c0" stroke-width="2" points="747.5001,-118.4132 744,-108.4133 740.5001,-118.4133 747.5001,-118.4132"/>
</g>
<!-- 13 -->
<g id="node14" class="node">
<title>13</title>
<path fill="none" stroke="#78d856" stroke-width="2" d="M1093,-324C1093,-324 1027,-324 1027,-324 1021,-324 1015,-318 1015,-312 1015,-312 1015,-300 1015,-300 1015,-294 1021,-288 1027,-288 1027,-288 1093,-288 1093,-288 1099,-288 1105,-294 1105,-300 1105,-300 1105,-312 1105,-312 1105,-318 1099,-324 1093,-324"/>
<text text-anchor="middle" x="1060" y="-303.5" font-family="sans" font-size="10.00" fill="#000000">sort_bed_4_big</text>
</g>
<!-- 13&#45;&gt;2 -->
<g id="edge13" class="edge">
<title>13&#45;&gt;2</title>
<path fill="none" stroke="#c0c0c0" stroke-width="2" d="M1072.6171,-287.8314C1078.3172,-279.6232 1085.1663,-269.7606 1091.4359,-260.7323"/>
<polygon fill="#c0c0c0" stroke="#c0c0c0" stroke-width="2" points="1094.3838,-262.6234 1097.213,-252.4133 1088.6342,-258.6306 1094.3838,-262.6234"/>
</g>
<!-- 14 -->
<g id="node15" class="node">
<title>14</title>
<path fill="none" stroke="#5663d8" stroke-width="2" d="M985,-684C985,-684 905,-684 905,-684 899,-684 893,-678 893,-672 893,-672 893,-660 893,-660 893,-654 899,-648 905,-648 905,-648 985,-648 985,-648 991,-648 997,-654 997,-660 997,-660 997,-672 997,-672 997,-678 991,-684 985,-684"/>
<text text-anchor="middle" x="945" y="-663.5" font-family="sans" font-size="10.00" fill="#000000">create_index_star</text>
</g>
<!-- 14&#45;&gt;2 -->
<g id="edge14" class="edge">
<title>14&#45;&gt;2</title>
<path fill="none" stroke="#c0c0c0" stroke-width="2" d="M997.02,-653.2739C1056.8712,-635.1562 1147,-595.6465 1147,-522 1147,-522 1147,-522 1147,-378 1147,-336.4385 1132.3628,-290.1923 1121.501,-261.5961"/>
<polygon fill="#c0c0c0" stroke="#c0c0c0" stroke-width="2" points="1124.7492,-260.2919 1117.8467,-252.254 1118.2302,-262.8419 1124.7492,-260.2919"/>
</g>
<!-- 24 -->
<g id="node25" class="node">
<title>24</title>
<path fill="none" stroke="#569ad8" stroke-width="2" d="M297.5,-612C297.5,-612 200.5,-612 200.5,-612 194.5,-612 188.5,-606 188.5,-600 188.5,-600 188.5,-588 188.5,-588 188.5,-582 194.5,-576 200.5,-576 200.5,-576 297.5,-576 297.5,-576 303.5,-576 309.5,-582 309.5,-588 309.5,-588 309.5,-600 309.5,-600 309.5,-606 303.5,-612 297.5,-612"/>
<text text-anchor="middle" x="249" y="-591.5" font-family="sans" font-size="10.00" fill="#000000">create_index_salmon</text>
</g>
<!-- 14&#45;&gt;24 -->
<g id="edge42" class="edge">
<title>14&#45;&gt;24</title>
<path fill="none" stroke="#c0c0c0" stroke-width="2" d="M892.9715,-660.6177C769.7407,-647.8697 459.9154,-615.8188 319.7851,-601.3226"/>
<polygon fill="#c0c0c0" stroke="#c0c0c0" stroke-width="2" points="319.8963,-597.8155 309.5892,-600.2678 319.1759,-604.7783 319.8963,-597.8155"/>
</g>
<!-- 32 -->
<g id="node33" class="node">
<title>32</title>
<path fill="none" stroke="#d8bc56" stroke-width="2" d="M995.5,-612C995.5,-612 894.5,-612 894.5,-612 888.5,-612 882.5,-606 882.5,-600 882.5,-600 882.5,-588 882.5,-588 882.5,-582 888.5,-576 894.5,-576 894.5,-576 995.5,-576 995.5,-576 1001.5,-576 1007.5,-582 1007.5,-588 1007.5,-588 1007.5,-600 1007.5,-600 1007.5,-606 1001.5,-612 995.5,-612"/>
<text text-anchor="middle" x="945" y="-591.5" font-family="sans" font-size="10.00" fill="#000000">pe_map_genome_star</text>
</g>
<!-- 14&#45;&gt;32 -->
<g id="edge56" class="edge">
<title>14&#45;&gt;32</title>
<path fill="none" stroke="#c0c0c0" stroke-width="2" d="M945,-647.8314C945,-640.131 945,-630.9743 945,-622.4166"/>
<polygon fill="#c0c0c0" stroke="#c0c0c0" stroke-width="2" points="948.5001,-622.4132 945,-612.4133 941.5001,-622.4133 948.5001,-622.4132"/>
</g>
<!-- 35 -->
<g id="node36" class="node">
<title>35</title>
<path fill="none" stroke="#56d8d0" stroke-width="2" d="M852.5,-612C852.5,-612 769.5,-612 769.5,-612 763.5,-612 757.5,-606 757.5,-600 757.5,-600 757.5,-588 757.5,-588 757.5,-582 763.5,-576 769.5,-576 769.5,-576 852.5,-576 852.5,-576 858.5,-576 864.5,-582 864.5,-588 864.5,-588 864.5,-600 864.5,-600 864.5,-606 858.5,-612 852.5,-612"/>
<text text-anchor="middle" x="811" y="-591.5" font-family="sans" font-size="10.00" fill="#000000">map_genome_star</text>
</g>
<!-- 14&#45;&gt;35 -->
<g id="edge60" class="edge">
<title>14&#45;&gt;35</title>
<path fill="none" stroke="#c0c0c0" stroke-width="2" d="M911.1861,-647.8314C893.7293,-638.4516 872.2513,-626.9112 853.6648,-616.9244"/>
<polygon fill="#c0c0c0" stroke="#c0c0c0" stroke-width="2" points="855.2686,-613.8129 844.803,-612.1628 851.9554,-619.9792 855.2686,-613.8129"/>
</g>
<!-- 36 -->
<g id="node37" class="node">
<title>36</title>
<path fill="none" stroke="#56d8b1" stroke-width="2" d="M943,-396C943,-396 851,-396 851,-396 845,-396 839,-390 839,-384 839,-384 839,-372 839,-372 839,-366 845,-360 851,-360 851,-360 943,-360 943,-360 949,-360 955,-366 955,-372 955,-372 955,-384 955,-384 955,-390 949,-396 943,-396"/>
<text text-anchor="middle" x="897" y="-375.5" font-family="sans" font-size="10.00" fill="#000000">generate_alfa_index</text>
</g>
<!-- 14&#45;&gt;36 -->
<g id="edge61" class="edge">
<title>14&#45;&gt;36</title>
<path fill="none" stroke="#c0c0c0" stroke-width="2" d="M973.2988,-647.8492C987.2857,-638.1424 1003.9233,-625.4374 1017,-612 1054.0212,-573.9578 1079.6148,-555.7965 1068,-504 1060.2568,-469.469 1059.832,-456.1879 1034,-432 1023.1018,-421.7955 993.631,-409.6621 964.8031,-399.4839"/>
<polygon fill="#c0c0c0" stroke="#c0c0c0" stroke-width="2" points="965.6739,-396.0815 955.0791,-396.1128 963.381,-402.6953 965.6739,-396.0815"/>
</g>
<!-- 15 -->
<g id="node16" class="node">
<title>15</title>
<path fill="none" stroke="#d8c356" stroke-width="2" d="M324,-540C324,-540 206,-540 206,-540 200,-540 194,-534 194,-528 194,-528 194,-516 194,-516 194,-510 200,-504 206,-504 206,-504 324,-504 324,-504 330,-504 336,-510 336,-516 336,-516 336,-528 336,-528 336,-534 330,-540 324,-540"/>
<text text-anchor="middle" x="265" y="-519.5" font-family="sans" font-size="10.00" fill="#000000">pe_quantification_salmon</text>
</g>
<!-- 15&#45;&gt;3 -->
<g id="edge15" class="edge">
<title>15&#45;&gt;3</title>
<path fill="none" stroke="#c0c0c0" stroke-width="2" d="M217.3073,-503.8314C191.6927,-494.0734 159.9398,-481.977 133.026,-471.7242"/>
<polygon fill="#c0c0c0" stroke="#c0c0c0" stroke-width="2" points="133.9406,-468.3273 123.3497,-468.038 131.4486,-474.8687 133.9406,-468.3273"/>
</g>
<!-- 15&#45;&gt;4 -->
<g id="edge17" class="edge">
<title>15&#45;&gt;4</title>
<path fill="none" stroke="#c0c0c0" stroke-width="2" d="M262.9813,-503.8314C262.1257,-496.131 261.1083,-486.9743 260.1574,-478.4166"/>
<polygon fill="#c0c0c0" stroke="#c0c0c0" stroke-width="2" points="263.6289,-477.9656 259.0459,-468.4133 256.6717,-478.7386 263.6289,-477.9656"/>
</g>
<!-- 16 -->
<g id="node17" class="node">
<title>16</title>
<path fill="none" stroke="#5692d8" stroke-width="2" d="M163.5,-540C163.5,-540 62.5,-540 62.5,-540 56.5,-540 50.5,-534 50.5,-528 50.5,-528 50.5,-516 50.5,-516 50.5,-510 56.5,-504 62.5,-504 62.5,-504 163.5,-504 163.5,-504 169.5,-504 175.5,-510 175.5,-516 175.5,-516 175.5,-528 175.5,-528 175.5,-534 169.5,-540 163.5,-540"/>
<text text-anchor="middle" x="113" y="-519.5" font-family="sans" font-size="10.00" fill="#000000">quantification_salmon</text>
</g>
<!-- 16&#45;&gt;3 -->
<g id="edge16" class="edge">
<title>16&#45;&gt;3</title>
<path fill="none" stroke="#c0c0c0" stroke-width="2" d="M103.6633,-503.8314C99.5757,-495.8771 94.6896,-486.369 90.1691,-477.5723"/>
<polygon fill="#c0c0c0" stroke="#c0c0c0" stroke-width="2" points="93.1461,-475.7078 85.4624,-468.4133 86.9201,-478.9074 93.1461,-475.7078"/>
</g>
<!-- 16&#45;&gt;4 -->
<g id="edge18" class="edge">
<title>16&#45;&gt;4</title>
<path fill="none" stroke="#c0c0c0" stroke-width="2" d="M149.3373,-503.8314C168.3396,-494.3302 191.7758,-482.6121 211.9252,-472.5374"/>
<polygon fill="#c0c0c0" stroke="#c0c0c0" stroke-width="2" points="213.545,-475.6407 220.924,-468.038 210.4145,-469.3797 213.545,-475.6407"/>
</g>
<!-- 17 -->
<g id="node18" class="node">
<title>17</title>
<path fill="none" stroke="#97d856" stroke-width="2" d="M646,-828C646,-828 616,-828 616,-828 610,-828 604,-822 604,-816 604,-816 604,-804 604,-804 604,-798 610,-792 616,-792 616,-792 646,-792 646,-792 652,-792 658,-798 658,-804 658,-804 658,-816 658,-816 658,-822 652,-828 646,-828"/>
<text text-anchor="middle" x="631" y="-807.5" font-family="sans" font-size="10.00" fill="#000000">start</text>
</g>
<!-- 17&#45;&gt;7 -->
<g id="edge23" class="edge">
<title>17&#45;&gt;7</title>
<path fill="none" stroke="#c0c0c0" stroke-width="2" d="M658.1064,-808.9708C770.368,-803.9871 1193,-777.8007 1193,-666 1193,-666 1193,-666 1193,-522 1193,-481.7977 1196.5375,-435.4047 1199.1768,-406.385"/>
<polygon fill="#c0c0c0" stroke="#c0c0c0" stroke-width="2" points="1202.6864,-406.4457 1200.1352,-396.1626 1195.717,-405.7923 1202.6864,-406.4457"/>
</g>
<!-- 25 -->
<g id="node26" class="node">
<title>25</title>
<path fill="none" stroke="#d89c56" stroke-width="2" d="M702.5,-756C702.5,-756 559.5,-756 559.5,-756 553.5,-756 547.5,-750 547.5,-744 547.5,-744 547.5,-732 547.5,-732 547.5,-726 553.5,-720 559.5,-720 559.5,-720 702.5,-720 702.5,-720 708.5,-720 714.5,-726 714.5,-732 714.5,-732 714.5,-744 714.5,-744 714.5,-750 708.5,-756 702.5,-756"/>
<text text-anchor="middle" x="631" y="-735.5" font-family="sans" font-size="10.00" fill="#000000">pe_remove_adapters_cutadapt</text>
</g>
<!-- 17&#45;&gt;25 -->
<g id="edge43" class="edge">
<title>17&#45;&gt;25</title>
<path fill="none" stroke="#c0c0c0" stroke-width="2" d="M631,-791.8314C631,-784.131 631,-774.9743 631,-766.4166"/>
<polygon fill="#c0c0c0" stroke="#c0c0c0" stroke-width="2" points="634.5001,-766.4132 631,-756.4133 627.5001,-766.4133 634.5001,-766.4132"/>
</g>
<!-- 27 -->
<g id="node28" class="node">
<title>27</title>
<path fill="none" stroke="#56a9d8" stroke-width="2" d="M375,-756C375,-756 249,-756 249,-756 243,-756 237,-750 237,-744 237,-744 237,-732 237,-732 237,-726 243,-720 249,-720 249,-720 375,-720 375,-720 381,-720 387,-726 387,-732 387,-732 387,-744 387,-744 387,-750 381,-756 375,-756"/>
<text text-anchor="middle" x="312" y="-735.5" font-family="sans" font-size="10.00" fill="#000000">remove_adapters_cutadapt</text>
</g>
<!-- 17&#45;&gt;27 -->
<g id="edge44" class="edge">
<title>17&#45;&gt;27</title>
<path fill="none" stroke="#c0c0c0" stroke-width="2" d="M603.8022,-803.8613C558.5659,-793.6512 466.0433,-772.7684 397.2464,-757.2406"/>
<polygon fill="#c0c0c0" stroke="#c0c0c0" stroke-width="2" points="397.8018,-753.778 387.2766,-754.9903 396.2606,-760.6062 397.8018,-753.778"/>
</g>
<!-- 18 -->
<g id="node19" class="node">
<title>18</title>
<path fill="none" stroke="#d8d356" stroke-width="2" d="M665,-684C665,-684 537,-684 537,-684 531,-684 525,-678 525,-672 525,-672 525,-660 525,-660 525,-654 531,-648 537,-648 537,-648 665,-648 665,-648 671,-648 677,-654 677,-660 677,-660 677,-672 677,-672 677,-678 671,-684 665,-684"/>
<text text-anchor="middle" x="601" y="-663.5" font-family="sans" font-size="10.00" fill="#000000">pe_remove_polya_cutadapt</text>
</g>
<!-- 18&#45;&gt;8 -->
<g id="edge24" class="edge">
<title>18&#45;&gt;8</title>
<path fill="none" stroke="#c0c0c0" stroke-width="2" d="M595.3306,-647.8704C588.0535,-623.5963 575.7953,-579.0581 571,-540 555.0812,-410.3404 561.499,-253.7868 565.1423,-190.5482"/>
<polygon fill="#c0c0c0" stroke="#c0c0c0" stroke-width="2" points="568.6583,-190.3842 565.7631,-180.1926 561.6709,-189.9652 568.6583,-190.3842"/>
</g>
<!-- 18&#45;&gt;15 -->
<g id="edge31" class="edge">
<title>18&#45;&gt;15</title>
<path fill="none" stroke="#c0c0c0" stroke-width="2" d="M558.7856,-647.9081C497.2161,-621.5212 382.9067,-572.5315 316.4826,-544.064"/>
<polygon fill="#c0c0c0" stroke="#c0c0c0" stroke-width="2" points="317.6119,-540.7401 307.0417,-540.0179 314.8544,-547.1741 317.6119,-540.7401"/>
</g>
<!-- 18&#45;&gt;32 -->
<g id="edge55" class="edge">
<title>18&#45;&gt;32</title>
<path fill="none" stroke="#c0c0c0" stroke-width="2" d="M677.1308,-652.061C729.5514,-642.2029 801.0165,-628.2533 872.2723,-612.3398"/>
<polygon fill="#c0c0c0" stroke="#c0c0c0" stroke-width="2" points="873.3339,-615.6886 882.3234,-610.0815 871.7994,-608.8589 873.3339,-615.6886"/>
</g>
<!-- 19 -->
<g id="node20" class="node">
<title>19</title>
<path fill="none" stroke="#61d856" stroke-width="2" d="M509.5,-252C509.5,-252 412.5,-252 412.5,-252 406.5,-252 400.5,-246 400.5,-240 400.5,-240 400.5,-228 400.5,-228 400.5,-222 406.5,-216 412.5,-216 412.5,-216 509.5,-216 509.5,-216 515.5,-216 521.5,-222 521.5,-228 521.5,-228 521.5,-240 521.5,-240 521.5,-246 515.5,-252 509.5,-252"/>
<text text-anchor="middle" x="461" y="-231.5" font-family="sans" font-size="10.00" fill="#000000">create_index_kallisto</text>
</g>
<!-- 19&#45;&gt;8 -->
<g id="edge25" class="edge">
<title>19&#45;&gt;8</title>
<path fill="none" stroke="#c0c0c0" stroke-width="2" d="M487.7483,-215.8314C501.0553,-206.7927 517.316,-195.7476 531.6375,-186.0198"/>
<polygon fill="#c0c0c0" stroke="#c0c0c0" stroke-width="2" points="533.9547,-188.677 540.2603,-180.1628 530.0215,-182.8864 533.9547,-188.677"/>
</g>
<!-- 19&#45;&gt;9 -->
<g id="edge27" class="edge">
<title>19&#45;&gt;9</title>
<path fill="none" stroke="#c0c0c0" stroke-width="2" d="M438.0369,-215.8314C426.8285,-206.9632 413.1791,-196.1637 401.0561,-186.5718"/>
<polygon fill="#c0c0c0" stroke="#c0c0c0" stroke-width="2" points="402.9697,-183.6229 392.9558,-180.1628 398.6263,-189.1125 402.9697,-183.6229"/>
</g>
<!-- 20 -->
<g id="node21" class="node">
<title>20</title>
<path fill="none" stroke="#afd856" stroke-width="2" d="M427,-684C427,-684 317,-684 317,-684 311,-684 305,-678 305,-672 305,-672 305,-660 305,-660 305,-654 311,-648 317,-648 317,-648 427,-648 427,-648 433,-648 439,-654 439,-660 439,-660 439,-672 439,-672 439,-678 433,-684 427,-684"/>
<text text-anchor="middle" x="372" y="-663.5" font-family="sans" font-size="10.00" fill="#000000">remove_polya_cutadapt</text>
</g>
<!-- 20&#45;&gt;9 -->
<g id="edge26" class="edge">
<title>20&#45;&gt;9</title>
<path fill="none" stroke="#c0c0c0" stroke-width="2" d="M372,-647.8146C372,-620.4983 372,-567.25 372,-522 372,-522 372,-522 372,-306 372,-265.8721 371.2139,-219.4602 370.6274,-190.416"/>
<polygon fill="#c0c0c0" stroke="#c0c0c0" stroke-width="2" points="374.1218,-190.1092 370.4144,-180.1843 367.1234,-190.255 374.1218,-190.1092"/>
</g>
<!-- 20&#45;&gt;16 -->
<g id="edge33" class="edge">
<title>20&#45;&gt;16</title>
<path fill="none" stroke="#c0c0c0" stroke-width="2" d="M304.8785,-649.5161C253.503,-636.5164 189.6749,-619.3885 179,-612 155.8934,-596.007 137.7849,-569.2491 126.4275,-549.0565"/>
<polygon fill="#c0c0c0" stroke="#c0c0c0" stroke-width="2" points="129.3804,-547.1587 121.5465,-540.0256 123.2223,-550.4871 129.3804,-547.1587"/>
</g>
<!-- 20&#45;&gt;35 -->
<g id="edge59" class="edge">
<title>20&#45;&gt;35</title>
<path fill="none" stroke="#c0c0c0" stroke-width="2" d="M439.1525,-654.9864C522.9656,-641.2403 665.2549,-617.9035 747.383,-604.4338"/>
<polygon fill="#c0c0c0" stroke="#c0c0c0" stroke-width="2" points="748.0352,-607.8736 757.3369,-602.8012 746.9022,-600.9659 748.0352,-607.8736"/>
</g>
<!-- 21 -->
<g id="node22" class="node">
<title>21</title>
<path fill="none" stroke="#56d8d8" stroke-width="2" d="M808.5,-396C808.5,-396 725.5,-396 725.5,-396 719.5,-396 713.5,-390 713.5,-384 713.5,-384 713.5,-372 713.5,-372 713.5,-366 719.5,-360 725.5,-360 725.5,-360 808.5,-360 808.5,-360 814.5,-360 820.5,-366 820.5,-372 820.5,-372 820.5,-384 820.5,-384 820.5,-390 814.5,-396 808.5,-396"/>
<text text-anchor="middle" x="767" y="-375.5" font-family="sans" font-size="10.00" fill="#000000">merge_TIN_scores</text>
</g>
<!-- 21&#45;&gt;10 -->
<g id="edge28" class="edge">
<title>21&#45;&gt;10</title>
<path fill="none" stroke="#c0c0c0" stroke-width="2" d="M775.3273,-359.8314C778.973,-351.8771 783.3309,-342.369 787.3627,-333.5723"/>
<polygon fill="#c0c0c0" stroke="#c0c0c0" stroke-width="2" points="790.5757,-334.9622 791.5606,-324.4133 784.2123,-332.0456 790.5757,-334.9622"/>
</g>
<!-- 22 -->
<g id="node23" class="node">
<title>22</title>
<path fill="none" stroke="#d87d56" stroke-width="2" d="M970,-252C970,-252 878,-252 878,-252 872,-252 866,-246 866,-240 866,-240 866,-228 866,-228 866,-222 872,-216 878,-216 878,-216 970,-216 970,-216 976,-216 982,-222 982,-228 982,-228 982,-240 982,-240 982,-246 976,-252 970,-252"/>
<text text-anchor="middle" x="924" y="-231.5" font-family="sans" font-size="10.00" fill="#000000">alfa_qc_all_samples</text>
</g>
<!-- 22&#45;&gt;11 -->
<g id="edge29" class="edge">
<title>22&#45;&gt;11</title>
<path fill="none" stroke="#c0c0c0" stroke-width="2" d="M923.7477,-215.8314C923.6407,-208.131 923.5135,-198.9743 923.3947,-190.4166"/>
<polygon fill="#c0c0c0" stroke="#c0c0c0" stroke-width="2" points="926.8944,-190.3637 923.2557,-180.4133 919.8951,-190.4609 926.8944,-190.3637"/>
</g>
<!-- 23 -->
<g id="node24" class="node">
<title>23</title>
<path fill="none" stroke="#d86656" stroke-width="2" d="M1107,-396C1107,-396 985,-396 985,-396 979,-396 973,-390 973,-384 973,-384 973,-372 973,-372 973,-366 979,-360 985,-360 985,-360 1107,-360 1107,-360 1113,-360 1119,-366 1119,-372 1119,-372 1119,-384 1119,-384 1119,-390 1113,-396 1107,-396"/>
<text text-anchor="middle" x="1046" y="-375.5" font-family="sans" font-size="10.00" fill="#000000">rename_star_rpm_for_alfa</text>
</g>
<!-- 23&#45;&gt;13 -->
<g id="edge30" class="edge">
<title>23&#45;&gt;13</title>
<path fill="none" stroke="#c0c0c0" stroke-width="2" d="M1049.5328,-359.8314C1051.0301,-352.131 1052.8105,-342.9743 1054.4745,-334.4166"/>
<polygon fill="#c0c0c0" stroke="#c0c0c0" stroke-width="2" points="1057.9465,-334.8975 1056.4196,-324.4133 1051.0752,-333.5614 1057.9465,-334.8975"/>
</g>
<!-- 29 -->
<g id="node30" class="node">
<title>29</title>
<path fill="none" stroke="#56d8a2" stroke-width="2" d="M939,-324C939,-324 909,-324 909,-324 903,-324 897,-318 897,-312 897,-312 897,-300 897,-300 897,-294 903,-288 909,-288 909,-288 939,-288 939,-288 945,-288 951,-294 951,-300 951,-300 951,-312 951,-312 951,-318 945,-324 939,-324"/>
<text text-anchor="middle" x="924" y="-303.5" font-family="sans" font-size="10.00" fill="#000000">alfa_qc</text>
</g>
<!-- 23&#45;&gt;29 -->
<g id="edge49" class="edge">
<title>23&#45;&gt;29</title>
<path fill="none" stroke="#c0c0c0" stroke-width="2" d="M1015.2142,-359.8314C998.3832,-349.8983 977.4465,-337.5422 959.8783,-327.1741"/>
<polygon fill="#c0c0c0" stroke="#c0c0c0" stroke-width="2" points="961.4289,-324.0251 951.0379,-321.9568 957.8711,-330.0536 961.4289,-324.0251"/>
</g>
<!-- 24&#45;&gt;15 -->
<g id="edge32" class="edge">
<title>24&#45;&gt;15</title>
<path fill="none" stroke="#c0c0c0" stroke-width="2" d="M253.0375,-575.8314C254.7487,-568.131 256.7835,-558.9743 258.6852,-550.4166"/>
<polygon fill="#c0c0c0" stroke="#c0c0c0" stroke-width="2" points="262.1554,-550.9344 260.9082,-540.4133 255.3221,-549.4159 262.1554,-550.9344"/>
</g>
<!-- 24&#45;&gt;16 -->
<g id="edge34" class="edge">
<title>24&#45;&gt;16</title>
<path fill="none" stroke="#c0c0c0" stroke-width="2" d="M214.6815,-575.8314C196.9641,-566.4516 175.1655,-554.9112 156.3016,-544.9244"/>
<polygon fill="#c0c0c0" stroke="#c0c0c0" stroke-width="2" points="157.7831,-541.7485 147.3076,-540.1628 154.5078,-547.935 157.7831,-541.7485"/>
</g>
<!-- 25&#45;&gt;18 -->
<g id="edge35" class="edge">
<title>25&#45;&gt;18</title>
<path fill="none" stroke="#c0c0c0" stroke-width="2" d="M623.4297,-719.8314C620.1507,-711.9617 616.238,-702.5712 612.6055,-693.8533"/>
<polygon fill="#c0c0c0" stroke="#c0c0c0" stroke-width="2" points="615.7492,-692.2979 608.6722,-684.4133 609.2876,-694.9902 615.7492,-692.2979"/>
</g>
<!-- 26 -->
<g id="node27" class="node">
<title>26</title>
<path fill="none" stroke="#5673d8" stroke-width="2" d="M517.5,-756C517.5,-756 416.5,-756 416.5,-756 410.5,-756 404.5,-750 404.5,-744 404.5,-744 404.5,-732 404.5,-732 404.5,-726 410.5,-720 416.5,-720 416.5,-720 517.5,-720 517.5,-720 523.5,-720 529.5,-726 529.5,-732 529.5,-732 529.5,-744 529.5,-744 529.5,-750 523.5,-756 517.5,-756"/>
<text text-anchor="middle" x="467" y="-735.5" font-family="sans" font-size="10.00" fill="#000000">extract_transcriptome</text>
</g>
<!-- 26&#45;&gt;19 -->
<g id="edge36" class="edge">
<title>26&#45;&gt;19</title>
<path fill="none" stroke="#c0c0c0" stroke-width="2" d="M467,-719.8146C467,-692.4983 467,-639.25 467,-594 467,-594 467,-594 467,-378 467,-337.8412 464.6417,-291.4372 462.8821,-262.4031"/>
<polygon fill="#c0c0c0" stroke="#c0c0c0" stroke-width="2" points="466.3599,-261.9376 462.2432,-252.1753 459.3736,-262.3741 466.3599,-261.9376"/>
</g>
<!-- 31 -->
<g id="node32" class="node">
<title>31</title>
<path fill="none" stroke="#a7d856" stroke-width="2" d="M275,-684C275,-684 81,-684 81,-684 75,-684 69,-678 69,-672 69,-672 69,-660 69,-660 69,-654 75,-648 81,-648 81,-648 275,-648 275,-648 281,-648 287,-654 287,-660 287,-660 287,-672 287,-672 287,-678 281,-684 275,-684"/>
<text text-anchor="middle" x="178" y="-663.5" font-family="sans" font-size="10.00" fill="#000000">concatenate_transcriptome_and_genome</text>
</g>
<!-- 26&#45;&gt;31 -->
<g id="edge54" class="edge">
<title>26&#45;&gt;31</title>
<path fill="none" stroke="#c0c0c0" stroke-width="2" d="M404.2848,-722.0806C401.4853,-721.3762 398.7137,-720.6801 396,-720 351.4509,-708.8355 301.7459,-696.5129 261.0607,-686.4615"/>
<polygon fill="#c0c0c0" stroke="#c0c0c0" stroke-width="2" points="261.7363,-683.0233 251.1888,-684.0234 260.0579,-689.8191 261.7363,-683.0233"/>
</g>
<!-- 27&#45;&gt;20 -->
<g id="edge37" class="edge">
<title>27&#45;&gt;20</title>
<path fill="none" stroke="#c0c0c0" stroke-width="2" d="M327.1405,-719.8314C334.1217,-711.454 342.5391,-701.3531 350.1876,-692.1749"/>
<polygon fill="#c0c0c0" stroke="#c0c0c0" stroke-width="2" points="352.9425,-694.3362 356.6556,-684.4133 347.5649,-689.8548 352.9425,-694.3362"/>
</g>
<!-- 28 -->
<g id="node29" class="node">
<title>28</title>
<path fill="none" stroke="#d85656" stroke-width="2" d="M814.5,-468C814.5,-468 719.5,-468 719.5,-468 713.5,-468 707.5,-462 707.5,-456 707.5,-456 707.5,-444 707.5,-444 707.5,-438 713.5,-432 719.5,-432 719.5,-432 814.5,-432 814.5,-432 820.5,-432 826.5,-438 826.5,-444 826.5,-444 826.5,-456 826.5,-456 826.5,-462 820.5,-468 814.5,-468"/>
<text text-anchor="middle" x="767" y="-447.5" font-family="sans" font-size="10.00" fill="#000000">calculate_TIN_scores</text>
</g>
<!-- 28&#45;&gt;21 -->
<g id="edge38" class="edge">
<title>28&#45;&gt;21</title>
<path fill="none" stroke="#c0c0c0" stroke-width="2" d="M767,-431.8314C767,-424.131 767,-414.9743 767,-406.4166"/>
<polygon fill="#c0c0c0" stroke="#c0c0c0" stroke-width="2" points="770.5001,-406.4132 767,-396.4133 763.5001,-406.4133 770.5001,-406.4132"/>
</g>
<!-- 29&#45;&gt;22 -->
<g id="edge39" class="edge">
<title>29&#45;&gt;22</title>
<path fill="none" stroke="#c0c0c0" stroke-width="2" d="M924,-287.8314C924,-280.131 924,-270.9743 924,-262.4166"/>
<polygon fill="#c0c0c0" stroke="#c0c0c0" stroke-width="2" points="927.5001,-262.4132 924,-252.4133 920.5001,-262.4133 927.5001,-262.4132"/>
</g>
<!-- 30 -->
<g id="node31" class="node">
<title>30</title>
<path fill="none" stroke="#56d87b" stroke-width="2" d="M1013,-468C1013,-468 977,-468 977,-468 971,-468 965,-462 965,-456 965,-456 965,-444 965,-444 965,-438 971,-432 977,-432 977,-432 1013,-432 1013,-432 1019,-432 1025,-438 1025,-444 1025,-444 1025,-456 1025,-456 1025,-462 1019,-468 1013,-468"/>
<text text-anchor="middle" x="995" y="-447.5" font-family="sans" font-size="10.00" fill="#000000">star_rpm</text>
</g>
<!-- 30&#45;&gt;23 -->
<g id="edge40" class="edge">
<title>30&#45;&gt;23</title>
<path fill="none" stroke="#c0c0c0" stroke-width="2" d="M1007.8695,-431.8314C1013.6835,-423.6232 1020.6696,-413.7606 1027.0646,-404.7323"/>
<polygon fill="#c0c0c0" stroke="#c0c0c0" stroke-width="2" points="1030.0331,-406.5966 1032.9573,-396.4133 1024.321,-402.5505 1030.0331,-406.5966"/>
</g>
<!-- 31&#45;&gt;24 -->
<g id="edge41" class="edge">
<title>31&#45;&gt;24</title>
<path fill="none" stroke="#c0c0c0" stroke-width="2" d="M195.9163,-647.8314C204.3442,-639.2848 214.541,-628.9443 223.736,-619.6198"/>
<polygon fill="#c0c0c0" stroke="#c0c0c0" stroke-width="2" points="226.3131,-621.9912 230.8425,-612.4133 221.3289,-617.0761 226.3131,-621.9912"/>
</g>
<!-- 32&#45;&gt;28 -->
<g id="edge48" class="edge">
<title>32&#45;&gt;28</title>
<path fill="none" stroke="#c0c0c0" stroke-width="2" d="M898.6506,-575.9617C878.7822,-566.9259 856.046,-554.7466 838,-540 815.9494,-521.9809 796.3677,-495.9884 783.3837,-476.5649"/>
<polygon fill="#c0c0c0" stroke="#c0c0c0" stroke-width="2" points="786.2925,-474.6179 777.8971,-468.155 780.4298,-478.4427 786.2925,-474.6179"/>
</g>
<!-- 32&#45;&gt;30 -->
<g id="edge53" class="edge">
<title>32&#45;&gt;30</title>
<path fill="none" stroke="#c0c0c0" stroke-width="2" d="M1007.5603,-576.2456C1024.9625,-568.1131 1041.8571,-556.4803 1052,-540 1060.3863,-526.3739 1058.3221,-518.698 1052,-504 1047.2509,-492.9589 1039.0115,-483.1176 1030.2494,-474.9593"/>
<polygon fill="#c0c0c0" stroke="#c0c0c0" stroke-width="2" points="1032.339,-472.1388 1022.4894,-468.2354 1027.755,-477.4291 1032.339,-472.1388"/>
</g>
<!-- 33 -->
<g id="node34" class="node">
<title>33</title>
<path fill="none" stroke="#56d85b" stroke-width="2" d="M1031,-540C1031,-540 859,-540 859,-540 853,-540 847,-534 847,-528 847,-528 847,-516 847,-516 847,-510 853,-504 859,-504 859,-504 1031,-504 1031,-504 1037,-504 1043,-510 1043,-516 1043,-516 1043,-528 1043,-528 1043,-534 1037,-540 1031,-540"/>
<text text-anchor="middle" x="945" y="-519.5" font-family="sans" font-size="10.00" fill="#000000">index_genomic_alignment_samtools</text>
</g>
<!-- 32&#45;&gt;33 -->
<g id="edge58" class="edge">
<title>32&#45;&gt;33</title>
<path fill="none" stroke="#c0c0c0" stroke-width="2" d="M945,-575.8314C945,-568.131 945,-558.9743 945,-550.4166"/>
<polygon fill="#c0c0c0" stroke="#c0c0c0" stroke-width="2" points="948.5001,-550.4132 945,-540.4133 941.5001,-550.4133 948.5001,-550.4132"/>
</g>
<!-- 33&#45;&gt;28 -->
<g id="edge45" class="edge">
<title>33&#45;&gt;28</title>
<path fill="none" stroke="#c0c0c0" stroke-width="2" d="M900.0831,-503.8314C876.065,-494.1162 846.3166,-482.0831 821.0408,-471.8592"/>
<polygon fill="#c0c0c0" stroke="#c0c0c0" stroke-width="2" points="822.1767,-468.5432 811.5939,-468.038 819.5518,-475.0325 822.1767,-468.5432"/>
</g>
<!-- 33&#45;&gt;30 -->
<g id="edge51" class="edge">
<title>33&#45;&gt;30</title>
<path fill="none" stroke="#c0c0c0" stroke-width="2" d="M957.6171,-503.8314C963.3172,-495.6232 970.1663,-485.7606 976.4359,-476.7323"/>
<polygon fill="#c0c0c0" stroke="#c0c0c0" stroke-width="2" points="979.3838,-478.6234 982.213,-468.4133 973.6342,-474.6306 979.3838,-478.6234"/>
</g>
<!-- 34 -->
<g id="node35" class="node">
<title>34</title>
<path fill="none" stroke="#d88d56" stroke-width="2" d="M741,-540C741,-540 605,-540 605,-540 599,-540 593,-534 593,-528 593,-528 593,-516 593,-516 593,-510 599,-504 605,-504 605,-504 741,-504 741,-504 747,-504 753,-510 753,-516 753,-516 753,-528 753,-528 753,-534 747,-540 741,-540"/>
<text text-anchor="middle" x="673" y="-519.5" font-family="sans" font-size="10.00" fill="#000000">extract_transcripts_as_bed12</text>
</g>
<!-- 34&#45;&gt;28 -->
<g id="edge47" class="edge">
<title>34&#45;&gt;28</title>
<path fill="none" stroke="#c0c0c0" stroke-width="2" d="M696.7202,-503.8314C708.4094,-494.8779 722.6688,-483.9558 735.2809,-474.2955"/>
<polygon fill="#c0c0c0" stroke="#c0c0c0" stroke-width="2" points="737.4769,-477.0222 743.2874,-468.1628 733.2203,-471.4651 737.4769,-477.0222"/>
</g>
<!-- 35&#45;&gt;28 -->
<g id="edge46" class="edge">
<title>35&#45;&gt;28</title>
<path fill="none" stroke="#c0c0c0" stroke-width="2" d="M757.2532,-588.8041C697.0784,-581.7456 605.1884,-566.8201 584,-540 548.3016,-494.8132 631.8376,-470.715 697.5067,-459.1486"/>
<polygon fill="#c0c0c0" stroke="#c0c0c0" stroke-width="2" points="698.1838,-462.5838 707.4602,-457.4652 697.0165,-455.6819 698.1838,-462.5838"/>
</g>
<!-- 35&#45;&gt;30 -->
<g id="edge52" class="edge">
<title>35&#45;&gt;30</title>
<path fill="none" stroke="#c0c0c0" stroke-width="2" d="M811.7077,-575.6902C813.4544,-555.5713 819.2369,-523.5255 838,-504 868.811,-471.937 919.5025,-458.9075 954.9243,-453.6152"/>
<polygon fill="#c0c0c0" stroke="#c0c0c0" stroke-width="2" points="955.4924,-457.0704 964.9339,-452.2633 954.5554,-450.1334 955.4924,-457.0704"/>
</g>
<!-- 35&#45;&gt;33 -->
<g id="edge57" class="edge">
<title>35&#45;&gt;33</title>
<path fill="none" stroke="#c0c0c0" stroke-width="2" d="M844.8139,-575.8314C862.2707,-566.4516 883.7487,-554.9112 902.3352,-544.9244"/>
<polygon fill="#c0c0c0" stroke="#c0c0c0" stroke-width="2" points="904.0446,-547.9792 911.197,-540.1628 900.7314,-541.8129 904.0446,-547.9792"/>
</g>
<!-- 36&#45;&gt;29 -->
<g id="edge50" class="edge">
<title>36&#45;&gt;29</title>
<path fill="none" stroke="#c0c0c0" stroke-width="2" d="M903.8132,-359.8314C906.7644,-351.9617 910.2858,-342.5712 913.555,-333.8533"/>
<polygon fill="#c0c0c0" stroke="#c0c0c0" stroke-width="2" points="916.8609,-335.0055 917.095,-324.4133 910.3066,-332.5476 916.8609,-335.0055"/>
</g>
</g>
</svg>
