<?xml version="1.0" encoding="UTF-8" standalone="no"?>
<!DOCTYPE svg PUBLIC "-//W3C//DTD SVG 1.1//EN"
 "http://www.w3.org/Graphics/SVG/1.1/DTD/svg11.dtd">
<!-- Generated by graphviz version 2.40.1 (20161225.0304)
 -->
<!-- Title: snakemake_dag Pages: 1 -->
<svg width="1211pt" height="908pt"
 viewBox="0.00 0.00 1210.50 908.00" xmlns="http://www.w3.org/2000/svg" xmlns:xlink="http://www.w3.org/1999/xlink">
<g id="graph0" class="graph" transform="scale(1 1) rotate(0) translate(4 904)">
<title>snakemake_dag</title>
<polygon fill="#ffffff" stroke="transparent" points="-4,4 -4,-904 1206.5,-904 1206.5,4 -4,4"/>
<!-- 0 -->
<g id="node1" class="node">
<title>0</title>
<path fill="none" stroke="#56d85b" stroke-width="2" d="M353.5,-36C353.5,-36 323.5,-36 323.5,-36 317.5,-36 311.5,-30 311.5,-24 311.5,-24 311.5,-12 311.5,-12 311.5,-6 317.5,0 323.5,0 323.5,0 353.5,0 353.5,0 359.5,0 365.5,-6 365.5,-12 365.5,-12 365.5,-24 365.5,-24 365.5,-30 359.5,-36 353.5,-36"/>
<text text-anchor="middle" x="338.5" y="-15.5" font-family="sans" font-size="10.00" fill="#000000">finish</text>
</g>
<!-- 1 -->
<g id="node2" class="node">
<title>1</title>
<path fill="none" stroke="#8fd856" stroke-width="2" d="M373.5,-108C373.5,-108 303.5,-108 303.5,-108 297.5,-108 291.5,-102 291.5,-96 291.5,-96 291.5,-84 291.5,-84 291.5,-78 297.5,-72 303.5,-72 303.5,-72 373.5,-72 373.5,-72 379.5,-72 385.5,-78 385.5,-84 385.5,-84 385.5,-96 385.5,-96 385.5,-102 379.5,-108 373.5,-108"/>
<text text-anchor="middle" x="338.5" y="-87.5" font-family="sans" font-size="10.00" fill="#000000">MULTIQC_report</text>
</g>
<!-- 1&#45;&gt;0 -->
<g id="edge1" class="edge">
<title>1&#45;&gt;0</title>
<path fill="none" stroke="#c0c0c0" stroke-width="2" d="M338.5,-71.8314C338.5,-64.131 338.5,-54.9743 338.5,-46.4166"/>
<polygon fill="#c0c0c0" stroke="#c0c0c0" stroke-width="2" points="342.0001,-46.4132 338.5,-36.4133 335.0001,-46.4133 342.0001,-46.4132"/>
</g>
<!-- 2 -->
<g id="node3" class="node">
<title>2</title>
<path fill="none" stroke="#d8b456" stroke-width="2" d="M392.5,-180C392.5,-180 284.5,-180 284.5,-180 278.5,-180 272.5,-174 272.5,-168 272.5,-168 272.5,-156 272.5,-156 272.5,-150 278.5,-144 284.5,-144 284.5,-144 392.5,-144 392.5,-144 398.5,-144 404.5,-150 404.5,-156 404.5,-156 404.5,-168 404.5,-168 404.5,-174 398.5,-180 392.5,-180"/>
<text text-anchor="middle" x="338.5" y="-159.5" font-family="sans" font-size="10.00" fill="#000000">prepare_MultiQC_config</text>
</g>
<!-- 2&#45;&gt;1 -->
<g id="edge2" class="edge">
<title>2&#45;&gt;1</title>
<path fill="none" stroke="#c0c0c0" stroke-width="2" d="M338.5,-143.8314C338.5,-136.131 338.5,-126.9743 338.5,-118.4166"/>
<polygon fill="#c0c0c0" stroke="#c0c0c0" stroke-width="2" points="342.0001,-118.4132 338.5,-108.4133 335.0001,-118.4133 342.0001,-118.4132"/>
</g>
<!-- 3 -->
<g id="node4" class="node">
<title>3</title>
<path fill="none" stroke="#d8a456" stroke-width="2" d="M393,-252C393,-252 284,-252 284,-252 278,-252 272,-246 272,-240 272,-240 272,-228 272,-228 272,-222 278,-216 284,-216 284,-216 393,-216 393,-216 399,-216 405,-222 405,-228 405,-228 405,-240 405,-240 405,-246 399,-252 393,-252"/>
<text text-anchor="middle" x="338.5" y="-231.5" font-family="sans" font-size="10.00" fill="#000000">prepare_files_for_report</text>
</g>
<!-- 3&#45;&gt;2 -->
<g id="edge3" class="edge">
<title>3&#45;&gt;2</title>
<path fill="none" stroke="#c0c0c0" stroke-width="2" d="M338.5,-215.8314C338.5,-208.131 338.5,-198.9743 338.5,-190.4166"/>
<polygon fill="#c0c0c0" stroke="#c0c0c0" stroke-width="2" points="342.0001,-190.4132 338.5,-180.4133 335.0001,-190.4133 342.0001,-190.4132"/>
</g>
<!-- 4 -->
<g id="node5" class="node">
<title>4</title>
<path fill="none" stroke="#56d0d8" stroke-width="2" d="M84.5,-324C84.5,-324 44.5,-324 44.5,-324 38.5,-324 32.5,-318 32.5,-312 32.5,-312 32.5,-300 32.5,-300 32.5,-294 38.5,-288 44.5,-288 44.5,-288 84.5,-288 84.5,-288 90.5,-288 96.5,-294 96.5,-300 96.5,-300 96.5,-312 96.5,-312 96.5,-318 90.5,-324 84.5,-324"/>
<text text-anchor="middle" x="64.5" y="-303.5" font-family="sans" font-size="10.00" fill="#000000">pe_fastqc</text>
</g>
<!-- 4&#45;&gt;3 -->
<g id="edge8" class="edge">
<title>4&#45;&gt;3</title>
<path fill="none" stroke="#c0c0c0" stroke-width="2" d="M96.5074,-291.2746C99.5193,-290.0936 102.549,-288.9803 105.5,-288 156.7139,-270.9876 215.9793,-257.3312 261.9218,-248.0079"/>
<polygon fill="#c0c0c0" stroke="#c0c0c0" stroke-width="2" points="262.694,-251.4228 271.8113,-246.026 261.3185,-244.5593 262.694,-251.4228"/>
</g>
<!-- 5 -->
<g id="node6" class="node">
<title>5</title>
<path fill="none" stroke="#56d88a" stroke-width="2" d="M156.5,-324C156.5,-324 126.5,-324 126.5,-324 120.5,-324 114.5,-318 114.5,-312 114.5,-312 114.5,-300 114.5,-300 114.5,-294 120.5,-288 126.5,-288 126.5,-288 156.5,-288 156.5,-288 162.5,-288 168.5,-294 168.5,-300 168.5,-300 168.5,-312 168.5,-312 168.5,-318 162.5,-324 156.5,-324"/>
<text text-anchor="middle" x="141.5" y="-303.5" font-family="sans" font-size="10.00" fill="#000000">fastqc</text>
</g>
<!-- 5&#45;&gt;3 -->
<g id="edge4" class="edge">
<title>5&#45;&gt;3</title>
<path fill="none" stroke="#c0c0c0" stroke-width="2" d="M168.719,-293.6855C173.2937,-291.721 178.0125,-289.7585 182.5,-288 211.9795,-276.4482 245.0674,-264.8103 273.1593,-255.3118"/>
<polygon fill="#c0c0c0" stroke="#c0c0c0" stroke-width="2" points="274.5106,-258.5501 282.8733,-252.045 272.2793,-251.9152 274.5106,-258.5501"/>
</g>
<!-- 6 -->
<g id="node7" class="node">
<title>6</title>
<path fill="none" stroke="#56d8c9" stroke-width="2" d="M175,-756C175,-756 12,-756 12,-756 6,-756 0,-750 0,-744 0,-744 0,-732 0,-732 0,-726 6,-720 12,-720 12,-720 175,-720 175,-720 181,-720 187,-726 187,-732 187,-732 187,-744 187,-744 187,-750 181,-756 175,-756"/>
<text text-anchor="middle" x="93.5" y="-735.5" font-family="sans" font-size="10.00" fill="#000000">pe_genome_quantification_kallisto</text>
</g>
<!-- 6&#45;&gt;3 -->
<g id="edge7" class="edge">
<title>6&#45;&gt;3</title>
<path fill="none" stroke="#c0c0c0" stroke-width="2" d="M118.1711,-719.8169C148.6427,-695.0584 196.5,-647.6361 196.5,-594 196.5,-594 196.5,-594 196.5,-378 196.5,-322.7192 250.2129,-280.9675 291.5688,-257.0138"/>
<polygon fill="#c0c0c0" stroke="#c0c0c0" stroke-width="2" points="293.4399,-259.9773 300.4466,-252.0302 290.0133,-253.8733 293.4399,-259.9773"/>
</g>
<!-- 7 -->
<g id="node8" class="node">
<title>7</title>
<path fill="none" stroke="#61d856" stroke-width="2" d="M363.5,-756C363.5,-756 217.5,-756 217.5,-756 211.5,-756 205.5,-750 205.5,-744 205.5,-744 205.5,-732 205.5,-732 205.5,-726 211.5,-720 217.5,-720 217.5,-720 363.5,-720 363.5,-720 369.5,-720 375.5,-726 375.5,-732 375.5,-732 375.5,-744 375.5,-744 375.5,-750 369.5,-756 363.5,-756"/>
<text text-anchor="middle" x="290.5" y="-735.5" font-family="sans" font-size="10.00" fill="#000000">genome_quantification_kallisto</text>
</g>
<!-- 7&#45;&gt;3 -->
<g id="edge5" class="edge">
<title>7&#45;&gt;3</title>
<path fill="none" stroke="#c0c0c0" stroke-width="2" d="M275.1841,-719.5801C267.614,-709.608 258.9551,-696.7465 253.5,-684 237.415,-646.4157 234.5,-634.8816 234.5,-594 234.5,-594 234.5,-594 234.5,-378 234.5,-328.6014 275.2193,-284.6421 305.6997,-258.6562"/>
<polygon fill="#c0c0c0" stroke="#c0c0c0" stroke-width="2" points="308.1152,-261.2004 313.5894,-252.1293 303.6533,-255.8068 308.1152,-261.2004"/>
</g>
<!-- 8 -->
<g id="node9" class="node">
<title>8</title>
<path fill="none" stroke="#5692d8" stroke-width="2" d="M582.5,-396C582.5,-396 512.5,-396 512.5,-396 506.5,-396 500.5,-390 500.5,-384 500.5,-384 500.5,-372 500.5,-372 500.5,-366 506.5,-360 512.5,-360 512.5,-360 582.5,-360 582.5,-360 588.5,-360 594.5,-366 594.5,-372 594.5,-372 594.5,-384 594.5,-384 594.5,-390 588.5,-396 582.5,-396"/>
<text text-anchor="middle" x="547.5" y="-375.5" font-family="sans" font-size="10.00" fill="#000000">plot_TIN_scores</text>
</g>
<!-- 8&#45;&gt;3 -->
<g id="edge10" class="edge">
<title>8&#45;&gt;3</title>
<path fill="none" stroke="#c0c0c0" stroke-width="2" d="M533.9147,-359.6949C518.4412,-339.8788 491.5187,-308.3829 462.5,-288 444.171,-275.1256 422.2843,-264.348 402.0362,-255.8921"/>
<polygon fill="#c0c0c0" stroke="#c0c0c0" stroke-width="2" points="403.1424,-252.5639 392.56,-252.0501 400.5123,-259.051 403.1424,-252.5639"/>
</g>
<!-- 9 -->
<g id="node10" class="node">
<title>9</title>
<path fill="none" stroke="#56d8b9" stroke-width="2" d="M402.5,-684C402.5,-684 274.5,-684 274.5,-684 268.5,-684 262.5,-678 262.5,-672 262.5,-672 262.5,-660 262.5,-660 262.5,-654 268.5,-648 274.5,-648 274.5,-648 402.5,-648 402.5,-648 408.5,-648 414.5,-654 414.5,-660 414.5,-660 414.5,-672 414.5,-672 414.5,-678 408.5,-684 402.5,-684"/>
<text text-anchor="middle" x="338.5" y="-663.5" font-family="sans" font-size="10.00" fill="#000000">salmon_quantmerge_genes</text>
</g>
<!-- 9&#45;&gt;3 -->
<g id="edge6" class="edge">
<title>9&#45;&gt;3</title>
<path fill="none" stroke="#c0c0c0" stroke-width="2" d="M338.5,-647.8146C338.5,-620.4983 338.5,-567.25 338.5,-522 338.5,-522 338.5,-522 338.5,-378 338.5,-337.876 338.5,-291.4631 338.5,-262.4177"/>
<polygon fill="#c0c0c0" stroke="#c0c0c0" stroke-width="2" points="342.0001,-262.1853 338.5,-252.1854 335.0001,-262.1854 342.0001,-262.1853"/>
</g>
<!-- 10 -->
<g id="node11" class="node">
<title>10</title>
<path fill="none" stroke="#bed856" stroke-width="2" d="M594.5,-684C594.5,-684 444.5,-684 444.5,-684 438.5,-684 432.5,-678 432.5,-672 432.5,-672 432.5,-660 432.5,-660 432.5,-654 438.5,-648 444.5,-648 444.5,-648 594.5,-648 594.5,-648 600.5,-648 606.5,-654 606.5,-660 606.5,-660 606.5,-672 606.5,-672 606.5,-678 600.5,-684 594.5,-684"/>
<text text-anchor="middle" x="519.5" y="-663.5" font-family="sans" font-size="10.00" fill="#000000">salmon_quantmerge_transcripts</text>
</g>
<!-- 10&#45;&gt;3 -->
<g id="edge11" class="edge">
<title>10&#45;&gt;3</title>
<path fill="none" stroke="#c0c0c0" stroke-width="2" d="M503.7428,-647.8597C482.8256,-621.8524 448.5,-571.6151 448.5,-522 448.5,-522 448.5,-522 448.5,-378 448.5,-327.5369 405.3128,-283.7768 373.0594,-258.1321"/>
<polygon fill="#c0c0c0" stroke="#c0c0c0" stroke-width="2" points="375.1825,-255.3495 365.1279,-252.0095 370.9051,-260.8907 375.1825,-255.3495"/>
</g>
<!-- 11 -->
<g id="node12" class="node">
<title>11</title>
<path fill="none" stroke="#5673d8" stroke-width="2" d="M989.5,-612C989.5,-612 953.5,-612 953.5,-612 947.5,-612 941.5,-606 941.5,-600 941.5,-600 941.5,-588 941.5,-588 941.5,-582 947.5,-576 953.5,-576 953.5,-576 989.5,-576 989.5,-576 995.5,-576 1001.5,-582 1001.5,-588 1001.5,-588 1001.5,-600 1001.5,-600 1001.5,-606 995.5,-612 989.5,-612"/>
<text text-anchor="middle" x="971.5" y="-591.5" font-family="sans" font-size="10.00" fill="#000000">star_rpm</text>
</g>
<!-- 11&#45;&gt;3 -->
<g id="edge12" class="edge">
<title>11&#45;&gt;3</title>
<path fill="none" stroke="#c0c0c0" stroke-width="2" d="M941.3162,-586.1618C866.1306,-565.7547 676.5,-508.4873 676.5,-450 676.5,-450 676.5,-450 676.5,-378 676.5,-321.5184 514.7343,-274.2676 415.0242,-250.5076"/>
<polygon fill="#c0c0c0" stroke="#c0c0c0" stroke-width="2" points="415.8139,-247.0979 405.2779,-248.2127 414.2095,-253.9116 415.8139,-247.0979"/>
</g>
<!-- 31 -->
<g id="node32" class="node">
<title>31</title>
<path fill="none" stroke="#d86656" stroke-width="2" d="M1032.5,-540C1032.5,-540 910.5,-540 910.5,-540 904.5,-540 898.5,-534 898.5,-528 898.5,-528 898.5,-516 898.5,-516 898.5,-510 904.5,-504 910.5,-504 910.5,-504 1032.5,-504 1032.5,-504 1038.5,-504 1044.5,-510 1044.5,-516 1044.5,-516 1044.5,-528 1044.5,-528 1044.5,-534 1038.5,-540 1032.5,-540"/>
<text text-anchor="middle" x="971.5" y="-519.5" font-family="sans" font-size="10.00" fill="#000000">rename_star_rpm_for_alfa</text>
</g>
<!-- 11&#45;&gt;31 -->
<g id="edge48" class="edge">
<title>11&#45;&gt;31</title>
<path fill="none" stroke="#c0c0c0" stroke-width="2" d="M971.5,-575.8314C971.5,-568.131 971.5,-558.9743 971.5,-550.4166"/>
<polygon fill="#c0c0c0" stroke="#c0c0c0" stroke-width="2" points="975.0001,-550.4132 971.5,-540.4133 968.0001,-550.4133 975.0001,-550.4132"/>
</g>
<!-- 12 -->
<g id="node13" class="node">
<title>12</title>
<path fill="none" stroke="#56b1d8" stroke-width="2" d="M889,-324C889,-324 802,-324 802,-324 796,-324 790,-318 790,-312 790,-312 790,-300 790,-300 790,-294 796,-288 802,-288 802,-288 889,-288 889,-288 895,-288 901,-294 901,-300 901,-300 901,-312 901,-312 901,-318 895,-324 889,-324"/>
<text text-anchor="middle" x="845.5" y="-303.5" font-family="sans" font-size="10.00" fill="#000000">alfa_concat_results</text>
</g>
<!-- 12&#45;&gt;3 -->
<g id="edge9" class="edge">
<title>12&#45;&gt;3</title>
<path fill="none" stroke="#c0c0c0" stroke-width="2" d="M789.7918,-298.0888C698.802,-285.1672 518.1379,-259.5107 415.1331,-244.8828"/>
<polygon fill="#c0c0c0" stroke="#c0c0c0" stroke-width="2" points="415.5004,-241.3999 405.1076,-243.4591 414.5161,-248.3304 415.5004,-241.3999"/>
</g>
<!-- 13 -->
<g id="node14" class="node">
<title>13</title>
<path fill="none" stroke="#56d8a9" stroke-width="2" d="M446.5,-828C446.5,-828 318.5,-828 318.5,-828 312.5,-828 306.5,-822 306.5,-816 306.5,-816 306.5,-804 306.5,-804 306.5,-798 312.5,-792 318.5,-792 318.5,-792 446.5,-792 446.5,-792 452.5,-792 458.5,-798 458.5,-804 458.5,-804 458.5,-816 458.5,-816 458.5,-822 452.5,-828 446.5,-828"/>
<text text-anchor="middle" x="382.5" y="-807.5" font-family="sans" font-size="10.00" fill="#000000">pe_remove_polya_cutadapt</text>
</g>
<!-- 13&#45;&gt;6 -->
<g id="edge13" class="edge">
<title>13&#45;&gt;6</title>
<path fill="none" stroke="#c0c0c0" stroke-width="2" d="M309.9461,-791.9243C269.0723,-781.7412 217.8873,-768.9892 175.5552,-758.4428"/>
<polygon fill="#c0c0c0" stroke="#c0c0c0" stroke-width="2" points="176.3826,-755.042 165.833,-756.0207 174.6903,-761.8344 176.3826,-755.042"/>
</g>
<!-- 17 -->
<g id="node18" class="node">
<title>17</title>
<path fill="none" stroke="#d87556" stroke-width="2" d="M523.5,-756C523.5,-756 405.5,-756 405.5,-756 399.5,-756 393.5,-750 393.5,-744 393.5,-744 393.5,-732 393.5,-732 393.5,-726 399.5,-720 405.5,-720 405.5,-720 523.5,-720 523.5,-720 529.5,-720 535.5,-726 535.5,-732 535.5,-732 535.5,-744 535.5,-744 535.5,-750 529.5,-756 523.5,-756"/>
<text text-anchor="middle" x="464.5" y="-735.5" font-family="sans" font-size="10.00" fill="#000000">pe_quantification_salmon</text>
</g>
<!-- 13&#45;&gt;17 -->
<g id="edge30" class="edge">
<title>13&#45;&gt;17</title>
<path fill="none" stroke="#c0c0c0" stroke-width="2" d="M403.1921,-791.8314C413.1948,-783.0485 425.355,-772.3712 436.1999,-762.8489"/>
<polygon fill="#c0c0c0" stroke="#c0c0c0" stroke-width="2" points="438.6094,-765.3909 443.8146,-756.1628 433.9908,-760.1308 438.6094,-765.3909"/>
</g>
<!-- 19 -->
<g id="node20" class="node">
<title>19</title>
<path fill="none" stroke="#d88556" stroke-width="2" d="M981,-756C981,-756 880,-756 880,-756 874,-756 868,-750 868,-744 868,-744 868,-732 868,-732 868,-726 874,-720 880,-720 880,-720 981,-720 981,-720 987,-720 993,-726 993,-732 993,-732 993,-744 993,-744 993,-750 987,-756 981,-756"/>
<text text-anchor="middle" x="930.5" y="-735.5" font-family="sans" font-size="10.00" fill="#000000">pe_map_genome_star</text>
</g>
<!-- 13&#45;&gt;19 -->
<g id="edge35" class="edge">
<title>13&#45;&gt;19</title>
<path fill="none" stroke="#c0c0c0" stroke-width="2" d="M458.8927,-793.4742C461.795,-792.9571 464.6717,-792.4634 467.5,-792 604.7105,-769.5199 766.2912,-752.8915 857.7293,-744.3857"/>
<polygon fill="#c0c0c0" stroke="#c0c0c0" stroke-width="2" points="858.0763,-747.8686 867.7119,-743.4635 857.4323,-740.8983 858.0763,-747.8686"/>
</g>
<!-- 14 -->
<g id="node15" class="node">
<title>14</title>
<path fill="none" stroke="#d85656" stroke-width="2" d="M272,-828C272,-828 175,-828 175,-828 169,-828 163,-822 163,-816 163,-816 163,-804 163,-804 163,-798 169,-792 175,-792 175,-792 272,-792 272,-792 278,-792 284,-798 284,-804 284,-804 284,-816 284,-816 284,-822 278,-828 272,-828"/>
<text text-anchor="middle" x="223.5" y="-807.5" font-family="sans" font-size="10.00" fill="#000000">create_index_kallisto</text>
</g>
<!-- 14&#45;&gt;6 -->
<g id="edge14" class="edge">
<title>14&#45;&gt;6</title>
<path fill="none" stroke="#c0c0c0" stroke-width="2" d="M190.6955,-791.8314C173.9138,-782.5368 153.3015,-771.1208 135.3837,-761.1971"/>
<polygon fill="#c0c0c0" stroke="#c0c0c0" stroke-width="2" points="136.7377,-757.9461 126.294,-756.1628 133.3462,-764.0696 136.7377,-757.9461"/>
</g>
<!-- 14&#45;&gt;7 -->
<g id="edge15" class="edge">
<title>14&#45;&gt;7</title>
<path fill="none" stroke="#c0c0c0" stroke-width="2" d="M240.4069,-791.8314C248.2813,-783.3694 257.792,-773.1489 266.4013,-763.8971"/>
<polygon fill="#c0c0c0" stroke="#c0c0c0" stroke-width="2" points="269.1153,-766.1183 273.3654,-756.4133 263.9908,-761.3497 269.1153,-766.1183"/>
</g>
<!-- 15 -->
<g id="node16" class="node">
<title>15</title>
<path fill="none" stroke="#5663d8" stroke-width="2" d="M738.5,-828C738.5,-828 628.5,-828 628.5,-828 622.5,-828 616.5,-822 616.5,-816 616.5,-816 616.5,-804 616.5,-804 616.5,-798 622.5,-792 628.5,-792 628.5,-792 738.5,-792 738.5,-792 744.5,-792 750.5,-798 750.5,-804 750.5,-804 750.5,-816 750.5,-816 750.5,-822 744.5,-828 738.5,-828"/>
<text text-anchor="middle" x="683.5" y="-807.5" font-family="sans" font-size="10.00" fill="#000000">remove_polya_cutadapt</text>
</g>
<!-- 15&#45;&gt;7 -->
<g id="edge16" class="edge">
<title>15&#45;&gt;7</title>
<path fill="none" stroke="#c0c0c0" stroke-width="2" d="M616.3672,-794.0196C613.0352,-793.3165 609.7323,-792.6391 606.5,-792 511.6028,-773.2369 484.649,-773.3713 385.6674,-756.1726"/>
<polygon fill="#c0c0c0" stroke="#c0c0c0" stroke-width="2" points="385.9887,-752.6756 375.5344,-754.3954 384.7794,-759.5704 385.9887,-752.6756"/>
</g>
<!-- 18 -->
<g id="node19" class="node">
<title>18</title>
<path fill="none" stroke="#56d87b" stroke-width="2" d="M667,-756C667,-756 566,-756 566,-756 560,-756 554,-750 554,-744 554,-744 554,-732 554,-732 554,-726 560,-720 566,-720 566,-720 667,-720 667,-720 673,-720 679,-726 679,-732 679,-732 679,-744 679,-744 679,-750 673,-756 667,-756"/>
<text text-anchor="middle" x="616.5" y="-735.5" font-family="sans" font-size="10.00" fill="#000000">quantification_salmon</text>
</g>
<!-- 15&#45;&gt;18 -->
<g id="edge33" class="edge">
<title>15&#45;&gt;18</title>
<path fill="none" stroke="#c0c0c0" stroke-width="2" d="M666.5931,-791.8314C658.7187,-783.3694 649.208,-773.1489 640.5987,-763.8971"/>
<polygon fill="#c0c0c0" stroke="#c0c0c0" stroke-width="2" points="643.0092,-761.3497 633.6346,-756.4133 637.8847,-766.1183 643.0092,-761.3497"/>
</g>
<!-- 21 -->
<g id="node22" class="node">
<title>21</title>
<path fill="none" stroke="#d8d356" stroke-width="2" d="M1106,-756C1106,-756 1023,-756 1023,-756 1017,-756 1011,-750 1011,-744 1011,-744 1011,-732 1011,-732 1011,-726 1017,-720 1023,-720 1023,-720 1106,-720 1106,-720 1112,-720 1118,-726 1118,-732 1118,-732 1118,-744 1118,-744 1118,-750 1112,-756 1106,-756"/>
<text text-anchor="middle" x="1064.5" y="-735.5" font-family="sans" font-size="10.00" fill="#000000">map_genome_star</text>
</g>
<!-- 15&#45;&gt;21 -->
<g id="edge39" class="edge">
<title>15&#45;&gt;21</title>
<path fill="none" stroke="#c0c0c0" stroke-width="2" d="M750.5367,-800.9396C813.1135,-791.9636 909.2168,-776.8572 1000.835,-756.2636"/>
<polygon fill="#c0c0c0" stroke="#c0c0c0" stroke-width="2" points="1001.8553,-759.621 1010.8302,-753.9907 1000.303,-752.7953 1001.8553,-759.621"/>
</g>
<!-- 16 -->
<g id="node17" class="node">
<title>16</title>
<path fill="none" stroke="#56c1d8" stroke-width="2" d="M615,-540C615,-540 532,-540 532,-540 526,-540 520,-534 520,-528 520,-528 520,-516 520,-516 520,-510 526,-504 532,-504 532,-504 615,-504 615,-504 621,-504 627,-510 627,-516 627,-516 627,-528 627,-528 627,-534 621,-540 615,-540"/>
<text text-anchor="middle" x="573.5" y="-519.5" font-family="sans" font-size="10.00" fill="#000000">merge_TIN_scores</text>
</g>
<!-- 16&#45;&gt;8 -->
<g id="edge17" class="edge">
<title>16&#45;&gt;8</title>
<path fill="none" stroke="#c0c0c0" stroke-width="2" d="M570.2071,-503.7623C565.7529,-479.0928 557.7663,-434.8598 552.5507,-405.9731"/>
<polygon fill="#c0c0c0" stroke="#c0c0c0" stroke-width="2" points="555.9874,-405.3086 550.7662,-396.0896 549.0988,-406.5524 555.9874,-405.3086"/>
</g>
<!-- 17&#45;&gt;9 -->
<g id="edge19" class="edge">
<title>17&#45;&gt;9</title>
<path fill="none" stroke="#c0c0c0" stroke-width="2" d="M432.7049,-719.8314C416.4395,-710.5368 396.4614,-699.1208 379.0949,-689.1971"/>
<polygon fill="#c0c0c0" stroke="#c0c0c0" stroke-width="2" points="380.7039,-686.0854 370.2849,-684.1628 377.2309,-692.1631 380.7039,-686.0854"/>
</g>
<!-- 17&#45;&gt;10 -->
<g id="edge21" class="edge">
<title>17&#45;&gt;10</title>
<path fill="none" stroke="#c0c0c0" stroke-width="2" d="M478.3788,-719.8314C484.7136,-711.5386 492.3384,-701.557 499.2926,-692.4533"/>
<polygon fill="#c0c0c0" stroke="#c0c0c0" stroke-width="2" points="502.1452,-694.4847 505.4343,-684.4133 496.5825,-690.2353 502.1452,-694.4847"/>
</g>
<!-- 18&#45;&gt;9 -->
<g id="edge18" class="edge">
<title>18&#45;&gt;9</title>
<path fill="none" stroke="#c0c0c0" stroke-width="2" d="M553.7647,-721.752C513.6508,-711.3628 461.2633,-697.7948 418.2129,-686.6451"/>
<polygon fill="#c0c0c0" stroke="#c0c0c0" stroke-width="2" points="418.8911,-683.2053 408.3329,-684.0862 417.136,-689.9817 418.8911,-683.2053"/>
</g>
<!-- 18&#45;&gt;10 -->
<g id="edge20" class="edge">
<title>18&#45;&gt;10</title>
<path fill="none" stroke="#c0c0c0" stroke-width="2" d="M592.0228,-719.8314C579.9605,-710.8779 565.246,-699.9558 552.2314,-690.2955"/>
<polygon fill="#c0c0c0" stroke="#c0c0c0" stroke-width="2" points="554.0852,-687.3127 543.9694,-684.1628 549.913,-692.9335 554.0852,-687.3127"/>
</g>
<!-- 19&#45;&gt;11 -->
<g id="edge22" class="edge">
<title>19&#45;&gt;11</title>
<path fill="none" stroke="#c0c0c0" stroke-width="2" d="M993.0894,-723.1441C1013.3376,-715.0538 1033.6146,-702.7114 1045.5,-684 1054.0788,-670.4943 1052.749,-662.2637 1045.5,-648 1037.9342,-633.1129 1024.1258,-621.3535 1010.4685,-612.6606"/>
<polygon fill="#c0c0c0" stroke="#c0c0c0" stroke-width="2" points="1011.9689,-609.4812 1001.5827,-607.3889 1008.3972,-615.5014 1011.9689,-609.4812"/>
</g>
<!-- 20 -->
<g id="node21" class="node">
<title>20</title>
<path fill="none" stroke="#56a2d8" stroke-width="2" d="M1024.5,-684C1024.5,-684 852.5,-684 852.5,-684 846.5,-684 840.5,-678 840.5,-672 840.5,-672 840.5,-660 840.5,-660 840.5,-654 846.5,-648 852.5,-648 852.5,-648 1024.5,-648 1024.5,-648 1030.5,-648 1036.5,-654 1036.5,-660 1036.5,-660 1036.5,-672 1036.5,-672 1036.5,-678 1030.5,-684 1024.5,-684"/>
<text text-anchor="middle" x="938.5" y="-663.5" font-family="sans" font-size="10.00" fill="#000000">index_genomic_alignment_samtools</text>
</g>
<!-- 19&#45;&gt;20 -->
<g id="edge36" class="edge">
<title>19&#45;&gt;20</title>
<path fill="none" stroke="#c0c0c0" stroke-width="2" d="M932.5187,-719.8314C933.3743,-712.131 934.3917,-702.9743 935.3426,-694.4166"/>
<polygon fill="#c0c0c0" stroke="#c0c0c0" stroke-width="2" points="938.8283,-694.7386 936.4541,-684.4133 931.8711,-693.9656 938.8283,-694.7386"/>
</g>
<!-- 26 -->
<g id="node27" class="node">
<title>26</title>
<path fill="none" stroke="#9fd856" stroke-width="2" d="M860,-612C860,-612 765,-612 765,-612 759,-612 753,-606 753,-600 753,-600 753,-588 753,-588 753,-582 759,-576 765,-576 765,-576 860,-576 860,-576 866,-576 872,-582 872,-588 872,-588 872,-600 872,-600 872,-606 866,-612 860,-612"/>
<text text-anchor="middle" x="812.5" y="-591.5" font-family="sans" font-size="10.00" fill="#000000">calculate_TIN_scores</text>
</g>
<!-- 19&#45;&gt;26 -->
<g id="edge41" class="edge">
<title>19&#45;&gt;26</title>
<path fill="none" stroke="#c0c0c0" stroke-width="2" d="M878.2953,-719.9048C861.0278,-711.4985 843.2465,-699.7849 831.5,-684 818.2888,-666.2468 813.8129,-641.3423 812.4865,-622.2306"/>
<polygon fill="#c0c0c0" stroke="#c0c0c0" stroke-width="2" points="815.9733,-621.8532 812.0325,-612.0186 808.9802,-622.1642 815.9733,-621.8532"/>
</g>
<!-- 20&#45;&gt;11 -->
<g id="edge24" class="edge">
<title>20&#45;&gt;11</title>
<path fill="none" stroke="#c0c0c0" stroke-width="2" d="M946.8273,-647.8314C950.473,-639.8771 954.8309,-630.369 958.8627,-621.5723"/>
<polygon fill="#c0c0c0" stroke="#c0c0c0" stroke-width="2" points="962.0757,-622.9622 963.0606,-612.4133 955.7123,-620.0456 962.0757,-622.9622"/>
</g>
<!-- 20&#45;&gt;26 -->
<g id="edge43" class="edge">
<title>20&#45;&gt;26</title>
<path fill="none" stroke="#c0c0c0" stroke-width="2" d="M906.7049,-647.8314C890.4395,-638.5368 870.4614,-627.1208 853.0949,-617.1971"/>
<polygon fill="#c0c0c0" stroke="#c0c0c0" stroke-width="2" points="854.7039,-614.0854 844.2849,-612.1628 851.2309,-620.1631 854.7039,-614.0854"/>
</g>
<!-- 21&#45;&gt;11 -->
<g id="edge23" class="edge">
<title>21&#45;&gt;11</title>
<path fill="none" stroke="#c0c0c0" stroke-width="2" d="M1068.7164,-719.6926C1072.1057,-700.4444 1074.4231,-669.963 1061.5,-648 1050.3537,-629.0567 1029.7305,-615.9763 1011.0356,-607.4394"/>
<polygon fill="#c0c0c0" stroke="#c0c0c0" stroke-width="2" points="1012.3518,-604.1958 1001.7802,-603.4952 1009.6075,-610.6355 1012.3518,-604.1958"/>
</g>
<!-- 21&#45;&gt;20 -->
<g id="edge37" class="edge">
<title>21&#45;&gt;20</title>
<path fill="none" stroke="#c0c0c0" stroke-width="2" d="M1032.7049,-719.8314C1016.4395,-710.5368 996.4614,-699.1208 979.0949,-689.1971"/>
<polygon fill="#c0c0c0" stroke="#c0c0c0" stroke-width="2" points="980.7039,-686.0854 970.2849,-684.1628 977.2309,-692.1631 980.7039,-686.0854"/>
</g>
<!-- 21&#45;&gt;26 -->
<g id="edge42" class="edge">
<title>21&#45;&gt;26</title>
<path fill="none" stroke="#c0c0c0" stroke-width="2" d="M1065.9775,-719.8347C1066.5678,-699.5401 1064.1713,-667.0424 1045.5,-648 1033.9274,-636.1973 946.6077,-618.1855 882.2472,-606.255"/>
<polygon fill="#c0c0c0" stroke="#c0c0c0" stroke-width="2" points="882.5982,-602.7609 872.13,-604.3943 881.3319,-609.6454 882.5982,-602.7609"/>
</g>
<!-- 22 -->
<g id="node23" class="node">
<title>22</title>
<path fill="none" stroke="#d89556" stroke-width="2" d="M971.5,-396C971.5,-396 879.5,-396 879.5,-396 873.5,-396 867.5,-390 867.5,-384 867.5,-384 867.5,-372 867.5,-372 867.5,-366 873.5,-360 879.5,-360 879.5,-360 971.5,-360 971.5,-360 977.5,-360 983.5,-366 983.5,-372 983.5,-372 983.5,-384 983.5,-384 983.5,-390 977.5,-396 971.5,-396"/>
<text text-anchor="middle" x="925.5" y="-375.5" font-family="sans" font-size="10.00" fill="#000000">alfa_qc_all_samples</text>
</g>
<!-- 22&#45;&gt;12 -->
<g id="edge25" class="edge">
<title>22&#45;&gt;12</title>
<path fill="none" stroke="#c0c0c0" stroke-width="2" d="M905.3126,-359.8314C895.6486,-351.1337 883.9204,-340.5783 873.4184,-331.1265"/>
<polygon fill="#c0c0c0" stroke="#c0c0c0" stroke-width="2" points="875.4553,-328.251 865.6809,-324.1628 870.7725,-333.454 875.4553,-328.251"/>
</g>
<!-- 23 -->
<g id="node24" class="node">
<title>23</title>
<path fill="none" stroke="#afd856" stroke-width="2" d="M459,-900C459,-900 316,-900 316,-900 310,-900 304,-894 304,-888 304,-888 304,-876 304,-876 304,-870 310,-864 316,-864 316,-864 459,-864 459,-864 465,-864 471,-870 471,-876 471,-876 471,-888 471,-888 471,-894 465,-900 459,-900"/>
<text text-anchor="middle" x="387.5" y="-879.5" font-family="sans" font-size="10.00" fill="#000000">pe_remove_adapters_cutadapt</text>
</g>
<!-- 23&#45;&gt;13 -->
<g id="edge26" class="edge">
<title>23&#45;&gt;13</title>
<path fill="none" stroke="#c0c0c0" stroke-width="2" d="M386.2383,-863.8314C385.7035,-856.131 385.0677,-846.9743 384.4734,-838.4166"/>
<polygon fill="#c0c0c0" stroke="#c0c0c0" stroke-width="2" points="387.9632,-838.1467 383.7787,-828.4133 380.98,-838.6317 387.9632,-838.1467"/>
</g>
<!-- 24 -->
<g id="node25" class="node">
<title>24</title>
<path fill="none" stroke="#56d89a" stroke-width="2" d="M274,-900C274,-900 173,-900 173,-900 167,-900 161,-894 161,-888 161,-888 161,-876 161,-876 161,-870 167,-864 173,-864 173,-864 274,-864 274,-864 280,-864 286,-870 286,-876 286,-876 286,-888 286,-888 286,-894 280,-900 274,-900"/>
<text text-anchor="middle" x="223.5" y="-879.5" font-family="sans" font-size="10.00" fill="#000000">extract_transcriptome</text>
</g>
<!-- 24&#45;&gt;14 -->
<g id="edge27" class="edge">
<title>24&#45;&gt;14</title>
<path fill="none" stroke="#c0c0c0" stroke-width="2" d="M223.5,-863.8314C223.5,-856.131 223.5,-846.9743 223.5,-838.4166"/>
<polygon fill="#c0c0c0" stroke="#c0c0c0" stroke-width="2" points="227.0001,-838.4132 223.5,-828.4133 220.0001,-838.4133 227.0001,-838.4132"/>
</g>
<!-- 27 -->
<g id="node28" class="node">
<title>27</title>
<path fill="none" stroke="#56d86b" stroke-width="2" d="M586,-828C586,-828 489,-828 489,-828 483,-828 477,-822 477,-816 477,-816 477,-804 477,-804 477,-798 483,-792 489,-792 489,-792 586,-792 586,-792 592,-792 598,-798 598,-804 598,-804 598,-816 598,-816 598,-822 592,-828 586,-828"/>
<text text-anchor="middle" x="537.5" y="-807.5" font-family="sans" font-size="10.00" fill="#000000">create_index_salmon</text>
</g>
<!-- 24&#45;&gt;27 -->
<g id="edge45" class="edge">
<title>24&#45;&gt;27</title>
<path fill="none" stroke="#c0c0c0" stroke-width="2" d="M286.1843,-865.9522C288.9922,-865.2826 291.774,-864.6289 294.5,-864 368.0367,-847.0355 389.357,-845.8541 467.0718,-828.0404"/>
<polygon fill="#c0c0c0" stroke="#c0c0c0" stroke-width="2" points="467.8812,-831.4456 476.836,-825.7833 466.3047,-824.6255 467.8812,-831.4456"/>
</g>
<!-- 25 -->
<g id="node26" class="node">
<title>25</title>
<path fill="none" stroke="#80d856" stroke-width="2" d="M746.5,-900C746.5,-900 620.5,-900 620.5,-900 614.5,-900 608.5,-894 608.5,-888 608.5,-888 608.5,-876 608.5,-876 608.5,-870 614.5,-864 620.5,-864 620.5,-864 746.5,-864 746.5,-864 752.5,-864 758.5,-870 758.5,-876 758.5,-876 758.5,-888 758.5,-888 758.5,-894 752.5,-900 746.5,-900"/>
<text text-anchor="middle" x="683.5" y="-879.5" font-family="sans" font-size="10.00" fill="#000000">remove_adapters_cutadapt</text>
</g>
<!-- 25&#45;&gt;15 -->
<g id="edge28" class="edge">
<title>25&#45;&gt;15</title>
<path fill="none" stroke="#c0c0c0" stroke-width="2" d="M683.5,-863.8314C683.5,-856.131 683.5,-846.9743 683.5,-838.4166"/>
<polygon fill="#c0c0c0" stroke="#c0c0c0" stroke-width="2" points="687.0001,-838.4132 683.5,-828.4133 680.0001,-838.4133 687.0001,-838.4132"/>
</g>
<!-- 26&#45;&gt;16 -->
<g id="edge29" class="edge">
<title>26&#45;&gt;16</title>
<path fill="none" stroke="#c0c0c0" stroke-width="2" d="M752.8067,-576.0171C717.5467,-565.3948 672.9268,-551.9529 637.0192,-541.1355"/>
<polygon fill="#c0c0c0" stroke="#c0c0c0" stroke-width="2" points="637.722,-537.6919 627.1374,-538.1586 635.7028,-544.3944 637.722,-537.6919"/>
</g>
<!-- 27&#45;&gt;17 -->
<g id="edge31" class="edge">
<title>27&#45;&gt;17</title>
<path fill="none" stroke="#c0c0c0" stroke-width="2" d="M519.079,-791.8314C510.3471,-783.219 499.7683,-772.7851 490.2577,-763.4048"/>
<polygon fill="#c0c0c0" stroke="#c0c0c0" stroke-width="2" points="492.4925,-760.6931 482.9151,-756.1628 487.577,-765.6769 492.4925,-760.6931"/>
</g>
<!-- 27&#45;&gt;18 -->
<g id="edge32" class="edge">
<title>27&#45;&gt;18</title>
<path fill="none" stroke="#c0c0c0" stroke-width="2" d="M557.435,-791.8314C566.9783,-783.1337 578.5599,-772.5783 588.9306,-763.1265"/>
<polygon fill="#c0c0c0" stroke="#c0c0c0" stroke-width="2" points="591.538,-765.4857 596.5713,-756.1628 586.8228,-760.3121 591.538,-765.4857"/>
</g>
<!-- 28 -->
<g id="node29" class="node">
<title>28</title>
<path fill="none" stroke="#ced856" stroke-width="2" d="M1104.5,-828C1104.5,-828 1024.5,-828 1024.5,-828 1018.5,-828 1012.5,-822 1012.5,-816 1012.5,-816 1012.5,-804 1012.5,-804 1012.5,-798 1018.5,-792 1024.5,-792 1024.5,-792 1104.5,-792 1104.5,-792 1110.5,-792 1116.5,-798 1116.5,-804 1116.5,-804 1116.5,-816 1116.5,-816 1116.5,-822 1110.5,-828 1104.5,-828"/>
<text text-anchor="middle" x="1064.5" y="-807.5" font-family="sans" font-size="10.00" fill="#000000">create_index_star</text>
</g>
<!-- 28&#45;&gt;19 -->
<g id="edge34" class="edge">
<title>28&#45;&gt;19</title>
<path fill="none" stroke="#c0c0c0" stroke-width="2" d="M1030.6861,-791.8314C1013.2293,-782.4516 991.7513,-770.9112 973.1648,-760.9244"/>
<polygon fill="#c0c0c0" stroke="#c0c0c0" stroke-width="2" points="974.7686,-757.8129 964.303,-756.1628 971.4554,-763.9792 974.7686,-757.8129"/>
</g>
<!-- 28&#45;&gt;21 -->
<g id="edge38" class="edge">
<title>28&#45;&gt;21</title>
<path fill="none" stroke="#c0c0c0" stroke-width="2" d="M1064.5,-791.8314C1064.5,-784.131 1064.5,-774.9743 1064.5,-766.4166"/>
<polygon fill="#c0c0c0" stroke="#c0c0c0" stroke-width="2" points="1068.0001,-766.4132 1064.5,-756.4133 1061.0001,-766.4133 1068.0001,-766.4132"/>
</g>
<!-- 32 -->
<g id="node33" class="node">
<title>32</title>
<path fill="none" stroke="#5682d8" stroke-width="2" d="M1190.5,-612C1190.5,-612 1098.5,-612 1098.5,-612 1092.5,-612 1086.5,-606 1086.5,-600 1086.5,-600 1086.5,-588 1086.5,-588 1086.5,-582 1092.5,-576 1098.5,-576 1098.5,-576 1190.5,-576 1190.5,-576 1196.5,-576 1202.5,-582 1202.5,-588 1202.5,-588 1202.5,-600 1202.5,-600 1202.5,-606 1196.5,-612 1190.5,-612"/>
<text text-anchor="middle" x="1144.5" y="-591.5" font-family="sans" font-size="10.00" fill="#000000">generate_alfa_index</text>
</g>
<!-- 28&#45;&gt;32 -->
<g id="edge49" class="edge">
<title>28&#45;&gt;32</title>
<path fill="none" stroke="#c0c0c0" stroke-width="2" d="M1094.4299,-791.7677C1106.7731,-782.6238 1119.9345,-770.4134 1127.5,-756 1149.7961,-713.5226 1150.0078,-656.2043 1147.6133,-622.3666"/>
<polygon fill="#c0c0c0" stroke="#c0c0c0" stroke-width="2" points="1151.089,-621.9281 1146.769,-612.254 1144.1132,-622.5105 1151.089,-621.9281"/>
</g>
<!-- 29 -->
<g id="node30" class="node">
<title>29</title>
<path fill="none" stroke="#70d856" stroke-width="2" d="M986.5,-468C986.5,-468 956.5,-468 956.5,-468 950.5,-468 944.5,-462 944.5,-456 944.5,-456 944.5,-444 944.5,-444 944.5,-438 950.5,-432 956.5,-432 956.5,-432 986.5,-432 986.5,-432 992.5,-432 998.5,-438 998.5,-444 998.5,-444 998.5,-456 998.5,-456 998.5,-462 992.5,-468 986.5,-468"/>
<text text-anchor="middle" x="971.5" y="-447.5" font-family="sans" font-size="10.00" fill="#000000">alfa_qc</text>
</g>
<!-- 29&#45;&gt;22 -->
<g id="edge40" class="edge">
<title>29&#45;&gt;22</title>
<path fill="none" stroke="#c0c0c0" stroke-width="2" d="M959.8923,-431.8314C954.7022,-423.7079 948.4768,-413.9637 942.7575,-405.0118"/>
<polygon fill="#c0c0c0" stroke="#c0c0c0" stroke-width="2" points="945.5974,-402.9559 937.264,-396.4133 939.6985,-406.7246 945.5974,-402.9559"/>
</g>
<!-- 30 -->
<g id="node31" class="node">
<title>30</title>
<path fill="none" stroke="#d8c356" stroke-width="2" d="M772.5,-684C772.5,-684 636.5,-684 636.5,-684 630.5,-684 624.5,-678 624.5,-672 624.5,-672 624.5,-660 624.5,-660 624.5,-654 630.5,-648 636.5,-648 636.5,-648 772.5,-648 772.5,-648 778.5,-648 784.5,-654 784.5,-660 784.5,-660 784.5,-672 784.5,-672 784.5,-678 778.5,-684 772.5,-684"/>
<text text-anchor="middle" x="704.5" y="-663.5" font-family="sans" font-size="10.00" fill="#000000">extract_transcripts_as_bed12</text>
</g>
<!-- 30&#45;&gt;26 -->
<g id="edge44" class="edge">
<title>30&#45;&gt;26</title>
<path fill="none" stroke="#c0c0c0" stroke-width="2" d="M731.753,-647.8314C745.4389,-638.7074 762.1915,-627.539 776.8827,-617.7449"/>
<polygon fill="#c0c0c0" stroke="#c0c0c0" stroke-width="2" points="778.8767,-620.6221 785.2558,-612.1628 774.9938,-614.7977 778.8767,-620.6221"/>
</g>
<!-- 31&#45;&gt;29 -->
<g id="edge47" class="edge">
<title>31&#45;&gt;29</title>
<path fill="none" stroke="#c0c0c0" stroke-width="2" d="M971.5,-503.8314C971.5,-496.131 971.5,-486.9743 971.5,-478.4166"/>
<polygon fill="#c0c0c0" stroke="#c0c0c0" stroke-width="2" points="975.0001,-478.4132 971.5,-468.4133 968.0001,-478.4133 975.0001,-478.4132"/>
</g>
<!-- 32&#45;&gt;29 -->
<g id="edge46" class="edge">
<title>32&#45;&gt;29</title>
<path fill="none" stroke="#c0c0c0" stroke-width="2" d="M1128.0138,-575.6758C1110.4778,-556.6857 1081.4648,-526.6656 1053.5,-504 1039.1341,-492.3564 1022.2183,-480.8839 1007.4936,-471.5284"/>
<polygon fill="#c0c0c0" stroke="#c0c0c0" stroke-width="2" points="1008.9846,-468.3326 998.651,-465.9943 1005.2709,-474.2663 1008.9846,-468.3326"/>
</g>
</g>
</svg>
