<?xml version="1.0" encoding="UTF-8" standalone="no"?>
<!DOCTYPE svg PUBLIC "-//W3C//DTD SVG 1.1//EN"
 "http://www.w3.org/Graphics/SVG/1.1/DTD/svg11.dtd">
<!-- Generated by graphviz version 2.40.1 (20161225.0304)
 -->
<!-- Title: snakemake_dag Pages: 1 -->
<svg width="1047pt" height="764pt"
 viewBox="0.00 0.00 1047.00 764.00" xmlns="http://www.w3.org/2000/svg" xmlns:xlink="http://www.w3.org/1999/xlink">
<g id="graph0" class="graph" transform="scale(1 1) rotate(0) translate(4 760)">
<title>snakemake_dag</title>
<polygon fill="#ffffff" stroke="transparent" points="-4,4 -4,-760 1043,-760 1043,4 -4,4"/>
<!-- 0 -->
<g id="node1" class="node">
<title>0</title>
<path fill="none" stroke="#59d856" stroke-width="2" d="M549,-36C549,-36 519,-36 519,-36 513,-36 507,-30 507,-24 507,-24 507,-12 507,-12 507,-6 513,0 519,0 519,0 549,0 549,0 555,0 561,-6 561,-12 561,-12 561,-24 561,-24 561,-30 555,-36 549,-36"/>
<text text-anchor="middle" x="534" y="-15" font-family="sans" font-size="10.00" fill="#000000">finish</text>
</g>
<!-- 1 -->
<g id="node2" class="node">
<title>1</title>
<path fill="none" stroke="#56d8a2" stroke-width="2" d="M473.8602,-108C473.8602,-108 418.1398,-108 418.1398,-108 412.1398,-108 406.1398,-102 406.1398,-96 406.1398,-96 406.1398,-84 406.1398,-84 406.1398,-78 412.1398,-72 418.1398,-72 418.1398,-72 473.8602,-72 473.8602,-72 479.8602,-72 485.8602,-78 485.8602,-84 485.8602,-84 485.8602,-96 485.8602,-96 485.8602,-102 479.8602,-108 473.8602,-108"/>
<text text-anchor="middle" x="446" y="-87" font-family="sans" font-size="10.00" fill="#000000">multiqc_report</text>
</g>
<!-- 1&#45;&gt;0 -->
<g id="edge5" class="edge">
<title>1&#45;&gt;0</title>
<path fill="none" stroke="#c0c0c0" stroke-width="2" d="M468.2061,-71.8314C479.045,-62.9632 492.2444,-52.1637 503.9678,-42.5718"/>
<polygon fill="#c0c0c0" stroke="#c0c0c0" stroke-width="2" points="506.2777,-45.2041 511.801,-36.1628 501.845,-39.7864 506.2777,-45.2041"/>
</g>
<!-- 2 -->
<g id="node3" class="node">
<title>2</title>
<path fill="none" stroke="#d8ac56" stroke-width="2" d="M45,-468C45,-468 15,-468 15,-468 9,-468 3,-462 3,-456 3,-456 3,-444 3,-444 3,-438 9,-432 15,-432 15,-432 45,-432 45,-432 51,-432 57,-438 57,-444 57,-444 57,-456 57,-456 57,-462 51,-468 45,-468"/>
<text text-anchor="middle" x="30" y="-447" font-family="sans" font-size="10.00" fill="#000000">fastqc</text>
</g>
<!-- 2&#45;&gt;1 -->
<g id="edge13" class="edge">
<title>2&#45;&gt;1</title>
<path fill="none" stroke="#c0c0c0" stroke-width="2" d="M23.6378,-431.615C14.8315,-404.4838 0,-351.9662 0,-306 0,-306 0,-306 0,-234 0,-173.875 46.642,-169.6948 101,-144 152.3794,-119.7132 313.5393,-102.0371 396.1277,-94.3149"/>
<polygon fill="#c0c0c0" stroke="#c0c0c0" stroke-width="2" points="396.6422,-97.7824 406.2786,-93.379 395.9995,-90.812 396.6422,-97.7824"/>
</g>
<!-- 3 -->
<g id="node4" class="node">
<title>3</title>
<path fill="none" stroke="#d8cb56" stroke-width="2" d="M247,-756C247,-756 217,-756 217,-756 211,-756 205,-750 205,-744 205,-744 205,-732 205,-732 205,-726 211,-720 217,-720 217,-720 247,-720 247,-720 253,-720 259,-726 259,-732 259,-732 259,-744 259,-744 259,-750 253,-756 247,-756"/>
<text text-anchor="middle" x="232" y="-735" font-family="sans" font-size="10.00" fill="#000000">start</text>
</g>
<!-- 3&#45;&gt;2 -->
<g id="edge15" class="edge">
<title>3&#45;&gt;2</title>
<path fill="none" stroke="#c0c0c0" stroke-width="2" d="M204.8287,-725.8617C186.3777,-716.5342 162.4361,-702.1762 146,-684 89.0288,-620.9972 53.321,-524.8984 38.2639,-477.8775"/>
<polygon fill="#c0c0c0" stroke="#c0c0c0" stroke-width="2" points="41.5272,-476.5859 35.2016,-468.0866 34.8463,-478.6754 41.5272,-476.5859"/>
</g>
<!-- 6 -->
<g id="node7" class="node">
<title>6</title>
<path fill="none" stroke="#56a9d8" stroke-width="2" d="M297.4332,-684C297.4332,-684 166.5668,-684 166.5668,-684 160.5668,-684 154.5668,-678 154.5668,-672 154.5668,-672 154.5668,-660 154.5668,-660 154.5668,-654 160.5668,-648 166.5668,-648 166.5668,-648 297.4332,-648 297.4332,-648 303.4332,-648 309.4332,-654 309.4332,-660 309.4332,-660 309.4332,-672 309.4332,-672 309.4332,-678 303.4332,-684 297.4332,-684"/>
<text text-anchor="middle" x="232" y="-663" font-family="sans" font-size="10.00" fill="#000000">pe_remove_adapters_cutadapt</text>
</g>
<!-- 3&#45;&gt;6 -->
<g id="edge19" class="edge">
<title>3&#45;&gt;6</title>
<path fill="none" stroke="#c0c0c0" stroke-width="2" d="M232,-719.8314C232,-712.131 232,-702.9743 232,-694.4166"/>
<polygon fill="#c0c0c0" stroke="#c0c0c0" stroke-width="2" points="235.5001,-694.4132 232,-684.4133 228.5001,-694.4133 235.5001,-694.4132"/>
</g>
<!-- 11 -->
<g id="node12" class="node">
<title>11</title>
<path fill="none" stroke="#afd856" stroke-width="2" d="M452.7483,-684C452.7483,-684 339.2517,-684 339.2517,-684 333.2517,-684 327.2517,-678 327.2517,-672 327.2517,-672 327.2517,-660 327.2517,-660 327.2517,-654 333.2517,-648 339.2517,-648 339.2517,-648 452.7483,-648 452.7483,-648 458.7483,-648 464.7483,-654 464.7483,-660 464.7483,-660 464.7483,-672 464.7483,-672 464.7483,-678 458.7483,-684 452.7483,-684"/>
<text text-anchor="middle" x="396" y="-663" font-family="sans" font-size="10.00" fill="#000000">remove_adapters_cutadapt</text>
</g>
<!-- 3&#45;&gt;11 -->
<g id="edge24" class="edge">
<title>3&#45;&gt;11</title>
<path fill="none" stroke="#c0c0c0" stroke-width="2" d="M259.0813,-726.1107C282.4583,-715.8476 316.8563,-700.746 345.3254,-688.2474"/>
<polygon fill="#c0c0c0" stroke="#c0c0c0" stroke-width="2" points="346.9789,-691.344 354.7284,-684.1193 344.1649,-684.9345 346.9789,-691.344"/>
</g>
<!-- 4 -->
<g id="node5" class="node">
<title>4</title>
<path fill="none" stroke="#80d856" stroke-width="2" d="M187.943,-324C187.943,-324 42.057,-324 42.057,-324 36.057,-324 30.057,-318 30.057,-312 30.057,-312 30.057,-300 30.057,-300 30.057,-294 36.057,-288 42.057,-288 42.057,-288 187.943,-288 187.943,-288 193.943,-288 199.943,-294 199.943,-300 199.943,-300 199.943,-312 199.943,-312 199.943,-318 193.943,-324 187.943,-324"/>
<text text-anchor="middle" x="115" y="-303" font-family="sans" font-size="10.00" fill="#000000">pe_genome_quantification_kallisto</text>
</g>
<!-- 4&#45;&gt;1 -->
<g id="edge14" class="edge">
<title>4&#45;&gt;1</title>
<path fill="none" stroke="#c0c0c0" stroke-width="2" d="M87.0391,-287.862C75.446,-278.6621 63.2598,-266.3809 57,-252 50.6142,-237.3296 48.3442,-229.4565 57,-216 94.3781,-157.8908 299.8241,-115.3014 396.136,-98.2273"/>
<polygon fill="#c0c0c0" stroke="#c0c0c0" stroke-width="2" points="396.9691,-101.6348 406.2159,-96.463 395.7622,-94.7396 396.9691,-101.6348"/>
</g>
<!-- 31 -->
<g id="node32" class="node">
<title>31</title>
<path fill="none" stroke="#d6d856" stroke-width="2" d="M317.7806,-252C317.7806,-252 228.2194,-252 228.2194,-252 222.2194,-252 216.2194,-246 216.2194,-240 216.2194,-240 216.2194,-228 216.2194,-228 216.2194,-222 222.2194,-216 228.2194,-216 228.2194,-216 317.7806,-216 317.7806,-216 323.7806,-216 329.7806,-222 329.7806,-228 329.7806,-228 329.7806,-240 329.7806,-240 329.7806,-246 323.7806,-252 317.7806,-252"/>
<text text-anchor="middle" x="273" y="-231" font-family="sans" font-size="10.00" fill="#000000">kallisto_merge_genes</text>
</g>
<!-- 4&#45;&gt;31 -->
<g id="edge56" class="edge">
<title>4&#45;&gt;31</title>
<path fill="none" stroke="#c0c0c0" stroke-width="2" d="M154.8701,-287.8314C175.9077,-278.2446 201.8983,-266.4008 224.1396,-256.2655"/>
<polygon fill="#c0c0c0" stroke="#c0c0c0" stroke-width="2" points="225.7683,-259.3697 233.4166,-252.038 222.8655,-252.9999 225.7683,-259.3697"/>
</g>
<!-- 32 -->
<g id="node33" class="node">
<title>32</title>
<path fill="none" stroke="#d88556" stroke-width="2" d="M186.1573,-252C186.1573,-252 77.8427,-252 77.8427,-252 71.8427,-252 65.8427,-246 65.8427,-240 65.8427,-240 65.8427,-228 65.8427,-228 65.8427,-222 71.8427,-216 77.8427,-216 77.8427,-216 186.1573,-216 186.1573,-216 192.1573,-216 198.1573,-222 198.1573,-228 198.1573,-228 198.1573,-240 198.1573,-240 198.1573,-246 192.1573,-252 186.1573,-252"/>
<text text-anchor="middle" x="132" y="-231" font-family="sans" font-size="10.00" fill="#000000">kallisto_merge_transcripts</text>
</g>
<!-- 4&#45;&gt;32 -->
<g id="edge58" class="edge">
<title>4&#45;&gt;32</title>
<path fill="none" stroke="#c0c0c0" stroke-width="2" d="M119.2898,-287.8314C121.108,-280.131 123.2699,-270.9743 125.2905,-262.4166"/>
<polygon fill="#c0c0c0" stroke="#c0c0c0" stroke-width="2" points="128.7608,-262.95 127.6524,-252.4133 121.9481,-261.3414 128.7608,-262.95"/>
</g>
<!-- 5 -->
<g id="node6" class="node">
<title>5</title>
<path fill="none" stroke="#5692d8" stroke-width="2" d="M296.9235,-612C296.9235,-612 181.0765,-612 181.0765,-612 175.0765,-612 169.0765,-606 169.0765,-600 169.0765,-600 169.0765,-588 169.0765,-588 169.0765,-582 175.0765,-576 181.0765,-576 181.0765,-576 296.9235,-576 296.9235,-576 302.9235,-576 308.9235,-582 308.9235,-588 308.9235,-588 308.9235,-600 308.9235,-600 308.9235,-606 302.9235,-612 296.9235,-612"/>
<text text-anchor="middle" x="239" y="-591" font-family="sans" font-size="10.00" fill="#000000">pe_remove_polya_cutadapt</text>
</g>
<!-- 5&#45;&gt;4 -->
<g id="edge17" class="edge">
<title>5&#45;&gt;4</title>
<path fill="none" stroke="#c0c0c0" stroke-width="2" d="M227.3919,-575.9227C206.0843,-541.9778 160.5774,-465.8188 135,-396 127.6359,-375.8982 122.5074,-352.2343 119.2886,-334.2176"/>
<polygon fill="#c0c0c0" stroke="#c0c0c0" stroke-width="2" points="122.7349,-333.6055 117.6117,-324.3317 115.8335,-334.7763 122.7349,-333.6055"/>
</g>
<!-- 14 -->
<g id="node15" class="node">
<title>14</title>
<path fill="none" stroke="#56d8d8" stroke-width="2" d="M784.0684,-540C784.0684,-540 691.9316,-540 691.9316,-540 685.9316,-540 679.9316,-534 679.9316,-528 679.9316,-528 679.9316,-516 679.9316,-516 679.9316,-510 685.9316,-504 691.9316,-504 691.9316,-504 784.0684,-504 784.0684,-504 790.0684,-504 796.0684,-510 796.0684,-516 796.0684,-516 796.0684,-528 796.0684,-528 796.0684,-534 790.0684,-540 784.0684,-540"/>
<text text-anchor="middle" x="738" y="-519" font-family="sans" font-size="10.00" fill="#000000">pe_map_genome_star</text>
</g>
<!-- 5&#45;&gt;14 -->
<g id="edge31" class="edge">
<title>5&#45;&gt;14</title>
<path fill="none" stroke="#c0c0c0" stroke-width="2" d="M308.7185,-579.1041C314.5546,-578.0007 320.3727,-576.9496 326,-576 446.4017,-555.6826 587.6969,-538.6257 669.6233,-529.3996"/>
<polygon fill="#c0c0c0" stroke="#c0c0c0" stroke-width="2" points="670.255,-532.8508 679.8031,-528.2591 669.4756,-525.8943 670.255,-532.8508"/>
</g>
<!-- 25 -->
<g id="node26" class="node">
<title>25</title>
<path fill="none" stroke="#bed856" stroke-width="2" d="M509.9137,-324C509.9137,-324 404.0863,-324 404.0863,-324 398.0863,-324 392.0863,-318 392.0863,-312 392.0863,-312 392.0863,-300 392.0863,-300 392.0863,-294 398.0863,-288 404.0863,-288 404.0863,-288 509.9137,-288 509.9137,-288 515.9137,-288 521.9137,-294 521.9137,-300 521.9137,-300 521.9137,-312 521.9137,-312 521.9137,-318 515.9137,-324 509.9137,-324"/>
<text text-anchor="middle" x="457" y="-303" font-family="sans" font-size="10.00" fill="#000000">pe_quantification_salmon</text>
</g>
<!-- 5&#45;&gt;25 -->
<g id="edge46" class="edge">
<title>5&#45;&gt;25</title>
<path fill="none" stroke="#c0c0c0" stroke-width="2" d="M248.1958,-575.9744C269.6593,-534.9039 326.1863,-432.3411 391,-360 400.5257,-349.368 412.2388,-339.0844 423.1401,-330.395"/>
<polygon fill="#c0c0c0" stroke="#c0c0c0" stroke-width="2" points="425.5178,-332.98 431.2685,-324.0816 421.2239,-327.4516 425.5178,-332.98"/>
</g>
<!-- 6&#45;&gt;5 -->
<g id="edge18" class="edge">
<title>6&#45;&gt;5</title>
<path fill="none" stroke="#c0c0c0" stroke-width="2" d="M233.7664,-647.8314C234.515,-640.131 235.4053,-630.9743 236.2373,-622.4166"/>
<polygon fill="#c0c0c0" stroke="#c0c0c0" stroke-width="2" points="239.7256,-622.7051 237.2098,-612.4133 232.7585,-622.0276 239.7256,-622.7051"/>
</g>
<!-- 7 -->
<g id="node8" class="node">
<title>7</title>
<path fill="none" stroke="#56d882" stroke-width="2" d="M241.8894,-396C241.8894,-396 156.1106,-396 156.1106,-396 150.1106,-396 144.1106,-390 144.1106,-384 144.1106,-384 144.1106,-372 144.1106,-372 144.1106,-366 150.1106,-360 156.1106,-360 156.1106,-360 241.8894,-360 241.8894,-360 247.8894,-360 253.8894,-366 253.8894,-372 253.8894,-372 253.8894,-384 253.8894,-384 253.8894,-390 247.8894,-396 241.8894,-396"/>
<text text-anchor="middle" x="199" y="-375" font-family="sans" font-size="10.00" fill="#000000">create_index_kallisto</text>
</g>
<!-- 7&#45;&gt;4 -->
<g id="edge16" class="edge">
<title>7&#45;&gt;4</title>
<path fill="none" stroke="#c0c0c0" stroke-width="2" d="M177.8033,-359.8314C167.5566,-351.0485 155.0997,-340.3712 143.9903,-330.8489"/>
<polygon fill="#c0c0c0" stroke="#c0c0c0" stroke-width="2" points="146.0603,-328.0134 136.19,-324.1628 141.5048,-333.3282 146.0603,-328.0134"/>
</g>
<!-- 9 -->
<g id="node10" class="node">
<title>9</title>
<path fill="none" stroke="#d87556" stroke-width="2" d="M358.258,-324C358.258,-324 229.742,-324 229.742,-324 223.742,-324 217.742,-318 217.742,-312 217.742,-312 217.742,-300 217.742,-300 217.742,-294 223.742,-288 229.742,-288 229.742,-288 358.258,-288 358.258,-288 364.258,-288 370.258,-294 370.258,-300 370.258,-300 370.258,-312 370.258,-312 370.258,-318 364.258,-324 358.258,-324"/>
<text text-anchor="middle" x="294" y="-303" font-family="sans" font-size="10.00" fill="#000000">genome_quantification_kallisto</text>
</g>
<!-- 7&#45;&gt;9 -->
<g id="edge22" class="edge">
<title>7&#45;&gt;9</title>
<path fill="none" stroke="#c0c0c0" stroke-width="2" d="M222.9725,-359.8314C234.7861,-350.8779 249.1972,-339.9558 261.9435,-330.2955"/>
<polygon fill="#c0c0c0" stroke="#c0c0c0" stroke-width="2" points="264.1795,-332.9925 270.0352,-324.1628 259.9514,-327.4137 264.1795,-332.9925"/>
</g>
<!-- 8 -->
<g id="node9" class="node">
<title>8</title>
<path fill="none" stroke="#9fd856" stroke-width="2" d="M546.1476,-540C546.1476,-540 457.8524,-540 457.8524,-540 451.8524,-540 445.8524,-534 445.8524,-528 445.8524,-528 445.8524,-516 445.8524,-516 445.8524,-510 451.8524,-504 457.8524,-504 457.8524,-504 546.1476,-504 546.1476,-504 552.1476,-504 558.1476,-510 558.1476,-516 558.1476,-516 558.1476,-528 558.1476,-528 558.1476,-534 552.1476,-540 546.1476,-540"/>
<text text-anchor="middle" x="502" y="-519" font-family="sans" font-size="10.00" fill="#000000">extract_transcriptome</text>
</g>
<!-- 8&#45;&gt;7 -->
<g id="edge20" class="edge">
<title>8&#45;&gt;7</title>
<path fill="none" stroke="#c0c0c0" stroke-width="2" d="M463.9316,-503.9081C408.7121,-477.6652 306.4502,-429.0655 246.4107,-400.5318"/>
<polygon fill="#c0c0c0" stroke="#c0c0c0" stroke-width="2" points="247.6852,-397.2624 237.151,-396.1311 244.6805,-403.5848 247.6852,-397.2624"/>
</g>
<!-- 27 -->
<g id="node28" class="node">
<title>27</title>
<path fill="none" stroke="#5673d8" stroke-width="2" d="M612.0708,-468C612.0708,-468 435.9292,-468 435.9292,-468 429.9292,-468 423.9292,-462 423.9292,-456 423.9292,-456 423.9292,-444 423.9292,-444 423.9292,-438 429.9292,-432 435.9292,-432 435.9292,-432 612.0708,-432 612.0708,-432 618.0708,-432 624.0708,-438 624.0708,-444 624.0708,-444 624.0708,-456 624.0708,-456 624.0708,-462 618.0708,-468 612.0708,-468"/>
<text text-anchor="middle" x="524" y="-447" font-family="sans" font-size="10.00" fill="#000000">concatenate_transcriptome_and_genome</text>
</g>
<!-- 8&#45;&gt;27 -->
<g id="edge49" class="edge">
<title>8&#45;&gt;27</title>
<path fill="none" stroke="#c0c0c0" stroke-width="2" d="M507.5515,-503.8314C509.9303,-496.0463 512.7638,-486.7729 515.4033,-478.1347"/>
<polygon fill="#c0c0c0" stroke="#c0c0c0" stroke-width="2" points="518.7987,-478.9996 518.3737,-468.4133 512.1042,-476.954 518.7987,-478.9996"/>
</g>
<!-- 9&#45;&gt;1 -->
<g id="edge8" class="edge">
<title>9&#45;&gt;1</title>
<path fill="none" stroke="#c0c0c0" stroke-width="2" d="M312.0371,-287.744C321.0825,-277.8168 331.6472,-264.9459 339,-252 364.1302,-207.754 347.3293,-185.3387 377,-144 385.1284,-132.6752 396.2792,-122.5385 407.2469,-114.1906"/>
<polygon fill="#c0c0c0" stroke="#c0c0c0" stroke-width="2" points="409.5096,-116.873 415.5453,-108.1655 405.3969,-111.2086 409.5096,-116.873"/>
</g>
<!-- 9&#45;&gt;31 -->
<g id="edge57" class="edge">
<title>9&#45;&gt;31</title>
<path fill="none" stroke="#c0c0c0" stroke-width="2" d="M288.7008,-287.8314C286.4302,-280.0463 283.7254,-270.7729 281.206,-262.1347"/>
<polygon fill="#c0c0c0" stroke="#c0c0c0" stroke-width="2" points="284.5306,-261.0332 278.3705,-252.4133 277.8106,-262.9933 284.5306,-261.0332"/>
</g>
<!-- 9&#45;&gt;32 -->
<g id="edge59" class="edge">
<title>9&#45;&gt;32</title>
<path fill="none" stroke="#c0c0c0" stroke-width="2" d="M253.1206,-287.8314C231.454,-278.2018 204.6637,-266.295 181.7922,-256.1299"/>
<polygon fill="#c0c0c0" stroke="#c0c0c0" stroke-width="2" points="183.1451,-252.9011 172.5855,-252.038 180.3021,-259.2978 183.1451,-252.9011"/>
</g>
<!-- 10 -->
<g id="node11" class="node">
<title>10</title>
<path fill="none" stroke="#56d863" stroke-width="2" d="M445.2386,-612C445.2386,-612 346.7614,-612 346.7614,-612 340.7614,-612 334.7614,-606 334.7614,-600 334.7614,-600 334.7614,-588 334.7614,-588 334.7614,-582 340.7614,-576 346.7614,-576 346.7614,-576 445.2386,-576 445.2386,-576 451.2386,-576 457.2386,-582 457.2386,-588 457.2386,-588 457.2386,-600 457.2386,-600 457.2386,-606 451.2386,-612 445.2386,-612"/>
<text text-anchor="middle" x="396" y="-591" font-family="sans" font-size="10.00" fill="#000000">remove_polya_cutadapt</text>
</g>
<!-- 10&#45;&gt;9 -->
<g id="edge21" class="edge">
<title>10&#45;&gt;9</title>
<path fill="none" stroke="#c0c0c0" stroke-width="2" d="M385.5394,-575.8623C366.4169,-541.818 325.9546,-465.5016 306,-396 300.209,-375.83 297.1958,-352.2998 295.6374,-334.3584"/>
<polygon fill="#c0c0c0" stroke="#c0c0c0" stroke-width="2" points="299.1166,-333.9519 294.8606,-324.2495 292.1372,-334.4883 299.1166,-333.9519"/>
</g>
<!-- 18 -->
<g id="node19" class="node">
<title>18</title>
<path fill="none" stroke="#68d856" stroke-width="2" d="M901.8845,-540C901.8845,-540 826.1155,-540 826.1155,-540 820.1155,-540 814.1155,-534 814.1155,-528 814.1155,-528 814.1155,-516 814.1155,-516 814.1155,-510 820.1155,-504 826.1155,-504 826.1155,-504 901.8845,-504 901.8845,-504 907.8845,-504 913.8845,-510 913.8845,-516 913.8845,-516 913.8845,-528 913.8845,-528 913.8845,-534 907.8845,-540 901.8845,-540"/>
<text text-anchor="middle" x="864" y="-519" font-family="sans" font-size="10.00" fill="#000000">map_genome_star</text>
</g>
<!-- 10&#45;&gt;18 -->
<g id="edge33" class="edge">
<title>10&#45;&gt;18</title>
<path fill="none" stroke="#c0c0c0" stroke-width="2" d="M457.5206,-589.063C535.9865,-582.0602 675.8796,-567.2082 804.2506,-539.9607"/>
<polygon fill="#c0c0c0" stroke="#c0c0c0" stroke-width="2" points="805.2196,-543.3324 814.2589,-537.8058 803.7462,-536.4892 805.2196,-543.3324"/>
</g>
<!-- 28 -->
<g id="node29" class="node">
<title>28</title>
<path fill="none" stroke="#56d8c9" stroke-width="2" d="M640.2288,-324C640.2288,-324 551.7712,-324 551.7712,-324 545.7712,-324 539.7712,-318 539.7712,-312 539.7712,-312 539.7712,-300 539.7712,-300 539.7712,-294 545.7712,-288 551.7712,-288 551.7712,-288 640.2288,-288 640.2288,-288 646.2288,-288 652.2288,-294 652.2288,-300 652.2288,-300 652.2288,-312 652.2288,-312 652.2288,-318 646.2288,-324 640.2288,-324"/>
<text text-anchor="middle" x="596" y="-303" font-family="sans" font-size="10.00" fill="#000000">quantification_salmon</text>
</g>
<!-- 10&#45;&gt;28 -->
<g id="edge50" class="edge">
<title>10&#45;&gt;28</title>
<path fill="none" stroke="#c0c0c0" stroke-width="2" d="M391.261,-575.6963C381.3043,-532.6807 363.1697,-423.9709 415,-360 416.9394,-357.6064 479.0019,-339.4069 529.9154,-324.7878"/>
<polygon fill="#c0c0c0" stroke="#c0c0c0" stroke-width="2" points="530.9531,-328.1314 539.6014,-322.011 529.024,-321.4024 530.9531,-328.1314"/>
</g>
<!-- 11&#45;&gt;10 -->
<g id="edge23" class="edge">
<title>11&#45;&gt;10</title>
<path fill="none" stroke="#c0c0c0" stroke-width="2" d="M396,-647.8314C396,-640.131 396,-630.9743 396,-622.4166"/>
<polygon fill="#c0c0c0" stroke="#c0c0c0" stroke-width="2" points="399.5001,-622.4132 396,-612.4133 392.5001,-622.4133 399.5001,-622.4132"/>
</g>
<!-- 12 -->
<g id="node13" class="node">
<title>12</title>
<path fill="none" stroke="#56b9d8" stroke-width="2" d="M774.1524,-324C774.1524,-324 685.8476,-324 685.8476,-324 679.8476,-324 673.8476,-318 673.8476,-312 673.8476,-312 673.8476,-300 673.8476,-300 673.8476,-294 679.8476,-288 685.8476,-288 685.8476,-288 774.1524,-288 774.1524,-288 780.1524,-288 786.1524,-294 786.1524,-300 786.1524,-300 786.1524,-312 786.1524,-312 786.1524,-318 780.1524,-324 774.1524,-324"/>
<text text-anchor="middle" x="730" y="-303" font-family="sans" font-size="10.00" fill="#000000">calculate_TIN_scores</text>
</g>
<!-- 12&#45;&gt;1 -->
<g id="edge9" class="edge">
<title>12&#45;&gt;1</title>
<path fill="none" stroke="#c0c0c0" stroke-width="2" d="M730.0933,-287.8848C729.3552,-268.5206 725.6888,-237.6828 711,-216 661.6063,-143.0879 558.0766,-111.1912 496.0514,-98.1645"/>
<polygon fill="#c0c0c0" stroke="#c0c0c0" stroke-width="2" points="496.589,-94.7026 486.095,-96.1605 495.2077,-101.565 496.589,-94.7026"/>
</g>
<!-- 13 -->
<g id="node14" class="node">
<title>13</title>
<path fill="none" stroke="#70d856" stroke-width="2" d="M874.027,-468C874.027,-468 727.973,-468 727.973,-468 721.973,-468 715.973,-462 715.973,-456 715.973,-456 715.973,-444 715.973,-444 715.973,-438 721.973,-432 727.973,-432 727.973,-432 874.027,-432 874.027,-432 880.027,-432 886.027,-438 886.027,-444 886.027,-444 886.027,-456 886.027,-456 886.027,-462 880.027,-468 874.027,-468"/>
<text text-anchor="middle" x="801" y="-447" font-family="sans" font-size="10.00" fill="#000000">sort_genomic_alignment_samtools</text>
</g>
<!-- 13&#45;&gt;12 -->
<g id="edge25" class="edge">
<title>13&#45;&gt;12</title>
<path fill="none" stroke="#c0c0c0" stroke-width="2" d="M777.7213,-431.786C767.0771,-422.2438 755.2501,-409.7005 748,-396 737.9069,-376.9272 733.4552,-352.8482 731.5007,-334.3967"/>
<polygon fill="#c0c0c0" stroke="#c0c0c0" stroke-width="2" points="734.9725,-333.9205 730.6147,-324.2634 727.9991,-334.5302 734.9725,-333.9205"/>
</g>
<!-- 16 -->
<g id="node17" class="node">
<title>16</title>
<path fill="none" stroke="#8fd856" stroke-width="2" d="M922.7629,-396C922.7629,-396 769.2371,-396 769.2371,-396 763.2371,-396 757.2371,-390 757.2371,-384 757.2371,-384 757.2371,-372 757.2371,-372 757.2371,-366 763.2371,-360 769.2371,-360 769.2371,-360 922.7629,-360 922.7629,-360 928.7629,-360 934.7629,-366 934.7629,-372 934.7629,-372 934.7629,-384 934.7629,-384 934.7629,-390 928.7629,-396 922.7629,-396"/>
<text text-anchor="middle" x="846" y="-375" font-family="sans" font-size="10.00" fill="#000000">index_genomic_alignment_samtools</text>
</g>
<!-- 13&#45;&gt;16 -->
<g id="edge32" class="edge">
<title>13&#45;&gt;16</title>
<path fill="none" stroke="#c0c0c0" stroke-width="2" d="M812.3554,-431.8314C817.4326,-423.7079 823.5227,-413.9637 829.1176,-405.0118"/>
<polygon fill="#c0c0c0" stroke="#c0c0c0" stroke-width="2" points="832.1597,-406.7483 834.4917,-396.4133 826.2237,-403.0383 832.1597,-406.7483"/>
</g>
<!-- 21 -->
<g id="node22" class="node">
<title>21</title>
<path fill="none" stroke="#56a2d8" stroke-width="2" d="M903.955,-324C903.955,-324 872.045,-324 872.045,-324 866.045,-324 860.045,-318 860.045,-312 860.045,-312 860.045,-300 860.045,-300 860.045,-294 866.045,-288 872.045,-288 872.045,-288 903.955,-288 903.955,-288 909.955,-288 915.955,-294 915.955,-300 915.955,-300 915.955,-312 915.955,-312 915.955,-318 909.955,-324 903.955,-324"/>
<text text-anchor="middle" x="888" y="-303" font-family="sans" font-size="10.00" fill="#000000">star_rpm</text>
</g>
<!-- 13&#45;&gt;21 -->
<g id="edge38" class="edge">
<title>13&#45;&gt;21</title>
<path fill="none" stroke="#c0c0c0" stroke-width="2" d="M870.3499,-431.9268C902.1556,-422.0984 934.8325,-409.2612 944,-396 958.8469,-374.5233 940.0378,-349.2091 920.317,-330.907"/>
<polygon fill="#c0c0c0" stroke="#c0c0c0" stroke-width="2" points="922.5965,-328.2506 912.7825,-324.2586 917.965,-333.4994 922.5965,-328.2506"/>
</g>
<!-- 14&#45;&gt;13 -->
<g id="edge28" class="edge">
<title>14&#45;&gt;13</title>
<path fill="none" stroke="#c0c0c0" stroke-width="2" d="M753.8976,-503.8314C761.2278,-495.454 770.066,-485.3531 778.0969,-476.1749"/>
<polygon fill="#c0c0c0" stroke="#c0c0c0" stroke-width="2" points="780.9373,-478.2438 784.8884,-468.4133 775.6693,-473.6343 780.9373,-478.2438"/>
</g>
<!-- 15 -->
<g id="node16" class="node">
<title>15</title>
<path fill="none" stroke="#d86656" stroke-width="2" d="M899.9935,-612C899.9935,-612 828.0065,-612 828.0065,-612 822.0065,-612 816.0065,-606 816.0065,-600 816.0065,-600 816.0065,-588 816.0065,-588 816.0065,-582 822.0065,-576 828.0065,-576 828.0065,-576 899.9935,-576 899.9935,-576 905.9935,-576 911.9935,-582 911.9935,-588 911.9935,-588 911.9935,-600 911.9935,-600 911.9935,-606 905.9935,-612 899.9935,-612"/>
<text text-anchor="middle" x="864" y="-591" font-family="sans" font-size="10.00" fill="#000000">create_index_star</text>
</g>
<!-- 15&#45;&gt;14 -->
<g id="edge30" class="edge">
<title>15&#45;&gt;14</title>
<path fill="none" stroke="#c0c0c0" stroke-width="2" d="M832.2049,-575.8314C815.9395,-566.5368 795.9614,-555.1208 778.5949,-545.1971"/>
<polygon fill="#c0c0c0" stroke="#c0c0c0" stroke-width="2" points="780.2039,-542.0854 769.7849,-540.1628 776.7309,-548.1631 780.2039,-542.0854"/>
</g>
<!-- 15&#45;&gt;18 -->
<g id="edge34" class="edge">
<title>15&#45;&gt;18</title>
<path fill="none" stroke="#c0c0c0" stroke-width="2" d="M864,-575.8314C864,-568.131 864,-558.9743 864,-550.4166"/>
<polygon fill="#c0c0c0" stroke="#c0c0c0" stroke-width="2" points="867.5001,-550.4132 864,-540.4133 860.5001,-550.4133 867.5001,-550.4132"/>
</g>
<!-- 22 -->
<g id="node23" class="node">
<title>22</title>
<path fill="none" stroke="#d85656" stroke-width="2" d="M999.1305,-468C999.1305,-468 916.8695,-468 916.8695,-468 910.8695,-468 904.8695,-462 904.8695,-456 904.8695,-456 904.8695,-444 904.8695,-444 904.8695,-438 910.8695,-432 916.8695,-432 916.8695,-432 999.1305,-432 999.1305,-432 1005.1305,-432 1011.1305,-438 1011.1305,-444 1011.1305,-444 1011.1305,-456 1011.1305,-456 1011.1305,-462 1005.1305,-468 999.1305,-468"/>
<text text-anchor="middle" x="958" y="-447" font-family="sans" font-size="10.00" fill="#000000">generate_alfa_index</text>
</g>
<!-- 15&#45;&gt;22 -->
<g id="edge40" class="edge">
<title>15&#45;&gt;22</title>
<path fill="none" stroke="#c0c0c0" stroke-width="2" d="M888.587,-575.8722C900.2615,-566.2624 913.6664,-553.6354 923,-540 936.0238,-520.9735 945.1556,-496.4147 950.8184,-477.7592"/>
<polygon fill="#c0c0c0" stroke="#c0c0c0" stroke-width="2" points="954.2031,-478.6532 953.6101,-468.075 947.477,-476.7142 954.2031,-478.6532"/>
</g>
<!-- 26 -->
<g id="node27" class="node">
<title>26</title>
<path fill="none" stroke="#c6d856" stroke-width="2" d="M523.5586,-396C523.5586,-396 436.4414,-396 436.4414,-396 430.4414,-396 424.4414,-390 424.4414,-384 424.4414,-384 424.4414,-372 424.4414,-372 424.4414,-366 430.4414,-360 436.4414,-360 436.4414,-360 523.5586,-360 523.5586,-360 529.5586,-360 535.5586,-366 535.5586,-372 535.5586,-372 535.5586,-384 535.5586,-384 535.5586,-390 529.5586,-396 523.5586,-396"/>
<text text-anchor="middle" x="480" y="-375" font-family="sans" font-size="10.00" fill="#000000">create_index_salmon</text>
</g>
<!-- 15&#45;&gt;26 -->
<g id="edge47" class="edge">
<title>15&#45;&gt;26</title>
<path fill="none" stroke="#c0c0c0" stroke-width="2" d="M816.1185,-585.8191C766.0712,-576.3826 691.9512,-559.6218 671,-540 633.8602,-505.2168 668.9634,-467.9982 633,-432 626.2553,-425.2487 583.7776,-410.5133 545.2881,-398.1384"/>
<polygon fill="#c0c0c0" stroke="#c0c0c0" stroke-width="2" points="546.2036,-394.7567 535.6128,-395.0494 544.0745,-401.4251 546.2036,-394.7567"/>
</g>
<!-- 34 -->
<g id="node35" class="node">
<title>34</title>
<path fill="none" stroke="#56d8a9" stroke-width="2" d="M901.0966,-108C901.0966,-108 838.9034,-108 838.9034,-108 832.9034,-108 826.9034,-102 826.9034,-96 826.9034,-96 826.9034,-84 826.9034,-84 826.9034,-78 832.9034,-72 838.9034,-72 838.9034,-72 901.0966,-72 901.0966,-72 907.0966,-72 913.0966,-78 913.0966,-84 913.0966,-84 913.0966,-96 913.0966,-96 913.0966,-102 907.0966,-108 901.0966,-108"/>
<text text-anchor="middle" x="870" y="-87" font-family="sans" font-size="10.00" fill="#000000">prepare_bigWig</text>
</g>
<!-- 15&#45;&gt;34 -->
<g id="edge61" class="edge">
<title>15&#45;&gt;34</title>
<path fill="none" stroke="#c0c0c0" stroke-width="2" d="M911.8195,-578.0834C963.6338,-557.4596 1039,-516.1003 1039,-450 1039,-450 1039,-450 1039,-234 1039,-189.0781 1025.6847,-174.817 993,-144 973.3885,-125.5092 946.4146,-112.7079 922.7233,-104.2278"/>
<polygon fill="#c0c0c0" stroke="#c0c0c0" stroke-width="2" points="923.7402,-100.8767 913.1457,-100.9651 921.4829,-107.5028 923.7402,-100.8767"/>
</g>
<!-- 16&#45;&gt;12 -->
<g id="edge26" class="edge">
<title>16&#45;&gt;12</title>
<path fill="none" stroke="#c0c0c0" stroke-width="2" d="M816.7283,-359.8314C801.8912,-350.6221 783.6985,-339.3301 767.8138,-329.4706"/>
<polygon fill="#c0c0c0" stroke="#c0c0c0" stroke-width="2" points="769.6045,-326.4628 759.2623,-324.1628 765.913,-332.4102 769.6045,-326.4628"/>
</g>
<!-- 16&#45;&gt;21 -->
<g id="edge39" class="edge">
<title>16&#45;&gt;21</title>
<path fill="none" stroke="#c0c0c0" stroke-width="2" d="M856.5984,-359.8314C861.2877,-351.7925 866.9028,-342.1666 872.0798,-333.2918"/>
<polygon fill="#c0c0c0" stroke="#c0c0c0" stroke-width="2" points="875.2434,-334.8146 877.2589,-324.4133 869.1969,-331.2875 875.2434,-334.8146"/>
</g>
<!-- 17 -->
<g id="node18" class="node">
<title>17</title>
<path fill="none" stroke="#56d8b9" stroke-width="2" d="M688.6866,-396C688.6866,-396 565.3134,-396 565.3134,-396 559.3134,-396 553.3134,-390 553.3134,-384 553.3134,-384 553.3134,-372 553.3134,-372 553.3134,-366 559.3134,-360 565.3134,-360 565.3134,-360 688.6866,-360 688.6866,-360 694.6866,-360 700.6866,-366 700.6866,-372 700.6866,-372 700.6866,-384 700.6866,-384 700.6866,-390 694.6866,-396 688.6866,-396"/>
<text text-anchor="middle" x="627" y="-375" font-family="sans" font-size="10.00" fill="#000000">extract_transcripts_as_bed12</text>
</g>
<!-- 17&#45;&gt;12 -->
<g id="edge27" class="edge">
<title>17&#45;&gt;12</title>
<path fill="none" stroke="#c0c0c0" stroke-width="2" d="M652.9912,-359.8314C665.9216,-350.7927 681.7222,-339.7476 695.6383,-330.0198"/>
<polygon fill="#c0c0c0" stroke="#c0c0c0" stroke-width="2" points="697.8263,-332.7608 704.0171,-324.1628 693.8157,-327.0235 697.8263,-332.7608"/>
</g>
<!-- 18&#45;&gt;13 -->
<g id="edge29" class="edge">
<title>18&#45;&gt;13</title>
<path fill="none" stroke="#c0c0c0" stroke-width="2" d="M848.1024,-503.8314C840.7722,-495.454 831.934,-485.3531 823.9031,-476.1749"/>
<polygon fill="#c0c0c0" stroke="#c0c0c0" stroke-width="2" points="826.3307,-473.6343 817.1116,-468.4133 821.0627,-478.2438 826.3307,-473.6343"/>
</g>
<!-- 19 -->
<g id="node20" class="node">
<title>19</title>
<path fill="none" stroke="#d88d56" stroke-width="2" d="M972,-180C972,-180 942,-180 942,-180 936,-180 930,-174 930,-168 930,-168 930,-156 930,-156 930,-150 936,-144 942,-144 942,-144 972,-144 972,-144 978,-144 984,-150 984,-156 984,-156 984,-168 984,-168 984,-174 978,-180 972,-180"/>
<text text-anchor="middle" x="957" y="-159" font-family="sans" font-size="10.00" fill="#000000">alfa_qc</text>
</g>
<!-- 19&#45;&gt;1 -->
<g id="edge10" class="edge">
<title>19&#45;&gt;1</title>
<path fill="none" stroke="#c0c0c0" stroke-width="2" d="M929.8892,-147.2117C926.9454,-145.9802 923.9476,-144.8745 921,-144 842.1672,-120.6106 600.7893,-101.0768 495.7262,-93.443"/>
<polygon fill="#c0c0c0" stroke="#c0c0c0" stroke-width="2" points="495.9207,-89.948 485.695,-92.7203 495.4176,-96.9299 495.9207,-89.948"/>
</g>
<!-- 20 -->
<g id="node21" class="node">
<title>20</title>
<path fill="none" stroke="#5663d8" stroke-width="2" d="M942.837,-252C942.837,-252 833.163,-252 833.163,-252 827.163,-252 821.163,-246 821.163,-240 821.163,-240 821.163,-228 821.163,-228 821.163,-222 827.163,-216 833.163,-216 833.163,-216 942.837,-216 942.837,-216 948.837,-216 954.837,-222 954.837,-228 954.837,-228 954.837,-240 954.837,-240 954.837,-246 948.837,-252 942.837,-252"/>
<text text-anchor="middle" x="888" y="-231" font-family="sans" font-size="10.00" fill="#000000">rename_star_rpm_for_alfa</text>
</g>
<!-- 20&#45;&gt;19 -->
<g id="edge35" class="edge">
<title>20&#45;&gt;19</title>
<path fill="none" stroke="#c0c0c0" stroke-width="2" d="M905.4116,-215.8314C913.521,-207.3694 923.3156,-197.1489 932.182,-187.8971"/>
<polygon fill="#c0c0c0" stroke="#c0c0c0" stroke-width="2" points="934.9618,-190.0549 939.354,-180.4133 929.9079,-185.2115 934.9618,-190.0549"/>
</g>
<!-- 35 -->
<g id="node36" class="node">
<title>35</title>
<path fill="none" stroke="#5682d8" stroke-width="2" d="M900.4453,-180C900.4453,-180 839.5547,-180 839.5547,-180 833.5547,-180 827.5547,-174 827.5547,-168 827.5547,-168 827.5547,-156 827.5547,-156 827.5547,-150 833.5547,-144 839.5547,-144 839.5547,-144 900.4453,-144 900.4453,-144 906.4453,-144 912.4453,-150 912.4453,-156 912.4453,-156 912.4453,-168 912.4453,-168 912.4453,-174 906.4453,-180 900.4453,-180"/>
<text text-anchor="middle" x="870" y="-159" font-family="sans" font-size="10.00" fill="#000000">sort_bed_4_big</text>
</g>
<!-- 20&#45;&gt;35 -->
<g id="edge62" class="edge">
<title>20&#45;&gt;35</title>
<path fill="none" stroke="#c0c0c0" stroke-width="2" d="M883.4578,-215.8314C881.5116,-208.0463 879.1932,-198.7729 877.0337,-190.1347"/>
<polygon fill="#c0c0c0" stroke="#c0c0c0" stroke-width="2" points="880.4242,-189.2658 874.6033,-180.4133 873.6332,-190.9636 880.4242,-189.2658"/>
</g>
<!-- 21&#45;&gt;20 -->
<g id="edge37" class="edge">
<title>21&#45;&gt;20</title>
<path fill="none" stroke="#c0c0c0" stroke-width="2" d="M888,-287.8314C888,-280.131 888,-270.9743 888,-262.4166"/>
<polygon fill="#c0c0c0" stroke="#c0c0c0" stroke-width="2" points="891.5001,-262.4132 888,-252.4133 884.5001,-262.4133 891.5001,-262.4132"/>
</g>
<!-- 22&#45;&gt;19 -->
<g id="edge36" class="edge">
<title>22&#45;&gt;19</title>
<path fill="none" stroke="#c0c0c0" stroke-width="2" d="M959.5825,-431.7736C962.7592,-392.3646 969.1827,-296.2969 964,-216 963.4605,-207.6422 962.4561,-198.6019 961.3732,-190.3525"/>
<polygon fill="#c0c0c0" stroke="#c0c0c0" stroke-width="2" points="964.838,-189.8568 959.9885,-180.437 957.9053,-190.825 964.838,-189.8568"/>
</g>
<!-- 23 -->
<g id="node24" class="node">
<title>23</title>
<path fill="none" stroke="#d89c56" stroke-width="2" d="M581.9209,-180C581.9209,-180 536.0791,-180 536.0791,-180 530.0791,-180 524.0791,-174 524.0791,-168 524.0791,-168 524.0791,-156 524.0791,-156 524.0791,-150 530.0791,-144 536.0791,-144 536.0791,-144 581.9209,-144 581.9209,-144 587.9209,-144 593.9209,-150 593.9209,-156 593.9209,-156 593.9209,-168 593.9209,-168 593.9209,-174 587.9209,-180 581.9209,-180"/>
<text text-anchor="middle" x="559" y="-159" font-family="sans" font-size="10.00" fill="#000000">pca_salmon</text>
</g>
<!-- 23&#45;&gt;1 -->
<g id="edge11" class="edge">
<title>23&#45;&gt;1</title>
<path fill="none" stroke="#c0c0c0" stroke-width="2" d="M530.4853,-143.8314C516.1658,-134.7074 498.6376,-123.539 483.2662,-113.7449"/>
<polygon fill="#c0c0c0" stroke="#c0c0c0" stroke-width="2" points="484.8199,-110.5847 474.5055,-108.1628 481.0583,-116.4882 484.8199,-110.5847"/>
</g>
<!-- 24 -->
<g id="node25" class="node">
<title>24</title>
<path fill="none" stroke="#56d892" stroke-width="2" d="M689.9746,-252C689.9746,-252 574.0254,-252 574.0254,-252 568.0254,-252 562.0254,-246 562.0254,-240 562.0254,-240 562.0254,-228 562.0254,-228 562.0254,-222 568.0254,-216 574.0254,-216 574.0254,-216 689.9746,-216 689.9746,-216 695.9746,-216 701.9746,-222 701.9746,-228 701.9746,-228 701.9746,-240 701.9746,-240 701.9746,-246 695.9746,-252 689.9746,-252"/>
<text text-anchor="middle" x="632" y="-231" font-family="sans" font-size="10.00" fill="#000000">salmon_quantmerge_genes</text>
</g>
<!-- 24&#45;&gt;0 -->
<g id="edge6" class="edge">
<title>24&#45;&gt;0</title>
<path fill="none" stroke="#c0c0c0" stroke-width="2" d="M633.72,-215.826C635.8106,-184.0072 636.0085,-117.2922 607,-72 597.8634,-57.7347 583.5343,-45.9305 569.9819,-37.0349"/>
<polygon fill="#c0c0c0" stroke="#c0c0c0" stroke-width="2" points="571.5922,-33.9149 561.2506,-31.6126 567.8992,-39.8616 571.5922,-33.9149"/>
</g>
<!-- 24&#45;&gt;23 -->
<g id="edge42" class="edge">
<title>24&#45;&gt;23</title>
<path fill="none" stroke="#c0c0c0" stroke-width="2" d="M613.579,-215.8314C604.8471,-207.219 594.2683,-196.7851 584.7577,-187.4048"/>
<polygon fill="#c0c0c0" stroke="#c0c0c0" stroke-width="2" points="586.9925,-184.6931 577.4151,-180.1628 582.077,-189.6769 586.9925,-184.6931"/>
</g>
<!-- 25&#45;&gt;24 -->
<g id="edge44" class="edge">
<title>25&#45;&gt;24</title>
<path fill="none" stroke="#c0c0c0" stroke-width="2" d="M501.1599,-287.8314C524.7732,-278.1162 554.0202,-266.0831 578.87,-255.8592"/>
<polygon fill="#c0c0c0" stroke="#c0c0c0" stroke-width="2" points="580.2415,-259.0797 588.1577,-252.038 577.5781,-252.6061 580.2415,-259.0797"/>
</g>
<!-- 29 -->
<g id="node30" class="node">
<title>29</title>
<path fill="none" stroke="#d8bc56" stroke-width="2" d="M532.3516,-252C532.3516,-252 397.6484,-252 397.6484,-252 391.6484,-252 385.6484,-246 385.6484,-240 385.6484,-240 385.6484,-228 385.6484,-228 385.6484,-222 391.6484,-216 397.6484,-216 397.6484,-216 532.3516,-216 532.3516,-216 538.3516,-216 544.3516,-222 544.3516,-228 544.3516,-228 544.3516,-240 544.3516,-240 544.3516,-246 538.3516,-252 532.3516,-252"/>
<text text-anchor="middle" x="465" y="-231" font-family="sans" font-size="10.00" fill="#000000">salmon_quantmerge_transcripts</text>
</g>
<!-- 25&#45;&gt;29 -->
<g id="edge53" class="edge">
<title>25&#45;&gt;29</title>
<path fill="none" stroke="#c0c0c0" stroke-width="2" d="M459.0187,-287.8314C459.8743,-280.131 460.8917,-270.9743 461.8426,-262.4166"/>
<polygon fill="#c0c0c0" stroke="#c0c0c0" stroke-width="2" points="465.3283,-262.7386 462.9541,-252.4133 458.3711,-261.9656 465.3283,-262.7386"/>
</g>
<!-- 26&#45;&gt;25 -->
<g id="edge45" class="edge">
<title>26&#45;&gt;25</title>
<path fill="none" stroke="#c0c0c0" stroke-width="2" d="M474.1961,-359.8314C471.7092,-352.0463 468.7469,-342.7729 465.9875,-334.1347"/>
<polygon fill="#c0c0c0" stroke="#c0c0c0" stroke-width="2" points="469.2591,-332.874 462.882,-324.4133 462.591,-335.0041 469.2591,-332.874"/>
</g>
<!-- 26&#45;&gt;28 -->
<g id="edge51" class="edge">
<title>26&#45;&gt;28</title>
<path fill="none" stroke="#c0c0c0" stroke-width="2" d="M509.2717,-359.8314C524.1088,-350.6221 542.3015,-339.3301 558.1862,-329.4706"/>
<polygon fill="#c0c0c0" stroke="#c0c0c0" stroke-width="2" points="560.087,-332.4102 566.7377,-324.1628 556.3955,-326.4628 560.087,-332.4102"/>
</g>
<!-- 27&#45;&gt;26 -->
<g id="edge48" class="edge">
<title>27&#45;&gt;26</title>
<path fill="none" stroke="#c0c0c0" stroke-width="2" d="M512.8969,-431.8314C507.9326,-423.7079 501.9778,-413.9637 496.5072,-405.0118"/>
<polygon fill="#c0c0c0" stroke="#c0c0c0" stroke-width="2" points="499.4536,-403.121 491.2526,-396.4133 493.4806,-406.7712 499.4536,-403.121"/>
</g>
<!-- 28&#45;&gt;24 -->
<g id="edge43" class="edge">
<title>28&#45;&gt;24</title>
<path fill="none" stroke="#c0c0c0" stroke-width="2" d="M605.0843,-287.8314C609.0615,-279.8771 613.8155,-270.369 618.2139,-261.5723"/>
<polygon fill="#c0c0c0" stroke="#c0c0c0" stroke-width="2" points="621.4517,-262.9228 622.7934,-252.4133 615.1907,-259.7923 621.4517,-262.9228"/>
</g>
<!-- 28&#45;&gt;29 -->
<g id="edge52" class="edge">
<title>28&#45;&gt;29</title>
<path fill="none" stroke="#c0c0c0" stroke-width="2" d="M562.9432,-287.8314C546.0323,-278.5368 525.2615,-267.1208 507.2059,-257.1971"/>
<polygon fill="#c0c0c0" stroke="#c0c0c0" stroke-width="2" points="508.4957,-253.9122 498.0463,-252.1628 505.124,-260.0468 508.4957,-253.9122"/>
</g>
<!-- 29&#45;&gt;0 -->
<g id="edge1" class="edge">
<title>29&#45;&gt;0</title>
<path fill="none" stroke="#c0c0c0" stroke-width="2" d="M531.1972,-215.8792C562.1361,-205.9394 594.1166,-193.0153 603,-180 632.9942,-136.0544 590.3106,-76.9832 559.9081,-43.6659"/>
<polygon fill="#c0c0c0" stroke="#c0c0c0" stroke-width="2" points="562.2711,-41.0692 552.8767,-36.1706 557.1659,-45.8584 562.2711,-41.0692"/>
</g>
<!-- 29&#45;&gt;23 -->
<g id="edge41" class="edge">
<title>29&#45;&gt;23</title>
<path fill="none" stroke="#c0c0c0" stroke-width="2" d="M488.7202,-215.8314C500.4094,-206.8779 514.6688,-195.9558 527.2809,-186.2955"/>
<polygon fill="#c0c0c0" stroke="#c0c0c0" stroke-width="2" points="529.4769,-189.0222 535.2874,-180.1628 525.2203,-183.4651 529.4769,-189.0222"/>
</g>
<!-- 30 -->
<g id="node31" class="node">
<title>30</title>
<path fill="none" stroke="#56c9d8" stroke-width="2" d="M280.2514,-180C280.2514,-180 235.7486,-180 235.7486,-180 229.7486,-180 223.7486,-174 223.7486,-168 223.7486,-168 223.7486,-156 223.7486,-156 223.7486,-150 229.7486,-144 235.7486,-144 235.7486,-144 280.2514,-144 280.2514,-144 286.2514,-144 292.2514,-150 292.2514,-156 292.2514,-156 292.2514,-168 292.2514,-168 292.2514,-174 286.2514,-180 280.2514,-180"/>
<text text-anchor="middle" x="258" y="-159" font-family="sans" font-size="10.00" fill="#000000">pca_kallisto</text>
</g>
<!-- 30&#45;&gt;1 -->
<g id="edge12" class="edge">
<title>30&#45;&gt;1</title>
<path fill="none" stroke="#c0c0c0" stroke-width="2" d="M292.4821,-148.7941C321.7156,-137.5983 363.9957,-121.4059 396.7867,-108.8476"/>
<polygon fill="#c0c0c0" stroke="#c0c0c0" stroke-width="2" points="398.1115,-112.0882 406.1983,-105.2432 395.6079,-105.5512 398.1115,-112.0882"/>
</g>
<!-- 31&#45;&gt;0 -->
<g id="edge2" class="edge">
<title>31&#45;&gt;0</title>
<path fill="none" stroke="#c0c0c0" stroke-width="2" d="M282.4792,-215.8532C300.5537,-182.8718 343.0018,-112.7503 397,-72 427.0287,-49.3385 467.8011,-34.8873 497.0446,-26.695"/>
<polygon fill="#c0c0c0" stroke="#c0c0c0" stroke-width="2" points="498.1216,-30.0299 506.8711,-24.0552 496.3054,-23.2696 498.1216,-30.0299"/>
</g>
<!-- 31&#45;&gt;30 -->
<g id="edge55" class="edge">
<title>31&#45;&gt;30</title>
<path fill="none" stroke="#c0c0c0" stroke-width="2" d="M269.2149,-215.8314C267.6106,-208.131 265.703,-198.9743 263.9201,-190.4166"/>
<polygon fill="#c0c0c0" stroke="#c0c0c0" stroke-width="2" points="267.3021,-189.4892 261.8361,-180.4133 260.4493,-190.9169 267.3021,-189.4892"/>
</g>
<!-- 32&#45;&gt;0 -->
<g id="edge4" class="edge">
<title>32&#45;&gt;0</title>
<path fill="none" stroke="#c0c0c0" stroke-width="2" d="M145.6936,-215.6465C160.9758,-196.0783 187.2283,-165.0675 215,-144 303.9778,-76.5018 433.8082,-40.2749 496.8686,-25.7289"/>
<polygon fill="#c0c0c0" stroke="#c0c0c0" stroke-width="2" points="497.7751,-29.1125 506.7609,-23.4995 496.2361,-22.2837 497.7751,-29.1125"/>
</g>
<!-- 32&#45;&gt;30 -->
<g id="edge54" class="edge">
<title>32&#45;&gt;30</title>
<path fill="none" stroke="#c0c0c0" stroke-width="2" d="M163.7951,-215.8314C180.0605,-206.5368 200.0386,-195.1208 217.4051,-185.1971"/>
<polygon fill="#c0c0c0" stroke="#c0c0c0" stroke-width="2" points="219.2691,-188.1631 226.2151,-180.1628 215.7961,-182.0854 219.2691,-188.1631"/>
</g>
<!-- 33 -->
<g id="node34" class="node">
<title>33</title>
<path fill="none" stroke="#56d873" stroke-width="2" d="M493.9502,-180C493.9502,-180 398.0498,-180 398.0498,-180 392.0498,-180 386.0498,-174 386.0498,-168 386.0498,-168 386.0498,-156 386.0498,-156 386.0498,-150 392.0498,-144 398.0498,-144 398.0498,-144 493.9502,-144 493.9502,-144 499.9502,-144 505.9502,-150 505.9502,-156 505.9502,-156 505.9502,-168 505.9502,-168 505.9502,-174 499.9502,-180 493.9502,-180"/>
<text text-anchor="middle" x="446" y="-159" font-family="sans" font-size="10.00" fill="#000000">prepare_multiqc_config</text>
</g>
<!-- 33&#45;&gt;1 -->
<g id="edge7" class="edge">
<title>33&#45;&gt;1</title>
<path fill="none" stroke="#c0c0c0" stroke-width="2" d="M446,-143.8314C446,-136.131 446,-126.9743 446,-118.4166"/>
<polygon fill="#c0c0c0" stroke="#c0c0c0" stroke-width="2" points="449.5001,-118.4132 446,-108.4133 442.5001,-118.4133 449.5001,-118.4132"/>
</g>
<!-- 34&#45;&gt;0 -->
<g id="edge3" class="edge">
<title>34&#45;&gt;0</title>
<path fill="none" stroke="#c0c0c0" stroke-width="2" d="M826.7617,-80.7347C760.1071,-66.4515 633.4257,-39.3055 570.8567,-25.8979"/>
<polygon fill="#c0c0c0" stroke="#c0c0c0" stroke-width="2" points="571.5359,-22.464 561.0245,-23.791 570.0691,-29.3086 571.5359,-22.464"/>
</g>
<!-- 35&#45;&gt;34 -->
<g id="edge60" class="edge">
<title>35&#45;&gt;34</title>
<path fill="none" stroke="#c0c0c0" stroke-width="2" d="M870,-143.8314C870,-136.131 870,-126.9743 870,-118.4166"/>
<polygon fill="#c0c0c0" stroke="#c0c0c0" stroke-width="2" points="873.5001,-118.4132 870,-108.4133 866.5001,-118.4133 873.5001,-118.4132"/>
</g>
</g>
</svg>
