<?xml version="1.0" encoding="UTF-8" standalone="no"?>
<!DOCTYPE svg PUBLIC "-//W3C//DTD SVG 1.1//EN"
 "http://www.w3.org/Graphics/SVG/1.1/DTD/svg11.dtd">
<!-- Generated by graphviz version 2.42.3 (20191010.1750)
 -->
<!-- Title: snakemake_dag Pages: 1 -->
<svg width="1143pt" height="332pt"
 viewBox="0.00 0.00 1143.00 332.00" xmlns="http://www.w3.org/2000/svg" xmlns:xlink="http://www.w3.org/1999/xlink">
<g id="graph0" class="graph" transform="scale(1 1) rotate(0) translate(4 328)">
<title>snakemake_dag</title>
<polygon fill="white" stroke="transparent" points="-4,4 -4,-328 1139,-328 1139,4 -4,4"/>
<!-- 0 -->
<g id="node1" class="node">
<title>0</title>
<path fill="none" stroke="#5673d8" stroke-width="2" d="M561,-36C561,-36 531,-36 531,-36 525,-36 519,-30 519,-24 519,-24 519,-12 519,-12 519,-6 525,0 531,0 531,0 561,0 561,0 567,0 573,-6 573,-12 573,-12 573,-24 573,-24 573,-30 567,-36 561,-36"/>
<text text-anchor="middle" x="546" y="-15.5" font-family="sans" font-size="10.00">finish</text>
</g>
<!-- 1 -->
<g id="node2" class="node">
<title>1</title>
<path fill="none" stroke="#56d8c9" stroke-width="2" d="M52,-108C52,-108 12,-108 12,-108 6,-108 0,-102 0,-96 0,-96 0,-84 0,-84 0,-78 6,-72 12,-72 12,-72 52,-72 52,-72 58,-72 64,-78 64,-84 64,-84 64,-96 64,-96 64,-102 58,-108 52,-108"/>
<text text-anchor="middle" x="32" y="-87.5" font-family="sans" font-size="10.00">pe_fastqc</text>
</g>
<!-- 1&#45;&gt;0 -->
<g id="edge6" class="edge">
<title>1&#45;&gt;0</title>
<path fill="none" stroke="grey" stroke-width="2" d="M64.39,-74.6C67.27,-73.62 70.16,-72.73 73,-72 231.51,-31.13 427.95,-21.78 508.69,-19.64"/>
<polygon fill="grey" stroke="grey" stroke-width="2" points="508.94,-23.13 518.85,-19.39 508.77,-16.13 508.94,-23.13"/>
</g>
<!-- 2 -->
<g id="node3" class="node">
<title>2</title>
<path fill="none" stroke="#8fd856" stroke-width="2" d="M124,-108C124,-108 94,-108 94,-108 88,-108 82,-102 82,-96 82,-96 82,-84 82,-84 82,-78 88,-72 94,-72 94,-72 124,-72 124,-72 130,-72 136,-78 136,-84 136,-84 136,-96 136,-96 136,-102 130,-108 124,-108"/>
<text text-anchor="middle" x="109" y="-87.5" font-family="sans" font-size="10.00">fastqc</text>
</g>
<!-- 2&#45;&gt;0 -->
<g id="edge5" class="edge">
<title>2&#45;&gt;0</title>
<path fill="none" stroke="grey" stroke-width="2" d="M136.17,-75.1C139.1,-73.92 142.08,-72.86 145,-72 274.75,-33.8 436.26,-23.08 508.28,-20.11"/>
<polygon fill="grey" stroke="grey" stroke-width="2" points="508.79,-23.6 518.65,-19.72 508.53,-16.6 508.79,-23.6"/>
</g>
<!-- 3 -->
<g id="node4" class="node">
<title>3</title>
<path fill="none" stroke="#d88d56" stroke-width="2" d="M355.5,-108C355.5,-108 166.5,-108 166.5,-108 160.5,-108 154.5,-102 154.5,-96 154.5,-96 154.5,-84 154.5,-84 154.5,-78 160.5,-72 166.5,-72 166.5,-72 355.5,-72 355.5,-72 361.5,-72 367.5,-78 367.5,-84 367.5,-84 367.5,-96 367.5,-96 367.5,-102 361.5,-108 355.5,-108"/>
<text text-anchor="middle" x="261" y="-87.5" font-family="sans" font-size="10.00">pe_index_genomic_alignment_samtools</text>
</g>
<!-- 3&#45;&gt;0 -->
<g id="edge2" class="edge">
<title>3&#45;&gt;0</title>
<path fill="none" stroke="grey" stroke-width="2" d="M330.35,-71.97C386.61,-58.15 463.72,-39.21 508.87,-28.12"/>
<polygon fill="grey" stroke="grey" stroke-width="2" points="509.93,-31.46 518.81,-25.68 508.26,-24.66 509.93,-31.46"/>
</g>
<!-- 4 -->
<g id="node5" class="node">
<title>4</title>
<path fill="none" stroke="#c6d856" stroke-width="2" d="M569,-108C569,-108 397,-108 397,-108 391,-108 385,-102 385,-96 385,-96 385,-84 385,-84 385,-78 391,-72 397,-72 397,-72 569,-72 569,-72 575,-72 581,-78 581,-84 581,-84 581,-96 581,-96 581,-102 575,-108 569,-108"/>
<text text-anchor="middle" x="483" y="-87.5" font-family="sans" font-size="10.00">index_genomic_alignment_samtools</text>
</g>
<!-- 4&#45;&gt;0 -->
<g id="edge1" class="edge">
<title>4&#45;&gt;0</title>
<path fill="none" stroke="grey" stroke-width="2" d="M498.57,-71.7C506.2,-63.22 515.52,-52.86 523.88,-43.58"/>
<polygon fill="grey" stroke="grey" stroke-width="2" points="526.52,-45.88 530.61,-36.1 521.31,-41.2 526.52,-45.88"/>
</g>
<!-- 5 -->
<g id="node6" class="node">
<title>5</title>
<path fill="none" stroke="#56c9d8" stroke-width="2" d="M586,-180C586,-180 468,-180 468,-180 462,-180 456,-174 456,-168 456,-168 456,-156 456,-156 456,-150 462,-144 468,-144 468,-144 586,-144 586,-144 592,-144 598,-150 598,-156 598,-156 598,-168 598,-168 598,-174 592,-180 586,-180"/>
<text text-anchor="middle" x="527" y="-159.5" font-family="sans" font-size="10.00">pe_quantification_salmon</text>
</g>
<!-- 5&#45;&gt;0 -->
<g id="edge7" class="edge">
<title>5&#45;&gt;0</title>
<path fill="none" stroke="grey" stroke-width="2" d="M557.3,-143.8C569.88,-134.9 583.12,-122.77 590,-108 596.75,-93.49 595.43,-87.05 590,-72 586.25,-61.6 579.46,-51.8 572.33,-43.52"/>
<polygon fill="grey" stroke="grey" stroke-width="2" points="574.83,-41.06 565.47,-36.08 569.68,-45.81 574.83,-41.06"/>
</g>
<!-- 6 -->
<g id="node7" class="node">
<title>6</title>
<path fill="none" stroke="#59d856" stroke-width="2" d="M729.5,-180C729.5,-180 628.5,-180 628.5,-180 622.5,-180 616.5,-174 616.5,-168 616.5,-168 616.5,-156 616.5,-156 616.5,-150 622.5,-144 628.5,-144 628.5,-144 729.5,-144 729.5,-144 735.5,-144 741.5,-150 741.5,-156 741.5,-156 741.5,-168 741.5,-168 741.5,-174 735.5,-180 729.5,-180"/>
<text text-anchor="middle" x="679" y="-159.5" font-family="sans" font-size="10.00">quantification_salmon</text>
</g>
<!-- 6&#45;&gt;0 -->
<g id="edge4" class="edge">
<title>6&#45;&gt;0</title>
<path fill="none" stroke="grey" stroke-width="2" d="M666.56,-143.86C652.82,-125.38 629.64,-95.45 607,-72 597.14,-61.79 585.54,-51.36 575.12,-42.5"/>
<polygon fill="grey" stroke="grey" stroke-width="2" points="577.34,-39.79 567.43,-36.05 572.84,-45.15 577.34,-39.79"/>
</g>
<!-- 7 -->
<g id="node8" class="node">
<title>7</title>
<path fill="none" stroke="#d8ac56" stroke-width="2" d="M934.5,-180C934.5,-180 771.5,-180 771.5,-180 765.5,-180 759.5,-174 759.5,-168 759.5,-168 759.5,-156 759.5,-156 759.5,-150 765.5,-144 771.5,-144 771.5,-144 934.5,-144 934.5,-144 940.5,-144 946.5,-150 946.5,-156 946.5,-156 946.5,-168 946.5,-168 946.5,-174 940.5,-180 934.5,-180"/>
<text text-anchor="middle" x="853" y="-159.5" font-family="sans" font-size="10.00">pe_genome_quantification_kallisto</text>
</g>
<!-- 7&#45;&gt;0 -->
<g id="edge3" class="edge">
<title>7&#45;&gt;0</title>
<path fill="none" stroke="grey" stroke-width="2" d="M815.97,-143.87C756.75,-116.48 641.43,-63.14 582.53,-35.9"/>
<polygon fill="grey" stroke="grey" stroke-width="2" points="583.78,-32.62 573.24,-31.6 580.84,-38.97 583.78,-32.62"/>
</g>
<!-- 8 -->
<g id="node9" class="node">
<title>8</title>
<path fill="none" stroke="#56a9d8" stroke-width="2" d="M1123,-180C1123,-180 977,-180 977,-180 971,-180 965,-174 965,-168 965,-168 965,-156 965,-156 965,-150 971,-144 977,-144 977,-144 1123,-144 1123,-144 1129,-144 1135,-150 1135,-156 1135,-156 1135,-168 1135,-168 1135,-174 1129,-180 1123,-180"/>
<text text-anchor="middle" x="1050" y="-159.5" font-family="sans" font-size="10.00">genome_quantification_kallisto</text>
</g>
<!-- 8&#45;&gt;0 -->
<g id="edge8" class="edge">
<title>8&#45;&gt;0</title>
<path fill="none" stroke="grey" stroke-width="2" d="M989.46,-143.94C883.9,-114.2 669.21,-53.71 583.03,-29.43"/>
<polygon fill="grey" stroke="grey" stroke-width="2" points="583.74,-26 573.17,-26.65 581.84,-32.74 583.74,-26"/>
</g>
<!-- 9 -->
<g id="node10" class="node">
<title>9</title>
<path fill="none" stroke="#5692d8" stroke-width="2" d="M300.5,-180C300.5,-180 199.5,-180 199.5,-180 193.5,-180 187.5,-174 187.5,-168 187.5,-168 187.5,-156 187.5,-156 187.5,-150 193.5,-144 199.5,-144 199.5,-144 300.5,-144 300.5,-144 306.5,-144 312.5,-150 312.5,-156 312.5,-156 312.5,-168 312.5,-168 312.5,-174 306.5,-180 300.5,-180"/>
<text text-anchor="middle" x="250" y="-159.5" font-family="sans" font-size="10.00">pe_map_genome_star</text>
</g>
<!-- 9&#45;&gt;3 -->
<g id="edge9" class="edge">
<title>9&#45;&gt;3</title>
<path fill="none" stroke="grey" stroke-width="2" d="M252.72,-143.7C253.93,-135.98 255.39,-126.71 256.74,-118.11"/>
<polygon fill="grey" stroke="grey" stroke-width="2" points="260.22,-118.53 258.31,-108.1 253.3,-117.44 260.22,-118.53"/>
</g>
<!-- 10 -->
<g id="node11" class="node">
<title>10</title>
<path fill="none" stroke="#afd856" stroke-width="2" d="M425.5,-180C425.5,-180 342.5,-180 342.5,-180 336.5,-180 330.5,-174 330.5,-168 330.5,-168 330.5,-156 330.5,-156 330.5,-150 336.5,-144 342.5,-144 342.5,-144 425.5,-144 425.5,-144 431.5,-144 437.5,-150 437.5,-156 437.5,-156 437.5,-168 437.5,-168 437.5,-174 431.5,-180 425.5,-180"/>
<text text-anchor="middle" x="384" y="-159.5" font-family="sans" font-size="10.00">map_genome_star</text>
</g>
<!-- 10&#45;&gt;4 -->
<g id="edge10" class="edge">
<title>10&#45;&gt;4</title>
<path fill="none" stroke="grey" stroke-width="2" d="M408.22,-143.88C420.92,-134.89 436.66,-123.76 450.42,-114.03"/>
<polygon fill="grey" stroke="grey" stroke-width="2" points="452.54,-116.82 458.69,-108.19 448.5,-111.11 452.54,-116.82"/>
</g>
<!-- 11 -->
<g id="node12" class="node">
<title>11</title>
<path fill="none" stroke="#d87556" stroke-width="2" d="M528,-252C528,-252 400,-252 400,-252 394,-252 388,-246 388,-240 388,-240 388,-228 388,-228 388,-222 394,-216 400,-216 400,-216 528,-216 528,-216 534,-216 540,-222 540,-228 540,-228 540,-240 540,-240 540,-246 534,-252 528,-252"/>
<text text-anchor="middle" x="464" y="-231.5" font-family="sans" font-size="10.00">pe_remove_polya_cutadapt</text>
</g>
<!-- 11&#45;&gt;5 -->
<g id="edge12" class="edge">
<title>11&#45;&gt;5</title>
<path fill="none" stroke="grey" stroke-width="2" d="M479.57,-215.7C487.2,-207.22 496.52,-196.86 504.88,-187.58"/>
<polygon fill="grey" stroke="grey" stroke-width="2" points="507.52,-189.88 511.61,-180.1 502.31,-185.2 507.52,-189.88"/>
</g>
<!-- 11&#45;&gt;7 -->
<g id="edge16" class="edge">
<title>11&#45;&gt;7</title>
<path fill="none" stroke="grey" stroke-width="2" d="M540.44,-217.62C543.33,-217.07 546.19,-216.53 549,-216 615.58,-203.54 690.55,-190.46 749.38,-180.41"/>
<polygon fill="grey" stroke="grey" stroke-width="2" points="750.15,-183.83 759.42,-178.7 748.97,-176.93 750.15,-183.83"/>
</g>
<!-- 11&#45;&gt;9 -->
<g id="edge20" class="edge">
<title>11&#45;&gt;9</title>
<path fill="none" stroke="grey" stroke-width="2" d="M411.92,-215.97C381.76,-206.1 343.61,-193.62 311.92,-183.25"/>
<polygon fill="grey" stroke="grey" stroke-width="2" points="312.9,-179.89 302.31,-180.11 310.73,-186.55 312.9,-179.89"/>
</g>
<!-- 12 -->
<g id="node13" class="node">
<title>12</title>
<path fill="none" stroke="#d85656" stroke-width="2" d="M667.5,-252C667.5,-252 570.5,-252 570.5,-252 564.5,-252 558.5,-246 558.5,-240 558.5,-240 558.5,-228 558.5,-228 558.5,-222 564.5,-216 570.5,-216 570.5,-216 667.5,-216 667.5,-216 673.5,-216 679.5,-222 679.5,-228 679.5,-228 679.5,-240 679.5,-240 679.5,-246 673.5,-252 667.5,-252"/>
<text text-anchor="middle" x="619" y="-231.5" font-family="sans" font-size="10.00">create_index_salmon</text>
</g>
<!-- 12&#45;&gt;5 -->
<g id="edge11" class="edge">
<title>12&#45;&gt;5</title>
<path fill="none" stroke="grey" stroke-width="2" d="M596.26,-215.7C584.56,-206.8 570.14,-195.82 557.49,-186.2"/>
<polygon fill="grey" stroke="grey" stroke-width="2" points="559.56,-183.37 549.48,-180.1 555.32,-188.94 559.56,-183.37"/>
</g>
<!-- 12&#45;&gt;6 -->
<g id="edge13" class="edge">
<title>12&#45;&gt;6</title>
<path fill="none" stroke="grey" stroke-width="2" d="M633.83,-215.7C641.02,-207.3 649.8,-197.07 657.69,-187.86"/>
<polygon fill="grey" stroke="grey" stroke-width="2" points="660.49,-189.97 664.34,-180.1 655.17,-185.42 660.49,-189.97"/>
</g>
<!-- 13 -->
<g id="node14" class="node">
<title>13</title>
<path fill="none" stroke="#d8cb56" stroke-width="2" d="M820,-252C820,-252 710,-252 710,-252 704,-252 698,-246 698,-240 698,-240 698,-228 698,-228 698,-222 704,-216 710,-216 710,-216 820,-216 820,-216 826,-216 832,-222 832,-228 832,-228 832,-240 832,-240 832,-246 826,-252 820,-252"/>
<text text-anchor="middle" x="765" y="-231.5" font-family="sans" font-size="10.00">remove_polya_cutadapt</text>
</g>
<!-- 13&#45;&gt;6 -->
<g id="edge14" class="edge">
<title>13&#45;&gt;6</title>
<path fill="none" stroke="grey" stroke-width="2" d="M743.74,-215.7C732.91,-206.88 719.58,-196.03 707.84,-186.47"/>
<polygon fill="grey" stroke="grey" stroke-width="2" points="709.98,-183.7 700.01,-180.1 705.56,-189.13 709.98,-183.7"/>
</g>
<!-- 13&#45;&gt;8 -->
<g id="edge18" class="edge">
<title>13&#45;&gt;8</title>
<path fill="none" stroke="grey" stroke-width="2" d="M832.18,-216.5C873.55,-206.34 926.82,-193.26 970.32,-182.57"/>
<polygon fill="grey" stroke="grey" stroke-width="2" points="971.42,-185.9 980.29,-180.12 969.75,-179.11 971.42,-185.9"/>
</g>
<!-- 13&#45;&gt;10 -->
<g id="edge22" class="edge">
<title>13&#45;&gt;10</title>
<path fill="none" stroke="grey" stroke-width="2" d="M697.86,-217.89C694.53,-217.23 691.23,-216.6 688,-216 584.62,-196.89 554.75,-201.82 447.45,-179.95"/>
<polygon fill="grey" stroke="grey" stroke-width="2" points="448.02,-176.49 437.52,-177.89 446.6,-183.35 448.02,-176.49"/>
</g>
<!-- 14 -->
<g id="node15" class="node">
<title>14</title>
<path fill="none" stroke="#56d892" stroke-width="2" d="M961.5,-252C961.5,-252 864.5,-252 864.5,-252 858.5,-252 852.5,-246 852.5,-240 852.5,-240 852.5,-228 852.5,-228 852.5,-222 858.5,-216 864.5,-216 864.5,-216 961.5,-216 961.5,-216 967.5,-216 973.5,-222 973.5,-228 973.5,-228 973.5,-240 973.5,-240 973.5,-246 967.5,-252 961.5,-252"/>
<text text-anchor="middle" x="913" y="-231.5" font-family="sans" font-size="10.00">create_index_kallisto</text>
</g>
<!-- 14&#45;&gt;7 -->
<g id="edge15" class="edge">
<title>14&#45;&gt;7</title>
<path fill="none" stroke="grey" stroke-width="2" d="M898.17,-215.7C890.98,-207.3 882.2,-197.07 874.31,-187.86"/>
<polygon fill="grey" stroke="grey" stroke-width="2" points="876.83,-185.42 867.66,-180.1 871.51,-189.97 876.83,-185.42"/>
</g>
<!-- 14&#45;&gt;8 -->
<g id="edge17" class="edge">
<title>14&#45;&gt;8</title>
<path fill="none" stroke="grey" stroke-width="2" d="M946.51,-215.88C964.84,-206.51 987.74,-194.81 1007.33,-184.8"/>
<polygon fill="grey" stroke="grey" stroke-width="2" points="1009.04,-187.86 1016.36,-180.19 1005.86,-181.62 1009.04,-187.86"/>
</g>
<!-- 15 -->
<g id="node16" class="node">
<title>15</title>
<path fill="none" stroke="#56d873" stroke-width="2" d="M353,-252C353,-252 273,-252 273,-252 267,-252 261,-246 261,-240 261,-240 261,-228 261,-228 261,-222 267,-216 273,-216 273,-216 353,-216 353,-216 359,-216 365,-222 365,-228 365,-228 365,-240 365,-240 365,-246 359,-252 353,-252"/>
<text text-anchor="middle" x="313" y="-231.5" font-family="sans" font-size="10.00">create_index_star</text>
</g>
<!-- 15&#45;&gt;9 -->
<g id="edge19" class="edge">
<title>15&#45;&gt;9</title>
<path fill="none" stroke="grey" stroke-width="2" d="M297.43,-215.7C289.8,-207.22 280.48,-196.86 272.12,-187.58"/>
<polygon fill="grey" stroke="grey" stroke-width="2" points="274.69,-185.2 265.39,-180.1 269.48,-189.88 274.69,-185.2"/>
</g>
<!-- 15&#45;&gt;10 -->
<g id="edge21" class="edge">
<title>15&#45;&gt;10</title>
<path fill="none" stroke="grey" stroke-width="2" d="M330.55,-215.7C339.23,-207.14 349.86,-196.66 359.35,-187.3"/>
<polygon fill="grey" stroke="grey" stroke-width="2" points="361.99,-189.62 366.65,-180.1 357.07,-184.63 361.99,-189.62"/>
</g>
<!-- 16 -->
<g id="node17" class="node">
<title>16</title>
<path fill="none" stroke="#70d856" stroke-width="2" d="M535.5,-324C535.5,-324 392.5,-324 392.5,-324 386.5,-324 380.5,-318 380.5,-312 380.5,-312 380.5,-300 380.5,-300 380.5,-294 386.5,-288 392.5,-288 392.5,-288 535.5,-288 535.5,-288 541.5,-288 547.5,-294 547.5,-300 547.5,-300 547.5,-312 547.5,-312 547.5,-318 541.5,-324 535.5,-324"/>
<text text-anchor="middle" x="464" y="-303.5" font-family="sans" font-size="10.00">pe_remove_adapters_cutadapt</text>
</g>
<!-- 16&#45;&gt;11 -->
<g id="edge23" class="edge">
<title>16&#45;&gt;11</title>
<path fill="none" stroke="grey" stroke-width="2" d="M464,-287.7C464,-279.98 464,-270.71 464,-262.11"/>
<polygon fill="grey" stroke="grey" stroke-width="2" points="467.5,-262.1 464,-252.1 460.5,-262.1 467.5,-262.1"/>
</g>
<!-- 17 -->
<g id="node18" class="node">
<title>17</title>
<path fill="none" stroke="#56d8a9" stroke-width="2" d="M828,-324C828,-324 702,-324 702,-324 696,-324 690,-318 690,-312 690,-312 690,-300 690,-300 690,-294 696,-288 702,-288 702,-288 828,-288 828,-288 834,-288 840,-294 840,-300 840,-300 840,-312 840,-312 840,-318 834,-324 828,-324"/>
<text text-anchor="middle" x="765" y="-303.5" font-family="sans" font-size="10.00">remove_adapters_cutadapt</text>
</g>
<!-- 17&#45;&gt;13 -->
<g id="edge24" class="edge">
<title>17&#45;&gt;13</title>
<path fill="none" stroke="grey" stroke-width="2" d="M765,-287.7C765,-279.98 765,-270.71 765,-262.11"/>
<polygon fill="grey" stroke="grey" stroke-width="2" points="768.5,-262.1 765,-252.1 761.5,-262.1 768.5,-262.1"/>
</g>
</g>
</svg>
