<?xml version="1.0" encoding="UTF-8" standalone="no"?>
<!DOCTYPE svg PUBLIC "-//W3C//DTD SVG 1.1//EN"
 "http://www.w3.org/Graphics/SVG/1.1/DTD/svg11.dtd">
<!-- Generated by graphviz version 2.40.1 (20161225.0304)
 -->
<!-- Title: snakemake_dag Pages: 1 -->
<svg width="1510pt" height="337pt"
 viewBox="0.00 0.00 1510.02 337.00" xmlns="http://www.w3.org/2000/svg" xmlns:xlink="http://www.w3.org/1999/xlink">
<g id="graph0" class="graph" transform="scale(1 1) rotate(0) translate(4 333)">
<title>snakemake_dag</title>
<polygon fill="#ffffff" stroke="transparent" points="-4,4 -4,-333 1506.0203,-333 1506.0203,4 -4,4"/>
<!-- 0 -->
<g id="node1" class="node">
<title>0</title>
<path fill="none" stroke="#9fd856" stroke-width="2" d="M991,-36C991,-36 961,-36 961,-36 955,-36 949,-30 949,-24 949,-24 949,-12 949,-12 949,-6 955,0 961,0 961,0 991,0 991,0 997,0 1003,-6 1003,-12 1003,-12 1003,-24 1003,-24 1003,-30 997,-36 991,-36"/>
<text text-anchor="middle" x="976" y="-15.5" font-family="sans" font-size="10.00" fill="#000000">finish</text>
</g>
<!-- 1 -->
<g id="node2" class="node">
<title>1</title>
<path fill="none" stroke="#56b1d8" stroke-width="2" d="M158,-108C158,-108 12,-108 12,-108 6,-108 0,-102 0,-96 0,-96 0,-84 0,-84 0,-78 6,-72 12,-72 12,-72 158,-72 158,-72 164,-72 170,-78 170,-84 170,-84 170,-96 170,-96 170,-102 164,-108 158,-108"/>
<text text-anchor="middle" x="85" y="-93" font-family="sans" font-size="10.00" fill="#000000">pe_fastqc</text>
<text text-anchor="middle" x="85" y="-82" font-family="sans" font-size="10.00" fill="#000000">sample: synthetic_10_reads_paired</text>
</g>
<!-- 1&#45;&gt;0 -->
<g id="edge1" class="edge">
<title>1&#45;&gt;0</title>
<path fill="none" stroke="#c0c0c0" stroke-width="2" d="M170.2331,-73.2105C173.1873,-72.778 176.1162,-72.3724 179,-72 469.8071,-34.4465 823.8993,-22.0899 938.3813,-18.9256"/>
<polygon fill="#c0c0c0" stroke="#c0c0c0" stroke-width="2" points="938.8,-22.4157 948.702,-18.6475 938.6114,-15.4182 938.8,-22.4157"/>
</g>
<!-- 2 -->
<g id="node3" class="node">
<title>2</title>
<path fill="none" stroke="#d85656" stroke-width="2" d="M352,-108C352,-108 200,-108 200,-108 194,-108 188,-102 188,-96 188,-96 188,-84 188,-84 188,-78 194,-72 200,-72 200,-72 352,-72 352,-72 358,-72 364,-78 364,-84 364,-84 364,-96 364,-96 364,-102 358,-108 352,-108"/>
<text text-anchor="middle" x="276" y="-93" font-family="sans" font-size="10.00" fill="#000000">fastqc</text>
<text text-anchor="middle" x="276" y="-82" font-family="sans" font-size="10.00" fill="#000000">sample: synthetic_10_reads_mate_1</text>
</g>
<!-- 2&#45;&gt;0 -->
<g id="edge2" class="edge">
<title>2&#45;&gt;0</title>
<path fill="none" stroke="#c0c0c0" stroke-width="2" d="M364.2307,-73.2628C367.186,-72.8186 370.1153,-72.3959 373,-72 586.0653,-42.757 843.7556,-25.763 938.6211,-20.119"/>
<polygon fill="#c0c0c0" stroke="#c0c0c0" stroke-width="2" points="939.0748,-23.5984 948.8519,-19.517 938.6636,-16.6105 939.0748,-23.5984"/>
</g>
<!-- 3 -->
<g id="node4" class="node">
<title>3</title>
<path fill="none" stroke="#56d86b" stroke-width="2" d="M560,-108C560,-108 394,-108 394,-108 388,-108 382,-102 382,-96 382,-96 382,-84 382,-84 382,-78 388,-72 394,-72 394,-72 560,-72 560,-72 566,-72 572,-78 572,-84 572,-84 572,-96 572,-96 572,-102 566,-108 560,-108"/>
<text text-anchor="middle" x="477" y="-87.5" font-family="sans" font-size="10.00" fill="#000000">pe_index_genomic_alignment_samtools</text>
</g>
<!-- 3&#45;&gt;0 -->
<g id="edge3" class="edge">
<title>3&#45;&gt;0</title>
<path fill="none" stroke="#c0c0c0" stroke-width="2" d="M572.1926,-73.3851C575.1613,-72.9115 578.1027,-72.4486 581,-72 712.0945,-51.7009 868.2982,-31.5289 938.5332,-22.6716"/>
<polygon fill="#c0c0c0" stroke="#c0c0c0" stroke-width="2" points="939.17,-26.1191 948.655,-21.3985 938.2964,-19.1739 939.17,-26.1191"/>
</g>
<!-- 4 -->
<g id="node5" class="node">
<title>4</title>
<path fill="none" stroke="#b6d856" stroke-width="2" d="M752,-108C752,-108 602,-108 602,-108 596,-108 590,-102 590,-96 590,-96 590,-84 590,-84 590,-78 596,-72 602,-72 602,-72 752,-72 752,-72 758,-72 764,-78 764,-84 764,-84 764,-96 764,-96 764,-102 758,-108 752,-108"/>
<text text-anchor="middle" x="677" y="-87.5" font-family="sans" font-size="10.00" fill="#000000">index_genomic_alignment_samtools</text>
</g>
<!-- 4&#45;&gt;0 -->
<g id="edge4" class="edge">
<title>4&#45;&gt;0</title>
<path fill="none" stroke="#c0c0c0" stroke-width="2" d="M752.0644,-71.9243C811.5694,-57.5953 892.1971,-38.18 938.7061,-26.9805"/>
<polygon fill="#c0c0c0" stroke="#c0c0c0" stroke-width="2" points="939.7465,-30.3301 948.6492,-24.5861 938.1077,-23.5246 939.7465,-30.3301"/>
</g>
<!-- 5 -->
<g id="node6" class="node">
<title>5</title>
<path fill="none" stroke="#70d856" stroke-width="2" d="M963.5,-180C963.5,-180 860.5,-180 860.5,-180 854.5,-180 848.5,-174 848.5,-168 848.5,-168 848.5,-156 848.5,-156 848.5,-150 854.5,-144 860.5,-144 860.5,-144 963.5,-144 963.5,-144 969.5,-144 975.5,-150 975.5,-156 975.5,-156 975.5,-168 975.5,-168 975.5,-174 969.5,-180 963.5,-180"/>
<text text-anchor="middle" x="912" y="-159.5" font-family="sans" font-size="10.00" fill="#000000">pe_quantification_salmon</text>
</g>
<!-- 5&#45;&gt;0 -->
<g id="edge5" class="edge">
<title>5&#45;&gt;0</title>
<path fill="none" stroke="#c0c0c0" stroke-width="2" d="M853.6599,-143.8856C836.9498,-135.6937 820.6591,-124.1172 811,-108 802.7751,-94.2759 801.6092,-84.9543 811,-72 826.1492,-51.1023 894.8804,-33.9967 938.718,-24.9629"/>
<polygon fill="#c0c0c0" stroke="#c0c0c0" stroke-width="2" points="939.6268,-28.3503 948.7408,-22.9481 938.2471,-21.4876 939.6268,-28.3503"/>
</g>
<!-- 9 -->
<g id="node10" class="node">
<title>9</title>
<path fill="none" stroke="#d86e56" stroke-width="2" d="M960,-108C960,-108 832,-108 832,-108 826,-108 820,-102 820,-96 820,-96 820,-84 820,-84 820,-78 826,-72 832,-72 832,-72 960,-72 960,-72 966,-72 972,-78 972,-84 972,-84 972,-96 972,-96 972,-102 966,-108 960,-108"/>
<text text-anchor="middle" x="896" y="-87.5" font-family="sans" font-size="10.00" fill="#000000">pe_salmon_quantmerge_genes</text>
</g>
<!-- 5&#45;&gt;9 -->
<g id="edge23" class="edge">
<title>5&#45;&gt;9</title>
<path fill="none" stroke="#c0c0c0" stroke-width="2" d="M907.9625,-143.8314C906.2513,-136.131 904.2165,-126.9743 902.3148,-118.4166"/>
<polygon fill="#c0c0c0" stroke="#c0c0c0" stroke-width="2" points="905.6779,-117.4159 900.0918,-108.4133 898.8446,-118.9344 905.6779,-117.4159"/>
</g>
<!-- 11 -->
<g id="node12" class="node">
<title>11</title>
<path fill="none" stroke="#56d8c9" stroke-width="2" d="M1109.5,-108C1109.5,-108 1002.5,-108 1002.5,-108 996.5,-108 990.5,-102 990.5,-96 990.5,-96 990.5,-84 990.5,-84 990.5,-78 996.5,-72 1002.5,-72 1002.5,-72 1109.5,-72 1109.5,-72 1115.5,-72 1121.5,-78 1121.5,-84 1121.5,-84 1121.5,-96 1121.5,-96 1121.5,-102 1115.5,-108 1109.5,-108"/>
<text text-anchor="middle" x="1056" y="-87.5" font-family="sans" font-size="10.00" fill="#000000">pe_salmon_quantmerge_tr</text>
</g>
<!-- 5&#45;&gt;11 -->
<g id="edge25" class="edge">
<title>5&#45;&gt;11</title>
<path fill="none" stroke="#c0c0c0" stroke-width="2" d="M948.3373,-143.8314C967.3396,-134.3302 990.7758,-122.6121 1010.9252,-112.5374"/>
<polygon fill="#c0c0c0" stroke="#c0c0c0" stroke-width="2" points="1012.545,-115.6407 1019.924,-108.038 1009.4145,-109.3797 1012.545,-115.6407"/>
</g>
<!-- 6 -->
<g id="node7" class="node">
<title>6</title>
<path fill="none" stroke="#56d882" stroke-width="2" d="M1310.5,-180C1310.5,-180 1223.5,-180 1223.5,-180 1217.5,-180 1211.5,-174 1211.5,-168 1211.5,-168 1211.5,-156 1211.5,-156 1211.5,-150 1217.5,-144 1223.5,-144 1223.5,-144 1310.5,-144 1310.5,-144 1316.5,-144 1322.5,-150 1322.5,-156 1322.5,-156 1322.5,-168 1322.5,-168 1322.5,-174 1316.5,-180 1310.5,-180"/>
<text text-anchor="middle" x="1267" y="-159.5" font-family="sans" font-size="10.00" fill="#000000">quantification_salmon</text>
</g>
<!-- 6&#45;&gt;0 -->
<g id="edge6" class="edge">
<title>6&#45;&gt;0</title>
<path fill="none" stroke="#c0c0c0" stroke-width="2" d="M1247.3898,-143.7542C1224.9107,-123.6927 1186.2216,-91.6982 1148,-72 1104.0675,-49.3586 1048.8886,-34.1028 1013.054,-25.7361"/>
<polygon fill="#c0c0c0" stroke="#c0c0c0" stroke-width="2" points="1013.564,-22.2628 1003.0369,-23.4593 1012.0125,-29.0887 1013.564,-22.2628"/>
</g>
<!-- 10 -->
<g id="node11" class="node">
<title>10</title>
<path fill="none" stroke="#56c9d8" stroke-width="2" d="M1340,-108C1340,-108 1228,-108 1228,-108 1222,-108 1216,-102 1216,-96 1216,-96 1216,-84 1216,-84 1216,-78 1222,-72 1228,-72 1228,-72 1340,-72 1340,-72 1346,-72 1352,-78 1352,-84 1352,-84 1352,-96 1352,-96 1352,-102 1346,-108 1340,-108"/>
<text text-anchor="middle" x="1284" y="-87.5" font-family="sans" font-size="10.00" fill="#000000">salmon_quantmerge_genes</text>
</g>
<!-- 6&#45;&gt;10 -->
<g id="edge24" class="edge">
<title>6&#45;&gt;10</title>
<path fill="none" stroke="#c0c0c0" stroke-width="2" d="M1271.2898,-143.8314C1273.108,-136.131 1275.2699,-126.9743 1277.2905,-118.4166"/>
<polygon fill="#c0c0c0" stroke="#c0c0c0" stroke-width="2" points="1280.7608,-118.95 1279.6524,-108.4133 1273.9481,-117.3414 1280.7608,-118.95"/>
</g>
<!-- 12 -->
<g id="node13" class="node">
<title>12</title>
<path fill="none" stroke="#569ad8" stroke-width="2" d="M1474,-108C1474,-108 1382,-108 1382,-108 1376,-108 1370,-102 1370,-96 1370,-96 1370,-84 1370,-84 1370,-78 1376,-72 1382,-72 1382,-72 1474,-72 1474,-72 1480,-72 1486,-78 1486,-84 1486,-84 1486,-96 1486,-96 1486,-102 1480,-108 1474,-108"/>
<text text-anchor="middle" x="1428" y="-87.5" font-family="sans" font-size="10.00" fill="#000000">salmon_quantmerge_tr</text>
</g>
<!-- 6&#45;&gt;12 -->
<g id="edge26" class="edge">
<title>6&#45;&gt;12</title>
<path fill="none" stroke="#c0c0c0" stroke-width="2" d="M1307.6271,-143.8314C1329.1599,-134.2018 1355.7849,-122.295 1378.5152,-112.1299"/>
<polygon fill="#c0c0c0" stroke="#c0c0c0" stroke-width="2" points="1379.9652,-115.3155 1387.665,-108.038 1377.1074,-108.9254 1379.9652,-115.3155"/>
</g>
<!-- 7 -->
<g id="node8" class="node">
<title>7</title>
<path fill="none" stroke="#d88556" stroke-width="2" d="M1181,-180C1181,-180 1039,-180 1039,-180 1033,-180 1027,-174 1027,-168 1027,-168 1027,-156 1027,-156 1027,-150 1033,-144 1039,-144 1039,-144 1181,-144 1181,-144 1187,-144 1193,-150 1193,-156 1193,-156 1193,-168 1193,-168 1193,-174 1187,-180 1181,-180"/>
<text text-anchor="middle" x="1110" y="-159.5" font-family="sans" font-size="10.00" fill="#000000">pe_genome_quantification_kallisto</text>
</g>
<!-- 7&#45;&gt;0 -->
<g id="edge7" class="edge">
<title>7&#45;&gt;0</title>
<path fill="none" stroke="#c0c0c0" stroke-width="2" d="M1122.0924,-143.7945C1133.3363,-124.353 1146.2414,-93.4497 1131,-72 1117.1153,-52.4595 1054.535,-35.2799 1013.2611,-25.7978"/>
<polygon fill="#c0c0c0" stroke="#c0c0c0" stroke-width="2" points="1013.7931,-22.3302 1003.2694,-23.5561 1012.2607,-29.1604 1013.7931,-22.3302"/>
</g>
<!-- 8 -->
<g id="node9" class="node">
<title>8</title>
<path fill="none" stroke="#88d856" stroke-width="2" d="M1479,-180C1479,-180 1353,-180 1353,-180 1347,-180 1341,-174 1341,-168 1341,-168 1341,-156 1341,-156 1341,-150 1347,-144 1353,-144 1353,-144 1479,-144 1479,-144 1485,-144 1491,-150 1491,-156 1491,-156 1491,-168 1491,-168 1491,-174 1485,-180 1479,-180"/>
<text text-anchor="middle" x="1416" y="-159.5" font-family="sans" font-size="10.00" fill="#000000">genome_quantification_kallisto</text>
</g>
<!-- 8&#45;&gt;0 -->
<g id="edge8" class="edge">
<title>8&#45;&gt;0</title>
<path fill="none" stroke="#c0c0c0" stroke-width="2" d="M1457.534,-143.9032C1472.1053,-135.2837 1486.8583,-123.4273 1495,-108 1502.4678,-93.8497 1505.7123,-83.8847 1495,-72 1462.8307,-36.3099 1127.5307,-22.6878 1013.6242,-19.0686"/>
<polygon fill="#c0c0c0" stroke="#c0c0c0" stroke-width="2" points="1013.4133,-15.5605 1003.3097,-18.7492 1013.1966,-22.5572 1013.4133,-15.5605"/>
</g>
<!-- 9&#45;&gt;0 -->
<g id="edge9" class="edge">
<title>9&#45;&gt;0</title>
<path fill="none" stroke="#c0c0c0" stroke-width="2" d="M916.1874,-71.8314C925.8514,-63.1337 937.5796,-52.5783 948.0816,-43.1265"/>
<polygon fill="#c0c0c0" stroke="#c0c0c0" stroke-width="2" points="950.7275,-45.454 955.8191,-36.1628 946.0447,-40.251 950.7275,-45.454"/>
</g>
<!-- 10&#45;&gt;0 -->
<g id="edge10" class="edge">
<title>10&#45;&gt;0</title>
<path fill="none" stroke="#c0c0c0" stroke-width="2" d="M1215.6448,-74.0209C1153.1373,-59.4087 1063.0275,-38.3441 1013.0065,-26.6509"/>
<polygon fill="#c0c0c0" stroke="#c0c0c0" stroke-width="2" points="1013.7953,-23.241 1003.2611,-24.3727 1012.2019,-30.0572 1013.7953,-23.241"/>
</g>
<!-- 11&#45;&gt;0 -->
<g id="edge11" class="edge">
<title>11&#45;&gt;0</title>
<path fill="none" stroke="#c0c0c0" stroke-width="2" d="M1035.8126,-71.8314C1026.1486,-63.1337 1014.4204,-52.5783 1003.9184,-43.1265"/>
<polygon fill="#c0c0c0" stroke="#c0c0c0" stroke-width="2" points="1005.9553,-40.251 996.1809,-36.1628 1001.2725,-45.454 1005.9553,-40.251"/>
</g>
<!-- 12&#45;&gt;0 -->
<g id="edge12" class="edge">
<title>12&#45;&gt;0</title>
<path fill="none" stroke="#c0c0c0" stroke-width="2" d="M1369.9993,-73.9492C1366.9638,-73.2561 1363.9505,-72.6009 1361,-72 1234.5556,-46.2493 1082.2442,-28.843 1013.2245,-21.6797"/>
<polygon fill="#c0c0c0" stroke="#c0c0c0" stroke-width="2" points="1013.5735,-18.1972 1003.2684,-20.6577 1012.8587,-25.1606 1013.5735,-18.1972"/>
</g>
<!-- 13 -->
<g id="node14" class="node">
<title>13</title>
<path fill="none" stroke="#d8cb56" stroke-width="2" d="M694.5,-180C694.5,-180 605.5,-180 605.5,-180 599.5,-180 593.5,-174 593.5,-168 593.5,-168 593.5,-156 593.5,-156 593.5,-150 599.5,-144 605.5,-144 605.5,-144 694.5,-144 694.5,-144 700.5,-144 706.5,-150 706.5,-156 706.5,-156 706.5,-168 706.5,-168 706.5,-174 700.5,-180 694.5,-180"/>
<text text-anchor="middle" x="650" y="-159.5" font-family="sans" font-size="10.00" fill="#000000">pe_map_genome_star</text>
</g>
<!-- 13&#45;&gt;3 -->
<g id="edge13" class="edge">
<title>13&#45;&gt;3</title>
<path fill="none" stroke="#c0c0c0" stroke-width="2" d="M606.3448,-143.8314C583.1042,-134.159 554.3432,-122.1891 529.8477,-111.9944"/>
<polygon fill="#c0c0c0" stroke="#c0c0c0" stroke-width="2" points="530.9185,-108.6491 520.3413,-108.038 528.2288,-115.1117 530.9185,-108.6491"/>
</g>
<!-- 14 -->
<g id="node15" class="node">
<title>14</title>
<path fill="none" stroke="#56d8b1" stroke-width="2" d="M809.5,-180C809.5,-180 736.5,-180 736.5,-180 730.5,-180 724.5,-174 724.5,-168 724.5,-168 724.5,-156 724.5,-156 724.5,-150 730.5,-144 736.5,-144 736.5,-144 809.5,-144 809.5,-144 815.5,-144 821.5,-150 821.5,-156 821.5,-156 821.5,-168 821.5,-168 821.5,-174 815.5,-180 809.5,-180"/>
<text text-anchor="middle" x="773" y="-159.5" font-family="sans" font-size="10.00" fill="#000000">map_genome_star</text>
</g>
<!-- 14&#45;&gt;4 -->
<g id="edge14" class="edge">
<title>14&#45;&gt;4</title>
<path fill="none" stroke="#c0c0c0" stroke-width="2" d="M748.7751,-143.8314C736.8372,-134.8779 722.2744,-123.9558 709.394,-114.2955"/>
<polygon fill="#c0c0c0" stroke="#c0c0c0" stroke-width="2" points="711.3171,-111.3629 701.2171,-108.1628 707.1171,-116.9629 711.3171,-111.3629"/>
</g>
<!-- 15 -->
<g id="node16" class="node">
<title>15</title>
<path fill="none" stroke="#ced856" stroke-width="2" d="M968,-254.5C968,-254.5 856,-254.5 856,-254.5 850,-254.5 844,-248.5 844,-242.5 844,-242.5 844,-230.5 844,-230.5 844,-224.5 850,-218.5 856,-218.5 856,-218.5 968,-218.5 968,-218.5 974,-218.5 980,-224.5 980,-230.5 980,-230.5 980,-242.5 980,-242.5 980,-248.5 974,-254.5 968,-254.5"/>
<text text-anchor="middle" x="912" y="-234" font-family="sans" font-size="10.00" fill="#000000">pe_remove_polya_cutadapt</text>
</g>
<!-- 15&#45;&gt;5 -->
<g id="edge15" class="edge">
<title>15&#45;&gt;5</title>
<path fill="none" stroke="#c0c0c0" stroke-width="2" d="M912,-218.4656C912,-210.0178 912,-199.7542 912,-190.3064"/>
<polygon fill="#c0c0c0" stroke="#c0c0c0" stroke-width="2" points="915.5001,-190.1265 912,-180.1265 908.5001,-190.1265 915.5001,-190.1265"/>
</g>
<!-- 15&#45;&gt;7 -->
<g id="edge19" class="edge">
<title>15&#45;&gt;7</title>
<path fill="none" stroke="#c0c0c0" stroke-width="2" d="M959.9303,-218.4656C987.6935,-208.0194 1022.8356,-194.7967 1052.1325,-183.7734"/>
<polygon fill="#c0c0c0" stroke="#c0c0c0" stroke-width="2" points="1053.698,-186.924 1061.8248,-180.1265 1051.2329,-180.3724 1053.698,-186.924"/>
</g>
<!-- 15&#45;&gt;13 -->
<g id="edge28" class="edge">
<title>15&#45;&gt;13</title>
<path fill="none" stroke="#c0c0c0" stroke-width="2" d="M848.5771,-218.4656C808.5632,-207.0876 756.9657,-192.4158 716.3957,-180.8797"/>
<polygon fill="#c0c0c0" stroke="#c0c0c0" stroke-width="2" points="717.174,-177.4623 706.598,-178.0937 715.2594,-184.1954 717.174,-177.4623"/>
</g>
<!-- 16 -->
<g id="node17" class="node">
<title>16</title>
<path fill="none" stroke="#d89c56" stroke-width="2" d="M1144.5,-257C1144.5,-257 1043.5,-257 1043.5,-257 1037.5,-257 1031.5,-251 1031.5,-245 1031.5,-245 1031.5,-228 1031.5,-228 1031.5,-222 1037.5,-216 1043.5,-216 1043.5,-216 1144.5,-216 1144.5,-216 1150.5,-216 1156.5,-222 1156.5,-228 1156.5,-228 1156.5,-245 1156.5,-245 1156.5,-251 1150.5,-257 1144.5,-257"/>
<text text-anchor="middle" x="1094" y="-245" font-family="sans" font-size="10.00" fill="#000000">create_index_salmon</text>
<text text-anchor="middle" x="1094" y="-234" font-family="sans" font-size="10.00" fill="#000000">kmer: 31</text>
<text text-anchor="middle" x="1094" y="-223" font-family="sans" font-size="10.00" fill="#000000">organism: homo_sapiens</text>
</g>
<!-- 16&#45;&gt;5 -->
<g id="edge16" class="edge">
<title>16&#45;&gt;5</title>
<path fill="none" stroke="#c0c0c0" stroke-width="2" d="M1043.7859,-215.9453C1019.5425,-206.0215 990.4296,-194.1044 965.7399,-183.9979"/>
<polygon fill="#c0c0c0" stroke="#c0c0c0" stroke-width="2" points="966.7439,-180.6271 956.1633,-180.0778 964.092,-187.1053 966.7439,-180.6271"/>
</g>
<!-- 16&#45;&gt;6 -->
<g id="edge18" class="edge">
<title>16&#45;&gt;6</title>
<path fill="none" stroke="#c0c0c0" stroke-width="2" d="M1141.731,-215.9453C1164.6735,-206.0654 1192.204,-194.2099 1215.6058,-184.1322"/>
<polygon fill="#c0c0c0" stroke="#c0c0c0" stroke-width="2" points="1217.2204,-187.2477 1225.0206,-180.0778 1214.4517,-180.8185 1217.2204,-187.2477"/>
</g>
<!-- 17 -->
<g id="node18" class="node">
<title>17</title>
<path fill="none" stroke="#59d856" stroke-width="2" d="M1315,-254.5C1315,-254.5 1219,-254.5 1219,-254.5 1213,-254.5 1207,-248.5 1207,-242.5 1207,-242.5 1207,-230.5 1207,-230.5 1207,-224.5 1213,-218.5 1219,-218.5 1219,-218.5 1315,-218.5 1315,-218.5 1321,-218.5 1327,-224.5 1327,-230.5 1327,-230.5 1327,-242.5 1327,-242.5 1327,-248.5 1321,-254.5 1315,-254.5"/>
<text text-anchor="middle" x="1267" y="-234" font-family="sans" font-size="10.00" fill="#000000">remove_polya_cutadapt</text>
</g>
<!-- 17&#45;&gt;6 -->
<g id="edge17" class="edge">
<title>17&#45;&gt;6</title>
<path fill="none" stroke="#c0c0c0" stroke-width="2" d="M1267,-218.4656C1267,-210.0178 1267,-199.7542 1267,-190.3064"/>
<polygon fill="#c0c0c0" stroke="#c0c0c0" stroke-width="2" points="1270.5001,-190.1265 1267,-180.1265 1263.5001,-190.1265 1270.5001,-190.1265"/>
</g>
<!-- 17&#45;&gt;8 -->
<g id="edge21" class="edge">
<title>17&#45;&gt;8</title>
<path fill="none" stroke="#c0c0c0" stroke-width="2" d="M1303.0687,-218.4656C1323.4162,-208.2919 1349.0306,-195.4847 1370.7191,-184.6405"/>
<polygon fill="#c0c0c0" stroke="#c0c0c0" stroke-width="2" points="1372.368,-187.7292 1379.747,-180.1265 1369.2374,-181.4682 1372.368,-187.7292"/>
</g>
<!-- 17&#45;&gt;14 -->
<g id="edge30" class="edge">
<title>17&#45;&gt;14</title>
<path fill="none" stroke="#c0c0c0" stroke-width="2" d="M1206.7501,-223.4738C1193.065,-220.7709 1178.5647,-218.1079 1165,-216 1020.9591,-193.6169 982.198,-207.2604 839,-180 836.6374,-179.5502 834.2356,-179.059 831.8155,-178.5356"/>
<polygon fill="#c0c0c0" stroke="#c0c0c0" stroke-width="2" points="832.349,-175.0668 821.818,-176.2274 830.7743,-181.8874 832.349,-175.0668"/>
</g>
<!-- 18 -->
<g id="node19" class="node">
<title>18</title>
<path fill="none" stroke="#5682d8" stroke-width="2" d="M1462.5,-254.5C1462.5,-254.5 1361.5,-254.5 1361.5,-254.5 1355.5,-254.5 1349.5,-248.5 1349.5,-242.5 1349.5,-242.5 1349.5,-230.5 1349.5,-230.5 1349.5,-224.5 1355.5,-218.5 1361.5,-218.5 1361.5,-218.5 1462.5,-218.5 1462.5,-218.5 1468.5,-218.5 1474.5,-224.5 1474.5,-230.5 1474.5,-230.5 1474.5,-242.5 1474.5,-242.5 1474.5,-248.5 1468.5,-254.5 1462.5,-254.5"/>
<text text-anchor="middle" x="1412" y="-239.5" font-family="sans" font-size="10.00" fill="#000000">create_index_kallisto</text>
<text text-anchor="middle" x="1412" y="-228.5" font-family="sans" font-size="10.00" fill="#000000">organism: homo_sapiens</text>
</g>
<!-- 18&#45;&gt;7 -->
<g id="edge20" class="edge">
<title>18&#45;&gt;7</title>
<path fill="none" stroke="#c0c0c0" stroke-width="2" d="M1349.4126,-219.4641C1344.8775,-218.2769 1340.3707,-217.1114 1336,-216 1290.4851,-204.4264 1239.6293,-192.2119 1197.7028,-182.3327"/>
<polygon fill="#c0c0c0" stroke="#c0c0c0" stroke-width="2" points="1198.3344,-178.8858 1187.7987,-180.0033 1196.7317,-185.6999 1198.3344,-178.8858"/>
</g>
<!-- 18&#45;&gt;8 -->
<g id="edge22" class="edge">
<title>18&#45;&gt;8</title>
<path fill="none" stroke="#c0c0c0" stroke-width="2" d="M1412.9683,-218.4656C1413.4219,-210.0178 1413.9729,-199.7542 1414.4802,-190.3064"/>
<polygon fill="#c0c0c0" stroke="#c0c0c0" stroke-width="2" points="1417.9855,-190.2998 1415.0268,-180.1265 1410.9956,-189.9244 1417.9855,-190.2998"/>
</g>
<!-- 19 -->
<g id="node20" class="node">
<title>19</title>
<path fill="none" stroke="#d8b456" stroke-width="2" d="M757.5,-257C757.5,-257 656.5,-257 656.5,-257 650.5,-257 644.5,-251 644.5,-245 644.5,-245 644.5,-228 644.5,-228 644.5,-222 650.5,-216 656.5,-216 656.5,-216 757.5,-216 757.5,-216 763.5,-216 769.5,-222 769.5,-228 769.5,-228 769.5,-245 769.5,-245 769.5,-251 763.5,-257 757.5,-257"/>
<text text-anchor="middle" x="707" y="-245" font-family="sans" font-size="10.00" fill="#000000">create_index_star</text>
<text text-anchor="middle" x="707" y="-234" font-family="sans" font-size="10.00" fill="#000000">index_size: 76</text>
<text text-anchor="middle" x="707" y="-223" font-family="sans" font-size="10.00" fill="#000000">organism: homo_sapiens</text>
</g>
<!-- 19&#45;&gt;13 -->
<g id="edge27" class="edge">
<title>19&#45;&gt;13</title>
<path fill="none" stroke="#c0c0c0" stroke-width="2" d="M691.1223,-215.7476C684.565,-207.177 676.8905,-197.1463 669.9587,-188.0864"/>
<polygon fill="#c0c0c0" stroke="#c0c0c0" stroke-width="2" points="672.7112,-185.924 663.855,-180.1087 667.1517,-190.1775 672.7112,-185.924"/>
</g>
<!-- 19&#45;&gt;14 -->
<g id="edge29" class="edge">
<title>19&#45;&gt;14</title>
<path fill="none" stroke="#c0c0c0" stroke-width="2" d="M725.3847,-215.7476C733.0549,-207.0896 742.0451,-196.9415 750.1354,-187.8093"/>
<polygon fill="#c0c0c0" stroke="#c0c0c0" stroke-width="2" points="752.9461,-189.9148 756.9574,-180.1087 747.7064,-185.2729 752.9461,-189.9148"/>
</g>
<!-- 20 -->
<g id="node21" class="node">
<title>20</title>
<path fill="none" stroke="#56d89a" stroke-width="2" d="M985,-329C985,-329 839,-329 839,-329 833,-329 827,-323 827,-317 827,-317 827,-305 827,-305 827,-299 833,-293 839,-293 839,-293 985,-293 985,-293 991,-293 997,-299 997,-305 997,-305 997,-317 997,-317 997,-323 991,-329 985,-329"/>
<text text-anchor="middle" x="912" y="-314" font-family="sans" font-size="10.00" fill="#000000">pe_remove_adapters_cutadapt</text>
<text text-anchor="middle" x="912" y="-303" font-family="sans" font-size="10.00" fill="#000000">sample: synthetic_10_reads_paired</text>
</g>
<!-- 20&#45;&gt;15 -->
<g id="edge31" class="edge">
<title>20&#45;&gt;15</title>
<path fill="none" stroke="#c0c0c0" stroke-width="2" d="M912,-292.9656C912,-284.5178 912,-274.2542 912,-264.8064"/>
<polygon fill="#c0c0c0" stroke="#c0c0c0" stroke-width="2" points="915.5001,-264.6265 912,-254.6265 908.5001,-264.6265 915.5001,-264.6265"/>
</g>
<!-- 21 -->
<g id="node22" class="node">
<title>21</title>
<path fill="none" stroke="#566bd8" stroke-width="2" d="M1343,-329C1343,-329 1191,-329 1191,-329 1185,-329 1179,-323 1179,-317 1179,-317 1179,-305 1179,-305 1179,-299 1185,-293 1191,-293 1191,-293 1343,-293 1343,-293 1349,-293 1355,-299 1355,-305 1355,-305 1355,-317 1355,-317 1355,-323 1349,-329 1343,-329"/>
<text text-anchor="middle" x="1267" y="-314" font-family="sans" font-size="10.00" fill="#000000">remove_adapters_cutadapt</text>
<text text-anchor="middle" x="1267" y="-303" font-family="sans" font-size="10.00" fill="#000000">sample: synthetic_10_reads_mate_1</text>
</g>
<!-- 21&#45;&gt;17 -->
<g id="edge32" class="edge">
<title>21&#45;&gt;17</title>
<path fill="none" stroke="#c0c0c0" stroke-width="2" d="M1267,-292.9656C1267,-284.5178 1267,-274.2542 1267,-264.8064"/>
<polygon fill="#c0c0c0" stroke="#c0c0c0" stroke-width="2" points="1270.5001,-264.6265 1267,-254.6265 1263.5001,-264.6265 1270.5001,-264.6265"/>
</g>
</g>
</svg>
