<?xml version="1.0" encoding="UTF-8" standalone="no"?>
<!DOCTYPE svg PUBLIC "-//W3C//DTD SVG 1.1//EN"
 "http://www.w3.org/Graphics/SVG/1.1/DTD/svg11.dtd">
<!-- Generated by graphviz version 2.40.1 (20161225.0304)
 -->
<!-- Title: snakemake_dag Pages: 1 -->
<svg width="1218pt" height="764pt"
 viewBox="0.00 0.00 1218.00 764.00" xmlns="http://www.w3.org/2000/svg" xmlns:xlink="http://www.w3.org/1999/xlink">
<g id="graph0" class="graph" transform="scale(1 1) rotate(0) translate(4 760)">
<title>snakemake_dag</title>
<polygon fill="#ffffff" stroke="transparent" points="-4,4 -4,-760 1214,-760 1214,4 -4,4"/>
<!-- 0 -->
<g id="node1" class="node">
<title>0</title>
<path fill="none" stroke="#d85656" stroke-width="2" d="M620,-36C620,-36 590,-36 590,-36 584,-36 578,-30 578,-24 578,-24 578,-12 578,-12 578,-6 584,0 590,0 590,0 620,0 620,0 626,0 632,-6 632,-12 632,-12 632,-24 632,-24 632,-30 626,-36 620,-36"/>
<text text-anchor="middle" x="605" y="-15.5" font-family="sans" font-size="10.00" fill="#000000">finish</text>
</g>
<!-- 1 -->
<g id="node2" class="node">
<title>1</title>
<path fill="none" stroke="#5663d8" stroke-width="2" d="M560,-108C560,-108 496,-108 496,-108 490,-108 484,-102 484,-96 484,-96 484,-84 484,-84 484,-78 490,-72 496,-72 496,-72 560,-72 560,-72 566,-72 572,-78 572,-84 572,-84 572,-96 572,-96 572,-102 566,-108 560,-108"/>
<text text-anchor="middle" x="528" y="-87.5" font-family="sans" font-size="10.00" fill="#000000">multiqc_report</text>
</g>
<!-- 1&#45;&gt;0 -->
<g id="edge4" class="edge">
<title>1&#45;&gt;0</title>
<path fill="none" stroke="#c0c0c0" stroke-width="2" d="M547.4304,-71.8314C556.732,-63.1337 568.0204,-52.5783 578.1286,-43.1265"/>
<polygon fill="#c0c0c0" stroke="#c0c0c0" stroke-width="2" points="580.6621,-45.5493 585.5759,-36.1628 575.8811,-40.4363 580.6621,-45.5493"/>
</g>
<!-- 2 -->
<g id="node3" class="node">
<title>2</title>
<path fill="none" stroke="#56d8d0" stroke-width="2" d="M42,-468C42,-468 12,-468 12,-468 6,-468 0,-462 0,-456 0,-456 0,-444 0,-444 0,-438 6,-432 12,-432 12,-432 42,-432 42,-432 48,-432 54,-438 54,-444 54,-444 54,-456 54,-456 54,-462 48,-468 42,-468"/>
<text text-anchor="middle" x="27" y="-447.5" font-family="sans" font-size="10.00" fill="#000000">fastqc</text>
</g>
<!-- 2&#45;&gt;1 -->
<g id="edge15" class="edge">
<title>2&#45;&gt;1</title>
<path fill="none" stroke="#c0c0c0" stroke-width="2" d="M24.928,-431.8427C21.9989,-404.5621 17,-351.359 17,-306 17,-306 17,-306 17,-234 17,-185.4273 37.4297,-169.124 79,-144 144.2728,-104.5508 369.0713,-93.8774 473.6715,-91.0238"/>
<polygon fill="#c0c0c0" stroke="#c0c0c0" stroke-width="2" points="473.8047,-94.5217 483.7107,-90.764 473.6235,-87.524 473.8047,-94.5217"/>
</g>
<!-- 3 -->
<g id="node4" class="node">
<title>3</title>
<path fill="none" stroke="#56d8d8" stroke-width="2" d="M257,-756C257,-756 227,-756 227,-756 221,-756 215,-750 215,-744 215,-744 215,-732 215,-732 215,-726 221,-720 227,-720 227,-720 257,-720 257,-720 263,-720 269,-726 269,-732 269,-732 269,-744 269,-744 269,-750 263,-756 257,-756"/>
<text text-anchor="middle" x="242" y="-735.5" font-family="sans" font-size="10.00" fill="#000000">start</text>
</g>
<!-- 3&#45;&gt;2 -->
<g id="edge16" class="edge">
<title>3&#45;&gt;2</title>
<path fill="none" stroke="#c0c0c0" stroke-width="2" d="M214.8051,-724.0261C197.3871,-714.269 174.9546,-700.1344 158,-684 100.9983,-629.756 90.0218,-610.4633 55,-540 45.1521,-520.1862 37.8958,-496.1951 33.2408,-477.967"/>
<polygon fill="#c0c0c0" stroke="#c0c0c0" stroke-width="2" points="36.6367,-477.119 30.8616,-468.2365 29.837,-478.7817 36.6367,-477.119"/>
</g>
<!-- 6 -->
<g id="node7" class="node">
<title>6</title>
<path fill="none" stroke="#ced856" stroke-width="2" d="M546.5,-684C546.5,-684 403.5,-684 403.5,-684 397.5,-684 391.5,-678 391.5,-672 391.5,-672 391.5,-660 391.5,-660 391.5,-654 397.5,-648 403.5,-648 403.5,-648 546.5,-648 546.5,-648 552.5,-648 558.5,-654 558.5,-660 558.5,-660 558.5,-672 558.5,-672 558.5,-678 552.5,-684 546.5,-684"/>
<text text-anchor="middle" x="475" y="-663.5" font-family="sans" font-size="10.00" fill="#000000">pe_remove_adapters_cutadapt</text>
</g>
<!-- 3&#45;&gt;6 -->
<g id="edge20" class="edge">
<title>3&#45;&gt;6</title>
<path fill="none" stroke="#c0c0c0" stroke-width="2" d="M269.1841,-729.5998C302.6939,-719.2448 360.8426,-701.2761 406.803,-687.0737"/>
<polygon fill="#c0c0c0" stroke="#c0c0c0" stroke-width="2" points="407.8914,-690.4008 416.4123,-684.1044 405.8247,-683.7128 407.8914,-690.4008"/>
</g>
<!-- 8 -->
<g id="node9" class="node">
<title>8</title>
<path fill="none" stroke="#56d8a2" stroke-width="2" d="M305,-684C305,-684 179,-684 179,-684 173,-684 167,-678 167,-672 167,-672 167,-660 167,-660 167,-654 173,-648 179,-648 179,-648 305,-648 305,-648 311,-648 317,-654 317,-660 317,-660 317,-672 317,-672 317,-678 311,-684 305,-684"/>
<text text-anchor="middle" x="242" y="-663.5" font-family="sans" font-size="10.00" fill="#000000">remove_adapters_cutadapt</text>
</g>
<!-- 3&#45;&gt;8 -->
<g id="edge22" class="edge">
<title>3&#45;&gt;8</title>
<path fill="none" stroke="#c0c0c0" stroke-width="2" d="M242,-719.8314C242,-712.131 242,-702.9743 242,-694.4166"/>
<polygon fill="#c0c0c0" stroke="#c0c0c0" stroke-width="2" points="245.5001,-694.4132 242,-684.4133 238.5001,-694.4133 245.5001,-694.4132"/>
</g>
<!-- 4 -->
<g id="node5" class="node">
<title>4</title>
<path fill="none" stroke="#569ad8" stroke-width="2" d="M146,-540C146,-540 76,-540 76,-540 70,-540 64,-534 64,-528 64,-528 64,-516 64,-516 64,-510 70,-504 76,-504 76,-504 146,-504 146,-504 152,-504 158,-510 158,-516 158,-516 158,-528 158,-528 158,-534 152,-540 146,-540"/>
<text text-anchor="middle" x="111" y="-519.5" font-family="sans" font-size="10.00" fill="#000000">fastqc_trimmed</text>
</g>
<!-- 4&#45;&gt;1 -->
<g id="edge9" class="edge">
<title>4&#45;&gt;1</title>
<path fill="none" stroke="#c0c0c0" stroke-width="2" d="M107.2704,-503.9053C101.9981,-476.7046 93,-423.6021 93,-378 93,-378 93,-378 93,-234 93,-174.2061 139.0634,-169.8098 193,-144 241.667,-120.7118 392.1885,-103.1045 473.8983,-94.9707"/>
<polygon fill="#c0c0c0" stroke="#c0c0c0" stroke-width="2" points="474.3815,-98.4402 483.9915,-93.9793 473.6972,-91.4737 474.3815,-98.4402"/>
</g>
<!-- 5 -->
<g id="node6" class="node">
<title>5</title>
<path fill="none" stroke="#56d892" stroke-width="2" d="M651,-612C651,-612 523,-612 523,-612 517,-612 511,-606 511,-600 511,-600 511,-588 511,-588 511,-582 517,-576 523,-576 523,-576 651,-576 651,-576 657,-576 663,-582 663,-588 663,-588 663,-600 663,-600 663,-606 657,-612 651,-612"/>
<text text-anchor="middle" x="587" y="-591.5" font-family="sans" font-size="10.00" fill="#000000">pe_remove_polya_cutadapt</text>
</g>
<!-- 5&#45;&gt;4 -->
<g id="edge17" class="edge">
<title>5&#45;&gt;4</title>
<path fill="none" stroke="#c0c0c0" stroke-width="2" d="M510.7864,-582.4719C415.2606,-568.0226 253.7057,-543.5857 168.1395,-530.643"/>
<polygon fill="#c0c0c0" stroke="#c0c0c0" stroke-width="2" points="168.5019,-527.158 158.0908,-529.123 167.4549,-534.0793 168.5019,-527.158"/>
</g>
<!-- 9 -->
<g id="node10" class="node">
<title>9</title>
<path fill="none" stroke="#d89c56" stroke-width="2" d="M484.5,-324C484.5,-324 321.5,-324 321.5,-324 315.5,-324 309.5,-318 309.5,-312 309.5,-312 309.5,-300 309.5,-300 309.5,-294 315.5,-288 321.5,-288 321.5,-288 484.5,-288 484.5,-288 490.5,-288 496.5,-294 496.5,-300 496.5,-300 496.5,-312 496.5,-312 496.5,-318 490.5,-324 484.5,-324"/>
<text text-anchor="middle" x="403" y="-303.5" font-family="sans" font-size="10.00" fill="#000000">pe_genome_quantification_kallisto</text>
</g>
<!-- 5&#45;&gt;9 -->
<g id="edge23" class="edge">
<title>5&#45;&gt;9</title>
<path fill="none" stroke="#c0c0c0" stroke-width="2" d="M589.7447,-575.7569C593.5577,-543.8312 597.0418,-476.9558 568,-432 551.1251,-405.8782 533.2283,-414.1836 508,-396 480.0212,-375.834 450.381,-349.9617 429.7535,-331.1365"/>
<polygon fill="#c0c0c0" stroke="#c0c0c0" stroke-width="2" points="432.0415,-328.4856 422.3113,-324.2932 427.3034,-333.6383 432.0415,-328.4856"/>
</g>
<!-- 15 -->
<g id="node16" class="node">
<title>15</title>
<path fill="none" stroke="#d87556" stroke-width="2" d="M956.5,-540C956.5,-540 855.5,-540 855.5,-540 849.5,-540 843.5,-534 843.5,-528 843.5,-528 843.5,-516 843.5,-516 843.5,-510 849.5,-504 855.5,-504 855.5,-504 956.5,-504 956.5,-504 962.5,-504 968.5,-510 968.5,-516 968.5,-516 968.5,-528 968.5,-528 968.5,-534 962.5,-540 956.5,-540"/>
<text text-anchor="middle" x="906" y="-519.5" font-family="sans" font-size="10.00" fill="#000000">pe_map_genome_star</text>
</g>
<!-- 5&#45;&gt;15 -->
<g id="edge34" class="edge">
<title>5&#45;&gt;15</title>
<path fill="none" stroke="#c0c0c0" stroke-width="2" d="M663.1291,-578.1212C709.7765,-568.2283 770.9409,-554.967 833.2931,-540.3701"/>
<polygon fill="#c0c0c0" stroke="#c0c0c0" stroke-width="2" points="834.3744,-543.7114 843.3084,-538.0162 832.7728,-536.8971 834.3744,-543.7114"/>
</g>
<!-- 26 -->
<g id="node27" class="node">
<title>26</title>
<path fill="none" stroke="#d8ac56" stroke-width="2" d="M788,-324C788,-324 670,-324 670,-324 664,-324 658,-318 658,-312 658,-312 658,-300 658,-300 658,-294 664,-288 670,-288 670,-288 788,-288 788,-288 794,-288 800,-294 800,-300 800,-300 800,-312 800,-312 800,-318 794,-324 788,-324"/>
<text text-anchor="middle" x="729" y="-303.5" font-family="sans" font-size="10.00" fill="#000000">pe_quantification_salmon</text>
</g>
<!-- 5&#45;&gt;26 -->
<g id="edge48" class="edge">
<title>5&#45;&gt;26</title>
<path fill="none" stroke="#c0c0c0" stroke-width="2" d="M595.8827,-575.9843C619.9894,-527.0919 686.7557,-391.6785 715.5248,-333.33"/>
<polygon fill="#c0c0c0" stroke="#c0c0c0" stroke-width="2" points="718.8375,-334.5257 720.1206,-324.0089 712.5592,-331.4301 718.8375,-334.5257"/>
</g>
<!-- 6&#45;&gt;5 -->
<g id="edge19" class="edge">
<title>6&#45;&gt;5</title>
<path fill="none" stroke="#c0c0c0" stroke-width="2" d="M503.2623,-647.8314C517.4552,-638.7074 534.8282,-627.539 550.0636,-617.7449"/>
<polygon fill="#c0c0c0" stroke="#c0c0c0" stroke-width="2" points="552.2276,-620.5146 558.7467,-612.1628 548.4422,-614.6263 552.2276,-620.5146"/>
</g>
<!-- 7 -->
<g id="node8" class="node">
<title>7</title>
<path fill="none" stroke="#d8bc56" stroke-width="2" d="M297,-612C297,-612 187,-612 187,-612 181,-612 175,-606 175,-600 175,-600 175,-588 175,-588 175,-582 181,-576 187,-576 187,-576 297,-576 297,-576 303,-576 309,-582 309,-588 309,-588 309,-600 309,-600 309,-606 303,-612 297,-612"/>
<text text-anchor="middle" x="242" y="-591.5" font-family="sans" font-size="10.00" fill="#000000">remove_polya_cutadapt</text>
</g>
<!-- 7&#45;&gt;4 -->
<g id="edge18" class="edge">
<title>7&#45;&gt;4</title>
<path fill="none" stroke="#c0c0c0" stroke-width="2" d="M208.9432,-575.8314C192.0323,-566.5368 171.2615,-555.1208 153.2059,-545.1971"/>
<polygon fill="#c0c0c0" stroke="#c0c0c0" stroke-width="2" points="154.4957,-541.9122 144.0463,-540.1628 151.124,-548.0468 154.4957,-541.9122"/>
</g>
<!-- 12 -->
<g id="node13" class="node">
<title>12</title>
<path fill="none" stroke="#afd856" stroke-width="2" d="M279,-324C279,-324 133,-324 133,-324 127,-324 121,-318 121,-312 121,-312 121,-300 121,-300 121,-294 127,-288 133,-288 133,-288 279,-288 279,-288 285,-288 291,-294 291,-300 291,-300 291,-312 291,-312 291,-318 285,-324 279,-324"/>
<text text-anchor="middle" x="206" y="-303.5" font-family="sans" font-size="10.00" fill="#000000">genome_quantification_kallisto</text>
</g>
<!-- 7&#45;&gt;12 -->
<g id="edge27" class="edge">
<title>7&#45;&gt;12</title>
<path fill="none" stroke="#c0c0c0" stroke-width="2" d="M237.4459,-575.869C229.0014,-541.2092 211.2092,-463.0303 205,-396 203.5242,-380.0682 204.8519,-375.9993 205,-360 205.0761,-351.7856 205.2172,-342.8691 205.3699,-334.6933"/>
<polygon fill="#c0c0c0" stroke="#c0c0c0" stroke-width="2" points="208.8731,-334.5609 205.5729,-324.4932 201.8745,-334.4215 208.8731,-334.5609"/>
</g>
<!-- 19 -->
<g id="node20" class="node">
<title>19</title>
<path fill="none" stroke="#bed856" stroke-width="2" d="M813.5,-540C813.5,-540 730.5,-540 730.5,-540 724.5,-540 718.5,-534 718.5,-528 718.5,-528 718.5,-516 718.5,-516 718.5,-510 724.5,-504 730.5,-504 730.5,-504 813.5,-504 813.5,-504 819.5,-504 825.5,-510 825.5,-516 825.5,-516 825.5,-528 825.5,-528 825.5,-534 819.5,-540 813.5,-540"/>
<text text-anchor="middle" x="772" y="-519.5" font-family="sans" font-size="10.00" fill="#000000">map_genome_star</text>
</g>
<!-- 7&#45;&gt;19 -->
<g id="edge37" class="edge">
<title>7&#45;&gt;19</title>
<path fill="none" stroke="#c0c0c0" stroke-width="2" d="M309.1249,-584.8812C411.9965,-570.9061 607.297,-544.3747 708.1601,-530.6726"/>
<polygon fill="#c0c0c0" stroke="#c0c0c0" stroke-width="2" points="708.7725,-534.1216 718.2103,-529.3073 707.8301,-527.1853 708.7725,-534.1216"/>
</g>
<!-- 29 -->
<g id="node30" class="node">
<title>29</title>
<path fill="none" stroke="#d86656" stroke-width="2" d="M627.5,-324C627.5,-324 526.5,-324 526.5,-324 520.5,-324 514.5,-318 514.5,-312 514.5,-312 514.5,-300 514.5,-300 514.5,-294 520.5,-288 526.5,-288 526.5,-288 627.5,-288 627.5,-288 633.5,-288 639.5,-294 639.5,-300 639.5,-300 639.5,-312 639.5,-312 639.5,-318 633.5,-324 627.5,-324"/>
<text text-anchor="middle" x="577" y="-303.5" font-family="sans" font-size="10.00" fill="#000000">quantification_salmon</text>
</g>
<!-- 7&#45;&gt;29 -->
<g id="edge54" class="edge">
<title>7&#45;&gt;29</title>
<path fill="none" stroke="#c0c0c0" stroke-width="2" d="M248.0134,-575.9852C259.6324,-543.5257 287.9709,-474.6385 332,-432 383.2937,-382.3263 458.0794,-347.739 511.5151,-327.535"/>
<polygon fill="#c0c0c0" stroke="#c0c0c0" stroke-width="2" points="512.7428,-330.8127 520.8996,-324.0512 510.3066,-324.2503 512.7428,-330.8127"/>
</g>
<!-- 8&#45;&gt;7 -->
<g id="edge21" class="edge">
<title>8&#45;&gt;7</title>
<path fill="none" stroke="#c0c0c0" stroke-width="2" d="M242,-647.8314C242,-640.131 242,-630.9743 242,-622.4166"/>
<polygon fill="#c0c0c0" stroke="#c0c0c0" stroke-width="2" points="245.5001,-622.4132 242,-612.4133 238.5001,-622.4133 245.5001,-622.4132"/>
</g>
<!-- 9&#45;&gt;1 -->
<g id="edge8" class="edge">
<title>9&#45;&gt;1</title>
<path fill="none" stroke="#c0c0c0" stroke-width="2" d="M425.6769,-287.8465C436.3091,-278.2303 448.3026,-265.6054 456,-252 480.4174,-208.8415 461.6006,-188.2395 484,-144 489.0504,-134.0252 496.1917,-124.2122 503.2549,-115.745"/>
<polygon fill="#c0c0c0" stroke="#c0c0c0" stroke-width="2" points="506.004,-117.9177 509.9322,-108.0779 500.7252,-113.3204 506.004,-117.9177"/>
</g>
<!-- 32 -->
<g id="node33" class="node">
<title>32</title>
<path fill="none" stroke="#56b9d8" stroke-width="2" d="M271,-252C271,-252 171,-252 171,-252 165,-252 159,-246 159,-240 159,-240 159,-228 159,-228 159,-222 165,-216 171,-216 171,-216 271,-216 271,-216 277,-216 283,-222 283,-228 283,-228 283,-240 283,-240 283,-246 277,-252 271,-252"/>
<text text-anchor="middle" x="221" y="-231.5" font-family="sans" font-size="10.00" fill="#000000">kallisto_merge_genes</text>
</g>
<!-- 9&#45;&gt;32 -->
<g id="edge59" class="edge">
<title>9&#45;&gt;32</title>
<path fill="none" stroke="#c0c0c0" stroke-width="2" d="M357.0737,-287.8314C332.4077,-278.0734 301.8309,-265.977 275.914,-255.7242"/>
<polygon fill="#c0c0c0" stroke="#c0c0c0" stroke-width="2" points="277.1824,-252.4621 266.596,-252.038 274.6073,-258.9713 277.1824,-252.4621"/>
</g>
<!-- 33 -->
<g id="node34" class="node">
<title>33</title>
<path fill="none" stroke="#56d88a" stroke-width="2" d="M435,-252C435,-252 313,-252 313,-252 307,-252 301,-246 301,-240 301,-240 301,-228 301,-228 301,-222 307,-216 313,-216 313,-216 435,-216 435,-216 441,-216 447,-222 447,-228 447,-228 447,-240 447,-240 447,-246 441,-252 435,-252"/>
<text text-anchor="middle" x="374" y="-231.5" font-family="sans" font-size="10.00" fill="#000000">kallisto_merge_transcripts</text>
</g>
<!-- 9&#45;&gt;33 -->
<g id="edge61" class="edge">
<title>9&#45;&gt;33</title>
<path fill="none" stroke="#c0c0c0" stroke-width="2" d="M395.6821,-287.8314C392.5124,-279.9617 388.73,-270.5712 385.2187,-261.8533"/>
<polygon fill="#c0c0c0" stroke="#c0c0c0" stroke-width="2" points="388.3992,-260.3815 381.4165,-252.4133 381.9061,-262.9968 388.3992,-260.3815"/>
</g>
<!-- 10 -->
<g id="node11" class="node">
<title>10</title>
<path fill="none" stroke="#a7d856" stroke-width="2" d="M323.5,-396C323.5,-396 226.5,-396 226.5,-396 220.5,-396 214.5,-390 214.5,-384 214.5,-384 214.5,-372 214.5,-372 214.5,-366 220.5,-360 226.5,-360 226.5,-360 323.5,-360 323.5,-360 329.5,-360 335.5,-366 335.5,-372 335.5,-372 335.5,-384 335.5,-384 335.5,-390 329.5,-396 323.5,-396"/>
<text text-anchor="middle" x="275" y="-375.5" font-family="sans" font-size="10.00" fill="#000000">create_index_kallisto</text>
</g>
<!-- 10&#45;&gt;9 -->
<g id="edge24" class="edge">
<title>10&#45;&gt;9</title>
<path fill="none" stroke="#c0c0c0" stroke-width="2" d="M307.2998,-359.8314C323.8234,-350.5368 344.1186,-339.1208 361.7607,-329.1971"/>
<polygon fill="#c0c0c0" stroke="#c0c0c0" stroke-width="2" points="363.7107,-332.116 370.7105,-324.1628 360.2788,-326.015 363.7107,-332.116"/>
</g>
<!-- 10&#45;&gt;12 -->
<g id="edge26" class="edge">
<title>10&#45;&gt;12</title>
<path fill="none" stroke="#c0c0c0" stroke-width="2" d="M257.5884,-359.8314C249.479,-351.3694 239.6844,-341.1489 230.818,-331.8971"/>
<polygon fill="#c0c0c0" stroke="#c0c0c0" stroke-width="2" points="233.0921,-329.2115 223.646,-324.4133 228.0382,-334.0549 233.0921,-329.2115"/>
</g>
<!-- 11 -->
<g id="node12" class="node">
<title>11</title>
<path fill="none" stroke="#78d856" stroke-width="2" d="M477.5,-540C477.5,-540 376.5,-540 376.5,-540 370.5,-540 364.5,-534 364.5,-528 364.5,-528 364.5,-516 364.5,-516 364.5,-510 370.5,-504 376.5,-504 376.5,-504 477.5,-504 477.5,-504 483.5,-504 489.5,-510 489.5,-516 489.5,-516 489.5,-528 489.5,-528 489.5,-534 483.5,-540 477.5,-540"/>
<text text-anchor="middle" x="427" y="-519.5" font-family="sans" font-size="10.00" fill="#000000">extract_transcriptome</text>
</g>
<!-- 11&#45;&gt;10 -->
<g id="edge25" class="edge">
<title>11&#45;&gt;10</title>
<path fill="none" stroke="#c0c0c0" stroke-width="2" d="M385.2377,-503.8813C367.4844,-494.8307 347.3785,-482.662 332,-468 313.1052,-449.9855 297.7178,-424.4751 287.7143,-405.2116"/>
<polygon fill="#c0c0c0" stroke="#c0c0c0" stroke-width="2" points="290.729,-403.4156 283.1141,-396.0492 284.4732,-406.5565 290.729,-403.4156"/>
</g>
<!-- 28 -->
<g id="node29" class="node">
<title>28</title>
<path fill="none" stroke="#56d86b" stroke-width="2" d="M547,-468C547,-468 353,-468 353,-468 347,-468 341,-462 341,-456 341,-456 341,-444 341,-444 341,-438 347,-432 353,-432 353,-432 547,-432 547,-432 553,-432 559,-438 559,-444 559,-444 559,-456 559,-456 559,-462 553,-468 547,-468"/>
<text text-anchor="middle" x="450" y="-447.5" font-family="sans" font-size="10.00" fill="#000000">concatenate_transcriptome_and_genome</text>
</g>
<!-- 11&#45;&gt;28 -->
<g id="edge52" class="edge">
<title>11&#45;&gt;28</title>
<path fill="none" stroke="#c0c0c0" stroke-width="2" d="M432.8039,-503.8314C435.2908,-496.0463 438.2531,-486.7729 441.0125,-478.1347"/>
<polygon fill="#c0c0c0" stroke="#c0c0c0" stroke-width="2" points="444.409,-479.0041 444.118,-468.4133 437.7409,-476.874 444.409,-479.0041"/>
</g>
<!-- 12&#45;&gt;1 -->
<g id="edge13" class="edge">
<title>12&#45;&gt;1</title>
<path fill="none" stroke="#c0c0c0" stroke-width="2" d="M179.2769,-287.9104C167.9915,-278.6439 156.074,-266.295 150,-252 143.743,-237.2742 141.2661,-229.4059 150,-216 186.023,-160.7072 378.3206,-117.844 473.9386,-99.5968"/>
<polygon fill="#c0c0c0" stroke="#c0c0c0" stroke-width="2" points="474.8152,-102.9932 483.9934,-97.7007 473.518,-96.1144 474.8152,-102.9932"/>
</g>
<!-- 12&#45;&gt;32 -->
<g id="edge60" class="edge">
<title>12&#45;&gt;32</title>
<path fill="none" stroke="#c0c0c0" stroke-width="2" d="M209.7851,-287.8314C211.3894,-280.131 213.297,-270.9743 215.0799,-262.4166"/>
<polygon fill="#c0c0c0" stroke="#c0c0c0" stroke-width="2" points="218.5507,-262.9169 217.1639,-252.4133 211.6979,-261.4892 218.5507,-262.9169"/>
</g>
<!-- 12&#45;&gt;33 -->
<g id="edge62" class="edge">
<title>12&#45;&gt;33</title>
<path fill="none" stroke="#c0c0c0" stroke-width="2" d="M248.3935,-287.8314C270.9624,-278.159 298.8921,-266.1891 322.6796,-255.9944"/>
<polygon fill="#c0c0c0" stroke="#c0c0c0" stroke-width="2" points="324.0986,-259.1943 331.9114,-252.038 321.3412,-252.7602 324.0986,-259.1943"/>
</g>
<!-- 13 -->
<g id="node14" class="node">
<title>13</title>
<path fill="none" stroke="#5682d8" stroke-width="2" d="M925.5,-324C925.5,-324 830.5,-324 830.5,-324 824.5,-324 818.5,-318 818.5,-312 818.5,-312 818.5,-300 818.5,-300 818.5,-294 824.5,-288 830.5,-288 830.5,-288 925.5,-288 925.5,-288 931.5,-288 937.5,-294 937.5,-300 937.5,-300 937.5,-312 937.5,-312 937.5,-318 931.5,-324 925.5,-324"/>
<text text-anchor="middle" x="878" y="-303.5" font-family="sans" font-size="10.00" fill="#000000">calculate_TIN_scores</text>
</g>
<!-- 13&#45;&gt;1 -->
<g id="edge11" class="edge">
<title>13&#45;&gt;1</title>
<path fill="none" stroke="#c0c0c0" stroke-width="2" d="M877.2694,-287.7257C875.7354,-268.5051 871.0687,-238.0464 857,-216 829.0691,-172.2306 811.887,-166.305 765,-144 706.1194,-115.9894 631.9803,-102.1196 582.4503,-95.5248"/>
<polygon fill="#c0c0c0" stroke="#c0c0c0" stroke-width="2" points="582.6316,-92.0197 572.269,-94.2255 581.7454,-98.9633 582.6316,-92.0197"/>
</g>
<!-- 14 -->
<g id="node15" class="node">
<title>14</title>
<path fill="none" stroke="#d88d56" stroke-width="2" d="M988,-468C988,-468 824,-468 824,-468 818,-468 812,-462 812,-456 812,-456 812,-444 812,-444 812,-438 818,-432 824,-432 824,-432 988,-432 988,-432 994,-432 1000,-438 1000,-444 1000,-444 1000,-456 1000,-456 1000,-462 994,-468 988,-468"/>
<text text-anchor="middle" x="906" y="-447.5" font-family="sans" font-size="10.00" fill="#000000">sort_genomic_alignment_samtools</text>
</g>
<!-- 14&#45;&gt;13 -->
<g id="edge28" class="edge">
<title>14&#45;&gt;13</title>
<path fill="none" stroke="#c0c0c0" stroke-width="2" d="M811.9915,-433.0208C773.1558,-423.9182 734.5034,-411.3882 723,-396 713.4201,-383.1849 713.7324,-373.0427 723,-360 728.4778,-352.2909 769.9539,-338.0564 808.6211,-326.1371"/>
<polygon fill="#c0c0c0" stroke="#c0c0c0" stroke-width="2" points="809.8251,-329.4291 818.3676,-323.162 807.7814,-322.734 809.8251,-329.4291"/>
</g>
<!-- 17 -->
<g id="node18" class="node">
<title>17</title>
<path fill="none" stroke="#56d85b" stroke-width="2" d="M1094,-396C1094,-396 922,-396 922,-396 916,-396 910,-390 910,-384 910,-384 910,-372 910,-372 910,-366 916,-360 922,-360 922,-360 1094,-360 1094,-360 1100,-360 1106,-366 1106,-372 1106,-372 1106,-384 1106,-384 1106,-390 1100,-396 1094,-396"/>
<text text-anchor="middle" x="1008" y="-375.5" font-family="sans" font-size="10.00" fill="#000000">index_genomic_alignment_samtools</text>
</g>
<!-- 14&#45;&gt;17 -->
<g id="edge35" class="edge">
<title>14&#45;&gt;17</title>
<path fill="none" stroke="#c0c0c0" stroke-width="2" d="M931.7389,-431.8314C944.5437,-422.7927 960.1909,-411.7476 973.9719,-402.0198"/>
<polygon fill="#c0c0c0" stroke="#c0c0c0" stroke-width="2" points="976.118,-404.7891 982.2693,-396.1628 972.0812,-399.0703 976.118,-404.7891"/>
</g>
<!-- 22 -->
<g id="node23" class="node">
<title>22</title>
<path fill="none" stroke="#68d856" stroke-width="2" d="M1046,-324C1046,-324 1010,-324 1010,-324 1004,-324 998,-318 998,-312 998,-312 998,-300 998,-300 998,-294 1004,-288 1010,-288 1010,-288 1046,-288 1046,-288 1052,-288 1058,-294 1058,-300 1058,-300 1058,-312 1058,-312 1058,-318 1052,-324 1046,-324"/>
<text text-anchor="middle" x="1028" y="-303.5" font-family="sans" font-size="10.00" fill="#000000">star_rpm</text>
</g>
<!-- 14&#45;&gt;22 -->
<g id="edge41" class="edge">
<title>14&#45;&gt;22</title>
<path fill="none" stroke="#c0c0c0" stroke-width="2" d="M996.4524,-431.9783C1049.3439,-420.5236 1107.241,-406.0185 1115,-396 1124.7969,-383.3501 1122.778,-373.9822 1115,-360 1104.7708,-341.6114 1085.4014,-328.683 1067.5311,-320.0968"/>
<polygon fill="#c0c0c0" stroke="#c0c0c0" stroke-width="2" points="1068.9361,-316.8911 1058.3791,-315.9966 1066.0741,-323.2793 1068.9361,-316.8911"/>
</g>
<!-- 15&#45;&gt;14 -->
<g id="edge31" class="edge">
<title>15&#45;&gt;14</title>
<path fill="none" stroke="#c0c0c0" stroke-width="2" d="M906,-503.8314C906,-496.131 906,-486.9743 906,-478.4166"/>
<polygon fill="#c0c0c0" stroke="#c0c0c0" stroke-width="2" points="909.5001,-478.4132 906,-468.4133 902.5001,-478.4133 909.5001,-478.4132"/>
</g>
<!-- 16 -->
<g id="node17" class="node">
<title>16</title>
<path fill="none" stroke="#56d8c1" stroke-width="2" d="M946,-612C946,-612 866,-612 866,-612 860,-612 854,-606 854,-600 854,-600 854,-588 854,-588 854,-582 860,-576 866,-576 866,-576 946,-576 946,-576 952,-576 958,-582 958,-588 958,-588 958,-600 958,-600 958,-606 952,-612 946,-612"/>
<text text-anchor="middle" x="906" y="-591.5" font-family="sans" font-size="10.00" fill="#000000">create_index_star</text>
</g>
<!-- 16&#45;&gt;15 -->
<g id="edge33" class="edge">
<title>16&#45;&gt;15</title>
<path fill="none" stroke="#c0c0c0" stroke-width="2" d="M906,-575.8314C906,-568.131 906,-558.9743 906,-550.4166"/>
<polygon fill="#c0c0c0" stroke="#c0c0c0" stroke-width="2" points="909.5001,-550.4132 906,-540.4133 902.5001,-550.4133 909.5001,-550.4132"/>
</g>
<!-- 16&#45;&gt;19 -->
<g id="edge36" class="edge">
<title>16&#45;&gt;19</title>
<path fill="none" stroke="#c0c0c0" stroke-width="2" d="M872.1861,-575.8314C854.7293,-566.4516 833.2513,-554.9112 814.6648,-544.9244"/>
<polygon fill="#c0c0c0" stroke="#c0c0c0" stroke-width="2" points="816.2686,-541.8129 805.803,-540.1628 812.9554,-547.9792 816.2686,-541.8129"/>
</g>
<!-- 23 -->
<g id="node24" class="node">
<title>23</title>
<path fill="none" stroke="#61d856" stroke-width="2" d="M1134,-468C1134,-468 1042,-468 1042,-468 1036,-468 1030,-462 1030,-456 1030,-456 1030,-444 1030,-444 1030,-438 1036,-432 1042,-432 1042,-432 1134,-432 1134,-432 1140,-432 1146,-438 1146,-444 1146,-444 1146,-456 1146,-456 1146,-462 1140,-468 1134,-468"/>
<text text-anchor="middle" x="1088" y="-447.5" font-family="sans" font-size="10.00" fill="#000000">generate_alfa_index</text>
</g>
<!-- 16&#45;&gt;23 -->
<g id="edge43" class="edge">
<title>16&#45;&gt;23</title>
<path fill="none" stroke="#c0c0c0" stroke-width="2" d="M930.8548,-575.7608C944.8189,-565.4135 962.5029,-552.1424 978,-540 1005.5562,-518.409 1036.3542,-493.1071 1058.3372,-474.8389"/>
<polygon fill="#c0c0c0" stroke="#c0c0c0" stroke-width="2" points="1060.8603,-477.2925 1066.3057,-468.2042 1056.3813,-471.9131 1060.8603,-477.2925"/>
</g>
<!-- 27 -->
<g id="node28" class="node">
<title>27</title>
<path fill="none" stroke="#d8d356" stroke-width="2" d="M625.5,-396C625.5,-396 528.5,-396 528.5,-396 522.5,-396 516.5,-390 516.5,-384 516.5,-384 516.5,-372 516.5,-372 516.5,-366 522.5,-360 528.5,-360 528.5,-360 625.5,-360 625.5,-360 631.5,-360 637.5,-366 637.5,-372 637.5,-372 637.5,-384 637.5,-384 637.5,-390 631.5,-396 625.5,-396"/>
<text text-anchor="middle" x="577" y="-375.5" font-family="sans" font-size="10.00" fill="#000000">create_index_salmon</text>
</g>
<!-- 16&#45;&gt;27 -->
<g id="edge50" class="edge">
<title>16&#45;&gt;27</title>
<path fill="none" stroke="#c0c0c0" stroke-width="2" d="M853.748,-588.4058C812.0736,-581.9672 753.6576,-568.3613 710,-540 656.2164,-505.0606 613.4483,-441.4431 592.0213,-405.1972"/>
<polygon fill="#c0c0c0" stroke="#c0c0c0" stroke-width="2" points="594.8367,-403.0747 586.7957,-396.1759 588.7795,-406.5834 594.8367,-403.0747"/>
</g>
<!-- 35 -->
<g id="node36" class="node">
<title>35</title>
<path fill="none" stroke="#d87d56" stroke-width="2" d="M1081.5,-108C1081.5,-108 1012.5,-108 1012.5,-108 1006.5,-108 1000.5,-102 1000.5,-96 1000.5,-96 1000.5,-84 1000.5,-84 1000.5,-78 1006.5,-72 1012.5,-72 1012.5,-72 1081.5,-72 1081.5,-72 1087.5,-72 1093.5,-78 1093.5,-84 1093.5,-84 1093.5,-96 1093.5,-96 1093.5,-102 1087.5,-108 1081.5,-108"/>
<text text-anchor="middle" x="1047" y="-87.5" font-family="sans" font-size="10.00" fill="#000000">prepare_bigWig</text>
</g>
<!-- 16&#45;&gt;35 -->
<g id="edge63" class="edge">
<title>16&#45;&gt;35</title>
<path fill="none" stroke="#c0c0c0" stroke-width="2" d="M958.2595,-580.7254C1045.1776,-557.0996 1210,-505.0415 1210,-450 1210,-450 1210,-450 1210,-234 1210,-175.4131 1150.1249,-134.947 1102.9528,-112.1573"/>
<polygon fill="#c0c0c0" stroke="#c0c0c0" stroke-width="2" points="1104.2504,-108.9003 1093.7093,-107.8349 1101.2852,-115.2413 1104.2504,-108.9003"/>
</g>
<!-- 17&#45;&gt;13 -->
<g id="edge30" class="edge">
<title>17&#45;&gt;13</title>
<path fill="none" stroke="#c0c0c0" stroke-width="2" d="M975.1955,-359.8314C958.4138,-350.5368 937.8015,-339.1208 919.8837,-329.1971"/>
<polygon fill="#c0c0c0" stroke="#c0c0c0" stroke-width="2" points="921.2377,-325.9461 910.794,-324.1628 917.8462,-332.0696 921.2377,-325.9461"/>
</g>
<!-- 17&#45;&gt;22 -->
<g id="edge42" class="edge">
<title>17&#45;&gt;22</title>
<path fill="none" stroke="#c0c0c0" stroke-width="2" d="M1013.0468,-359.8314C1015.2094,-352.0463 1017.7853,-342.7729 1020.1848,-334.1347"/>
<polygon fill="#c0c0c0" stroke="#c0c0c0" stroke-width="2" points="1023.581,-334.9852 1022.8852,-324.4133 1016.8364,-333.1117 1023.581,-334.9852"/>
</g>
<!-- 18 -->
<g id="node19" class="node">
<title>18</title>
<path fill="none" stroke="#56c9d8" stroke-width="2" d="M880,-396C880,-396 744,-396 744,-396 738,-396 732,-390 732,-384 732,-384 732,-372 732,-372 732,-366 738,-360 744,-360 744,-360 880,-360 880,-360 886,-360 892,-366 892,-372 892,-372 892,-384 892,-384 892,-390 886,-396 880,-396"/>
<text text-anchor="middle" x="812" y="-375.5" font-family="sans" font-size="10.00" fill="#000000">extract_transcripts_as_bed12</text>
</g>
<!-- 18&#45;&gt;13 -->
<g id="edge29" class="edge">
<title>18&#45;&gt;13</title>
<path fill="none" stroke="#c0c0c0" stroke-width="2" d="M828.6546,-359.8314C836.4114,-351.3694 845.7802,-341.1489 854.261,-331.8971"/>
<polygon fill="#c0c0c0" stroke="#c0c0c0" stroke-width="2" points="856.9439,-334.1499 861.1212,-324.4133 851.7838,-329.4198 856.9439,-334.1499"/>
</g>
<!-- 19&#45;&gt;14 -->
<g id="edge32" class="edge">
<title>19&#45;&gt;14</title>
<path fill="none" stroke="#c0c0c0" stroke-width="2" d="M805.8139,-503.8314C823.2707,-494.4516 844.7487,-482.9112 863.3352,-472.9244"/>
<polygon fill="#c0c0c0" stroke="#c0c0c0" stroke-width="2" points="865.0446,-475.9792 872.197,-468.1628 861.7314,-469.8129 865.0446,-475.9792"/>
</g>
<!-- 20 -->
<g id="node21" class="node">
<title>20</title>
<path fill="none" stroke="#5692d8" stroke-width="2" d="M972,-180C972,-180 942,-180 942,-180 936,-180 930,-174 930,-168 930,-168 930,-156 930,-156 930,-150 936,-144 942,-144 942,-144 972,-144 972,-144 978,-144 984,-150 984,-156 984,-156 984,-168 984,-168 984,-174 978,-180 972,-180"/>
<text text-anchor="middle" x="957" y="-159.5" font-family="sans" font-size="10.00" fill="#000000">alfa_qc</text>
</g>
<!-- 20&#45;&gt;1 -->
<g id="edge10" class="edge">
<title>20&#45;&gt;1</title>
<path fill="none" stroke="#c0c0c0" stroke-width="2" d="M929.8819,-153.8249C918.0237,-150.4529 903.9019,-146.709 891,-144 782.3885,-121.1947 653.5255,-104.4237 582.2512,-96.0333"/>
<polygon fill="#c0c0c0" stroke="#c0c0c0" stroke-width="2" points="582.5006,-92.5387 572.1624,-94.8564 581.6895,-99.4916 582.5006,-92.5387"/>
</g>
<!-- 21 -->
<g id="node22" class="node">
<title>21</title>
<path fill="none" stroke="#88d856" stroke-width="2" d="M1089,-252C1089,-252 967,-252 967,-252 961,-252 955,-246 955,-240 955,-240 955,-228 955,-228 955,-222 961,-216 967,-216 967,-216 1089,-216 1089,-216 1095,-216 1101,-222 1101,-228 1101,-228 1101,-240 1101,-240 1101,-246 1095,-252 1089,-252"/>
<text text-anchor="middle" x="1028" y="-231.5" font-family="sans" font-size="10.00" fill="#000000">rename_star_rpm_for_alfa</text>
</g>
<!-- 21&#45;&gt;20 -->
<g id="edge38" class="edge">
<title>21&#45;&gt;20</title>
<path fill="none" stroke="#c0c0c0" stroke-width="2" d="M1010.0837,-215.8314C1001.6558,-207.2848 991.459,-196.9443 982.264,-187.6198"/>
<polygon fill="#c0c0c0" stroke="#c0c0c0" stroke-width="2" points="984.6711,-185.0761 975.1575,-180.4133 979.6869,-189.9912 984.6711,-185.0761"/>
</g>
<!-- 36 -->
<g id="node37" class="node">
<title>36</title>
<path fill="none" stroke="#97d856" stroke-width="2" d="M1080,-180C1080,-180 1014,-180 1014,-180 1008,-180 1002,-174 1002,-168 1002,-168 1002,-156 1002,-156 1002,-150 1008,-144 1014,-144 1014,-144 1080,-144 1080,-144 1086,-144 1092,-150 1092,-156 1092,-156 1092,-168 1092,-168 1092,-174 1086,-180 1080,-180"/>
<text text-anchor="middle" x="1047" y="-159.5" font-family="sans" font-size="10.00" fill="#000000">sort_bed_4_big</text>
</g>
<!-- 21&#45;&gt;36 -->
<g id="edge65" class="edge">
<title>21&#45;&gt;36</title>
<path fill="none" stroke="#c0c0c0" stroke-width="2" d="M1032.7945,-215.8314C1034.8489,-208.0463 1037.296,-198.7729 1039.5756,-190.1347"/>
<polygon fill="#c0c0c0" stroke="#c0c0c0" stroke-width="2" points="1042.9735,-190.9753 1042.1409,-180.4133 1036.2052,-189.1892 1042.9735,-190.9753"/>
</g>
<!-- 22&#45;&gt;21 -->
<g id="edge40" class="edge">
<title>22&#45;&gt;21</title>
<path fill="none" stroke="#c0c0c0" stroke-width="2" d="M1028,-287.8314C1028,-280.131 1028,-270.9743 1028,-262.4166"/>
<polygon fill="#c0c0c0" stroke="#c0c0c0" stroke-width="2" points="1031.5001,-262.4132 1028,-252.4133 1024.5001,-262.4133 1031.5001,-262.4132"/>
</g>
<!-- 23&#45;&gt;20 -->
<g id="edge39" class="edge">
<title>23&#45;&gt;20</title>
<path fill="none" stroke="#c0c0c0" stroke-width="2" d="M1108.4026,-431.5625C1117.4941,-421.9675 1127.2162,-409.4441 1132,-396 1149.7559,-346.0992 1150.0981,-262.4675 1110,-216 1076.3998,-177.0625 1046.9023,-197.6529 993.7677,-179.7479"/>
<polygon fill="#c0c0c0" stroke="#c0c0c0" stroke-width="2" points="994.8963,-176.4336 984.3033,-176.235 992.4604,-182.9961 994.8963,-176.4336"/>
</g>
<!-- 24 -->
<g id="node25" class="node">
<title>24</title>
<path fill="none" stroke="#56a9d8" stroke-width="2" d="M743.5,-180C743.5,-180 692.5,-180 692.5,-180 686.5,-180 680.5,-174 680.5,-168 680.5,-168 680.5,-156 680.5,-156 680.5,-150 686.5,-144 692.5,-144 692.5,-144 743.5,-144 743.5,-144 749.5,-144 755.5,-150 755.5,-156 755.5,-156 755.5,-168 755.5,-168 755.5,-174 749.5,-180 743.5,-180"/>
<text text-anchor="middle" x="718" y="-159.5" font-family="sans" font-size="10.00" fill="#000000">pca_salmon</text>
</g>
<!-- 24&#45;&gt;1 -->
<g id="edge7" class="edge">
<title>24&#45;&gt;1</title>
<path fill="none" stroke="#c0c0c0" stroke-width="2" d="M680.4621,-147.7751C652.2355,-137.0787 613.1678,-122.2741 581.6469,-110.3294"/>
<polygon fill="#c0c0c0" stroke="#c0c0c0" stroke-width="2" points="582.7186,-106.9926 572.1272,-106.7219 580.238,-113.5384 582.7186,-106.9926"/>
</g>
<!-- 25 -->
<g id="node26" class="node">
<title>25</title>
<path fill="none" stroke="#5673d8" stroke-width="2" d="M836,-252C836,-252 708,-252 708,-252 702,-252 696,-246 696,-240 696,-240 696,-228 696,-228 696,-222 702,-216 708,-216 708,-216 836,-216 836,-216 842,-216 848,-222 848,-228 848,-228 848,-240 848,-240 848,-246 842,-252 836,-252"/>
<text text-anchor="middle" x="772" y="-231.5" font-family="sans" font-size="10.00" fill="#000000">salmon_quantmerge_genes</text>
</g>
<!-- 25&#45;&gt;0 -->
<g id="edge3" class="edge">
<title>25&#45;&gt;0</title>
<path fill="none" stroke="#c0c0c0" stroke-width="2" d="M774.6657,-215.9178C776.584,-196.8577 777.0376,-166.5317 765,-144 737.6605,-92.8266 679.6306,-55.487 641.4878,-35.2721"/>
<polygon fill="#c0c0c0" stroke="#c0c0c0" stroke-width="2" points="642.7412,-31.9804 632.2498,-30.5037 639.5305,-38.2006 642.7412,-31.9804"/>
</g>
<!-- 25&#45;&gt;24 -->
<g id="edge45" class="edge">
<title>25&#45;&gt;24</title>
<path fill="none" stroke="#c0c0c0" stroke-width="2" d="M758.3735,-215.8314C752.154,-207.5386 744.6678,-197.557 737.84,-188.4533"/>
<polygon fill="#c0c0c0" stroke="#c0c0c0" stroke-width="2" points="740.61,-186.3133 731.81,-180.4133 735.01,-190.5133 740.61,-186.3133"/>
</g>
<!-- 26&#45;&gt;25 -->
<g id="edge47" class="edge">
<title>26&#45;&gt;25</title>
<path fill="none" stroke="#c0c0c0" stroke-width="2" d="M739.8507,-287.8314C744.7023,-279.7079 750.5217,-269.9637 755.868,-261.0118"/>
<polygon fill="#c0c0c0" stroke="#c0c0c0" stroke-width="2" points="758.8806,-262.7933 761.0032,-252.4133 752.8708,-259.2041 758.8806,-262.7933"/>
</g>
<!-- 30 -->
<g id="node31" class="node">
<title>30</title>
<path fill="none" stroke="#d8c356" stroke-width="2" d="M666,-252C666,-252 516,-252 516,-252 510,-252 504,-246 504,-240 504,-240 504,-228 504,-228 504,-222 510,-216 516,-216 516,-216 666,-216 666,-216 672,-216 678,-222 678,-228 678,-228 678,-240 678,-240 678,-246 672,-252 666,-252"/>
<text text-anchor="middle" x="591" y="-231.5" font-family="sans" font-size="10.00" fill="#000000">salmon_quantmerge_transcripts</text>
</g>
<!-- 26&#45;&gt;30 -->
<g id="edge56" class="edge">
<title>26&#45;&gt;30</title>
<path fill="none" stroke="#c0c0c0" stroke-width="2" d="M694.1768,-287.8314C676.1989,-278.4516 654.0797,-266.9112 634.9384,-256.9244"/>
<polygon fill="#c0c0c0" stroke="#c0c0c0" stroke-width="2" points="636.2969,-253.6855 625.8121,-252.1628 633.0589,-259.8916 636.2969,-253.6855"/>
</g>
<!-- 27&#45;&gt;26 -->
<g id="edge49" class="edge">
<title>27&#45;&gt;26</title>
<path fill="none" stroke="#c0c0c0" stroke-width="2" d="M615.356,-359.8314C635.5044,-350.2874 660.3752,-338.5065 681.7083,-328.4013"/>
<polygon fill="#c0c0c0" stroke="#c0c0c0" stroke-width="2" points="683.3807,-331.482 690.9198,-324.038 680.3841,-325.1558 683.3807,-331.482"/>
</g>
<!-- 27&#45;&gt;29 -->
<g id="edge53" class="edge">
<title>27&#45;&gt;29</title>
<path fill="none" stroke="#c0c0c0" stroke-width="2" d="M577,-359.8314C577,-352.131 577,-342.9743 577,-334.4166"/>
<polygon fill="#c0c0c0" stroke="#c0c0c0" stroke-width="2" points="580.5001,-334.4132 577,-324.4133 573.5001,-334.4133 580.5001,-334.4132"/>
</g>
<!-- 28&#45;&gt;27 -->
<g id="edge51" class="edge">
<title>28&#45;&gt;27</title>
<path fill="none" stroke="#c0c0c0" stroke-width="2" d="M482.0475,-431.8314C498.442,-422.5368 518.5786,-411.1208 536.0829,-401.1971"/>
<polygon fill="#c0c0c0" stroke="#c0c0c0" stroke-width="2" points="537.9897,-404.1395 544.9628,-396.1628 534.5374,-398.05 537.9897,-404.1395"/>
</g>
<!-- 29&#45;&gt;25 -->
<g id="edge46" class="edge">
<title>29&#45;&gt;25</title>
<path fill="none" stroke="#c0c0c0" stroke-width="2" d="M625.955,-287.9243C652.4968,-278.1243 685.4823,-265.945 713.3858,-255.6422"/>
<polygon fill="#c0c0c0" stroke="#c0c0c0" stroke-width="2" points="714.8562,-258.8303 723.0248,-252.0831 712.4315,-252.2636 714.8562,-258.8303"/>
</g>
<!-- 29&#45;&gt;30 -->
<g id="edge55" class="edge">
<title>29&#45;&gt;30</title>
<path fill="none" stroke="#c0c0c0" stroke-width="2" d="M580.5328,-287.8314C582.0301,-280.131 583.8105,-270.9743 585.4745,-262.4166"/>
<polygon fill="#c0c0c0" stroke="#c0c0c0" stroke-width="2" points="588.9465,-262.8975 587.4196,-252.4133 582.0752,-261.5614 588.9465,-262.8975"/>
</g>
<!-- 30&#45;&gt;0 -->
<g id="edge2" class="edge">
<title>30&#45;&gt;0</title>
<path fill="none" stroke="#c0c0c0" stroke-width="2" d="M610.05,-215.8859C618.857,-206.1885 628.3746,-193.4808 633,-180 648.6138,-134.493 631.5264,-78.6784 618.0324,-45.8598"/>
<polygon fill="#c0c0c0" stroke="#c0c0c0" stroke-width="2" points="621.156,-44.263 614.0002,-36.4499 614.7219,-47.0202 621.156,-44.263"/>
</g>
<!-- 30&#45;&gt;24 -->
<g id="edge44" class="edge">
<title>30&#45;&gt;24</title>
<path fill="none" stroke="#c0c0c0" stroke-width="2" d="M623.0475,-215.8314C639.442,-206.5368 659.5786,-195.1208 677.0829,-185.1971"/>
<polygon fill="#c0c0c0" stroke="#c0c0c0" stroke-width="2" points="678.9897,-188.1395 685.9628,-180.1628 675.5374,-182.05 678.9897,-188.1395"/>
</g>
<!-- 31 -->
<g id="node32" class="node">
<title>31</title>
<path fill="none" stroke="#56d87b" stroke-width="2" d="M385.5,-180C385.5,-180 334.5,-180 334.5,-180 328.5,-180 322.5,-174 322.5,-168 322.5,-168 322.5,-156 322.5,-156 322.5,-150 328.5,-144 334.5,-144 334.5,-144 385.5,-144 385.5,-144 391.5,-144 397.5,-150 397.5,-156 397.5,-156 397.5,-168 397.5,-168 397.5,-174 391.5,-180 385.5,-180"/>
<text text-anchor="middle" x="360" y="-159.5" font-family="sans" font-size="10.00" fill="#000000">pca_kallisto</text>
</g>
<!-- 31&#45;&gt;1 -->
<g id="edge12" class="edge">
<title>31&#45;&gt;1</title>
<path fill="none" stroke="#c0c0c0" stroke-width="2" d="M397.7025,-145.8418C420.9497,-135.8787 451.077,-122.967 476.5053,-112.0692"/>
<polygon fill="#c0c0c0" stroke="#c0c0c0" stroke-width="2" points="478.184,-115.1576 485.9968,-108.0014 475.4266,-108.7236 478.184,-115.1576"/>
</g>
<!-- 32&#45;&gt;0 -->
<g id="edge1" class="edge">
<title>32&#45;&gt;0</title>
<path fill="none" stroke="#c0c0c0" stroke-width="2" d="M236.6515,-215.8734C253.9953,-196.4993 283.4378,-165.6533 313,-144 394.9377,-83.9835 509.8927,-45.1597 568.1058,-28.0609"/>
<polygon fill="#c0c0c0" stroke="#c0c0c0" stroke-width="2" points="569.3217,-31.3529 577.9583,-25.2161 567.3798,-24.6276 569.3217,-31.3529"/>
</g>
<!-- 32&#45;&gt;31 -->
<g id="edge57" class="edge">
<title>32&#45;&gt;31</title>
<path fill="none" stroke="#c0c0c0" stroke-width="2" d="M256.0756,-215.8314C274.2661,-206.4089 296.6658,-194.8062 316.006,-184.7883"/>
<polygon fill="#c0c0c0" stroke="#c0c0c0" stroke-width="2" points="317.666,-187.8701 324.9357,-180.1628 314.4463,-181.6545 317.666,-187.8701"/>
</g>
<!-- 33&#45;&gt;0 -->
<g id="edge5" class="edge">
<title>33&#45;&gt;0</title>
<path fill="none" stroke="#c0c0c0" stroke-width="2" d="M384.9181,-215.8337C409.7158,-174.665 468.634,-77.4003 475,-72 501.9724,-49.1195 539.9967,-34.8506 567.9562,-26.7692"/>
<polygon fill="#c0c0c0" stroke="#c0c0c0" stroke-width="2" points="569.0515,-30.0979 577.7626,-24.0673 567.1921,-23.3494 569.0515,-30.0979"/>
</g>
<!-- 33&#45;&gt;31 -->
<g id="edge58" class="edge">
<title>33&#45;&gt;31</title>
<path fill="none" stroke="#c0c0c0" stroke-width="2" d="M370.4672,-215.8314C368.9699,-208.131 367.1895,-198.9743 365.5255,-190.4166"/>
<polygon fill="#c0c0c0" stroke="#c0c0c0" stroke-width="2" points="368.9248,-189.5614 363.5804,-180.4133 362.0535,-190.8975 368.9248,-189.5614"/>
</g>
<!-- 34 -->
<g id="node35" class="node">
<title>34</title>
<path fill="none" stroke="#56d8b1" stroke-width="2" d="M611.5,-180C611.5,-180 504.5,-180 504.5,-180 498.5,-180 492.5,-174 492.5,-168 492.5,-168 492.5,-156 492.5,-156 492.5,-150 498.5,-144 504.5,-144 504.5,-144 611.5,-144 611.5,-144 617.5,-144 623.5,-150 623.5,-156 623.5,-156 623.5,-168 623.5,-168 623.5,-174 617.5,-180 611.5,-180"/>
<text text-anchor="middle" x="558" y="-159.5" font-family="sans" font-size="10.00" fill="#000000">prepare_multiqc_config</text>
</g>
<!-- 34&#45;&gt;1 -->
<g id="edge14" class="edge">
<title>34&#45;&gt;1</title>
<path fill="none" stroke="#c0c0c0" stroke-width="2" d="M550.4297,-143.8314C547.1507,-135.9617 543.238,-126.5712 539.6055,-117.8533"/>
<polygon fill="#c0c0c0" stroke="#c0c0c0" stroke-width="2" points="542.7492,-116.2979 535.6722,-108.4133 536.2876,-118.9902 542.7492,-116.2979"/>
</g>
<!-- 35&#45;&gt;0 -->
<g id="edge6" class="edge">
<title>35&#45;&gt;0</title>
<path fill="none" stroke="#c0c0c0" stroke-width="2" d="M1000.1167,-82.3629C911.8756,-67.9888 722.7777,-37.1855 642.3942,-24.0914"/>
<polygon fill="#c0c0c0" stroke="#c0c0c0" stroke-width="2" points="642.6761,-20.5912 632.2434,-22.4378 641.5506,-27.5002 642.6761,-20.5912"/>
</g>
<!-- 36&#45;&gt;35 -->
<g id="edge64" class="edge">
<title>36&#45;&gt;35</title>
<path fill="none" stroke="#c0c0c0" stroke-width="2" d="M1047,-143.8314C1047,-136.131 1047,-126.9743 1047,-118.4166"/>
<polygon fill="#c0c0c0" stroke="#c0c0c0" stroke-width="2" points="1050.5001,-118.4132 1047,-108.4133 1043.5001,-118.4133 1050.5001,-118.4132"/>
</g>
</g>
</svg>
